%TF.GenerationSoftware,KiCad,Pcbnew,10.0.6*%
%TF.CreationDate,2026-09-25T01:06:32-05:00*%
%TF.ProjectId,hp_sensor_routed,68705f73-656e-4736-9f72-5f726f757465,rev?*%
%TF.SameCoordinates,Original*%
%TF.FileFunction,Copper,L1,Top*%
%TF.FilePolarity,Positive*%
%FSLAX46Y46*%
G04 Gerber Fmt 4.6, Leading zero omitted, Abs format (unit mm)*
G04 Created by KiCad (PCBNEW 10.0.6) date 2026-09-25 01:06:32*
%MOMM*%
%LPD*%
G01*
G04 APERTURE LIST*
G04 Aperture macros list*
%AMRoundRect*
0 Rectangle with rounded corners*
0 $1 Rounding radius*
0 $2 $3 $4 $5 $6 $7 $8 $9 X,Y pos of 4 corners*
0 Add a 4 corners polygon primitive as box body*
4,1,4,$2,$3,$4,$5,$6,$7,$8,$9,$2,$3,0*
0 Add four circle primitives for the rounded corners*
1,1,$1+$1,$2,$3*
1,1,$1+$1,$4,$5*
1,1,$1+$1,$6,$7*
1,1,$1+$1,$8,$9*
0 Add four rect primitives between the rounded corners*
20,1,$1+$1,$2,$3,$4,$5,0*
20,1,$1+$1,$4,$5,$6,$7,0*
20,1,$1+$1,$6,$7,$8,$9,0*
20,1,$1+$1,$8,$9,$2,$3,0*%
%AMFreePoly0*
4,1,9,3.862500,-0.866500,0.737500,-0.866500,0.737500,-0.450000,-0.737500,-0.450000,-0.737500,0.450000,0.737500,0.450000,0.737500,0.866500,3.862500,0.866500,3.862500,-0.866500,3.862500,-0.866500,$1*%
G04 Aperture macros list end*
%TA.AperFunction,SMDPad,CuDef*%
%ADD10RoundRect,0.140000X-0.140000X-0.170000X0.140000X-0.170000X0.140000X0.170000X-0.140000X0.170000X0*%
%TD*%
%TA.AperFunction,SMDPad,CuDef*%
%ADD11R,0.750000X1.000000*%
%TD*%
%TA.AperFunction,SMDPad,CuDef*%
%ADD12RoundRect,0.135000X-0.135000X-0.185000X0.135000X-0.185000X0.135000X0.185000X-0.135000X0.185000X0*%
%TD*%
%TA.AperFunction,SMDPad,CuDef*%
%ADD13RoundRect,0.200000X-0.200000X-0.275000X0.200000X-0.275000X0.200000X0.275000X-0.200000X0.275000X0*%
%TD*%
%TA.AperFunction,SMDPad,CuDef*%
%ADD14RoundRect,0.250000X-0.300000X-0.300000X0.300000X-0.300000X0.300000X0.300000X-0.300000X0.300000X0*%
%TD*%
%TA.AperFunction,SMDPad,CuDef*%
%ADD15RoundRect,0.087500X-0.662500X-0.087500X0.662500X-0.087500X0.662500X0.087500X-0.662500X0.087500X0*%
%TD*%
%TA.AperFunction,SMDPad,CuDef*%
%ADD16RoundRect,0.250000X-0.250000X-0.475000X0.250000X-0.475000X0.250000X0.475000X-0.250000X0.475000X0*%
%TD*%
%TA.AperFunction,SMDPad,CuDef*%
%ADD17RoundRect,0.135000X0.185000X-0.135000X0.185000X0.135000X-0.185000X0.135000X-0.185000X-0.135000X0*%
%TD*%
%TA.AperFunction,ComponentPad*%
%ADD18R,1.600000X1.600000*%
%TD*%
%TA.AperFunction,ComponentPad*%
%ADD19C,1.600000*%
%TD*%
%TA.AperFunction,SMDPad,CuDef*%
%ADD20RoundRect,0.140000X0.170000X-0.140000X0.170000X0.140000X-0.170000X0.140000X-0.170000X-0.140000X0*%
%TD*%
%TA.AperFunction,SMDPad,CuDef*%
%ADD21RoundRect,0.250000X0.475000X-0.250000X0.475000X0.250000X-0.475000X0.250000X-0.475000X-0.250000X0*%
%TD*%
%TA.AperFunction,SMDPad,CuDef*%
%ADD22RoundRect,0.150000X-0.587500X-0.150000X0.587500X-0.150000X0.587500X0.150000X-0.587500X0.150000X0*%
%TD*%
%TA.AperFunction,SMDPad,CuDef*%
%ADD23RoundRect,0.225000X0.250000X-0.225000X0.250000X0.225000X-0.250000X0.225000X-0.250000X-0.225000X0*%
%TD*%
%TA.AperFunction,ComponentPad*%
%ADD24R,2.400000X2.400000*%
%TD*%
%TA.AperFunction,ComponentPad*%
%ADD25C,2.400000*%
%TD*%
%TA.AperFunction,SMDPad,CuDef*%
%ADD26R,1.800000X1.000000*%
%TD*%
%TA.AperFunction,SMDPad,CuDef*%
%ADD27RoundRect,0.075000X-0.700000X-0.075000X0.700000X-0.075000X0.700000X0.075000X-0.700000X0.075000X0*%
%TD*%
%TA.AperFunction,SMDPad,CuDef*%
%ADD28RoundRect,0.075000X-0.075000X-0.700000X0.075000X-0.700000X0.075000X0.700000X-0.075000X0.700000X0*%
%TD*%
%TA.AperFunction,SMDPad,CuDef*%
%ADD29RoundRect,0.250000X-0.450000X0.262500X-0.450000X-0.262500X0.450000X-0.262500X0.450000X0.262500X0*%
%TD*%
%TA.AperFunction,SMDPad,CuDef*%
%ADD30RoundRect,0.112500X0.112500X-0.187500X0.112500X0.187500X-0.112500X0.187500X-0.112500X-0.187500X0*%
%TD*%
%TA.AperFunction,SMDPad,CuDef*%
%ADD31RoundRect,0.225000X-0.225000X-0.250000X0.225000X-0.250000X0.225000X0.250000X-0.225000X0.250000X0*%
%TD*%
%TA.AperFunction,SMDPad,CuDef*%
%ADD32RoundRect,0.225000X-0.425000X-0.225000X0.425000X-0.225000X0.425000X0.225000X-0.425000X0.225000X0*%
%TD*%
%TA.AperFunction,SMDPad,CuDef*%
%ADD33FreePoly0,0.000000*%
%TD*%
%TA.AperFunction,ViaPad*%
%ADD34C,0.600000*%
%TD*%
%TA.AperFunction,ViaPad*%
%ADD35C,0.500000*%
%TD*%
%TA.AperFunction,Conductor*%
%ADD36C,0.200000*%
%TD*%
%TA.AperFunction,Conductor*%
%ADD37C,0.300000*%
%TD*%
%TA.AperFunction,Conductor*%
%ADD38C,0.250000*%
%TD*%
G04 APERTURE END LIST*
D10*
%TO.P,C24,1*%
%TO.N,A3_TH4*%
X133770000Y-78250000D03*
%TO.P,C24,2*%
%TO.N,GND*%
X134730000Y-78250000D03*
%TD*%
D11*
%TO.P,RH10,1*%
%TO.N,H_9*%
X174630000Y-80000000D03*
%TO.P,RH10,2*%
%TO.N,H_10*%
X176130000Y-80000000D03*
%TD*%
D10*
%TO.P,C21,1*%
%TO.N,A0_TH1*%
X133770000Y-72250000D03*
%TO.P,C21,2*%
%TO.N,GND*%
X134730000Y-72250000D03*
%TD*%
D11*
%TO.P,RH15,1*%
%TO.N,H_14*%
X187630000Y-80000000D03*
%TO.P,RH15,2*%
%TO.N,H_15*%
X189130000Y-80000000D03*
%TD*%
D12*
%TO.P,R14,1*%
%TO.N,+5V*%
X124490000Y-88000000D03*
%TO.P,R14,2*%
%TO.N,NMI*%
X125510000Y-88000000D03*
%TD*%
%TO.P,R16,1*%
%TO.N,VBUS_SENSE*%
X112790000Y-85500000D03*
%TO.P,R16,2*%
%TO.N,GND*%
X113810000Y-85500000D03*
%TD*%
D10*
%TO.P,C13,1*%
%TO.N,VREF*%
X120020000Y-72000000D03*
%TO.P,C13,2*%
%TO.N,GND*%
X120980000Y-72000000D03*
%TD*%
D13*
%TO.P,R22,1*%
%TO.N,VREF*%
X130175000Y-74250000D03*
%TO.P,R22,2*%
%TO.N,A1_TH2*%
X131825000Y-74250000D03*
%TD*%
D14*
%TO.P,D5,1*%
%TO.N,+5V*%
X136100000Y-80250000D03*
%TO.P,D5,2*%
%TO.N,VUSB*%
X138900000Y-80250000D03*
%TD*%
D15*
%TO.P,U4,1*%
%TO.N,GND*%
X130900000Y-84500000D03*
%TO.P,U4,2*%
X130900000Y-85000000D03*
%TO.P,U4,3*%
%TO.N,N/C*%
X130900000Y-85500000D03*
%TO.P,U4,4*%
%TO.N,A4_SDA*%
X130900000Y-86000000D03*
%TO.P,U4,5*%
%TO.N,A5_SCL*%
X130900000Y-86500000D03*
%TO.P,U4,6*%
%TO.N,+5V*%
X135100000Y-86500000D03*
%TO.P,U4,7*%
%TO.N,GND*%
X135100000Y-86000000D03*
%TO.P,U4,8*%
%TO.N,HEAT_P*%
X135100000Y-85500000D03*
%TO.P,U4,9*%
X135100000Y-85000000D03*
%TO.P,U4,10*%
%TO.N,VIN_P*%
X135100000Y-84500000D03*
%TD*%
D12*
%TO.P,R7,1*%
%TO.N,+5V*%
X131990000Y-88000000D03*
%TO.P,R7,2*%
%TO.N,A5_SCL*%
X133010000Y-88000000D03*
%TD*%
D11*
%TO.P,RH7,1*%
%TO.N,H_6*%
X166830000Y-80000000D03*
%TO.P,RH7,2*%
%TO.N,H_7*%
X168330000Y-80000000D03*
%TD*%
D16*
%TO.P,C1,1*%
%TO.N,VIN_P*%
X106050000Y-74750000D03*
%TO.P,C1,2*%
%TO.N,GND*%
X107950000Y-74750000D03*
%TD*%
D17*
%TO.P,R15,1*%
%TO.N,VUSB*%
X114900000Y-85110000D03*
%TO.P,R15,2*%
%TO.N,VBUS_SENSE*%
X114900000Y-84090000D03*
%TD*%
D12*
%TO.P,R6,1*%
%TO.N,+5V*%
X129740000Y-88000000D03*
%TO.P,R6,2*%
%TO.N,A4_SDA*%
X130760000Y-88000000D03*
%TD*%
D10*
%TO.P,C9,1*%
%TO.N,+5V*%
X122020000Y-72000000D03*
%TO.P,C9,2*%
%TO.N,GND*%
X122980000Y-72000000D03*
%TD*%
D18*
%TO.P,J2,1*%
%TO.N,VUSB*%
X103750000Y-87500000D03*
D19*
%TO.P,J2,2*%
%TO.N,USB_DM*%
X106290000Y-87500000D03*
%TO.P,J2,3*%
%TO.N,USB_DP*%
X108830000Y-87500000D03*
%TO.P,J2,4*%
%TO.N,GND*%
X111370000Y-87500000D03*
%TO.P,J2,5*%
%TO.N,MD*%
X113910000Y-87500000D03*
%TD*%
D20*
%TO.P,C8,1*%
%TO.N,+5V*%
X130500000Y-80980000D03*
%TO.P,C8,2*%
%TO.N,GND*%
X130500000Y-80020000D03*
%TD*%
D11*
%TO.P,RH5,1*%
%TO.N,H_4*%
X161630000Y-80000000D03*
%TO.P,RH5,2*%
%TO.N,H_5*%
X163130000Y-80000000D03*
%TD*%
D12*
%TO.P,R2,1*%
%TO.N,+5V*%
X126490000Y-88000000D03*
%TO.P,R2,2*%
%TO.N,MD*%
X127510000Y-88000000D03*
%TD*%
D21*
%TO.P,C2,1*%
%TO.N,5V_LDO*%
X111000000Y-78700000D03*
%TO.P,C2,2*%
%TO.N,GND*%
X111000000Y-76800000D03*
%TD*%
D14*
%TO.P,D2,1*%
%TO.N,VIN*%
X109600000Y-74750000D03*
%TO.P,D2,2*%
%TO.N,GND*%
X112400000Y-74750000D03*
%TD*%
D10*
%TO.P,C4,1*%
%TO.N,SDI_LINE*%
X101270000Y-73750000D03*
%TO.P,C4,2*%
%TO.N,GND*%
X102230000Y-73750000D03*
%TD*%
D11*
%TO.P,RH11,1*%
%TO.N,H_10*%
X177230000Y-80000000D03*
%TO.P,RH11,2*%
%TO.N,H_11*%
X178730000Y-80000000D03*
%TD*%
%TO.P,RH8,1*%
%TO.N,H_7*%
X169430000Y-80000000D03*
%TO.P,RH8,2*%
%TO.N,H_8*%
X170930000Y-80000000D03*
%TD*%
D12*
%TO.P,R9,1*%
%TO.N,D9_HEAT*%
X139490000Y-86000000D03*
%TO.P,R9,2*%
%TO.N,HEAT_GATE*%
X140510000Y-86000000D03*
%TD*%
%TO.P,R1,1*%
%TO.N,+5V*%
X122490000Y-88000000D03*
%TO.P,R1,2*%
%TO.N,RESET*%
X123510000Y-88000000D03*
%TD*%
D14*
%TO.P,D7,1*%
%TO.N,+5V*%
X107350000Y-82500000D03*
%TO.P,D7,2*%
%TO.N,5V_LDO*%
X110150000Y-82500000D03*
%TD*%
D20*
%TO.P,C11,1*%
%TO.N,RESET*%
X115500000Y-88105000D03*
%TO.P,C11,2*%
%TO.N,GND*%
X115500000Y-87145000D03*
%TD*%
D11*
%TO.P,RH6,1*%
%TO.N,H_5*%
X164230000Y-80000000D03*
%TO.P,RH6,2*%
%TO.N,H_6*%
X165730000Y-80000000D03*
%TD*%
D22*
%TO.P,Q2,1*%
%TO.N,EXC_GATE*%
X140062500Y-73050000D03*
%TO.P,Q2,2*%
%TO.N,GND*%
X140062500Y-74950000D03*
%TO.P,Q2,3*%
%TO.N,TH_RTN*%
X141937500Y-74000000D03*
%TD*%
D23*
%TO.P,C10,1*%
%TO.N,VCL*%
X114600000Y-78175000D03*
%TO.P,C10,2*%
%TO.N,GND*%
X114600000Y-76625000D03*
%TD*%
D24*
%TO.P,J1,1*%
%TO.N,VIN*%
X102000000Y-76000000D03*
D25*
%TO.P,J1,2*%
%TO.N,SDI_LINE*%
X102000000Y-80000000D03*
%TO.P,J1,3*%
%TO.N,GND*%
X102000000Y-84000000D03*
%TD*%
D12*
%TO.P,TH3,1*%
%TO.N,A2_TH3*%
X172470000Y-88000000D03*
%TO.P,TH3,2*%
%TO.N,TH_RTN*%
X173490000Y-88000000D03*
%TD*%
%TO.P,R11,1*%
%TO.N,+5V*%
X117990000Y-72000000D03*
%TO.P,R11,2*%
%TO.N,VREF*%
X119010000Y-72000000D03*
%TD*%
D11*
%TO.P,RH9,1*%
%TO.N,H_8*%
X172030000Y-80000000D03*
%TO.P,RH9,2*%
%TO.N,H_9*%
X173530000Y-80000000D03*
%TD*%
D12*
%TO.P,R17,1*%
%TO.N,EXC_GATE*%
X140490000Y-77800000D03*
%TO.P,R17,2*%
%TO.N,GND*%
X141510000Y-77800000D03*
%TD*%
D13*
%TO.P,R21,1*%
%TO.N,VREF*%
X130175000Y-72250000D03*
%TO.P,R21,2*%
%TO.N,A0_TH1*%
X131825000Y-72250000D03*
%TD*%
D12*
%TO.P,R4,1*%
%TO.N,SDI_LINE*%
X113740000Y-75250000D03*
%TO.P,R4,2*%
%TO.N,GND*%
X114760000Y-75250000D03*
%TD*%
D11*
%TO.P,RH4,1*%
%TO.N,H_3*%
X159030000Y-80000000D03*
%TO.P,RH4,2*%
%TO.N,H_4*%
X160530000Y-80000000D03*
%TD*%
D10*
%TO.P,C23,1*%
%TO.N,A2_TH3*%
X133770000Y-76250000D03*
%TO.P,C23,2*%
%TO.N,GND*%
X134730000Y-76250000D03*
%TD*%
D11*
%TO.P,RH17,1*%
%TO.N,H_16*%
X192830000Y-80000000D03*
%TO.P,RH17,2*%
%TO.N,HEAT_RTN*%
X194330000Y-80000000D03*
%TD*%
D12*
%TO.P,R12,1*%
%TO.N,D4_EXC*%
X140490000Y-76600000D03*
%TO.P,R12,2*%
%TO.N,EXC_GATE*%
X141510000Y-76600000D03*
%TD*%
D13*
%TO.P,R24,1*%
%TO.N,VREF*%
X130175000Y-78250000D03*
%TO.P,R24,2*%
%TO.N,A3_TH4*%
X131825000Y-78250000D03*
%TD*%
D11*
%TO.P,RH14,1*%
%TO.N,H_13*%
X185030000Y-80000000D03*
%TO.P,RH14,2*%
%TO.N,H_14*%
X186530000Y-80000000D03*
%TD*%
%TO.P,RH12,1*%
%TO.N,H_11*%
X179830000Y-80000000D03*
%TO.P,RH12,2*%
%TO.N,H_12*%
X181330000Y-80000000D03*
%TD*%
%TO.P,RH16,1*%
%TO.N,H_15*%
X190230000Y-80000000D03*
%TO.P,RH16,2*%
%TO.N,H_16*%
X191730000Y-80000000D03*
%TD*%
D20*
%TO.P,C6,1*%
%TO.N,XCOUT*%
X112500000Y-84480000D03*
%TO.P,C6,2*%
%TO.N,GND*%
X112500000Y-83520000D03*
%TD*%
D16*
%TO.P,C17,1*%
%TO.N,+5V*%
X137050000Y-78000000D03*
%TO.P,C17,2*%
%TO.N,GND*%
X138950000Y-78000000D03*
%TD*%
D20*
%TO.P,C7,1*%
%TO.N,+5V*%
X114900000Y-82480000D03*
%TO.P,C7,2*%
%TO.N,GND*%
X114900000Y-81520000D03*
%TD*%
D12*
%TO.P,R10,1*%
%TO.N,HEAT_GATE*%
X141490000Y-86000000D03*
%TO.P,R10,2*%
%TO.N,GND*%
X142510000Y-86000000D03*
%TD*%
%TO.P,TH2,1*%
%TO.N,A1_TH2*%
X196750000Y-80000000D03*
%TO.P,TH2,2*%
%TO.N,TH_RTN*%
X197770000Y-80000000D03*
%TD*%
D11*
%TO.P,RH2,1*%
%TO.N,H_1*%
X153830000Y-80000000D03*
%TO.P,RH2,2*%
%TO.N,H_2*%
X155330000Y-80000000D03*
%TD*%
D20*
%TO.P,C5,1*%
%TO.N,XCIN*%
X112500000Y-78280000D03*
%TO.P,C5,2*%
%TO.N,GND*%
X112500000Y-77320000D03*
%TD*%
D11*
%TO.P,RH13,1*%
%TO.N,H_12*%
X182430000Y-80000000D03*
%TO.P,RH13,2*%
%TO.N,H_13*%
X183930000Y-80000000D03*
%TD*%
D22*
%TO.P,Q1,1*%
%TO.N,HEAT_GATE*%
X139562500Y-82250000D03*
%TO.P,Q1,2*%
%TO.N,GND*%
X139562500Y-84150000D03*
%TO.P,Q1,3*%
%TO.N,HEAT_RTN*%
X141437500Y-83200000D03*
%TD*%
D26*
%TO.P,Y1,1*%
%TO.N,XCIN*%
X113225000Y-79650000D03*
%TO.P,Y1,2*%
%TO.N,XCOUT*%
X113225000Y-82150000D03*
%TD*%
D10*
%TO.P,C12,1*%
%TO.N,+5V*%
X134270000Y-88000000D03*
%TO.P,C12,2*%
%TO.N,GND*%
X135230000Y-88000000D03*
%TD*%
%TO.P,C22,1*%
%TO.N,A1_TH2*%
X133770000Y-74250000D03*
%TO.P,C22,2*%
%TO.N,GND*%
X134730000Y-74250000D03*
%TD*%
D11*
%TO.P,RH1,1*%
%TO.N,HEAT_P*%
X151230000Y-80000000D03*
%TO.P,RH1,2*%
%TO.N,H_1*%
X152730000Y-80000000D03*
%TD*%
D14*
%TO.P,D1,1*%
%TO.N,VIN_P*%
X108350000Y-85000000D03*
%TO.P,D1,2*%
%TO.N,VIN*%
X111150000Y-85000000D03*
%TD*%
D11*
%TO.P,RH3,1*%
%TO.N,H_2*%
X156430000Y-80000000D03*
%TO.P,RH3,2*%
%TO.N,H_3*%
X157930000Y-80000000D03*
%TD*%
D13*
%TO.P,R3,1*%
%TO.N,SDI_LINE*%
X105175000Y-85250000D03*
%TO.P,R3,2*%
%TO.N,D2_SDI12*%
X106825000Y-85250000D03*
%TD*%
D27*
%TO.P,U1,1*%
%TO.N,N/C*%
X116825000Y-76250000D03*
%TO.P,U1,2*%
X116825000Y-76750000D03*
%TO.P,U1,3*%
X116825000Y-77250000D03*
%TO.P,U1,4*%
%TO.N,+5V*%
X116825000Y-77750000D03*
%TO.P,U1,5*%
%TO.N,VCL*%
X116825000Y-78250000D03*
%TO.P,U1,6*%
%TO.N,XCIN*%
X116825000Y-78750000D03*
%TO.P,U1,7*%
%TO.N,XCOUT*%
X116825000Y-79250000D03*
%TO.P,U1,8*%
%TO.N,GND*%
X116825000Y-79750000D03*
%TO.P,U1,9*%
%TO.N,N/C*%
X116825000Y-80250000D03*
%TO.P,U1,10*%
X116825000Y-80750000D03*
%TO.P,U1,11*%
%TO.N,+5V*%
X116825000Y-81250000D03*
%TO.P,U1,12*%
%TO.N,N/C*%
X116825000Y-81750000D03*
%TO.P,U1,13*%
X116825000Y-82250000D03*
%TO.P,U1,14*%
X116825000Y-82750000D03*
%TO.P,U1,15*%
X116825000Y-83250000D03*
%TO.P,U1,16*%
%TO.N,VBUS_SENSE*%
X116825000Y-83750000D03*
D28*
%TO.P,U1,17*%
%TO.N,GND*%
X118750000Y-85675000D03*
%TO.P,U1,18*%
%TO.N,USB_DM*%
X119250000Y-85675000D03*
%TO.P,U1,19*%
%TO.N,USB_DP*%
X119750000Y-85675000D03*
%TO.P,U1,20*%
%TO.N,VCC_USB*%
X120250000Y-85675000D03*
%TO.P,U1,21*%
%TO.N,+5V*%
X120750000Y-85675000D03*
%TO.P,U1,22*%
%TO.N,N/C*%
X121250000Y-85675000D03*
%TO.P,U1,23*%
X121750000Y-85675000D03*
%TO.P,U1,24*%
X122250000Y-85675000D03*
%TO.P,U1,25*%
%TO.N,RESET*%
X122750000Y-85675000D03*
%TO.P,U1,26*%
%TO.N,MD*%
X123250000Y-85675000D03*
%TO.P,U1,27*%
%TO.N,NMI*%
X123750000Y-85675000D03*
%TO.P,U1,28*%
%TO.N,N/C*%
X124250000Y-85675000D03*
%TO.P,U1,29*%
%TO.N,D9_HEAT*%
X124750000Y-85675000D03*
%TO.P,U1,30*%
%TO.N,N/C*%
X125250000Y-85675000D03*
%TO.P,U1,31*%
X125750000Y-85675000D03*
%TO.P,U1,32*%
%TO.N,SWCLK*%
X126250000Y-85675000D03*
D27*
%TO.P,U1,33*%
%TO.N,SWDIO*%
X128175000Y-83750000D03*
%TO.P,U1,34*%
%TO.N,N/C*%
X128175000Y-83250000D03*
%TO.P,U1,35*%
X128175000Y-82750000D03*
%TO.P,U1,36*%
X128175000Y-82250000D03*
%TO.P,U1,37*%
X128175000Y-81750000D03*
%TO.P,U1,38*%
X128175000Y-81250000D03*
%TO.P,U1,39*%
%TO.N,+5V*%
X128175000Y-80750000D03*
%TO.P,U1,40*%
%TO.N,GND*%
X128175000Y-80250000D03*
%TO.P,U1,41*%
%TO.N,N/C*%
X128175000Y-79750000D03*
%TO.P,U1,42*%
X128175000Y-79250000D03*
%TO.P,U1,43*%
%TO.N,D2_SDI12*%
X128175000Y-78750000D03*
%TO.P,U1,44*%
%TO.N,N/C*%
X128175000Y-78250000D03*
%TO.P,U1,45*%
%TO.N,D4_EXC*%
X128175000Y-77750000D03*
%TO.P,U1,46*%
%TO.N,N/C*%
X128175000Y-77250000D03*
%TO.P,U1,47*%
%TO.N,A4_SDA*%
X128175000Y-76750000D03*
%TO.P,U1,48*%
%TO.N,A5_SCL*%
X128175000Y-76250000D03*
D28*
%TO.P,U1,49*%
%TO.N,N/C*%
X126250000Y-74325000D03*
%TO.P,U1,50*%
X125750000Y-74325000D03*
%TO.P,U1,51*%
X125250000Y-74325000D03*
%TO.P,U1,52*%
X124750000Y-74325000D03*
%TO.P,U1,53*%
%TO.N,A0_TH1*%
X124250000Y-74325000D03*
%TO.P,U1,54*%
%TO.N,N/C*%
X123750000Y-74325000D03*
%TO.P,U1,55*%
X123250000Y-74325000D03*
%TO.P,U1,56*%
%TO.N,+5V*%
X122750000Y-74325000D03*
%TO.P,U1,57*%
%TO.N,GND*%
X122250000Y-74325000D03*
%TO.P,U1,58*%
X121750000Y-74325000D03*
%TO.P,U1,59*%
%TO.N,VREF*%
X121250000Y-74325000D03*
%TO.P,U1,60*%
%TO.N,N/C*%
X120750000Y-74325000D03*
%TO.P,U1,61*%
X120250000Y-74325000D03*
%TO.P,U1,62*%
%TO.N,A3_TH4*%
X119750000Y-74325000D03*
%TO.P,U1,63*%
%TO.N,A2_TH3*%
X119250000Y-74325000D03*
%TO.P,U1,64*%
%TO.N,A1_TH2*%
X118750000Y-74325000D03*
%TD*%
D12*
%TO.P,TH1,1*%
%TO.N,A0_TH1*%
X172470000Y-72000000D03*
%TO.P,TH1,2*%
%TO.N,TH_RTN*%
X173490000Y-72000000D03*
%TD*%
%TO.P,TH4,1*%
%TO.N,A3_TH4*%
X136990000Y-76250000D03*
%TO.P,TH4,2*%
%TO.N,TH_RTN*%
X138010000Y-76250000D03*
%TD*%
D29*
%TO.P,R5,1*%
%TO.N,VIN_P*%
X137250000Y-84087500D03*
%TO.P,R5,2*%
%TO.N,HEAT_P*%
X137250000Y-85912500D03*
%TD*%
D13*
%TO.P,R23,1*%
%TO.N,VREF*%
X130175000Y-76250000D03*
%TO.P,R23,2*%
%TO.N,A2_TH3*%
X131825000Y-76250000D03*
%TD*%
D18*
%TO.P,J5,1*%
%TO.N,GND*%
X103750000Y-72500000D03*
D19*
%TO.P,J5,2*%
%TO.N,+5V*%
X106290000Y-72500000D03*
%TO.P,J5,3*%
%TO.N,SWDIO*%
X108830000Y-72500000D03*
%TO.P,J5,4*%
%TO.N,SWCLK*%
X111370000Y-72500000D03*
%TO.P,J5,5*%
%TO.N,RESET*%
X113910000Y-72500000D03*
%TD*%
D30*
%TO.P,D4,1*%
%TO.N,SDI_LINE*%
X105500000Y-83800000D03*
%TO.P,D4,2*%
%TO.N,GND*%
X105500000Y-81700000D03*
%TD*%
D31*
%TO.P,C16,1*%
%TO.N,VCC_USB*%
X119475000Y-88000000D03*
%TO.P,C16,2*%
%TO.N,GND*%
X121025000Y-88000000D03*
%TD*%
D32*
%TO.P,U3,1*%
%TO.N,GND*%
X105550000Y-77000000D03*
D33*
%TO.P,U3,2*%
%TO.N,VIN_P*%
X105637500Y-78500000D03*
D32*
%TO.P,U3,3*%
%TO.N,5V_LDO*%
X105550000Y-80000000D03*
%TD*%
D34*
%TO.N,A3_TH4*%
X136250000Y-76375000D03*
X123875000Y-79250000D03*
X126875000Y-82250000D03*
X135500000Y-77750000D03*
X129500000Y-82250000D03*
X120875000Y-75875000D03*
%TO.N,GND*%
X112500000Y-76750000D03*
X111500000Y-74750000D03*
X133875000Y-86000000D03*
X105000000Y-81750000D03*
X142250000Y-85375000D03*
X139500000Y-83500000D03*
X114625000Y-75875000D03*
X114750000Y-74625000D03*
X121875000Y-73000000D03*
X142125000Y-77750000D03*
X113750000Y-84875000D03*
X118625000Y-87000000D03*
X118125000Y-79750000D03*
X111000000Y-76000000D03*
X135250000Y-87375000D03*
X105500000Y-76250000D03*
X121750000Y-88000000D03*
X123500000Y-72375000D03*
X129875000Y-80000000D03*
X134750000Y-77625000D03*
X102250000Y-73125000D03*
X107125000Y-74750000D03*
X129750000Y-84375000D03*
X140000000Y-74375000D03*
X139750000Y-78000000D03*
X114750000Y-80875000D03*
X129500000Y-85000000D03*
X115500000Y-86500000D03*
X134750000Y-75625000D03*
X134750000Y-72875000D03*
X134750000Y-73625000D03*
X111875000Y-83500000D03*
%TO.N,A0_TH1*%
X135500000Y-73875000D03*
X133625000Y-79250000D03*
X127875000Y-74000000D03*
X132375000Y-79500000D03*
%TO.N,+5V*%
X122875000Y-72875000D03*
X134250000Y-87375000D03*
X114875000Y-83125000D03*
X126750000Y-87375000D03*
X122250000Y-87375000D03*
X120750000Y-84375000D03*
X129125000Y-88000000D03*
X118125000Y-77750000D03*
X132000000Y-87375000D03*
X136000000Y-86875000D03*
X135250000Y-80250000D03*
X130500000Y-81625000D03*
X136250000Y-78000000D03*
X124250000Y-87375000D03*
X117375000Y-72000000D03*
X106500000Y-82500000D03*
X115500000Y-80750000D03*
%TO.N,NMI*%
X124000000Y-84375000D03*
X125375000Y-87000000D03*
%TO.N,VREF*%
X130875000Y-78000000D03*
X127000000Y-75000000D03*
X129500000Y-74500000D03*
X129500000Y-72375000D03*
X130375000Y-75500000D03*
X120625000Y-73000000D03*
D35*
%TO.N,A1_TH2*%
X195900000Y-80000000D03*
D34*
X136250000Y-75500000D03*
X126875000Y-77875000D03*
X131750000Y-75125000D03*
%TO.N,VUSB*%
X136625000Y-81625000D03*
X122000000Y-82000000D03*
X115500000Y-85125000D03*
%TO.N,A4_SDA*%
X132875000Y-82875000D03*
X129500000Y-85875000D03*
X132750000Y-81000000D03*
X130750000Y-87375000D03*
X123500000Y-76000000D03*
%TO.N,A5_SCL*%
X132250000Y-83375000D03*
X127125000Y-76125000D03*
X133000000Y-84375000D03*
X131750000Y-81000000D03*
%TO.N,HEAT_P*%
X138500000Y-85375000D03*
X139625000Y-81375000D03*
%TO.N,VIN_P*%
X128750000Y-84875000D03*
X118125000Y-81875000D03*
X132125000Y-84125000D03*
X136500000Y-83000000D03*
X130125000Y-83625000D03*
X109750000Y-77500000D03*
X109500000Y-84375000D03*
%TO.N,USB_DP*%
X119875000Y-84375000D03*
%TO.N,MD*%
X127500000Y-87250000D03*
X123375000Y-83875000D03*
%TO.N,SDI_LINE*%
X104125000Y-74000000D03*
X106250000Y-76000000D03*
%TO.N,D9_HEAT*%
X128625000Y-86500000D03*
X136000000Y-88000000D03*
%TO.N,RESET*%
X121375000Y-87000000D03*
X122750000Y-81375000D03*
X118125000Y-74125000D03*
X118500000Y-88000000D03*
%TO.N,EXC_GATE*%
X139250000Y-72500000D03*
X140625000Y-78500000D03*
X141625000Y-76000000D03*
X141375000Y-74875000D03*
%TO.N,TH_RTN*%
X142250000Y-72625000D03*
X142250000Y-76500000D03*
X174340000Y-88000000D03*
X174340000Y-72000000D03*
D35*
X198620000Y-80000000D03*
D34*
X140125000Y-79750000D03*
X141625000Y-78625000D03*
%TO.N,A2_TH3*%
X139125000Y-87250000D03*
X118125000Y-72875000D03*
X133625000Y-76875000D03*
X124250000Y-72000000D03*
%TO.N,HEAT_RTN*%
X141500000Y-80250000D03*
D35*
X195130000Y-80000000D03*
D34*
%TO.N,XCOUT*%
X114875000Y-79625000D03*
X113875000Y-80625000D03*
%TO.N,XCIN*%
X118875000Y-77625000D03*
X113625000Y-77750000D03*
%TO.N,D2_SDI12*%
X121375000Y-77375000D03*
X124625000Y-78000000D03*
X107750000Y-83625000D03*
X125500000Y-79250000D03*
%TO.N,SWCLK*%
X121125000Y-80500000D03*
X126750000Y-85500000D03*
%TO.N,SWDIO*%
X111375000Y-74000000D03*
X128250000Y-84250000D03*
X126500000Y-83125000D03*
X119875000Y-76750000D03*
%TD*%
%TO.N,A3_TH4*%
D36*
X133750000Y-78250000D02*
X134000000Y-78500000D01*
X133625000Y-78250000D02*
X133250000Y-77875000D01*
X133750000Y-78250000D02*
X133625000Y-78250000D01*
X132250000Y-77875000D02*
X131875000Y-78250000D01*
X134125000Y-78750000D02*
X134125000Y-78875000D01*
X120875000Y-75875000D02*
X120375000Y-75375000D01*
X126875000Y-82250000D02*
X123875000Y-79250000D01*
X136875000Y-76375000D02*
X137000000Y-76250000D01*
X131750000Y-79250000D02*
X131750000Y-79375000D01*
X120375000Y-75375000D02*
X119750000Y-75375000D01*
X131875000Y-78250000D02*
X131875000Y-79125000D01*
X135375000Y-78875000D02*
X135375000Y-77875000D01*
X134000000Y-78625000D02*
X134125000Y-78750000D01*
X131750000Y-79375000D02*
X131125000Y-80000000D01*
X134125000Y-78875000D02*
X135375000Y-78875000D01*
X133770000Y-78250000D02*
X133750000Y-78250000D01*
X131125000Y-80000000D02*
X131125000Y-82000000D01*
X136250000Y-76375000D02*
X136875000Y-76375000D01*
X135375000Y-77875000D02*
X135500000Y-77750000D01*
X119750000Y-74325000D02*
X119750000Y-73000000D01*
X133250000Y-77875000D02*
X132250000Y-77875000D01*
X130875000Y-82250000D02*
X129500000Y-82250000D01*
X131824999Y-78250000D02*
X131875000Y-78250000D01*
X131125000Y-82000000D02*
X130875000Y-82250000D01*
X131875000Y-79125000D02*
X131750000Y-79250000D01*
X136990000Y-76250000D02*
X137000000Y-76250000D01*
X119750000Y-75375000D02*
X119750000Y-73000000D01*
X134000000Y-78500000D02*
X134000000Y-78625000D01*
%TO.N,GND*%
X135250000Y-88000000D02*
X135250000Y-87375000D01*
X130500000Y-80020000D02*
X130500000Y-80000000D01*
X136250000Y-86000000D02*
X133875000Y-86000000D01*
X102250000Y-73750000D02*
X102250000Y-73125000D01*
X115500000Y-87145000D02*
X115500000Y-87125000D01*
X130500000Y-80000000D02*
X129875000Y-80000000D01*
X121375000Y-72625000D02*
X121625000Y-72625000D01*
X139562500Y-84150000D02*
X139500000Y-84125000D01*
X139000000Y-78000000D02*
X139750000Y-78000000D01*
X112400000Y-74750000D02*
X112375000Y-74750000D01*
X139500000Y-84125000D02*
X139500000Y-83500000D01*
X141500000Y-77750000D02*
X142125000Y-77750000D01*
X114900000Y-81520000D02*
X114875000Y-81500000D01*
X113750000Y-85500000D02*
X113750000Y-84875000D01*
X129750000Y-80000000D02*
X129875000Y-80000000D01*
X121750000Y-73000000D02*
X121875000Y-73000000D01*
X138950000Y-78000000D02*
X139000000Y-78000000D01*
X114750000Y-75250000D02*
X114750000Y-74625000D01*
X108000000Y-74750000D02*
X107125000Y-74750000D01*
X134730000Y-74250000D02*
X134750000Y-74250000D01*
X114600000Y-76625000D02*
X114625000Y-76625000D01*
X134730000Y-78250000D02*
X134750000Y-78250000D01*
X114875000Y-81500000D02*
X114875000Y-81000000D01*
X122250000Y-73000000D02*
X121875000Y-73000000D01*
X140000000Y-75000000D02*
X140000000Y-74375000D01*
X129625000Y-84500000D02*
X129750000Y-84375000D01*
X122250000Y-74325000D02*
X122250000Y-73000000D01*
X115500000Y-79750000D02*
X118125000Y-79750000D01*
X116825000Y-79750000D02*
X115500000Y-79750000D01*
X121000000Y-72000000D02*
X121000000Y-72250000D01*
X141510000Y-77800000D02*
X141500000Y-77750000D01*
X121625000Y-72625000D02*
X121750000Y-72750000D01*
X115500000Y-87125000D02*
X115500000Y-86500000D01*
X114760000Y-75250000D02*
X114750000Y-75250000D01*
X112500000Y-83520000D02*
X112500000Y-83500000D01*
X105500000Y-77000000D02*
X105500000Y-76250000D01*
X105550000Y-77000000D02*
X105500000Y-77000000D01*
X114875000Y-81000000D02*
X114750000Y-80875000D01*
X107950000Y-74750000D02*
X108000000Y-74750000D01*
X122980000Y-72000000D02*
X123000000Y-72000000D01*
X114625000Y-76625000D02*
X114625000Y-75875000D01*
X142500000Y-86000000D02*
X142500000Y-85625000D01*
X121025000Y-88000000D02*
X121000000Y-88000000D01*
X121750000Y-72750000D02*
X121750000Y-72875000D01*
X112375000Y-74750000D02*
X111500000Y-74750000D01*
X130900000Y-85000000D02*
X129625000Y-85000000D01*
X105500000Y-81750000D02*
X105000000Y-81750000D01*
X134750000Y-78250000D02*
X134750000Y-77625000D01*
X134750000Y-76250000D02*
X134750000Y-75625000D01*
X118750000Y-85675000D02*
X118750000Y-87000000D01*
X142510000Y-86000000D02*
X142500000Y-86000000D01*
X112500000Y-83500000D02*
X111875000Y-83500000D01*
X123000000Y-72000000D02*
X123375000Y-72375000D01*
X112500000Y-77375000D02*
X112500000Y-76750000D01*
X135100000Y-86000000D02*
X136250000Y-86000000D01*
X130900000Y-84500000D02*
X129625000Y-84500000D01*
X118750000Y-87000000D02*
X118625000Y-87000000D01*
X123375000Y-72375000D02*
X123500000Y-72375000D01*
X121000000Y-72250000D02*
X121375000Y-72625000D01*
X135230000Y-88000000D02*
X135250000Y-88000000D01*
X120980000Y-72000000D02*
X121000000Y-72000000D01*
X113810000Y-85500000D02*
X113750000Y-85500000D01*
X105500000Y-81700000D02*
X105500000Y-81750000D01*
X140062500Y-74950000D02*
X140000000Y-75000000D01*
X134730000Y-76250000D02*
X134750000Y-76250000D01*
X121750000Y-74325000D02*
X121750000Y-73000000D01*
X111000000Y-76800000D02*
X111000000Y-76750000D01*
X111000000Y-76750000D02*
X111000000Y-76000000D01*
X121000000Y-88000000D02*
X121750000Y-88000000D01*
X134730000Y-72250000D02*
X134750000Y-72250000D01*
X134750000Y-74250000D02*
X134750000Y-73625000D01*
X129625000Y-85000000D02*
X129500000Y-85000000D01*
X128175000Y-80250000D02*
X129500000Y-80250000D01*
X142500000Y-85625000D02*
X142250000Y-85375000D01*
X129500000Y-80250000D02*
X129750000Y-80000000D01*
X112500000Y-77320000D02*
X112500000Y-77375000D01*
X134750000Y-72250000D02*
X134750000Y-72875000D01*
X121750000Y-72875000D02*
X121875000Y-73000000D01*
X102230000Y-73750000D02*
X102250000Y-73750000D01*
%TO.N,H_9*%
D37*
X173530000Y-80000000D02*
X174630000Y-80000000D01*
%TO.N,H_10*%
X176130000Y-80000000D02*
X177230000Y-80000000D01*
%TO.N,A0_TH1*%
D36*
X142000000Y-71875000D02*
X142125000Y-72000000D01*
X135500000Y-73125000D02*
X135500000Y-73875000D01*
X136750000Y-72000000D02*
X137000000Y-72250000D01*
X133375000Y-71875000D02*
X133625000Y-71625000D01*
X131824999Y-72250000D02*
X131875000Y-72250000D01*
X127125000Y-73500000D02*
X127000000Y-73500000D01*
X133750000Y-72250000D02*
X133375000Y-71875000D01*
X139625000Y-71875000D02*
X140000000Y-72250000D01*
X135750000Y-72000000D02*
X136750000Y-72000000D01*
X133375000Y-71875000D02*
X132250000Y-71875000D01*
X133000000Y-79500000D02*
X132375000Y-79500000D01*
X133625000Y-71625000D02*
X135375000Y-71625000D01*
X127875000Y-74000000D02*
X127875000Y-73875000D01*
X127750000Y-73750000D02*
X127375000Y-73750000D01*
X132250000Y-71875000D02*
X131875000Y-72250000D01*
X127375000Y-73750000D02*
X127125000Y-73500000D01*
X133625000Y-79250000D02*
X133500000Y-79125000D01*
X140750000Y-72250000D02*
X141125000Y-71875000D01*
X124250000Y-74325000D02*
X124250000Y-73000000D01*
X126750000Y-73250000D02*
X124500000Y-73250000D01*
X137750000Y-71875000D02*
X139625000Y-71875000D01*
X137375000Y-72250000D02*
X137750000Y-71875000D01*
X141125000Y-71875000D02*
X142000000Y-71875000D01*
X133500000Y-79125000D02*
X133375000Y-79125000D01*
X127000000Y-73500000D02*
X126750000Y-73250000D01*
X140000000Y-72250000D02*
X140750000Y-72250000D01*
X137000000Y-72250000D02*
X137375000Y-72250000D01*
X142180000Y-72000000D02*
X142125000Y-72000000D01*
X135750000Y-72000000D02*
X135750000Y-72875000D01*
X135750000Y-72875000D02*
X135500000Y-73125000D01*
X127875000Y-73875000D02*
X127750000Y-73750000D01*
X133375000Y-79125000D02*
X133000000Y-79500000D01*
X133770000Y-72250000D02*
X133750000Y-72250000D01*
X124500000Y-73250000D02*
X124250000Y-73000000D01*
X135375000Y-71625000D02*
X135750000Y-72000000D01*
X142180000Y-72000000D02*
X172470000Y-72000000D01*
%TO.N,H_14*%
D37*
X186530000Y-80000000D02*
X187630000Y-80000000D01*
%TO.N,H_15*%
X189130000Y-80000000D02*
X190230000Y-80000000D01*
%TO.N,+5V*%
D36*
X120750000Y-87000000D02*
X120750000Y-84375000D01*
X107375000Y-82500000D02*
X106500000Y-82500000D01*
X130000000Y-81250000D02*
X130125000Y-81250000D01*
X135100000Y-86500000D02*
X136250000Y-86500000D01*
X122750000Y-73000000D02*
X122875000Y-72875000D01*
X130500000Y-80980000D02*
X130500000Y-81000000D01*
X130500000Y-81000000D02*
X130500000Y-81625000D01*
X130125000Y-81250000D02*
X130500000Y-81625000D01*
X134250000Y-88000000D02*
X134250000Y-87375000D01*
X132000000Y-88000000D02*
X132000000Y-87375000D01*
X124500000Y-87625000D02*
X124250000Y-87375000D01*
X131990000Y-88000000D02*
X132000000Y-88000000D01*
X129750000Y-88000000D02*
X129125000Y-88000000D01*
X115500000Y-77750000D02*
X118125000Y-77750000D01*
X117990000Y-72000000D02*
X118000000Y-72000000D01*
X129500000Y-80750000D02*
X130000000Y-81250000D01*
X122375000Y-72500000D02*
X122375000Y-72625000D01*
X122500000Y-87625000D02*
X122250000Y-87375000D01*
X114875000Y-82500000D02*
X114875000Y-83125000D01*
X115500000Y-81250000D02*
X115500000Y-80750000D01*
X116825000Y-81250000D02*
X115500000Y-81250000D01*
X136000000Y-86750000D02*
X136000000Y-86875000D01*
X122750000Y-74325000D02*
X122750000Y-73000000D01*
X136100000Y-80250000D02*
X136125000Y-80250000D01*
X137000000Y-78000000D02*
X136250000Y-78000000D01*
X107350000Y-82500000D02*
X107375000Y-82500000D01*
X122250000Y-72250000D02*
X122250000Y-72375000D01*
X124500000Y-88000000D02*
X124500000Y-87625000D01*
X122490000Y-88000000D02*
X122500000Y-88000000D01*
X126500000Y-87625000D02*
X126750000Y-87375000D01*
X126490000Y-88000000D02*
X126500000Y-88000000D01*
X116825000Y-77750000D02*
X115500000Y-77750000D01*
X136125000Y-80250000D02*
X135250000Y-80250000D01*
X120750000Y-85675000D02*
X120750000Y-87000000D01*
X122500000Y-88000000D02*
X122500000Y-87625000D01*
X129740000Y-88000000D02*
X129750000Y-88000000D01*
X137050000Y-78000000D02*
X137000000Y-78000000D01*
X118000000Y-72000000D02*
X117375000Y-72000000D01*
X126500000Y-88000000D02*
X126500000Y-87625000D01*
X136250000Y-86500000D02*
X136000000Y-86750000D01*
X122625000Y-72625000D02*
X122875000Y-72875000D01*
X114900000Y-82480000D02*
X114875000Y-82500000D01*
X122250000Y-72375000D02*
X122375000Y-72500000D01*
X134270000Y-88000000D02*
X134250000Y-88000000D01*
X124490000Y-88000000D02*
X124500000Y-88000000D01*
X122375000Y-72625000D02*
X122625000Y-72625000D01*
X122020000Y-72000000D02*
X122000000Y-72000000D01*
X122000000Y-72000000D02*
X122250000Y-72250000D01*
X128175000Y-80750000D02*
X129500000Y-80750000D01*
%TO.N,NMI*%
X123750000Y-85675000D02*
X123750000Y-87000000D01*
X124000000Y-84375000D02*
X123750000Y-84625000D01*
X123750000Y-84625000D02*
X123750000Y-87000000D01*
X125500000Y-88000000D02*
X125500000Y-87125000D01*
X125510000Y-88000000D02*
X125500000Y-88000000D01*
X125500000Y-87125000D02*
X125375000Y-87000000D01*
%TO.N,VBUS_SENSE*%
X114875000Y-84125000D02*
X115125000Y-83875000D01*
X113375000Y-84250000D02*
X113125000Y-84500000D01*
X113125000Y-84500000D02*
X113125000Y-85125000D01*
X112790000Y-85500000D02*
X112750000Y-85500000D01*
X115250000Y-83875000D02*
X115375000Y-83750000D01*
X115125000Y-83875000D02*
X115250000Y-83875000D01*
X114000000Y-84125000D02*
X113875000Y-84250000D01*
X113875000Y-84250000D02*
X113375000Y-84250000D01*
X114875000Y-84125000D02*
X114000000Y-84125000D01*
X115375000Y-83750000D02*
X115500000Y-83750000D01*
X113125000Y-85125000D02*
X112750000Y-85500000D01*
X116825000Y-83750000D02*
X115500000Y-83750000D01*
X114900000Y-84090000D02*
X114875000Y-84125000D01*
%TO.N,VREF*%
X120250000Y-72375000D02*
X120250000Y-72250000D01*
X121000000Y-73000000D02*
X120875000Y-72875000D01*
X120500000Y-72625000D02*
X120375000Y-72625000D01*
X121250000Y-74325000D02*
X121250000Y-73000000D01*
X119250000Y-71750000D02*
X119000000Y-72000000D01*
X130375000Y-78375000D02*
X130250000Y-78375000D01*
X119750000Y-71750000D02*
X119250000Y-71750000D01*
X129500000Y-72375000D02*
X130000000Y-72375000D01*
X120750000Y-72875000D02*
X120625000Y-73000000D01*
X120020000Y-72000000D02*
X120000000Y-72000000D01*
X119010000Y-72000000D02*
X119000000Y-72000000D01*
X127750000Y-75000000D02*
X128250000Y-74500000D01*
X121250000Y-73000000D02*
X121000000Y-73000000D01*
X130250000Y-78375000D02*
X130125000Y-78250000D01*
X130175000Y-74250000D02*
X130125000Y-74250000D01*
X120875000Y-72875000D02*
X120750000Y-72875000D01*
X129875000Y-74500000D02*
X130125000Y-74250000D01*
X130000000Y-72375000D02*
X130125000Y-72250000D01*
X127000000Y-75000000D02*
X127750000Y-75000000D01*
X130375000Y-75125000D02*
X130375000Y-76000000D01*
X130175000Y-72250000D02*
X130125000Y-72250000D01*
X130175000Y-76250000D02*
X130125000Y-76250000D01*
X120000000Y-72000000D02*
X119750000Y-71750000D01*
X120750000Y-72875000D02*
X120500000Y-72625000D01*
X120250000Y-72250000D02*
X120000000Y-72000000D01*
X130875000Y-78000000D02*
X130750000Y-78000000D01*
X120375000Y-72625000D02*
X120375000Y-72500000D01*
X130375000Y-76000000D02*
X130125000Y-76250000D01*
X130175000Y-78250000D02*
X130125000Y-78250000D01*
X129875000Y-74625000D02*
X130375000Y-75125000D01*
X130750000Y-78000000D02*
X130375000Y-78375000D01*
X120375000Y-72500000D02*
X120250000Y-72375000D01*
X128250000Y-74500000D02*
X129875000Y-74500000D01*
X129875000Y-74500000D02*
X129875000Y-74625000D01*
%TO.N,A1_TH2*%
X132875000Y-73750000D02*
X132750000Y-73875000D01*
X134125000Y-74875000D02*
X135625000Y-74875000D01*
X134000000Y-74500000D02*
X134000000Y-74750000D01*
X126875000Y-77875000D02*
X126125000Y-77125000D01*
X122625000Y-76875000D02*
X122000000Y-76875000D01*
X133750000Y-74250000D02*
X134000000Y-74500000D01*
X122000000Y-76875000D02*
X121625000Y-76500000D01*
X131824999Y-74250000D02*
X131875000Y-74250000D01*
X131750000Y-74375000D02*
X131750000Y-75125000D01*
X133375000Y-73750000D02*
X132875000Y-73750000D01*
X132250000Y-73875000D02*
X131875000Y-74250000D01*
X133750000Y-74125000D02*
X133375000Y-73750000D01*
X135625000Y-74875000D02*
X136250000Y-75500000D01*
X121625000Y-76500000D02*
X120625000Y-76500000D01*
X118750000Y-74325000D02*
X118750000Y-73000000D01*
X195900000Y-80000000D02*
X196750000Y-80000000D01*
X118750000Y-75750000D02*
X118750000Y-73000000D01*
X133750000Y-74250000D02*
X133750000Y-74125000D01*
X120625000Y-76500000D02*
X120250000Y-76125000D01*
X126125000Y-77125000D02*
X122875000Y-77125000D01*
X131875000Y-74250000D02*
X131750000Y-74375000D01*
X120250000Y-76125000D02*
X119125000Y-76125000D01*
X134000000Y-74750000D02*
X134125000Y-74875000D01*
X119125000Y-76125000D02*
X118750000Y-75750000D01*
X133770000Y-74250000D02*
X133750000Y-74250000D01*
X122875000Y-77125000D02*
X122625000Y-76875000D01*
X132750000Y-73875000D02*
X132250000Y-73875000D01*
%TO.N,VUSB*%
X115750000Y-85000000D02*
X115625000Y-85000000D01*
X115500000Y-85125000D02*
X114875000Y-85125000D01*
X137000000Y-81250000D02*
X136625000Y-81625000D01*
X121875000Y-82125000D02*
X119375000Y-82125000D01*
X117875000Y-84250000D02*
X116500000Y-84250000D01*
X115625000Y-85000000D02*
X115500000Y-85125000D01*
X122000000Y-82000000D02*
X121875000Y-82125000D01*
X114900000Y-85110000D02*
X114875000Y-85125000D01*
X116500000Y-84250000D02*
X115750000Y-85000000D01*
X117875000Y-83625000D02*
X117875000Y-84250000D01*
X138125000Y-80250000D02*
X137875000Y-80250000D01*
X138750000Y-80125000D02*
X138250000Y-80125000D01*
X137000000Y-81125000D02*
X137000000Y-81250000D01*
X138900000Y-80250000D02*
X138875000Y-80250000D01*
X137875000Y-80250000D02*
X137000000Y-81125000D01*
X119375000Y-82125000D02*
X117875000Y-83625000D01*
X138250000Y-80125000D02*
X138125000Y-80250000D01*
X138875000Y-80250000D02*
X138750000Y-80125000D01*
%TO.N,A4_SDA*%
X131000000Y-87625000D02*
X130750000Y-87375000D01*
X130875000Y-87750000D02*
X131000000Y-87625000D01*
X130875000Y-87875000D02*
X130875000Y-87750000D01*
X126000000Y-76750000D02*
X129500000Y-76750000D01*
X132875000Y-82875000D02*
X133125000Y-82625000D01*
X130750000Y-88000000D02*
X130875000Y-87875000D01*
X123500000Y-76000000D02*
X123625000Y-76125000D01*
X130900000Y-86000000D02*
X129625000Y-86000000D01*
X128175000Y-76750000D02*
X129500000Y-76750000D01*
X123625000Y-76125000D02*
X125375000Y-76125000D01*
X132750000Y-81875000D02*
X132750000Y-81000000D01*
X125375000Y-76125000D02*
X126000000Y-76750000D01*
X133125000Y-82250000D02*
X132750000Y-81875000D01*
X130759999Y-88000000D02*
X130750000Y-88000000D01*
X133125000Y-82625000D02*
X133125000Y-82250000D01*
X129500000Y-85875000D02*
X129625000Y-86000000D01*
%TO.N,A5_SCL*%
X133375000Y-86875000D02*
X133375000Y-86500000D01*
X133000000Y-88000000D02*
X133250000Y-88000000D01*
X133625000Y-87625000D02*
X133625000Y-87125000D01*
X132000000Y-86500000D02*
X129625000Y-86500000D01*
X133625000Y-87125000D02*
X133375000Y-86875000D01*
X130900000Y-86500000D02*
X129625000Y-86500000D01*
X127125000Y-76125000D02*
X127250000Y-76250000D01*
X129375000Y-76250000D02*
X129500000Y-76250000D01*
X133375000Y-86500000D02*
X132875000Y-86000000D01*
X132250000Y-81500000D02*
X131750000Y-81000000D01*
X132875000Y-84500000D02*
X133000000Y-84375000D01*
X132125000Y-86375000D02*
X132000000Y-86500000D01*
X132875000Y-86000000D02*
X132750000Y-86000000D01*
X128175000Y-76250000D02*
X129500000Y-76250000D01*
X133009999Y-88000000D02*
X133000000Y-88000000D01*
X132750000Y-86000000D02*
X132375000Y-86375000D01*
X132875000Y-86000000D02*
X132875000Y-84500000D01*
X132375000Y-86375000D02*
X132125000Y-86375000D01*
X132250000Y-83375000D02*
X132250000Y-81500000D01*
X128000000Y-75875000D02*
X129000000Y-75875000D01*
X127625000Y-76250000D02*
X128000000Y-75875000D01*
X133250000Y-88000000D02*
X133625000Y-87625000D01*
X129000000Y-75875000D02*
X129375000Y-76250000D01*
X127250000Y-76250000D02*
X127625000Y-76250000D01*
%TO.N,HEAT_P*%
D38*
X142125000Y-79875000D02*
X142125000Y-80000000D01*
X140000000Y-80875000D02*
X140125000Y-80750000D01*
X140125000Y-80625000D02*
X141125000Y-79625000D01*
X141875000Y-79625000D02*
X142125000Y-79875000D01*
X140125000Y-80750000D02*
X140125000Y-80625000D01*
D36*
X135100000Y-85000000D02*
X136375000Y-85000000D01*
D38*
X141125000Y-79625000D02*
X141875000Y-79625000D01*
D36*
X136625000Y-85250000D02*
X136375000Y-85000000D01*
D38*
X138125000Y-85750000D02*
X138500000Y-85375000D01*
D36*
X136625000Y-85250000D02*
X136375000Y-85500000D01*
X135100000Y-85500000D02*
X136375000Y-85500000D01*
D38*
X137250000Y-85875000D02*
X137875000Y-85875000D01*
X137875000Y-85875000D02*
X138000000Y-85750000D01*
D36*
X136875000Y-85250000D02*
X136625000Y-85250000D01*
D37*
X142180000Y-80000000D02*
X151230000Y-80000000D01*
D38*
X139625000Y-81375000D02*
X140000000Y-81000000D01*
D37*
X142180000Y-80000000D02*
X142125000Y-80000000D01*
D36*
X137250000Y-85875000D02*
X137250000Y-85625000D01*
X137250000Y-85625000D02*
X136875000Y-85250000D01*
D38*
X138000000Y-85750000D02*
X138125000Y-85750000D01*
D36*
X137250000Y-85912500D02*
X137250000Y-85875000D01*
D38*
X140000000Y-81000000D02*
X140000000Y-80875000D01*
%TO.N,VIN_P*%
X106125000Y-78625000D02*
X105750000Y-78625000D01*
X104750000Y-77750000D02*
X104625000Y-77750000D01*
X130500000Y-84000000D02*
X130125000Y-83625000D01*
D36*
X108350000Y-85000000D02*
X108375000Y-85000000D01*
D38*
X137500000Y-83875000D02*
X137500000Y-83750000D01*
X132125000Y-84125000D02*
X132000000Y-84000000D01*
X109250000Y-78500000D02*
X106250000Y-78500000D01*
X122000000Y-81125000D02*
X118875000Y-81125000D01*
X137250000Y-83250000D02*
X137250000Y-83125000D01*
X109000000Y-85000000D02*
X108750000Y-85250000D01*
X118875000Y-81125000D02*
X118125000Y-81875000D01*
X109000000Y-84875000D02*
X109000000Y-85000000D01*
X136875000Y-82875000D02*
X136750000Y-83000000D01*
X108750000Y-85250000D02*
X108625000Y-85250000D01*
X109500000Y-78375000D02*
X109375000Y-78375000D01*
X104625000Y-77750000D02*
X104625000Y-76125000D01*
X106250000Y-78500000D02*
X106125000Y-78625000D01*
X109375000Y-78375000D02*
X109250000Y-78500000D01*
X109500000Y-84375000D02*
X109000000Y-84875000D01*
X127750000Y-84875000D02*
X126750000Y-83875000D01*
D36*
X137250000Y-84087500D02*
X137250000Y-84125000D01*
D38*
X109750000Y-77500000D02*
X109750000Y-78125000D01*
X108625000Y-85250000D02*
X108375000Y-85000000D01*
X137375000Y-83375000D02*
X137250000Y-83250000D01*
X137250000Y-83125000D02*
X137000000Y-82875000D01*
X137500000Y-83750000D02*
X137375000Y-83625000D01*
D36*
X105637500Y-78500000D02*
X105625000Y-78500000D01*
D38*
X137000000Y-82875000D02*
X136875000Y-82875000D01*
X109750000Y-78125000D02*
X109500000Y-78375000D01*
X126250000Y-83875000D02*
X123125000Y-80750000D01*
X105250000Y-78250000D02*
X104750000Y-77750000D01*
X136750000Y-83000000D02*
X136500000Y-83000000D01*
D36*
X137250000Y-84125000D02*
X136875000Y-84500000D01*
X135100000Y-84500000D02*
X136375000Y-84500000D01*
D38*
X123125000Y-80750000D02*
X122375000Y-80750000D01*
X122375000Y-80750000D02*
X122000000Y-81125000D01*
X128750000Y-84875000D02*
X127750000Y-84875000D01*
X126750000Y-83875000D02*
X126250000Y-83875000D01*
X132000000Y-84000000D02*
X130500000Y-84000000D01*
D36*
X106050000Y-74750000D02*
X106000000Y-74750000D01*
D38*
X104625000Y-76125000D02*
X106000000Y-74750000D01*
X137375000Y-83625000D02*
X137375000Y-83375000D01*
X105375000Y-78250000D02*
X105250000Y-78250000D01*
X105750000Y-78625000D02*
X105625000Y-78500000D01*
X137250000Y-84125000D02*
X137500000Y-83875000D01*
D36*
X136875000Y-84500000D02*
X136375000Y-84500000D01*
D38*
X105625000Y-78500000D02*
X105375000Y-78250000D01*
%TO.N,H_6*%
D37*
X165730000Y-80000000D02*
X166830000Y-80000000D01*
%TO.N,H_7*%
X168330000Y-80000000D02*
X169430000Y-80000000D01*
%TO.N,USB_DM*%
D36*
X113875000Y-86125000D02*
X114000000Y-86250000D01*
X117250000Y-86250000D02*
X118250000Y-85250000D01*
X114625000Y-86375000D02*
X115125000Y-85875000D01*
X114125000Y-86250000D02*
X114250000Y-86375000D01*
X115875000Y-85875000D02*
X116250000Y-86250000D01*
X116250000Y-86250000D02*
X117250000Y-86250000D01*
X119250000Y-84625000D02*
X119250000Y-87000000D01*
X118250000Y-84625000D02*
X119250000Y-84625000D01*
X112125000Y-86000000D02*
X112250000Y-86125000D01*
X107750000Y-86375000D02*
X109625000Y-86375000D01*
X112250000Y-86125000D02*
X113875000Y-86125000D01*
X119250000Y-85675000D02*
X119250000Y-87000000D01*
X114000000Y-86250000D02*
X114125000Y-86250000D01*
X106625000Y-87125000D02*
X107000000Y-87125000D01*
X109625000Y-86375000D02*
X110000000Y-86000000D01*
X107000000Y-87125000D02*
X107750000Y-86375000D01*
X114250000Y-86375000D02*
X114625000Y-86375000D01*
X110000000Y-86000000D02*
X112125000Y-86000000D01*
X106250000Y-87500000D02*
X106625000Y-87125000D01*
X115125000Y-85875000D02*
X115875000Y-85875000D01*
X118250000Y-85250000D02*
X118250000Y-84625000D01*
%TO.N,USB_DP*%
X119750000Y-85675000D02*
X119750000Y-87000000D01*
X119750000Y-84500000D02*
X119750000Y-87000000D01*
X119875000Y-84375000D02*
X119750000Y-84500000D01*
%TO.N,MD*%
X123250000Y-85675000D02*
X123250000Y-87000000D01*
X123375000Y-84500000D02*
X123250000Y-84625000D01*
X123250000Y-84625000D02*
X123250000Y-87000000D01*
X127375000Y-87375000D02*
X127375000Y-87875000D01*
X127500000Y-87250000D02*
X127375000Y-87375000D01*
X123375000Y-83875000D02*
X123375000Y-84500000D01*
X127510000Y-88000000D02*
X127500000Y-88000000D01*
X127375000Y-87875000D02*
X127500000Y-88000000D01*
%TO.N,H_4*%
D37*
X160530000Y-80000000D02*
X161630000Y-80000000D01*
%TO.N,H_5*%
X163130000Y-80000000D02*
X164230000Y-80000000D01*
%TO.N,5V_LDO*%
D36*
X110125000Y-81625000D02*
X110125000Y-82500000D01*
X110000000Y-81125000D02*
X110000000Y-81500000D01*
X109750000Y-80875000D02*
X110000000Y-81125000D01*
X105500000Y-80000000D02*
X109750000Y-80000000D01*
X110000000Y-81500000D02*
X110125000Y-81625000D01*
X105550000Y-80000000D02*
X105500000Y-80000000D01*
X110150000Y-82500000D02*
X110125000Y-82500000D01*
X109750000Y-80000000D02*
X109750000Y-80875000D01*
X109750000Y-80000000D02*
X111000000Y-78750000D01*
X111000000Y-78700000D02*
X111000000Y-78750000D01*
%TO.N,VIN*%
D38*
X104625000Y-80750000D02*
X103625000Y-79750000D01*
X107750000Y-81125000D02*
X105250000Y-81125000D01*
X102125000Y-77125000D02*
X102125000Y-76125000D01*
X109250000Y-83375000D02*
X109250000Y-82625000D01*
X105250000Y-81125000D02*
X104875000Y-80750000D01*
X102125000Y-76125000D02*
X103625000Y-74625000D01*
X103625000Y-74625000D02*
X104375000Y-74625000D01*
D36*
X109600000Y-74750000D02*
X109625000Y-74750000D01*
D38*
X109500000Y-74500000D02*
X109500000Y-74625000D01*
X104375000Y-74625000D02*
X105250000Y-73750000D01*
X111125000Y-85000000D02*
X109500000Y-83375000D01*
X105250000Y-73750000D02*
X108750000Y-73750000D01*
X103625000Y-78625000D02*
X102125000Y-77125000D01*
X104875000Y-80750000D02*
X104625000Y-80750000D01*
X108750000Y-73750000D02*
X109500000Y-74500000D01*
D36*
X111150000Y-85000000D02*
X111125000Y-85000000D01*
D38*
X109500000Y-74625000D02*
X109625000Y-74750000D01*
X109250000Y-82625000D02*
X107750000Y-81125000D01*
X109500000Y-83375000D02*
X109250000Y-83375000D01*
X103625000Y-79750000D02*
X103625000Y-78625000D01*
X102125000Y-76125000D02*
X102000000Y-76000000D01*
%TO.N,SDI_LINE*%
D36*
X103500000Y-81750000D02*
X105500000Y-83750000D01*
X105500000Y-83750000D02*
X105500000Y-84625000D01*
X101250000Y-73750000D02*
X100500000Y-74500000D01*
X103375000Y-74250000D02*
X103500000Y-74125000D01*
X104000000Y-74125000D02*
X104125000Y-74000000D01*
X111500000Y-75500000D02*
X111500000Y-75625000D01*
X106250000Y-76000000D02*
X106375000Y-75875000D01*
X111500000Y-75625000D02*
X113250000Y-75625000D01*
X103125000Y-74375000D02*
X103250000Y-74250000D01*
X110500000Y-75625000D02*
X110500000Y-75500000D01*
X100500000Y-74500000D02*
X100500000Y-78500000D01*
X105500000Y-84625000D02*
X105125000Y-85000000D01*
X100500000Y-78500000D02*
X102000000Y-80000000D01*
X113500000Y-75500000D02*
X113750000Y-75250000D01*
X101270000Y-73750000D02*
X101250000Y-73750000D01*
X101625000Y-74375000D02*
X103125000Y-74375000D01*
X105500000Y-83800000D02*
X105500000Y-83750000D01*
X106375000Y-75875000D02*
X110000000Y-75875000D01*
X105125000Y-85000000D02*
X105125000Y-85250000D01*
X103250000Y-74250000D02*
X103375000Y-74250000D01*
X110625000Y-75375000D02*
X111375000Y-75375000D01*
X113740000Y-75250000D02*
X113750000Y-75250000D01*
X110375000Y-75625000D02*
X110500000Y-75625000D01*
X102000000Y-80000000D02*
X103500000Y-81500000D01*
X101125000Y-73875000D02*
X101625000Y-74375000D01*
X110000000Y-75875000D02*
X110125000Y-75750000D01*
X113375000Y-75500000D02*
X113500000Y-75500000D01*
X105175000Y-85250000D02*
X105125000Y-85250000D01*
X103500000Y-74125000D02*
X104000000Y-74125000D01*
X113250000Y-75625000D02*
X113375000Y-75500000D01*
X110125000Y-75750000D02*
X110250000Y-75750000D01*
X110500000Y-75500000D02*
X110625000Y-75375000D01*
X111375000Y-75375000D02*
X111500000Y-75500000D01*
X110250000Y-75750000D02*
X110375000Y-75625000D01*
X103500000Y-81500000D02*
X103500000Y-81750000D01*
%TO.N,H_11*%
D37*
X178730000Y-80000000D02*
X179830000Y-80000000D01*
%TO.N,H_8*%
X170930000Y-80000000D02*
X172030000Y-80000000D01*
%TO.N,D9_HEAT*%
D36*
X124750000Y-85675000D02*
X124750000Y-87000000D01*
X128625000Y-86500000D02*
X126375000Y-84250000D01*
X126375000Y-84250000D02*
X125125000Y-84250000D01*
X124750000Y-84625000D02*
X124750000Y-87000000D01*
X136500000Y-87500000D02*
X136000000Y-88000000D01*
X138000000Y-87500000D02*
X136500000Y-87500000D01*
X139500000Y-86000000D02*
X138000000Y-87500000D01*
X139490000Y-86000000D02*
X139500000Y-86000000D01*
X125125000Y-84250000D02*
X124750000Y-84625000D01*
%TO.N,HEAT_GATE*%
X139250000Y-82625000D02*
X139125000Y-82750000D01*
X141490000Y-86000000D02*
X141500000Y-86000000D01*
X139250000Y-84750000D02*
X139875000Y-85375000D01*
X139562500Y-82250000D02*
X139500000Y-82250000D01*
X139125000Y-82875000D02*
X138500000Y-83500000D01*
X138500000Y-84750000D02*
X139250000Y-84750000D01*
X140500000Y-86000000D02*
X141500000Y-86000000D01*
X139250000Y-82500000D02*
X139250000Y-82625000D01*
X140510000Y-86000000D02*
X140500000Y-86000000D01*
X138500000Y-83500000D02*
X138500000Y-84750000D01*
X139125000Y-82750000D02*
X139125000Y-82875000D01*
X140125000Y-85625000D02*
X140500000Y-86000000D01*
X139500000Y-82250000D02*
X139250000Y-82500000D01*
X139875000Y-85375000D02*
X140125000Y-85375000D01*
X140125000Y-85375000D02*
X140125000Y-85625000D01*
%TO.N,RESET*%
X123125000Y-87375000D02*
X123500000Y-87750000D01*
X122750000Y-87000000D02*
X122875000Y-87000000D01*
X123510000Y-88000000D02*
X123500000Y-88000000D01*
X117000000Y-73000000D02*
X115625000Y-73000000D01*
X121875000Y-86750000D02*
X122625000Y-86750000D01*
X121625000Y-87000000D02*
X121875000Y-86750000D01*
X115000000Y-72375000D02*
X114000000Y-72375000D01*
X122625000Y-83875000D02*
X122625000Y-81500000D01*
X122750000Y-85675000D02*
X122750000Y-87000000D01*
X122625000Y-81500000D02*
X122750000Y-81375000D01*
X122750000Y-86750000D02*
X122750000Y-84000000D01*
X115625000Y-88250000D02*
X118250000Y-88250000D01*
X114000000Y-72375000D02*
X113875000Y-72500000D01*
X118125000Y-74125000D02*
X117000000Y-73000000D01*
X115500000Y-88105000D02*
X115500000Y-88125000D01*
X118250000Y-88250000D02*
X118500000Y-88000000D01*
X122750000Y-84000000D02*
X122625000Y-83875000D01*
X115625000Y-73000000D02*
X115000000Y-72375000D01*
X115500000Y-88125000D02*
X115625000Y-88250000D01*
X122875000Y-87000000D02*
X122875000Y-87375000D01*
X122625000Y-86750000D02*
X122750000Y-86875000D01*
X121375000Y-87000000D02*
X121625000Y-87000000D01*
X122750000Y-86875000D02*
X122750000Y-87000000D01*
X123500000Y-87750000D02*
X123500000Y-88000000D01*
X122875000Y-87375000D02*
X123125000Y-87375000D01*
X122625000Y-86750000D02*
X122750000Y-86750000D01*
%TO.N,EXC_GATE*%
X139750000Y-72875000D02*
X139625000Y-72750000D01*
X141375000Y-75250000D02*
X141625000Y-75500000D01*
X140000000Y-73000000D02*
X139875000Y-72875000D01*
X139875000Y-72875000D02*
X139750000Y-72875000D01*
X139500000Y-72750000D02*
X139250000Y-72500000D01*
X141510000Y-76600000D02*
X141500000Y-76625000D01*
X140062500Y-73050000D02*
X140000000Y-73000000D01*
X140625000Y-77875000D02*
X140500000Y-77750000D01*
X141625000Y-75500000D02*
X141625000Y-76500000D01*
X140625000Y-78500000D02*
X140625000Y-77875000D01*
X141375000Y-74875000D02*
X141375000Y-75250000D01*
X141625000Y-76500000D02*
X141500000Y-76625000D01*
X139625000Y-72750000D02*
X139500000Y-72750000D01*
X140490000Y-77800000D02*
X140500000Y-77750000D01*
%TO.N,TH_RTN*%
X142625000Y-73875000D02*
X142625000Y-73000000D01*
X141625000Y-78625000D02*
X141125000Y-79125000D01*
X140875000Y-74250000D02*
X140375000Y-73750000D01*
X141875000Y-74000000D02*
X141625000Y-74250000D01*
X138010000Y-76250000D02*
X138000000Y-76250000D01*
X139625000Y-73750000D02*
X139000000Y-74375000D01*
X142625000Y-73000000D02*
X142250000Y-72625000D01*
X141125000Y-79125000D02*
X140750000Y-79125000D01*
X139000000Y-74375000D02*
X139000000Y-75250000D01*
X141875000Y-74000000D02*
X142125000Y-74250000D01*
X142250000Y-74250000D02*
X142625000Y-73875000D01*
X142250000Y-74250000D02*
X142250000Y-76500000D01*
X173490000Y-72000000D02*
X174340000Y-72000000D01*
X141625000Y-74250000D02*
X140875000Y-74250000D01*
X173490000Y-88000000D02*
X174340000Y-88000000D01*
X141937500Y-74000000D02*
X141875000Y-74000000D01*
X140750000Y-79125000D02*
X140125000Y-79750000D01*
X140375000Y-73750000D02*
X139625000Y-73750000D01*
X142125000Y-74250000D02*
X142250000Y-74250000D01*
X139000000Y-75250000D02*
X138000000Y-76250000D01*
X198620000Y-80000000D02*
X197770000Y-80000000D01*
%TO.N,VCL*%
X114600000Y-78175000D02*
X114625000Y-78125000D01*
X114625000Y-78125000D02*
X115375000Y-78125000D01*
X116825000Y-78250000D02*
X115500000Y-78250000D01*
X115375000Y-78125000D02*
X115500000Y-78250000D01*
%TO.N,A2_TH3*%
X119250000Y-74325000D02*
X119250000Y-73000000D01*
X132250000Y-76500000D02*
X132125000Y-76375000D01*
X131875000Y-76250000D02*
X131125000Y-75500000D01*
X140875000Y-87625000D02*
X141125000Y-87375000D01*
X119125000Y-72625000D02*
X119125000Y-72875000D01*
X131125000Y-74125000D02*
X130875000Y-73875000D01*
X131824999Y-76250000D02*
X131875000Y-76250000D01*
X142180000Y-88000000D02*
X172470000Y-88000000D01*
X133750000Y-76250000D02*
X133875000Y-76375000D01*
X141500000Y-87375000D02*
X142125000Y-88000000D01*
X124500000Y-71750000D02*
X124250000Y-72000000D01*
X126125000Y-71750000D02*
X124500000Y-71750000D01*
X132125000Y-76375000D02*
X132000000Y-76375000D01*
X139500000Y-87500000D02*
X139625000Y-87625000D01*
X133500000Y-76000000D02*
X132750000Y-76000000D01*
X133750000Y-76250000D02*
X133500000Y-76000000D01*
X127750000Y-73375000D02*
X126125000Y-71750000D01*
X133770000Y-76250000D02*
X133750000Y-76250000D01*
X133875000Y-76375000D02*
X133875000Y-76625000D01*
X142180000Y-88000000D02*
X142125000Y-88000000D01*
X133875000Y-76625000D02*
X133625000Y-76875000D01*
X131125000Y-75500000D02*
X131125000Y-74125000D01*
X141125000Y-87375000D02*
X141500000Y-87375000D01*
X132750000Y-76000000D02*
X132250000Y-76500000D01*
X118375000Y-72625000D02*
X119125000Y-72625000D01*
X129125000Y-73375000D02*
X127750000Y-73375000D01*
X130875000Y-73875000D02*
X130875000Y-73500000D01*
X139125000Y-87250000D02*
X139375000Y-87500000D01*
X129250000Y-73500000D02*
X129125000Y-73375000D01*
X139375000Y-87500000D02*
X139500000Y-87500000D01*
X132000000Y-76375000D02*
X131875000Y-76250000D01*
X139625000Y-87625000D02*
X140875000Y-87625000D01*
X119125000Y-72875000D02*
X119250000Y-73000000D01*
X130875000Y-73500000D02*
X129250000Y-73500000D01*
X118125000Y-72875000D02*
X118375000Y-72625000D01*
%TO.N,H_3*%
D37*
X157930000Y-80000000D02*
X159030000Y-80000000D01*
%TO.N,H_16*%
X191730000Y-80000000D02*
X192830000Y-80000000D01*
%TO.N,HEAT_RTN*%
D38*
X140375000Y-81375000D02*
X140375000Y-81250000D01*
X140875000Y-82500000D02*
X140750000Y-82375000D01*
X140875000Y-82625000D02*
X140875000Y-82500000D01*
X140500000Y-81000000D02*
X141000000Y-80500000D01*
X141000000Y-80500000D02*
X141250000Y-80500000D01*
D36*
X141437500Y-83200000D02*
X141375000Y-83250000D01*
D37*
X194330000Y-80000000D02*
X195130000Y-80000000D01*
D38*
X141375000Y-83125000D02*
X140875000Y-82625000D01*
X140375000Y-81250000D02*
X140500000Y-81125000D01*
X140500000Y-81125000D02*
X140500000Y-81000000D01*
X141375000Y-83250000D02*
X141375000Y-83125000D01*
X141250000Y-80500000D02*
X141500000Y-80250000D01*
X140750000Y-82375000D02*
X140750000Y-81750000D01*
X140750000Y-81750000D02*
X140375000Y-81375000D01*
%TO.N,D4_EXC*%
D36*
X129500000Y-77500000D02*
X129500000Y-77750000D01*
X128175000Y-77750000D02*
X129500000Y-77750000D01*
X131125000Y-77375000D02*
X130625000Y-77375000D01*
X133875000Y-77500000D02*
X131250000Y-77500000D01*
X140375000Y-76750000D02*
X139750000Y-76750000D01*
X136625000Y-77000000D02*
X134375000Y-77000000D01*
X140490000Y-76600000D02*
X140500000Y-76625000D01*
X130500000Y-77500000D02*
X129500000Y-77500000D01*
X139625000Y-76625000D02*
X138875000Y-76625000D01*
X138625000Y-76875000D02*
X136750000Y-76875000D01*
X138875000Y-76625000D02*
X138625000Y-76875000D01*
X130625000Y-77375000D02*
X130500000Y-77500000D01*
X136750000Y-76875000D02*
X136625000Y-77000000D01*
X140500000Y-76625000D02*
X140375000Y-76750000D01*
X139750000Y-76750000D02*
X139625000Y-76625000D01*
X131250000Y-77500000D02*
X131125000Y-77375000D01*
X134375000Y-77000000D02*
X133875000Y-77500000D01*
%TO.N,H_13*%
D37*
X183930000Y-80000000D02*
X185030000Y-80000000D01*
%TO.N,H_12*%
X181330000Y-80000000D02*
X182430000Y-80000000D01*
%TO.N,XCOUT*%
D36*
X112750000Y-82000000D02*
X113125000Y-81625000D01*
X113750000Y-80625000D02*
X113875000Y-80625000D01*
X113225000Y-82150000D02*
X113250000Y-82125000D01*
X112500000Y-84500000D02*
X112375000Y-84500000D01*
X113125000Y-81625000D02*
X113125000Y-81250000D01*
X112500000Y-84480000D02*
X112500000Y-84500000D01*
X116825000Y-79250000D02*
X115500000Y-79250000D01*
X112000000Y-84125000D02*
X111500000Y-84125000D01*
X114875000Y-79625000D02*
X115250000Y-79250000D01*
X111250000Y-83875000D02*
X111250000Y-83125000D01*
X112375000Y-82125000D02*
X113250000Y-82125000D01*
X111250000Y-83125000D02*
X111875000Y-82500000D01*
X112750000Y-82125000D02*
X112750000Y-82000000D01*
X113125000Y-81250000D02*
X113750000Y-80625000D01*
X111875000Y-82500000D02*
X112000000Y-82500000D01*
X112375000Y-84500000D02*
X112000000Y-84125000D01*
X111500000Y-84125000D02*
X111250000Y-83875000D01*
X112000000Y-82500000D02*
X112375000Y-82125000D01*
X115250000Y-79250000D02*
X115500000Y-79250000D01*
%TO.N,H_1*%
D37*
X152730000Y-80000000D02*
X153830000Y-80000000D01*
%TO.N,H_2*%
X155330000Y-80000000D02*
X156430000Y-80000000D01*
%TO.N,XCIN*%
D36*
X113250000Y-78625000D02*
X113250000Y-79625000D01*
X116825000Y-78750000D02*
X115500000Y-78750000D01*
X112500000Y-78280000D02*
X112500000Y-78250000D01*
X113000000Y-78375000D02*
X113625000Y-77750000D01*
X112875000Y-78250000D02*
X113250000Y-78625000D01*
X118750000Y-77750000D02*
X118750000Y-78125000D01*
X118500000Y-78375000D02*
X118250000Y-78375000D01*
X118250000Y-78375000D02*
X117875000Y-78750000D01*
X118750000Y-78125000D02*
X118500000Y-78375000D01*
X118875000Y-77625000D02*
X118750000Y-77750000D01*
X117875000Y-78750000D02*
X115500000Y-78750000D01*
X113225000Y-79650000D02*
X113250000Y-79625000D01*
X112500000Y-78250000D02*
X112875000Y-78250000D01*
%TO.N,D2_SDI12*%
X126875000Y-79250000D02*
X127125000Y-79000000D01*
X125500000Y-79250000D02*
X126875000Y-79250000D01*
X122500000Y-77500000D02*
X124125000Y-77500000D01*
X106875000Y-85250000D02*
X107500000Y-84625000D01*
X121375000Y-77375000D02*
X122375000Y-77375000D01*
X124125000Y-77500000D02*
X124625000Y-78000000D01*
X122375000Y-77375000D02*
X122500000Y-77500000D01*
X107750000Y-83875000D02*
X107750000Y-83625000D01*
X106825000Y-85250000D02*
X106875000Y-85250000D01*
X127125000Y-78750000D02*
X129500000Y-78750000D01*
X127125000Y-79000000D02*
X127125000Y-78750000D01*
X107500000Y-84125000D02*
X107750000Y-83875000D01*
X107500000Y-84625000D02*
X107500000Y-84125000D01*
X128175000Y-78750000D02*
X129500000Y-78750000D01*
%TO.N,VCC_USB*%
X119500000Y-88000000D02*
X120125000Y-87375000D01*
X120250000Y-85675000D02*
X120250000Y-87000000D01*
X119475000Y-88000000D02*
X119500000Y-88000000D01*
X120125000Y-87125000D02*
X120250000Y-87000000D01*
X120125000Y-87375000D02*
X120125000Y-87125000D01*
%TO.N,SWCLK*%
X126375000Y-86000000D02*
X126375000Y-86750000D01*
X119250000Y-77000000D02*
X119250000Y-77125000D01*
X126250000Y-86875000D02*
X126250000Y-87000000D01*
X119375000Y-77125000D02*
X119375000Y-77250000D01*
X126375000Y-86750000D02*
X126250000Y-86875000D01*
X116250000Y-73625000D02*
X116750000Y-74125000D01*
X112750000Y-73625000D02*
X116250000Y-73625000D01*
X126750000Y-85500000D02*
X126750000Y-85625000D01*
X117000000Y-74125000D02*
X118375000Y-75500000D01*
X118375000Y-75500000D02*
X118375000Y-76125000D01*
X119250000Y-77125000D02*
X119375000Y-77125000D01*
X126250000Y-85675000D02*
X126250000Y-87000000D01*
X118375000Y-76125000D02*
X119250000Y-77000000D01*
X126750000Y-85625000D02*
X126375000Y-86000000D01*
X120625000Y-79000000D02*
X120625000Y-80000000D01*
X120625000Y-80000000D02*
X121125000Y-80500000D01*
X119500000Y-77875000D02*
X120625000Y-79000000D01*
X119375000Y-77250000D02*
X119500000Y-77250000D01*
X116750000Y-74125000D02*
X117000000Y-74125000D01*
X112750000Y-73250000D02*
X112750000Y-73625000D01*
X112000000Y-72500000D02*
X112750000Y-73250000D01*
X119500000Y-77250000D02*
X119500000Y-77875000D01*
X111375000Y-72500000D02*
X112000000Y-72500000D01*
%TO.N,SWDIO*%
X119875000Y-76750000D02*
X125125000Y-82000000D01*
X125375000Y-82000000D02*
X126500000Y-83125000D01*
X128250000Y-84250000D02*
X128875000Y-84250000D01*
X128175000Y-83750000D02*
X129500000Y-83750000D01*
X125125000Y-82000000D02*
X125375000Y-82000000D01*
X110125000Y-73750000D02*
X111125000Y-73750000D01*
X108875000Y-72500000D02*
X110125000Y-73750000D01*
X111125000Y-73750000D02*
X111375000Y-74000000D01*
X128875000Y-84250000D02*
X129375000Y-83750000D01*
X129375000Y-83750000D02*
X129500000Y-83750000D01*
%TD*%
%TA.AperFunction,Conductor*%
%TO.N,GND*%
G36*
X100469004Y-78893975D02*
G01*
X100764428Y-79189399D01*
X100792205Y-79243916D01*
X100782634Y-79304348D01*
X100702102Y-79462400D01*
X100633984Y-79672051D01*
X100599500Y-79889774D01*
X100599500Y-80110225D01*
X100633984Y-80327948D01*
X100702102Y-80537599D01*
X100702104Y-80537602D01*
X100702105Y-80537606D01*
X100736991Y-80606072D01*
X100800971Y-80731641D01*
X100802185Y-80734022D01*
X100931758Y-80912365D01*
X101087635Y-81068242D01*
X101265978Y-81197815D01*
X101462394Y-81297895D01*
X101672049Y-81366015D01*
X101732118Y-81375529D01*
X101889775Y-81400500D01*
X101889778Y-81400500D01*
X102110225Y-81400500D01*
X102219086Y-81383257D01*
X102327951Y-81366015D01*
X102537606Y-81297895D01*
X102695652Y-81217365D01*
X102756083Y-81207794D01*
X102810599Y-81235571D01*
X102810600Y-81235571D01*
X103170504Y-81595475D01*
X103198281Y-81649992D01*
X103199500Y-81665479D01*
X103199500Y-81789564D01*
X103219978Y-81865988D01*
X103230690Y-81884541D01*
X103245112Y-81909521D01*
X103249921Y-81917849D01*
X103249922Y-81917852D01*
X103259536Y-81934505D01*
X103259537Y-81934507D01*
X103259540Y-81934511D01*
X104154525Y-82829496D01*
X105045504Y-83720475D01*
X105073281Y-83774992D01*
X105074500Y-83790479D01*
X105074500Y-84024173D01*
X105074501Y-84024185D01*
X105080500Y-84069759D01*
X105080500Y-84069761D01*
X105127148Y-84169796D01*
X105127149Y-84169797D01*
X105127150Y-84169799D01*
X105170505Y-84213154D01*
X105198281Y-84267669D01*
X105199500Y-84283156D01*
X105199500Y-84459521D01*
X105180593Y-84517712D01*
X105170506Y-84529522D01*
X105154523Y-84545504D01*
X105100008Y-84573281D01*
X105084522Y-84574500D01*
X104943479Y-84574500D01*
X104943476Y-84574501D01*
X104849700Y-84589352D01*
X104849695Y-84589354D01*
X104736659Y-84646949D01*
X104646949Y-84736659D01*
X104589354Y-84849695D01*
X104574500Y-84943477D01*
X104574500Y-85556520D01*
X104574501Y-85556523D01*
X104589352Y-85650299D01*
X104589354Y-85650304D01*
X104646950Y-85763342D01*
X104736658Y-85853050D01*
X104849696Y-85910646D01*
X104943481Y-85925500D01*
X105406518Y-85925499D01*
X105406520Y-85925499D01*
X105406521Y-85925498D01*
X105453411Y-85918072D01*
X105500299Y-85910647D01*
X105500299Y-85910646D01*
X105500304Y-85910646D01*
X105613342Y-85853050D01*
X105703050Y-85763342D01*
X105760646Y-85650304D01*
X105775500Y-85556519D01*
X105775499Y-84943482D01*
X105774078Y-84934511D01*
X105760647Y-84849698D01*
X105758643Y-84843530D01*
X105758642Y-84782345D01*
X105767062Y-84763434D01*
X105773206Y-84752793D01*
X105780021Y-84740989D01*
X105800500Y-84664562D01*
X105800500Y-84283156D01*
X105819407Y-84224965D01*
X105829490Y-84213158D01*
X105872850Y-84169799D01*
X105919499Y-84069760D01*
X105925500Y-84024179D01*
X105925499Y-83575822D01*
X105924674Y-83569558D01*
X105919499Y-83530240D01*
X105919499Y-83530238D01*
X105872851Y-83430203D01*
X105872850Y-83430202D01*
X105872850Y-83430201D01*
X105794799Y-83352150D01*
X105694760Y-83305501D01*
X105649179Y-83299500D01*
X105649178Y-83299500D01*
X105515479Y-83299500D01*
X105457288Y-83280593D01*
X105445475Y-83270504D01*
X103829496Y-81654525D01*
X103801719Y-81600008D01*
X103800500Y-81584521D01*
X103800500Y-81460437D01*
X103800499Y-81460435D01*
X103796363Y-81445001D01*
X103780021Y-81384011D01*
X103778336Y-81381093D01*
X103740460Y-81315489D01*
X103684511Y-81259539D01*
X103684511Y-81259540D01*
X103235571Y-80810600D01*
X103207794Y-80756083D01*
X103217364Y-80695654D01*
X103297895Y-80537606D01*
X103366015Y-80327951D01*
X103366015Y-80327949D01*
X103366016Y-80327947D01*
X103382745Y-80222321D01*
X103387113Y-80194741D01*
X103414890Y-80140225D01*
X103469406Y-80112447D01*
X103529838Y-80122018D01*
X103554898Y-80140224D01*
X104364533Y-80949859D01*
X104364535Y-80949862D01*
X104425138Y-81010465D01*
X104440626Y-81019407D01*
X104475533Y-81039561D01*
X104475536Y-81039562D01*
X104499362Y-81053318D01*
X104582145Y-81075500D01*
X104582147Y-81075501D01*
X104582148Y-81075501D01*
X104673916Y-81075501D01*
X104673932Y-81075500D01*
X104699165Y-81075500D01*
X104757356Y-81094407D01*
X104769168Y-81104496D01*
X105050137Y-81385464D01*
X105050142Y-81385468D01*
X105124357Y-81428316D01*
X105124355Y-81428316D01*
X105124359Y-81428317D01*
X105124361Y-81428318D01*
X105207147Y-81450500D01*
X105292853Y-81450500D01*
X107574165Y-81450500D01*
X107632356Y-81469407D01*
X107644169Y-81479496D01*
X107745169Y-81580496D01*
X107772946Y-81635013D01*
X107763375Y-81695445D01*
X107720110Y-81738710D01*
X107675165Y-81749500D01*
X106995725Y-81749500D01*
X106965305Y-81752353D01*
X106965296Y-81752355D01*
X106837116Y-81797207D01*
X106727855Y-81877845D01*
X106727848Y-81877852D01*
X106666232Y-81961339D01*
X106616464Y-81996931D01*
X106572642Y-81997924D01*
X106572323Y-82000347D01*
X106565893Y-81999500D01*
X106565892Y-81999500D01*
X106434108Y-81999500D01*
X106356200Y-82020375D01*
X106306809Y-82033609D01*
X106192690Y-82099496D01*
X106099496Y-82192690D01*
X106033609Y-82306809D01*
X106015761Y-82373421D01*
X105999500Y-82434108D01*
X105999500Y-82565892D01*
X106022171Y-82650502D01*
X106033609Y-82693190D01*
X106099496Y-82807309D01*
X106099498Y-82807311D01*
X106099500Y-82807314D01*
X106192686Y-82900500D01*
X106192688Y-82900501D01*
X106192690Y-82900503D01*
X106306810Y-82966390D01*
X106306808Y-82966390D01*
X106306812Y-82966391D01*
X106306814Y-82966392D01*
X106434108Y-83000500D01*
X106434110Y-83000500D01*
X106565891Y-83000500D01*
X106565892Y-83000500D01*
X106565892Y-83000499D01*
X106572324Y-82999653D01*
X106572691Y-83002446D01*
X106622015Y-83005009D01*
X106666232Y-83038661D01*
X106727845Y-83122144D01*
X106727847Y-83122146D01*
X106727850Y-83122150D01*
X106727853Y-83122152D01*
X106727855Y-83122154D01*
X106837116Y-83202792D01*
X106837117Y-83202792D01*
X106837118Y-83202793D01*
X106965301Y-83247646D01*
X106995725Y-83250499D01*
X106995727Y-83250500D01*
X106995734Y-83250500D01*
X107216816Y-83250500D01*
X107275007Y-83269407D01*
X107310971Y-83318907D01*
X107310971Y-83380093D01*
X107302553Y-83398999D01*
X107283609Y-83431810D01*
X107283425Y-83432498D01*
X107249500Y-83559108D01*
X107249500Y-83690892D01*
X107279428Y-83802585D01*
X107283609Y-83818188D01*
X107286091Y-83824180D01*
X107283804Y-83825127D01*
X107294302Y-83874532D01*
X107269411Y-83930425D01*
X107265852Y-83934176D01*
X107259540Y-83940488D01*
X107219980Y-84009007D01*
X107219978Y-84009011D01*
X107199500Y-84085435D01*
X107199500Y-84459521D01*
X107180593Y-84517712D01*
X107170506Y-84529522D01*
X107151760Y-84548267D01*
X107097245Y-84576044D01*
X107066273Y-84576044D01*
X107056523Y-84574500D01*
X106593479Y-84574500D01*
X106593476Y-84574501D01*
X106499700Y-84589352D01*
X106499695Y-84589354D01*
X106386659Y-84646949D01*
X106296949Y-84736659D01*
X106239354Y-84849695D01*
X106224500Y-84943477D01*
X106224500Y-85556520D01*
X106224501Y-85556523D01*
X106239352Y-85650299D01*
X106239354Y-85650304D01*
X106296950Y-85763342D01*
X106386658Y-85853050D01*
X106499696Y-85910646D01*
X106593481Y-85925500D01*
X107056518Y-85925499D01*
X107056520Y-85925499D01*
X107056521Y-85925498D01*
X107103411Y-85918072D01*
X107150299Y-85910647D01*
X107150299Y-85910646D01*
X107150304Y-85910646D01*
X107263342Y-85853050D01*
X107353050Y-85763342D01*
X107410646Y-85650304D01*
X107425500Y-85556519D01*
X107425499Y-85461949D01*
X107444406Y-85403761D01*
X107493905Y-85367797D01*
X107555091Y-85367796D01*
X107604591Y-85403759D01*
X107617943Y-85429253D01*
X107647207Y-85512883D01*
X107727845Y-85622144D01*
X107727847Y-85622146D01*
X107727850Y-85622150D01*
X107727853Y-85622152D01*
X107727855Y-85622154D01*
X107837116Y-85702792D01*
X107837117Y-85702792D01*
X107837118Y-85702793D01*
X107965301Y-85747646D01*
X107995725Y-85750499D01*
X107995727Y-85750500D01*
X107995734Y-85750500D01*
X108704273Y-85750500D01*
X108704273Y-85750499D01*
X108734699Y-85747646D01*
X108862882Y-85702793D01*
X108972150Y-85622150D01*
X109052793Y-85512882D01*
X109097646Y-85384699D01*
X109097646Y-85384696D01*
X109099635Y-85379013D01*
X109100626Y-85379359D01*
X109124320Y-85336005D01*
X109260465Y-85199862D01*
X109275145Y-85174435D01*
X109303318Y-85125638D01*
X109325500Y-85042853D01*
X109325500Y-85042845D01*
X109326119Y-85038144D01*
X109352456Y-84982917D01*
X109354224Y-84981102D01*
X109430831Y-84904496D01*
X109485348Y-84876719D01*
X109500834Y-84875500D01*
X109565890Y-84875500D01*
X109565892Y-84875500D01*
X109693186Y-84841392D01*
X109693188Y-84841390D01*
X109693190Y-84841390D01*
X109807309Y-84775503D01*
X109807309Y-84775502D01*
X109807314Y-84775500D01*
X109900500Y-84682314D01*
X109909043Y-84667518D01*
X109925994Y-84638158D01*
X109966392Y-84568186D01*
X109978322Y-84523659D01*
X110011644Y-84472347D01*
X110068765Y-84450419D01*
X110127865Y-84466253D01*
X110143952Y-84479279D01*
X110370504Y-84705831D01*
X110398281Y-84760348D01*
X110399500Y-84775835D01*
X110399500Y-85354274D01*
X110402353Y-85384694D01*
X110402355Y-85384703D01*
X110447207Y-85512883D01*
X110468484Y-85541712D01*
X110487826Y-85599759D01*
X110469355Y-85658090D01*
X110420125Y-85694423D01*
X110388829Y-85699500D01*
X109960435Y-85699500D01*
X109884012Y-85719978D01*
X109837347Y-85746919D01*
X109837346Y-85746921D01*
X109819238Y-85757376D01*
X109815486Y-85759542D01*
X109529524Y-86045504D01*
X109475008Y-86073281D01*
X109459521Y-86074500D01*
X107710435Y-86074500D01*
X107634012Y-86094978D01*
X107582879Y-86124500D01*
X107582878Y-86124499D01*
X107565489Y-86134539D01*
X107014835Y-86685192D01*
X106960319Y-86712969D01*
X106899887Y-86703398D01*
X106889838Y-86697507D01*
X106763914Y-86613368D01*
X106624074Y-86555445D01*
X106581835Y-86537949D01*
X106388543Y-86499500D01*
X106388541Y-86499500D01*
X106191459Y-86499500D01*
X106191456Y-86499500D01*
X105998165Y-86537949D01*
X105998163Y-86537949D01*
X105816086Y-86613367D01*
X105652218Y-86722861D01*
X105652214Y-86722864D01*
X105512864Y-86862214D01*
X105512861Y-86862218D01*
X105403367Y-87026086D01*
X105327949Y-87208163D01*
X105327949Y-87208165D01*
X105289500Y-87401456D01*
X105289500Y-87598543D01*
X105305389Y-87678418D01*
X105327604Y-87790103D01*
X105327949Y-87791834D01*
X105327949Y-87791836D01*
X105403367Y-87973913D01*
X105409358Y-87982879D01*
X105512861Y-88137782D01*
X105652218Y-88277139D01*
X105816086Y-88386632D01*
X105842463Y-88397557D01*
X105847239Y-88399536D01*
X105893764Y-88439273D01*
X105908048Y-88498767D01*
X105884633Y-88555295D01*
X105832464Y-88587265D01*
X105809353Y-88590000D01*
X104782583Y-88590000D01*
X104724392Y-88571093D01*
X104688428Y-88521593D01*
X104688428Y-88460407D01*
X104700268Y-88435998D01*
X104724655Y-88399500D01*
X104738867Y-88378231D01*
X104750500Y-88319748D01*
X104750500Y-86680252D01*
X104738867Y-86621769D01*
X104694552Y-86555448D01*
X104687147Y-86550500D01*
X104628233Y-86511134D01*
X104628231Y-86511133D01*
X104628228Y-86511132D01*
X104628227Y-86511132D01*
X104569758Y-86499501D01*
X104569748Y-86499500D01*
X102930252Y-86499500D01*
X102930251Y-86499500D01*
X102930241Y-86499501D01*
X102871772Y-86511132D01*
X102871766Y-86511134D01*
X102805451Y-86555445D01*
X102805445Y-86555451D01*
X102761134Y-86621766D01*
X102761132Y-86621772D01*
X102749501Y-86680241D01*
X102749500Y-86680253D01*
X102749500Y-88319746D01*
X102749501Y-88319758D01*
X102761132Y-88378227D01*
X102761134Y-88378233D01*
X102799732Y-88435998D01*
X102816341Y-88494886D01*
X102795164Y-88552290D01*
X102744290Y-88586283D01*
X102717417Y-88590000D01*
X100399000Y-88590000D01*
X100340809Y-88571093D01*
X100304845Y-88521593D01*
X100300000Y-88491000D01*
X100300000Y-83885879D01*
X100550000Y-83885879D01*
X100550000Y-84114120D01*
X100585702Y-84339538D01*
X100656232Y-84556607D01*
X100759848Y-84759965D01*
X100759850Y-84759969D01*
X100872646Y-84915219D01*
X101483123Y-84304741D01*
X101519881Y-84368408D01*
X101631592Y-84480119D01*
X101695255Y-84516875D01*
X101084780Y-85127351D01*
X101240036Y-85240152D01*
X101443392Y-85343767D01*
X101660461Y-85414297D01*
X101885880Y-85450000D01*
X102114120Y-85450000D01*
X102339538Y-85414297D01*
X102556607Y-85343767D01*
X102759963Y-85240152D01*
X102915219Y-85127351D01*
X102304743Y-84516875D01*
X102368408Y-84480119D01*
X102480119Y-84368408D01*
X102516875Y-84304743D01*
X103127351Y-84915219D01*
X103240152Y-84759963D01*
X103343767Y-84556607D01*
X103414297Y-84339538D01*
X103450000Y-84114120D01*
X103450000Y-83885879D01*
X103414297Y-83660461D01*
X103343767Y-83443392D01*
X103240152Y-83240036D01*
X103127351Y-83084780D01*
X102516875Y-83695255D01*
X102480119Y-83631592D01*
X102368408Y-83519881D01*
X102304741Y-83483123D01*
X102915219Y-82872646D01*
X102759969Y-82759850D01*
X102759965Y-82759848D01*
X102556607Y-82656232D01*
X102339538Y-82585702D01*
X102114120Y-82550000D01*
X101885880Y-82550000D01*
X101660461Y-82585702D01*
X101443392Y-82656232D01*
X101240034Y-82759848D01*
X101240030Y-82759850D01*
X101084779Y-82872646D01*
X101695256Y-83483123D01*
X101631592Y-83519881D01*
X101519881Y-83631592D01*
X101483123Y-83695256D01*
X100872646Y-83084779D01*
X100759850Y-83240030D01*
X100759848Y-83240034D01*
X100656232Y-83443392D01*
X100585702Y-83660461D01*
X100550000Y-83885879D01*
X100300000Y-83885879D01*
X100300000Y-78963979D01*
X100318907Y-78905788D01*
X100368407Y-78869824D01*
X100429593Y-78869824D01*
X100469004Y-78893975D01*
G37*
%TD.AperFunction*%
%TA.AperFunction,Conductor*%
G36*
X112017712Y-86319407D02*
G01*
X112029524Y-86329496D01*
X112065487Y-86365458D01*
X112065493Y-86365463D01*
X112134008Y-86405020D01*
X112134006Y-86405020D01*
X112134010Y-86405021D01*
X112134012Y-86405022D01*
X112210438Y-86425500D01*
X113392332Y-86425500D01*
X113450523Y-86444407D01*
X113486487Y-86493907D01*
X113486487Y-86555093D01*
X113450523Y-86604593D01*
X113438999Y-86611811D01*
X113436084Y-86613368D01*
X113272218Y-86722861D01*
X113272214Y-86722864D01*
X113132864Y-86862214D01*
X113132861Y-86862218D01*
X113023367Y-87026086D01*
X112947949Y-87208163D01*
X112947949Y-87208165D01*
X112909500Y-87401456D01*
X112909500Y-87598543D01*
X112925389Y-87678418D01*
X112947604Y-87790103D01*
X112947949Y-87791834D01*
X112947949Y-87791836D01*
X113023367Y-87973913D01*
X113029358Y-87982879D01*
X113132861Y-88137782D01*
X113272218Y-88277139D01*
X113436086Y-88386632D01*
X113462463Y-88397557D01*
X113467239Y-88399536D01*
X113513764Y-88439273D01*
X113528048Y-88498767D01*
X113504633Y-88555295D01*
X113452464Y-88587265D01*
X113429353Y-88590000D01*
X109310647Y-88590000D01*
X109252456Y-88571093D01*
X109216492Y-88521593D01*
X109216492Y-88460407D01*
X109252456Y-88410907D01*
X109272761Y-88399536D01*
X109275747Y-88398298D01*
X109303914Y-88386632D01*
X109467782Y-88277139D01*
X109607139Y-88137782D01*
X109716632Y-87973914D01*
X109792051Y-87791835D01*
X109830500Y-87598541D01*
X109830500Y-87401459D01*
X109792051Y-87208165D01*
X109716632Y-87026086D01*
X109607139Y-86862218D01*
X109589425Y-86844504D01*
X109561648Y-86789987D01*
X109571219Y-86729555D01*
X109614484Y-86686290D01*
X109659429Y-86675500D01*
X109664563Y-86675500D01*
X109664563Y-86675499D01*
X109740989Y-86655021D01*
X109809511Y-86615460D01*
X109865460Y-86559511D01*
X110095475Y-86329496D01*
X110149992Y-86301719D01*
X110165479Y-86300500D01*
X111959521Y-86300500D01*
X112017712Y-86319407D01*
G37*
%TD.AperFunction*%
%TA.AperFunction,Conductor*%
G36*
X120574000Y-87245374D02*
G01*
X120634007Y-87280019D01*
X120634011Y-87280021D01*
X120710435Y-87300499D01*
X120710437Y-87300500D01*
X120710438Y-87300500D01*
X120789563Y-87300500D01*
X120789563Y-87300499D01*
X120841540Y-87286572D01*
X120872256Y-87278342D01*
X120872891Y-87280714D01*
X120923295Y-87276745D01*
X120970194Y-87303007D01*
X120974498Y-87307311D01*
X120974500Y-87307314D01*
X121067686Y-87400500D01*
X121067688Y-87400501D01*
X121067690Y-87400503D01*
X121181810Y-87466390D01*
X121181808Y-87466390D01*
X121181812Y-87466391D01*
X121181814Y-87466392D01*
X121309108Y-87500500D01*
X121309110Y-87500500D01*
X121440890Y-87500500D01*
X121440892Y-87500500D01*
X121568186Y-87466392D01*
X121619391Y-87436828D01*
X121679237Y-87424106D01*
X121735133Y-87448991D01*
X121764517Y-87496939D01*
X121783608Y-87568186D01*
X121783609Y-87568188D01*
X121783610Y-87568191D01*
X121849496Y-87682309D01*
X121849498Y-87682311D01*
X121849500Y-87682314D01*
X121942686Y-87775500D01*
X121970000Y-87791269D01*
X122010940Y-87836736D01*
X122019500Y-87877005D01*
X122019500Y-88224314D01*
X122025932Y-88273174D01*
X122025932Y-88273175D01*
X122075933Y-88380401D01*
X122075934Y-88380402D01*
X122075935Y-88380404D01*
X122116529Y-88420998D01*
X122144305Y-88475513D01*
X122134734Y-88535945D01*
X122091469Y-88579210D01*
X122046524Y-88590000D01*
X120165865Y-88590000D01*
X120107674Y-88571093D01*
X120071710Y-88521593D01*
X120071710Y-88460407D01*
X120077655Y-88446055D01*
X120100866Y-88400500D01*
X120109719Y-88383126D01*
X120125275Y-88284907D01*
X120125500Y-88283489D01*
X120125500Y-87840478D01*
X120144407Y-87782287D01*
X120154490Y-87770480D01*
X120365460Y-87559511D01*
X120370677Y-87550475D01*
X120405021Y-87490989D01*
X120425500Y-87414562D01*
X120425500Y-87331110D01*
X120444407Y-87272919D01*
X120493907Y-87236955D01*
X120555093Y-87236955D01*
X120574000Y-87245374D01*
G37*
%TD.AperFunction*%
%TA.AperFunction,Conductor*%
G36*
X135464203Y-86894406D02*
G01*
X135500167Y-86943906D01*
X135501639Y-86948876D01*
X135533609Y-87068190D01*
X135599496Y-87182309D01*
X135599498Y-87182311D01*
X135599500Y-87182314D01*
X135692686Y-87275500D01*
X135692688Y-87275501D01*
X135692690Y-87275503D01*
X135806810Y-87341390D01*
X135806808Y-87341390D01*
X135806812Y-87341391D01*
X135806814Y-87341392D01*
X135808612Y-87341873D01*
X135809731Y-87342600D01*
X135812806Y-87343874D01*
X135812569Y-87344443D01*
X135859925Y-87375197D01*
X135881852Y-87432319D01*
X135866016Y-87491419D01*
X135818467Y-87529924D01*
X135808619Y-87533124D01*
X135807537Y-87533414D01*
X135806809Y-87533609D01*
X135692690Y-87599496D01*
X135599496Y-87692690D01*
X135533609Y-87806809D01*
X135517894Y-87865460D01*
X135499500Y-87934108D01*
X135499500Y-88065892D01*
X135526373Y-88166184D01*
X135533609Y-88193190D01*
X135599496Y-88307309D01*
X135599498Y-88307311D01*
X135599500Y-88307314D01*
X135692686Y-88400500D01*
X135692688Y-88400501D01*
X135700937Y-88405264D01*
X135741877Y-88450734D01*
X135748272Y-88511584D01*
X135717679Y-88564572D01*
X135661784Y-88589458D01*
X135651436Y-88590000D01*
X134710547Y-88590000D01*
X134652356Y-88571093D01*
X134616392Y-88521593D01*
X134616392Y-88460407D01*
X134640541Y-88420998D01*
X134693224Y-88368316D01*
X134743972Y-88259487D01*
X134750500Y-88209901D01*
X134750499Y-87790100D01*
X134743972Y-87740513D01*
X134708974Y-87665461D01*
X134701518Y-87604734D01*
X134712964Y-87574122D01*
X134716392Y-87568186D01*
X134750500Y-87440892D01*
X134750500Y-87309108D01*
X134716392Y-87181814D01*
X134716390Y-87181811D01*
X134716390Y-87181809D01*
X134650503Y-87067690D01*
X134650501Y-87067688D01*
X134650500Y-87067686D01*
X134627314Y-87044500D01*
X134599539Y-86989986D01*
X134609110Y-86929554D01*
X134652375Y-86886289D01*
X134697316Y-86875499D01*
X135406012Y-86875499D01*
X135464203Y-86894406D01*
G37*
%TD.AperFunction*%
%TA.AperFunction,Conductor*%
G36*
X118858691Y-84944407D02*
G01*
X118894655Y-84993907D01*
X118899500Y-85024500D01*
X118899500Y-86402129D01*
X118899501Y-86402136D01*
X118915484Y-86482494D01*
X118915485Y-86482497D01*
X118932814Y-86508429D01*
X118949500Y-86563432D01*
X118949500Y-87039564D01*
X118969978Y-87115988D01*
X118969980Y-87115992D01*
X119009307Y-87184108D01*
X119009540Y-87184511D01*
X119052611Y-87227582D01*
X119080387Y-87282097D01*
X119070816Y-87342529D01*
X119027552Y-87385793D01*
X118996781Y-87401471D01*
X118901469Y-87496783D01*
X118886988Y-87525204D01*
X118843723Y-87568468D01*
X118783290Y-87578038D01*
X118749280Y-87565994D01*
X118693187Y-87533608D01*
X118650754Y-87522238D01*
X118565892Y-87499500D01*
X118434108Y-87499500D01*
X118367576Y-87517327D01*
X118306809Y-87533609D01*
X118192690Y-87599496D01*
X118099496Y-87692690D01*
X118033609Y-87806809D01*
X118015037Y-87876123D01*
X117981713Y-87927438D01*
X117924591Y-87949364D01*
X117919410Y-87949500D01*
X116099801Y-87949500D01*
X116041610Y-87930593D01*
X116005646Y-87881093D01*
X116004755Y-87878200D01*
X116003972Y-87875516D01*
X116003972Y-87875513D01*
X115999283Y-87865458D01*
X115953225Y-87766686D01*
X115953224Y-87766685D01*
X115953224Y-87766684D01*
X115868316Y-87681776D01*
X115868314Y-87681775D01*
X115868313Y-87681774D01*
X115759489Y-87631029D01*
X115759488Y-87631028D01*
X115742958Y-87628852D01*
X115709901Y-87624500D01*
X115709899Y-87624500D01*
X115290103Y-87624500D01*
X115290092Y-87624501D01*
X115240513Y-87631027D01*
X115240511Y-87631027D01*
X115131686Y-87681774D01*
X115131683Y-87681776D01*
X115065682Y-87747777D01*
X115011165Y-87775554D01*
X114950733Y-87765982D01*
X114907469Y-87722717D01*
X114897898Y-87662285D01*
X114898575Y-87658488D01*
X114910500Y-87598541D01*
X114910500Y-87401459D01*
X114872051Y-87208165D01*
X114796632Y-87026086D01*
X114687139Y-86862218D01*
X114656357Y-86831436D01*
X114628580Y-86776919D01*
X114638151Y-86716487D01*
X114681416Y-86673222D01*
X114700728Y-86665808D01*
X114740989Y-86655021D01*
X114809511Y-86615460D01*
X114865460Y-86559511D01*
X115220475Y-86204496D01*
X115274992Y-86176719D01*
X115290479Y-86175500D01*
X115709521Y-86175500D01*
X115767712Y-86194407D01*
X115779525Y-86204496D01*
X116009540Y-86434511D01*
X116009539Y-86434511D01*
X116065489Y-86490460D01*
X116134007Y-86530019D01*
X116134011Y-86530021D01*
X116210435Y-86550499D01*
X116210437Y-86550500D01*
X116210438Y-86550500D01*
X117289563Y-86550500D01*
X117289563Y-86550499D01*
X117365989Y-86530021D01*
X117434511Y-86490460D01*
X117490460Y-86434511D01*
X118490460Y-85434511D01*
X118490995Y-85433585D01*
X118530020Y-85365992D01*
X118530020Y-85365990D01*
X118530022Y-85365988D01*
X118550500Y-85289562D01*
X118550500Y-85210438D01*
X118550500Y-85024500D01*
X118569407Y-84966309D01*
X118618907Y-84930345D01*
X118649500Y-84925500D01*
X118800500Y-84925500D01*
X118858691Y-84944407D01*
G37*
%TD.AperFunction*%
%TA.AperFunction,Conductor*%
G36*
X142075477Y-80350500D02*
G01*
X142781000Y-80350500D01*
X142839191Y-80369407D01*
X142875155Y-80418907D01*
X142880000Y-80449500D01*
X142880000Y-87600500D01*
X142861093Y-87658691D01*
X142811593Y-87694655D01*
X142781000Y-87699500D01*
X142290479Y-87699500D01*
X142232288Y-87680593D01*
X142220475Y-87670504D01*
X141954080Y-87404109D01*
X141684511Y-87134540D01*
X141684508Y-87134538D01*
X141684507Y-87134537D01*
X141683595Y-87134011D01*
X141683597Y-87134005D01*
X141683576Y-87134000D01*
X141615992Y-87094980D01*
X141615988Y-87094978D01*
X141539564Y-87074500D01*
X141539562Y-87074500D01*
X141085438Y-87074500D01*
X141085435Y-87074500D01*
X141009012Y-87094978D01*
X140941423Y-87134001D01*
X140941405Y-87134011D01*
X140940490Y-87134538D01*
X140779524Y-87295504D01*
X140725008Y-87323281D01*
X140709521Y-87324500D01*
X139790479Y-87324500D01*
X139732288Y-87305593D01*
X139720476Y-87295504D01*
X139684510Y-87259539D01*
X139673671Y-87253281D01*
X139632731Y-87207811D01*
X139627771Y-87190217D01*
X139627179Y-87190376D01*
X139625019Y-87182314D01*
X139591392Y-87056814D01*
X139591390Y-87056811D01*
X139591390Y-87056809D01*
X139525503Y-86942690D01*
X139525501Y-86942688D01*
X139525500Y-86942686D01*
X139432314Y-86849500D01*
X139432311Y-86849498D01*
X139432309Y-86849496D01*
X139317819Y-86783395D01*
X139276878Y-86737926D01*
X139270482Y-86677075D01*
X139297316Y-86627655D01*
X139375476Y-86549496D01*
X139429993Y-86521719D01*
X139445479Y-86520500D01*
X139664314Y-86520500D01*
X139664316Y-86520500D01*
X139713173Y-86514068D01*
X139820404Y-86464065D01*
X139904065Y-86380404D01*
X139910275Y-86367085D01*
X139952003Y-86322337D01*
X140012064Y-86310662D01*
X140067517Y-86336519D01*
X140089724Y-86367084D01*
X140095935Y-86380404D01*
X140179596Y-86464065D01*
X140179597Y-86464065D01*
X140179598Y-86464066D01*
X140286824Y-86514067D01*
X140286825Y-86514067D01*
X140286827Y-86514068D01*
X140335684Y-86520500D01*
X140335685Y-86520500D01*
X140684314Y-86520500D01*
X140684316Y-86520500D01*
X140733173Y-86514068D01*
X140840404Y-86464065D01*
X140924065Y-86380404D01*
X140924065Y-86380402D01*
X140929996Y-86374472D01*
X140984513Y-86346695D01*
X141044945Y-86356266D01*
X141070004Y-86374472D01*
X141075934Y-86380402D01*
X141075935Y-86380404D01*
X141159596Y-86464065D01*
X141159597Y-86464065D01*
X141159598Y-86464066D01*
X141266824Y-86514067D01*
X141266825Y-86514067D01*
X141266827Y-86514068D01*
X141315684Y-86520500D01*
X141315685Y-86520500D01*
X141664314Y-86520500D01*
X141664316Y-86520500D01*
X141713173Y-86514068D01*
X141820404Y-86464065D01*
X141904065Y-86380404D01*
X141954068Y-86273173D01*
X141960500Y-86224316D01*
X141960500Y-85775684D01*
X141954068Y-85726827D01*
X141953449Y-85725500D01*
X141904066Y-85619598D01*
X141904065Y-85619597D01*
X141904065Y-85619596D01*
X141820404Y-85535935D01*
X141820402Y-85535934D01*
X141820401Y-85535933D01*
X141713175Y-85485932D01*
X141680601Y-85481644D01*
X141664316Y-85479500D01*
X141315684Y-85479500D01*
X141299398Y-85481644D01*
X141266825Y-85485932D01*
X141266824Y-85485932D01*
X141159598Y-85535933D01*
X141159596Y-85535934D01*
X141159596Y-85535935D01*
X141075935Y-85619596D01*
X141075934Y-85619597D01*
X141070004Y-85625528D01*
X141015487Y-85653305D01*
X140955055Y-85643734D01*
X140929996Y-85625528D01*
X140924065Y-85619597D01*
X140924065Y-85619596D01*
X140840404Y-85535935D01*
X140840402Y-85535934D01*
X140840401Y-85535933D01*
X140733175Y-85485932D01*
X140700601Y-85481644D01*
X140684316Y-85479500D01*
X140684315Y-85479500D01*
X140524500Y-85479500D01*
X140466309Y-85460593D01*
X140430345Y-85411093D01*
X140425500Y-85380500D01*
X140425500Y-85335437D01*
X140425499Y-85335435D01*
X140424893Y-85333175D01*
X140405021Y-85259011D01*
X140402448Y-85254555D01*
X140377469Y-85211290D01*
X140365460Y-85190489D01*
X140309511Y-85134540D01*
X140309508Y-85134538D01*
X140240992Y-85094980D01*
X140240988Y-85094978D01*
X140164564Y-85074500D01*
X140164562Y-85074500D01*
X140040479Y-85074500D01*
X139982288Y-85055593D01*
X139970475Y-85045504D01*
X139704567Y-84779596D01*
X139434511Y-84509540D01*
X139434508Y-84509538D01*
X139417121Y-84499499D01*
X139417121Y-84499500D01*
X139365989Y-84469979D01*
X139365988Y-84469978D01*
X139365987Y-84469978D01*
X139289564Y-84449500D01*
X139289562Y-84449500D01*
X138899500Y-84449500D01*
X138841309Y-84430593D01*
X138805345Y-84381093D01*
X138800500Y-84350500D01*
X138800500Y-83665478D01*
X138819407Y-83607287D01*
X138829490Y-83595480D01*
X139365460Y-83059511D01*
X139388307Y-83019938D01*
X139405021Y-82990989D01*
X139425500Y-82914562D01*
X139425500Y-82914556D01*
X139426347Y-82908129D01*
X139427824Y-82908323D01*
X139444407Y-82857287D01*
X139454490Y-82845480D01*
X139490460Y-82809511D01*
X139495953Y-82799997D01*
X139541424Y-82759058D01*
X139581688Y-82750500D01*
X140183257Y-82750500D01*
X140183260Y-82750500D01*
X140251393Y-82740573D01*
X140356483Y-82689198D01*
X140391973Y-82653707D01*
X140446487Y-82625931D01*
X140506919Y-82635502D01*
X140550184Y-82678766D01*
X140557600Y-82698085D01*
X140571682Y-82750639D01*
X140571683Y-82750641D01*
X140573362Y-82756906D01*
X140571679Y-82757356D01*
X140575819Y-82810058D01*
X140564009Y-82835953D01*
X140564405Y-82836147D01*
X140509427Y-82948604D01*
X140509427Y-82948607D01*
X140499500Y-83016740D01*
X140499500Y-83383260D01*
X140503205Y-83408690D01*
X140509427Y-83451395D01*
X140560801Y-83556481D01*
X140560802Y-83556483D01*
X140643517Y-83639198D01*
X140696650Y-83665173D01*
X140748604Y-83690572D01*
X140748605Y-83690572D01*
X140748607Y-83690573D01*
X140816740Y-83700500D01*
X140816743Y-83700500D01*
X142058257Y-83700500D01*
X142058260Y-83700500D01*
X142126393Y-83690573D01*
X142231483Y-83639198D01*
X142314198Y-83556483D01*
X142365573Y-83451393D01*
X142375500Y-83383260D01*
X142375500Y-83016740D01*
X142365573Y-82948607D01*
X142363810Y-82945001D01*
X142334332Y-82884703D01*
X142314198Y-82843517D01*
X142231483Y-82760802D01*
X142224434Y-82757356D01*
X142126395Y-82709427D01*
X142099139Y-82705456D01*
X142058260Y-82699500D01*
X142058257Y-82699500D01*
X141450833Y-82699500D01*
X141392642Y-82680593D01*
X141380836Y-82670510D01*
X141229268Y-82518941D01*
X141201493Y-82464428D01*
X141201120Y-82461855D01*
X141200501Y-82457155D01*
X141200501Y-82457147D01*
X141178355Y-82374500D01*
X141178320Y-82374368D01*
X141178319Y-82374367D01*
X141178318Y-82374361D01*
X141153279Y-82330993D01*
X141149530Y-82324499D01*
X141149528Y-82324497D01*
X141148451Y-82322632D01*
X141135465Y-82300138D01*
X141104495Y-82269168D01*
X141076719Y-82214651D01*
X141075500Y-82199165D01*
X141075500Y-81707148D01*
X141075500Y-81707147D01*
X141066735Y-81674435D01*
X141066735Y-81674434D01*
X141066735Y-81674433D01*
X141055297Y-81631748D01*
X141053318Y-81624361D01*
X141048486Y-81615992D01*
X141010468Y-81550142D01*
X141010464Y-81550137D01*
X140823043Y-81362715D01*
X140795266Y-81308199D01*
X140801584Y-81254823D01*
X140803313Y-81250647D01*
X140803318Y-81250639D01*
X140825501Y-81167853D01*
X140825501Y-81167843D01*
X140826120Y-81163145D01*
X140852456Y-81107918D01*
X140854271Y-81106055D01*
X141105831Y-80854496D01*
X141160347Y-80826719D01*
X141175834Y-80825500D01*
X141292851Y-80825500D01*
X141292853Y-80825500D01*
X141375639Y-80803318D01*
X141444148Y-80763763D01*
X141493649Y-80750500D01*
X141565890Y-80750500D01*
X141565892Y-80750500D01*
X141693186Y-80716392D01*
X141693188Y-80716390D01*
X141693190Y-80716390D01*
X141807309Y-80650503D01*
X141807309Y-80650502D01*
X141807314Y-80650500D01*
X141900500Y-80557314D01*
X141966392Y-80443186D01*
X141971740Y-80423222D01*
X142005061Y-80371907D01*
X142062181Y-80349977D01*
X142075477Y-80350500D01*
G37*
%TD.AperFunction*%
%TA.AperFunction,Conductor*%
G36*
X139517712Y-76944407D02*
G01*
X139529524Y-76954496D01*
X139565487Y-76990458D01*
X139565493Y-76990463D01*
X139634008Y-77030020D01*
X139634006Y-77030020D01*
X139634010Y-77030021D01*
X139634012Y-77030022D01*
X139710438Y-77050500D01*
X139789562Y-77050500D01*
X140109009Y-77050500D01*
X140150293Y-77063520D01*
X140151746Y-77060405D01*
X140258694Y-77110276D01*
X140303442Y-77152004D01*
X140315117Y-77212065D01*
X140289259Y-77267518D01*
X140258694Y-77289724D01*
X140159598Y-77335933D01*
X140075933Y-77419598D01*
X140025932Y-77526824D01*
X140025932Y-77526825D01*
X140019501Y-77575674D01*
X140019500Y-77575685D01*
X140019500Y-78024314D01*
X140025932Y-78073174D01*
X140025932Y-78073175D01*
X140075933Y-78180401D01*
X140075935Y-78180404D01*
X140127434Y-78231904D01*
X140155211Y-78286421D01*
X140153057Y-78327529D01*
X140126904Y-78425135D01*
X140124500Y-78434108D01*
X140124500Y-78565892D01*
X140147899Y-78653220D01*
X140158609Y-78693190D01*
X140224496Y-78807309D01*
X140224498Y-78807311D01*
X140224500Y-78807314D01*
X140317686Y-78900500D01*
X140352932Y-78920849D01*
X140393874Y-78966318D01*
X140400270Y-79027168D01*
X140373437Y-79076589D01*
X140229524Y-79220503D01*
X140175007Y-79248281D01*
X140159520Y-79249500D01*
X140059108Y-79249500D01*
X139997611Y-79265978D01*
X139931809Y-79283609D01*
X139817690Y-79349496D01*
X139724496Y-79442690D01*
X139658609Y-79556810D01*
X139658606Y-79556815D01*
X139657767Y-79559950D01*
X139656502Y-79561897D01*
X139656126Y-79562806D01*
X139655957Y-79562736D01*
X139624441Y-79611263D01*
X139567318Y-79633187D01*
X139508218Y-79617347D01*
X139503354Y-79613977D01*
X139412883Y-79547207D01*
X139284703Y-79502355D01*
X139284694Y-79502353D01*
X139254274Y-79499500D01*
X139254266Y-79499500D01*
X138545734Y-79499500D01*
X138545725Y-79499500D01*
X138515305Y-79502353D01*
X138515296Y-79502355D01*
X138387116Y-79547207D01*
X138277855Y-79627845D01*
X138277845Y-79627855D01*
X138197208Y-79737114D01*
X138197206Y-79737119D01*
X138178040Y-79791891D01*
X138140974Y-79840571D01*
X138134097Y-79844928D01*
X138065490Y-79884538D01*
X138029524Y-79920504D01*
X137975007Y-79948281D01*
X137959521Y-79949500D01*
X137835435Y-79949500D01*
X137759011Y-79969978D01*
X137759007Y-79969980D01*
X137740681Y-79980560D01*
X137740682Y-79980561D01*
X137690488Y-80009540D01*
X137019309Y-80680718D01*
X136964793Y-80708495D01*
X136904361Y-80698924D01*
X136861096Y-80655659D01*
X136850525Y-80606581D01*
X136850500Y-80606581D01*
X136850500Y-80606466D01*
X136850415Y-80606072D01*
X136850500Y-80604261D01*
X136850500Y-79895727D01*
X136850499Y-79895725D01*
X136849450Y-79884538D01*
X136847646Y-79865301D01*
X136802793Y-79737118D01*
X136802790Y-79737114D01*
X136722154Y-79627855D01*
X136722151Y-79627852D01*
X136722150Y-79627850D01*
X136722146Y-79627847D01*
X136722144Y-79627845D01*
X136612883Y-79547207D01*
X136484703Y-79502355D01*
X136484694Y-79502353D01*
X136454274Y-79499500D01*
X136454266Y-79499500D01*
X135745734Y-79499500D01*
X135745725Y-79499500D01*
X135715305Y-79502353D01*
X135715296Y-79502355D01*
X135587116Y-79547207D01*
X135477855Y-79627845D01*
X135477848Y-79627852D01*
X135416232Y-79711339D01*
X135366464Y-79746931D01*
X135322642Y-79747924D01*
X135322323Y-79750347D01*
X135315893Y-79749500D01*
X135315892Y-79749500D01*
X135184108Y-79749500D01*
X135109813Y-79769407D01*
X135056809Y-79783609D01*
X134942690Y-79849496D01*
X134849496Y-79942690D01*
X134783609Y-80056809D01*
X134767752Y-80115989D01*
X134749500Y-80184108D01*
X134749500Y-80315892D01*
X134775710Y-80413710D01*
X134783609Y-80443190D01*
X134849496Y-80557309D01*
X134849498Y-80557311D01*
X134849500Y-80557314D01*
X134942686Y-80650500D01*
X134942688Y-80650501D01*
X134942690Y-80650503D01*
X135056810Y-80716390D01*
X135056808Y-80716390D01*
X135056812Y-80716391D01*
X135056814Y-80716392D01*
X135184108Y-80750500D01*
X135184110Y-80750500D01*
X135315891Y-80750500D01*
X135315892Y-80750500D01*
X135315892Y-80750499D01*
X135322324Y-80749653D01*
X135322691Y-80752446D01*
X135372015Y-80755009D01*
X135416232Y-80788661D01*
X135477845Y-80872144D01*
X135477847Y-80872146D01*
X135477850Y-80872150D01*
X135477853Y-80872152D01*
X135477855Y-80872154D01*
X135587116Y-80952792D01*
X135587117Y-80952792D01*
X135587118Y-80952793D01*
X135715301Y-80997646D01*
X135745725Y-81000499D01*
X135745727Y-81000500D01*
X136336192Y-81000500D01*
X136394383Y-81019407D01*
X136430347Y-81068907D01*
X136430347Y-81130093D01*
X136394383Y-81179593D01*
X136385697Y-81185233D01*
X136363906Y-81197815D01*
X136317687Y-81224499D01*
X136224496Y-81317690D01*
X136158609Y-81431809D01*
X136150938Y-81460438D01*
X136124500Y-81559108D01*
X136124500Y-81690892D01*
X136147171Y-81775503D01*
X136158609Y-81818190D01*
X136224496Y-81932309D01*
X136224498Y-81932311D01*
X136224500Y-81932314D01*
X136317686Y-82025500D01*
X136317688Y-82025501D01*
X136317690Y-82025503D01*
X136431810Y-82091390D01*
X136431808Y-82091390D01*
X136431812Y-82091391D01*
X136431814Y-82091392D01*
X136559108Y-82125500D01*
X136559110Y-82125500D01*
X136690890Y-82125500D01*
X136690892Y-82125500D01*
X136818186Y-82091392D01*
X136818188Y-82091390D01*
X136818190Y-82091390D01*
X136932309Y-82025503D01*
X136932309Y-82025502D01*
X136932314Y-82025500D01*
X137025500Y-81932314D01*
X137033850Y-81917852D01*
X137091390Y-81818190D01*
X137091390Y-81818188D01*
X137091392Y-81818186D01*
X137125500Y-81690892D01*
X137125500Y-81590477D01*
X137144407Y-81532286D01*
X137154497Y-81520473D01*
X137178856Y-81496114D01*
X137240460Y-81434511D01*
X137242012Y-81431821D01*
X137242019Y-81431815D01*
X137242017Y-81431814D01*
X137256160Y-81407317D01*
X137280021Y-81365989D01*
X137300500Y-81289562D01*
X137300500Y-81289556D01*
X137301347Y-81283129D01*
X137302824Y-81283323D01*
X137319407Y-81232288D01*
X137329496Y-81220475D01*
X137970475Y-80579496D01*
X138024992Y-80551719D01*
X138040479Y-80550500D01*
X138054308Y-80550500D01*
X138112499Y-80569407D01*
X138148463Y-80618907D01*
X138150531Y-80628932D01*
X138151069Y-80628815D01*
X138152355Y-80634703D01*
X138197207Y-80762883D01*
X138277845Y-80872144D01*
X138277847Y-80872146D01*
X138277850Y-80872150D01*
X138277853Y-80872152D01*
X138277855Y-80872154D01*
X138387116Y-80952792D01*
X138387117Y-80952792D01*
X138387118Y-80952793D01*
X138515301Y-80997646D01*
X138545725Y-81000499D01*
X138545727Y-81000500D01*
X139091817Y-81000500D01*
X139150008Y-81019407D01*
X139185972Y-81068907D01*
X139185972Y-81130093D01*
X139177553Y-81149001D01*
X139158609Y-81181811D01*
X139158608Y-81181813D01*
X139158608Y-81181814D01*
X139124500Y-81309108D01*
X139124500Y-81440892D01*
X139156176Y-81559108D01*
X139158609Y-81568189D01*
X139177553Y-81601001D01*
X139190274Y-81660849D01*
X139165387Y-81716744D01*
X139112399Y-81747337D01*
X139091816Y-81749500D01*
X138941740Y-81749500D01*
X138907673Y-81754463D01*
X138873604Y-81759427D01*
X138768518Y-81810801D01*
X138685801Y-81893518D01*
X138634427Y-81998604D01*
X138632834Y-82009539D01*
X138624500Y-82066740D01*
X138624500Y-82433260D01*
X138630509Y-82474500D01*
X138634427Y-82501395D01*
X138672609Y-82579496D01*
X138685802Y-82606483D01*
X138757171Y-82677852D01*
X138784947Y-82732367D01*
X138775376Y-82792799D01*
X138757170Y-82817857D01*
X138315489Y-83259539D01*
X138259539Y-83315489D01*
X138219980Y-83384007D01*
X138219978Y-83384011D01*
X138197820Y-83466706D01*
X138195601Y-83466111D01*
X138173607Y-83512212D01*
X138119833Y-83541401D01*
X138059172Y-83533408D01*
X138027898Y-83507594D01*
X138027396Y-83508097D01*
X138022152Y-83502853D01*
X138022150Y-83502850D01*
X138022146Y-83502847D01*
X138022144Y-83502845D01*
X137912883Y-83422207D01*
X137784703Y-83377355D01*
X137784695Y-83377353D01*
X137779310Y-83376848D01*
X137723140Y-83352586D01*
X137692934Y-83303905D01*
X137678320Y-83249367D01*
X137678318Y-83249364D01*
X137678318Y-83249361D01*
X137653945Y-83207147D01*
X137653944Y-83207144D01*
X137635469Y-83175143D01*
X137635466Y-83175140D01*
X137635465Y-83175138D01*
X137604267Y-83143940D01*
X137576492Y-83089426D01*
X137576119Y-83086857D01*
X137575500Y-83082159D01*
X137575500Y-83082147D01*
X137553318Y-82999362D01*
X137510465Y-82925138D01*
X137484058Y-82898731D01*
X137449863Y-82864535D01*
X137199862Y-82614535D01*
X137199857Y-82614531D01*
X137125642Y-82571683D01*
X137125644Y-82571683D01*
X137093521Y-82563076D01*
X137042853Y-82549500D01*
X137042851Y-82549500D01*
X136923932Y-82549500D01*
X136923916Y-82549499D01*
X136917853Y-82549499D01*
X136832147Y-82549499D01*
X136795642Y-82559280D01*
X136734540Y-82556077D01*
X136720528Y-82549394D01*
X136693186Y-82533608D01*
X136565892Y-82499500D01*
X136434108Y-82499500D01*
X136361538Y-82518945D01*
X136306809Y-82533609D01*
X136192690Y-82599496D01*
X136099496Y-82692690D01*
X136033609Y-82806809D01*
X136020891Y-82854274D01*
X135999500Y-82934108D01*
X135999500Y-83065892D01*
X136019558Y-83140751D01*
X136033609Y-83193190D01*
X136099496Y-83307309D01*
X136099498Y-83307311D01*
X136099500Y-83307314D01*
X136192686Y-83400500D01*
X136192688Y-83400501D01*
X136192690Y-83400503D01*
X136306810Y-83466390D01*
X136306811Y-83466390D01*
X136306814Y-83466392D01*
X136333546Y-83473554D01*
X136384860Y-83506878D01*
X136406787Y-83563999D01*
X136397867Y-83604489D01*
X136399657Y-83605116D01*
X136352355Y-83740296D01*
X136352353Y-83740305D01*
X136349500Y-83770725D01*
X136349500Y-84100500D01*
X136330593Y-84158691D01*
X136281093Y-84194655D01*
X136250500Y-84199500D01*
X135997801Y-84199500D01*
X135939610Y-84180593D01*
X135928317Y-84170948D01*
X135928080Y-84170786D01*
X135928079Y-84170785D01*
X135829580Y-84127293D01*
X135829577Y-84127292D01*
X135829576Y-84127292D01*
X135805508Y-84124500D01*
X134394499Y-84124500D01*
X134394496Y-84124501D01*
X134370418Y-84127293D01*
X134271922Y-84170784D01*
X134271921Y-84170785D01*
X134195785Y-84246921D01*
X134152741Y-84344407D01*
X134152292Y-84345423D01*
X134149500Y-84369488D01*
X134149500Y-84630500D01*
X134149501Y-84630503D01*
X134152293Y-84654581D01*
X134176768Y-84710013D01*
X134182976Y-84770883D01*
X134176768Y-84789986D01*
X134152294Y-84845416D01*
X134152292Y-84845423D01*
X134149500Y-84869488D01*
X134149500Y-85130500D01*
X134149501Y-85130503D01*
X134152293Y-85154581D01*
X134176768Y-85210013D01*
X134182976Y-85270883D01*
X134176768Y-85289986D01*
X134152294Y-85345416D01*
X134152292Y-85345423D01*
X134149500Y-85369488D01*
X134149500Y-85630500D01*
X134149501Y-85630503D01*
X134152293Y-85654581D01*
X134193066Y-85746921D01*
X134195785Y-85753079D01*
X134271921Y-85829215D01*
X134370420Y-85872707D01*
X134394495Y-85875500D01*
X135805504Y-85875499D01*
X135829580Y-85872707D01*
X135928079Y-85829215D01*
X135928081Y-85829212D01*
X135935648Y-85824030D01*
X135936392Y-85825116D01*
X135982314Y-85801719D01*
X135997801Y-85800500D01*
X136250500Y-85800500D01*
X136308691Y-85819407D01*
X136344655Y-85868907D01*
X136349500Y-85899500D01*
X136349500Y-86100500D01*
X136330593Y-86158691D01*
X136281093Y-86194655D01*
X136250500Y-86199500D01*
X135997801Y-86199500D01*
X135939610Y-86180593D01*
X135928317Y-86170948D01*
X135928080Y-86170786D01*
X135928079Y-86170785D01*
X135829580Y-86127293D01*
X135829577Y-86127292D01*
X135829576Y-86127292D01*
X135805508Y-86124500D01*
X134394499Y-86124500D01*
X134394496Y-86124501D01*
X134370418Y-86127293D01*
X134271922Y-86170784D01*
X134271921Y-86170785D01*
X134195785Y-86246921D01*
X134156224Y-86336519D01*
X134152292Y-86345423D01*
X134149500Y-86369488D01*
X134149500Y-86630500D01*
X134149501Y-86630503D01*
X134152293Y-86654582D01*
X134195815Y-86753149D01*
X134202024Y-86814018D01*
X134171268Y-86866912D01*
X134130874Y-86888764D01*
X134056812Y-86908608D01*
X133981076Y-86952335D01*
X133921227Y-86965056D01*
X133865332Y-86940169D01*
X133861572Y-86936601D01*
X133809511Y-86884539D01*
X133809511Y-86884540D01*
X133704496Y-86779525D01*
X133676719Y-86725008D01*
X133675500Y-86709521D01*
X133675500Y-86460439D01*
X133675500Y-86460438D01*
X133655022Y-86384012D01*
X133655020Y-86384009D01*
X133655020Y-86384007D01*
X133615463Y-86315493D01*
X133615459Y-86315488D01*
X133204496Y-85904524D01*
X133176719Y-85850008D01*
X133175500Y-85834521D01*
X133175500Y-84908761D01*
X133194407Y-84850570D01*
X133225000Y-84823025D01*
X133307309Y-84775503D01*
X133307309Y-84775502D01*
X133307314Y-84775500D01*
X133400500Y-84682314D01*
X133408613Y-84668262D01*
X133466390Y-84568190D01*
X133466390Y-84568188D01*
X133466392Y-84568186D01*
X133500500Y-84440892D01*
X133500500Y-84309108D01*
X133466392Y-84181814D01*
X133466390Y-84181810D01*
X133466390Y-84181809D01*
X133400503Y-84067690D01*
X133400501Y-84067688D01*
X133400500Y-84067686D01*
X133307314Y-83974500D01*
X133307311Y-83974498D01*
X133307309Y-83974496D01*
X133193189Y-83908609D01*
X133193191Y-83908609D01*
X133143799Y-83895375D01*
X133065892Y-83874500D01*
X132934108Y-83874500D01*
X132891641Y-83885879D01*
X132806812Y-83908608D01*
X132720935Y-83958190D01*
X132661086Y-83970911D01*
X132605191Y-83946024D01*
X132585699Y-83921954D01*
X132559685Y-83876897D01*
X132546964Y-83817050D01*
X132571850Y-83761155D01*
X132575400Y-83757413D01*
X132650500Y-83682314D01*
X132654184Y-83675934D01*
X132716390Y-83568190D01*
X132716390Y-83568188D01*
X132716392Y-83568186D01*
X132748360Y-83448875D01*
X132781684Y-83397563D01*
X132838806Y-83375636D01*
X132843987Y-83375500D01*
X132940890Y-83375500D01*
X132940892Y-83375500D01*
X133068186Y-83341392D01*
X133068188Y-83341390D01*
X133068190Y-83341390D01*
X133182309Y-83275503D01*
X133182309Y-83275502D01*
X133182314Y-83275500D01*
X133275500Y-83182314D01*
X133289187Y-83158608D01*
X133341390Y-83068190D01*
X133341390Y-83068188D01*
X133341392Y-83068186D01*
X133375500Y-82940892D01*
X133375500Y-82818647D01*
X133388763Y-82769147D01*
X133405021Y-82740989D01*
X133425500Y-82664562D01*
X133425500Y-82210438D01*
X133405021Y-82134011D01*
X133394615Y-82115988D01*
X133365460Y-82065489D01*
X133309511Y-82009539D01*
X133309511Y-82009540D01*
X133079496Y-81779525D01*
X133051719Y-81725008D01*
X133050500Y-81709521D01*
X133050500Y-81448321D01*
X133069407Y-81390130D01*
X133079490Y-81378323D01*
X133150500Y-81307314D01*
X133155937Y-81297897D01*
X133216390Y-81193190D01*
X133216390Y-81193188D01*
X133216392Y-81193186D01*
X133250500Y-81065892D01*
X133250500Y-80934108D01*
X133216392Y-80806814D01*
X133216390Y-80806811D01*
X133216390Y-80806809D01*
X133150503Y-80692690D01*
X133150501Y-80692688D01*
X133150500Y-80692686D01*
X133057314Y-80599500D01*
X133057311Y-80599498D01*
X133057309Y-80599496D01*
X132943189Y-80533609D01*
X132943191Y-80533609D01*
X132880550Y-80516825D01*
X132815892Y-80499500D01*
X132684108Y-80499500D01*
X132619450Y-80516825D01*
X132556809Y-80533609D01*
X132442690Y-80599496D01*
X132349498Y-80692688D01*
X132335736Y-80716525D01*
X132290266Y-80757465D01*
X132229416Y-80763860D01*
X132176428Y-80733267D01*
X132164264Y-80716525D01*
X132150501Y-80692688D01*
X132150500Y-80692686D01*
X132057314Y-80599500D01*
X132057311Y-80599498D01*
X132057309Y-80599496D01*
X131943189Y-80533609D01*
X131943191Y-80533609D01*
X131880550Y-80516825D01*
X131815892Y-80499500D01*
X131684108Y-80499500D01*
X131556814Y-80533608D01*
X131556812Y-80533608D01*
X131550546Y-80535288D01*
X131549746Y-80532302D01*
X131501348Y-80536091D01*
X131449192Y-80504099D01*
X131425802Y-80447561D01*
X131425500Y-80439836D01*
X131425500Y-80165477D01*
X131444407Y-80107286D01*
X131454484Y-80095486D01*
X131798410Y-79751559D01*
X131852925Y-79723784D01*
X131913357Y-79733355D01*
X131954148Y-79772065D01*
X131974496Y-79807309D01*
X131974498Y-79807311D01*
X131974500Y-79807314D01*
X132067686Y-79900500D01*
X132067688Y-79900501D01*
X132067690Y-79900503D01*
X132181810Y-79966390D01*
X132181808Y-79966390D01*
X132181812Y-79966391D01*
X132181814Y-79966392D01*
X132309108Y-80000500D01*
X132309110Y-80000500D01*
X132440890Y-80000500D01*
X132440892Y-80000500D01*
X132568186Y-79966392D01*
X132568188Y-79966390D01*
X132568190Y-79966390D01*
X132682309Y-79900503D01*
X132682309Y-79900502D01*
X132682314Y-79900500D01*
X132753319Y-79829494D01*
X132807834Y-79801719D01*
X132823321Y-79800500D01*
X133039563Y-79800500D01*
X133039563Y-79800499D01*
X133115989Y-79780021D01*
X133184511Y-79740460D01*
X133236574Y-79688396D01*
X133291088Y-79660620D01*
X133351520Y-79670191D01*
X133356076Y-79672665D01*
X133431810Y-79716390D01*
X133431808Y-79716390D01*
X133431812Y-79716391D01*
X133431814Y-79716392D01*
X133559108Y-79750500D01*
X133559110Y-79750500D01*
X133690890Y-79750500D01*
X133690892Y-79750500D01*
X133818186Y-79716392D01*
X133818188Y-79716390D01*
X133818190Y-79716390D01*
X133932309Y-79650503D01*
X133932309Y-79650502D01*
X133932314Y-79650500D01*
X134025500Y-79557314D01*
X134044953Y-79523620D01*
X134091390Y-79443190D01*
X134091390Y-79443188D01*
X134091392Y-79443186D01*
X134125500Y-79315892D01*
X134125500Y-79274500D01*
X134144407Y-79216309D01*
X134193907Y-79180345D01*
X134224500Y-79175500D01*
X135414563Y-79175500D01*
X135414563Y-79175499D01*
X135490989Y-79155021D01*
X135559511Y-79115460D01*
X135615460Y-79059511D01*
X135655021Y-78990989D01*
X135675500Y-78914562D01*
X135675500Y-78372197D01*
X135694407Y-78314006D01*
X135743907Y-78278042D01*
X135805093Y-78278042D01*
X135842881Y-78304755D01*
X135844912Y-78302725D01*
X135849498Y-78307311D01*
X135849500Y-78307314D01*
X135942686Y-78400500D01*
X135942688Y-78400501D01*
X135942690Y-78400503D01*
X136056810Y-78466390D01*
X136056808Y-78466390D01*
X136056812Y-78466391D01*
X136056814Y-78466392D01*
X136184108Y-78500500D01*
X136184110Y-78500500D01*
X136261395Y-78500500D01*
X136319586Y-78519407D01*
X136354839Y-78566802D01*
X136397207Y-78687883D01*
X136477845Y-78797144D01*
X136477847Y-78797146D01*
X136477850Y-78797150D01*
X136477853Y-78797152D01*
X136477855Y-78797154D01*
X136587116Y-78877792D01*
X136587117Y-78877792D01*
X136587118Y-78877793D01*
X136715301Y-78922646D01*
X136745725Y-78925499D01*
X136745727Y-78925500D01*
X136745734Y-78925500D01*
X137354273Y-78925500D01*
X137354273Y-78925499D01*
X137384699Y-78922646D01*
X137512882Y-78877793D01*
X137622150Y-78797150D01*
X137702793Y-78687882D01*
X137747646Y-78559699D01*
X137750499Y-78529273D01*
X137750500Y-78529273D01*
X137750500Y-77470727D01*
X137750499Y-77470725D01*
X137749930Y-77464653D01*
X137747646Y-77440301D01*
X137702793Y-77312118D01*
X137702792Y-77312117D01*
X137701071Y-77307197D01*
X137699699Y-77246027D01*
X137734543Y-77195733D01*
X137792295Y-77175525D01*
X137794516Y-77175500D01*
X138664563Y-77175500D01*
X138664563Y-77175499D01*
X138740989Y-77155021D01*
X138809511Y-77115460D01*
X138865460Y-77059511D01*
X138970475Y-76954496D01*
X139024992Y-76926719D01*
X139040479Y-76925500D01*
X139459521Y-76925500D01*
X139517712Y-76944407D01*
G37*
%TD.AperFunction*%
%TA.AperFunction,Conductor*%
G36*
X129796682Y-84004687D02*
G01*
X129800422Y-84008236D01*
X129817686Y-84025500D01*
X129817688Y-84025501D01*
X129817690Y-84025503D01*
X129931810Y-84091390D01*
X129931808Y-84091390D01*
X129931812Y-84091391D01*
X129931814Y-84091392D01*
X130059108Y-84125500D01*
X130124165Y-84125500D01*
X130182356Y-84144407D01*
X130194168Y-84154496D01*
X130300137Y-84260464D01*
X130300142Y-84260468D01*
X130374357Y-84303316D01*
X130374355Y-84303316D01*
X130374359Y-84303317D01*
X130374361Y-84303318D01*
X130457147Y-84325500D01*
X131605673Y-84325500D01*
X131663864Y-84344407D01*
X131691409Y-84374999D01*
X131710782Y-84408554D01*
X131724500Y-84432314D01*
X131817686Y-84525500D01*
X131817688Y-84525501D01*
X131817690Y-84525503D01*
X131931810Y-84591390D01*
X131931808Y-84591390D01*
X131931812Y-84591391D01*
X131931814Y-84591392D01*
X132059108Y-84625500D01*
X132059110Y-84625500D01*
X132190890Y-84625500D01*
X132190892Y-84625500D01*
X132318186Y-84591392D01*
X132404065Y-84541809D01*
X132463911Y-84529088D01*
X132519807Y-84553974D01*
X132539300Y-84578045D01*
X132547005Y-84591390D01*
X132558942Y-84612066D01*
X132561236Y-84616038D01*
X132574500Y-84665539D01*
X132574500Y-85709521D01*
X132555593Y-85767712D01*
X132545504Y-85779525D01*
X132279525Y-86045504D01*
X132225008Y-86073281D01*
X132209521Y-86074500D01*
X132164562Y-86074500D01*
X132085438Y-86074500D01*
X132049621Y-86084096D01*
X132009006Y-86094979D01*
X132009006Y-86094980D01*
X131998994Y-86100760D01*
X131939145Y-86113478D01*
X131883251Y-86088589D01*
X131852661Y-86035599D01*
X131850499Y-86015026D01*
X131850499Y-85869496D01*
X131847707Y-85845420D01*
X131847512Y-85844979D01*
X131830121Y-85805593D01*
X131823230Y-85789988D01*
X131817022Y-85729119D01*
X131823227Y-85710018D01*
X131847707Y-85654580D01*
X131850500Y-85630505D01*
X131850499Y-85369496D01*
X131847707Y-85345420D01*
X131804215Y-85246921D01*
X131728079Y-85170785D01*
X131629580Y-85127293D01*
X131629577Y-85127292D01*
X131629576Y-85127292D01*
X131605508Y-85124500D01*
X130194499Y-85124500D01*
X130194496Y-85124501D01*
X130170418Y-85127293D01*
X130071922Y-85170784D01*
X130071921Y-85170785D01*
X129995785Y-85246921D01*
X129954073Y-85341390D01*
X129952292Y-85345423D01*
X129949500Y-85369488D01*
X129949500Y-85385117D01*
X129930593Y-85443308D01*
X129881093Y-85479272D01*
X129819907Y-85479272D01*
X129801000Y-85470854D01*
X129693187Y-85408608D01*
X129650754Y-85397238D01*
X129565892Y-85374500D01*
X129434108Y-85374500D01*
X129356200Y-85395375D01*
X129306809Y-85408609D01*
X129192690Y-85474496D01*
X129099496Y-85567690D01*
X129033609Y-85681809D01*
X129026184Y-85709521D01*
X129001807Y-85800500D01*
X128999500Y-85809109D01*
X128999500Y-85940894D01*
X129000213Y-85943554D01*
X129000109Y-85945522D01*
X129000347Y-85947324D01*
X129000013Y-85947367D01*
X128997010Y-86004656D01*
X128958503Y-86052205D01*
X128899402Y-86068039D01*
X128855087Y-86054912D01*
X128818189Y-86033609D01*
X128818186Y-86033608D01*
X128690892Y-85999500D01*
X128590479Y-85999500D01*
X128532288Y-85980593D01*
X128520475Y-85970504D01*
X127919475Y-85369504D01*
X127891698Y-85314987D01*
X127901269Y-85254555D01*
X127944534Y-85211290D01*
X127989479Y-85200500D01*
X128326678Y-85200500D01*
X128384869Y-85219407D01*
X128396681Y-85229496D01*
X128442684Y-85275499D01*
X128442690Y-85275503D01*
X128556810Y-85341390D01*
X128556808Y-85341390D01*
X128556812Y-85341391D01*
X128556814Y-85341392D01*
X128684108Y-85375500D01*
X128684110Y-85375500D01*
X128815890Y-85375500D01*
X128815892Y-85375500D01*
X128943186Y-85341392D01*
X128943188Y-85341390D01*
X128943190Y-85341390D01*
X129057309Y-85275503D01*
X129057309Y-85275502D01*
X129057314Y-85275500D01*
X129150500Y-85182314D01*
X129154408Y-85175546D01*
X129216390Y-85068190D01*
X129216390Y-85068188D01*
X129216392Y-85068186D01*
X129250500Y-84940892D01*
X129250500Y-84809108D01*
X129216392Y-84681814D01*
X129216390Y-84681811D01*
X129216390Y-84681809D01*
X129150503Y-84567690D01*
X129150501Y-84567688D01*
X129150500Y-84567686D01*
X129136393Y-84553579D01*
X129108618Y-84499065D01*
X129118189Y-84438633D01*
X129136393Y-84413577D01*
X129384493Y-84165478D01*
X129470476Y-84079496D01*
X129524992Y-84051719D01*
X129538199Y-84050679D01*
X129539556Y-84050500D01*
X129539562Y-84050500D01*
X129615989Y-84030021D01*
X129680938Y-83992523D01*
X129740786Y-83979801D01*
X129796682Y-84004687D01*
G37*
%TD.AperFunction*%
%TA.AperFunction,Conductor*%
G36*
X114458214Y-84444407D02*
G01*
X114470026Y-84454496D01*
X114519595Y-84504064D01*
X114519596Y-84504065D01*
X114532915Y-84510276D01*
X114577663Y-84552005D01*
X114589337Y-84612066D01*
X114563478Y-84667518D01*
X114532915Y-84689724D01*
X114519598Y-84695933D01*
X114435933Y-84779598D01*
X114385932Y-84886824D01*
X114385932Y-84886825D01*
X114385932Y-84886827D01*
X114379500Y-84935684D01*
X114379500Y-85284316D01*
X114382462Y-85306814D01*
X114385932Y-85333174D01*
X114385932Y-85333175D01*
X114435933Y-85440401D01*
X114435934Y-85440402D01*
X114435935Y-85440404D01*
X114519596Y-85524065D01*
X114519597Y-85524065D01*
X114519598Y-85524066D01*
X114626824Y-85574067D01*
X114626825Y-85574067D01*
X114626827Y-85574068D01*
X114675684Y-85580500D01*
X114755522Y-85580500D01*
X114813713Y-85599407D01*
X114849677Y-85648907D01*
X114849677Y-85710093D01*
X114825525Y-85749504D01*
X114529524Y-86045504D01*
X114475008Y-86073281D01*
X114459521Y-86074500D01*
X114415479Y-86074500D01*
X114357288Y-86055593D01*
X114345476Y-86045504D01*
X114309510Y-86009539D01*
X114292121Y-85999499D01*
X114292121Y-85999500D01*
X114240989Y-85969979D01*
X114240988Y-85969978D01*
X114240987Y-85969978D01*
X114164564Y-85949500D01*
X114158129Y-85948653D01*
X114158323Y-85947175D01*
X114107288Y-85930593D01*
X114095476Y-85920504D01*
X114059510Y-85884539D01*
X114059508Y-85884538D01*
X114043853Y-85875500D01*
X114043853Y-85875499D01*
X114043849Y-85875498D01*
X114010335Y-85856149D01*
X113990988Y-85844978D01*
X113914564Y-85824500D01*
X113914562Y-85824500D01*
X113359500Y-85824500D01*
X113301309Y-85805593D01*
X113265345Y-85756093D01*
X113260500Y-85725500D01*
X113260500Y-85455478D01*
X113279407Y-85397287D01*
X113289490Y-85385480D01*
X113365460Y-85309511D01*
X113367012Y-85306821D01*
X113367019Y-85306815D01*
X113367017Y-85306814D01*
X113405021Y-85240989D01*
X113425500Y-85164562D01*
X113425500Y-84665479D01*
X113444407Y-84607288D01*
X113454496Y-84595475D01*
X113470475Y-84579496D01*
X113524992Y-84551719D01*
X113540479Y-84550500D01*
X113914563Y-84550500D01*
X113914563Y-84550499D01*
X113990989Y-84530021D01*
X114059511Y-84490460D01*
X114086387Y-84463584D01*
X114095476Y-84454496D01*
X114149993Y-84426719D01*
X114165479Y-84425500D01*
X114400023Y-84425500D01*
X114458214Y-84444407D01*
G37*
%TD.AperFunction*%
%TA.AperFunction,Conductor*%
G36*
X114388223Y-82797529D02*
G01*
X114422217Y-82848402D01*
X114419815Y-82909540D01*
X114412674Y-82924770D01*
X114408609Y-82931810D01*
X114408425Y-82932498D01*
X114374500Y-83059108D01*
X114374500Y-83190892D01*
X114397171Y-83275503D01*
X114408609Y-83318190D01*
X114474496Y-83432309D01*
X114474498Y-83432311D01*
X114474500Y-83432314D01*
X114555013Y-83512827D01*
X114582789Y-83567342D01*
X114573218Y-83627774D01*
X114529953Y-83671039D01*
X114526849Y-83672553D01*
X114519597Y-83675934D01*
X114519596Y-83675935D01*
X114435935Y-83759596D01*
X114432323Y-83767340D01*
X114390597Y-83812087D01*
X114342600Y-83824500D01*
X114039562Y-83824500D01*
X113960438Y-83824500D01*
X113913661Y-83837033D01*
X113884007Y-83844979D01*
X113815493Y-83884536D01*
X113815487Y-83884541D01*
X113779524Y-83920504D01*
X113725007Y-83948281D01*
X113709521Y-83949500D01*
X113335435Y-83949500D01*
X113259011Y-83969978D01*
X113208122Y-83999360D01*
X113208118Y-83999362D01*
X113190491Y-84009538D01*
X113190489Y-84009539D01*
X113075787Y-84124241D01*
X113021271Y-84152018D01*
X112960839Y-84142446D01*
X112935783Y-84124243D01*
X112868316Y-84056776D01*
X112868314Y-84056775D01*
X112868313Y-84056774D01*
X112759489Y-84006029D01*
X112759488Y-84006028D01*
X112734694Y-84002764D01*
X112709901Y-83999500D01*
X112709900Y-83999500D01*
X112340479Y-83999500D01*
X112282288Y-83980593D01*
X112270476Y-83970504D01*
X112184511Y-83884540D01*
X112153831Y-83866826D01*
X112153831Y-83866827D01*
X112115989Y-83844979D01*
X112115988Y-83844978D01*
X112115987Y-83844978D01*
X112039564Y-83824500D01*
X112039562Y-83824500D01*
X111665479Y-83824500D01*
X111607288Y-83805593D01*
X111595475Y-83795504D01*
X111579496Y-83779525D01*
X111551719Y-83725008D01*
X111550500Y-83709521D01*
X111550500Y-83290479D01*
X111569407Y-83232288D01*
X111579496Y-83220475D01*
X111970475Y-82829496D01*
X112024992Y-82801719D01*
X112038199Y-82800679D01*
X112039562Y-82800500D01*
X112103146Y-82783462D01*
X112164247Y-82786663D01*
X112183771Y-82796772D01*
X112246769Y-82838867D01*
X112279985Y-82845474D01*
X112305241Y-82850498D01*
X112305246Y-82850498D01*
X112305252Y-82850500D01*
X112305253Y-82850500D01*
X114144747Y-82850500D01*
X114144748Y-82850500D01*
X114203231Y-82838867D01*
X114269552Y-82794552D01*
X114269553Y-82794549D01*
X114271931Y-82792961D01*
X114330819Y-82776352D01*
X114388223Y-82797529D01*
G37*
%TD.AperFunction*%
%TA.AperFunction,Conductor*%
G36*
X119259666Y-78059828D02*
G01*
X119263407Y-78063378D01*
X120295505Y-79095476D01*
X120323281Y-79149991D01*
X120324500Y-79165478D01*
X120324500Y-80039564D01*
X120344978Y-80115988D01*
X120344979Y-80115989D01*
X120376017Y-80169748D01*
X120384540Y-80184511D01*
X120595505Y-80395476D01*
X120623281Y-80449991D01*
X120624500Y-80465478D01*
X120624500Y-80565892D01*
X120653702Y-80674879D01*
X120650500Y-80735978D01*
X120611995Y-80783528D01*
X120558076Y-80799500D01*
X118917853Y-80799500D01*
X118832147Y-80799500D01*
X118781478Y-80813076D01*
X118749356Y-80821683D01*
X118675142Y-80864531D01*
X118675137Y-80864535D01*
X118194168Y-81345504D01*
X118139652Y-81373281D01*
X118124165Y-81374500D01*
X118059108Y-81374500D01*
X117931814Y-81408608D01*
X117931812Y-81408608D01*
X117925546Y-81410288D01*
X117924749Y-81407317D01*
X117876266Y-81411071D01*
X117824138Y-81379036D01*
X117800794Y-81322479D01*
X117800499Y-81314857D01*
X117800499Y-81147868D01*
X117800128Y-81146005D01*
X117786105Y-81075500D01*
X117784515Y-81067505D01*
X117776159Y-81054999D01*
X117759551Y-80996114D01*
X117776159Y-80944999D01*
X117784515Y-80932495D01*
X117800500Y-80852133D01*
X117800499Y-80647868D01*
X117796709Y-80628815D01*
X117784515Y-80567506D01*
X117784515Y-80567505D01*
X117776159Y-80555000D01*
X117759551Y-80496114D01*
X117776159Y-80444999D01*
X117784515Y-80432495D01*
X117800500Y-80352133D01*
X117800499Y-80147868D01*
X117795983Y-80125165D01*
X117784515Y-80067505D01*
X117784514Y-80067503D01*
X117723626Y-79976379D01*
X117723624Y-79976376D01*
X117723620Y-79976373D01*
X117632497Y-79915486D01*
X117632496Y-79915485D01*
X117632495Y-79915485D01*
X117552133Y-79899500D01*
X117552132Y-79899500D01*
X116097870Y-79899500D01*
X116097863Y-79899501D01*
X116017505Y-79915484D01*
X116017503Y-79915485D01*
X115926379Y-79976373D01*
X115926373Y-79976379D01*
X115865486Y-80067501D01*
X115865486Y-80067503D01*
X115865485Y-80067505D01*
X115855841Y-80115988D01*
X115849500Y-80147867D01*
X115849500Y-80202382D01*
X115830593Y-80260573D01*
X115781093Y-80296537D01*
X115719907Y-80296537D01*
X115701003Y-80288120D01*
X115693189Y-80283609D01*
X115693191Y-80283609D01*
X115643799Y-80270375D01*
X115565892Y-80249500D01*
X115434108Y-80249500D01*
X115356200Y-80270375D01*
X115306809Y-80283609D01*
X115192690Y-80349496D01*
X115099496Y-80442690D01*
X115033609Y-80556809D01*
X115022170Y-80599500D01*
X114999500Y-80684108D01*
X114999500Y-80815892D01*
X115025350Y-80912365D01*
X115033609Y-80943190D01*
X115099496Y-81057309D01*
X115099498Y-81057311D01*
X115099500Y-81057314D01*
X115170505Y-81128319D01*
X115198281Y-81182834D01*
X115199500Y-81198321D01*
X115199500Y-81289564D01*
X115219978Y-81365988D01*
X115219980Y-81365992D01*
X115246007Y-81411071D01*
X115259540Y-81434511D01*
X115315489Y-81490460D01*
X115338329Y-81503647D01*
X115384007Y-81530019D01*
X115384009Y-81530020D01*
X115384011Y-81530021D01*
X115460435Y-81550499D01*
X115460437Y-81550500D01*
X115460438Y-81550500D01*
X115750500Y-81550500D01*
X115808691Y-81569407D01*
X115844655Y-81618907D01*
X115849500Y-81649500D01*
X115849500Y-81852129D01*
X115849501Y-81852137D01*
X115865484Y-81932494D01*
X115865486Y-81932498D01*
X115873840Y-81945001D01*
X115890447Y-82003889D01*
X115873840Y-82054999D01*
X115865485Y-82067503D01*
X115865484Y-82067504D01*
X115849500Y-82147864D01*
X115849500Y-82352129D01*
X115849501Y-82352137D01*
X115865484Y-82432494D01*
X115865486Y-82432498D01*
X115873840Y-82445001D01*
X115890447Y-82503889D01*
X115873840Y-82554999D01*
X115865485Y-82567503D01*
X115865484Y-82567504D01*
X115849500Y-82647864D01*
X115849500Y-82852129D01*
X115849501Y-82852137D01*
X115865484Y-82932494D01*
X115865486Y-82932498D01*
X115873840Y-82945001D01*
X115890447Y-83003889D01*
X115873840Y-83054999D01*
X115865485Y-83067503D01*
X115865484Y-83067504D01*
X115849500Y-83147864D01*
X115849500Y-83147867D01*
X115849500Y-83249471D01*
X115849501Y-83350500D01*
X115830594Y-83408690D01*
X115781094Y-83444654D01*
X115750501Y-83449500D01*
X115435164Y-83449500D01*
X115376973Y-83430593D01*
X115341009Y-83381093D01*
X115341009Y-83324801D01*
X115339712Y-83324454D01*
X115341391Y-83318187D01*
X115341392Y-83318186D01*
X115375500Y-83190892D01*
X115375500Y-83059108D01*
X115341392Y-82931814D01*
X115341391Y-82931812D01*
X115341390Y-82931808D01*
X115338908Y-82925816D01*
X115340466Y-82925170D01*
X115329441Y-82873301D01*
X115350165Y-82826752D01*
X115348254Y-82825414D01*
X115353221Y-82818318D01*
X115353224Y-82818316D01*
X115403972Y-82709487D01*
X115410500Y-82659901D01*
X115410499Y-82300100D01*
X115403972Y-82250513D01*
X115403972Y-82250511D01*
X115353225Y-82141686D01*
X115353224Y-82141685D01*
X115353224Y-82141684D01*
X115268316Y-82056776D01*
X115268314Y-82056775D01*
X115268313Y-82056774D01*
X115159489Y-82006029D01*
X115159488Y-82006028D01*
X115142958Y-82003852D01*
X115109901Y-81999500D01*
X115109899Y-81999500D01*
X114690103Y-81999500D01*
X114690092Y-81999501D01*
X114640513Y-82006027D01*
X114640511Y-82006027D01*
X114531686Y-82056774D01*
X114531684Y-82056775D01*
X114531684Y-82056776D01*
X114494501Y-82093958D01*
X114439987Y-82121734D01*
X114379555Y-82112163D01*
X114336290Y-82068898D01*
X114325500Y-82023953D01*
X114325500Y-81630253D01*
X114325498Y-81630241D01*
X114322663Y-81615988D01*
X114313867Y-81571769D01*
X114269552Y-81505448D01*
X114261399Y-81500000D01*
X114203233Y-81461134D01*
X114203231Y-81461133D01*
X114203228Y-81461132D01*
X114203227Y-81461132D01*
X114144758Y-81449501D01*
X114144748Y-81449500D01*
X114144747Y-81449500D01*
X113589478Y-81449500D01*
X113531287Y-81430593D01*
X113495323Y-81381093D01*
X113495323Y-81319907D01*
X113519474Y-81280497D01*
X113662505Y-81137465D01*
X113717022Y-81109687D01*
X113758131Y-81111841D01*
X113809108Y-81125500D01*
X113809109Y-81125500D01*
X113940890Y-81125500D01*
X113940892Y-81125500D01*
X114068186Y-81091392D01*
X114068188Y-81091390D01*
X114068190Y-81091390D01*
X114182309Y-81025503D01*
X114182309Y-81025502D01*
X114182314Y-81025500D01*
X114275500Y-80932314D01*
X114299130Y-80891386D01*
X114341390Y-80818190D01*
X114341390Y-80818188D01*
X114341392Y-80818186D01*
X114375500Y-80690892D01*
X114375500Y-80559108D01*
X114341392Y-80431814D01*
X114341390Y-80431811D01*
X114341390Y-80431809D01*
X114296359Y-80353814D01*
X114283637Y-80293966D01*
X114299779Y-80249314D01*
X114313867Y-80228231D01*
X114325500Y-80169748D01*
X114325500Y-80022321D01*
X114344407Y-79964130D01*
X114393907Y-79928166D01*
X114455093Y-79928166D01*
X114494501Y-79952315D01*
X114567686Y-80025500D01*
X114567688Y-80025501D01*
X114567690Y-80025503D01*
X114681810Y-80091390D01*
X114681808Y-80091390D01*
X114681812Y-80091391D01*
X114681814Y-80091392D01*
X114809108Y-80125500D01*
X114809110Y-80125500D01*
X114940890Y-80125500D01*
X114940892Y-80125500D01*
X115068186Y-80091392D01*
X115068188Y-80091390D01*
X115068190Y-80091390D01*
X115182309Y-80025503D01*
X115182309Y-80025502D01*
X115182314Y-80025500D01*
X115275500Y-79932314D01*
X115300061Y-79889774D01*
X115341390Y-79818190D01*
X115341390Y-79818188D01*
X115341392Y-79818186D01*
X115375500Y-79690892D01*
X115375500Y-79649500D01*
X115394407Y-79591309D01*
X115443907Y-79555345D01*
X115474500Y-79550500D01*
X115936567Y-79550500D01*
X115991568Y-79567184D01*
X116017505Y-79584515D01*
X116097867Y-79600500D01*
X117552132Y-79600499D01*
X117632495Y-79584515D01*
X117723624Y-79523624D01*
X117784515Y-79432495D01*
X117800500Y-79352133D01*
X117800499Y-79149499D01*
X117819406Y-79091310D01*
X117868906Y-79055346D01*
X117899499Y-79050500D01*
X117914563Y-79050500D01*
X117914563Y-79050499D01*
X117990989Y-79030021D01*
X118059511Y-78990460D01*
X118115460Y-78934511D01*
X118345475Y-78704496D01*
X118399992Y-78676719D01*
X118415479Y-78675500D01*
X118539563Y-78675500D01*
X118539563Y-78675499D01*
X118615989Y-78655021D01*
X118684511Y-78615460D01*
X118725471Y-78574500D01*
X118740461Y-78559511D01*
X118927774Y-78372197D01*
X118990460Y-78309511D01*
X119000077Y-78292853D01*
X119030021Y-78240989D01*
X119050500Y-78164562D01*
X119050500Y-78158761D01*
X119069407Y-78100570D01*
X119099998Y-78073025D01*
X119143924Y-78047664D01*
X119203770Y-78034943D01*
X119259666Y-78059828D01*
G37*
%TD.AperFunction*%
%TA.AperFunction,Conductor*%
G36*
X126017712Y-77444407D02*
G01*
X126029525Y-77454496D01*
X126345504Y-77770475D01*
X126373281Y-77824992D01*
X126374500Y-77840479D01*
X126374500Y-77940892D01*
X126401083Y-78040103D01*
X126408609Y-78068190D01*
X126474496Y-78182309D01*
X126474498Y-78182311D01*
X126474500Y-78182314D01*
X126567686Y-78275500D01*
X126567688Y-78275501D01*
X126567690Y-78275503D01*
X126681810Y-78341390D01*
X126681808Y-78341390D01*
X126681812Y-78341391D01*
X126681814Y-78341392D01*
X126809108Y-78375500D01*
X126809110Y-78375500D01*
X126835522Y-78375500D01*
X126893713Y-78394407D01*
X126929677Y-78443907D01*
X126929677Y-78505093D01*
X126905527Y-78544501D01*
X126894654Y-78555375D01*
X126884538Y-78565491D01*
X126844980Y-78634007D01*
X126844978Y-78634011D01*
X126824500Y-78710435D01*
X126824500Y-78834521D01*
X126805593Y-78892712D01*
X126795504Y-78904525D01*
X126779525Y-78920504D01*
X126725008Y-78948281D01*
X126709521Y-78949500D01*
X125948321Y-78949500D01*
X125890130Y-78930593D01*
X125878323Y-78920509D01*
X125807314Y-78849500D01*
X125807311Y-78849498D01*
X125807309Y-78849496D01*
X125693189Y-78783609D01*
X125693191Y-78783609D01*
X125626706Y-78765795D01*
X125565892Y-78749500D01*
X125434108Y-78749500D01*
X125373294Y-78765795D01*
X125306809Y-78783609D01*
X125192690Y-78849496D01*
X125099496Y-78942690D01*
X125033609Y-79056809D01*
X125022170Y-79099500D01*
X125000509Y-79180345D01*
X124999500Y-79184109D01*
X124999500Y-79315889D01*
X124999499Y-79315889D01*
X125033609Y-79443190D01*
X125099496Y-79557309D01*
X125099498Y-79557311D01*
X125099500Y-79557314D01*
X125192686Y-79650500D01*
X125192688Y-79650501D01*
X125192690Y-79650503D01*
X125306810Y-79716390D01*
X125306808Y-79716390D01*
X125306812Y-79716391D01*
X125306814Y-79716392D01*
X125434108Y-79750500D01*
X125434110Y-79750500D01*
X125565890Y-79750500D01*
X125565892Y-79750500D01*
X125693186Y-79716392D01*
X125693188Y-79716390D01*
X125693190Y-79716390D01*
X125807309Y-79650503D01*
X125807309Y-79650502D01*
X125807314Y-79650500D01*
X125878319Y-79579494D01*
X125932834Y-79551719D01*
X125948321Y-79550500D01*
X126914563Y-79550500D01*
X126914563Y-79550499D01*
X126990989Y-79530021D01*
X127059511Y-79490460D01*
X127059513Y-79490457D01*
X127063808Y-79487978D01*
X127123656Y-79475256D01*
X127179552Y-79500142D01*
X127210145Y-79553130D01*
X127210407Y-79593026D01*
X127199500Y-79647859D01*
X127199500Y-79852129D01*
X127199501Y-79852137D01*
X127215484Y-79932494D01*
X127215485Y-79932496D01*
X127261617Y-80001536D01*
X127276376Y-80023624D01*
X127367505Y-80084515D01*
X127447867Y-80100500D01*
X128902132Y-80100499D01*
X128982495Y-80084515D01*
X129073624Y-80023624D01*
X129134515Y-79932495D01*
X129150500Y-79852133D01*
X129150499Y-79647868D01*
X129149305Y-79641867D01*
X129139591Y-79593026D01*
X129134515Y-79567505D01*
X129126159Y-79555000D01*
X129109551Y-79496114D01*
X129126159Y-79444999D01*
X129134515Y-79432495D01*
X129150500Y-79352133D01*
X129150499Y-79149499D01*
X129169406Y-79091310D01*
X129218906Y-79055346D01*
X129249499Y-79050500D01*
X129539563Y-79050500D01*
X129539563Y-79050499D01*
X129615989Y-79030021D01*
X129684511Y-78990460D01*
X129740460Y-78934511D01*
X129740461Y-78934508D01*
X129742362Y-78932608D01*
X129796878Y-78904830D01*
X129842961Y-78908457D01*
X129849692Y-78910644D01*
X129849696Y-78910646D01*
X129943481Y-78925500D01*
X130406518Y-78925499D01*
X130406520Y-78925499D01*
X130406521Y-78925498D01*
X130475565Y-78914564D01*
X130500299Y-78910647D01*
X130500299Y-78910646D01*
X130500304Y-78910646D01*
X130613342Y-78853050D01*
X130703050Y-78763342D01*
X130760646Y-78650304D01*
X130770920Y-78585437D01*
X130771146Y-78584012D01*
X130798924Y-78529496D01*
X130853441Y-78501719D01*
X130868927Y-78500500D01*
X130940890Y-78500500D01*
X130940892Y-78500500D01*
X131068186Y-78466392D01*
X131075994Y-78461883D01*
X131135840Y-78449157D01*
X131191738Y-78474039D01*
X131222335Y-78527025D01*
X131224500Y-78547608D01*
X131224500Y-78556517D01*
X131224501Y-78556523D01*
X131239352Y-78650299D01*
X131239354Y-78650304D01*
X131296950Y-78763342D01*
X131386658Y-78853050D01*
X131487385Y-78904373D01*
X131530649Y-78947637D01*
X131540220Y-79008069D01*
X131512447Y-79062581D01*
X131509540Y-79065487D01*
X131469980Y-79134007D01*
X131469978Y-79134011D01*
X131449500Y-79210435D01*
X131448653Y-79216871D01*
X131447175Y-79216676D01*
X131430593Y-79267712D01*
X131420504Y-79279525D01*
X130940489Y-79759540D01*
X130940488Y-79759539D01*
X130884539Y-79815489D01*
X130844980Y-79884007D01*
X130844978Y-79884011D01*
X130824500Y-79960435D01*
X130824500Y-80401699D01*
X130805593Y-80459890D01*
X130756093Y-80495854D01*
X130712585Y-80499853D01*
X130709902Y-80499500D01*
X130290103Y-80499500D01*
X130290092Y-80499501D01*
X130240513Y-80506027D01*
X130240511Y-80506027D01*
X130131686Y-80556774D01*
X130046775Y-80641685D01*
X130033346Y-80670484D01*
X129991617Y-80715231D01*
X129931555Y-80726905D01*
X129876103Y-80701046D01*
X129873619Y-80698647D01*
X129684511Y-80509540D01*
X129678428Y-80506028D01*
X129667987Y-80500000D01*
X129615989Y-80469979D01*
X129615988Y-80469978D01*
X129615987Y-80469978D01*
X129539564Y-80449500D01*
X129539562Y-80449500D01*
X129063433Y-80449500D01*
X129008431Y-80432815D01*
X129006925Y-80431809D01*
X128998991Y-80426507D01*
X128982497Y-80415486D01*
X128982496Y-80415485D01*
X128982495Y-80415485D01*
X128902133Y-80399500D01*
X128902132Y-80399500D01*
X127447870Y-80399500D01*
X127447863Y-80399501D01*
X127367505Y-80415484D01*
X127367503Y-80415485D01*
X127276379Y-80476373D01*
X127276373Y-80476379D01*
X127215486Y-80567501D01*
X127215486Y-80567503D01*
X127215485Y-80567505D01*
X127202115Y-80634719D01*
X127199500Y-80647867D01*
X127199500Y-80852129D01*
X127199501Y-80852137D01*
X127215484Y-80932494D01*
X127215486Y-80932498D01*
X127223840Y-80945001D01*
X127240447Y-81003889D01*
X127223840Y-81054999D01*
X127215485Y-81067503D01*
X127215484Y-81067504D01*
X127199500Y-81147864D01*
X127199500Y-81352129D01*
X127199501Y-81352137D01*
X127215484Y-81432494D01*
X127215486Y-81432498D01*
X127223840Y-81445001D01*
X127240447Y-81503889D01*
X127223840Y-81554999D01*
X127215485Y-81567503D01*
X127215484Y-81567504D01*
X127199500Y-81647864D01*
X127199500Y-81689836D01*
X127180593Y-81748027D01*
X127131093Y-81783991D01*
X127074802Y-81783991D01*
X127074454Y-81785288D01*
X127068187Y-81783608D01*
X127068186Y-81783608D01*
X126940892Y-81749500D01*
X126840479Y-81749500D01*
X126782288Y-81730593D01*
X126770475Y-81720504D01*
X124404496Y-79354525D01*
X124376719Y-79300008D01*
X124375500Y-79284521D01*
X124375500Y-79184109D01*
X124374558Y-79180593D01*
X124341392Y-79056814D01*
X124341390Y-79056811D01*
X124341390Y-79056809D01*
X124275503Y-78942690D01*
X124275501Y-78942688D01*
X124275500Y-78942686D01*
X124182314Y-78849500D01*
X124182311Y-78849498D01*
X124182309Y-78849496D01*
X124068189Y-78783609D01*
X124068191Y-78783609D01*
X124001706Y-78765795D01*
X123940892Y-78749500D01*
X123809108Y-78749500D01*
X123748294Y-78765795D01*
X123681809Y-78783609D01*
X123567690Y-78849496D01*
X123474496Y-78942690D01*
X123408609Y-79056809D01*
X123397170Y-79099500D01*
X123375509Y-79180345D01*
X123374500Y-79184109D01*
X123374500Y-79315889D01*
X123374499Y-79315889D01*
X123408609Y-79443190D01*
X123474496Y-79557309D01*
X123474498Y-79557311D01*
X123474500Y-79557314D01*
X123567686Y-79650500D01*
X123567688Y-79650501D01*
X123567690Y-79650503D01*
X123681810Y-79716390D01*
X123681808Y-79716390D01*
X123681812Y-79716391D01*
X123681814Y-79716392D01*
X123809108Y-79750500D01*
X123809110Y-79750500D01*
X123909521Y-79750500D01*
X123967712Y-79769407D01*
X123979525Y-79779496D01*
X126345504Y-82145475D01*
X126373281Y-82199992D01*
X126374500Y-82215479D01*
X126374500Y-82315891D01*
X126375347Y-82322324D01*
X126373001Y-82322632D01*
X126370335Y-82373421D01*
X126331826Y-82420968D01*
X126272724Y-82436799D01*
X126215605Y-82414867D01*
X126207910Y-82407939D01*
X125891361Y-82091390D01*
X125559511Y-81759540D01*
X125559508Y-81759538D01*
X125559507Y-81759537D01*
X125541882Y-81749362D01*
X125541882Y-81749361D01*
X125541878Y-81749360D01*
X125501882Y-81726268D01*
X125490988Y-81719978D01*
X125414564Y-81699500D01*
X125414562Y-81699500D01*
X125290479Y-81699500D01*
X125232288Y-81680593D01*
X125220475Y-81670504D01*
X121547315Y-77997344D01*
X121519538Y-77942827D01*
X121529109Y-77882395D01*
X121567819Y-77841603D01*
X121568183Y-77841392D01*
X121568186Y-77841392D01*
X121682314Y-77775500D01*
X121753319Y-77704494D01*
X121807834Y-77676719D01*
X121823321Y-77675500D01*
X122209521Y-77675500D01*
X122267712Y-77694407D01*
X122279524Y-77704496D01*
X122315487Y-77740458D01*
X122315493Y-77740463D01*
X122384008Y-77780020D01*
X122384006Y-77780020D01*
X122384010Y-77780021D01*
X122384012Y-77780022D01*
X122460438Y-77800500D01*
X122539562Y-77800500D01*
X123959521Y-77800500D01*
X124017712Y-77819407D01*
X124029525Y-77829496D01*
X124095504Y-77895475D01*
X124123281Y-77949992D01*
X124124500Y-77965479D01*
X124124500Y-78065892D01*
X124148330Y-78154826D01*
X124158609Y-78193190D01*
X124224496Y-78307309D01*
X124224498Y-78307311D01*
X124224500Y-78307314D01*
X124317686Y-78400500D01*
X124317688Y-78400501D01*
X124317690Y-78400503D01*
X124431810Y-78466390D01*
X124431808Y-78466390D01*
X124431812Y-78466391D01*
X124431814Y-78466392D01*
X124559108Y-78500500D01*
X124559110Y-78500500D01*
X124690890Y-78500500D01*
X124690892Y-78500500D01*
X124818186Y-78466392D01*
X124818188Y-78466390D01*
X124818190Y-78466390D01*
X124932309Y-78400503D01*
X124932309Y-78400502D01*
X124932314Y-78400500D01*
X125025500Y-78307314D01*
X125026056Y-78306351D01*
X125091390Y-78193190D01*
X125091390Y-78193188D01*
X125091392Y-78193186D01*
X125125500Y-78065892D01*
X125125500Y-77934108D01*
X125091392Y-77806814D01*
X125091390Y-77806811D01*
X125091390Y-77806809D01*
X125025503Y-77692690D01*
X125025501Y-77692688D01*
X125025500Y-77692686D01*
X124932314Y-77599500D01*
X124932311Y-77599498D01*
X124927725Y-77594912D01*
X124929871Y-77592765D01*
X124902281Y-77552642D01*
X124903867Y-77491477D01*
X124941102Y-77442926D01*
X124997197Y-77425500D01*
X125959521Y-77425500D01*
X126017712Y-77444407D01*
G37*
%TD.AperFunction*%
%TA.AperFunction,Conductor*%
G36*
X142854571Y-76713038D02*
G01*
X142879458Y-76768934D01*
X142880000Y-76779282D01*
X142880000Y-79550500D01*
X142861093Y-79608691D01*
X142811593Y-79644655D01*
X142781000Y-79649500D01*
X142400835Y-79649500D01*
X142342644Y-79630593D01*
X142330831Y-79620504D01*
X142324862Y-79614535D01*
X142324862Y-79614534D01*
X142074862Y-79364535D01*
X142074857Y-79364531D01*
X142000642Y-79321683D01*
X142000644Y-79321683D01*
X141968521Y-79313076D01*
X141917853Y-79299500D01*
X141917851Y-79299500D01*
X141793495Y-79299500D01*
X141735304Y-79280593D01*
X141699340Y-79231093D01*
X141699340Y-79169907D01*
X141735304Y-79120407D01*
X141767869Y-79104874D01*
X141818186Y-79091392D01*
X141818188Y-79091390D01*
X141818190Y-79091390D01*
X141932309Y-79025503D01*
X141932309Y-79025502D01*
X141932314Y-79025500D01*
X142025500Y-78932314D01*
X142032319Y-78920504D01*
X142091390Y-78818190D01*
X142091390Y-78818188D01*
X142091392Y-78818186D01*
X142125500Y-78690892D01*
X142125500Y-78559108D01*
X142091392Y-78431814D01*
X142091390Y-78431811D01*
X142091390Y-78431809D01*
X142025503Y-78317690D01*
X142025501Y-78317688D01*
X142025500Y-78317686D01*
X141932314Y-78224500D01*
X141932311Y-78224498D01*
X141932309Y-78224496D01*
X141818189Y-78158609D01*
X141818191Y-78158609D01*
X141768799Y-78145375D01*
X141690892Y-78124500D01*
X141559108Y-78124500D01*
X141481200Y-78145375D01*
X141431809Y-78158609D01*
X141317690Y-78224496D01*
X141317685Y-78224500D01*
X141235322Y-78306863D01*
X141180805Y-78334640D01*
X141120373Y-78325068D01*
X141079583Y-78286359D01*
X141025503Y-78192690D01*
X141025501Y-78192688D01*
X141025500Y-78192686D01*
X140982993Y-78150179D01*
X140955218Y-78095665D01*
X140954846Y-78067262D01*
X140960500Y-78024316D01*
X140960500Y-77575684D01*
X140959686Y-77569504D01*
X140958015Y-77556809D01*
X140954068Y-77526827D01*
X140947191Y-77512080D01*
X140904066Y-77419598D01*
X140904065Y-77419597D01*
X140904065Y-77419596D01*
X140820404Y-77335935D01*
X140721302Y-77289723D01*
X140676557Y-77247996D01*
X140664882Y-77187935D01*
X140690740Y-77132482D01*
X140721301Y-77110277D01*
X140820404Y-77064065D01*
X140904065Y-76980404D01*
X140910275Y-76967085D01*
X140952003Y-76922337D01*
X141012064Y-76910662D01*
X141067517Y-76936519D01*
X141089724Y-76967084D01*
X141095935Y-76980404D01*
X141179596Y-77064065D01*
X141179597Y-77064065D01*
X141179598Y-77064066D01*
X141286824Y-77114067D01*
X141286825Y-77114067D01*
X141286827Y-77114068D01*
X141335684Y-77120500D01*
X141335685Y-77120500D01*
X141684314Y-77120500D01*
X141684316Y-77120500D01*
X141733173Y-77114068D01*
X141840404Y-77064065D01*
X141924065Y-76980404D01*
X141924065Y-76980402D01*
X141927821Y-76976647D01*
X141982337Y-76948869D01*
X142042770Y-76958440D01*
X142047308Y-76960904D01*
X142056814Y-76966392D01*
X142184108Y-77000500D01*
X142184110Y-77000500D01*
X142315890Y-77000500D01*
X142315892Y-77000500D01*
X142443186Y-76966392D01*
X142443188Y-76966390D01*
X142443190Y-76966390D01*
X142557309Y-76900503D01*
X142557309Y-76900502D01*
X142557314Y-76900500D01*
X142650500Y-76807314D01*
X142659999Y-76790862D01*
X142695264Y-76729782D01*
X142740733Y-76688841D01*
X142801583Y-76682445D01*
X142854571Y-76713038D01*
G37*
%TD.AperFunction*%
%TA.AperFunction,Conductor*%
G36*
X135068309Y-77319407D02*
G01*
X135104273Y-77368907D01*
X135104273Y-77430093D01*
X135095854Y-77449000D01*
X135033609Y-77556809D01*
X135017585Y-77616613D01*
X134999500Y-77684108D01*
X134999500Y-77815892D01*
X135033512Y-77942827D01*
X135033609Y-77943188D01*
X135044537Y-77962115D01*
X135061207Y-77990989D01*
X135061236Y-77991038D01*
X135074500Y-78040539D01*
X135074500Y-78475500D01*
X135055593Y-78533691D01*
X135006093Y-78569655D01*
X134975500Y-78574500D01*
X134415478Y-78574500D01*
X134357287Y-78555593D01*
X134345472Y-78545501D01*
X134329494Y-78529522D01*
X134301718Y-78475005D01*
X134300679Y-78461797D01*
X134300500Y-78460442D01*
X134300500Y-78460438D01*
X134280021Y-78384011D01*
X134263762Y-78355851D01*
X134250499Y-78306351D01*
X134250499Y-78040103D01*
X134250498Y-78040092D01*
X134243972Y-77990513D01*
X134243972Y-77990511D01*
X134193225Y-77881686D01*
X134193224Y-77881685D01*
X134193224Y-77881684D01*
X134125757Y-77814217D01*
X134097982Y-77759703D01*
X134107553Y-77699271D01*
X134125759Y-77674212D01*
X134470475Y-77329496D01*
X134524992Y-77301719D01*
X134540479Y-77300500D01*
X135010118Y-77300500D01*
X135068309Y-77319407D01*
G37*
%TD.AperFunction*%
%TA.AperFunction,Conductor*%
G36*
X112224918Y-73156743D02*
G01*
X112249978Y-73174949D01*
X112420504Y-73345475D01*
X112448281Y-73399992D01*
X112449500Y-73415479D01*
X112449500Y-73664564D01*
X112469978Y-73740988D01*
X112469980Y-73740992D01*
X112507091Y-73805269D01*
X112509540Y-73809511D01*
X112565489Y-73865460D01*
X112583118Y-73875638D01*
X112634007Y-73905019D01*
X112634011Y-73905021D01*
X112710435Y-73925499D01*
X112710437Y-73925500D01*
X112710438Y-73925500D01*
X112789562Y-73925500D01*
X116084521Y-73925500D01*
X116142712Y-73944407D01*
X116154524Y-73954496D01*
X116565488Y-74365459D01*
X116565493Y-74365463D01*
X116634008Y-74405020D01*
X116634006Y-74405020D01*
X116634010Y-74405021D01*
X116634012Y-74405022D01*
X116710438Y-74425500D01*
X116834521Y-74425500D01*
X116892712Y-74444407D01*
X116904525Y-74454496D01*
X118045504Y-75595475D01*
X118073281Y-75649992D01*
X118074500Y-75665479D01*
X118074500Y-76164564D01*
X118094977Y-76240985D01*
X118094979Y-76240989D01*
X118127275Y-76296929D01*
X118134537Y-76309507D01*
X118134538Y-76309508D01*
X118134540Y-76309511D01*
X118472891Y-76647862D01*
X118798604Y-76973575D01*
X118826381Y-77028092D01*
X118816810Y-77088524D01*
X118773545Y-77131789D01*
X118754224Y-77139205D01*
X118681814Y-77158607D01*
X118681810Y-77158609D01*
X118567690Y-77224496D01*
X118567685Y-77224500D01*
X118492604Y-77299581D01*
X118438087Y-77327358D01*
X118377655Y-77317786D01*
X118373108Y-77315317D01*
X118336617Y-77294249D01*
X118318188Y-77283609D01*
X118318187Y-77283608D01*
X118318186Y-77283608D01*
X118190892Y-77249500D01*
X118059108Y-77249500D01*
X117931814Y-77283608D01*
X117931812Y-77283608D01*
X117925546Y-77285288D01*
X117924749Y-77282317D01*
X117876266Y-77286071D01*
X117824138Y-77254036D01*
X117800794Y-77197479D01*
X117800499Y-77189836D01*
X117800499Y-77147870D01*
X117800498Y-77147862D01*
X117790878Y-77099496D01*
X117784515Y-77067505D01*
X117776159Y-77054999D01*
X117759551Y-76996114D01*
X117776159Y-76944999D01*
X117784515Y-76932495D01*
X117800500Y-76852133D01*
X117800499Y-76647868D01*
X117798146Y-76636040D01*
X117790753Y-76598868D01*
X117784515Y-76567505D01*
X117776159Y-76554999D01*
X117759551Y-76496114D01*
X117776159Y-76444999D01*
X117784515Y-76432495D01*
X117800500Y-76352133D01*
X117800499Y-76147868D01*
X117797162Y-76131093D01*
X117784515Y-76067505D01*
X117784514Y-76067503D01*
X117723626Y-75976379D01*
X117723624Y-75976376D01*
X117723620Y-75976373D01*
X117632497Y-75915486D01*
X117632496Y-75915485D01*
X117632495Y-75915485D01*
X117552133Y-75899500D01*
X117552132Y-75899500D01*
X116097870Y-75899500D01*
X116097863Y-75899501D01*
X116017505Y-75915484D01*
X116017503Y-75915485D01*
X115926379Y-75976373D01*
X115926373Y-75976379D01*
X115865486Y-76067501D01*
X115865486Y-76067503D01*
X115865485Y-76067505D01*
X115849501Y-76147862D01*
X115849500Y-76147867D01*
X115849500Y-76352129D01*
X115849501Y-76352137D01*
X115865484Y-76432494D01*
X115865486Y-76432498D01*
X115873840Y-76445001D01*
X115890447Y-76503889D01*
X115873840Y-76554999D01*
X115865485Y-76567503D01*
X115865484Y-76567504D01*
X115849500Y-76647864D01*
X115849500Y-76852129D01*
X115849501Y-76852137D01*
X115865484Y-76932494D01*
X115865486Y-76932498D01*
X115873840Y-76945001D01*
X115890447Y-77003889D01*
X115873840Y-77054999D01*
X115865485Y-77067503D01*
X115865484Y-77067504D01*
X115849500Y-77147864D01*
X115849500Y-77147867D01*
X115849500Y-77249500D01*
X115849501Y-77350500D01*
X115830594Y-77408690D01*
X115781094Y-77444654D01*
X115750501Y-77449500D01*
X115460435Y-77449500D01*
X115384011Y-77469978D01*
X115384007Y-77469980D01*
X115315491Y-77509538D01*
X115259538Y-77565491D01*
X115253659Y-77575674D01*
X115208188Y-77616613D01*
X115147338Y-77623006D01*
X115111389Y-77603486D01*
X115109525Y-77606053D01*
X115103217Y-77601470D01*
X114983132Y-77540283D01*
X114983127Y-77540281D01*
X114983126Y-77540281D01*
X114949913Y-77535020D01*
X114883490Y-77524500D01*
X114883488Y-77524500D01*
X114316512Y-77524500D01*
X114316510Y-77524500D01*
X114216872Y-77540281D01*
X114196243Y-77550792D01*
X114135811Y-77560362D01*
X114081295Y-77532582D01*
X114065567Y-77512083D01*
X114025500Y-77442686D01*
X113932314Y-77349500D01*
X113932311Y-77349498D01*
X113932309Y-77349496D01*
X113818189Y-77283609D01*
X113818191Y-77283609D01*
X113765187Y-77269407D01*
X113690892Y-77249500D01*
X113559108Y-77249500D01*
X113484813Y-77269407D01*
X113431809Y-77283609D01*
X113317690Y-77349496D01*
X113224496Y-77442690D01*
X113158609Y-77556809D01*
X113142585Y-77616613D01*
X113126807Y-77675500D01*
X113124500Y-77684109D01*
X113124500Y-77784520D01*
X113105593Y-77842711D01*
X113095503Y-77854524D01*
X113050786Y-77899240D01*
X112996269Y-77927017D01*
X112935837Y-77917445D01*
X112910782Y-77899242D01*
X112868316Y-77856776D01*
X112868314Y-77856775D01*
X112868313Y-77856774D01*
X112762234Y-77807309D01*
X112759488Y-77806028D01*
X112741735Y-77803691D01*
X112709901Y-77799500D01*
X112709899Y-77799500D01*
X112290103Y-77799500D01*
X112290092Y-77799501D01*
X112240513Y-77806027D01*
X112240511Y-77806027D01*
X112131686Y-77856774D01*
X112046774Y-77941686D01*
X111996029Y-78050510D01*
X111996028Y-78050510D01*
X111989322Y-78101448D01*
X111962980Y-78156672D01*
X111909209Y-78185867D01*
X111848547Y-78177879D01*
X111811514Y-78147312D01*
X111797154Y-78127855D01*
X111797152Y-78127853D01*
X111797150Y-78127850D01*
X111797146Y-78127847D01*
X111797144Y-78127845D01*
X111687883Y-78047207D01*
X111559703Y-78002355D01*
X111559694Y-78002353D01*
X111529274Y-77999500D01*
X111529266Y-77999500D01*
X110470734Y-77999500D01*
X110470725Y-77999500D01*
X110440305Y-78002353D01*
X110440296Y-78002355D01*
X110312116Y-78047207D01*
X110233288Y-78105385D01*
X110175240Y-78124727D01*
X110116910Y-78106255D01*
X110080577Y-78057026D01*
X110075500Y-78025730D01*
X110075500Y-77923321D01*
X110094407Y-77865130D01*
X110104490Y-77853323D01*
X110150500Y-77807314D01*
X110151242Y-77806029D01*
X110216390Y-77693190D01*
X110216390Y-77693188D01*
X110216392Y-77693186D01*
X110250500Y-77565892D01*
X110250500Y-77434108D01*
X110216392Y-77306814D01*
X110216390Y-77306811D01*
X110216390Y-77306809D01*
X110150503Y-77192690D01*
X110150501Y-77192688D01*
X110150500Y-77192686D01*
X110057314Y-77099500D01*
X110057311Y-77099498D01*
X110057309Y-77099496D01*
X109943189Y-77033609D01*
X109943191Y-77033609D01*
X109893799Y-77020375D01*
X109815892Y-76999500D01*
X109684108Y-76999500D01*
X109606200Y-77020375D01*
X109556809Y-77033609D01*
X109442690Y-77099496D01*
X109349499Y-77192687D01*
X109333870Y-77219758D01*
X109287254Y-77300500D01*
X109283607Y-77306816D01*
X109270797Y-77354624D01*
X109237473Y-77405938D01*
X109180352Y-77427864D01*
X109175171Y-77428000D01*
X106374998Y-77428000D01*
X106329272Y-77433151D01*
X106246872Y-77472834D01*
X106189850Y-77544337D01*
X106169500Y-77633500D01*
X106169500Y-77745500D01*
X106150593Y-77803691D01*
X106101093Y-77839655D01*
X106070500Y-77844500D01*
X105345833Y-77844500D01*
X105287642Y-77825593D01*
X105275829Y-77815503D01*
X104979496Y-77519169D01*
X104951719Y-77464653D01*
X104950500Y-77449166D01*
X104950500Y-76300834D01*
X104969407Y-76242643D01*
X104979496Y-76230830D01*
X105255830Y-75954496D01*
X105539737Y-75670588D01*
X105594252Y-75642813D01*
X105642437Y-75647150D01*
X105720987Y-75674636D01*
X105720382Y-75676363D01*
X105766080Y-75703083D01*
X105790659Y-75759115D01*
X105784566Y-75800352D01*
X105785288Y-75800546D01*
X105783615Y-75806786D01*
X105783614Y-75806799D01*
X105783609Y-75806809D01*
X105779014Y-75823958D01*
X105749500Y-75934108D01*
X105749500Y-76065892D01*
X105768267Y-76135933D01*
X105783609Y-76193190D01*
X105849496Y-76307309D01*
X105849498Y-76307311D01*
X105849500Y-76307314D01*
X105942686Y-76400500D01*
X105942688Y-76400501D01*
X105942690Y-76400503D01*
X106056810Y-76466390D01*
X106056808Y-76466390D01*
X106056812Y-76466391D01*
X106056814Y-76466392D01*
X106184108Y-76500500D01*
X106184110Y-76500500D01*
X106315890Y-76500500D01*
X106315892Y-76500500D01*
X106443186Y-76466392D01*
X106443188Y-76466390D01*
X106443190Y-76466390D01*
X106557309Y-76400503D01*
X106557309Y-76400502D01*
X106557314Y-76400500D01*
X106650500Y-76307314D01*
X106660879Y-76289337D01*
X106698025Y-76225000D01*
X106743494Y-76184059D01*
X106783761Y-76175500D01*
X110039563Y-76175500D01*
X110039563Y-76175499D01*
X110115989Y-76155021D01*
X110184511Y-76115460D01*
X110204406Y-76095565D01*
X110220476Y-76079496D01*
X110274993Y-76051719D01*
X110288199Y-76050679D01*
X110289556Y-76050500D01*
X110289562Y-76050500D01*
X110365989Y-76030021D01*
X110434511Y-75990460D01*
X110452493Y-75972478D01*
X110470476Y-75954496D01*
X110524993Y-75926719D01*
X110538199Y-75925679D01*
X110539556Y-75925500D01*
X110539562Y-75925500D01*
X110615989Y-75905021D01*
X110684511Y-75865460D01*
X110740460Y-75809511D01*
X110780021Y-75740989D01*
X110780022Y-75740984D01*
X110781833Y-75736614D01*
X110821570Y-75690089D01*
X110873297Y-75675500D01*
X111126703Y-75675500D01*
X111184894Y-75694407D01*
X111218167Y-75736614D01*
X111219977Y-75740985D01*
X111219978Y-75740987D01*
X111219979Y-75740989D01*
X111259540Y-75809511D01*
X111315489Y-75865460D01*
X111322651Y-75869595D01*
X111384007Y-75905019D01*
X111384011Y-75905021D01*
X111460435Y-75925499D01*
X111460437Y-75925500D01*
X111460438Y-75925500D01*
X113289563Y-75925500D01*
X113289563Y-75925499D01*
X113365989Y-75905021D01*
X113434511Y-75865460D01*
X113454993Y-75844978D01*
X113470476Y-75829496D01*
X113524993Y-75801719D01*
X113538199Y-75800679D01*
X113539556Y-75800500D01*
X113539562Y-75800500D01*
X113615989Y-75780021D01*
X113615991Y-75780019D01*
X113620782Y-75778036D01*
X113658667Y-75770500D01*
X113914314Y-75770500D01*
X113914316Y-75770500D01*
X113963173Y-75764068D01*
X114070404Y-75714065D01*
X114154065Y-75630404D01*
X114204068Y-75523173D01*
X114210500Y-75474316D01*
X114210500Y-75025684D01*
X114204068Y-74976827D01*
X114194988Y-74957356D01*
X114154066Y-74869598D01*
X114154065Y-74869597D01*
X114154065Y-74869596D01*
X114070404Y-74785935D01*
X114070402Y-74785934D01*
X114070401Y-74785933D01*
X113963175Y-74735932D01*
X113930601Y-74731644D01*
X113914316Y-74729500D01*
X113565684Y-74729500D01*
X113549398Y-74731644D01*
X113516825Y-74735932D01*
X113516824Y-74735932D01*
X113409598Y-74785933D01*
X113325933Y-74869598D01*
X113275932Y-74976824D01*
X113275932Y-74976825D01*
X113269500Y-75025685D01*
X113269500Y-75156765D01*
X113250593Y-75214956D01*
X113220000Y-75242501D01*
X113190493Y-75259536D01*
X113190487Y-75259541D01*
X113154524Y-75295504D01*
X113100007Y-75323281D01*
X113084521Y-75324500D01*
X111790478Y-75324500D01*
X111732287Y-75305593D01*
X111720480Y-75295509D01*
X111559511Y-75134540D01*
X111559508Y-75134538D01*
X111542121Y-75124499D01*
X111542121Y-75124500D01*
X111490989Y-75094979D01*
X111490988Y-75094978D01*
X111490987Y-75094978D01*
X111414564Y-75074500D01*
X111414562Y-75074500D01*
X110664562Y-75074500D01*
X110585438Y-75074500D01*
X110509012Y-75094978D01*
X110509011Y-75094978D01*
X110509009Y-75094979D01*
X110498998Y-75100759D01*
X110439149Y-75113478D01*
X110383254Y-75088591D01*
X110352663Y-75035602D01*
X110350500Y-75015021D01*
X110350500Y-74395727D01*
X110350499Y-74395725D01*
X110347646Y-74365301D01*
X110302793Y-74237118D01*
X110290701Y-74220734D01*
X110281516Y-74208288D01*
X110262174Y-74150241D01*
X110280645Y-74091910D01*
X110329875Y-74055577D01*
X110361171Y-74050500D01*
X110794410Y-74050500D01*
X110852601Y-74069407D01*
X110888565Y-74118907D01*
X110890035Y-74123872D01*
X110897101Y-74150241D01*
X110908609Y-74193190D01*
X110974496Y-74307309D01*
X110974498Y-74307311D01*
X110974500Y-74307314D01*
X111067686Y-74400500D01*
X111067688Y-74400501D01*
X111067690Y-74400503D01*
X111181810Y-74466390D01*
X111181808Y-74466390D01*
X111181812Y-74466391D01*
X111181814Y-74466392D01*
X111309108Y-74500500D01*
X111309110Y-74500500D01*
X111440890Y-74500500D01*
X111440892Y-74500500D01*
X111568186Y-74466392D01*
X111568188Y-74466390D01*
X111568190Y-74466390D01*
X111682309Y-74400503D01*
X111682309Y-74400502D01*
X111682314Y-74400500D01*
X111775500Y-74307314D01*
X111776900Y-74304889D01*
X111841390Y-74193190D01*
X111841390Y-74193188D01*
X111841392Y-74193186D01*
X111875500Y-74065892D01*
X111875500Y-73934108D01*
X111841392Y-73806814D01*
X111841390Y-73806811D01*
X111841390Y-73806809D01*
X111775503Y-73692690D01*
X111775501Y-73692688D01*
X111775500Y-73692686D01*
X111683889Y-73601075D01*
X111656114Y-73546561D01*
X111665685Y-73486129D01*
X111708950Y-73442864D01*
X111715973Y-73439626D01*
X111843914Y-73386632D01*
X112007782Y-73277139D01*
X112109972Y-73174948D01*
X112164486Y-73147172D01*
X112224918Y-73156743D01*
G37*
%TD.AperFunction*%
%TA.AperFunction,Conductor*%
G36*
X121637644Y-71428907D02*
G01*
X121673608Y-71478407D01*
X121673608Y-71539593D01*
X121649458Y-71579001D01*
X121615092Y-71613368D01*
X121596774Y-71631686D01*
X121546029Y-71740510D01*
X121546028Y-71740511D01*
X121539500Y-71790100D01*
X121539500Y-72209896D01*
X121539501Y-72209907D01*
X121546027Y-72259486D01*
X121546027Y-72259488D01*
X121596774Y-72368313D01*
X121596775Y-72368314D01*
X121596776Y-72368316D01*
X121681684Y-72453224D01*
X121790513Y-72503972D01*
X121840099Y-72510500D01*
X121924085Y-72510499D01*
X121982275Y-72529406D01*
X122005090Y-72554744D01*
X122005590Y-72554362D01*
X122009537Y-72559506D01*
X122009540Y-72559511D01*
X122045505Y-72595476D01*
X122073281Y-72649991D01*
X122074320Y-72663201D01*
X122074500Y-72664564D01*
X122094978Y-72740988D01*
X122094980Y-72740992D01*
X122134307Y-72809108D01*
X122134540Y-72809511D01*
X122190489Y-72865460D01*
X122190491Y-72865461D01*
X122259007Y-72905019D01*
X122259005Y-72905019D01*
X122259009Y-72905020D01*
X122259011Y-72905021D01*
X122317870Y-72920792D01*
X122369182Y-72954115D01*
X122387870Y-72990792D01*
X122408608Y-73068186D01*
X122408609Y-73068188D01*
X122436236Y-73116038D01*
X122449500Y-73165539D01*
X122449500Y-73436567D01*
X122432815Y-73491569D01*
X122415486Y-73517501D01*
X122415486Y-73517503D01*
X122415485Y-73517505D01*
X122404148Y-73574500D01*
X122399500Y-73597866D01*
X122399500Y-75052129D01*
X122399501Y-75052136D01*
X122415484Y-75132494D01*
X122415485Y-75132496D01*
X122476373Y-75223620D01*
X122476376Y-75223624D01*
X122567505Y-75284515D01*
X122647867Y-75300500D01*
X122852132Y-75300499D01*
X122932495Y-75284515D01*
X122944996Y-75276161D01*
X123003883Y-75259551D01*
X123055000Y-75276159D01*
X123067505Y-75284515D01*
X123147867Y-75300500D01*
X123352132Y-75300499D01*
X123432495Y-75284515D01*
X123444996Y-75276161D01*
X123503883Y-75259551D01*
X123555000Y-75276159D01*
X123567505Y-75284515D01*
X123647867Y-75300500D01*
X123852132Y-75300499D01*
X123932495Y-75284515D01*
X123944996Y-75276161D01*
X124003883Y-75259551D01*
X124055000Y-75276159D01*
X124067505Y-75284515D01*
X124147867Y-75300500D01*
X124352132Y-75300499D01*
X124432495Y-75284515D01*
X124444996Y-75276161D01*
X124503883Y-75259551D01*
X124555000Y-75276159D01*
X124567505Y-75284515D01*
X124647867Y-75300500D01*
X124852132Y-75300499D01*
X124932495Y-75284515D01*
X124944996Y-75276161D01*
X125003883Y-75259551D01*
X125055000Y-75276159D01*
X125067505Y-75284515D01*
X125147867Y-75300500D01*
X125352132Y-75300499D01*
X125432495Y-75284515D01*
X125444996Y-75276161D01*
X125503883Y-75259551D01*
X125555000Y-75276159D01*
X125567505Y-75284515D01*
X125647867Y-75300500D01*
X125852132Y-75300499D01*
X125932495Y-75284515D01*
X125944996Y-75276161D01*
X126003883Y-75259551D01*
X126055000Y-75276159D01*
X126067505Y-75284515D01*
X126147867Y-75300500D01*
X126352132Y-75300499D01*
X126432495Y-75284515D01*
X126455623Y-75269061D01*
X126514508Y-75252452D01*
X126571912Y-75273628D01*
X126596360Y-75301876D01*
X126599500Y-75307314D01*
X126692686Y-75400500D01*
X126692688Y-75400501D01*
X126692690Y-75400503D01*
X126806810Y-75466390D01*
X126806808Y-75466390D01*
X126806812Y-75466391D01*
X126806814Y-75466392D01*
X126888722Y-75488339D01*
X126940035Y-75521662D01*
X126961962Y-75578783D01*
X126946127Y-75637884D01*
X126912599Y-75669701D01*
X126817688Y-75724498D01*
X126724496Y-75817690D01*
X126658609Y-75931809D01*
X126640509Y-75999361D01*
X126624500Y-76059108D01*
X126624500Y-76190892D01*
X126658608Y-76318186D01*
X126658608Y-76318187D01*
X126660288Y-76324454D01*
X126657302Y-76325253D01*
X126661091Y-76373652D01*
X126629099Y-76425808D01*
X126572561Y-76449198D01*
X126564836Y-76449500D01*
X126165479Y-76449500D01*
X126107288Y-76430593D01*
X126095475Y-76420504D01*
X125829990Y-76155019D01*
X125559511Y-75884540D01*
X125554564Y-75881684D01*
X125533627Y-75869595D01*
X125533627Y-75869596D01*
X125490989Y-75844979D01*
X125490988Y-75844978D01*
X125490987Y-75844978D01*
X125414564Y-75824500D01*
X125414562Y-75824500D01*
X124033761Y-75824500D01*
X123975570Y-75805593D01*
X123948025Y-75775000D01*
X123900503Y-75692690D01*
X123900501Y-75692688D01*
X123900500Y-75692686D01*
X123807314Y-75599500D01*
X123807311Y-75599498D01*
X123807309Y-75599496D01*
X123693189Y-75533609D01*
X123693191Y-75533609D01*
X123643799Y-75520375D01*
X123565892Y-75499500D01*
X123434108Y-75499500D01*
X123356200Y-75520375D01*
X123306809Y-75533609D01*
X123192690Y-75599496D01*
X123099496Y-75692690D01*
X123033609Y-75806809D01*
X123029014Y-75823958D01*
X122999500Y-75934108D01*
X122999500Y-76065892D01*
X123018267Y-76135933D01*
X123033609Y-76193190D01*
X123099496Y-76307309D01*
X123099498Y-76307311D01*
X123099500Y-76307314D01*
X123192686Y-76400500D01*
X123192688Y-76400501D01*
X123192690Y-76400503D01*
X123306810Y-76466390D01*
X123306808Y-76466390D01*
X123306812Y-76466391D01*
X123306814Y-76466392D01*
X123434108Y-76500500D01*
X123434110Y-76500500D01*
X123565890Y-76500500D01*
X123565892Y-76500500D01*
X123693186Y-76466392D01*
X123741041Y-76438762D01*
X123790540Y-76425500D01*
X125209521Y-76425500D01*
X125267712Y-76444407D01*
X125279525Y-76454496D01*
X125480525Y-76655496D01*
X125508302Y-76710013D01*
X125498731Y-76770445D01*
X125455466Y-76813710D01*
X125410521Y-76824500D01*
X123040479Y-76824500D01*
X122982288Y-76805593D01*
X122970476Y-76795504D01*
X122809510Y-76634539D01*
X122793853Y-76625499D01*
X122793853Y-76625500D01*
X122740989Y-76594979D01*
X122740988Y-76594978D01*
X122740987Y-76594978D01*
X122664564Y-76574500D01*
X122664562Y-76574500D01*
X122165479Y-76574500D01*
X122107288Y-76555593D01*
X122095476Y-76545504D01*
X121809510Y-76259539D01*
X121792121Y-76249499D01*
X121792121Y-76249500D01*
X121740989Y-76219979D01*
X121740988Y-76219978D01*
X121740987Y-76219978D01*
X121664564Y-76199500D01*
X121664562Y-76199500D01*
X121435164Y-76199500D01*
X121376973Y-76180593D01*
X121341009Y-76131093D01*
X121341009Y-76074801D01*
X121339712Y-76074454D01*
X121341391Y-76068187D01*
X121341392Y-76068186D01*
X121375500Y-75940892D01*
X121375500Y-75809108D01*
X121341392Y-75681814D01*
X121341390Y-75681811D01*
X121341390Y-75681809D01*
X121275503Y-75567690D01*
X121275501Y-75567688D01*
X121275500Y-75567686D01*
X121182314Y-75474500D01*
X121182311Y-75474498D01*
X121177725Y-75469912D01*
X121179868Y-75467768D01*
X121152272Y-75427615D01*
X121153875Y-75366450D01*
X121191123Y-75317910D01*
X121247194Y-75300499D01*
X121352132Y-75300499D01*
X121432495Y-75284515D01*
X121523624Y-75223624D01*
X121584515Y-75132495D01*
X121600500Y-75052133D01*
X121600499Y-73597868D01*
X121584515Y-73517505D01*
X121584512Y-73517501D01*
X121567185Y-73491569D01*
X121550500Y-73436567D01*
X121550500Y-72960437D01*
X121550499Y-72960435D01*
X121547068Y-72947632D01*
X121530021Y-72884011D01*
X121520051Y-72866743D01*
X121501732Y-72835013D01*
X121490460Y-72815489D01*
X121434511Y-72759540D01*
X121424867Y-72753972D01*
X121365992Y-72719980D01*
X121365988Y-72719978D01*
X121289564Y-72699500D01*
X121289562Y-72699500D01*
X121165479Y-72699500D01*
X121107288Y-72680593D01*
X121095476Y-72670504D01*
X121059512Y-72634540D01*
X121031410Y-72618315D01*
X121031410Y-72618316D01*
X120990989Y-72594979D01*
X120990988Y-72594978D01*
X120990987Y-72594978D01*
X120914564Y-72574500D01*
X120908129Y-72573653D01*
X120908274Y-72572544D01*
X120865842Y-72561122D01*
X120865699Y-72561039D01*
X120845393Y-72545421D01*
X120684513Y-72384542D01*
X120684511Y-72384540D01*
X120663704Y-72372527D01*
X120627471Y-72336293D01*
X120620662Y-72324500D01*
X120615460Y-72315489D01*
X120600169Y-72300198D01*
X120579496Y-72279524D01*
X120551719Y-72225007D01*
X120550679Y-72211800D01*
X120550500Y-72210442D01*
X120550500Y-72210438D01*
X120530021Y-72134011D01*
X120513762Y-72105851D01*
X120500499Y-72056351D01*
X120500499Y-71790103D01*
X120500498Y-71790092D01*
X120493972Y-71740513D01*
X120493972Y-71740511D01*
X120443225Y-71631686D01*
X120443224Y-71631685D01*
X120443224Y-71631684D01*
X120390541Y-71579001D01*
X120362766Y-71524487D01*
X120372337Y-71464055D01*
X120415602Y-71420790D01*
X120460547Y-71410000D01*
X121579453Y-71410000D01*
X121637644Y-71428907D01*
G37*
%TD.AperFunction*%
%TA.AperFunction,Conductor*%
G36*
X133248691Y-74069407D02*
G01*
X133284655Y-74118907D01*
X133289500Y-74149500D01*
X133289500Y-74459895D01*
X133289501Y-74459907D01*
X133296027Y-74509486D01*
X133296027Y-74509488D01*
X133346774Y-74618313D01*
X133346775Y-74618314D01*
X133346776Y-74618316D01*
X133431684Y-74703224D01*
X133540513Y-74753972D01*
X133590099Y-74760500D01*
X133615746Y-74760499D01*
X133673935Y-74779404D01*
X133709901Y-74828903D01*
X133711373Y-74833874D01*
X133719978Y-74865988D01*
X133757187Y-74930435D01*
X133757983Y-74931814D01*
X133759540Y-74934511D01*
X133940489Y-75115460D01*
X133940491Y-75115461D01*
X133940493Y-75115463D01*
X134009008Y-75155020D01*
X134009006Y-75155020D01*
X134009010Y-75155021D01*
X134009012Y-75155022D01*
X134085438Y-75175500D01*
X134164562Y-75175500D01*
X135459521Y-75175500D01*
X135517712Y-75194407D01*
X135529525Y-75204496D01*
X135720504Y-75395475D01*
X135748281Y-75449992D01*
X135749500Y-75465479D01*
X135749500Y-75565892D01*
X135778104Y-75672646D01*
X135783609Y-75693190D01*
X135849496Y-75807309D01*
X135849498Y-75807311D01*
X135849500Y-75807314D01*
X135909684Y-75867498D01*
X135937460Y-75922013D01*
X135927889Y-75982445D01*
X135909685Y-76007500D01*
X135877094Y-76040092D01*
X135849497Y-76067689D01*
X135849496Y-76067690D01*
X135783609Y-76181809D01*
X135778869Y-76199500D01*
X135749500Y-76309108D01*
X135749500Y-76440892D01*
X135783608Y-76568186D01*
X135783608Y-76568187D01*
X135785288Y-76574454D01*
X135782302Y-76575253D01*
X135786091Y-76623652D01*
X135754099Y-76675808D01*
X135697561Y-76699198D01*
X135689836Y-76699500D01*
X134414562Y-76699500D01*
X134335438Y-76699500D01*
X134335437Y-76699500D01*
X134335430Y-76699501D01*
X134334714Y-76699693D01*
X134334184Y-76699665D01*
X134329006Y-76700347D01*
X134328879Y-76699386D01*
X134273613Y-76696483D01*
X134226068Y-76657971D01*
X134210240Y-76598868D01*
X134219379Y-76562226D01*
X134243972Y-76509487D01*
X134250500Y-76459901D01*
X134250499Y-76040100D01*
X134243972Y-75990513D01*
X134243972Y-75990511D01*
X134193225Y-75881686D01*
X134193224Y-75881685D01*
X134193224Y-75881684D01*
X134108316Y-75796776D01*
X134108314Y-75796775D01*
X134108313Y-75796774D01*
X133999489Y-75746029D01*
X133999488Y-75746028D01*
X133961211Y-75740989D01*
X133949901Y-75739500D01*
X133949900Y-75739500D01*
X133676327Y-75739500D01*
X133626829Y-75726237D01*
X133615989Y-75719979D01*
X133615987Y-75719978D01*
X133615985Y-75719977D01*
X133539564Y-75699500D01*
X133539562Y-75699500D01*
X132789562Y-75699500D01*
X132710438Y-75699500D01*
X132669038Y-75710593D01*
X132634007Y-75719979D01*
X132565493Y-75759536D01*
X132565487Y-75759541D01*
X132528831Y-75796197D01*
X132474314Y-75823974D01*
X132413882Y-75814402D01*
X132370619Y-75771139D01*
X132367016Y-75764067D01*
X132353050Y-75736658D01*
X132263342Y-75646950D01*
X132243149Y-75636661D01*
X132167810Y-75598273D01*
X132124546Y-75555008D01*
X132114975Y-75494576D01*
X132142751Y-75440062D01*
X132150500Y-75432314D01*
X132169446Y-75399499D01*
X132216390Y-75318190D01*
X132216390Y-75318188D01*
X132216392Y-75318186D01*
X132250500Y-75190892D01*
X132250500Y-75059108D01*
X132223986Y-74960156D01*
X132227188Y-74899059D01*
X132258077Y-74858804D01*
X132257832Y-74858559D01*
X132259699Y-74856691D01*
X132261425Y-74854443D01*
X132263337Y-74853053D01*
X132263337Y-74853052D01*
X132263342Y-74853050D01*
X132353050Y-74763342D01*
X132410646Y-74650304D01*
X132425500Y-74556519D01*
X132425499Y-74274499D01*
X132444406Y-74216310D01*
X132493906Y-74180346D01*
X132524499Y-74175500D01*
X132789563Y-74175500D01*
X132789563Y-74175499D01*
X132865989Y-74155021D01*
X132934511Y-74115460D01*
X132960956Y-74089015D01*
X132970476Y-74079496D01*
X133024993Y-74051719D01*
X133040479Y-74050500D01*
X133190500Y-74050500D01*
X133248691Y-74069407D01*
G37*
%TD.AperFunction*%
%TA.AperFunction,Conductor*%
G36*
X140267712Y-74069407D02*
G01*
X140279524Y-74079496D01*
X140690488Y-74490459D01*
X140690493Y-74490463D01*
X140759008Y-74530020D01*
X140759009Y-74530020D01*
X140759012Y-74530022D01*
X140835438Y-74550500D01*
X140835441Y-74550500D01*
X140841214Y-74552047D01*
X140892529Y-74585371D01*
X140914456Y-74642492D01*
X140908846Y-74675159D01*
X140910288Y-74675546D01*
X140908608Y-74681812D01*
X140908608Y-74681814D01*
X140874500Y-74809108D01*
X140874500Y-74940892D01*
X140892753Y-75009012D01*
X140908609Y-75068190D01*
X140974496Y-75182309D01*
X140974498Y-75182311D01*
X140974500Y-75182314D01*
X141053091Y-75260905D01*
X141078712Y-75305283D01*
X141094977Y-75365985D01*
X141094980Y-75365992D01*
X141129323Y-75425475D01*
X141129325Y-75425478D01*
X141134537Y-75434507D01*
X141134540Y-75434511D01*
X141238605Y-75538576D01*
X141266381Y-75593091D01*
X141256810Y-75653523D01*
X141238605Y-75678580D01*
X141224499Y-75692685D01*
X141158609Y-75806809D01*
X141154014Y-75823958D01*
X141126807Y-75925500D01*
X141124500Y-75934109D01*
X141124500Y-76065894D01*
X141136151Y-76109378D01*
X141132948Y-76170479D01*
X141110529Y-76205001D01*
X141095934Y-76219596D01*
X141089724Y-76232915D01*
X141047995Y-76277663D01*
X140987934Y-76289337D01*
X140932482Y-76263478D01*
X140910276Y-76232915D01*
X140904066Y-76219598D01*
X140904065Y-76219597D01*
X140904065Y-76219596D01*
X140820404Y-76135935D01*
X140820402Y-76135934D01*
X140820401Y-76135933D01*
X140713175Y-76085932D01*
X140680601Y-76081644D01*
X140664316Y-76079500D01*
X140315684Y-76079500D01*
X140299398Y-76081644D01*
X140266825Y-76085932D01*
X140266824Y-76085932D01*
X140159598Y-76135933D01*
X140075933Y-76219598D01*
X140025932Y-76326824D01*
X140025932Y-76326825D01*
X140021114Y-76363423D01*
X139994772Y-76418648D01*
X139941001Y-76447842D01*
X139922961Y-76449500D01*
X139915479Y-76449500D01*
X139857288Y-76430593D01*
X139845476Y-76420504D01*
X139809510Y-76384539D01*
X139792121Y-76374499D01*
X139792121Y-76374500D01*
X139740989Y-76344979D01*
X139740988Y-76344978D01*
X139740987Y-76344978D01*
X139664564Y-76324500D01*
X139664562Y-76324500D01*
X138835438Y-76324500D01*
X138835435Y-76324500D01*
X138759012Y-76344978D01*
X138707879Y-76374500D01*
X138707878Y-76374499D01*
X138690489Y-76384539D01*
X138649503Y-76425525D01*
X138594986Y-76453302D01*
X138534554Y-76443730D01*
X138491290Y-76400465D01*
X138480500Y-76355521D01*
X138480500Y-76235478D01*
X138499407Y-76177287D01*
X138509490Y-76165480D01*
X139240460Y-75434511D01*
X139240693Y-75434108D01*
X139280020Y-75365992D01*
X139280021Y-75365989D01*
X139280022Y-75365988D01*
X139300500Y-75289562D01*
X139300500Y-75210438D01*
X139300500Y-74540479D01*
X139319407Y-74482288D01*
X139329496Y-74470475D01*
X139720475Y-74079496D01*
X139774992Y-74051719D01*
X139790479Y-74050500D01*
X140209521Y-74050500D01*
X140267712Y-74069407D01*
G37*
%TD.AperFunction*%
%TA.AperFunction,Conductor*%
G36*
X129847524Y-71428907D02*
G01*
X129883488Y-71478407D01*
X129883488Y-71539593D01*
X129847524Y-71589093D01*
X129834279Y-71597209D01*
X129736659Y-71646949D01*
X129736658Y-71646950D01*
X129646950Y-71736658D01*
X129604257Y-71820446D01*
X129560994Y-71863710D01*
X129516049Y-71874500D01*
X129434108Y-71874500D01*
X129356200Y-71895375D01*
X129306809Y-71908609D01*
X129192690Y-71974496D01*
X129099496Y-72067690D01*
X129033609Y-72181809D01*
X129019738Y-72233578D01*
X128999500Y-72309108D01*
X128999500Y-72440892D01*
X129026026Y-72539889D01*
X129033609Y-72568190D01*
X129099496Y-72682309D01*
X129099498Y-72682311D01*
X129099500Y-72682314D01*
X129192686Y-72775500D01*
X129192688Y-72775501D01*
X129192690Y-72775503D01*
X129306810Y-72841390D01*
X129306808Y-72841390D01*
X129306812Y-72841391D01*
X129306814Y-72841392D01*
X129434108Y-72875500D01*
X129434110Y-72875500D01*
X129565890Y-72875500D01*
X129565892Y-72875500D01*
X129669975Y-72847611D01*
X129731074Y-72850814D01*
X129740541Y-72855029D01*
X129780718Y-72875500D01*
X129849696Y-72910646D01*
X129943481Y-72925500D01*
X130406518Y-72925499D01*
X130406520Y-72925499D01*
X130406521Y-72925498D01*
X130475565Y-72914564D01*
X130500299Y-72910647D01*
X130500299Y-72910646D01*
X130500304Y-72910646D01*
X130613342Y-72853050D01*
X130703050Y-72763342D01*
X130760646Y-72650304D01*
X130775500Y-72556519D01*
X130775499Y-71943482D01*
X130764574Y-71874500D01*
X130760647Y-71849700D01*
X130760646Y-71849698D01*
X130760646Y-71849696D01*
X130703050Y-71736658D01*
X130613342Y-71646950D01*
X130547434Y-71613368D01*
X130515721Y-71597209D01*
X130472457Y-71553944D01*
X130462886Y-71493512D01*
X130490664Y-71438996D01*
X130545181Y-71411219D01*
X130560667Y-71410000D01*
X131439333Y-71410000D01*
X131497524Y-71428907D01*
X131533488Y-71478407D01*
X131533488Y-71539593D01*
X131497524Y-71589093D01*
X131484279Y-71597209D01*
X131386659Y-71646949D01*
X131296949Y-71736659D01*
X131239354Y-71849695D01*
X131224500Y-71943477D01*
X131224500Y-72556520D01*
X131224501Y-72556523D01*
X131239352Y-72650299D01*
X131239354Y-72650304D01*
X131296950Y-72763342D01*
X131386658Y-72853050D01*
X131499696Y-72910646D01*
X131593481Y-72925500D01*
X132056518Y-72925499D01*
X132056520Y-72925499D01*
X132056521Y-72925498D01*
X132125565Y-72914564D01*
X132150299Y-72910647D01*
X132150299Y-72910646D01*
X132150304Y-72910646D01*
X132263342Y-72853050D01*
X132353050Y-72763342D01*
X132410646Y-72650304D01*
X132425500Y-72556519D01*
X132425499Y-72274499D01*
X132444406Y-72216310D01*
X132493906Y-72180346D01*
X132524499Y-72175500D01*
X133190500Y-72175500D01*
X133248691Y-72194407D01*
X133284655Y-72243907D01*
X133289500Y-72274499D01*
X133289500Y-72459895D01*
X133289501Y-72459907D01*
X133296027Y-72509486D01*
X133296027Y-72509488D01*
X133346774Y-72618313D01*
X133346775Y-72618314D01*
X133346776Y-72618316D01*
X133431684Y-72703224D01*
X133540513Y-72753972D01*
X133590099Y-72760500D01*
X133949900Y-72760499D01*
X133999487Y-72753972D01*
X133999488Y-72753972D01*
X134074120Y-72719170D01*
X134108316Y-72703224D01*
X134193224Y-72618316D01*
X134243972Y-72509487D01*
X134250500Y-72459901D01*
X134250499Y-72040100D01*
X134250146Y-72037422D01*
X134261295Y-71977264D01*
X134305676Y-71935145D01*
X134348299Y-71925500D01*
X135209521Y-71925500D01*
X135267712Y-71944407D01*
X135279525Y-71954496D01*
X135420504Y-72095475D01*
X135448281Y-72149992D01*
X135449500Y-72165479D01*
X135449500Y-72709521D01*
X135430593Y-72767712D01*
X135420504Y-72779525D01*
X135315489Y-72884540D01*
X135315488Y-72884539D01*
X135259539Y-72940489D01*
X135219980Y-73009007D01*
X135219978Y-73009011D01*
X135199500Y-73085435D01*
X135199500Y-73426679D01*
X135180593Y-73484870D01*
X135170509Y-73496676D01*
X135134697Y-73532489D01*
X135099497Y-73567689D01*
X135099496Y-73567690D01*
X135033609Y-73681809D01*
X135015196Y-73750529D01*
X134999500Y-73809108D01*
X134999500Y-73940892D01*
X135026083Y-74040103D01*
X135033609Y-74068190D01*
X135099496Y-74182309D01*
X135099498Y-74182311D01*
X135099500Y-74182314D01*
X135192686Y-74275500D01*
X135192688Y-74275501D01*
X135192690Y-74275503D01*
X135306810Y-74341390D01*
X135306808Y-74341390D01*
X135306812Y-74341391D01*
X135306814Y-74341392D01*
X135434108Y-74375500D01*
X135434110Y-74375500D01*
X135565890Y-74375500D01*
X135565892Y-74375500D01*
X135693186Y-74341392D01*
X135693188Y-74341390D01*
X135693190Y-74341390D01*
X135807309Y-74275503D01*
X135807309Y-74275502D01*
X135807314Y-74275500D01*
X135900500Y-74182314D01*
X135916259Y-74155019D01*
X135966390Y-74068190D01*
X135966390Y-74068188D01*
X135966392Y-74068186D01*
X136000500Y-73940892D01*
X136000500Y-73809108D01*
X135966392Y-73681814D01*
X135966390Y-73681811D01*
X135966390Y-73681809D01*
X135900503Y-73567690D01*
X135900501Y-73567688D01*
X135900500Y-73567686D01*
X135829494Y-73496680D01*
X135801719Y-73442166D01*
X135800500Y-73426679D01*
X135800500Y-73290478D01*
X135819407Y-73232287D01*
X135829490Y-73220480D01*
X135990460Y-73059511D01*
X135999349Y-73044114D01*
X136030021Y-72990989D01*
X136050500Y-72914562D01*
X136050500Y-72399500D01*
X136069407Y-72341309D01*
X136118907Y-72305345D01*
X136149500Y-72300500D01*
X136584521Y-72300500D01*
X136642712Y-72319407D01*
X136654525Y-72329496D01*
X136759540Y-72434511D01*
X136759539Y-72434511D01*
X136815489Y-72490460D01*
X136884007Y-72530019D01*
X136884011Y-72530021D01*
X136960435Y-72550499D01*
X136960437Y-72550500D01*
X136960438Y-72550500D01*
X137414563Y-72550500D01*
X137414563Y-72550499D01*
X137490989Y-72530021D01*
X137559511Y-72490460D01*
X137615460Y-72434511D01*
X137845475Y-72204496D01*
X137899992Y-72176719D01*
X137915479Y-72175500D01*
X138689836Y-72175500D01*
X138748027Y-72194407D01*
X138783991Y-72243907D01*
X138783991Y-72300198D01*
X138785288Y-72300546D01*
X138783608Y-72306812D01*
X138783608Y-72306814D01*
X138749500Y-72434108D01*
X138749500Y-72565892D01*
X138763546Y-72618313D01*
X138783609Y-72693190D01*
X138849496Y-72807309D01*
X138849498Y-72807311D01*
X138849500Y-72807314D01*
X138942686Y-72900500D01*
X139056814Y-72966392D01*
X139056816Y-72966392D01*
X139056817Y-72966393D01*
X139062807Y-72968874D01*
X139061634Y-72971704D01*
X139102403Y-72998148D01*
X139124361Y-73055257D01*
X139124500Y-73060493D01*
X139124500Y-73233260D01*
X139128329Y-73259538D01*
X139134427Y-73301395D01*
X139180406Y-73395445D01*
X139185802Y-73406483D01*
X139268517Y-73489198D01*
X139268518Y-73489198D01*
X139268519Y-73489199D01*
X139273115Y-73491446D01*
X139317088Y-73533990D01*
X139327657Y-73594255D01*
X139300784Y-73649223D01*
X139299637Y-73650389D01*
X138815489Y-74134539D01*
X138759539Y-74190489D01*
X138719980Y-74259007D01*
X138719978Y-74259011D01*
X138699500Y-74335435D01*
X138699500Y-75084521D01*
X138680593Y-75142712D01*
X138670504Y-75154525D01*
X138124525Y-75700504D01*
X138070008Y-75728281D01*
X138054521Y-75729500D01*
X137835684Y-75729500D01*
X137823348Y-75731124D01*
X137786825Y-75735932D01*
X137786824Y-75735932D01*
X137679598Y-75785933D01*
X137595933Y-75869598D01*
X137589724Y-75882915D01*
X137547995Y-75927663D01*
X137487934Y-75939337D01*
X137432482Y-75913478D01*
X137410276Y-75882915D01*
X137404066Y-75869598D01*
X137404065Y-75869597D01*
X137404065Y-75869596D01*
X137320404Y-75785935D01*
X137320402Y-75785934D01*
X137320401Y-75785933D01*
X137213175Y-75735932D01*
X137176652Y-75731124D01*
X137164316Y-75729500D01*
X136835681Y-75729500D01*
X136777490Y-75710593D01*
X136741526Y-75661093D01*
X136740054Y-75604878D01*
X136745508Y-75584521D01*
X136750500Y-75565892D01*
X136750500Y-75434108D01*
X136716392Y-75306814D01*
X136716390Y-75306811D01*
X136716390Y-75306809D01*
X136650503Y-75192690D01*
X136650501Y-75192688D01*
X136650500Y-75192686D01*
X136557314Y-75099500D01*
X136557311Y-75099498D01*
X136557309Y-75099496D01*
X136443189Y-75033609D01*
X136443191Y-75033609D01*
X136393799Y-75020375D01*
X136315892Y-74999500D01*
X136215479Y-74999500D01*
X136157288Y-74980593D01*
X136145476Y-74970504D01*
X135809511Y-74634540D01*
X135781410Y-74618315D01*
X135781410Y-74618316D01*
X135740989Y-74594979D01*
X135740988Y-74594978D01*
X135740987Y-74594978D01*
X135664564Y-74574500D01*
X135664562Y-74574500D01*
X134399500Y-74574500D01*
X134341309Y-74555593D01*
X134305345Y-74506093D01*
X134300500Y-74475500D01*
X134300500Y-74460437D01*
X134300499Y-74460435D01*
X134300354Y-74459895D01*
X134280021Y-74384011D01*
X134263762Y-74355851D01*
X134250499Y-74306351D01*
X134250499Y-74040103D01*
X134250498Y-74040092D01*
X134243972Y-73990513D01*
X134243972Y-73990511D01*
X134193225Y-73881686D01*
X134193224Y-73881685D01*
X134193224Y-73881684D01*
X134108316Y-73796776D01*
X134108314Y-73796775D01*
X134108313Y-73796774D01*
X133999489Y-73746029D01*
X133999488Y-73746028D01*
X133961211Y-73740989D01*
X133949901Y-73739500D01*
X133949900Y-73739500D01*
X133830479Y-73739500D01*
X133772288Y-73720593D01*
X133760476Y-73710504D01*
X133559510Y-73509539D01*
X133542121Y-73499499D01*
X133542121Y-73499500D01*
X133490989Y-73469979D01*
X133490988Y-73469978D01*
X133490987Y-73469978D01*
X133414564Y-73449500D01*
X133414562Y-73449500D01*
X132914562Y-73449500D01*
X132835438Y-73449500D01*
X132788661Y-73462033D01*
X132759007Y-73469979D01*
X132690493Y-73509536D01*
X132690487Y-73509541D01*
X132654524Y-73545504D01*
X132600007Y-73573281D01*
X132584521Y-73574500D01*
X132210435Y-73574500D01*
X132173580Y-73584375D01*
X132132472Y-73586529D01*
X132056522Y-73574500D01*
X131593479Y-73574500D01*
X131593476Y-73574501D01*
X131499700Y-73589352D01*
X131499695Y-73589354D01*
X131386659Y-73646949D01*
X131386658Y-73646949D01*
X131386658Y-73646950D01*
X131344501Y-73689106D01*
X131289987Y-73716882D01*
X131229555Y-73707311D01*
X131186290Y-73664046D01*
X131175500Y-73619101D01*
X131175500Y-73460437D01*
X131175499Y-73460435D01*
X131155021Y-73384011D01*
X131155019Y-73384007D01*
X131115461Y-73315491D01*
X131115460Y-73315489D01*
X131059511Y-73259540D01*
X131059508Y-73259538D01*
X130990992Y-73219980D01*
X130990988Y-73219978D01*
X130914564Y-73199500D01*
X130914562Y-73199500D01*
X129415479Y-73199500D01*
X129357288Y-73180593D01*
X129345476Y-73170504D01*
X129309512Y-73134540D01*
X129285669Y-73120774D01*
X129285669Y-73120775D01*
X129240989Y-73094979D01*
X129240988Y-73094978D01*
X129240987Y-73094978D01*
X129164564Y-73074500D01*
X129164562Y-73074500D01*
X127915479Y-73074500D01*
X127857288Y-73055593D01*
X127845475Y-73045504D01*
X127115458Y-72315487D01*
X126378972Y-71579001D01*
X126351197Y-71524487D01*
X126360768Y-71464055D01*
X126404033Y-71420790D01*
X126448978Y-71410000D01*
X129789333Y-71410000D01*
X129847524Y-71428907D01*
G37*
%TD.AperFunction*%
%TA.AperFunction,Conductor*%
G36*
X108632356Y-74094407D02*
G01*
X108644169Y-74104496D01*
X108823956Y-74284283D01*
X108851733Y-74338800D01*
X108852520Y-74363530D01*
X108849500Y-74395734D01*
X108849500Y-75104274D01*
X108852353Y-75134694D01*
X108852355Y-75134703D01*
X108897207Y-75262883D01*
X108977845Y-75372144D01*
X108977847Y-75372146D01*
X108977850Y-75372150D01*
X108977853Y-75372152D01*
X108977855Y-75372154D01*
X109009955Y-75395845D01*
X109045548Y-75445613D01*
X109045090Y-75506796D01*
X109008757Y-75556026D01*
X108951167Y-75574500D01*
X106794516Y-75574500D01*
X106736325Y-75555593D01*
X106700361Y-75506093D01*
X106700361Y-75444907D01*
X106701071Y-75442803D01*
X106702793Y-75437882D01*
X106747646Y-75309699D01*
X106750499Y-75279273D01*
X106750500Y-75279273D01*
X106750500Y-74220727D01*
X106750499Y-74220725D01*
X106747084Y-74184305D01*
X106749951Y-74184036D01*
X106754885Y-74134692D01*
X106795595Y-74089015D01*
X106845529Y-74075500D01*
X108574165Y-74075500D01*
X108632356Y-74094407D01*
G37*
%TD.AperFunction*%
%TA.AperFunction,Conductor*%
G36*
X105867544Y-71428907D02*
G01*
X105903508Y-71478407D01*
X105903508Y-71539593D01*
X105867544Y-71589093D01*
X105847239Y-71600464D01*
X105816085Y-71613368D01*
X105652218Y-71722861D01*
X105652214Y-71722864D01*
X105512864Y-71862214D01*
X105512861Y-71862218D01*
X105403367Y-72026086D01*
X105327949Y-72208163D01*
X105327949Y-72208165D01*
X105289500Y-72401456D01*
X105289500Y-72598543D01*
X105313495Y-72719170D01*
X105327948Y-72791832D01*
X105327949Y-72791834D01*
X105327949Y-72791836D01*
X105403367Y-72973913D01*
X105437837Y-73025500D01*
X105512861Y-73137782D01*
X105512863Y-73137784D01*
X105630575Y-73255496D01*
X105658352Y-73310013D01*
X105648781Y-73370445D01*
X105605516Y-73413710D01*
X105560571Y-73424500D01*
X105292853Y-73424500D01*
X105207147Y-73424500D01*
X105156478Y-73438076D01*
X105124356Y-73446683D01*
X105050142Y-73489531D01*
X105050137Y-73489535D01*
X104734402Y-73805269D01*
X104679886Y-73833046D01*
X104619454Y-73823475D01*
X104578663Y-73784765D01*
X104525503Y-73692690D01*
X104525501Y-73692688D01*
X104525500Y-73692686D01*
X104432314Y-73599500D01*
X104432311Y-73599498D01*
X104432309Y-73599496D01*
X104318189Y-73533609D01*
X104318191Y-73533609D01*
X104268434Y-73520277D01*
X104190892Y-73499500D01*
X104059108Y-73499500D01*
X103981566Y-73520277D01*
X103931809Y-73533609D01*
X103817690Y-73599496D01*
X103724496Y-73692690D01*
X103676975Y-73775000D01*
X103631506Y-73815941D01*
X103591239Y-73824500D01*
X103539562Y-73824500D01*
X103460438Y-73824500D01*
X103413661Y-73837033D01*
X103384007Y-73844979D01*
X103315493Y-73884536D01*
X103315487Y-73884541D01*
X103279524Y-73920504D01*
X103225007Y-73948281D01*
X103211803Y-73949320D01*
X103210440Y-73949499D01*
X103134007Y-73969979D01*
X103065493Y-74009536D01*
X103065487Y-74009541D01*
X103029524Y-74045504D01*
X102975007Y-74073281D01*
X102959521Y-74074500D01*
X101848301Y-74074500D01*
X101790110Y-74055593D01*
X101754146Y-74006093D01*
X101750147Y-73962585D01*
X101750275Y-73961604D01*
X101750500Y-73959901D01*
X101750499Y-73540100D01*
X101749644Y-73533608D01*
X101743972Y-73490513D01*
X101743972Y-73490511D01*
X101693225Y-73381686D01*
X101693224Y-73381685D01*
X101693224Y-73381684D01*
X101608316Y-73296776D01*
X101608314Y-73296775D01*
X101608313Y-73296774D01*
X101509077Y-73250500D01*
X101499488Y-73246028D01*
X101482958Y-73243852D01*
X101449901Y-73239500D01*
X101449899Y-73239500D01*
X101090104Y-73239500D01*
X101090092Y-73239501D01*
X101040513Y-73246027D01*
X101040511Y-73246027D01*
X100931686Y-73296774D01*
X100846774Y-73381686D01*
X100796029Y-73490510D01*
X100796028Y-73490511D01*
X100789500Y-73540100D01*
X100789500Y-73744521D01*
X100770593Y-73802712D01*
X100760509Y-73814518D01*
X100545010Y-74030019D01*
X100469004Y-74106025D01*
X100414487Y-74133802D01*
X100354055Y-74124231D01*
X100310790Y-74080966D01*
X100300000Y-74036021D01*
X100300000Y-71509000D01*
X100318907Y-71450809D01*
X100368407Y-71414845D01*
X100399000Y-71410000D01*
X105809353Y-71410000D01*
X105867544Y-71428907D01*
G37*
%TD.AperFunction*%
%TA.AperFunction,Conductor*%
G36*
X123959627Y-71428907D02*
G01*
X123995591Y-71478407D01*
X123995591Y-71539593D01*
X123959627Y-71589093D01*
X123950937Y-71594736D01*
X123942688Y-71599498D01*
X123849496Y-71692690D01*
X123783609Y-71806809D01*
X123772118Y-71849695D01*
X123749500Y-71934108D01*
X123749500Y-72065892D01*
X123767894Y-72134540D01*
X123783609Y-72193190D01*
X123849496Y-72307309D01*
X123849498Y-72307311D01*
X123849500Y-72307314D01*
X123942686Y-72400500D01*
X123942688Y-72400501D01*
X123942690Y-72400503D01*
X124056810Y-72466390D01*
X124056808Y-72466390D01*
X124056812Y-72466391D01*
X124056814Y-72466392D01*
X124184108Y-72500500D01*
X124184110Y-72500500D01*
X124315890Y-72500500D01*
X124315892Y-72500500D01*
X124443186Y-72466392D01*
X124443188Y-72466390D01*
X124443190Y-72466390D01*
X124557309Y-72400503D01*
X124557309Y-72400502D01*
X124557314Y-72400500D01*
X124650500Y-72307314D01*
X124654434Y-72300500D01*
X124716390Y-72193190D01*
X124716390Y-72193188D01*
X124716392Y-72193186D01*
X124734963Y-72123876D01*
X124768287Y-72072562D01*
X124825409Y-72050636D01*
X124830590Y-72050500D01*
X125959521Y-72050500D01*
X126017712Y-72069407D01*
X126029525Y-72079496D01*
X126730525Y-72780496D01*
X126758302Y-72835013D01*
X126748731Y-72895445D01*
X126705466Y-72938710D01*
X126660521Y-72949500D01*
X124665479Y-72949500D01*
X124607288Y-72930593D01*
X124595476Y-72920504D01*
X124434510Y-72759539D01*
X124418853Y-72750499D01*
X124418853Y-72750500D01*
X124365989Y-72719979D01*
X124365988Y-72719978D01*
X124365987Y-72719978D01*
X124289564Y-72699500D01*
X124289562Y-72699500D01*
X124210438Y-72699500D01*
X124210435Y-72699500D01*
X124134011Y-72719978D01*
X124134007Y-72719980D01*
X124065491Y-72759538D01*
X124009538Y-72815491D01*
X123969980Y-72884007D01*
X123969978Y-72884011D01*
X123949500Y-72960435D01*
X123949500Y-73250500D01*
X123930593Y-73308691D01*
X123881093Y-73344655D01*
X123850500Y-73349500D01*
X123647870Y-73349500D01*
X123647862Y-73349501D01*
X123567505Y-73365484D01*
X123567501Y-73365486D01*
X123554999Y-73373840D01*
X123496111Y-73390447D01*
X123445001Y-73373840D01*
X123432496Y-73365485D01*
X123432495Y-73365484D01*
X123352135Y-73349500D01*
X123347320Y-73349500D01*
X123289129Y-73330593D01*
X123253165Y-73281093D01*
X123253165Y-73219907D01*
X123272572Y-73188243D01*
X123271551Y-73187460D01*
X123275496Y-73182317D01*
X123275500Y-73182314D01*
X123285185Y-73165539D01*
X123341390Y-73068190D01*
X123341390Y-73068188D01*
X123341392Y-73068186D01*
X123375500Y-72940892D01*
X123375500Y-72809108D01*
X123341392Y-72681814D01*
X123341390Y-72681811D01*
X123341390Y-72681809D01*
X123275503Y-72567690D01*
X123275501Y-72567688D01*
X123275500Y-72567686D01*
X123182314Y-72474500D01*
X123182311Y-72474498D01*
X123182309Y-72474496D01*
X123068189Y-72408609D01*
X123068191Y-72408609D01*
X123018799Y-72395375D01*
X122940892Y-72374500D01*
X122818649Y-72374500D01*
X122769150Y-72361237D01*
X122740990Y-72344979D01*
X122740988Y-72344978D01*
X122664564Y-72324500D01*
X122658129Y-72323653D01*
X122658323Y-72322175D01*
X122607287Y-72305593D01*
X122595472Y-72295501D01*
X122579494Y-72279522D01*
X122551718Y-72225005D01*
X122550679Y-72211797D01*
X122550500Y-72210442D01*
X122550500Y-72210438D01*
X122530021Y-72134011D01*
X122513762Y-72105851D01*
X122500499Y-72056351D01*
X122500499Y-71790103D01*
X122500498Y-71790092D01*
X122493972Y-71740513D01*
X122493972Y-71740511D01*
X122443225Y-71631686D01*
X122443224Y-71631685D01*
X122443224Y-71631684D01*
X122390541Y-71579001D01*
X122362766Y-71524487D01*
X122372337Y-71464055D01*
X122415602Y-71420790D01*
X122460547Y-71410000D01*
X123901436Y-71410000D01*
X123959627Y-71428907D01*
G37*
%TD.AperFunction*%
%TD*%
M02*
