M48
; DRILL file KiCad 10.0.6 date 2026-09-29T01:57:30
; FORMAT={-:-/ absolute / metric / decimal}
; #@! TF.CreationDate,2026-09-29T01:57:30-05:00
; #@! TF.GenerationSoftware,Kicad,Pcbnew,10.0.6
; #@! TF.FileFunction,Plated,1,4,PTH
FMAT,2
METRIC
; #@! TA.AperFunction,Plated,PTH,ViaDrill
T1C0.300
; #@! TA.AperFunction,Plated,PTH,ViaDrill
T2C0.350
; #@! TA.AperFunction,Plated,PTH,ComponentDrill
T3C1.000
; #@! TA.AperFunction,Plated,PTH,ComponentDrill
T4C1.200
%
G90
G05
T1
X195.9Y-80.0
X198.62Y-80.0
T2
X101.9Y-87.2
X102.4Y-72.4
X106.045Y-78.8
X106.1Y-72.4
X106.7Y-85.45
X106.8Y-84.15
X107.2Y-76.15
X108.05Y-78.0
X109.0Y-82.35
X109.725Y-74.9
X110.0Y-77.35
X110.29Y-75.4
X111.31Y-75.4
X111.35Y-87.35
X115.0Y-84.875
X115.17Y-86.62
X115.55Y-76.1
X116.025Y-79.0
X117.95Y-88.35
X118.6Y-78.9
X120.2Y-88.26
X121.25Y-76.25
X121.25Y-78.25
X121.25Y-81.0
X121.25Y-82.25
X123.11Y-71.65
X124.52Y-71.65
X124.52Y-88.35
X125.48Y-71.65
X125.48Y-88.35
X126.75Y-87.1
X127.75Y-75.65
X129.6Y-72.25
X129.7Y-86.95
X132.75Y-78.8
X132.75Y-81.2
X134.0Y-76.195
X134.0Y-81.62
X134.05Y-74.05
X134.45Y-83.2
X134.85Y-81.62
X135.0Y-85.92
X135.43Y-83.25
X136.15Y-85.5
X136.2Y-76.195
X136.202Y-81.2
X136.25Y-74.05
X137.447Y-80.0
X139.0Y-88.25
X139.25Y-76.42
X139.75Y-81.8
X139.76Y-73.15
X140.25Y-78.4
X140.4Y-84.3
X140.4Y-85.17
X140.55Y-81.3
X140.85Y-72.0
X140.85Y-88.0
X141.6Y-72.58
X141.6Y-87.42
X142.2Y-75.6
X142.2Y-77.8
X142.2Y-82.2
X142.2Y-84.4
X174.34Y-72.0
X174.34Y-88.0
X195.13Y-80.0
T3
X107.595Y-72.5
X110.135Y-72.5
X112.675Y-72.5
X115.215Y-72.5
X117.755Y-72.5
T4
X101.8Y-76.0
X101.8Y-80.0
X101.8Y-84.0
M30
