%TF.GenerationSoftware,KiCad,Pcbnew,10.0.6*%
%TF.CreationDate,2026-09-25T01:06:33-05:00*%
%TF.ProjectId,hp_sensor_routed,68705f73-656e-4736-9f72-5f726f757465,rev?*%
%TF.SameCoordinates,Original*%
%TF.FileFunction,Profile,NP*%
%FSLAX46Y46*%
G04 Gerber Fmt 4.6, Leading zero omitted, Abs format (unit mm)*
G04 Created by KiCad (PCBNEW 10.0.6) date 2026-09-25 01:06:33*
%MOMM*%
%LPD*%
G01*
G04 APERTURE LIST*
%TA.AperFunction,Profile*%
%ADD10C,0.100000*%
%TD*%
G04 APERTURE END LIST*
D10*
X100000000Y-71110000D02*
X143180000Y-71110000D01*
X100000000Y-88890000D02*
X100000000Y-71110000D01*
X143180000Y-71110000D02*
X144680000Y-71300000D01*
X143180000Y-73510000D02*
X143180000Y-78800000D01*
X143180000Y-78800000D02*
X144680000Y-79300000D01*
X143180000Y-81200000D02*
X143180000Y-86490000D01*
X143180000Y-86490000D02*
X144680000Y-87300000D01*
X143180000Y-88890000D02*
X100000000Y-88890000D01*
X144680000Y-71300000D02*
X174980000Y-71300000D01*
X144680000Y-72700000D02*
X143180000Y-73510000D01*
X144680000Y-79300000D02*
X199260000Y-79300000D01*
X144680000Y-80700000D02*
X143180000Y-81200000D01*
X144680000Y-87300000D02*
X174980000Y-87300000D01*
X144680000Y-88700000D02*
X143180000Y-88890000D01*
X174980000Y-71300000D02*
X175580000Y-71600000D01*
X174980000Y-72700000D02*
X144680000Y-72700000D01*
X174980000Y-87300000D02*
X175580000Y-87600000D01*
X174980000Y-88700000D02*
X144680000Y-88700000D01*
X175580000Y-71600000D02*
X175580000Y-72400000D01*
X175580000Y-72400000D02*
X174980000Y-72700000D01*
X175580000Y-87600000D02*
X175580000Y-88400000D01*
X175580000Y-88400000D02*
X174980000Y-88700000D01*
X199260000Y-79300000D02*
X199860000Y-79600000D01*
X199260000Y-80700000D02*
X144680000Y-80700000D01*
X199860000Y-79600000D02*
X199860000Y-80400000D01*
X199860000Y-80400000D02*
X199260000Y-80700000D01*
M02*
