%TF.GenerationSoftware,KiCad,Pcbnew,10.0.6*%
%TF.CreationDate,2026-10-01T21:56:18-05:00*%
%TF.ProjectId,hp_sensor_routed,68705f73-656e-4736-9f72-5f726f757465,rev?*%
%TF.SameCoordinates,Original*%
%TF.FileFunction,Legend,Top*%
%TF.FilePolarity,Positive*%
%FSLAX46Y46*%
G04 Gerber Fmt 4.6, Leading zero omitted, Abs format (unit mm)*
G04 Created by KiCad (PCBNEW 10.0.6) date 2026-10-01 21:56:18*
%MOMM*%
%LPD*%
G01*
G04 APERTURE LIST*
%ADD10C,0.120000*%
%ADD11C,0.150000*%
G04 APERTURE END LIST*
%TO.C,R21*%
D10*
X134777500Y-72987742D02*
X134777500Y-73462258D01*
X135822500Y-72987742D02*
X135822500Y-73462258D01*
%TO.C,R1*%
X116246359Y-86240000D02*
X116553641Y-86240000D01*
X116246359Y-87000000D02*
X116553641Y-87000000D01*
%TO.C,C7*%
X124892164Y-72040000D02*
X125107836Y-72040000D01*
X124892164Y-72760000D02*
X125107836Y-72760000D01*
%TO.C,U4*%
X136390000Y-82990000D02*
X136565000Y-82990000D01*
X136390000Y-86210000D02*
X136390000Y-82990000D01*
X136565000Y-86210000D02*
X136390000Y-86210000D01*
X139435000Y-82990000D02*
X139610000Y-82990000D01*
X139610000Y-82990000D02*
X139610000Y-86210000D01*
X139610000Y-86210000D02*
X139435000Y-86210000D01*
X136560000Y-86760000D02*
X136230000Y-87000000D01*
X136230000Y-86520000D01*
X136560000Y-86760000D01*
G36*
X136560000Y-86760000D02*
G01*
X136230000Y-87000000D01*
X136230000Y-86520000D01*
X136560000Y-86760000D01*
G37*
%TO.C,C9*%
X132390000Y-80107836D02*
X132390000Y-79892164D01*
X133110000Y-80107836D02*
X133110000Y-79892164D01*
%TO.C,C8*%
X124892164Y-87240000D02*
X125107836Y-87240000D01*
X124892164Y-87960000D02*
X125107836Y-87960000D01*
%TO.C,C17*%
X103938748Y-71665000D02*
X104461252Y-71665000D01*
X103938748Y-73135000D02*
X104461252Y-73135000D01*
%TO.C,R11*%
X133096359Y-85120000D02*
X133403641Y-85120000D01*
X133096359Y-85880000D02*
X133403641Y-85880000D01*
%TO.C,R23*%
X132677499Y-83537258D02*
X132677499Y-83062742D01*
X133722499Y-83537258D02*
X133722499Y-83062742D01*
%TO.C,C23*%
X134842164Y-82040000D02*
X135057836Y-82040000D01*
X134842164Y-82760000D02*
X135057836Y-82760000D01*
%TO.C,R22*%
X132577500Y-72987742D02*
X132577500Y-73462258D01*
X133622500Y-72987742D02*
X133622500Y-73462258D01*
%TO.C,R7*%
X140020000Y-86346359D02*
X140020000Y-86653641D01*
X140780000Y-86346359D02*
X140780000Y-86653641D01*
%TO.C,C11*%
X117590000Y-86992164D02*
X117590000Y-87207836D01*
X118310000Y-86992164D02*
X118310000Y-87207836D01*
%TO.C,D4*%
X105410000Y-86350000D02*
X102750000Y-86350000D01*
X105410000Y-88050000D02*
X102750000Y-88050000D01*
X105410000Y-88050000D02*
X105410000Y-86350000D01*
%TO.C,R9*%
X139153641Y-78020000D02*
X138846359Y-78020000D01*
X139153641Y-78780000D02*
X138846359Y-78780000D01*
%TO.C,R15*%
X120346359Y-72020000D02*
X120653641Y-72020000D01*
X120346359Y-72780000D02*
X120653641Y-72780000D01*
%TO.C,C10*%
X127759420Y-71740000D02*
X128040580Y-71740000D01*
X127759420Y-72760000D02*
X128040580Y-72760000D01*
%TO.C,R10*%
X138110000Y-77083641D02*
X138110000Y-76776359D01*
X138870000Y-77083641D02*
X138870000Y-76776359D01*
%TO.C,C24*%
X137090000Y-75607164D02*
X137090000Y-75822836D01*
X137810000Y-75607164D02*
X137810000Y-75822836D01*
%TO.C,R16*%
X122446359Y-72020000D02*
X122753641Y-72020000D01*
X122446359Y-72780000D02*
X122753641Y-72780000D01*
%TO.C,TH2*%
X197106359Y-79620000D02*
X197413641Y-79620000D01*
X197106359Y-80380000D02*
X197413641Y-80380000D01*
%TO.C,C1*%
X104965000Y-82938748D02*
X104965000Y-83461252D01*
X106435000Y-82938748D02*
X106435000Y-83461252D01*
%TO.C,R2*%
X110953641Y-73820000D02*
X110646359Y-73820000D01*
X110953641Y-74580000D02*
X110646359Y-74580000D01*
%TO.C,D7*%
X118505000Y-79150000D02*
X115845000Y-79150000D01*
X118505000Y-80850000D02*
X115845000Y-80850000D01*
X118505000Y-80850000D02*
X118505000Y-79150000D01*
%TO.C,C16*%
X116940580Y-77540000D02*
X116659420Y-77540000D01*
X116940580Y-78560000D02*
X116659420Y-78560000D01*
%TO.C,D2*%
X103590000Y-76300000D02*
X103590000Y-78300000D01*
X103590000Y-76300000D02*
X107450000Y-76300000D01*
X103590000Y-78300000D02*
X107450000Y-78300000D01*
%TO.C,TH3*%
X172826359Y-87620000D02*
X173133641Y-87620000D01*
X172826359Y-88380000D02*
X173133641Y-88380000D01*
%TO.C,C21*%
X134940000Y-75607164D02*
X134940000Y-75822836D01*
X135660000Y-75607164D02*
X135660000Y-75822836D01*
%TO.C,C2*%
X115590000Y-82688748D02*
X115590000Y-84111252D01*
X117410000Y-82688748D02*
X117410000Y-84111252D01*
%TO.C,D5*%
X114990000Y-74350000D02*
X114990000Y-76050000D01*
X114990000Y-74350000D02*
X117650000Y-74350000D01*
X114990000Y-76050000D02*
X117650000Y-76050000D01*
%TO.C,C12*%
X140040000Y-82842164D02*
X140040000Y-83057836D01*
X140760000Y-82842164D02*
X140760000Y-83057836D01*
%TO.C,L1*%
X110785000Y-77890000D02*
X115005000Y-77890000D01*
X115005000Y-82110000D02*
X110785000Y-82110000D01*
%TO.C,U3*%
D11*
X106875000Y-78750000D02*
G75*
G02*
X106725000Y-78750000I-75000J0D01*
G01*
X106725000Y-78750000D02*
G75*
G02*
X106875000Y-78750000I75000J0D01*
G01*
%TO.C,C3*%
D10*
X106688748Y-73990000D02*
X108111252Y-73990000D01*
X106688748Y-75810000D02*
X108111252Y-75810000D01*
%TO.C,R6*%
X134620000Y-87066359D02*
X134620000Y-87373641D01*
X135380000Y-87066359D02*
X135380000Y-87373641D01*
%TO.C,R3*%
X109162742Y-86677500D02*
X109637258Y-86677500D01*
X109162742Y-87722500D02*
X109637258Y-87722500D01*
%TO.C,C13*%
X139172164Y-72040000D02*
X139387836Y-72040000D01*
X139172164Y-72760000D02*
X139387836Y-72760000D01*
%TO.C,R24*%
X136927500Y-72987742D02*
X136927500Y-73462258D01*
X137972500Y-72987742D02*
X137972500Y-73462258D01*
%TO.C,R14*%
X119020000Y-87903641D02*
X119020000Y-87596359D01*
X119780000Y-87903641D02*
X119780000Y-87596359D01*
%TO.C,D1*%
X106555000Y-79150000D02*
X103895000Y-79150000D01*
X106555000Y-80850000D02*
X103895000Y-80850000D01*
X106555000Y-80850000D02*
X106555000Y-79150000D01*
%TO.C,TH4*%
X139096359Y-73670000D02*
X139403641Y-73670000D01*
X139096359Y-74430000D02*
X139403641Y-74430000D01*
%TO.C,R5*%
X139072936Y-79265000D02*
X139527064Y-79265000D01*
X139072936Y-80735000D02*
X139527064Y-80735000D01*
%TO.C,C4*%
X105740000Y-86827836D02*
X105740000Y-86612164D01*
X106460000Y-86827836D02*
X106460000Y-86612164D01*
%TO.C,TH1*%
X172826359Y-71620000D02*
X173133641Y-71620000D01*
X172826359Y-72380000D02*
X173133641Y-72380000D01*
%TO.C,C18*%
X107642164Y-81590000D02*
X107857836Y-81590000D01*
X107642164Y-82310000D02*
X107857836Y-82310000D01*
%TO.C,C22*%
X132740000Y-75607164D02*
X132740000Y-75822836D01*
X133460000Y-75607164D02*
X133460000Y-75822836D01*
%TO.C,R4*%
X106920000Y-86873641D02*
X106920000Y-86566359D01*
X107680000Y-86873641D02*
X107680000Y-86566359D01*
%TO.C,C20*%
X109640000Y-78607836D02*
X109640000Y-78392164D01*
X110360000Y-78607836D02*
X110360000Y-78392164D01*
%TO.C,U1*%
X120390000Y-74890000D02*
X121340000Y-74890000D01*
X120390000Y-75840000D02*
X120390000Y-74890000D01*
X120390000Y-85110000D02*
X120390000Y-84160000D01*
X121340000Y-85110000D02*
X120390000Y-85110000D01*
X129660000Y-74890000D02*
X130610000Y-74890000D01*
X130610000Y-74890000D02*
X130610000Y-75840000D01*
X130610000Y-84160000D02*
X130610000Y-85110000D01*
X130610000Y-85110000D02*
X129660000Y-85110000D01*
X129660000Y-74250000D02*
X130130000Y-73910000D01*
X130130000Y-74590000D01*
X129660000Y-74250000D01*
G36*
X130130000Y-74590000D02*
G01*
X129660000Y-74250000D01*
X130130000Y-73910000D01*
X130130000Y-74590000D01*
G37*
%TO.C,Q1*%
X134475000Y-78440000D02*
X135995000Y-78440000D01*
X134475000Y-78490000D02*
X134475000Y-78440000D01*
X134475000Y-80390000D02*
X134475000Y-79610000D01*
X134475000Y-81560000D02*
X134475000Y-81510000D01*
X135995000Y-78440000D02*
X135995000Y-79440000D01*
X135995000Y-80560000D02*
X135995000Y-81560000D01*
X135995000Y-81560000D02*
X134475000Y-81560000D01*
X133935000Y-79620000D02*
X134175000Y-79950000D01*
X133695000Y-79950000D01*
X133935000Y-79620000D01*
G36*
X134175000Y-79950000D02*
G01*
X133695000Y-79950000D01*
X133935000Y-79620000D01*
X134175000Y-79950000D01*
G37*
%TO.C,C19*%
X109640000Y-80442164D02*
X109640000Y-80657836D01*
X110360000Y-80442164D02*
X110360000Y-80657836D01*
%TD*%
%LPC*%
G36*
X119636662Y-88000276D02*
G01*
X119680459Y-88029541D01*
X119709724Y-88073338D01*
X119720000Y-88125000D01*
X119720000Y-88395000D01*
X119709724Y-88446662D01*
X119680459Y-88490459D01*
X119636662Y-88519724D01*
X119585000Y-88530000D01*
X119215000Y-88530000D01*
X119163338Y-88519724D01*
X119119541Y-88490459D01*
X119090276Y-88446662D01*
X119080000Y-88395000D01*
X119080000Y-88125000D01*
X119090276Y-88073338D01*
X119119541Y-88029541D01*
X119163338Y-88000276D01*
X119215000Y-87990000D01*
X119585000Y-87990000D01*
X119636662Y-88000276D01*
G37*
G36*
X172656662Y-87690276D02*
G01*
X172700459Y-87719541D01*
X172729724Y-87763338D01*
X172740000Y-87815000D01*
X172740000Y-88185000D01*
X172729724Y-88236662D01*
X172700459Y-88280459D01*
X172656662Y-88309724D01*
X172605000Y-88320000D01*
X172335000Y-88320000D01*
X172283338Y-88309724D01*
X172239541Y-88280459D01*
X172210276Y-88236662D01*
X172200000Y-88185000D01*
X172200000Y-87815000D01*
X172210276Y-87763338D01*
X172239541Y-87719541D01*
X172283338Y-87690276D01*
X172335000Y-87680000D01*
X172605000Y-87680000D01*
X172656662Y-87690276D01*
G37*
G36*
X173676662Y-87690276D02*
G01*
X173720459Y-87719541D01*
X173749724Y-87763338D01*
X173760000Y-87815000D01*
X173760000Y-88185000D01*
X173749724Y-88236662D01*
X173720459Y-88280459D01*
X173676662Y-88309724D01*
X173625000Y-88320000D01*
X173355000Y-88320000D01*
X173303338Y-88309724D01*
X173259541Y-88280459D01*
X173230276Y-88236662D01*
X173220000Y-88185000D01*
X173220000Y-87815000D01*
X173230276Y-87763338D01*
X173259541Y-87719541D01*
X173303338Y-87690276D01*
X173355000Y-87680000D01*
X173625000Y-87680000D01*
X173676662Y-87690276D01*
G37*
G36*
X135236662Y-87470276D02*
G01*
X135280459Y-87499541D01*
X135309724Y-87543338D01*
X135320000Y-87595000D01*
X135320000Y-87865000D01*
X135309724Y-87916662D01*
X135280459Y-87960459D01*
X135236662Y-87989724D01*
X135185000Y-88000000D01*
X134815000Y-88000000D01*
X134763338Y-87989724D01*
X134719541Y-87960459D01*
X134690276Y-87916662D01*
X134680000Y-87865000D01*
X134680000Y-87595000D01*
X134690276Y-87543338D01*
X134719541Y-87499541D01*
X134763338Y-87470276D01*
X134815000Y-87460000D01*
X135185000Y-87460000D01*
X135236662Y-87470276D01*
G37*
G36*
X124713576Y-87300657D02*
G01*
X124758995Y-87331005D01*
X124789343Y-87376424D01*
X124800000Y-87430000D01*
X124800000Y-87770000D01*
X124789343Y-87823576D01*
X124758995Y-87868995D01*
X124713576Y-87899343D01*
X124660000Y-87910000D01*
X124380000Y-87910000D01*
X124326424Y-87899343D01*
X124281005Y-87868995D01*
X124250657Y-87823576D01*
X124240000Y-87770000D01*
X124240000Y-87430000D01*
X124250657Y-87376424D01*
X124281005Y-87331005D01*
X124326424Y-87300657D01*
X124380000Y-87290000D01*
X124660000Y-87290000D01*
X124713576Y-87300657D01*
G37*
G36*
X125673576Y-87300657D02*
G01*
X125718995Y-87331005D01*
X125749343Y-87376424D01*
X125760000Y-87430000D01*
X125760000Y-87770000D01*
X125749343Y-87823576D01*
X125718995Y-87868995D01*
X125673576Y-87899343D01*
X125620000Y-87910000D01*
X125340000Y-87910000D01*
X125286424Y-87899343D01*
X125241005Y-87868995D01*
X125210657Y-87823576D01*
X125200000Y-87770000D01*
X125200000Y-87430000D01*
X125210657Y-87376424D01*
X125241005Y-87331005D01*
X125286424Y-87300657D01*
X125340000Y-87290000D01*
X125620000Y-87290000D01*
X125673576Y-87300657D01*
G37*
G36*
X118173576Y-87310657D02*
G01*
X118218995Y-87341005D01*
X118249343Y-87386424D01*
X118260000Y-87440000D01*
X118260000Y-87720000D01*
X118249343Y-87773576D01*
X118218995Y-87818995D01*
X118173576Y-87849343D01*
X118120000Y-87860000D01*
X117780000Y-87860000D01*
X117726424Y-87849343D01*
X117681005Y-87818995D01*
X117650657Y-87773576D01*
X117640000Y-87720000D01*
X117640000Y-87440000D01*
X117650657Y-87386424D01*
X117681005Y-87341005D01*
X117726424Y-87310657D01*
X117780000Y-87300000D01*
X118120000Y-87300000D01*
X118173576Y-87310657D01*
G37*
G36*
X108851537Y-86740224D02*
G01*
X108916421Y-86783579D01*
X108959776Y-86848463D01*
X108975000Y-86925000D01*
X108975000Y-87475000D01*
X108959776Y-87551537D01*
X108916421Y-87616421D01*
X108851537Y-87659776D01*
X108775000Y-87675000D01*
X108375000Y-87675000D01*
X108298463Y-87659776D01*
X108233579Y-87616421D01*
X108190224Y-87551537D01*
X108175000Y-87475000D01*
X108175000Y-86925000D01*
X108190224Y-86848463D01*
X108233579Y-86783579D01*
X108298463Y-86740224D01*
X108375000Y-86725000D01*
X108775000Y-86725000D01*
X108851537Y-86740224D01*
G37*
G36*
X110501537Y-86740224D02*
G01*
X110566421Y-86783579D01*
X110609776Y-86848463D01*
X110625000Y-86925000D01*
X110625000Y-87475000D01*
X110609776Y-87551537D01*
X110566421Y-87616421D01*
X110501537Y-87659776D01*
X110425000Y-87675000D01*
X110025000Y-87675000D01*
X109948463Y-87659776D01*
X109883579Y-87616421D01*
X109840224Y-87551537D01*
X109825000Y-87475000D01*
X109825000Y-86925000D01*
X109840224Y-86848463D01*
X109883579Y-86783579D01*
X109948463Y-86740224D01*
X110025000Y-86725000D01*
X110425000Y-86725000D01*
X110501537Y-86740224D01*
G37*
G36*
X119636662Y-86980276D02*
G01*
X119680459Y-87009541D01*
X119709724Y-87053338D01*
X119720000Y-87105000D01*
X119720000Y-87375000D01*
X119709724Y-87426662D01*
X119680459Y-87470459D01*
X119636662Y-87499724D01*
X119585000Y-87510000D01*
X119215000Y-87510000D01*
X119163338Y-87499724D01*
X119119541Y-87470459D01*
X119090276Y-87426662D01*
X119080000Y-87375000D01*
X119080000Y-87105000D01*
X119090276Y-87053338D01*
X119119541Y-87009541D01*
X119163338Y-86980276D01*
X119215000Y-86970000D01*
X119585000Y-86970000D01*
X119636662Y-86980276D01*
G37*
G36*
X107536662Y-86970276D02*
G01*
X107580459Y-86999541D01*
X107609724Y-87043338D01*
X107620000Y-87095000D01*
X107620000Y-87365000D01*
X107609724Y-87416662D01*
X107580459Y-87460459D01*
X107536662Y-87489724D01*
X107485000Y-87500000D01*
X107115000Y-87500000D01*
X107063338Y-87489724D01*
X107019541Y-87460459D01*
X106990276Y-87416662D01*
X106980000Y-87365000D01*
X106980000Y-87095000D01*
X106990276Y-87043338D01*
X107019541Y-86999541D01*
X107063338Y-86970276D01*
X107115000Y-86960000D01*
X107485000Y-86960000D01*
X107536662Y-86970276D01*
G37*
G36*
X106323576Y-86930657D02*
G01*
X106368995Y-86961005D01*
X106399343Y-87006424D01*
X106410000Y-87060000D01*
X106410000Y-87340000D01*
X106399343Y-87393576D01*
X106368995Y-87438995D01*
X106323576Y-87469343D01*
X106270000Y-87480000D01*
X105930000Y-87480000D01*
X105876424Y-87469343D01*
X105831005Y-87438995D01*
X105800657Y-87393576D01*
X105790000Y-87340000D01*
X105790000Y-87060000D01*
X105800657Y-87006424D01*
X105831005Y-86961005D01*
X105876424Y-86930657D01*
X105930000Y-86920000D01*
X106270000Y-86920000D01*
X106323576Y-86930657D01*
G37*
G36*
X137120985Y-85956661D02*
G01*
X137149372Y-85975628D01*
X137168339Y-86004015D01*
X137175000Y-86037500D01*
X137175000Y-87362500D01*
X137168339Y-87395985D01*
X137149372Y-87424372D01*
X137120985Y-87443339D01*
X137087500Y-87450000D01*
X136912500Y-87450000D01*
X136879015Y-87443339D01*
X136850628Y-87424372D01*
X136831661Y-87395985D01*
X136825000Y-87362500D01*
X136825000Y-86037500D01*
X136831661Y-86004015D01*
X136850628Y-85975628D01*
X136879015Y-85956661D01*
X136912500Y-85950000D01*
X137087500Y-85950000D01*
X137120985Y-85956661D01*
G37*
G36*
X137620985Y-85956661D02*
G01*
X137649372Y-85975628D01*
X137668339Y-86004015D01*
X137675000Y-86037500D01*
X137675000Y-87362500D01*
X137668339Y-87395985D01*
X137649372Y-87424372D01*
X137620985Y-87443339D01*
X137587500Y-87450000D01*
X137412500Y-87450000D01*
X137379015Y-87443339D01*
X137350628Y-87424372D01*
X137331661Y-87395985D01*
X137325000Y-87362500D01*
X137325000Y-86037500D01*
X137331661Y-86004015D01*
X137350628Y-85975628D01*
X137379015Y-85956661D01*
X137412500Y-85950000D01*
X137587500Y-85950000D01*
X137620985Y-85956661D01*
G37*
G36*
X138120985Y-85956661D02*
G01*
X138149372Y-85975628D01*
X138168339Y-86004015D01*
X138175000Y-86037500D01*
X138175000Y-87362500D01*
X138168339Y-87395985D01*
X138149372Y-87424372D01*
X138120985Y-87443339D01*
X138087500Y-87450000D01*
X137912500Y-87450000D01*
X137879015Y-87443339D01*
X137850628Y-87424372D01*
X137831661Y-87395985D01*
X137825000Y-87362500D01*
X137825000Y-86037500D01*
X137831661Y-86004015D01*
X137850628Y-85975628D01*
X137879015Y-85956661D01*
X137912500Y-85950000D01*
X138087500Y-85950000D01*
X138120985Y-85956661D01*
G37*
G36*
X138620985Y-85956661D02*
G01*
X138649372Y-85975628D01*
X138668339Y-86004015D01*
X138675000Y-86037500D01*
X138675000Y-87362500D01*
X138668339Y-87395985D01*
X138649372Y-87424372D01*
X138620985Y-87443339D01*
X138587500Y-87450000D01*
X138412500Y-87450000D01*
X138379015Y-87443339D01*
X138350628Y-87424372D01*
X138331661Y-87395985D01*
X138325000Y-87362500D01*
X138325000Y-86037500D01*
X138331661Y-86004015D01*
X138350628Y-85975628D01*
X138379015Y-85956661D01*
X138412500Y-85950000D01*
X138587500Y-85950000D01*
X138620985Y-85956661D01*
G37*
G36*
X139120985Y-85956661D02*
G01*
X139149372Y-85975628D01*
X139168339Y-86004015D01*
X139175000Y-86037500D01*
X139175000Y-87362500D01*
X139168339Y-87395985D01*
X139149372Y-87424372D01*
X139120985Y-87443339D01*
X139087500Y-87450000D01*
X138912500Y-87450000D01*
X138879015Y-87443339D01*
X138850628Y-87424372D01*
X138831661Y-87395985D01*
X138825000Y-87362500D01*
X138825000Y-86037500D01*
X138831661Y-86004015D01*
X138850628Y-85975628D01*
X138879015Y-85956661D01*
X138912500Y-85950000D01*
X139087500Y-85950000D01*
X139120985Y-85956661D01*
G37*
G36*
X102980552Y-86983564D02*
G01*
X103017050Y-87007950D01*
X103041436Y-87044448D01*
X103050000Y-87087500D01*
X103050000Y-87312500D01*
X103041436Y-87355552D01*
X103017050Y-87392050D01*
X102980552Y-87416436D01*
X102937500Y-87425000D01*
X102562500Y-87425000D01*
X102519448Y-87416436D01*
X102482950Y-87392050D01*
X102458564Y-87355552D01*
X102450000Y-87312500D01*
X102450000Y-87087500D01*
X102458564Y-87044448D01*
X102482950Y-87007950D01*
X102519448Y-86983564D01*
X102562500Y-86975000D01*
X102937500Y-86975000D01*
X102980552Y-86983564D01*
G37*
G36*
X105080552Y-86983564D02*
G01*
X105117050Y-87007950D01*
X105141436Y-87044448D01*
X105150000Y-87087500D01*
X105150000Y-87312500D01*
X105141436Y-87355552D01*
X105117050Y-87392050D01*
X105080552Y-87416436D01*
X105037500Y-87425000D01*
X104662500Y-87425000D01*
X104619448Y-87416436D01*
X104582950Y-87392050D01*
X104558564Y-87355552D01*
X104550000Y-87312500D01*
X104550000Y-87087500D01*
X104558564Y-87044448D01*
X104582950Y-87007950D01*
X104619448Y-86983564D01*
X104662500Y-86975000D01*
X105037500Y-86975000D01*
X105080552Y-86983564D01*
G37*
G36*
X140636662Y-86750276D02*
G01*
X140680459Y-86779541D01*
X140709724Y-86823338D01*
X140720000Y-86875000D01*
X140720000Y-87145000D01*
X140709724Y-87196662D01*
X140680459Y-87240459D01*
X140636662Y-87269724D01*
X140585000Y-87280000D01*
X140215000Y-87280000D01*
X140163338Y-87269724D01*
X140119541Y-87240459D01*
X140090276Y-87196662D01*
X140080000Y-87145000D01*
X140080000Y-86875000D01*
X140090276Y-86823338D01*
X140119541Y-86779541D01*
X140163338Y-86750276D01*
X140215000Y-86740000D01*
X140585000Y-86740000D01*
X140636662Y-86750276D01*
G37*
G36*
X135236662Y-86450276D02*
G01*
X135280459Y-86479541D01*
X135309724Y-86523338D01*
X135320000Y-86575000D01*
X135320000Y-86845000D01*
X135309724Y-86896662D01*
X135280459Y-86940459D01*
X135236662Y-86969724D01*
X135185000Y-86980000D01*
X134815000Y-86980000D01*
X134763338Y-86969724D01*
X134719541Y-86940459D01*
X134690276Y-86896662D01*
X134680000Y-86845000D01*
X134680000Y-86575000D01*
X134690276Y-86523338D01*
X134719541Y-86479541D01*
X134763338Y-86450276D01*
X134815000Y-86440000D01*
X135185000Y-86440000D01*
X135236662Y-86450276D01*
G37*
G36*
X116076662Y-86310276D02*
G01*
X116120459Y-86339541D01*
X116149724Y-86383338D01*
X116160000Y-86435000D01*
X116160000Y-86805000D01*
X116149724Y-86856662D01*
X116120459Y-86900459D01*
X116076662Y-86929724D01*
X116025000Y-86940000D01*
X115755000Y-86940000D01*
X115703338Y-86929724D01*
X115659541Y-86900459D01*
X115630276Y-86856662D01*
X115620000Y-86805000D01*
X115620000Y-86435000D01*
X115630276Y-86383338D01*
X115659541Y-86339541D01*
X115703338Y-86310276D01*
X115755000Y-86300000D01*
X116025000Y-86300000D01*
X116076662Y-86310276D01*
G37*
G36*
X117096662Y-86310276D02*
G01*
X117140459Y-86339541D01*
X117169724Y-86383338D01*
X117180000Y-86435000D01*
X117180000Y-86805000D01*
X117169724Y-86856662D01*
X117140459Y-86900459D01*
X117096662Y-86929724D01*
X117045000Y-86940000D01*
X116775000Y-86940000D01*
X116723338Y-86929724D01*
X116679541Y-86900459D01*
X116650276Y-86856662D01*
X116640000Y-86805000D01*
X116640000Y-86435000D01*
X116650276Y-86383338D01*
X116679541Y-86339541D01*
X116723338Y-86310276D01*
X116775000Y-86300000D01*
X117045000Y-86300000D01*
X117096662Y-86310276D01*
G37*
G36*
X118173576Y-86350657D02*
G01*
X118218995Y-86381005D01*
X118249343Y-86426424D01*
X118260000Y-86480000D01*
X118260000Y-86760000D01*
X118249343Y-86813576D01*
X118218995Y-86858995D01*
X118173576Y-86889343D01*
X118120000Y-86900000D01*
X117780000Y-86900000D01*
X117726424Y-86889343D01*
X117681005Y-86858995D01*
X117650657Y-86813576D01*
X117640000Y-86760000D01*
X117640000Y-86480000D01*
X117650657Y-86426424D01*
X117681005Y-86381005D01*
X117726424Y-86350657D01*
X117780000Y-86340000D01*
X118120000Y-86340000D01*
X118173576Y-86350657D01*
G37*
G36*
X106323576Y-85970657D02*
G01*
X106368995Y-86001005D01*
X106399343Y-86046424D01*
X106410000Y-86100000D01*
X106410000Y-86380000D01*
X106399343Y-86433576D01*
X106368995Y-86478995D01*
X106323576Y-86509343D01*
X106270000Y-86520000D01*
X105930000Y-86520000D01*
X105876424Y-86509343D01*
X105831005Y-86478995D01*
X105800657Y-86433576D01*
X105790000Y-86380000D01*
X105790000Y-86100000D01*
X105800657Y-86046424D01*
X105831005Y-86001005D01*
X105876424Y-85970657D01*
X105930000Y-85960000D01*
X106270000Y-85960000D01*
X106323576Y-85970657D01*
G37*
G36*
X107536662Y-85950276D02*
G01*
X107580459Y-85979541D01*
X107609724Y-86023338D01*
X107620000Y-86075000D01*
X107620000Y-86345000D01*
X107609724Y-86396662D01*
X107580459Y-86440459D01*
X107536662Y-86469724D01*
X107485000Y-86480000D01*
X107115000Y-86480000D01*
X107063338Y-86469724D01*
X107019541Y-86440459D01*
X106990276Y-86396662D01*
X106980000Y-86345000D01*
X106980000Y-86075000D01*
X106990276Y-86023338D01*
X107019541Y-85979541D01*
X107063338Y-85950276D01*
X107115000Y-85940000D01*
X107485000Y-85940000D01*
X107536662Y-85950276D01*
G37*
G36*
X121853701Y-84905709D02*
G01*
X121878033Y-84921967D01*
X121894291Y-84946299D01*
X121900000Y-84975000D01*
X121900000Y-86375000D01*
X121894291Y-86403701D01*
X121878033Y-86428033D01*
X121853701Y-86444291D01*
X121825000Y-86450000D01*
X121675000Y-86450000D01*
X121646299Y-86444291D01*
X121621967Y-86428033D01*
X121605709Y-86403701D01*
X121600000Y-86375000D01*
X121600000Y-84975000D01*
X121605709Y-84946299D01*
X121621967Y-84921967D01*
X121646299Y-84905709D01*
X121675000Y-84900000D01*
X121825000Y-84900000D01*
X121853701Y-84905709D01*
G37*
G36*
X122353701Y-84905709D02*
G01*
X122378033Y-84921967D01*
X122394291Y-84946299D01*
X122400000Y-84975000D01*
X122400000Y-86375000D01*
X122394291Y-86403701D01*
X122378033Y-86428033D01*
X122353701Y-86444291D01*
X122325000Y-86450000D01*
X122175000Y-86450000D01*
X122146299Y-86444291D01*
X122121967Y-86428033D01*
X122105709Y-86403701D01*
X122100000Y-86375000D01*
X122100000Y-84975000D01*
X122105709Y-84946299D01*
X122121967Y-84921967D01*
X122146299Y-84905709D01*
X122175000Y-84900000D01*
X122325000Y-84900000D01*
X122353701Y-84905709D01*
G37*
G36*
X122853701Y-84905709D02*
G01*
X122878033Y-84921967D01*
X122894291Y-84946299D01*
X122900000Y-84975000D01*
X122900000Y-86375000D01*
X122894291Y-86403701D01*
X122878033Y-86428033D01*
X122853701Y-86444291D01*
X122825000Y-86450000D01*
X122675000Y-86450000D01*
X122646299Y-86444291D01*
X122621967Y-86428033D01*
X122605709Y-86403701D01*
X122600000Y-86375000D01*
X122600000Y-84975000D01*
X122605709Y-84946299D01*
X122621967Y-84921967D01*
X122646299Y-84905709D01*
X122675000Y-84900000D01*
X122825000Y-84900000D01*
X122853701Y-84905709D01*
G37*
G36*
X123353701Y-84905709D02*
G01*
X123378033Y-84921967D01*
X123394291Y-84946299D01*
X123400000Y-84975000D01*
X123400000Y-86375000D01*
X123394291Y-86403701D01*
X123378033Y-86428033D01*
X123353701Y-86444291D01*
X123325000Y-86450000D01*
X123175000Y-86450000D01*
X123146299Y-86444291D01*
X123121967Y-86428033D01*
X123105709Y-86403701D01*
X123100000Y-86375000D01*
X123100000Y-84975000D01*
X123105709Y-84946299D01*
X123121967Y-84921967D01*
X123146299Y-84905709D01*
X123175000Y-84900000D01*
X123325000Y-84900000D01*
X123353701Y-84905709D01*
G37*
G36*
X123853701Y-84905709D02*
G01*
X123878033Y-84921967D01*
X123894291Y-84946299D01*
X123900000Y-84975000D01*
X123900000Y-86375000D01*
X123894291Y-86403701D01*
X123878033Y-86428033D01*
X123853701Y-86444291D01*
X123825000Y-86450000D01*
X123675000Y-86450000D01*
X123646299Y-86444291D01*
X123621967Y-86428033D01*
X123605709Y-86403701D01*
X123600000Y-86375000D01*
X123600000Y-84975000D01*
X123605709Y-84946299D01*
X123621967Y-84921967D01*
X123646299Y-84905709D01*
X123675000Y-84900000D01*
X123825000Y-84900000D01*
X123853701Y-84905709D01*
G37*
G36*
X124353701Y-84905709D02*
G01*
X124378033Y-84921967D01*
X124394291Y-84946299D01*
X124400000Y-84975000D01*
X124400000Y-86375000D01*
X124394291Y-86403701D01*
X124378033Y-86428033D01*
X124353701Y-86444291D01*
X124325000Y-86450000D01*
X124175000Y-86450000D01*
X124146299Y-86444291D01*
X124121967Y-86428033D01*
X124105709Y-86403701D01*
X124100000Y-86375000D01*
X124100000Y-84975000D01*
X124105709Y-84946299D01*
X124121967Y-84921967D01*
X124146299Y-84905709D01*
X124175000Y-84900000D01*
X124325000Y-84900000D01*
X124353701Y-84905709D01*
G37*
G36*
X124853701Y-84905709D02*
G01*
X124878033Y-84921967D01*
X124894291Y-84946299D01*
X124900000Y-84975000D01*
X124900000Y-86375000D01*
X124894291Y-86403701D01*
X124878033Y-86428033D01*
X124853701Y-86444291D01*
X124825000Y-86450000D01*
X124675000Y-86450000D01*
X124646299Y-86444291D01*
X124621967Y-86428033D01*
X124605709Y-86403701D01*
X124600000Y-86375000D01*
X124600000Y-84975000D01*
X124605709Y-84946299D01*
X124621967Y-84921967D01*
X124646299Y-84905709D01*
X124675000Y-84900000D01*
X124825000Y-84900000D01*
X124853701Y-84905709D01*
G37*
G36*
X125353701Y-84905709D02*
G01*
X125378033Y-84921967D01*
X125394291Y-84946299D01*
X125400000Y-84975000D01*
X125400000Y-86375000D01*
X125394291Y-86403701D01*
X125378033Y-86428033D01*
X125353701Y-86444291D01*
X125325000Y-86450000D01*
X125175000Y-86450000D01*
X125146299Y-86444291D01*
X125121967Y-86428033D01*
X125105709Y-86403701D01*
X125100000Y-86375000D01*
X125100000Y-84975000D01*
X125105709Y-84946299D01*
X125121967Y-84921967D01*
X125146299Y-84905709D01*
X125175000Y-84900000D01*
X125325000Y-84900000D01*
X125353701Y-84905709D01*
G37*
G36*
X125853701Y-84905709D02*
G01*
X125878033Y-84921967D01*
X125894291Y-84946299D01*
X125900000Y-84975000D01*
X125900000Y-86375000D01*
X125894291Y-86403701D01*
X125878033Y-86428033D01*
X125853701Y-86444291D01*
X125825000Y-86450000D01*
X125675000Y-86450000D01*
X125646299Y-86444291D01*
X125621967Y-86428033D01*
X125605709Y-86403701D01*
X125600000Y-86375000D01*
X125600000Y-84975000D01*
X125605709Y-84946299D01*
X125621967Y-84921967D01*
X125646299Y-84905709D01*
X125675000Y-84900000D01*
X125825000Y-84900000D01*
X125853701Y-84905709D01*
G37*
G36*
X126353701Y-84905709D02*
G01*
X126378033Y-84921967D01*
X126394291Y-84946299D01*
X126400000Y-84975000D01*
X126400000Y-86375000D01*
X126394291Y-86403701D01*
X126378033Y-86428033D01*
X126353701Y-86444291D01*
X126325000Y-86450000D01*
X126175000Y-86450000D01*
X126146299Y-86444291D01*
X126121967Y-86428033D01*
X126105709Y-86403701D01*
X126100000Y-86375000D01*
X126100000Y-84975000D01*
X126105709Y-84946299D01*
X126121967Y-84921967D01*
X126146299Y-84905709D01*
X126175000Y-84900000D01*
X126325000Y-84900000D01*
X126353701Y-84905709D01*
G37*
G36*
X126853701Y-84905709D02*
G01*
X126878033Y-84921967D01*
X126894291Y-84946299D01*
X126900000Y-84975000D01*
X126900000Y-86375000D01*
X126894291Y-86403701D01*
X126878033Y-86428033D01*
X126853701Y-86444291D01*
X126825000Y-86450000D01*
X126675000Y-86450000D01*
X126646299Y-86444291D01*
X126621967Y-86428033D01*
X126605709Y-86403701D01*
X126600000Y-86375000D01*
X126600000Y-84975000D01*
X126605709Y-84946299D01*
X126621967Y-84921967D01*
X126646299Y-84905709D01*
X126675000Y-84900000D01*
X126825000Y-84900000D01*
X126853701Y-84905709D01*
G37*
G36*
X127353701Y-84905709D02*
G01*
X127378033Y-84921967D01*
X127394291Y-84946299D01*
X127400000Y-84975000D01*
X127400000Y-86375000D01*
X127394291Y-86403701D01*
X127378033Y-86428033D01*
X127353701Y-86444291D01*
X127325000Y-86450000D01*
X127175000Y-86450000D01*
X127146299Y-86444291D01*
X127121967Y-86428033D01*
X127105709Y-86403701D01*
X127100000Y-86375000D01*
X127100000Y-84975000D01*
X127105709Y-84946299D01*
X127121967Y-84921967D01*
X127146299Y-84905709D01*
X127175000Y-84900000D01*
X127325000Y-84900000D01*
X127353701Y-84905709D01*
G37*
G36*
X127853701Y-84905709D02*
G01*
X127878033Y-84921967D01*
X127894291Y-84946299D01*
X127900000Y-84975000D01*
X127900000Y-86375000D01*
X127894291Y-86403701D01*
X127878033Y-86428033D01*
X127853701Y-86444291D01*
X127825000Y-86450000D01*
X127675000Y-86450000D01*
X127646299Y-86444291D01*
X127621967Y-86428033D01*
X127605709Y-86403701D01*
X127600000Y-86375000D01*
X127600000Y-84975000D01*
X127605709Y-84946299D01*
X127621967Y-84921967D01*
X127646299Y-84905709D01*
X127675000Y-84900000D01*
X127825000Y-84900000D01*
X127853701Y-84905709D01*
G37*
G36*
X128353701Y-84905709D02*
G01*
X128378033Y-84921967D01*
X128394291Y-84946299D01*
X128400000Y-84975000D01*
X128400000Y-86375000D01*
X128394291Y-86403701D01*
X128378033Y-86428033D01*
X128353701Y-86444291D01*
X128325000Y-86450000D01*
X128175000Y-86450000D01*
X128146299Y-86444291D01*
X128121967Y-86428033D01*
X128105709Y-86403701D01*
X128100000Y-86375000D01*
X128100000Y-84975000D01*
X128105709Y-84946299D01*
X128121967Y-84921967D01*
X128146299Y-84905709D01*
X128175000Y-84900000D01*
X128325000Y-84900000D01*
X128353701Y-84905709D01*
G37*
G36*
X128853701Y-84905709D02*
G01*
X128878033Y-84921967D01*
X128894291Y-84946299D01*
X128900000Y-84975000D01*
X128900000Y-86375000D01*
X128894291Y-86403701D01*
X128878033Y-86428033D01*
X128853701Y-86444291D01*
X128825000Y-86450000D01*
X128675000Y-86450000D01*
X128646299Y-86444291D01*
X128621967Y-86428033D01*
X128605709Y-86403701D01*
X128600000Y-86375000D01*
X128600000Y-84975000D01*
X128605709Y-84946299D01*
X128621967Y-84921967D01*
X128646299Y-84905709D01*
X128675000Y-84900000D01*
X128825000Y-84900000D01*
X128853701Y-84905709D01*
G37*
G36*
X129353701Y-84905709D02*
G01*
X129378033Y-84921967D01*
X129394291Y-84946299D01*
X129400000Y-84975000D01*
X129400000Y-86375000D01*
X129394291Y-86403701D01*
X129378033Y-86428033D01*
X129353701Y-86444291D01*
X129325000Y-86450000D01*
X129175000Y-86450000D01*
X129146299Y-86444291D01*
X129121967Y-86428033D01*
X129105709Y-86403701D01*
X129100000Y-86375000D01*
X129100000Y-84975000D01*
X129105709Y-84946299D01*
X129121967Y-84921967D01*
X129146299Y-84905709D01*
X129175000Y-84900000D01*
X129325000Y-84900000D01*
X129353701Y-84905709D01*
G37*
G36*
X140636662Y-85730276D02*
G01*
X140680459Y-85759541D01*
X140709724Y-85803338D01*
X140720000Y-85855000D01*
X140720000Y-86125000D01*
X140709724Y-86176662D01*
X140680459Y-86220459D01*
X140636662Y-86249724D01*
X140585000Y-86260000D01*
X140215000Y-86260000D01*
X140163338Y-86249724D01*
X140119541Y-86220459D01*
X140090276Y-86176662D01*
X140080000Y-86125000D01*
X140080000Y-85855000D01*
X140090276Y-85803338D01*
X140119541Y-85759541D01*
X140163338Y-85730276D01*
X140215000Y-85720000D01*
X140585000Y-85720000D01*
X140636662Y-85730276D01*
G37*
G36*
X132926662Y-85190276D02*
G01*
X132970459Y-85219541D01*
X132999724Y-85263338D01*
X133010000Y-85315000D01*
X133010000Y-85685000D01*
X132999724Y-85736662D01*
X132970459Y-85780459D01*
X132926662Y-85809724D01*
X132875000Y-85820000D01*
X132605000Y-85820000D01*
X132553338Y-85809724D01*
X132509541Y-85780459D01*
X132480276Y-85736662D01*
X132470000Y-85685000D01*
X132470000Y-85315000D01*
X132480276Y-85263338D01*
X132509541Y-85219541D01*
X132553338Y-85190276D01*
X132605000Y-85180000D01*
X132875000Y-85180000D01*
X132926662Y-85190276D01*
G37*
G36*
X133946662Y-85190276D02*
G01*
X133990459Y-85219541D01*
X134019724Y-85263338D01*
X134030000Y-85315000D01*
X134030000Y-85685000D01*
X134019724Y-85736662D01*
X133990459Y-85780459D01*
X133946662Y-85809724D01*
X133895000Y-85820000D01*
X133625000Y-85820000D01*
X133573338Y-85809724D01*
X133529541Y-85780459D01*
X133500276Y-85736662D01*
X133490000Y-85685000D01*
X133490000Y-85315000D01*
X133500276Y-85263338D01*
X133529541Y-85219541D01*
X133573338Y-85190276D01*
X133625000Y-85180000D01*
X133895000Y-85180000D01*
X133946662Y-85190276D01*
G37*
G36*
X117154047Y-84300805D02*
G01*
X117205408Y-84306764D01*
X117222954Y-84314511D01*
X117245671Y-84319030D01*
X117269991Y-84335280D01*
X117290793Y-84344465D01*
X117305000Y-84358672D01*
X117326777Y-84373223D01*
X117341327Y-84394999D01*
X117355534Y-84409206D01*
X117364718Y-84430006D01*
X117380970Y-84454329D01*
X117385489Y-84477048D01*
X117393235Y-84494591D01*
X117399192Y-84545940D01*
X117400000Y-84550000D01*
X117400000Y-85200000D01*
X117399192Y-85204059D01*
X117393235Y-85255408D01*
X117385489Y-85272950D01*
X117380970Y-85295671D01*
X117364716Y-85319995D01*
X117355534Y-85340793D01*
X117341329Y-85354997D01*
X117326777Y-85376777D01*
X117304997Y-85391329D01*
X117290793Y-85405534D01*
X117269995Y-85414716D01*
X117245671Y-85430970D01*
X117222950Y-85435489D01*
X117205408Y-85443235D01*
X117154061Y-85449192D01*
X117150000Y-85450000D01*
X115850000Y-85450000D01*
X115845941Y-85449192D01*
X115794591Y-85443235D01*
X115777048Y-85435489D01*
X115754329Y-85430970D01*
X115730006Y-85414718D01*
X115709206Y-85405534D01*
X115694999Y-85391327D01*
X115673223Y-85376777D01*
X115658672Y-85355000D01*
X115644465Y-85340793D01*
X115635280Y-85319991D01*
X115619030Y-85295671D01*
X115614511Y-85272954D01*
X115606764Y-85255408D01*
X115600805Y-85204049D01*
X115600000Y-85200000D01*
X115600000Y-84550000D01*
X115600804Y-84545953D01*
X115606764Y-84494591D01*
X115614511Y-84477043D01*
X115619030Y-84454329D01*
X115635278Y-84430010D01*
X115644465Y-84409206D01*
X115658674Y-84394996D01*
X115673223Y-84373223D01*
X115694996Y-84358674D01*
X115709206Y-84344465D01*
X115730010Y-84335278D01*
X115754329Y-84319030D01*
X115777043Y-84314511D01*
X115794591Y-84306764D01*
X115845952Y-84300805D01*
X115850000Y-84300000D01*
X117150000Y-84300000D01*
X117154047Y-84300805D01*
G37*
G36*
X102080134Y-82833156D02*
G01*
X102259220Y-82891345D01*
X102426998Y-82976832D01*
X102579338Y-83087513D01*
X102712487Y-83220662D01*
X102823168Y-83373002D01*
X102908655Y-83540780D01*
X102966844Y-83719866D01*
X102996301Y-83905849D01*
X102996301Y-84094151D01*
X102966844Y-84280134D01*
X102908655Y-84459220D01*
X102823168Y-84626998D01*
X102712487Y-84779338D01*
X102579338Y-84912487D01*
X102426998Y-85023168D01*
X102259220Y-85108655D01*
X102080134Y-85166844D01*
X101894151Y-85196301D01*
X101705849Y-85196301D01*
X101519866Y-85166844D01*
X101340780Y-85108655D01*
X101173002Y-85023168D01*
X101020662Y-84912487D01*
X100887513Y-84779338D01*
X100776832Y-84626998D01*
X100691345Y-84459220D01*
X100633156Y-84280134D01*
X100603699Y-84094151D01*
X100603699Y-83905849D01*
X100633156Y-83719866D01*
X100691345Y-83540780D01*
X100776832Y-83373002D01*
X100887513Y-83220662D01*
X101020662Y-83087513D01*
X101173002Y-82976832D01*
X101340780Y-82891345D01*
X101519866Y-82833156D01*
X101705849Y-82803699D01*
X101894151Y-82803699D01*
X102080134Y-82833156D01*
G37*
G36*
X106179047Y-83650805D02*
G01*
X106230408Y-83656764D01*
X106247954Y-83664511D01*
X106270671Y-83669030D01*
X106294991Y-83685280D01*
X106315793Y-83694465D01*
X106330000Y-83708672D01*
X106351777Y-83723223D01*
X106366327Y-83744999D01*
X106380534Y-83759206D01*
X106389718Y-83780006D01*
X106405970Y-83804329D01*
X106410489Y-83827048D01*
X106418235Y-83844591D01*
X106424192Y-83895940D01*
X106425000Y-83900000D01*
X106425000Y-84400000D01*
X106424192Y-84404059D01*
X106418235Y-84455408D01*
X106410489Y-84472950D01*
X106405970Y-84495671D01*
X106389716Y-84519995D01*
X106380534Y-84540793D01*
X106366329Y-84554997D01*
X106351777Y-84576777D01*
X106329997Y-84591329D01*
X106315793Y-84605534D01*
X106294995Y-84614716D01*
X106270671Y-84630970D01*
X106247950Y-84635489D01*
X106230408Y-84643235D01*
X106179061Y-84649192D01*
X106175000Y-84650000D01*
X105225000Y-84650000D01*
X105220941Y-84649192D01*
X105169591Y-84643235D01*
X105152048Y-84635489D01*
X105129329Y-84630970D01*
X105105006Y-84614718D01*
X105084206Y-84605534D01*
X105069999Y-84591327D01*
X105048223Y-84576777D01*
X105033672Y-84555000D01*
X105019465Y-84540793D01*
X105010280Y-84519991D01*
X104994030Y-84495671D01*
X104989511Y-84472954D01*
X104981764Y-84455408D01*
X104975805Y-84404049D01*
X104975000Y-84400000D01*
X104975000Y-83900000D01*
X104975804Y-83895953D01*
X104981764Y-83844591D01*
X104989511Y-83827043D01*
X104994030Y-83804329D01*
X105010278Y-83780010D01*
X105019465Y-83759206D01*
X105033674Y-83744996D01*
X105048223Y-83723223D01*
X105069996Y-83708674D01*
X105084206Y-83694465D01*
X105105010Y-83685278D01*
X105129329Y-83669030D01*
X105152043Y-83664511D01*
X105169591Y-83656764D01*
X105220952Y-83650805D01*
X105225000Y-83650000D01*
X106175000Y-83650000D01*
X106179047Y-83650805D01*
G37*
G36*
X133551536Y-83740224D02*
G01*
X133616420Y-83783579D01*
X133659775Y-83848463D01*
X133674999Y-83925000D01*
X133674999Y-84325000D01*
X133659775Y-84401537D01*
X133616420Y-84466421D01*
X133551536Y-84509776D01*
X133474999Y-84525000D01*
X132924999Y-84525000D01*
X132848462Y-84509776D01*
X132783578Y-84466421D01*
X132740223Y-84401537D01*
X132724999Y-84325000D01*
X132724999Y-83925000D01*
X132740223Y-83848463D01*
X132783578Y-83783579D01*
X132848462Y-83740224D01*
X132924999Y-83725000D01*
X133474999Y-83725000D01*
X133551536Y-83740224D01*
G37*
G36*
X120553701Y-83605709D02*
G01*
X120578033Y-83621967D01*
X120594291Y-83646299D01*
X120600000Y-83675000D01*
X120600000Y-83825000D01*
X120594291Y-83853701D01*
X120578033Y-83878033D01*
X120553701Y-83894291D01*
X120525000Y-83900000D01*
X119125000Y-83900000D01*
X119096299Y-83894291D01*
X119071967Y-83878033D01*
X119055709Y-83853701D01*
X119050000Y-83825000D01*
X119050000Y-83675000D01*
X119055709Y-83646299D01*
X119071967Y-83621967D01*
X119096299Y-83605709D01*
X119125000Y-83600000D01*
X120525000Y-83600000D01*
X120553701Y-83605709D01*
G37*
G36*
X131903701Y-83605709D02*
G01*
X131928033Y-83621967D01*
X131944291Y-83646299D01*
X131950000Y-83675000D01*
X131950000Y-83825000D01*
X131944291Y-83853701D01*
X131928033Y-83878033D01*
X131903701Y-83894291D01*
X131875000Y-83900000D01*
X130475000Y-83900000D01*
X130446299Y-83894291D01*
X130421967Y-83878033D01*
X130405709Y-83853701D01*
X130400000Y-83825000D01*
X130400000Y-83675000D01*
X130405709Y-83646299D01*
X130421967Y-83621967D01*
X130446299Y-83605709D01*
X130475000Y-83600000D01*
X131875000Y-83600000D01*
X131903701Y-83605709D01*
G37*
G36*
X140623576Y-83160657D02*
G01*
X140668995Y-83191005D01*
X140699343Y-83236424D01*
X140710000Y-83290000D01*
X140710000Y-83570000D01*
X140699343Y-83623576D01*
X140668995Y-83668995D01*
X140623576Y-83699343D01*
X140570000Y-83710000D01*
X140230000Y-83710000D01*
X140176424Y-83699343D01*
X140131005Y-83668995D01*
X140100657Y-83623576D01*
X140090000Y-83570000D01*
X140090000Y-83290000D01*
X140100657Y-83236424D01*
X140131005Y-83191005D01*
X140176424Y-83160657D01*
X140230000Y-83150000D01*
X140570000Y-83150000D01*
X140623576Y-83160657D01*
G37*
G36*
X120553701Y-83105709D02*
G01*
X120578033Y-83121967D01*
X120594291Y-83146299D01*
X120600000Y-83175000D01*
X120600000Y-83325000D01*
X120594291Y-83353701D01*
X120578033Y-83378033D01*
X120553701Y-83394291D01*
X120525000Y-83400000D01*
X119125000Y-83400000D01*
X119096299Y-83394291D01*
X119071967Y-83378033D01*
X119055709Y-83353701D01*
X119050000Y-83325000D01*
X119050000Y-83175000D01*
X119055709Y-83146299D01*
X119071967Y-83121967D01*
X119096299Y-83105709D01*
X119125000Y-83100000D01*
X120525000Y-83100000D01*
X120553701Y-83105709D01*
G37*
G36*
X131903701Y-83105709D02*
G01*
X131928033Y-83121967D01*
X131944291Y-83146299D01*
X131950000Y-83175000D01*
X131950000Y-83325000D01*
X131944291Y-83353701D01*
X131928033Y-83378033D01*
X131903701Y-83394291D01*
X131875000Y-83400000D01*
X130475000Y-83400000D01*
X130446299Y-83394291D01*
X130421967Y-83378033D01*
X130405709Y-83353701D01*
X130400000Y-83325000D01*
X130400000Y-83175000D01*
X130405709Y-83146299D01*
X130421967Y-83121967D01*
X130446299Y-83105709D01*
X130475000Y-83100000D01*
X131875000Y-83100000D01*
X131903701Y-83105709D01*
G37*
G36*
X137120985Y-81756661D02*
G01*
X137149372Y-81775628D01*
X137168339Y-81804015D01*
X137175000Y-81837500D01*
X137175000Y-83162500D01*
X137168339Y-83195985D01*
X137149372Y-83224372D01*
X137120985Y-83243339D01*
X137087500Y-83250000D01*
X136912500Y-83250000D01*
X136879015Y-83243339D01*
X136850628Y-83224372D01*
X136831661Y-83195985D01*
X136825000Y-83162500D01*
X136825000Y-81837500D01*
X136831661Y-81804015D01*
X136850628Y-81775628D01*
X136879015Y-81756661D01*
X136912500Y-81750000D01*
X137087500Y-81750000D01*
X137120985Y-81756661D01*
G37*
G36*
X137620985Y-81756661D02*
G01*
X137649372Y-81775628D01*
X137668339Y-81804015D01*
X137675000Y-81837500D01*
X137675000Y-83162500D01*
X137668339Y-83195985D01*
X137649372Y-83224372D01*
X137620985Y-83243339D01*
X137587500Y-83250000D01*
X137412500Y-83250000D01*
X137379015Y-83243339D01*
X137350628Y-83224372D01*
X137331661Y-83195985D01*
X137325000Y-83162500D01*
X137325000Y-81837500D01*
X137331661Y-81804015D01*
X137350628Y-81775628D01*
X137379015Y-81756661D01*
X137412500Y-81750000D01*
X137587500Y-81750000D01*
X137620985Y-81756661D01*
G37*
G36*
X138120985Y-81756661D02*
G01*
X138149372Y-81775628D01*
X138168339Y-81804015D01*
X138175000Y-81837500D01*
X138175000Y-83162500D01*
X138168339Y-83195985D01*
X138149372Y-83224372D01*
X138120985Y-83243339D01*
X138087500Y-83250000D01*
X137912500Y-83250000D01*
X137879015Y-83243339D01*
X137850628Y-83224372D01*
X137831661Y-83195985D01*
X137825000Y-83162500D01*
X137825000Y-81837500D01*
X137831661Y-81804015D01*
X137850628Y-81775628D01*
X137879015Y-81756661D01*
X137912500Y-81750000D01*
X138087500Y-81750000D01*
X138120985Y-81756661D01*
G37*
G36*
X138620985Y-81756661D02*
G01*
X138649372Y-81775628D01*
X138668339Y-81804015D01*
X138675000Y-81837500D01*
X138675000Y-83162500D01*
X138668339Y-83195985D01*
X138649372Y-83224372D01*
X138620985Y-83243339D01*
X138587500Y-83250000D01*
X138412500Y-83250000D01*
X138379015Y-83243339D01*
X138350628Y-83224372D01*
X138331661Y-83195985D01*
X138325000Y-83162500D01*
X138325000Y-81837500D01*
X138331661Y-81804015D01*
X138350628Y-81775628D01*
X138379015Y-81756661D01*
X138412500Y-81750000D01*
X138587500Y-81750000D01*
X138620985Y-81756661D01*
G37*
G36*
X139120985Y-81756661D02*
G01*
X139149372Y-81775628D01*
X139168339Y-81804015D01*
X139175000Y-81837500D01*
X139175000Y-83162500D01*
X139168339Y-83195985D01*
X139149372Y-83224372D01*
X139120985Y-83243339D01*
X139087500Y-83250000D01*
X138912500Y-83250000D01*
X138879015Y-83243339D01*
X138850628Y-83224372D01*
X138831661Y-83195985D01*
X138825000Y-83162500D01*
X138825000Y-81837500D01*
X138831661Y-81804015D01*
X138850628Y-81775628D01*
X138879015Y-81756661D01*
X138912500Y-81750000D01*
X139087500Y-81750000D01*
X139120985Y-81756661D01*
G37*
G36*
X120553701Y-82605709D02*
G01*
X120578033Y-82621967D01*
X120594291Y-82646299D01*
X120600000Y-82675000D01*
X120600000Y-82825000D01*
X120594291Y-82853701D01*
X120578033Y-82878033D01*
X120553701Y-82894291D01*
X120525000Y-82900000D01*
X119125000Y-82900000D01*
X119096299Y-82894291D01*
X119071967Y-82878033D01*
X119055709Y-82853701D01*
X119050000Y-82825000D01*
X119050000Y-82675000D01*
X119055709Y-82646299D01*
X119071967Y-82621967D01*
X119096299Y-82605709D01*
X119125000Y-82600000D01*
X120525000Y-82600000D01*
X120553701Y-82605709D01*
G37*
G36*
X131903701Y-82605709D02*
G01*
X131928033Y-82621967D01*
X131944291Y-82646299D01*
X131950000Y-82675000D01*
X131950000Y-82825000D01*
X131944291Y-82853701D01*
X131928033Y-82878033D01*
X131903701Y-82894291D01*
X131875000Y-82900000D01*
X130475000Y-82900000D01*
X130446299Y-82894291D01*
X130421967Y-82878033D01*
X130405709Y-82853701D01*
X130400000Y-82825000D01*
X130400000Y-82675000D01*
X130405709Y-82646299D01*
X130421967Y-82621967D01*
X130446299Y-82605709D01*
X130475000Y-82600000D01*
X131875000Y-82600000D01*
X131903701Y-82605709D01*
G37*
G36*
X133551536Y-82090224D02*
G01*
X133616420Y-82133579D01*
X133659775Y-82198463D01*
X133674999Y-82275000D01*
X133674999Y-82675000D01*
X133659775Y-82751537D01*
X133616420Y-82816421D01*
X133551536Y-82859776D01*
X133474999Y-82875000D01*
X132924999Y-82875000D01*
X132848462Y-82859776D01*
X132783578Y-82816421D01*
X132740223Y-82751537D01*
X132724999Y-82675000D01*
X132724999Y-82275000D01*
X132740223Y-82198463D01*
X132783578Y-82133579D01*
X132848462Y-82090224D01*
X132924999Y-82075000D01*
X133474999Y-82075000D01*
X133551536Y-82090224D01*
G37*
G36*
X106179047Y-81750805D02*
G01*
X106230408Y-81756764D01*
X106247954Y-81764511D01*
X106270671Y-81769030D01*
X106294991Y-81785280D01*
X106315793Y-81794465D01*
X106330000Y-81808672D01*
X106351777Y-81823223D01*
X106366327Y-81844999D01*
X106380534Y-81859206D01*
X106389718Y-81880006D01*
X106405970Y-81904329D01*
X106410489Y-81927048D01*
X106418235Y-81944591D01*
X106424192Y-81995940D01*
X106425000Y-82000000D01*
X106425000Y-82500000D01*
X106424192Y-82504059D01*
X106418235Y-82555408D01*
X106410489Y-82572950D01*
X106405970Y-82595671D01*
X106389716Y-82619995D01*
X106380534Y-82640793D01*
X106366329Y-82654997D01*
X106351777Y-82676777D01*
X106329997Y-82691329D01*
X106315793Y-82705534D01*
X106294995Y-82714716D01*
X106270671Y-82730970D01*
X106247950Y-82735489D01*
X106230408Y-82743235D01*
X106179061Y-82749192D01*
X106175000Y-82750000D01*
X105225000Y-82750000D01*
X105220941Y-82749192D01*
X105169591Y-82743235D01*
X105152048Y-82735489D01*
X105129329Y-82730970D01*
X105105006Y-82714718D01*
X105084206Y-82705534D01*
X105069999Y-82691327D01*
X105048223Y-82676777D01*
X105033672Y-82655000D01*
X105019465Y-82640793D01*
X105010280Y-82619991D01*
X104994030Y-82595671D01*
X104989511Y-82572954D01*
X104981764Y-82555408D01*
X104975805Y-82504049D01*
X104975000Y-82500000D01*
X104975000Y-82000000D01*
X104975804Y-81995953D01*
X104981764Y-81944591D01*
X104989511Y-81927043D01*
X104994030Y-81904329D01*
X105010278Y-81880010D01*
X105019465Y-81859206D01*
X105033674Y-81844996D01*
X105048223Y-81823223D01*
X105069996Y-81808674D01*
X105084206Y-81794465D01*
X105105010Y-81785278D01*
X105129329Y-81769030D01*
X105152043Y-81764511D01*
X105169591Y-81756764D01*
X105220952Y-81750805D01*
X105225000Y-81750000D01*
X106175000Y-81750000D01*
X106179047Y-81750805D01*
G37*
G36*
X140623576Y-82200657D02*
G01*
X140668995Y-82231005D01*
X140699343Y-82276424D01*
X140710000Y-82330000D01*
X140710000Y-82610000D01*
X140699343Y-82663576D01*
X140668995Y-82708995D01*
X140623576Y-82739343D01*
X140570000Y-82750000D01*
X140230000Y-82750000D01*
X140176424Y-82739343D01*
X140131005Y-82708995D01*
X140100657Y-82663576D01*
X140090000Y-82610000D01*
X140090000Y-82330000D01*
X140100657Y-82276424D01*
X140131005Y-82231005D01*
X140176424Y-82200657D01*
X140230000Y-82190000D01*
X140570000Y-82190000D01*
X140623576Y-82200657D01*
G37*
G36*
X134663576Y-82100657D02*
G01*
X134708995Y-82131005D01*
X134739343Y-82176424D01*
X134750000Y-82230000D01*
X134750000Y-82570000D01*
X134739343Y-82623576D01*
X134708995Y-82668995D01*
X134663576Y-82699343D01*
X134610000Y-82710000D01*
X134330000Y-82710000D01*
X134276424Y-82699343D01*
X134231005Y-82668995D01*
X134200657Y-82623576D01*
X134190000Y-82570000D01*
X134190000Y-82230000D01*
X134200657Y-82176424D01*
X134231005Y-82131005D01*
X134276424Y-82100657D01*
X134330000Y-82090000D01*
X134610000Y-82090000D01*
X134663576Y-82100657D01*
G37*
G36*
X135623576Y-82100657D02*
G01*
X135668995Y-82131005D01*
X135699343Y-82176424D01*
X135710000Y-82230000D01*
X135710000Y-82570000D01*
X135699343Y-82623576D01*
X135668995Y-82668995D01*
X135623576Y-82699343D01*
X135570000Y-82710000D01*
X135290000Y-82710000D01*
X135236424Y-82699343D01*
X135191005Y-82668995D01*
X135160657Y-82623576D01*
X135150000Y-82570000D01*
X135150000Y-82230000D01*
X135160657Y-82176424D01*
X135191005Y-82131005D01*
X135236424Y-82100657D01*
X135290000Y-82090000D01*
X135570000Y-82090000D01*
X135623576Y-82100657D01*
G37*
G36*
X117154047Y-81350805D02*
G01*
X117205408Y-81356764D01*
X117222954Y-81364511D01*
X117245671Y-81369030D01*
X117269991Y-81385280D01*
X117290793Y-81394465D01*
X117305000Y-81408672D01*
X117326777Y-81423223D01*
X117341327Y-81444999D01*
X117355534Y-81459206D01*
X117364718Y-81480006D01*
X117380970Y-81504329D01*
X117385489Y-81527048D01*
X117393235Y-81544591D01*
X117399192Y-81595940D01*
X117400000Y-81600000D01*
X117400000Y-82250000D01*
X117399192Y-82254059D01*
X117393235Y-82305408D01*
X117385489Y-82322950D01*
X117380970Y-82345671D01*
X117364716Y-82369995D01*
X117355534Y-82390793D01*
X117341329Y-82404997D01*
X117326777Y-82426777D01*
X117304997Y-82441329D01*
X117290793Y-82455534D01*
X117269995Y-82464716D01*
X117245671Y-82480970D01*
X117222950Y-82485489D01*
X117205408Y-82493235D01*
X117154061Y-82499192D01*
X117150000Y-82500000D01*
X115850000Y-82500000D01*
X115845941Y-82499192D01*
X115794591Y-82493235D01*
X115777048Y-82485489D01*
X115754329Y-82480970D01*
X115730006Y-82464718D01*
X115709206Y-82455534D01*
X115694999Y-82441327D01*
X115673223Y-82426777D01*
X115658672Y-82405000D01*
X115644465Y-82390793D01*
X115635280Y-82369991D01*
X115619030Y-82345671D01*
X115614511Y-82322954D01*
X115606764Y-82305408D01*
X115600805Y-82254049D01*
X115600000Y-82250000D01*
X115600000Y-81600000D01*
X115600804Y-81595953D01*
X115606764Y-81544591D01*
X115614511Y-81527043D01*
X115619030Y-81504329D01*
X115635278Y-81480010D01*
X115644465Y-81459206D01*
X115658674Y-81444996D01*
X115673223Y-81423223D01*
X115694996Y-81408674D01*
X115709206Y-81394465D01*
X115730010Y-81385278D01*
X115754329Y-81369030D01*
X115777043Y-81364511D01*
X115794591Y-81356764D01*
X115845952Y-81350805D01*
X115850000Y-81350000D01*
X117150000Y-81350000D01*
X117154047Y-81350805D01*
G37*
G36*
X120553701Y-82105709D02*
G01*
X120578033Y-82121967D01*
X120594291Y-82146299D01*
X120600000Y-82175000D01*
X120600000Y-82325000D01*
X120594291Y-82353701D01*
X120578033Y-82378033D01*
X120553701Y-82394291D01*
X120525000Y-82400000D01*
X119125000Y-82400000D01*
X119096299Y-82394291D01*
X119071967Y-82378033D01*
X119055709Y-82353701D01*
X119050000Y-82325000D01*
X119050000Y-82175000D01*
X119055709Y-82146299D01*
X119071967Y-82121967D01*
X119096299Y-82105709D01*
X119125000Y-82100000D01*
X120525000Y-82100000D01*
X120553701Y-82105709D01*
G37*
G36*
X131903701Y-82105709D02*
G01*
X131928033Y-82121967D01*
X131944291Y-82146299D01*
X131950000Y-82175000D01*
X131950000Y-82325000D01*
X131944291Y-82353701D01*
X131928033Y-82378033D01*
X131903701Y-82394291D01*
X131875000Y-82400000D01*
X130475000Y-82400000D01*
X130446299Y-82394291D01*
X130421967Y-82378033D01*
X130405709Y-82353701D01*
X130400000Y-82325000D01*
X130400000Y-82175000D01*
X130405709Y-82146299D01*
X130421967Y-82121967D01*
X130446299Y-82105709D01*
X130475000Y-82100000D01*
X131875000Y-82100000D01*
X131903701Y-82105709D01*
G37*
G36*
X107463576Y-81650657D02*
G01*
X107508995Y-81681005D01*
X107539343Y-81726424D01*
X107550000Y-81780000D01*
X107550000Y-82120000D01*
X107539343Y-82173576D01*
X107508995Y-82218995D01*
X107463576Y-82249343D01*
X107410000Y-82260000D01*
X107130000Y-82260000D01*
X107076424Y-82249343D01*
X107031005Y-82218995D01*
X107000657Y-82173576D01*
X106990000Y-82120000D01*
X106990000Y-81780000D01*
X107000657Y-81726424D01*
X107031005Y-81681005D01*
X107076424Y-81650657D01*
X107130000Y-81640000D01*
X107410000Y-81640000D01*
X107463576Y-81650657D01*
G37*
G36*
X108423576Y-81650657D02*
G01*
X108468995Y-81681005D01*
X108499343Y-81726424D01*
X108510000Y-81780000D01*
X108510000Y-82120000D01*
X108499343Y-82173576D01*
X108468995Y-82218995D01*
X108423576Y-82249343D01*
X108370000Y-82260000D01*
X108090000Y-82260000D01*
X108036424Y-82249343D01*
X107991005Y-82218995D01*
X107960657Y-82173576D01*
X107950000Y-82120000D01*
X107950000Y-81780000D01*
X107960657Y-81726424D01*
X107991005Y-81681005D01*
X108036424Y-81650657D01*
X108090000Y-81640000D01*
X108370000Y-81640000D01*
X108423576Y-81650657D01*
G37*
G36*
X120553701Y-81605709D02*
G01*
X120578033Y-81621967D01*
X120594291Y-81646299D01*
X120600000Y-81675000D01*
X120600000Y-81825000D01*
X120594291Y-81853701D01*
X120578033Y-81878033D01*
X120553701Y-81894291D01*
X120525000Y-81900000D01*
X119125000Y-81900000D01*
X119096299Y-81894291D01*
X119071967Y-81878033D01*
X119055709Y-81853701D01*
X119050000Y-81825000D01*
X119050000Y-81675000D01*
X119055709Y-81646299D01*
X119071967Y-81621967D01*
X119096299Y-81605709D01*
X119125000Y-81600000D01*
X120525000Y-81600000D01*
X120553701Y-81605709D01*
G37*
G36*
X131903701Y-81605709D02*
G01*
X131928033Y-81621967D01*
X131944291Y-81646299D01*
X131950000Y-81675000D01*
X131950000Y-81825000D01*
X131944291Y-81853701D01*
X131928033Y-81878033D01*
X131903701Y-81894291D01*
X131875000Y-81900000D01*
X130475000Y-81900000D01*
X130446299Y-81894291D01*
X130421967Y-81878033D01*
X130405709Y-81853701D01*
X130400000Y-81825000D01*
X130400000Y-81675000D01*
X130405709Y-81646299D01*
X130421967Y-81621967D01*
X130446299Y-81605709D01*
X130475000Y-81600000D01*
X131875000Y-81600000D01*
X131903701Y-81605709D01*
G37*
G36*
X111699047Y-78150805D02*
G01*
X111750408Y-78156764D01*
X111767954Y-78164511D01*
X111790671Y-78169030D01*
X111814991Y-78185280D01*
X111835793Y-78194465D01*
X111850000Y-78208672D01*
X111871777Y-78223223D01*
X111886327Y-78244999D01*
X111900534Y-78259206D01*
X111909718Y-78280006D01*
X111925970Y-78304329D01*
X111930489Y-78327048D01*
X111938235Y-78344591D01*
X111944192Y-78395940D01*
X111945000Y-78400000D01*
X111945000Y-81600000D01*
X111944192Y-81604059D01*
X111938235Y-81655408D01*
X111930489Y-81672950D01*
X111925970Y-81695671D01*
X111909716Y-81719995D01*
X111900534Y-81740793D01*
X111886329Y-81754997D01*
X111871777Y-81776777D01*
X111849997Y-81791329D01*
X111835793Y-81805534D01*
X111814995Y-81814716D01*
X111790671Y-81830970D01*
X111767950Y-81835489D01*
X111750408Y-81843235D01*
X111699061Y-81849192D01*
X111695000Y-81850000D01*
X111095000Y-81850000D01*
X111090941Y-81849192D01*
X111039591Y-81843235D01*
X111022048Y-81835489D01*
X110999329Y-81830970D01*
X110975006Y-81814718D01*
X110954206Y-81805534D01*
X110939999Y-81791327D01*
X110918223Y-81776777D01*
X110903672Y-81755000D01*
X110889465Y-81740793D01*
X110880280Y-81719991D01*
X110864030Y-81695671D01*
X110859511Y-81672954D01*
X110851764Y-81655408D01*
X110845805Y-81604049D01*
X110845000Y-81600000D01*
X110845000Y-78400000D01*
X110845804Y-78395953D01*
X110851764Y-78344591D01*
X110859511Y-78327043D01*
X110864030Y-78304329D01*
X110880278Y-78280010D01*
X110889465Y-78259206D01*
X110903674Y-78244996D01*
X110918223Y-78223223D01*
X110939996Y-78208674D01*
X110954206Y-78194465D01*
X110975010Y-78185278D01*
X110999329Y-78169030D01*
X111022043Y-78164511D01*
X111039591Y-78156764D01*
X111090952Y-78150805D01*
X111095000Y-78150000D01*
X111695000Y-78150000D01*
X111699047Y-78150805D01*
G37*
G36*
X114699047Y-78150805D02*
G01*
X114750408Y-78156764D01*
X114767954Y-78164511D01*
X114790671Y-78169030D01*
X114814991Y-78185280D01*
X114835793Y-78194465D01*
X114850000Y-78208672D01*
X114871777Y-78223223D01*
X114886327Y-78244999D01*
X114900534Y-78259206D01*
X114909718Y-78280006D01*
X114925970Y-78304329D01*
X114930489Y-78327048D01*
X114938235Y-78344591D01*
X114944192Y-78395940D01*
X114945000Y-78400000D01*
X114945000Y-81600000D01*
X114944192Y-81604059D01*
X114938235Y-81655408D01*
X114930489Y-81672950D01*
X114925970Y-81695671D01*
X114909716Y-81719995D01*
X114900534Y-81740793D01*
X114886329Y-81754997D01*
X114871777Y-81776777D01*
X114849997Y-81791329D01*
X114835793Y-81805534D01*
X114814995Y-81814716D01*
X114790671Y-81830970D01*
X114767950Y-81835489D01*
X114750408Y-81843235D01*
X114699061Y-81849192D01*
X114695000Y-81850000D01*
X114095000Y-81850000D01*
X114090941Y-81849192D01*
X114039591Y-81843235D01*
X114022048Y-81835489D01*
X113999329Y-81830970D01*
X113975006Y-81814718D01*
X113954206Y-81805534D01*
X113939999Y-81791327D01*
X113918223Y-81776777D01*
X113903672Y-81755000D01*
X113889465Y-81740793D01*
X113880280Y-81719991D01*
X113864030Y-81695671D01*
X113859511Y-81672954D01*
X113851764Y-81655408D01*
X113845805Y-81604049D01*
X113845000Y-81600000D01*
X113845000Y-78400000D01*
X113845804Y-78395953D01*
X113851764Y-78344591D01*
X113859511Y-78327043D01*
X113864030Y-78304329D01*
X113880278Y-78280010D01*
X113889465Y-78259206D01*
X113903674Y-78244996D01*
X113918223Y-78223223D01*
X113939996Y-78208674D01*
X113954206Y-78194465D01*
X113975010Y-78185278D01*
X113999329Y-78169030D01*
X114022043Y-78164511D01*
X114039591Y-78156764D01*
X114090952Y-78150805D01*
X114095000Y-78150000D01*
X114695000Y-78150000D01*
X114699047Y-78150805D01*
G37*
G36*
X120553701Y-81105709D02*
G01*
X120578033Y-81121967D01*
X120594291Y-81146299D01*
X120600000Y-81175000D01*
X120600000Y-81325000D01*
X120594291Y-81353701D01*
X120578033Y-81378033D01*
X120553701Y-81394291D01*
X120525000Y-81400000D01*
X119125000Y-81400000D01*
X119096299Y-81394291D01*
X119071967Y-81378033D01*
X119055709Y-81353701D01*
X119050000Y-81325000D01*
X119050000Y-81175000D01*
X119055709Y-81146299D01*
X119071967Y-81121967D01*
X119096299Y-81105709D01*
X119125000Y-81100000D01*
X120525000Y-81100000D01*
X120553701Y-81105709D01*
G37*
G36*
X131903701Y-81105709D02*
G01*
X131928033Y-81121967D01*
X131944291Y-81146299D01*
X131950000Y-81175000D01*
X131950000Y-81325000D01*
X131944291Y-81353701D01*
X131928033Y-81378033D01*
X131903701Y-81394291D01*
X131875000Y-81400000D01*
X130475000Y-81400000D01*
X130446299Y-81394291D01*
X130421967Y-81378033D01*
X130405709Y-81353701D01*
X130400000Y-81325000D01*
X130400000Y-81175000D01*
X130405709Y-81146299D01*
X130421967Y-81121967D01*
X130446299Y-81105709D01*
X130475000Y-81100000D01*
X131875000Y-81100000D01*
X131903701Y-81105709D01*
G37*
G36*
X110223576Y-80760657D02*
G01*
X110268995Y-80791005D01*
X110299343Y-80836424D01*
X110310000Y-80890000D01*
X110310000Y-81170000D01*
X110299343Y-81223576D01*
X110268995Y-81268995D01*
X110223576Y-81299343D01*
X110170000Y-81310000D01*
X109830000Y-81310000D01*
X109776424Y-81299343D01*
X109731005Y-81268995D01*
X109700657Y-81223576D01*
X109690000Y-81170000D01*
X109690000Y-80890000D01*
X109700657Y-80836424D01*
X109731005Y-80791005D01*
X109776424Y-80760657D01*
X109830000Y-80750000D01*
X110170000Y-80750000D01*
X110223576Y-80760657D01*
G37*
G36*
X134942403Y-80661418D02*
G01*
X134991066Y-80693934D01*
X135023582Y-80742597D01*
X135035000Y-80800000D01*
X135035000Y-81100000D01*
X135023582Y-81157403D01*
X134991066Y-81206066D01*
X134942403Y-81238582D01*
X134885000Y-81250000D01*
X133710000Y-81250000D01*
X133652597Y-81238582D01*
X133603934Y-81206066D01*
X133571418Y-81157403D01*
X133560000Y-81100000D01*
X133560000Y-80800000D01*
X133571418Y-80742597D01*
X133603934Y-80693934D01*
X133652597Y-80661418D01*
X133710000Y-80650000D01*
X134885000Y-80650000D01*
X134942403Y-80661418D01*
G37*
G36*
X107553536Y-80621464D02*
G01*
X107555000Y-80625000D01*
X107555000Y-81200000D01*
X107553536Y-81203536D01*
X107550000Y-81205000D01*
X107540054Y-81205000D01*
X107209946Y-81205000D01*
X107200000Y-81205000D01*
X107196464Y-81203536D01*
X107195000Y-81200000D01*
X107195000Y-80884289D01*
X107165711Y-80855000D01*
X106850000Y-80855000D01*
X106846464Y-80853536D01*
X106845000Y-80850000D01*
X106845000Y-80625000D01*
X106846464Y-80621464D01*
X106850000Y-80620000D01*
X107550000Y-80620000D01*
X107553536Y-80621464D01*
G37*
G36*
X109253536Y-80621464D02*
G01*
X109255000Y-80625000D01*
X109255000Y-80850000D01*
X109253536Y-80853536D01*
X109250000Y-80855000D01*
X109240054Y-80855000D01*
X108934289Y-80855000D01*
X108905000Y-80884289D01*
X108905000Y-81200000D01*
X108903536Y-81203536D01*
X108900000Y-81205000D01*
X108890054Y-81205000D01*
X108559946Y-81205000D01*
X108550000Y-81205000D01*
X108546464Y-81203536D01*
X108545000Y-81200000D01*
X108545000Y-80625000D01*
X108546464Y-80621464D01*
X108550000Y-80620000D01*
X109250000Y-80620000D01*
X109253536Y-80621464D01*
G37*
G36*
X103000000Y-81200000D02*
G01*
X100600000Y-81200000D01*
X100600000Y-78800000D01*
X103000000Y-78800000D01*
X103000000Y-81200000D01*
G37*
G36*
X120553701Y-80605709D02*
G01*
X120578033Y-80621967D01*
X120594291Y-80646299D01*
X120600000Y-80675000D01*
X120600000Y-80825000D01*
X120594291Y-80853701D01*
X120578033Y-80878033D01*
X120553701Y-80894291D01*
X120525000Y-80900000D01*
X119125000Y-80900000D01*
X119096299Y-80894291D01*
X119071967Y-80878033D01*
X119055709Y-80853701D01*
X119050000Y-80825000D01*
X119050000Y-80675000D01*
X119055709Y-80646299D01*
X119071967Y-80621967D01*
X119096299Y-80605709D01*
X119125000Y-80600000D01*
X120525000Y-80600000D01*
X120553701Y-80605709D01*
G37*
G36*
X131903701Y-80605709D02*
G01*
X131928033Y-80621967D01*
X131944291Y-80646299D01*
X131950000Y-80675000D01*
X131950000Y-80825000D01*
X131944291Y-80853701D01*
X131928033Y-80878033D01*
X131903701Y-80894291D01*
X131875000Y-80900000D01*
X130475000Y-80900000D01*
X130446299Y-80894291D01*
X130421967Y-80878033D01*
X130405709Y-80853701D01*
X130400000Y-80825000D01*
X130400000Y-80675000D01*
X130405709Y-80646299D01*
X130421967Y-80621967D01*
X130446299Y-80605709D01*
X130475000Y-80600000D01*
X131875000Y-80600000D01*
X131903701Y-80605709D01*
G37*
G36*
X132973576Y-80210657D02*
G01*
X133018995Y-80241005D01*
X133049343Y-80286424D01*
X133060000Y-80340000D01*
X133060000Y-80620000D01*
X133049343Y-80673576D01*
X133018995Y-80718995D01*
X132973576Y-80749343D01*
X132920000Y-80760000D01*
X132580000Y-80760000D01*
X132526424Y-80749343D01*
X132481005Y-80718995D01*
X132450657Y-80673576D01*
X132440000Y-80620000D01*
X132440000Y-80340000D01*
X132450657Y-80286424D01*
X132481005Y-80241005D01*
X132526424Y-80210657D01*
X132580000Y-80200000D01*
X132920000Y-80200000D01*
X132973576Y-80210657D01*
G37*
G36*
X138654047Y-79300805D02*
G01*
X138705408Y-79306764D01*
X138722954Y-79314511D01*
X138745671Y-79319030D01*
X138769991Y-79335280D01*
X138790793Y-79344465D01*
X138805000Y-79358672D01*
X138826777Y-79373223D01*
X138841327Y-79394999D01*
X138855534Y-79409206D01*
X138864718Y-79430006D01*
X138880970Y-79454329D01*
X138885489Y-79477048D01*
X138893235Y-79494591D01*
X138899192Y-79545940D01*
X138900000Y-79550000D01*
X138900000Y-80450000D01*
X138899192Y-80454059D01*
X138893235Y-80505408D01*
X138885489Y-80522950D01*
X138880970Y-80545671D01*
X138864716Y-80569995D01*
X138855534Y-80590793D01*
X138841329Y-80604997D01*
X138826777Y-80626777D01*
X138804997Y-80641329D01*
X138790793Y-80655534D01*
X138769995Y-80664716D01*
X138745671Y-80680970D01*
X138722950Y-80685489D01*
X138705408Y-80693235D01*
X138654061Y-80699192D01*
X138650000Y-80700000D01*
X138125000Y-80700000D01*
X138120941Y-80699192D01*
X138069591Y-80693235D01*
X138052048Y-80685489D01*
X138029329Y-80680970D01*
X138005006Y-80664718D01*
X137984206Y-80655534D01*
X137969999Y-80641327D01*
X137948223Y-80626777D01*
X137933672Y-80605000D01*
X137919465Y-80590793D01*
X137910280Y-80569991D01*
X137894030Y-80545671D01*
X137889511Y-80522954D01*
X137881764Y-80505408D01*
X137875805Y-80454049D01*
X137875000Y-80450000D01*
X137875000Y-79550000D01*
X137875804Y-79545953D01*
X137881764Y-79494591D01*
X137889511Y-79477043D01*
X137894030Y-79454329D01*
X137910278Y-79430010D01*
X137919465Y-79409206D01*
X137933674Y-79394996D01*
X137948223Y-79373223D01*
X137969996Y-79358674D01*
X137984206Y-79344465D01*
X138005010Y-79335278D01*
X138029329Y-79319030D01*
X138052043Y-79314511D01*
X138069591Y-79306764D01*
X138120952Y-79300805D01*
X138125000Y-79300000D01*
X138650000Y-79300000D01*
X138654047Y-79300805D01*
G37*
G36*
X140479047Y-79300805D02*
G01*
X140530408Y-79306764D01*
X140547954Y-79314511D01*
X140570671Y-79319030D01*
X140594991Y-79335280D01*
X140615793Y-79344465D01*
X140630000Y-79358672D01*
X140651777Y-79373223D01*
X140666327Y-79394999D01*
X140680534Y-79409206D01*
X140689718Y-79430006D01*
X140705970Y-79454329D01*
X140710489Y-79477048D01*
X140718235Y-79494591D01*
X140724192Y-79545940D01*
X140725000Y-79550000D01*
X140725000Y-80450000D01*
X140724192Y-80454059D01*
X140718235Y-80505408D01*
X140710489Y-80522950D01*
X140705970Y-80545671D01*
X140689716Y-80569995D01*
X140680534Y-80590793D01*
X140666329Y-80604997D01*
X140651777Y-80626777D01*
X140629997Y-80641329D01*
X140615793Y-80655534D01*
X140594995Y-80664716D01*
X140570671Y-80680970D01*
X140547950Y-80685489D01*
X140530408Y-80693235D01*
X140479061Y-80699192D01*
X140475000Y-80700000D01*
X139950000Y-80700000D01*
X139945941Y-80699192D01*
X139894591Y-80693235D01*
X139877048Y-80685489D01*
X139854329Y-80680970D01*
X139830006Y-80664718D01*
X139809206Y-80655534D01*
X139794999Y-80641327D01*
X139773223Y-80626777D01*
X139758672Y-80605000D01*
X139744465Y-80590793D01*
X139735280Y-80569991D01*
X139719030Y-80545671D01*
X139714511Y-80522954D01*
X139706764Y-80505408D01*
X139700805Y-80454049D01*
X139700000Y-80450000D01*
X139700000Y-79550000D01*
X139700804Y-79545953D01*
X139706764Y-79494591D01*
X139714511Y-79477043D01*
X139719030Y-79454329D01*
X139735278Y-79430010D01*
X139744465Y-79409206D01*
X139758674Y-79394996D01*
X139773223Y-79373223D01*
X139794996Y-79358674D01*
X139809206Y-79344465D01*
X139830010Y-79335278D01*
X139854329Y-79319030D01*
X139877043Y-79314511D01*
X139894591Y-79306764D01*
X139945952Y-79300805D01*
X139950000Y-79300000D01*
X140475000Y-79300000D01*
X140479047Y-79300805D01*
G37*
G36*
X151605000Y-80500000D02*
G01*
X150855000Y-80500000D01*
X150855000Y-79500000D01*
X151605000Y-79500000D01*
X151605000Y-80500000D01*
G37*
G36*
X153105000Y-80500000D02*
G01*
X152355000Y-80500000D01*
X152355000Y-79500000D01*
X153105000Y-79500000D01*
X153105000Y-80500000D01*
G37*
G36*
X154205000Y-80500000D02*
G01*
X153455000Y-80500000D01*
X153455000Y-79500000D01*
X154205000Y-79500000D01*
X154205000Y-80500000D01*
G37*
G36*
X155705000Y-80500000D02*
G01*
X154955000Y-80500000D01*
X154955000Y-79500000D01*
X155705000Y-79500000D01*
X155705000Y-80500000D01*
G37*
G36*
X156805000Y-80500000D02*
G01*
X156055000Y-80500000D01*
X156055000Y-79500000D01*
X156805000Y-79500000D01*
X156805000Y-80500000D01*
G37*
G36*
X158305000Y-80500000D02*
G01*
X157555000Y-80500000D01*
X157555000Y-79500000D01*
X158305000Y-79500000D01*
X158305000Y-80500000D01*
G37*
G36*
X159405000Y-80500000D02*
G01*
X158655000Y-80500000D01*
X158655000Y-79500000D01*
X159405000Y-79500000D01*
X159405000Y-80500000D01*
G37*
G36*
X160905000Y-80500000D02*
G01*
X160155000Y-80500000D01*
X160155000Y-79500000D01*
X160905000Y-79500000D01*
X160905000Y-80500000D01*
G37*
G36*
X162005000Y-80500000D02*
G01*
X161255000Y-80500000D01*
X161255000Y-79500000D01*
X162005000Y-79500000D01*
X162005000Y-80500000D01*
G37*
G36*
X163505000Y-80500000D02*
G01*
X162755000Y-80500000D01*
X162755000Y-79500000D01*
X163505000Y-79500000D01*
X163505000Y-80500000D01*
G37*
G36*
X164605000Y-80500000D02*
G01*
X163855000Y-80500000D01*
X163855000Y-79500000D01*
X164605000Y-79500000D01*
X164605000Y-80500000D01*
G37*
G36*
X166105000Y-80500000D02*
G01*
X165355000Y-80500000D01*
X165355000Y-79500000D01*
X166105000Y-79500000D01*
X166105000Y-80500000D01*
G37*
G36*
X167205000Y-80500000D02*
G01*
X166455000Y-80500000D01*
X166455000Y-79500000D01*
X167205000Y-79500000D01*
X167205000Y-80500000D01*
G37*
G36*
X168705000Y-80500000D02*
G01*
X167955000Y-80500000D01*
X167955000Y-79500000D01*
X168705000Y-79500000D01*
X168705000Y-80500000D01*
G37*
G36*
X169805000Y-80500000D02*
G01*
X169055000Y-80500000D01*
X169055000Y-79500000D01*
X169805000Y-79500000D01*
X169805000Y-80500000D01*
G37*
G36*
X171305000Y-80500000D02*
G01*
X170555000Y-80500000D01*
X170555000Y-79500000D01*
X171305000Y-79500000D01*
X171305000Y-80500000D01*
G37*
G36*
X172405000Y-80500000D02*
G01*
X171655000Y-80500000D01*
X171655000Y-79500000D01*
X172405000Y-79500000D01*
X172405000Y-80500000D01*
G37*
G36*
X173905000Y-80500000D02*
G01*
X173155000Y-80500000D01*
X173155000Y-79500000D01*
X173905000Y-79500000D01*
X173905000Y-80500000D01*
G37*
G36*
X175005000Y-80500000D02*
G01*
X174255000Y-80500000D01*
X174255000Y-79500000D01*
X175005000Y-79500000D01*
X175005000Y-80500000D01*
G37*
G36*
X176505000Y-80500000D02*
G01*
X175755000Y-80500000D01*
X175755000Y-79500000D01*
X176505000Y-79500000D01*
X176505000Y-80500000D01*
G37*
G36*
X177605000Y-80500000D02*
G01*
X176855000Y-80500000D01*
X176855000Y-79500000D01*
X177605000Y-79500000D01*
X177605000Y-80500000D01*
G37*
G36*
X179105000Y-80500000D02*
G01*
X178355000Y-80500000D01*
X178355000Y-79500000D01*
X179105000Y-79500000D01*
X179105000Y-80500000D01*
G37*
G36*
X180205000Y-80500000D02*
G01*
X179455000Y-80500000D01*
X179455000Y-79500000D01*
X180205000Y-79500000D01*
X180205000Y-80500000D01*
G37*
G36*
X181705000Y-80500000D02*
G01*
X180955000Y-80500000D01*
X180955000Y-79500000D01*
X181705000Y-79500000D01*
X181705000Y-80500000D01*
G37*
G36*
X182805000Y-80500000D02*
G01*
X182055000Y-80500000D01*
X182055000Y-79500000D01*
X182805000Y-79500000D01*
X182805000Y-80500000D01*
G37*
G36*
X184305000Y-80500000D02*
G01*
X183555000Y-80500000D01*
X183555000Y-79500000D01*
X184305000Y-79500000D01*
X184305000Y-80500000D01*
G37*
G36*
X185405000Y-80500000D02*
G01*
X184655000Y-80500000D01*
X184655000Y-79500000D01*
X185405000Y-79500000D01*
X185405000Y-80500000D01*
G37*
G36*
X186905000Y-80500000D02*
G01*
X186155000Y-80500000D01*
X186155000Y-79500000D01*
X186905000Y-79500000D01*
X186905000Y-80500000D01*
G37*
G36*
X188005000Y-80500000D02*
G01*
X187255000Y-80500000D01*
X187255000Y-79500000D01*
X188005000Y-79500000D01*
X188005000Y-80500000D01*
G37*
G36*
X189505000Y-80500000D02*
G01*
X188755000Y-80500000D01*
X188755000Y-79500000D01*
X189505000Y-79500000D01*
X189505000Y-80500000D01*
G37*
G36*
X190605000Y-80500000D02*
G01*
X189855000Y-80500000D01*
X189855000Y-79500000D01*
X190605000Y-79500000D01*
X190605000Y-80500000D01*
G37*
G36*
X192105000Y-80500000D02*
G01*
X191355000Y-80500000D01*
X191355000Y-79500000D01*
X192105000Y-79500000D01*
X192105000Y-80500000D01*
G37*
G36*
X193205000Y-80500000D02*
G01*
X192455000Y-80500000D01*
X192455000Y-79500000D01*
X193205000Y-79500000D01*
X193205000Y-80500000D01*
G37*
G36*
X194705000Y-80500000D02*
G01*
X193955000Y-80500000D01*
X193955000Y-79500000D01*
X194705000Y-79500000D01*
X194705000Y-80500000D01*
G37*
G36*
X120553701Y-80105709D02*
G01*
X120578033Y-80121967D01*
X120594291Y-80146299D01*
X120600000Y-80175000D01*
X120600000Y-80325000D01*
X120594291Y-80353701D01*
X120578033Y-80378033D01*
X120553701Y-80394291D01*
X120525000Y-80400000D01*
X119125000Y-80400000D01*
X119096299Y-80394291D01*
X119071967Y-80378033D01*
X119055709Y-80353701D01*
X119050000Y-80325000D01*
X119050000Y-80175000D01*
X119055709Y-80146299D01*
X119071967Y-80121967D01*
X119096299Y-80105709D01*
X119125000Y-80100000D01*
X120525000Y-80100000D01*
X120553701Y-80105709D01*
G37*
G36*
X131903701Y-80105709D02*
G01*
X131928033Y-80121967D01*
X131944291Y-80146299D01*
X131950000Y-80175000D01*
X131950000Y-80325000D01*
X131944291Y-80353701D01*
X131928033Y-80378033D01*
X131903701Y-80394291D01*
X131875000Y-80400000D01*
X130475000Y-80400000D01*
X130446299Y-80394291D01*
X130421967Y-80378033D01*
X130405709Y-80353701D01*
X130400000Y-80325000D01*
X130400000Y-80175000D01*
X130405709Y-80146299D01*
X130421967Y-80121967D01*
X130446299Y-80105709D01*
X130475000Y-80100000D01*
X131875000Y-80100000D01*
X131903701Y-80105709D01*
G37*
G36*
X107453536Y-80121464D02*
G01*
X107455000Y-80125000D01*
X107455000Y-80375000D01*
X107453536Y-80378536D01*
X107450000Y-80380000D01*
X107440054Y-80380000D01*
X106859946Y-80380000D01*
X106850000Y-80380000D01*
X106846464Y-80378536D01*
X106845000Y-80375000D01*
X106845000Y-80125000D01*
X106846464Y-80121464D01*
X106850000Y-80120000D01*
X107450000Y-80120000D01*
X107453536Y-80121464D01*
G37*
G36*
X109253536Y-80121464D02*
G01*
X109255000Y-80125000D01*
X109255000Y-80375000D01*
X109253536Y-80378536D01*
X109250000Y-80380000D01*
X109240054Y-80380000D01*
X108659946Y-80380000D01*
X108650000Y-80380000D01*
X108646464Y-80378536D01*
X108645000Y-80375000D01*
X108645000Y-80125000D01*
X108646464Y-80121464D01*
X108650000Y-80120000D01*
X109250000Y-80120000D01*
X109253536Y-80121464D01*
G37*
G36*
X110223576Y-79800657D02*
G01*
X110268995Y-79831005D01*
X110299343Y-79876424D01*
X110310000Y-79930000D01*
X110310000Y-80210000D01*
X110299343Y-80263576D01*
X110268995Y-80308995D01*
X110223576Y-80339343D01*
X110170000Y-80350000D01*
X109830000Y-80350000D01*
X109776424Y-80339343D01*
X109731005Y-80308995D01*
X109700657Y-80263576D01*
X109690000Y-80210000D01*
X109690000Y-79930000D01*
X109700657Y-79876424D01*
X109731005Y-79831005D01*
X109776424Y-79800657D01*
X109830000Y-79790000D01*
X110170000Y-79790000D01*
X110223576Y-79800657D01*
G37*
G36*
X196936662Y-79690276D02*
G01*
X196980459Y-79719541D01*
X197009724Y-79763338D01*
X197020000Y-79815000D01*
X197020000Y-80185000D01*
X197009724Y-80236662D01*
X196980459Y-80280459D01*
X196936662Y-80309724D01*
X196885000Y-80320000D01*
X196615000Y-80320000D01*
X196563338Y-80309724D01*
X196519541Y-80280459D01*
X196490276Y-80236662D01*
X196480000Y-80185000D01*
X196480000Y-79815000D01*
X196490276Y-79763338D01*
X196519541Y-79719541D01*
X196563338Y-79690276D01*
X196615000Y-79680000D01*
X196885000Y-79680000D01*
X196936662Y-79690276D01*
G37*
G36*
X197956662Y-79690276D02*
G01*
X198000459Y-79719541D01*
X198029724Y-79763338D01*
X198040000Y-79815000D01*
X198040000Y-80185000D01*
X198029724Y-80236662D01*
X198000459Y-80280459D01*
X197956662Y-80309724D01*
X197905000Y-80320000D01*
X197635000Y-80320000D01*
X197583338Y-80309724D01*
X197539541Y-80280459D01*
X197510276Y-80236662D01*
X197500000Y-80185000D01*
X197500000Y-79815000D01*
X197510276Y-79763338D01*
X197539541Y-79719541D01*
X197583338Y-79690276D01*
X197635000Y-79680000D01*
X197905000Y-79680000D01*
X197956662Y-79690276D01*
G37*
G36*
X136817403Y-79711418D02*
G01*
X136866066Y-79743934D01*
X136898582Y-79792597D01*
X136910000Y-79850000D01*
X136910000Y-80150000D01*
X136898582Y-80207403D01*
X136866066Y-80256066D01*
X136817403Y-80288582D01*
X136760000Y-80300000D01*
X135585000Y-80300000D01*
X135527597Y-80288582D01*
X135478934Y-80256066D01*
X135446418Y-80207403D01*
X135435000Y-80150000D01*
X135435000Y-79850000D01*
X135446418Y-79792597D01*
X135478934Y-79743934D01*
X135527597Y-79711418D01*
X135585000Y-79700000D01*
X136760000Y-79700000D01*
X136817403Y-79711418D01*
G37*
G36*
X104125552Y-79783564D02*
G01*
X104162050Y-79807950D01*
X104186436Y-79844448D01*
X104195000Y-79887500D01*
X104195000Y-80112500D01*
X104186436Y-80155552D01*
X104162050Y-80192050D01*
X104125552Y-80216436D01*
X104082500Y-80225000D01*
X103707500Y-80225000D01*
X103664448Y-80216436D01*
X103627950Y-80192050D01*
X103603564Y-80155552D01*
X103595000Y-80112500D01*
X103595000Y-79887500D01*
X103603564Y-79844448D01*
X103627950Y-79807950D01*
X103664448Y-79783564D01*
X103707500Y-79775000D01*
X104082500Y-79775000D01*
X104125552Y-79783564D01*
G37*
G36*
X106225552Y-79783564D02*
G01*
X106262050Y-79807950D01*
X106286436Y-79844448D01*
X106295000Y-79887500D01*
X106295000Y-80112500D01*
X106286436Y-80155552D01*
X106262050Y-80192050D01*
X106225552Y-80216436D01*
X106182500Y-80225000D01*
X105807500Y-80225000D01*
X105764448Y-80216436D01*
X105727950Y-80192050D01*
X105703564Y-80155552D01*
X105695000Y-80112500D01*
X105695000Y-79887500D01*
X105703564Y-79844448D01*
X105727950Y-79807950D01*
X105764448Y-79783564D01*
X105807500Y-79775000D01*
X106182500Y-79775000D01*
X106225552Y-79783564D01*
G37*
G36*
X116075552Y-79783564D02*
G01*
X116112050Y-79807950D01*
X116136436Y-79844448D01*
X116145000Y-79887500D01*
X116145000Y-80112500D01*
X116136436Y-80155552D01*
X116112050Y-80192050D01*
X116075552Y-80216436D01*
X116032500Y-80225000D01*
X115657500Y-80225000D01*
X115614448Y-80216436D01*
X115577950Y-80192050D01*
X115553564Y-80155552D01*
X115545000Y-80112500D01*
X115545000Y-79887500D01*
X115553564Y-79844448D01*
X115577950Y-79807950D01*
X115614448Y-79783564D01*
X115657500Y-79775000D01*
X116032500Y-79775000D01*
X116075552Y-79783564D01*
G37*
G36*
X118175552Y-79783564D02*
G01*
X118212050Y-79807950D01*
X118236436Y-79844448D01*
X118245000Y-79887500D01*
X118245000Y-80112500D01*
X118236436Y-80155552D01*
X118212050Y-80192050D01*
X118175552Y-80216436D01*
X118132500Y-80225000D01*
X117757500Y-80225000D01*
X117714448Y-80216436D01*
X117677950Y-80192050D01*
X117653564Y-80155552D01*
X117645000Y-80112500D01*
X117645000Y-79887500D01*
X117653564Y-79844448D01*
X117677950Y-79807950D01*
X117714448Y-79783564D01*
X117757500Y-79775000D01*
X118132500Y-79775000D01*
X118175552Y-79783564D01*
G37*
G36*
X108228536Y-78796464D02*
G01*
X108230000Y-78800000D01*
X108230000Y-80100000D01*
X108228536Y-80103536D01*
X108225000Y-80105000D01*
X108215054Y-80105000D01*
X107884946Y-80105000D01*
X107875000Y-80105000D01*
X107871464Y-80103536D01*
X107870000Y-80100000D01*
X107870000Y-78800000D01*
X107871464Y-78796464D01*
X107875000Y-78795000D01*
X108225000Y-78795000D01*
X108228536Y-78796464D01*
G37*
G36*
X120553701Y-79605709D02*
G01*
X120578033Y-79621967D01*
X120594291Y-79646299D01*
X120600000Y-79675000D01*
X120600000Y-79825000D01*
X120594291Y-79853701D01*
X120578033Y-79878033D01*
X120553701Y-79894291D01*
X120525000Y-79900000D01*
X119125000Y-79900000D01*
X119096299Y-79894291D01*
X119071967Y-79878033D01*
X119055709Y-79853701D01*
X119050000Y-79825000D01*
X119050000Y-79675000D01*
X119055709Y-79646299D01*
X119071967Y-79621967D01*
X119096299Y-79605709D01*
X119125000Y-79600000D01*
X120525000Y-79600000D01*
X120553701Y-79605709D01*
G37*
G36*
X131903701Y-79605709D02*
G01*
X131928033Y-79621967D01*
X131944291Y-79646299D01*
X131950000Y-79675000D01*
X131950000Y-79825000D01*
X131944291Y-79853701D01*
X131928033Y-79878033D01*
X131903701Y-79894291D01*
X131875000Y-79900000D01*
X130475000Y-79900000D01*
X130446299Y-79894291D01*
X130421967Y-79878033D01*
X130405709Y-79853701D01*
X130400000Y-79825000D01*
X130400000Y-79675000D01*
X130405709Y-79646299D01*
X130421967Y-79621967D01*
X130446299Y-79605709D01*
X130475000Y-79600000D01*
X131875000Y-79600000D01*
X131903701Y-79605709D01*
G37*
G36*
X107453536Y-79621464D02*
G01*
X107455000Y-79625000D01*
X107455000Y-79875000D01*
X107453536Y-79878536D01*
X107450000Y-79880000D01*
X107440054Y-79880000D01*
X106859946Y-79880000D01*
X106850000Y-79880000D01*
X106846464Y-79878536D01*
X106845000Y-79875000D01*
X106845000Y-79625000D01*
X106846464Y-79621464D01*
X106850000Y-79620000D01*
X107450000Y-79620000D01*
X107453536Y-79621464D01*
G37*
G36*
X109253536Y-79621464D02*
G01*
X109255000Y-79625000D01*
X109255000Y-79875000D01*
X109253536Y-79878536D01*
X109250000Y-79880000D01*
X109240054Y-79880000D01*
X108659946Y-79880000D01*
X108650000Y-79880000D01*
X108646464Y-79878536D01*
X108645000Y-79875000D01*
X108645000Y-79625000D01*
X108646464Y-79621464D01*
X108650000Y-79620000D01*
X109250000Y-79620000D01*
X109253536Y-79621464D01*
G37*
G36*
X132973576Y-79250657D02*
G01*
X133018995Y-79281005D01*
X133049343Y-79326424D01*
X133060000Y-79380000D01*
X133060000Y-79660000D01*
X133049343Y-79713576D01*
X133018995Y-79758995D01*
X132973576Y-79789343D01*
X132920000Y-79800000D01*
X132580000Y-79800000D01*
X132526424Y-79789343D01*
X132481005Y-79758995D01*
X132450657Y-79713576D01*
X132440000Y-79660000D01*
X132440000Y-79380000D01*
X132450657Y-79326424D01*
X132481005Y-79281005D01*
X132526424Y-79250657D01*
X132580000Y-79240000D01*
X132920000Y-79240000D01*
X132973576Y-79250657D01*
G37*
G36*
X120553701Y-79105709D02*
G01*
X120578033Y-79121967D01*
X120594291Y-79146299D01*
X120600000Y-79175000D01*
X120600000Y-79325000D01*
X120594291Y-79353701D01*
X120578033Y-79378033D01*
X120553701Y-79394291D01*
X120525000Y-79400000D01*
X119125000Y-79400000D01*
X119096299Y-79394291D01*
X119071967Y-79378033D01*
X119055709Y-79353701D01*
X119050000Y-79325000D01*
X119050000Y-79175000D01*
X119055709Y-79146299D01*
X119071967Y-79121967D01*
X119096299Y-79105709D01*
X119125000Y-79100000D01*
X120525000Y-79100000D01*
X120553701Y-79105709D01*
G37*
G36*
X131903701Y-79105709D02*
G01*
X131928033Y-79121967D01*
X131944291Y-79146299D01*
X131950000Y-79175000D01*
X131950000Y-79325000D01*
X131944291Y-79353701D01*
X131928033Y-79378033D01*
X131903701Y-79394291D01*
X131875000Y-79400000D01*
X130475000Y-79400000D01*
X130446299Y-79394291D01*
X130421967Y-79378033D01*
X130405709Y-79353701D01*
X130400000Y-79325000D01*
X130400000Y-79175000D01*
X130405709Y-79146299D01*
X130421967Y-79121967D01*
X130446299Y-79105709D01*
X130475000Y-79100000D01*
X131875000Y-79100000D01*
X131903701Y-79105709D01*
G37*
G36*
X107603536Y-78796464D02*
G01*
X107605000Y-78800000D01*
X107605000Y-79375000D01*
X107603536Y-79378536D01*
X107600000Y-79380000D01*
X107590054Y-79380000D01*
X106859946Y-79380000D01*
X106850000Y-79380000D01*
X106846464Y-79378536D01*
X106845000Y-79375000D01*
X106845000Y-79150000D01*
X106846464Y-79146464D01*
X106850000Y-79145000D01*
X107165711Y-79145000D01*
X107195000Y-79115711D01*
X107195000Y-78809945D01*
X107195000Y-78800000D01*
X107196464Y-78796464D01*
X107200000Y-78795000D01*
X107600000Y-78795000D01*
X107603536Y-78796464D01*
G37*
G36*
X108903536Y-78796464D02*
G01*
X108905000Y-78800000D01*
X108905000Y-78809945D01*
X108905000Y-79115711D01*
X108934289Y-79145000D01*
X109240054Y-79145000D01*
X109250000Y-79145000D01*
X109253536Y-79146464D01*
X109255000Y-79150000D01*
X109255000Y-79375000D01*
X109253536Y-79378536D01*
X109250000Y-79380000D01*
X109240054Y-79380000D01*
X108509946Y-79380000D01*
X108500000Y-79380000D01*
X108496464Y-79378536D01*
X108495000Y-79375000D01*
X108495000Y-78800000D01*
X108496464Y-78796464D01*
X108500000Y-78795000D01*
X108900000Y-78795000D01*
X108903536Y-78796464D01*
G37*
G36*
X134942403Y-78761418D02*
G01*
X134991066Y-78793934D01*
X135023582Y-78842597D01*
X135035000Y-78900000D01*
X135035000Y-79200000D01*
X135023582Y-79257403D01*
X134991066Y-79306066D01*
X134942403Y-79338582D01*
X134885000Y-79350000D01*
X133710000Y-79350000D01*
X133652597Y-79338582D01*
X133603934Y-79306066D01*
X133571418Y-79257403D01*
X133560000Y-79200000D01*
X133560000Y-78900000D01*
X133571418Y-78842597D01*
X133603934Y-78793934D01*
X133652597Y-78761418D01*
X133710000Y-78750000D01*
X134885000Y-78750000D01*
X134942403Y-78761418D01*
G37*
G36*
X110223576Y-78710657D02*
G01*
X110268995Y-78741005D01*
X110299343Y-78786424D01*
X110310000Y-78840000D01*
X110310000Y-79120000D01*
X110299343Y-79173576D01*
X110268995Y-79218995D01*
X110223576Y-79249343D01*
X110170000Y-79260000D01*
X109830000Y-79260000D01*
X109776424Y-79249343D01*
X109731005Y-79218995D01*
X109700657Y-79173576D01*
X109690000Y-79120000D01*
X109690000Y-78840000D01*
X109700657Y-78786424D01*
X109731005Y-78741005D01*
X109776424Y-78710657D01*
X109830000Y-78700000D01*
X110170000Y-78700000D01*
X110223576Y-78710657D01*
G37*
G36*
X120553701Y-78605709D02*
G01*
X120578033Y-78621967D01*
X120594291Y-78646299D01*
X120600000Y-78675000D01*
X120600000Y-78825000D01*
X120594291Y-78853701D01*
X120578033Y-78878033D01*
X120553701Y-78894291D01*
X120525000Y-78900000D01*
X119125000Y-78900000D01*
X119096299Y-78894291D01*
X119071967Y-78878033D01*
X119055709Y-78853701D01*
X119050000Y-78825000D01*
X119050000Y-78675000D01*
X119055709Y-78646299D01*
X119071967Y-78621967D01*
X119096299Y-78605709D01*
X119125000Y-78600000D01*
X120525000Y-78600000D01*
X120553701Y-78605709D01*
G37*
G36*
X131903701Y-78605709D02*
G01*
X131928033Y-78621967D01*
X131944291Y-78646299D01*
X131950000Y-78675000D01*
X131950000Y-78825000D01*
X131944291Y-78853701D01*
X131928033Y-78878033D01*
X131903701Y-78894291D01*
X131875000Y-78900000D01*
X130475000Y-78900000D01*
X130446299Y-78894291D01*
X130421967Y-78878033D01*
X130405709Y-78853701D01*
X130400000Y-78825000D01*
X130400000Y-78675000D01*
X130405709Y-78646299D01*
X130421967Y-78621967D01*
X130446299Y-78605709D01*
X130475000Y-78600000D01*
X131875000Y-78600000D01*
X131903701Y-78605709D01*
G37*
G36*
X138676662Y-78090276D02*
G01*
X138720459Y-78119541D01*
X138749724Y-78163338D01*
X138760000Y-78215000D01*
X138760000Y-78585000D01*
X138749724Y-78636662D01*
X138720459Y-78680459D01*
X138676662Y-78709724D01*
X138625000Y-78720000D01*
X138355000Y-78720000D01*
X138303338Y-78709724D01*
X138259541Y-78680459D01*
X138230276Y-78636662D01*
X138220000Y-78585000D01*
X138220000Y-78215000D01*
X138230276Y-78163338D01*
X138259541Y-78119541D01*
X138303338Y-78090276D01*
X138355000Y-78080000D01*
X138625000Y-78080000D01*
X138676662Y-78090276D01*
G37*
G36*
X139696662Y-78090276D02*
G01*
X139740459Y-78119541D01*
X139769724Y-78163338D01*
X139780000Y-78215000D01*
X139780000Y-78585000D01*
X139769724Y-78636662D01*
X139740459Y-78680459D01*
X139696662Y-78709724D01*
X139645000Y-78720000D01*
X139375000Y-78720000D01*
X139323338Y-78709724D01*
X139279541Y-78680459D01*
X139250276Y-78636662D01*
X139240000Y-78585000D01*
X139240000Y-78215000D01*
X139250276Y-78163338D01*
X139279541Y-78119541D01*
X139323338Y-78090276D01*
X139375000Y-78080000D01*
X139645000Y-78080000D01*
X139696662Y-78090276D01*
G37*
G36*
X116336104Y-77592127D02*
G01*
X116409099Y-77640901D01*
X116457873Y-77713896D01*
X116475000Y-77800000D01*
X116475000Y-78300000D01*
X116457873Y-78386104D01*
X116409099Y-78459099D01*
X116336104Y-78507873D01*
X116250000Y-78525000D01*
X115800000Y-78525000D01*
X115713896Y-78507873D01*
X115640901Y-78459099D01*
X115592127Y-78386104D01*
X115575000Y-78300000D01*
X115575000Y-77800000D01*
X115592127Y-77713896D01*
X115640901Y-77640901D01*
X115713896Y-77592127D01*
X115800000Y-77575000D01*
X116250000Y-77575000D01*
X116336104Y-77592127D01*
G37*
G36*
X117886104Y-77592127D02*
G01*
X117959099Y-77640901D01*
X118007873Y-77713896D01*
X118025000Y-77800000D01*
X118025000Y-78300000D01*
X118007873Y-78386104D01*
X117959099Y-78459099D01*
X117886104Y-78507873D01*
X117800000Y-78525000D01*
X117350000Y-78525000D01*
X117263896Y-78507873D01*
X117190901Y-78459099D01*
X117142127Y-78386104D01*
X117125000Y-78300000D01*
X117125000Y-77800000D01*
X117142127Y-77713896D01*
X117190901Y-77640901D01*
X117263896Y-77592127D01*
X117350000Y-77575000D01*
X117800000Y-77575000D01*
X117886104Y-77592127D01*
G37*
G36*
X120553701Y-78105709D02*
G01*
X120578033Y-78121967D01*
X120594291Y-78146299D01*
X120600000Y-78175000D01*
X120600000Y-78325000D01*
X120594291Y-78353701D01*
X120578033Y-78378033D01*
X120553701Y-78394291D01*
X120525000Y-78400000D01*
X119125000Y-78400000D01*
X119096299Y-78394291D01*
X119071967Y-78378033D01*
X119055709Y-78353701D01*
X119050000Y-78325000D01*
X119050000Y-78175000D01*
X119055709Y-78146299D01*
X119071967Y-78121967D01*
X119096299Y-78105709D01*
X119125000Y-78100000D01*
X120525000Y-78100000D01*
X120553701Y-78105709D01*
G37*
G36*
X131903701Y-78105709D02*
G01*
X131928033Y-78121967D01*
X131944291Y-78146299D01*
X131950000Y-78175000D01*
X131950000Y-78325000D01*
X131944291Y-78353701D01*
X131928033Y-78378033D01*
X131903701Y-78394291D01*
X131875000Y-78400000D01*
X130475000Y-78400000D01*
X130446299Y-78394291D01*
X130421967Y-78378033D01*
X130405709Y-78353701D01*
X130400000Y-78325000D01*
X130400000Y-78175000D01*
X130405709Y-78146299D01*
X130421967Y-78121967D01*
X130446299Y-78105709D01*
X130475000Y-78100000D01*
X131875000Y-78100000D01*
X131903701Y-78105709D01*
G37*
G36*
X110223576Y-77750657D02*
G01*
X110268995Y-77781005D01*
X110299343Y-77826424D01*
X110310000Y-77880000D01*
X110310000Y-78160000D01*
X110299343Y-78213576D01*
X110268995Y-78258995D01*
X110223576Y-78289343D01*
X110170000Y-78300000D01*
X109830000Y-78300000D01*
X109776424Y-78289343D01*
X109731005Y-78258995D01*
X109700657Y-78213576D01*
X109690000Y-78160000D01*
X109690000Y-77880000D01*
X109700657Y-77826424D01*
X109731005Y-77781005D01*
X109776424Y-77750657D01*
X109830000Y-77740000D01*
X110170000Y-77740000D01*
X110223576Y-77750657D01*
G37*
G36*
X120553701Y-77605709D02*
G01*
X120578033Y-77621967D01*
X120594291Y-77646299D01*
X120600000Y-77675000D01*
X120600000Y-77825000D01*
X120594291Y-77853701D01*
X120578033Y-77878033D01*
X120553701Y-77894291D01*
X120525000Y-77900000D01*
X119125000Y-77900000D01*
X119096299Y-77894291D01*
X119071967Y-77878033D01*
X119055709Y-77853701D01*
X119050000Y-77825000D01*
X119050000Y-77675000D01*
X119055709Y-77646299D01*
X119071967Y-77621967D01*
X119096299Y-77605709D01*
X119125000Y-77600000D01*
X120525000Y-77600000D01*
X120553701Y-77605709D01*
G37*
G36*
X131903701Y-77605709D02*
G01*
X131928033Y-77621967D01*
X131944291Y-77646299D01*
X131950000Y-77675000D01*
X131950000Y-77825000D01*
X131944291Y-77853701D01*
X131928033Y-77878033D01*
X131903701Y-77894291D01*
X131875000Y-77900000D01*
X130475000Y-77900000D01*
X130446299Y-77894291D01*
X130421967Y-77878033D01*
X130405709Y-77853701D01*
X130400000Y-77825000D01*
X130400000Y-77675000D01*
X130405709Y-77646299D01*
X130421967Y-77621967D01*
X130446299Y-77605709D01*
X130475000Y-77600000D01*
X131875000Y-77600000D01*
X131903701Y-77605709D01*
G37*
G36*
X104704047Y-76750805D02*
G01*
X104755408Y-76756764D01*
X104772954Y-76764511D01*
X104795671Y-76769030D01*
X104819991Y-76785280D01*
X104840793Y-76794465D01*
X104855000Y-76808672D01*
X104876777Y-76823223D01*
X104891327Y-76844999D01*
X104905534Y-76859206D01*
X104914718Y-76880006D01*
X104930970Y-76904329D01*
X104935489Y-76927048D01*
X104943235Y-76944591D01*
X104949192Y-76995940D01*
X104950000Y-77000000D01*
X104950000Y-77600000D01*
X104949192Y-77604059D01*
X104943235Y-77655408D01*
X104935489Y-77672950D01*
X104930970Y-77695671D01*
X104914716Y-77719995D01*
X104905534Y-77740793D01*
X104891329Y-77754997D01*
X104876777Y-77776777D01*
X104854997Y-77791329D01*
X104840793Y-77805534D01*
X104819995Y-77814716D01*
X104795671Y-77830970D01*
X104772950Y-77835489D01*
X104755408Y-77843235D01*
X104704061Y-77849192D01*
X104700000Y-77850000D01*
X104100000Y-77850000D01*
X104095941Y-77849192D01*
X104044591Y-77843235D01*
X104027048Y-77835489D01*
X104004329Y-77830970D01*
X103980006Y-77814718D01*
X103959206Y-77805534D01*
X103944999Y-77791327D01*
X103923223Y-77776777D01*
X103908672Y-77755000D01*
X103894465Y-77740793D01*
X103885280Y-77719991D01*
X103869030Y-77695671D01*
X103864511Y-77672954D01*
X103856764Y-77655408D01*
X103850805Y-77604049D01*
X103850000Y-77600000D01*
X103850000Y-77000000D01*
X103850804Y-76995953D01*
X103856764Y-76944591D01*
X103864511Y-76927043D01*
X103869030Y-76904329D01*
X103885278Y-76880010D01*
X103894465Y-76859206D01*
X103908674Y-76844996D01*
X103923223Y-76823223D01*
X103944996Y-76808674D01*
X103959206Y-76794465D01*
X103980010Y-76785278D01*
X104004329Y-76769030D01*
X104027043Y-76764511D01*
X104044591Y-76756764D01*
X104095952Y-76750805D01*
X104100000Y-76750000D01*
X104700000Y-76750000D01*
X104704047Y-76750805D01*
G37*
G36*
X107504047Y-76750805D02*
G01*
X107555408Y-76756764D01*
X107572954Y-76764511D01*
X107595671Y-76769030D01*
X107619991Y-76785280D01*
X107640793Y-76794465D01*
X107655000Y-76808672D01*
X107676777Y-76823223D01*
X107691327Y-76844999D01*
X107705534Y-76859206D01*
X107714718Y-76880006D01*
X107730970Y-76904329D01*
X107735489Y-76927048D01*
X107743235Y-76944591D01*
X107749192Y-76995940D01*
X107750000Y-77000000D01*
X107750000Y-77600000D01*
X107749192Y-77604059D01*
X107743235Y-77655408D01*
X107735489Y-77672950D01*
X107730970Y-77695671D01*
X107714716Y-77719995D01*
X107705534Y-77740793D01*
X107691329Y-77754997D01*
X107676777Y-77776777D01*
X107654997Y-77791329D01*
X107640793Y-77805534D01*
X107619995Y-77814716D01*
X107595671Y-77830970D01*
X107572950Y-77835489D01*
X107555408Y-77843235D01*
X107504061Y-77849192D01*
X107500000Y-77850000D01*
X106900000Y-77850000D01*
X106895941Y-77849192D01*
X106844591Y-77843235D01*
X106827048Y-77835489D01*
X106804329Y-77830970D01*
X106780006Y-77814718D01*
X106759206Y-77805534D01*
X106744999Y-77791327D01*
X106723223Y-77776777D01*
X106708672Y-77755000D01*
X106694465Y-77740793D01*
X106685280Y-77719991D01*
X106669030Y-77695671D01*
X106664511Y-77672954D01*
X106656764Y-77655408D01*
X106650805Y-77604049D01*
X106650000Y-77600000D01*
X106650000Y-77000000D01*
X106650804Y-76995953D01*
X106656764Y-76944591D01*
X106664511Y-76927043D01*
X106669030Y-76904329D01*
X106685278Y-76880010D01*
X106694465Y-76859206D01*
X106708674Y-76844996D01*
X106723223Y-76823223D01*
X106744996Y-76808674D01*
X106759206Y-76794465D01*
X106780010Y-76785278D01*
X106804329Y-76769030D01*
X106827043Y-76764511D01*
X106844591Y-76756764D01*
X106895952Y-76750805D01*
X106900000Y-76750000D01*
X107500000Y-76750000D01*
X107504047Y-76750805D01*
G37*
G36*
X138726662Y-77180276D02*
G01*
X138770459Y-77209541D01*
X138799724Y-77253338D01*
X138810000Y-77305000D01*
X138810000Y-77575000D01*
X138799724Y-77626662D01*
X138770459Y-77670459D01*
X138726662Y-77699724D01*
X138675000Y-77710000D01*
X138305000Y-77710000D01*
X138253338Y-77699724D01*
X138209541Y-77670459D01*
X138180276Y-77626662D01*
X138170000Y-77575000D01*
X138170000Y-77305000D01*
X138180276Y-77253338D01*
X138209541Y-77209541D01*
X138253338Y-77180276D01*
X138305000Y-77170000D01*
X138675000Y-77170000D01*
X138726662Y-77180276D01*
G37*
G36*
X120553701Y-77105709D02*
G01*
X120578033Y-77121967D01*
X120594291Y-77146299D01*
X120600000Y-77175000D01*
X120600000Y-77325000D01*
X120594291Y-77353701D01*
X120578033Y-77378033D01*
X120553701Y-77394291D01*
X120525000Y-77400000D01*
X119125000Y-77400000D01*
X119096299Y-77394291D01*
X119071967Y-77378033D01*
X119055709Y-77353701D01*
X119050000Y-77325000D01*
X119050000Y-77175000D01*
X119055709Y-77146299D01*
X119071967Y-77121967D01*
X119096299Y-77105709D01*
X119125000Y-77100000D01*
X120525000Y-77100000D01*
X120553701Y-77105709D01*
G37*
G36*
X131903701Y-77105709D02*
G01*
X131928033Y-77121967D01*
X131944291Y-77146299D01*
X131950000Y-77175000D01*
X131950000Y-77325000D01*
X131944291Y-77353701D01*
X131928033Y-77378033D01*
X131903701Y-77394291D01*
X131875000Y-77400000D01*
X130475000Y-77400000D01*
X130446299Y-77394291D01*
X130421967Y-77378033D01*
X130405709Y-77353701D01*
X130400000Y-77325000D01*
X130400000Y-77175000D01*
X130405709Y-77146299D01*
X130421967Y-77121967D01*
X130446299Y-77105709D01*
X130475000Y-77100000D01*
X131875000Y-77100000D01*
X131903701Y-77105709D01*
G37*
G36*
X102080134Y-74833156D02*
G01*
X102259220Y-74891345D01*
X102426998Y-74976832D01*
X102579338Y-75087513D01*
X102712487Y-75220662D01*
X102823168Y-75373002D01*
X102908655Y-75540780D01*
X102966844Y-75719866D01*
X102996301Y-75905849D01*
X102996301Y-76094151D01*
X102966844Y-76280134D01*
X102908655Y-76459220D01*
X102823168Y-76626998D01*
X102712487Y-76779338D01*
X102579338Y-76912487D01*
X102426998Y-77023168D01*
X102259220Y-77108655D01*
X102080134Y-77166844D01*
X101894151Y-77196301D01*
X101705849Y-77196301D01*
X101519866Y-77166844D01*
X101340780Y-77108655D01*
X101173002Y-77023168D01*
X101020662Y-76912487D01*
X100887513Y-76779338D01*
X100776832Y-76626998D01*
X100691345Y-76459220D01*
X100633156Y-76280134D01*
X100603699Y-76094151D01*
X100603699Y-75905849D01*
X100633156Y-75719866D01*
X100691345Y-75540780D01*
X100776832Y-75373002D01*
X100887513Y-75220662D01*
X101020662Y-75087513D01*
X101173002Y-74976832D01*
X101340780Y-74891345D01*
X101519866Y-74833156D01*
X101705849Y-74803699D01*
X101894151Y-74803699D01*
X102080134Y-74833156D01*
G37*
G36*
X120553701Y-76605709D02*
G01*
X120578033Y-76621967D01*
X120594291Y-76646299D01*
X120600000Y-76675000D01*
X120600000Y-76825000D01*
X120594291Y-76853701D01*
X120578033Y-76878033D01*
X120553701Y-76894291D01*
X120525000Y-76900000D01*
X119125000Y-76900000D01*
X119096299Y-76894291D01*
X119071967Y-76878033D01*
X119055709Y-76853701D01*
X119050000Y-76825000D01*
X119050000Y-76675000D01*
X119055709Y-76646299D01*
X119071967Y-76621967D01*
X119096299Y-76605709D01*
X119125000Y-76600000D01*
X120525000Y-76600000D01*
X120553701Y-76605709D01*
G37*
G36*
X131903701Y-76605709D02*
G01*
X131928033Y-76621967D01*
X131944291Y-76646299D01*
X131950000Y-76675000D01*
X131950000Y-76825000D01*
X131944291Y-76853701D01*
X131928033Y-76878033D01*
X131903701Y-76894291D01*
X131875000Y-76900000D01*
X130475000Y-76900000D01*
X130446299Y-76894291D01*
X130421967Y-76878033D01*
X130405709Y-76853701D01*
X130400000Y-76825000D01*
X130400000Y-76675000D01*
X130405709Y-76646299D01*
X130421967Y-76621967D01*
X130446299Y-76605709D01*
X130475000Y-76600000D01*
X131875000Y-76600000D01*
X131903701Y-76605709D01*
G37*
G36*
X138726662Y-76160276D02*
G01*
X138770459Y-76189541D01*
X138799724Y-76233338D01*
X138810000Y-76285000D01*
X138810000Y-76555000D01*
X138799724Y-76606662D01*
X138770459Y-76650459D01*
X138726662Y-76679724D01*
X138675000Y-76690000D01*
X138305000Y-76690000D01*
X138253338Y-76679724D01*
X138209541Y-76650459D01*
X138180276Y-76606662D01*
X138170000Y-76555000D01*
X138170000Y-76285000D01*
X138180276Y-76233338D01*
X138209541Y-76189541D01*
X138253338Y-76160276D01*
X138305000Y-76150000D01*
X138675000Y-76150000D01*
X138726662Y-76160276D01*
G37*
G36*
X133323576Y-75925657D02*
G01*
X133368995Y-75956005D01*
X133399343Y-76001424D01*
X133410000Y-76055000D01*
X133410000Y-76335000D01*
X133399343Y-76388576D01*
X133368995Y-76433995D01*
X133323576Y-76464343D01*
X133270000Y-76475000D01*
X132930000Y-76475000D01*
X132876424Y-76464343D01*
X132831005Y-76433995D01*
X132800657Y-76388576D01*
X132790000Y-76335000D01*
X132790000Y-76055000D01*
X132800657Y-76001424D01*
X132831005Y-75956005D01*
X132876424Y-75925657D01*
X132930000Y-75915000D01*
X133270000Y-75915000D01*
X133323576Y-75925657D01*
G37*
G36*
X135523576Y-75925657D02*
G01*
X135568995Y-75956005D01*
X135599343Y-76001424D01*
X135610000Y-76055000D01*
X135610000Y-76335000D01*
X135599343Y-76388576D01*
X135568995Y-76433995D01*
X135523576Y-76464343D01*
X135470000Y-76475000D01*
X135130000Y-76475000D01*
X135076424Y-76464343D01*
X135031005Y-76433995D01*
X135000657Y-76388576D01*
X134990000Y-76335000D01*
X134990000Y-76055000D01*
X135000657Y-76001424D01*
X135031005Y-75956005D01*
X135076424Y-75925657D01*
X135130000Y-75915000D01*
X135470000Y-75915000D01*
X135523576Y-75925657D01*
G37*
G36*
X137673576Y-75925657D02*
G01*
X137718995Y-75956005D01*
X137749343Y-76001424D01*
X137760000Y-76055000D01*
X137760000Y-76335000D01*
X137749343Y-76388576D01*
X137718995Y-76433995D01*
X137673576Y-76464343D01*
X137620000Y-76475000D01*
X137280000Y-76475000D01*
X137226424Y-76464343D01*
X137181005Y-76433995D01*
X137150657Y-76388576D01*
X137140000Y-76335000D01*
X137140000Y-76055000D01*
X137150657Y-76001424D01*
X137181005Y-75956005D01*
X137226424Y-75925657D01*
X137280000Y-75915000D01*
X137620000Y-75915000D01*
X137673576Y-75925657D01*
G37*
G36*
X120553701Y-76105709D02*
G01*
X120578033Y-76121967D01*
X120594291Y-76146299D01*
X120600000Y-76175000D01*
X120600000Y-76325000D01*
X120594291Y-76353701D01*
X120578033Y-76378033D01*
X120553701Y-76394291D01*
X120525000Y-76400000D01*
X119125000Y-76400000D01*
X119096299Y-76394291D01*
X119071967Y-76378033D01*
X119055709Y-76353701D01*
X119050000Y-76325000D01*
X119050000Y-76175000D01*
X119055709Y-76146299D01*
X119071967Y-76121967D01*
X119096299Y-76105709D01*
X119125000Y-76100000D01*
X120525000Y-76100000D01*
X120553701Y-76105709D01*
G37*
G36*
X131903701Y-76105709D02*
G01*
X131928033Y-76121967D01*
X131944291Y-76146299D01*
X131950000Y-76175000D01*
X131950000Y-76325000D01*
X131944291Y-76353701D01*
X131928033Y-76378033D01*
X131903701Y-76394291D01*
X131875000Y-76400000D01*
X130475000Y-76400000D01*
X130446299Y-76394291D01*
X130421967Y-76378033D01*
X130405709Y-76353701D01*
X130400000Y-76325000D01*
X130400000Y-76175000D01*
X130405709Y-76146299D01*
X130421967Y-76121967D01*
X130446299Y-76105709D01*
X130475000Y-76100000D01*
X131875000Y-76100000D01*
X131903701Y-76105709D01*
G37*
G36*
X106254047Y-74000805D02*
G01*
X106305408Y-74006764D01*
X106322954Y-74014511D01*
X106345671Y-74019030D01*
X106369991Y-74035280D01*
X106390793Y-74044465D01*
X106405000Y-74058672D01*
X106426777Y-74073223D01*
X106441327Y-74094999D01*
X106455534Y-74109206D01*
X106464718Y-74130006D01*
X106480970Y-74154329D01*
X106485489Y-74177048D01*
X106493235Y-74194591D01*
X106499192Y-74245940D01*
X106500000Y-74250000D01*
X106500000Y-75550000D01*
X106499192Y-75554059D01*
X106493235Y-75605408D01*
X106485489Y-75622950D01*
X106480970Y-75645671D01*
X106464716Y-75669995D01*
X106455534Y-75690793D01*
X106441329Y-75704997D01*
X106426777Y-75726777D01*
X106404997Y-75741329D01*
X106390793Y-75755534D01*
X106369995Y-75764716D01*
X106345671Y-75780970D01*
X106322950Y-75785489D01*
X106305408Y-75793235D01*
X106254061Y-75799192D01*
X106250000Y-75800000D01*
X105600000Y-75800000D01*
X105595941Y-75799192D01*
X105544591Y-75793235D01*
X105527048Y-75785489D01*
X105504329Y-75780970D01*
X105480006Y-75764718D01*
X105459206Y-75755534D01*
X105444999Y-75741327D01*
X105423223Y-75726777D01*
X105408672Y-75705000D01*
X105394465Y-75690793D01*
X105385280Y-75669991D01*
X105369030Y-75645671D01*
X105364511Y-75622954D01*
X105356764Y-75605408D01*
X105350805Y-75554049D01*
X105350000Y-75550000D01*
X105350000Y-74250000D01*
X105350804Y-74245953D01*
X105356764Y-74194591D01*
X105364511Y-74177043D01*
X105369030Y-74154329D01*
X105385278Y-74130010D01*
X105394465Y-74109206D01*
X105408674Y-74094996D01*
X105423223Y-74073223D01*
X105444996Y-74058674D01*
X105459206Y-74044465D01*
X105480010Y-74035278D01*
X105504329Y-74019030D01*
X105527043Y-74014511D01*
X105544591Y-74006764D01*
X105595952Y-74000805D01*
X105600000Y-74000000D01*
X106250000Y-74000000D01*
X106254047Y-74000805D01*
G37*
G36*
X109204047Y-74000805D02*
G01*
X109255408Y-74006764D01*
X109272954Y-74014511D01*
X109295671Y-74019030D01*
X109319991Y-74035280D01*
X109340793Y-74044465D01*
X109355000Y-74058672D01*
X109376777Y-74073223D01*
X109391327Y-74094999D01*
X109405534Y-74109206D01*
X109414718Y-74130006D01*
X109430970Y-74154329D01*
X109435489Y-74177048D01*
X109443235Y-74194591D01*
X109449192Y-74245940D01*
X109450000Y-74250000D01*
X109450000Y-75550000D01*
X109449192Y-75554059D01*
X109443235Y-75605408D01*
X109435489Y-75622950D01*
X109430970Y-75645671D01*
X109414716Y-75669995D01*
X109405534Y-75690793D01*
X109391329Y-75704997D01*
X109376777Y-75726777D01*
X109354997Y-75741329D01*
X109340793Y-75755534D01*
X109319995Y-75764716D01*
X109295671Y-75780970D01*
X109272950Y-75785489D01*
X109255408Y-75793235D01*
X109204061Y-75799192D01*
X109200000Y-75800000D01*
X108550000Y-75800000D01*
X108545941Y-75799192D01*
X108494591Y-75793235D01*
X108477048Y-75785489D01*
X108454329Y-75780970D01*
X108430006Y-75764718D01*
X108409206Y-75755534D01*
X108394999Y-75741327D01*
X108373223Y-75726777D01*
X108358672Y-75705000D01*
X108344465Y-75690793D01*
X108335280Y-75669991D01*
X108319030Y-75645671D01*
X108314511Y-75622954D01*
X108306764Y-75605408D01*
X108300805Y-75554049D01*
X108300000Y-75550000D01*
X108300000Y-74250000D01*
X108300804Y-74245953D01*
X108306764Y-74194591D01*
X108314511Y-74177043D01*
X108319030Y-74154329D01*
X108335278Y-74130010D01*
X108344465Y-74109206D01*
X108358674Y-74094996D01*
X108373223Y-74073223D01*
X108394996Y-74058674D01*
X108409206Y-74044465D01*
X108430010Y-74035278D01*
X108454329Y-74019030D01*
X108477043Y-74014511D01*
X108494591Y-74006764D01*
X108545952Y-74000805D01*
X108550000Y-74000000D01*
X109200000Y-74000000D01*
X109204047Y-74000805D01*
G37*
G36*
X133323576Y-74965657D02*
G01*
X133368995Y-74996005D01*
X133399343Y-75041424D01*
X133410000Y-75095000D01*
X133410000Y-75375000D01*
X133399343Y-75428576D01*
X133368995Y-75473995D01*
X133323576Y-75504343D01*
X133270000Y-75515000D01*
X132930000Y-75515000D01*
X132876424Y-75504343D01*
X132831005Y-75473995D01*
X132800657Y-75428576D01*
X132790000Y-75375000D01*
X132790000Y-75095000D01*
X132800657Y-75041424D01*
X132831005Y-74996005D01*
X132876424Y-74965657D01*
X132930000Y-74955000D01*
X133270000Y-74955000D01*
X133323576Y-74965657D01*
G37*
G36*
X135523576Y-74965657D02*
G01*
X135568995Y-74996005D01*
X135599343Y-75041424D01*
X135610000Y-75095000D01*
X135610000Y-75375000D01*
X135599343Y-75428576D01*
X135568995Y-75473995D01*
X135523576Y-75504343D01*
X135470000Y-75515000D01*
X135130000Y-75515000D01*
X135076424Y-75504343D01*
X135031005Y-75473995D01*
X135000657Y-75428576D01*
X134990000Y-75375000D01*
X134990000Y-75095000D01*
X135000657Y-75041424D01*
X135031005Y-74996005D01*
X135076424Y-74965657D01*
X135130000Y-74955000D01*
X135470000Y-74955000D01*
X135523576Y-74965657D01*
G37*
G36*
X137673576Y-74965657D02*
G01*
X137718995Y-74996005D01*
X137749343Y-75041424D01*
X137760000Y-75095000D01*
X137760000Y-75375000D01*
X137749343Y-75428576D01*
X137718995Y-75473995D01*
X137673576Y-75504343D01*
X137620000Y-75515000D01*
X137280000Y-75515000D01*
X137226424Y-75504343D01*
X137181005Y-75473995D01*
X137150657Y-75428576D01*
X137140000Y-75375000D01*
X137140000Y-75095000D01*
X137150657Y-75041424D01*
X137181005Y-74996005D01*
X137226424Y-74965657D01*
X137280000Y-74955000D01*
X137620000Y-74955000D01*
X137673576Y-74965657D01*
G37*
G36*
X115780552Y-74983564D02*
G01*
X115817050Y-75007950D01*
X115841436Y-75044448D01*
X115850000Y-75087500D01*
X115850000Y-75312500D01*
X115841436Y-75355552D01*
X115817050Y-75392050D01*
X115780552Y-75416436D01*
X115737500Y-75425000D01*
X115362500Y-75425000D01*
X115319448Y-75416436D01*
X115282950Y-75392050D01*
X115258564Y-75355552D01*
X115250000Y-75312500D01*
X115250000Y-75087500D01*
X115258564Y-75044448D01*
X115282950Y-75007950D01*
X115319448Y-74983564D01*
X115362500Y-74975000D01*
X115737500Y-74975000D01*
X115780552Y-74983564D01*
G37*
G36*
X117880552Y-74983564D02*
G01*
X117917050Y-75007950D01*
X117941436Y-75044448D01*
X117950000Y-75087500D01*
X117950000Y-75312500D01*
X117941436Y-75355552D01*
X117917050Y-75392050D01*
X117880552Y-75416436D01*
X117837500Y-75425000D01*
X117462500Y-75425000D01*
X117419448Y-75416436D01*
X117382950Y-75392050D01*
X117358564Y-75355552D01*
X117350000Y-75312500D01*
X117350000Y-75087500D01*
X117358564Y-75044448D01*
X117382950Y-75007950D01*
X117419448Y-74983564D01*
X117462500Y-74975000D01*
X117837500Y-74975000D01*
X117880552Y-74983564D01*
G37*
G36*
X121853701Y-73555709D02*
G01*
X121878033Y-73571967D01*
X121894291Y-73596299D01*
X121900000Y-73625000D01*
X121900000Y-75025000D01*
X121894291Y-75053701D01*
X121878033Y-75078033D01*
X121853701Y-75094291D01*
X121825000Y-75100000D01*
X121675000Y-75100000D01*
X121646299Y-75094291D01*
X121621967Y-75078033D01*
X121605709Y-75053701D01*
X121600000Y-75025000D01*
X121600000Y-73625000D01*
X121605709Y-73596299D01*
X121621967Y-73571967D01*
X121646299Y-73555709D01*
X121675000Y-73550000D01*
X121825000Y-73550000D01*
X121853701Y-73555709D01*
G37*
G36*
X122353701Y-73555709D02*
G01*
X122378033Y-73571967D01*
X122394291Y-73596299D01*
X122400000Y-73625000D01*
X122400000Y-75025000D01*
X122394291Y-75053701D01*
X122378033Y-75078033D01*
X122353701Y-75094291D01*
X122325000Y-75100000D01*
X122175000Y-75100000D01*
X122146299Y-75094291D01*
X122121967Y-75078033D01*
X122105709Y-75053701D01*
X122100000Y-75025000D01*
X122100000Y-73625000D01*
X122105709Y-73596299D01*
X122121967Y-73571967D01*
X122146299Y-73555709D01*
X122175000Y-73550000D01*
X122325000Y-73550000D01*
X122353701Y-73555709D01*
G37*
G36*
X122853701Y-73555709D02*
G01*
X122878033Y-73571967D01*
X122894291Y-73596299D01*
X122900000Y-73625000D01*
X122900000Y-75025000D01*
X122894291Y-75053701D01*
X122878033Y-75078033D01*
X122853701Y-75094291D01*
X122825000Y-75100000D01*
X122675000Y-75100000D01*
X122646299Y-75094291D01*
X122621967Y-75078033D01*
X122605709Y-75053701D01*
X122600000Y-75025000D01*
X122600000Y-73625000D01*
X122605709Y-73596299D01*
X122621967Y-73571967D01*
X122646299Y-73555709D01*
X122675000Y-73550000D01*
X122825000Y-73550000D01*
X122853701Y-73555709D01*
G37*
G36*
X123353701Y-73555709D02*
G01*
X123378033Y-73571967D01*
X123394291Y-73596299D01*
X123400000Y-73625000D01*
X123400000Y-75025000D01*
X123394291Y-75053701D01*
X123378033Y-75078033D01*
X123353701Y-75094291D01*
X123325000Y-75100000D01*
X123175000Y-75100000D01*
X123146299Y-75094291D01*
X123121967Y-75078033D01*
X123105709Y-75053701D01*
X123100000Y-75025000D01*
X123100000Y-73625000D01*
X123105709Y-73596299D01*
X123121967Y-73571967D01*
X123146299Y-73555709D01*
X123175000Y-73550000D01*
X123325000Y-73550000D01*
X123353701Y-73555709D01*
G37*
G36*
X123853701Y-73555709D02*
G01*
X123878033Y-73571967D01*
X123894291Y-73596299D01*
X123900000Y-73625000D01*
X123900000Y-75025000D01*
X123894291Y-75053701D01*
X123878033Y-75078033D01*
X123853701Y-75094291D01*
X123825000Y-75100000D01*
X123675000Y-75100000D01*
X123646299Y-75094291D01*
X123621967Y-75078033D01*
X123605709Y-75053701D01*
X123600000Y-75025000D01*
X123600000Y-73625000D01*
X123605709Y-73596299D01*
X123621967Y-73571967D01*
X123646299Y-73555709D01*
X123675000Y-73550000D01*
X123825000Y-73550000D01*
X123853701Y-73555709D01*
G37*
G36*
X124353701Y-73555709D02*
G01*
X124378033Y-73571967D01*
X124394291Y-73596299D01*
X124400000Y-73625000D01*
X124400000Y-75025000D01*
X124394291Y-75053701D01*
X124378033Y-75078033D01*
X124353701Y-75094291D01*
X124325000Y-75100000D01*
X124175000Y-75100000D01*
X124146299Y-75094291D01*
X124121967Y-75078033D01*
X124105709Y-75053701D01*
X124100000Y-75025000D01*
X124100000Y-73625000D01*
X124105709Y-73596299D01*
X124121967Y-73571967D01*
X124146299Y-73555709D01*
X124175000Y-73550000D01*
X124325000Y-73550000D01*
X124353701Y-73555709D01*
G37*
G36*
X124853701Y-73555709D02*
G01*
X124878033Y-73571967D01*
X124894291Y-73596299D01*
X124900000Y-73625000D01*
X124900000Y-75025000D01*
X124894291Y-75053701D01*
X124878033Y-75078033D01*
X124853701Y-75094291D01*
X124825000Y-75100000D01*
X124675000Y-75100000D01*
X124646299Y-75094291D01*
X124621967Y-75078033D01*
X124605709Y-75053701D01*
X124600000Y-75025000D01*
X124600000Y-73625000D01*
X124605709Y-73596299D01*
X124621967Y-73571967D01*
X124646299Y-73555709D01*
X124675000Y-73550000D01*
X124825000Y-73550000D01*
X124853701Y-73555709D01*
G37*
G36*
X125353701Y-73555709D02*
G01*
X125378033Y-73571967D01*
X125394291Y-73596299D01*
X125400000Y-73625000D01*
X125400000Y-75025000D01*
X125394291Y-75053701D01*
X125378033Y-75078033D01*
X125353701Y-75094291D01*
X125325000Y-75100000D01*
X125175000Y-75100000D01*
X125146299Y-75094291D01*
X125121967Y-75078033D01*
X125105709Y-75053701D01*
X125100000Y-75025000D01*
X125100000Y-73625000D01*
X125105709Y-73596299D01*
X125121967Y-73571967D01*
X125146299Y-73555709D01*
X125175000Y-73550000D01*
X125325000Y-73550000D01*
X125353701Y-73555709D01*
G37*
G36*
X125853701Y-73555709D02*
G01*
X125878033Y-73571967D01*
X125894291Y-73596299D01*
X125900000Y-73625000D01*
X125900000Y-75025000D01*
X125894291Y-75053701D01*
X125878033Y-75078033D01*
X125853701Y-75094291D01*
X125825000Y-75100000D01*
X125675000Y-75100000D01*
X125646299Y-75094291D01*
X125621967Y-75078033D01*
X125605709Y-75053701D01*
X125600000Y-75025000D01*
X125600000Y-73625000D01*
X125605709Y-73596299D01*
X125621967Y-73571967D01*
X125646299Y-73555709D01*
X125675000Y-73550000D01*
X125825000Y-73550000D01*
X125853701Y-73555709D01*
G37*
G36*
X126353701Y-73555709D02*
G01*
X126378033Y-73571967D01*
X126394291Y-73596299D01*
X126400000Y-73625000D01*
X126400000Y-75025000D01*
X126394291Y-75053701D01*
X126378033Y-75078033D01*
X126353701Y-75094291D01*
X126325000Y-75100000D01*
X126175000Y-75100000D01*
X126146299Y-75094291D01*
X126121967Y-75078033D01*
X126105709Y-75053701D01*
X126100000Y-75025000D01*
X126100000Y-73625000D01*
X126105709Y-73596299D01*
X126121967Y-73571967D01*
X126146299Y-73555709D01*
X126175000Y-73550000D01*
X126325000Y-73550000D01*
X126353701Y-73555709D01*
G37*
G36*
X126853701Y-73555709D02*
G01*
X126878033Y-73571967D01*
X126894291Y-73596299D01*
X126900000Y-73625000D01*
X126900000Y-75025000D01*
X126894291Y-75053701D01*
X126878033Y-75078033D01*
X126853701Y-75094291D01*
X126825000Y-75100000D01*
X126675000Y-75100000D01*
X126646299Y-75094291D01*
X126621967Y-75078033D01*
X126605709Y-75053701D01*
X126600000Y-75025000D01*
X126600000Y-73625000D01*
X126605709Y-73596299D01*
X126621967Y-73571967D01*
X126646299Y-73555709D01*
X126675000Y-73550000D01*
X126825000Y-73550000D01*
X126853701Y-73555709D01*
G37*
G36*
X127353701Y-73555709D02*
G01*
X127378033Y-73571967D01*
X127394291Y-73596299D01*
X127400000Y-73625000D01*
X127400000Y-75025000D01*
X127394291Y-75053701D01*
X127378033Y-75078033D01*
X127353701Y-75094291D01*
X127325000Y-75100000D01*
X127175000Y-75100000D01*
X127146299Y-75094291D01*
X127121967Y-75078033D01*
X127105709Y-75053701D01*
X127100000Y-75025000D01*
X127100000Y-73625000D01*
X127105709Y-73596299D01*
X127121967Y-73571967D01*
X127146299Y-73555709D01*
X127175000Y-73550000D01*
X127325000Y-73550000D01*
X127353701Y-73555709D01*
G37*
G36*
X127853701Y-73555709D02*
G01*
X127878033Y-73571967D01*
X127894291Y-73596299D01*
X127900000Y-73625000D01*
X127900000Y-75025000D01*
X127894291Y-75053701D01*
X127878033Y-75078033D01*
X127853701Y-75094291D01*
X127825000Y-75100000D01*
X127675000Y-75100000D01*
X127646299Y-75094291D01*
X127621967Y-75078033D01*
X127605709Y-75053701D01*
X127600000Y-75025000D01*
X127600000Y-73625000D01*
X127605709Y-73596299D01*
X127621967Y-73571967D01*
X127646299Y-73555709D01*
X127675000Y-73550000D01*
X127825000Y-73550000D01*
X127853701Y-73555709D01*
G37*
G36*
X128353701Y-73555709D02*
G01*
X128378033Y-73571967D01*
X128394291Y-73596299D01*
X128400000Y-73625000D01*
X128400000Y-75025000D01*
X128394291Y-75053701D01*
X128378033Y-75078033D01*
X128353701Y-75094291D01*
X128325000Y-75100000D01*
X128175000Y-75100000D01*
X128146299Y-75094291D01*
X128121967Y-75078033D01*
X128105709Y-75053701D01*
X128100000Y-75025000D01*
X128100000Y-73625000D01*
X128105709Y-73596299D01*
X128121967Y-73571967D01*
X128146299Y-73555709D01*
X128175000Y-73550000D01*
X128325000Y-73550000D01*
X128353701Y-73555709D01*
G37*
G36*
X128853701Y-73555709D02*
G01*
X128878033Y-73571967D01*
X128894291Y-73596299D01*
X128900000Y-73625000D01*
X128900000Y-75025000D01*
X128894291Y-75053701D01*
X128878033Y-75078033D01*
X128853701Y-75094291D01*
X128825000Y-75100000D01*
X128675000Y-75100000D01*
X128646299Y-75094291D01*
X128621967Y-75078033D01*
X128605709Y-75053701D01*
X128600000Y-75025000D01*
X128600000Y-73625000D01*
X128605709Y-73596299D01*
X128621967Y-73571967D01*
X128646299Y-73555709D01*
X128675000Y-73550000D01*
X128825000Y-73550000D01*
X128853701Y-73555709D01*
G37*
G36*
X129353701Y-73555709D02*
G01*
X129378033Y-73571967D01*
X129394291Y-73596299D01*
X129400000Y-73625000D01*
X129400000Y-75025000D01*
X129394291Y-75053701D01*
X129378033Y-75078033D01*
X129353701Y-75094291D01*
X129325000Y-75100000D01*
X129175000Y-75100000D01*
X129146299Y-75094291D01*
X129121967Y-75078033D01*
X129105709Y-75053701D01*
X129100000Y-75025000D01*
X129100000Y-73625000D01*
X129105709Y-73596299D01*
X129121967Y-73571967D01*
X129146299Y-73555709D01*
X129175000Y-73550000D01*
X129325000Y-73550000D01*
X129353701Y-73555709D01*
G37*
G36*
X110476662Y-73890276D02*
G01*
X110520459Y-73919541D01*
X110549724Y-73963338D01*
X110560000Y-74015000D01*
X110560000Y-74385000D01*
X110549724Y-74436662D01*
X110520459Y-74480459D01*
X110476662Y-74509724D01*
X110425000Y-74520000D01*
X110155000Y-74520000D01*
X110103338Y-74509724D01*
X110059541Y-74480459D01*
X110030276Y-74436662D01*
X110020000Y-74385000D01*
X110020000Y-74015000D01*
X110030276Y-73963338D01*
X110059541Y-73919541D01*
X110103338Y-73890276D01*
X110155000Y-73880000D01*
X110425000Y-73880000D01*
X110476662Y-73890276D01*
G37*
G36*
X111496662Y-73890276D02*
G01*
X111540459Y-73919541D01*
X111569724Y-73963338D01*
X111580000Y-74015000D01*
X111580000Y-74385000D01*
X111569724Y-74436662D01*
X111540459Y-74480459D01*
X111496662Y-74509724D01*
X111445000Y-74520000D01*
X111175000Y-74520000D01*
X111123338Y-74509724D01*
X111079541Y-74480459D01*
X111050276Y-74436662D01*
X111040000Y-74385000D01*
X111040000Y-74015000D01*
X111050276Y-73963338D01*
X111079541Y-73919541D01*
X111123338Y-73890276D01*
X111175000Y-73880000D01*
X111445000Y-73880000D01*
X111496662Y-73890276D01*
G37*
G36*
X133451537Y-73665224D02*
G01*
X133516421Y-73708579D01*
X133559776Y-73773463D01*
X133575000Y-73850000D01*
X133575000Y-74250000D01*
X133559776Y-74326537D01*
X133516421Y-74391421D01*
X133451537Y-74434776D01*
X133375000Y-74450000D01*
X132825000Y-74450000D01*
X132748463Y-74434776D01*
X132683579Y-74391421D01*
X132640224Y-74326537D01*
X132625000Y-74250000D01*
X132625000Y-73850000D01*
X132640224Y-73773463D01*
X132683579Y-73708579D01*
X132748463Y-73665224D01*
X132825000Y-73650000D01*
X133375000Y-73650000D01*
X133451537Y-73665224D01*
G37*
G36*
X135651537Y-73665224D02*
G01*
X135716421Y-73708579D01*
X135759776Y-73773463D01*
X135775000Y-73850000D01*
X135775000Y-74250000D01*
X135759776Y-74326537D01*
X135716421Y-74391421D01*
X135651537Y-74434776D01*
X135575000Y-74450000D01*
X135025000Y-74450000D01*
X134948463Y-74434776D01*
X134883579Y-74391421D01*
X134840224Y-74326537D01*
X134825000Y-74250000D01*
X134825000Y-73850000D01*
X134840224Y-73773463D01*
X134883579Y-73708579D01*
X134948463Y-73665224D01*
X135025000Y-73650000D01*
X135575000Y-73650000D01*
X135651537Y-73665224D01*
G37*
G36*
X137801537Y-73665224D02*
G01*
X137866421Y-73708579D01*
X137909776Y-73773463D01*
X137925000Y-73850000D01*
X137925000Y-74250000D01*
X137909776Y-74326537D01*
X137866421Y-74391421D01*
X137801537Y-74434776D01*
X137725000Y-74450000D01*
X137175000Y-74450000D01*
X137098463Y-74434776D01*
X137033579Y-74391421D01*
X136990224Y-74326537D01*
X136975000Y-74250000D01*
X136975000Y-73850000D01*
X136990224Y-73773463D01*
X137033579Y-73708579D01*
X137098463Y-73665224D01*
X137175000Y-73650000D01*
X137725000Y-73650000D01*
X137801537Y-73665224D01*
G37*
G36*
X138926662Y-73740276D02*
G01*
X138970459Y-73769541D01*
X138999724Y-73813338D01*
X139010000Y-73865000D01*
X139010000Y-74235000D01*
X138999724Y-74286662D01*
X138970459Y-74330459D01*
X138926662Y-74359724D01*
X138875000Y-74370000D01*
X138605000Y-74370000D01*
X138553338Y-74359724D01*
X138509541Y-74330459D01*
X138480276Y-74286662D01*
X138470000Y-74235000D01*
X138470000Y-73865000D01*
X138480276Y-73813338D01*
X138509541Y-73769541D01*
X138553338Y-73740276D01*
X138605000Y-73730000D01*
X138875000Y-73730000D01*
X138926662Y-73740276D01*
G37*
G36*
X139946662Y-73740276D02*
G01*
X139990459Y-73769541D01*
X140019724Y-73813338D01*
X140030000Y-73865000D01*
X140030000Y-74235000D01*
X140019724Y-74286662D01*
X139990459Y-74330459D01*
X139946662Y-74359724D01*
X139895000Y-74370000D01*
X139625000Y-74370000D01*
X139573338Y-74359724D01*
X139529541Y-74330459D01*
X139500276Y-74286662D01*
X139490000Y-74235000D01*
X139490000Y-73865000D01*
X139500276Y-73813338D01*
X139529541Y-73769541D01*
X139573338Y-73740276D01*
X139625000Y-73730000D01*
X139895000Y-73730000D01*
X139946662Y-73740276D01*
G37*
G36*
X118555000Y-73300000D02*
G01*
X116955000Y-73300000D01*
X116955000Y-71700000D01*
X118555000Y-71700000D01*
X118555000Y-73300000D01*
G37*
G36*
X107827228Y-71734448D02*
G01*
X107972117Y-71794463D01*
X108102515Y-71881592D01*
X108213408Y-71992485D01*
X108300537Y-72122883D01*
X108360552Y-72267772D01*
X108391148Y-72421586D01*
X108391148Y-72578414D01*
X108360552Y-72732228D01*
X108300537Y-72877117D01*
X108213408Y-73007515D01*
X108102515Y-73118408D01*
X107972117Y-73205537D01*
X107827228Y-73265552D01*
X107673414Y-73296148D01*
X107516586Y-73296148D01*
X107362772Y-73265552D01*
X107217883Y-73205537D01*
X107087485Y-73118408D01*
X106976592Y-73007515D01*
X106889463Y-72877117D01*
X106829448Y-72732228D01*
X106798852Y-72578414D01*
X106798852Y-72421586D01*
X106829448Y-72267772D01*
X106889463Y-72122883D01*
X106976592Y-71992485D01*
X107087485Y-71881592D01*
X107217883Y-71794463D01*
X107362772Y-71734448D01*
X107516586Y-71703852D01*
X107673414Y-71703852D01*
X107827228Y-71734448D01*
G37*
G36*
X110367228Y-71734448D02*
G01*
X110512117Y-71794463D01*
X110642515Y-71881592D01*
X110753408Y-71992485D01*
X110840537Y-72122883D01*
X110900552Y-72267772D01*
X110931148Y-72421586D01*
X110931148Y-72578414D01*
X110900552Y-72732228D01*
X110840537Y-72877117D01*
X110753408Y-73007515D01*
X110642515Y-73118408D01*
X110512117Y-73205537D01*
X110367228Y-73265552D01*
X110213414Y-73296148D01*
X110056586Y-73296148D01*
X109902772Y-73265552D01*
X109757883Y-73205537D01*
X109627485Y-73118408D01*
X109516592Y-73007515D01*
X109429463Y-72877117D01*
X109369448Y-72732228D01*
X109338852Y-72578414D01*
X109338852Y-72421586D01*
X109369448Y-72267772D01*
X109429463Y-72122883D01*
X109516592Y-71992485D01*
X109627485Y-71881592D01*
X109757883Y-71794463D01*
X109902772Y-71734448D01*
X110056586Y-71703852D01*
X110213414Y-71703852D01*
X110367228Y-71734448D01*
G37*
G36*
X112907228Y-71734448D02*
G01*
X113052117Y-71794463D01*
X113182515Y-71881592D01*
X113293408Y-71992485D01*
X113380537Y-72122883D01*
X113440552Y-72267772D01*
X113471148Y-72421586D01*
X113471148Y-72578414D01*
X113440552Y-72732228D01*
X113380537Y-72877117D01*
X113293408Y-73007515D01*
X113182515Y-73118408D01*
X113052117Y-73205537D01*
X112907228Y-73265552D01*
X112753414Y-73296148D01*
X112596586Y-73296148D01*
X112442772Y-73265552D01*
X112297883Y-73205537D01*
X112167485Y-73118408D01*
X112056592Y-73007515D01*
X111969463Y-72877117D01*
X111909448Y-72732228D01*
X111878852Y-72578414D01*
X111878852Y-72421586D01*
X111909448Y-72267772D01*
X111969463Y-72122883D01*
X112056592Y-71992485D01*
X112167485Y-71881592D01*
X112297883Y-71794463D01*
X112442772Y-71734448D01*
X112596586Y-71703852D01*
X112753414Y-71703852D01*
X112907228Y-71734448D01*
G37*
G36*
X115447228Y-71734448D02*
G01*
X115592117Y-71794463D01*
X115722515Y-71881592D01*
X115833408Y-71992485D01*
X115920537Y-72122883D01*
X115980552Y-72267772D01*
X116011148Y-72421586D01*
X116011148Y-72578414D01*
X115980552Y-72732228D01*
X115920537Y-72877117D01*
X115833408Y-73007515D01*
X115722515Y-73118408D01*
X115592117Y-73205537D01*
X115447228Y-73265552D01*
X115293414Y-73296148D01*
X115136586Y-73296148D01*
X114982772Y-73265552D01*
X114837883Y-73205537D01*
X114707485Y-73118408D01*
X114596592Y-73007515D01*
X114509463Y-72877117D01*
X114449448Y-72732228D01*
X114418852Y-72578414D01*
X114418852Y-72421586D01*
X114449448Y-72267772D01*
X114509463Y-72122883D01*
X114596592Y-71992485D01*
X114707485Y-71881592D01*
X114837883Y-71794463D01*
X114982772Y-71734448D01*
X115136586Y-71703852D01*
X115293414Y-71703852D01*
X115447228Y-71734448D01*
G37*
G36*
X103504047Y-71675805D02*
G01*
X103555408Y-71681764D01*
X103572954Y-71689511D01*
X103595671Y-71694030D01*
X103619991Y-71710280D01*
X103640793Y-71719465D01*
X103655000Y-71733672D01*
X103676777Y-71748223D01*
X103691327Y-71769999D01*
X103705534Y-71784206D01*
X103714718Y-71805006D01*
X103730970Y-71829329D01*
X103735489Y-71852048D01*
X103743235Y-71869591D01*
X103749192Y-71920940D01*
X103750000Y-71925000D01*
X103750000Y-72875000D01*
X103749192Y-72879059D01*
X103743235Y-72930408D01*
X103735489Y-72947950D01*
X103730970Y-72970671D01*
X103714716Y-72994995D01*
X103705534Y-73015793D01*
X103691329Y-73029997D01*
X103676777Y-73051777D01*
X103654997Y-73066329D01*
X103640793Y-73080534D01*
X103619995Y-73089716D01*
X103595671Y-73105970D01*
X103572950Y-73110489D01*
X103555408Y-73118235D01*
X103504061Y-73124192D01*
X103500000Y-73125000D01*
X103000000Y-73125000D01*
X102995941Y-73124192D01*
X102944591Y-73118235D01*
X102927048Y-73110489D01*
X102904329Y-73105970D01*
X102880006Y-73089718D01*
X102859206Y-73080534D01*
X102844999Y-73066327D01*
X102823223Y-73051777D01*
X102808672Y-73030000D01*
X102794465Y-73015793D01*
X102785280Y-72994991D01*
X102769030Y-72970671D01*
X102764511Y-72947954D01*
X102756764Y-72930408D01*
X102750805Y-72879049D01*
X102750000Y-72875000D01*
X102750000Y-71925000D01*
X102750804Y-71920953D01*
X102756764Y-71869591D01*
X102764511Y-71852043D01*
X102769030Y-71829329D01*
X102785278Y-71805010D01*
X102794465Y-71784206D01*
X102808674Y-71769996D01*
X102823223Y-71748223D01*
X102844996Y-71733674D01*
X102859206Y-71719465D01*
X102880010Y-71710278D01*
X102904329Y-71694030D01*
X102927043Y-71689511D01*
X102944591Y-71681764D01*
X102995952Y-71675805D01*
X103000000Y-71675000D01*
X103500000Y-71675000D01*
X103504047Y-71675805D01*
G37*
G36*
X105404047Y-71675805D02*
G01*
X105455408Y-71681764D01*
X105472954Y-71689511D01*
X105495671Y-71694030D01*
X105519991Y-71710280D01*
X105540793Y-71719465D01*
X105555000Y-71733672D01*
X105576777Y-71748223D01*
X105591327Y-71769999D01*
X105605534Y-71784206D01*
X105614718Y-71805006D01*
X105630970Y-71829329D01*
X105635489Y-71852048D01*
X105643235Y-71869591D01*
X105649192Y-71920940D01*
X105650000Y-71925000D01*
X105650000Y-72875000D01*
X105649192Y-72879059D01*
X105643235Y-72930408D01*
X105635489Y-72947950D01*
X105630970Y-72970671D01*
X105614716Y-72994995D01*
X105605534Y-73015793D01*
X105591329Y-73029997D01*
X105576777Y-73051777D01*
X105554997Y-73066329D01*
X105540793Y-73080534D01*
X105519995Y-73089716D01*
X105495671Y-73105970D01*
X105472950Y-73110489D01*
X105455408Y-73118235D01*
X105404061Y-73124192D01*
X105400000Y-73125000D01*
X104900000Y-73125000D01*
X104895941Y-73124192D01*
X104844591Y-73118235D01*
X104827048Y-73110489D01*
X104804329Y-73105970D01*
X104780006Y-73089718D01*
X104759206Y-73080534D01*
X104744999Y-73066327D01*
X104723223Y-73051777D01*
X104708672Y-73030000D01*
X104694465Y-73015793D01*
X104685280Y-72994991D01*
X104669030Y-72970671D01*
X104664511Y-72947954D01*
X104656764Y-72930408D01*
X104650805Y-72879049D01*
X104650000Y-72875000D01*
X104650000Y-71925000D01*
X104650804Y-71920953D01*
X104656764Y-71869591D01*
X104664511Y-71852043D01*
X104669030Y-71829329D01*
X104685278Y-71805010D01*
X104694465Y-71784206D01*
X104708674Y-71769996D01*
X104723223Y-71748223D01*
X104744996Y-71733674D01*
X104759206Y-71719465D01*
X104780010Y-71710278D01*
X104804329Y-71694030D01*
X104827043Y-71689511D01*
X104844591Y-71681764D01*
X104895952Y-71675805D01*
X104900000Y-71675000D01*
X105400000Y-71675000D01*
X105404047Y-71675805D01*
G37*
G36*
X133451537Y-72015224D02*
G01*
X133516421Y-72058579D01*
X133559776Y-72123463D01*
X133575000Y-72200000D01*
X133575000Y-72600000D01*
X133559776Y-72676537D01*
X133516421Y-72741421D01*
X133451537Y-72784776D01*
X133375000Y-72800000D01*
X132825000Y-72800000D01*
X132748463Y-72784776D01*
X132683579Y-72741421D01*
X132640224Y-72676537D01*
X132625000Y-72600000D01*
X132625000Y-72200000D01*
X132640224Y-72123463D01*
X132683579Y-72058579D01*
X132748463Y-72015224D01*
X132825000Y-72000000D01*
X133375000Y-72000000D01*
X133451537Y-72015224D01*
G37*
G36*
X135651537Y-72015224D02*
G01*
X135716421Y-72058579D01*
X135759776Y-72123463D01*
X135775000Y-72200000D01*
X135775000Y-72600000D01*
X135759776Y-72676537D01*
X135716421Y-72741421D01*
X135651537Y-72784776D01*
X135575000Y-72800000D01*
X135025000Y-72800000D01*
X134948463Y-72784776D01*
X134883579Y-72741421D01*
X134840224Y-72676537D01*
X134825000Y-72600000D01*
X134825000Y-72200000D01*
X134840224Y-72123463D01*
X134883579Y-72058579D01*
X134948463Y-72015224D01*
X135025000Y-72000000D01*
X135575000Y-72000000D01*
X135651537Y-72015224D01*
G37*
G36*
X137801537Y-72015224D02*
G01*
X137866421Y-72058579D01*
X137909776Y-72123463D01*
X137925000Y-72200000D01*
X137925000Y-72600000D01*
X137909776Y-72676537D01*
X137866421Y-72741421D01*
X137801537Y-72784776D01*
X137725000Y-72800000D01*
X137175000Y-72800000D01*
X137098463Y-72784776D01*
X137033579Y-72741421D01*
X136990224Y-72676537D01*
X136975000Y-72600000D01*
X136975000Y-72200000D01*
X136990224Y-72123463D01*
X137033579Y-72058579D01*
X137098463Y-72015224D01*
X137175000Y-72000000D01*
X137725000Y-72000000D01*
X137801537Y-72015224D01*
G37*
G36*
X127436104Y-71792127D02*
G01*
X127509099Y-71840901D01*
X127557873Y-71913896D01*
X127575000Y-72000000D01*
X127575000Y-72500000D01*
X127557873Y-72586104D01*
X127509099Y-72659099D01*
X127436104Y-72707873D01*
X127350000Y-72725000D01*
X126900000Y-72725000D01*
X126813896Y-72707873D01*
X126740901Y-72659099D01*
X126692127Y-72586104D01*
X126675000Y-72500000D01*
X126675000Y-72000000D01*
X126692127Y-71913896D01*
X126740901Y-71840901D01*
X126813896Y-71792127D01*
X126900000Y-71775000D01*
X127350000Y-71775000D01*
X127436104Y-71792127D01*
G37*
G36*
X128986104Y-71792127D02*
G01*
X129059099Y-71840901D01*
X129107873Y-71913896D01*
X129125000Y-72000000D01*
X129125000Y-72500000D01*
X129107873Y-72586104D01*
X129059099Y-72659099D01*
X128986104Y-72707873D01*
X128900000Y-72725000D01*
X128450000Y-72725000D01*
X128363896Y-72707873D01*
X128290901Y-72659099D01*
X128242127Y-72586104D01*
X128225000Y-72500000D01*
X128225000Y-72000000D01*
X128242127Y-71913896D01*
X128290901Y-71840901D01*
X128363896Y-71792127D01*
X128450000Y-71775000D01*
X128900000Y-71775000D01*
X128986104Y-71792127D01*
G37*
G36*
X120176662Y-72090276D02*
G01*
X120220459Y-72119541D01*
X120249724Y-72163338D01*
X120260000Y-72215000D01*
X120260000Y-72585000D01*
X120249724Y-72636662D01*
X120220459Y-72680459D01*
X120176662Y-72709724D01*
X120125000Y-72720000D01*
X119855000Y-72720000D01*
X119803338Y-72709724D01*
X119759541Y-72680459D01*
X119730276Y-72636662D01*
X119720000Y-72585000D01*
X119720000Y-72215000D01*
X119730276Y-72163338D01*
X119759541Y-72119541D01*
X119803338Y-72090276D01*
X119855000Y-72080000D01*
X120125000Y-72080000D01*
X120176662Y-72090276D01*
G37*
G36*
X121196662Y-72090276D02*
G01*
X121240459Y-72119541D01*
X121269724Y-72163338D01*
X121280000Y-72215000D01*
X121280000Y-72585000D01*
X121269724Y-72636662D01*
X121240459Y-72680459D01*
X121196662Y-72709724D01*
X121145000Y-72720000D01*
X120875000Y-72720000D01*
X120823338Y-72709724D01*
X120779541Y-72680459D01*
X120750276Y-72636662D01*
X120740000Y-72585000D01*
X120740000Y-72215000D01*
X120750276Y-72163338D01*
X120779541Y-72119541D01*
X120823338Y-72090276D01*
X120875000Y-72080000D01*
X121145000Y-72080000D01*
X121196662Y-72090276D01*
G37*
G36*
X122276662Y-72090276D02*
G01*
X122320459Y-72119541D01*
X122349724Y-72163338D01*
X122360000Y-72215000D01*
X122360000Y-72585000D01*
X122349724Y-72636662D01*
X122320459Y-72680459D01*
X122276662Y-72709724D01*
X122225000Y-72720000D01*
X121955000Y-72720000D01*
X121903338Y-72709724D01*
X121859541Y-72680459D01*
X121830276Y-72636662D01*
X121820000Y-72585000D01*
X121820000Y-72215000D01*
X121830276Y-72163338D01*
X121859541Y-72119541D01*
X121903338Y-72090276D01*
X121955000Y-72080000D01*
X122225000Y-72080000D01*
X122276662Y-72090276D01*
G37*
G36*
X123296662Y-72090276D02*
G01*
X123340459Y-72119541D01*
X123369724Y-72163338D01*
X123380000Y-72215000D01*
X123380000Y-72585000D01*
X123369724Y-72636662D01*
X123340459Y-72680459D01*
X123296662Y-72709724D01*
X123245000Y-72720000D01*
X122975000Y-72720000D01*
X122923338Y-72709724D01*
X122879541Y-72680459D01*
X122850276Y-72636662D01*
X122840000Y-72585000D01*
X122840000Y-72215000D01*
X122850276Y-72163338D01*
X122879541Y-72119541D01*
X122923338Y-72090276D01*
X122975000Y-72080000D01*
X123245000Y-72080000D01*
X123296662Y-72090276D01*
G37*
G36*
X124713576Y-72100657D02*
G01*
X124758995Y-72131005D01*
X124789343Y-72176424D01*
X124800000Y-72230000D01*
X124800000Y-72570000D01*
X124789343Y-72623576D01*
X124758995Y-72668995D01*
X124713576Y-72699343D01*
X124660000Y-72710000D01*
X124380000Y-72710000D01*
X124326424Y-72699343D01*
X124281005Y-72668995D01*
X124250657Y-72623576D01*
X124240000Y-72570000D01*
X124240000Y-72230000D01*
X124250657Y-72176424D01*
X124281005Y-72131005D01*
X124326424Y-72100657D01*
X124380000Y-72090000D01*
X124660000Y-72090000D01*
X124713576Y-72100657D01*
G37*
G36*
X125673576Y-72100657D02*
G01*
X125718995Y-72131005D01*
X125749343Y-72176424D01*
X125760000Y-72230000D01*
X125760000Y-72570000D01*
X125749343Y-72623576D01*
X125718995Y-72668995D01*
X125673576Y-72699343D01*
X125620000Y-72710000D01*
X125340000Y-72710000D01*
X125286424Y-72699343D01*
X125241005Y-72668995D01*
X125210657Y-72623576D01*
X125200000Y-72570000D01*
X125200000Y-72230000D01*
X125210657Y-72176424D01*
X125241005Y-72131005D01*
X125286424Y-72100657D01*
X125340000Y-72090000D01*
X125620000Y-72090000D01*
X125673576Y-72100657D01*
G37*
G36*
X138993576Y-72100657D02*
G01*
X139038995Y-72131005D01*
X139069343Y-72176424D01*
X139080000Y-72230000D01*
X139080000Y-72570000D01*
X139069343Y-72623576D01*
X139038995Y-72668995D01*
X138993576Y-72699343D01*
X138940000Y-72710000D01*
X138660000Y-72710000D01*
X138606424Y-72699343D01*
X138561005Y-72668995D01*
X138530657Y-72623576D01*
X138520000Y-72570000D01*
X138520000Y-72230000D01*
X138530657Y-72176424D01*
X138561005Y-72131005D01*
X138606424Y-72100657D01*
X138660000Y-72090000D01*
X138940000Y-72090000D01*
X138993576Y-72100657D01*
G37*
G36*
X139953576Y-72100657D02*
G01*
X139998995Y-72131005D01*
X140029343Y-72176424D01*
X140040000Y-72230000D01*
X140040000Y-72570000D01*
X140029343Y-72623576D01*
X139998995Y-72668995D01*
X139953576Y-72699343D01*
X139900000Y-72710000D01*
X139620000Y-72710000D01*
X139566424Y-72699343D01*
X139521005Y-72668995D01*
X139490657Y-72623576D01*
X139480000Y-72570000D01*
X139480000Y-72230000D01*
X139490657Y-72176424D01*
X139521005Y-72131005D01*
X139566424Y-72100657D01*
X139620000Y-72090000D01*
X139900000Y-72090000D01*
X139953576Y-72100657D01*
G37*
G36*
X172656662Y-71690276D02*
G01*
X172700459Y-71719541D01*
X172729724Y-71763338D01*
X172740000Y-71815000D01*
X172740000Y-72185000D01*
X172729724Y-72236662D01*
X172700459Y-72280459D01*
X172656662Y-72309724D01*
X172605000Y-72320000D01*
X172335000Y-72320000D01*
X172283338Y-72309724D01*
X172239541Y-72280459D01*
X172210276Y-72236662D01*
X172200000Y-72185000D01*
X172200000Y-71815000D01*
X172210276Y-71763338D01*
X172239541Y-71719541D01*
X172283338Y-71690276D01*
X172335000Y-71680000D01*
X172605000Y-71680000D01*
X172656662Y-71690276D01*
G37*
G36*
X173676662Y-71690276D02*
G01*
X173720459Y-71719541D01*
X173749724Y-71763338D01*
X173760000Y-71815000D01*
X173760000Y-72185000D01*
X173749724Y-72236662D01*
X173720459Y-72280459D01*
X173676662Y-72309724D01*
X173625000Y-72320000D01*
X173355000Y-72320000D01*
X173303338Y-72309724D01*
X173259541Y-72280459D01*
X173230276Y-72236662D01*
X173220000Y-72185000D01*
X173220000Y-71815000D01*
X173230276Y-71763338D01*
X173259541Y-71719541D01*
X173303338Y-71690276D01*
X173355000Y-71680000D01*
X173625000Y-71680000D01*
X173676662Y-71690276D01*
G37*
%LPD*%
M02*
