%TF.GenerationSoftware,KiCad,Pcbnew,10.0.6*%
%TF.CreationDate,2026-09-29T01:57:30-05:00*%
%TF.ProjectId,hp_sensor_routed,68705f73-656e-4736-9f72-5f726f757465,rev?*%
%TF.SameCoordinates,Original*%
%TF.FileFunction,Copper,L1,Top*%
%TF.FilePolarity,Positive*%
%FSLAX46Y46*%
G04 Gerber Fmt 4.6, Leading zero omitted, Abs format (unit mm)*
G04 Created by KiCad (PCBNEW 10.0.6) date 2026-09-29 01:57:30*
%MOMM*%
%LPD*%
G01*
G04 APERTURE LIST*
G04 Aperture macros list*
%AMRoundRect*
0 Rectangle with rounded corners*
0 $1 Rounding radius*
0 $2 $3 $4 $5 $6 $7 $8 $9 X,Y pos of 4 corners*
0 Add a 4 corners polygon primitive as box body*
4,1,4,$2,$3,$4,$5,$6,$7,$8,$9,$2,$3,0*
0 Add four circle primitives for the rounded corners*
1,1,$1+$1,$2,$3*
1,1,$1+$1,$4,$5*
1,1,$1+$1,$6,$7*
1,1,$1+$1,$8,$9*
0 Add four rect primitives between the rounded corners*
20,1,$1+$1,$2,$3,$4,$5,0*
20,1,$1+$1,$4,$5,$6,$7,0*
20,1,$1+$1,$6,$7,$8,$9,0*
20,1,$1+$1,$8,$9,$2,$3,0*%
%AMFreePoly0*
4,1,7,0.375000,-0.112500,-0.375000,-0.112500,-0.375000,0.112500,-0.025000,0.112500,-0.025000,0.462500,0.375000,0.462500,0.375000,-0.112500,0.375000,-0.112500,$1*%
%AMFreePoly1*
4,1,5,0.300000,-0.125000,-0.300000,-0.125000,-0.300000,0.125000,0.300000,0.125000,0.300000,-0.125000,0.300000,-0.125000,$1*%
%AMFreePoly2*
4,1,7,0.350000,-0.462500,0.000000,-0.462500,0.000000,-0.112500,-0.350000,-0.112500,-0.350000,0.112500,0.350000,0.112500,0.350000,-0.462500,0.350000,-0.462500,$1*%
%AMFreePoly3*
4,1,7,0.350000,-0.112500,0.000000,-0.112500,0.000000,-0.462500,-0.350000,-0.462500,-0.350000,0.112500,0.350000,0.112500,0.350000,-0.112500,0.350000,-0.112500,$1*%
%AMFreePoly4*
4,1,7,0.025000,0.112500,0.375000,0.112500,0.375000,-0.112500,-0.375000,-0.112500,-0.375000,0.462500,0.025000,0.462500,0.025000,0.112500,0.025000,0.112500,$1*%
%AMFreePoly5*
4,1,5,0.175000,-0.650000,-0.175000,-0.650000,-0.175000,0.650000,0.175000,0.650000,0.175000,-0.650000,0.175000,-0.650000,$1*%
G04 Aperture macros list end*
%TA.AperFunction,SMDPad,CuDef*%
%ADD10RoundRect,0.140000X0.170000X-0.140000X0.170000X0.140000X-0.170000X0.140000X-0.170000X-0.140000X0*%
%TD*%
%TA.AperFunction,SMDPad,CuDef*%
%ADD11RoundRect,0.250000X-0.300000X-1.600000X0.300000X-1.600000X0.300000X1.600000X-0.300000X1.600000X0*%
%TD*%
%TA.AperFunction,SMDPad,CuDef*%
%ADD12RoundRect,0.200000X-0.275000X0.200000X-0.275000X-0.200000X0.275000X-0.200000X0.275000X0.200000X0*%
%TD*%
%TA.AperFunction,SMDPad,CuDef*%
%ADD13RoundRect,0.250000X-0.262500X-0.450000X0.262500X-0.450000X0.262500X0.450000X-0.262500X0.450000X0*%
%TD*%
%TA.AperFunction,SMDPad,CuDef*%
%ADD14R,0.750000X1.000000*%
%TD*%
%TA.AperFunction,SMDPad,CuDef*%
%ADD15RoundRect,0.140000X-0.170000X0.140000X-0.170000X-0.140000X0.170000X-0.140000X0.170000X0.140000X0*%
%TD*%
%TA.AperFunction,SMDPad,CuDef*%
%ADD16RoundRect,0.112500X0.187500X0.112500X-0.187500X0.112500X-0.187500X-0.112500X0.187500X-0.112500X0*%
%TD*%
%TA.AperFunction,ComponentPad*%
%ADD17R,1.600000X1.600000*%
%TD*%
%TA.AperFunction,ComponentPad*%
%ADD18C,1.600000*%
%TD*%
%TA.AperFunction,SMDPad,CuDef*%
%ADD19RoundRect,0.225000X-0.225000X-0.250000X0.225000X-0.250000X0.225000X0.250000X-0.225000X0.250000X0*%
%TD*%
%TA.AperFunction,SMDPad,CuDef*%
%ADD20RoundRect,0.135000X-0.135000X-0.185000X0.135000X-0.185000X0.135000X0.185000X-0.135000X0.185000X0*%
%TD*%
%TA.AperFunction,SMDPad,CuDef*%
%ADD21RoundRect,0.135000X0.135000X0.185000X-0.135000X0.185000X-0.135000X-0.185000X0.135000X-0.185000X0*%
%TD*%
%TA.AperFunction,SMDPad,CuDef*%
%ADD22RoundRect,0.140000X-0.140000X-0.170000X0.140000X-0.170000X0.140000X0.170000X-0.140000X0.170000X0*%
%TD*%
%TA.AperFunction,SMDPad,CuDef*%
%ADD23RoundRect,0.225000X0.225000X0.250000X-0.225000X0.250000X-0.225000X-0.250000X0.225000X-0.250000X0*%
%TD*%
%TA.AperFunction,SMDPad,CuDef*%
%ADD24RoundRect,0.075000X-0.075000X0.700000X-0.075000X-0.700000X0.075000X-0.700000X0.075000X0.700000X0*%
%TD*%
%TA.AperFunction,SMDPad,CuDef*%
%ADD25RoundRect,0.075000X-0.700000X0.075000X-0.700000X-0.075000X0.700000X-0.075000X0.700000X0.075000X0*%
%TD*%
%TA.AperFunction,SMDPad,CuDef*%
%ADD26RoundRect,0.250000X-0.650000X0.325000X-0.650000X-0.325000X0.650000X-0.325000X0.650000X0.325000X0*%
%TD*%
%TA.AperFunction,SMDPad,CuDef*%
%ADD27RoundRect,0.200000X-0.200000X-0.275000X0.200000X-0.275000X0.200000X0.275000X-0.200000X0.275000X0*%
%TD*%
%TA.AperFunction,SMDPad,CuDef*%
%ADD28RoundRect,0.135000X-0.185000X0.135000X-0.185000X-0.135000X0.185000X-0.135000X0.185000X0.135000X0*%
%TD*%
%TA.AperFunction,SMDPad,CuDef*%
%ADD29RoundRect,0.250000X-0.325000X-0.650000X0.325000X-0.650000X0.325000X0.650000X-0.325000X0.650000X0*%
%TD*%
%TA.AperFunction,SMDPad,CuDef*%
%ADD30RoundRect,0.250000X-0.475000X0.250000X-0.475000X-0.250000X0.475000X-0.250000X0.475000X0.250000X0*%
%TD*%
%TA.AperFunction,SMDPad,CuDef*%
%ADD31RoundRect,0.112500X-0.187500X-0.112500X0.187500X-0.112500X0.187500X0.112500X-0.187500X0.112500X0*%
%TD*%
%TA.AperFunction,SMDPad,CuDef*%
%ADD32RoundRect,0.250000X-0.300000X-0.300000X0.300000X-0.300000X0.300000X0.300000X-0.300000X0.300000X0*%
%TD*%
%TA.AperFunction,SMDPad,CuDef*%
%ADD33RoundRect,0.087500X0.087500X-0.662500X0.087500X0.662500X-0.087500X0.662500X-0.087500X-0.662500X0*%
%TD*%
%TA.AperFunction,ComponentPad*%
%ADD34R,2.400000X2.400000*%
%TD*%
%TA.AperFunction,ComponentPad*%
%ADD35C,2.400000*%
%TD*%
%TA.AperFunction,SMDPad,CuDef*%
%ADD36RoundRect,0.135000X0.185000X-0.135000X0.185000X0.135000X-0.185000X0.135000X-0.185000X-0.135000X0*%
%TD*%
%TA.AperFunction,SMDPad,CuDef*%
%ADD37FreePoly0,0.000000*%
%TD*%
%TA.AperFunction,SMDPad,CuDef*%
%ADD38FreePoly1,0.000000*%
%TD*%
%TA.AperFunction,SMDPad,CuDef*%
%ADD39FreePoly2,0.000000*%
%TD*%
%TA.AperFunction,SMDPad,CuDef*%
%ADD40FreePoly3,0.000000*%
%TD*%
%TA.AperFunction,SMDPad,CuDef*%
%ADD41FreePoly4,0.000000*%
%TD*%
%TA.AperFunction,SMDPad,CuDef*%
%ADD42FreePoly5,0.000000*%
%TD*%
%TA.AperFunction,SMDPad,CuDef*%
%ADD43RoundRect,0.200000X0.275000X-0.200000X0.275000X0.200000X-0.275000X0.200000X-0.275000X-0.200000X0*%
%TD*%
%TA.AperFunction,SMDPad,CuDef*%
%ADD44RoundRect,0.150000X-0.587500X-0.150000X0.587500X-0.150000X0.587500X0.150000X-0.587500X0.150000X0*%
%TD*%
%TA.AperFunction,SMDPad,CuDef*%
%ADD45RoundRect,0.250000X-0.250000X-0.475000X0.250000X-0.475000X0.250000X0.475000X-0.250000X0.475000X0*%
%TD*%
%TA.AperFunction,ViaPad*%
%ADD46C,0.600000*%
%TD*%
%TA.AperFunction,ViaPad*%
%ADD47C,0.500000*%
%TD*%
%TA.AperFunction,ViaPad*%
%ADD48C,0.550000*%
%TD*%
%TA.AperFunction,Conductor*%
%ADD49C,0.250000*%
%TD*%
%TA.AperFunction,Conductor*%
%ADD50C,0.500000*%
%TD*%
%TA.AperFunction,Conductor*%
%ADD51C,0.300000*%
%TD*%
%TA.AperFunction,Conductor*%
%ADD52C,0.200000*%
%TD*%
G04 APERTURE END LIST*
D10*
%TO.P,C4,1*%
%TO.N,SDI_LINE*%
X106100000Y-87200000D03*
%TO.P,C4,2*%
%TO.N,GND*%
X106100000Y-86240000D03*
%TD*%
D11*
%TO.P,L1,1*%
%TO.N,SW*%
X111395000Y-80000000D03*
%TO.P,L1,2*%
%TO.N,5V_BUCK*%
X114395000Y-80000000D03*
%TD*%
D12*
%TO.P,R24,1*%
%TO.N,VREF*%
X137450000Y-72400000D03*
%TO.P,R24,2*%
%TO.N,A3_TH4*%
X137450000Y-74050000D03*
%TD*%
D13*
%TO.P,R5,1*%
%TO.N,VIN_P*%
X138387500Y-80000000D03*
%TO.P,R5,2*%
%TO.N,HEAT_P*%
X140212500Y-80000000D03*
%TD*%
D14*
%TO.P,RH8,1*%
%TO.N,H_7*%
X169430000Y-80000000D03*
%TO.P,RH8,2*%
%TO.N,H_8*%
X170930000Y-80000000D03*
%TD*%
D15*
%TO.P,C19,1*%
%TO.N,BOOT*%
X110000000Y-80070000D03*
%TO.P,C19,2*%
%TO.N,SW*%
X110000000Y-81030000D03*
%TD*%
D16*
%TO.P,D4,1*%
%TO.N,SDI_LINE*%
X104850000Y-87200000D03*
%TO.P,D4,2*%
%TO.N,GND*%
X102750000Y-87200000D03*
%TD*%
D14*
%TO.P,RH17,1*%
%TO.N,H_16*%
X192830000Y-80000000D03*
%TO.P,RH17,2*%
%TO.N,HEAT_RTN*%
X194330000Y-80000000D03*
%TD*%
D17*
%TO.P,J2,1*%
%TO.N,VUSB*%
X117755000Y-72500000D03*
D18*
%TO.P,J2,2*%
%TO.N,USB_DM*%
X115215000Y-72500000D03*
%TO.P,J2,3*%
%TO.N,USB_DP*%
X112675000Y-72500000D03*
%TO.P,J2,4*%
%TO.N,GND*%
X110135000Y-72500000D03*
%TO.P,J2,5*%
%TO.N,MD*%
X107595000Y-72500000D03*
%TD*%
D14*
%TO.P,RH6,1*%
%TO.N,H_5*%
X164230000Y-80000000D03*
%TO.P,RH6,2*%
%TO.N,H_6*%
X165730000Y-80000000D03*
%TD*%
D10*
%TO.P,C20,1*%
%TO.N,VCC_BUCK*%
X110000000Y-78980000D03*
%TO.P,C20,2*%
%TO.N,GND*%
X110000000Y-78020000D03*
%TD*%
D19*
%TO.P,C10,1*%
%TO.N,VCL*%
X127125000Y-72250000D03*
%TO.P,C10,2*%
%TO.N,GND*%
X128675000Y-72250000D03*
%TD*%
D20*
%TO.P,TH3,1*%
%TO.N,A0_TH3*%
X172470000Y-88000000D03*
%TO.P,TH3,2*%
%TO.N,GND*%
X173490000Y-88000000D03*
%TD*%
D16*
%TO.P,D7,1*%
%TO.N,+5V*%
X117945000Y-80000000D03*
%TO.P,D7,2*%
%TO.N,5V_BUCK*%
X115845000Y-80000000D03*
%TD*%
D21*
%TO.P,R9,1*%
%TO.N,D9_HEAT*%
X139510000Y-78400000D03*
%TO.P,R9,2*%
%TO.N,HEAT_GATE*%
X138490000Y-78400000D03*
%TD*%
D22*
%TO.P,C7,1*%
%TO.N,+5V*%
X124520000Y-72400000D03*
%TO.P,C7,2*%
%TO.N,GND*%
X125480000Y-72400000D03*
%TD*%
D23*
%TO.P,C16,1*%
%TO.N,VCC_USB*%
X117575000Y-78050000D03*
%TO.P,C16,2*%
%TO.N,GND*%
X116025000Y-78050000D03*
%TD*%
D24*
%TO.P,U1,1*%
%TO.N,N/C*%
X129250000Y-74325000D03*
%TO.P,U1,2*%
X128750000Y-74325000D03*
%TO.P,U1,3*%
X128250000Y-74325000D03*
%TO.P,U1,4*%
%TO.N,+5V*%
X127750000Y-74325000D03*
%TO.P,U1,5*%
%TO.N,VCL*%
X127250000Y-74325000D03*
%TO.P,U1,6*%
%TO.N,N/C*%
X126750000Y-74325000D03*
%TO.P,U1,7*%
X126250000Y-74325000D03*
%TO.P,U1,8*%
%TO.N,GND*%
X125750000Y-74325000D03*
%TO.P,U1,9*%
%TO.N,N/C*%
X125250000Y-74325000D03*
%TO.P,U1,10*%
X124750000Y-74325000D03*
%TO.P,U1,11*%
%TO.N,+5V*%
X124250000Y-74325000D03*
%TO.P,U1,12*%
%TO.N,N/C*%
X123750000Y-74325000D03*
%TO.P,U1,13*%
X123250000Y-74325000D03*
%TO.P,U1,14*%
X122750000Y-74325000D03*
%TO.P,U1,15*%
X122250000Y-74325000D03*
%TO.P,U1,16*%
%TO.N,VBUS_SENSE*%
X121750000Y-74325000D03*
D25*
%TO.P,U1,17*%
%TO.N,GND*%
X119825000Y-76250000D03*
%TO.P,U1,18*%
%TO.N,USB_DM*%
X119825000Y-76750000D03*
%TO.P,U1,19*%
%TO.N,USB_DP*%
X119825000Y-77250000D03*
%TO.P,U1,20*%
%TO.N,VCC_USB*%
X119825000Y-77750000D03*
%TO.P,U1,21*%
%TO.N,+5V*%
X119825000Y-78250000D03*
%TO.P,U1,22*%
%TO.N,N/C*%
X119825000Y-78750000D03*
%TO.P,U1,23*%
X119825000Y-79250000D03*
%TO.P,U1,24*%
X119825000Y-79750000D03*
%TO.P,U1,25*%
%TO.N,RESET*%
X119825000Y-80250000D03*
%TO.P,U1,26*%
%TO.N,MD*%
X119825000Y-80750000D03*
%TO.P,U1,27*%
%TO.N,NMI*%
X119825000Y-81250000D03*
%TO.P,U1,28*%
%TO.N,N/C*%
X119825000Y-81750000D03*
%TO.P,U1,29*%
%TO.N,D9_HEAT*%
X119825000Y-82250000D03*
%TO.P,U1,30*%
%TO.N,N/C*%
X119825000Y-82750000D03*
%TO.P,U1,31*%
X119825000Y-83250000D03*
%TO.P,U1,32*%
X119825000Y-83750000D03*
D24*
%TO.P,U1,33*%
X121750000Y-85675000D03*
%TO.P,U1,34*%
X122250000Y-85675000D03*
%TO.P,U1,35*%
X122750000Y-85675000D03*
%TO.P,U1,36*%
X123250000Y-85675000D03*
%TO.P,U1,37*%
X123750000Y-85675000D03*
%TO.P,U1,38*%
X124250000Y-85675000D03*
%TO.P,U1,39*%
%TO.N,+5V*%
X124750000Y-85675000D03*
%TO.P,U1,40*%
%TO.N,GND*%
X125250000Y-85675000D03*
%TO.P,U1,41*%
%TO.N,N/C*%
X125750000Y-85675000D03*
%TO.P,U1,42*%
X126250000Y-85675000D03*
%TO.P,U1,43*%
%TO.N,D2_SDI12*%
X126750000Y-85675000D03*
%TO.P,U1,44*%
%TO.N,N/C*%
X127250000Y-85675000D03*
%TO.P,U1,45*%
%TO.N,D4_EXC*%
X127750000Y-85675000D03*
%TO.P,U1,46*%
%TO.N,N/C*%
X128250000Y-85675000D03*
%TO.P,U1,47*%
%TO.N,A4_SDA*%
X128750000Y-85675000D03*
%TO.P,U1,48*%
%TO.N,A5_SCL*%
X129250000Y-85675000D03*
D25*
%TO.P,U1,49*%
%TO.N,N/C*%
X131175000Y-83750000D03*
%TO.P,U1,50*%
X131175000Y-83250000D03*
%TO.P,U1,51*%
X131175000Y-82750000D03*
%TO.P,U1,52*%
X131175000Y-82250000D03*
%TO.P,U1,53*%
%TO.N,A0_TH3*%
X131175000Y-81750000D03*
%TO.P,U1,54*%
%TO.N,N/C*%
X131175000Y-81250000D03*
%TO.P,U1,55*%
X131175000Y-80750000D03*
%TO.P,U1,56*%
%TO.N,+5V*%
X131175000Y-80250000D03*
%TO.P,U1,57*%
%TO.N,GND*%
X131175000Y-79750000D03*
%TO.P,U1,58*%
X131175000Y-79250000D03*
%TO.P,U1,59*%
%TO.N,VREF*%
X131175000Y-78750000D03*
%TO.P,U1,60*%
%TO.N,N/C*%
X131175000Y-78250000D03*
%TO.P,U1,61*%
X131175000Y-77750000D03*
%TO.P,U1,62*%
%TO.N,A3_TH4*%
X131175000Y-77250000D03*
%TO.P,U1,63*%
%TO.N,A2_TH1*%
X131175000Y-76750000D03*
%TO.P,U1,64*%
%TO.N,A1_TH2*%
X131175000Y-76250000D03*
%TD*%
D14*
%TO.P,RH11,1*%
%TO.N,H_10*%
X177230000Y-80000000D03*
%TO.P,RH11,2*%
%TO.N,H_11*%
X178730000Y-80000000D03*
%TD*%
%TO.P,RH5,1*%
%TO.N,H_4*%
X161630000Y-80000000D03*
%TO.P,RH5,2*%
%TO.N,H_5*%
X163130000Y-80000000D03*
%TD*%
%TO.P,RH2,1*%
%TO.N,H_1*%
X153830000Y-80000000D03*
%TO.P,RH2,2*%
%TO.N,H_2*%
X155330000Y-80000000D03*
%TD*%
D20*
%TO.P,R15,1*%
%TO.N,VUSB*%
X119990000Y-72400000D03*
%TO.P,R15,2*%
%TO.N,VBUS_SENSE*%
X121010000Y-72400000D03*
%TD*%
D12*
%TO.P,R21,1*%
%TO.N,VREF*%
X135300000Y-72400000D03*
%TO.P,R21,2*%
%TO.N,A2_TH1*%
X135300000Y-74050000D03*
%TD*%
D26*
%TO.P,C2,1*%
%TO.N,5V_BUCK*%
X116500000Y-81925000D03*
%TO.P,C2,2*%
%TO.N,GND*%
X116500000Y-84875000D03*
%TD*%
D14*
%TO.P,RH13,1*%
%TO.N,H_12*%
X182430000Y-80000000D03*
%TO.P,RH13,2*%
%TO.N,H_13*%
X183930000Y-80000000D03*
%TD*%
D27*
%TO.P,R3,1*%
%TO.N,SDI_LINE*%
X108575000Y-87200000D03*
%TO.P,R3,2*%
%TO.N,D2_SDI12*%
X110225000Y-87200000D03*
%TD*%
D28*
%TO.P,R7,1*%
%TO.N,+5V*%
X140400000Y-85990000D03*
%TO.P,R7,2*%
%TO.N,A5_SCL*%
X140400000Y-87010000D03*
%TD*%
D14*
%TO.P,RH3,1*%
%TO.N,H_2*%
X156430000Y-80000000D03*
%TO.P,RH3,2*%
%TO.N,H_3*%
X157930000Y-80000000D03*
%TD*%
D15*
%TO.P,C24,1*%
%TO.N,A3_TH4*%
X137450000Y-75235000D03*
%TO.P,C24,2*%
%TO.N,GND*%
X137450000Y-76195000D03*
%TD*%
D20*
%TO.P,TH1,1*%
%TO.N,A2_TH1*%
X172470000Y-72000000D03*
%TO.P,TH1,2*%
%TO.N,GND*%
X173490000Y-72000000D03*
%TD*%
D22*
%TO.P,C13,1*%
%TO.N,VREF*%
X138800000Y-72400000D03*
%TO.P,C13,2*%
%TO.N,GND*%
X139760000Y-72400000D03*
%TD*%
%TO.P,C23,1*%
%TO.N,A0_TH3*%
X134470000Y-82400000D03*
%TO.P,C23,2*%
%TO.N,GND*%
X135430000Y-82400000D03*
%TD*%
D14*
%TO.P,RH12,1*%
%TO.N,H_11*%
X179830000Y-80000000D03*
%TO.P,RH12,2*%
%TO.N,H_12*%
X181330000Y-80000000D03*
%TD*%
D12*
%TO.P,R22,1*%
%TO.N,VREF*%
X133100000Y-72400000D03*
%TO.P,R22,2*%
%TO.N,A1_TH2*%
X133100000Y-74050000D03*
%TD*%
D21*
%TO.P,R2,1*%
%TO.N,+5V*%
X111310000Y-74200000D03*
%TO.P,R2,2*%
%TO.N,MD*%
X110290000Y-74200000D03*
%TD*%
D10*
%TO.P,C9,1*%
%TO.N,+5V*%
X132750000Y-80480000D03*
%TO.P,C9,2*%
%TO.N,GND*%
X132750000Y-79520000D03*
%TD*%
D14*
%TO.P,RH16,1*%
%TO.N,H_15*%
X190230000Y-80000000D03*
%TO.P,RH16,2*%
%TO.N,H_16*%
X191730000Y-80000000D03*
%TD*%
D29*
%TO.P,C3,1*%
%TO.N,VIN_P*%
X105925000Y-74900000D03*
%TO.P,C3,2*%
%TO.N,GND*%
X108875000Y-74900000D03*
%TD*%
D20*
%TO.P,R11,1*%
%TO.N,D4_EXC*%
X132740000Y-85500000D03*
%TO.P,R11,2*%
%TO.N,VREF*%
X133760000Y-85500000D03*
%TD*%
%TO.P,R16,1*%
%TO.N,VBUS_SENSE*%
X122090000Y-72400000D03*
%TO.P,R16,2*%
%TO.N,GND*%
X123110000Y-72400000D03*
%TD*%
D30*
%TO.P,C1,1*%
%TO.N,VIN_P*%
X105700000Y-82250000D03*
%TO.P,C1,2*%
%TO.N,GND*%
X105700000Y-84150000D03*
%TD*%
D22*
%TO.P,C8,1*%
%TO.N,+5V*%
X124520000Y-87600000D03*
%TO.P,C8,2*%
%TO.N,GND*%
X125480000Y-87600000D03*
%TD*%
D31*
%TO.P,D5,1*%
%TO.N,+5V*%
X115550000Y-75200000D03*
%TO.P,D5,2*%
%TO.N,VUSB*%
X117650000Y-75200000D03*
%TD*%
D22*
%TO.P,C18,1*%
%TO.N,VIN_P*%
X107270000Y-81950000D03*
%TO.P,C18,2*%
%TO.N,GND*%
X108230000Y-81950000D03*
%TD*%
D15*
%TO.P,C12,1*%
%TO.N,+5V*%
X140400000Y-82470000D03*
%TO.P,C12,2*%
%TO.N,GND*%
X140400000Y-83430000D03*
%TD*%
D14*
%TO.P,RH4,1*%
%TO.N,H_3*%
X159030000Y-80000000D03*
%TO.P,RH4,2*%
%TO.N,H_4*%
X160530000Y-80000000D03*
%TD*%
D32*
%TO.P,D2,1*%
%TO.N,VIN*%
X104400000Y-77300000D03*
%TO.P,D2,2*%
%TO.N,GND*%
X107200000Y-77300000D03*
%TD*%
D33*
%TO.P,U4,1*%
%TO.N,GND*%
X137000000Y-86700000D03*
%TO.P,U4,2*%
X137500000Y-86700000D03*
%TO.P,U4,3*%
%TO.N,N/C*%
X138000000Y-86700000D03*
%TO.P,U4,4*%
%TO.N,A4_SDA*%
X138500000Y-86700000D03*
%TO.P,U4,5*%
%TO.N,A5_SCL*%
X139000000Y-86700000D03*
%TO.P,U4,6*%
%TO.N,+5V*%
X139000000Y-82500000D03*
%TO.P,U4,7*%
%TO.N,GND*%
X138500000Y-82500000D03*
%TO.P,U4,8*%
%TO.N,HEAT_P*%
X138000000Y-82500000D03*
%TO.P,U4,9*%
X137500000Y-82500000D03*
%TO.P,U4,10*%
%TO.N,VIN_P*%
X137000000Y-82500000D03*
%TD*%
D34*
%TO.P,J1,1*%
%TO.N,VIN*%
X101800000Y-80000000D03*
D35*
%TO.P,J1,2*%
%TO.N,SDI_LINE*%
X101800000Y-84000000D03*
%TO.P,J1,3*%
%TO.N,GND*%
X101800000Y-76000000D03*
%TD*%
D14*
%TO.P,RH15,1*%
%TO.N,H_14*%
X187630000Y-80000000D03*
%TO.P,RH15,2*%
%TO.N,H_15*%
X189130000Y-80000000D03*
%TD*%
D36*
%TO.P,R10,1*%
%TO.N,HEAT_GATE*%
X138490000Y-77440000D03*
%TO.P,R10,2*%
%TO.N,GND*%
X138490000Y-76420000D03*
%TD*%
D37*
%TO.P,U3,1*%
%TO.N,GND*%
X107225000Y-79262500D03*
D38*
%TO.P,U3,2*%
%TO.N,N/C*%
X107150000Y-79750000D03*
%TO.P,U3,3*%
%TO.N,VIN_P*%
X107150000Y-80250000D03*
D39*
%TO.P,U3,4*%
X107200000Y-80737500D03*
D40*
%TO.P,U3,5*%
%TO.N,SW*%
X108900000Y-80737500D03*
D38*
%TO.P,U3,6*%
%TO.N,BOOT*%
X108950000Y-80250000D03*
%TO.P,U3,7*%
%TO.N,VCC_BUCK*%
X108950000Y-79750000D03*
D41*
%TO.P,U3,8*%
%TO.N,5V_BUCK*%
X108875000Y-79262500D03*
D42*
%TO.P,U3,9*%
%TO.N,GND*%
X108050000Y-79450000D03*
%TD*%
D15*
%TO.P,C11,1*%
%TO.N,RESET*%
X117950000Y-86620000D03*
%TO.P,C11,2*%
%TO.N,GND*%
X117950000Y-87580000D03*
%TD*%
D14*
%TO.P,RH7,1*%
%TO.N,H_6*%
X166830000Y-80000000D03*
%TO.P,RH7,2*%
%TO.N,H_7*%
X168330000Y-80000000D03*
%TD*%
D36*
%TO.P,R4,1*%
%TO.N,SDI_LINE*%
X107300000Y-87230000D03*
%TO.P,R4,2*%
%TO.N,GND*%
X107300000Y-86210000D03*
%TD*%
D14*
%TO.P,RH1,1*%
%TO.N,HEAT_P*%
X151230000Y-80000000D03*
%TO.P,RH1,2*%
%TO.N,H_1*%
X152730000Y-80000000D03*
%TD*%
D43*
%TO.P,R23,1*%
%TO.N,VREF*%
X133199999Y-84125000D03*
%TO.P,R23,2*%
%TO.N,A0_TH3*%
X133199999Y-82475000D03*
%TD*%
D14*
%TO.P,RH10,1*%
%TO.N,H_9*%
X174630000Y-80000000D03*
%TO.P,RH10,2*%
%TO.N,H_10*%
X176130000Y-80000000D03*
%TD*%
D15*
%TO.P,C22,1*%
%TO.N,A1_TH2*%
X133100000Y-75235000D03*
%TO.P,C22,2*%
%TO.N,GND*%
X133100000Y-76195000D03*
%TD*%
D20*
%TO.P,TH2,1*%
%TO.N,A1_TH2*%
X196750000Y-80000000D03*
%TO.P,TH2,2*%
%TO.N,GND*%
X197770000Y-80000000D03*
%TD*%
D44*
%TO.P,Q1,1*%
%TO.N,HEAT_GATE*%
X134297500Y-79050000D03*
%TO.P,Q1,2*%
%TO.N,GND*%
X134297500Y-80950000D03*
%TO.P,Q1,3*%
%TO.N,HEAT_RTN*%
X136172500Y-80000000D03*
%TD*%
D20*
%TO.P,TH4,1*%
%TO.N,A3_TH4*%
X138740000Y-74050000D03*
%TO.P,TH4,2*%
%TO.N,GND*%
X139760000Y-74050000D03*
%TD*%
D45*
%TO.P,C17,1*%
%TO.N,+5V*%
X103250000Y-72400000D03*
%TO.P,C17,2*%
%TO.N,GND*%
X105150000Y-72400000D03*
%TD*%
D16*
%TO.P,D1,1*%
%TO.N,VIN_P*%
X105995000Y-80000000D03*
%TO.P,D1,2*%
%TO.N,VIN*%
X103895000Y-80000000D03*
%TD*%
D15*
%TO.P,C21,1*%
%TO.N,A2_TH1*%
X135300000Y-75235000D03*
%TO.P,C21,2*%
%TO.N,GND*%
X135300000Y-76195000D03*
%TD*%
D36*
%TO.P,R14,1*%
%TO.N,+5V*%
X119400000Y-88260000D03*
%TO.P,R14,2*%
%TO.N,NMI*%
X119400000Y-87240000D03*
%TD*%
D28*
%TO.P,R6,1*%
%TO.N,+5V*%
X135000000Y-86710000D03*
%TO.P,R6,2*%
%TO.N,A4_SDA*%
X135000000Y-87730000D03*
%TD*%
D14*
%TO.P,RH14,1*%
%TO.N,H_13*%
X185030000Y-80000000D03*
%TO.P,RH14,2*%
%TO.N,H_14*%
X186530000Y-80000000D03*
%TD*%
%TO.P,RH9,1*%
%TO.N,H_8*%
X172030000Y-80000000D03*
%TO.P,RH9,2*%
%TO.N,H_9*%
X173530000Y-80000000D03*
%TD*%
D20*
%TO.P,R1,1*%
%TO.N,+5V*%
X115890000Y-86620000D03*
%TO.P,R1,2*%
%TO.N,RESET*%
X116910000Y-86620000D03*
%TD*%
D46*
%TO.N,GND*%
X139760000Y-73150000D03*
X110000000Y-77350000D03*
X116025000Y-79000000D03*
D47*
X198620000Y-80000000D03*
D46*
X106700000Y-85450000D03*
X101900000Y-87200000D03*
X142200000Y-75600000D03*
X141600000Y-87420000D03*
X129600000Y-72250000D03*
X117950000Y-88350000D03*
X174340000Y-88000000D03*
X142200000Y-84400000D03*
X136200000Y-76195000D03*
X125480000Y-88350000D03*
X134000000Y-81620000D03*
X141600000Y-72580000D03*
X134850000Y-81620000D03*
X140550000Y-81300000D03*
X136150000Y-85500000D03*
X123110000Y-71650000D03*
X115000000Y-84875000D03*
X132750000Y-78800000D03*
X106100000Y-72400000D03*
X125480000Y-71650000D03*
X106800000Y-84150000D03*
X139250000Y-76420000D03*
X142200000Y-82200000D03*
X135430000Y-83250000D03*
X142200000Y-77800000D03*
X107200000Y-76150000D03*
X109000000Y-82350000D03*
X109725000Y-74900000D03*
X121250000Y-76250000D03*
X174340000Y-72000000D03*
X134000000Y-76195000D03*
X140400000Y-84300000D03*
X108050000Y-78000000D03*
%TO.N,VIN_P*%
X106045000Y-78800000D03*
X137447500Y-80000000D03*
%TO.N,HEAT_RTN*%
X136202500Y-81200000D03*
D48*
X195130000Y-80000000D03*
D46*
%TO.N,MD*%
X121250000Y-81000000D03*
X110289999Y-75400000D03*
%TO.N,A0_TH3*%
X134450000Y-83200000D03*
X140850000Y-88000000D03*
%TO.N,+5V*%
X140400000Y-85170000D03*
X139750000Y-81800000D03*
X115550000Y-76100000D03*
X118600000Y-78900000D03*
X115170000Y-86620000D03*
X121250000Y-78250000D03*
X102400000Y-72400000D03*
X132750000Y-81200000D03*
X124520000Y-88350000D03*
X124520000Y-71650000D03*
X127750000Y-75650000D03*
X120200000Y-88260000D03*
X111310000Y-75400000D03*
X135000000Y-85920000D03*
%TO.N,D9_HEAT*%
X140250000Y-78400000D03*
X121250000Y-82250000D03*
%TO.N,D2_SDI12*%
X126750000Y-87100000D03*
X111350000Y-87350000D03*
%TO.N,A5_SCL*%
X139000000Y-88250000D03*
X129699999Y-86950000D03*
%TO.N,A2_TH1*%
X136250000Y-74050000D03*
X140850000Y-72000000D03*
D47*
%TO.N,A1_TH2*%
X195900000Y-80000000D03*
D46*
X134050000Y-74050000D03*
%TD*%
%TO.N,SDI_LINE*%
D49*
X102600000Y-84800000D02*
X104850000Y-87050000D01*
X104850000Y-87050000D02*
X104850000Y-87200000D01*
X104850000Y-87200000D02*
X108575000Y-87200000D01*
%TO.N,GND*%
D50*
X108875000Y-74900000D02*
X109725000Y-74900000D01*
D51*
X117950000Y-87580000D02*
X117950000Y-88350000D01*
D50*
X107500000Y-79000000D02*
X108050000Y-79000000D01*
X134850000Y-80950000D02*
X134850000Y-81620000D01*
D51*
X125750000Y-73550000D02*
X125480000Y-72400000D01*
D50*
X134000000Y-80950000D02*
X134000000Y-81620000D01*
X110000000Y-78020000D02*
X110000000Y-77350000D01*
D51*
X139760000Y-74050000D02*
X139760000Y-73150000D01*
D52*
X173490000Y-88000000D02*
X174340000Y-88000000D01*
D51*
X106100000Y-86240000D02*
X107300000Y-86210000D01*
X135300000Y-76195000D02*
X136200000Y-76195000D01*
X139760000Y-72400000D02*
X139760000Y-73150000D01*
X131949999Y-79750000D02*
X132750000Y-79520000D01*
D52*
X138500000Y-83100000D02*
X138500000Y-83600000D01*
D51*
X125480000Y-87600000D02*
X125480000Y-88350000D01*
D52*
X173490000Y-72000000D02*
X174340000Y-72000000D01*
D51*
X133100000Y-76195000D02*
X134000000Y-76195000D01*
X140400000Y-83430000D02*
X140400000Y-84300000D01*
X125250000Y-86450000D02*
X125480000Y-87600000D01*
D52*
X137250000Y-84850000D02*
X137250000Y-86100000D01*
D51*
X106700000Y-86240000D02*
X106700000Y-85450000D01*
X135430000Y-82400000D02*
X135430000Y-83250000D01*
D50*
X107200000Y-77300000D02*
X107200000Y-76150000D01*
D51*
X138490000Y-76420000D02*
X139250000Y-76420000D01*
X128675000Y-72250000D02*
X129600000Y-72250000D01*
D50*
X108050000Y-81300000D02*
X108050000Y-80000000D01*
X108050000Y-79800000D02*
X108050000Y-78000000D01*
D51*
X116025000Y-78050000D02*
X116025000Y-79000000D01*
X132750000Y-79520000D02*
X132750000Y-78800000D01*
D50*
X105700000Y-84150000D02*
X106800000Y-84150000D01*
D49*
X136150000Y-85750000D02*
X136150000Y-85500000D01*
X136900000Y-86100000D02*
X136500000Y-86100000D01*
D50*
X108230000Y-81950000D02*
X108050000Y-81300000D01*
X116500000Y-84875000D02*
X115000000Y-84875000D01*
X108230000Y-81950000D02*
X109000000Y-82350000D01*
D52*
X138500000Y-83600000D02*
X137250000Y-84850000D01*
D51*
X137750000Y-76270000D02*
X138190000Y-76270000D01*
D49*
X120300000Y-76250000D02*
X121250000Y-76250000D01*
X136500000Y-86100000D02*
X136150000Y-85750000D01*
D52*
X198620000Y-80000000D02*
X197770000Y-80000000D01*
D51*
X125480000Y-72400000D02*
X125480000Y-71650000D01*
X131949999Y-79250000D02*
X132449999Y-79520000D01*
X102750000Y-87200000D02*
X101900000Y-87200000D01*
D50*
X105150000Y-72400000D02*
X106100000Y-72400000D01*
D51*
X123110000Y-72400000D02*
X123110000Y-71650000D01*
%TO.N,SW*%
D50*
X109000000Y-80850000D02*
X111095000Y-80850000D01*
%TO.N,5V_BUCK*%
D51*
X114395000Y-77850000D02*
X114395000Y-78300000D01*
X110800000Y-76750000D02*
X111800000Y-77750000D01*
D50*
X115845000Y-80150000D02*
X116400000Y-81525000D01*
D51*
X108750000Y-79100000D02*
X108750000Y-76750000D01*
X111800000Y-77750000D02*
X114295000Y-77750000D01*
X108750000Y-76750000D02*
X110800000Y-76750000D01*
D50*
X114595000Y-80000000D02*
X115645000Y-80000000D01*
X116400000Y-81525000D02*
X116500000Y-81925000D01*
D51*
X114295000Y-77750000D02*
X114395000Y-77850000D01*
%TO.N,VREF*%
D52*
X130050000Y-75650000D02*
X131500000Y-74200000D01*
X133729999Y-84680000D02*
X133729999Y-85400000D01*
X131500000Y-72650000D02*
X131750000Y-72400000D01*
X130595000Y-78750000D02*
X130050000Y-78750000D01*
D51*
X131750000Y-72400000D02*
X138900000Y-72400000D01*
D52*
X131500000Y-74200000D02*
X131500000Y-72650000D01*
X130050000Y-78750000D02*
X130050000Y-75650000D01*
X130050000Y-84250000D02*
X132900000Y-84250000D01*
X130050000Y-78750000D02*
X130050000Y-84250000D01*
X133500000Y-84450000D02*
X133729999Y-84680000D01*
%TO.N,A3_TH4*%
X137450000Y-74400000D02*
X137450000Y-75050000D01*
X137800000Y-74050000D02*
X138600000Y-74050000D01*
X136850000Y-74300000D02*
X137100000Y-74050000D01*
X131495000Y-77250000D02*
X136600000Y-77250000D01*
X136600000Y-77250000D02*
X136850000Y-77000000D01*
X137100000Y-74050000D02*
X137300000Y-74050000D01*
X136850000Y-77000000D02*
X136850000Y-74300000D01*
%TO.N,VIN_P*%
X137000000Y-81000000D02*
X137000000Y-82200000D01*
D50*
X105995000Y-80000000D02*
X106045000Y-79600000D01*
X105995000Y-80000000D02*
X106500000Y-80500000D01*
X106200000Y-82250000D02*
X105700000Y-82250000D01*
D52*
X137947500Y-80600000D02*
X137547500Y-81000000D01*
D50*
X107250000Y-80900000D02*
X107270000Y-81950000D01*
X106045000Y-79600000D02*
X106045000Y-75100000D01*
X106500000Y-80500000D02*
X107050000Y-80500000D01*
X137447500Y-80000000D02*
X138087500Y-80000000D01*
D52*
X137547500Y-81000000D02*
X137000000Y-81000000D01*
D50*
X106045000Y-75100000D02*
X105925000Y-74900000D01*
X107270000Y-81950000D02*
X106200000Y-82250000D01*
%TO.N,HEAT_P*%
D52*
X139852500Y-80550000D02*
X139852500Y-81250000D01*
D50*
X140512500Y-80000000D02*
X142180000Y-80000000D01*
D52*
X137500000Y-82500000D02*
X138000000Y-82500000D01*
X138300000Y-81250000D02*
X138000000Y-81550000D01*
D50*
X142180000Y-80000000D02*
X151230000Y-80000000D01*
D52*
X139852500Y-81250000D02*
X138300000Y-81250000D01*
X138000000Y-81550000D02*
X138000000Y-82200000D01*
%TO.N,H_7*%
D50*
X168330000Y-80000000D02*
X169430000Y-80000000D01*
%TO.N,H_8*%
X170930000Y-80000000D02*
X172030000Y-80000000D01*
%TO.N,BOOT*%
D51*
X109100000Y-80250000D02*
X109850000Y-80100000D01*
%TO.N,H_16*%
D50*
X191730000Y-80000000D02*
X192830000Y-80000000D01*
%TO.N,HEAT_RTN*%
X194330000Y-80000000D02*
X195130000Y-80000000D01*
X136202500Y-81200000D02*
X136202500Y-80000000D01*
%TO.N,VUSB*%
D52*
X118355000Y-72400000D02*
X119990000Y-72400000D01*
D50*
X117650000Y-73100000D02*
X117650000Y-75200000D01*
%TO.N,USB_DM*%
D51*
X114195000Y-76250000D02*
X114195000Y-74800000D01*
X115215000Y-73780000D02*
X115215000Y-72500000D01*
X119425000Y-76750000D02*
X114695000Y-76750000D01*
X114195000Y-74800000D02*
X115215000Y-73780000D01*
X114695000Y-76750000D02*
X114195000Y-76250000D01*
%TO.N,USB_DP*%
X112675000Y-73780000D02*
X112675000Y-72500000D01*
X113695000Y-74800000D02*
X112675000Y-73780000D01*
X119425000Y-77250000D02*
X114487900Y-77250000D01*
X114487900Y-77250000D02*
X113695000Y-76457100D01*
X113695000Y-76457100D02*
X113695000Y-74800000D01*
%TO.N,MD*%
D52*
X110289999Y-75400000D02*
X110289999Y-74200000D01*
X120295000Y-80750000D02*
X121000000Y-80750000D01*
X110289999Y-73900000D02*
X110039999Y-73650000D01*
X110289999Y-74200000D02*
X110289999Y-73900000D01*
X110039999Y-73650000D02*
X108250000Y-73650000D01*
X121000000Y-80750000D02*
X121250000Y-81000000D01*
X108250000Y-73650000D02*
X107800000Y-73200000D01*
%TO.N,H_5*%
D50*
X163130000Y-80000000D02*
X164230000Y-80000000D01*
%TO.N,H_6*%
X165730000Y-80000000D02*
X166830000Y-80000000D01*
%TO.N,VCC_BUCK*%
D52*
X109100000Y-79750000D02*
X109250000Y-79750000D01*
X109250000Y-79750000D02*
X109850000Y-79100000D01*
%TO.N,VCL*%
D51*
X127250000Y-73550000D02*
X127125000Y-72250000D01*
%TO.N,A0_TH3*%
D52*
X132100000Y-81750000D02*
X132750000Y-82400000D01*
X142180000Y-88000000D02*
X172470000Y-88000000D01*
X142180000Y-88000000D02*
X140850000Y-88000000D01*
X134450000Y-82400000D02*
X134450000Y-83200000D01*
X132750000Y-82400000D02*
X134600000Y-82400000D01*
X131495000Y-81750000D02*
X132100000Y-81750000D01*
%TO.N,+5V*%
D51*
X124250000Y-73550000D02*
X124520000Y-72400000D01*
X124750000Y-86450000D02*
X124520000Y-87600000D01*
X135000000Y-86710000D02*
X135000000Y-85920000D01*
X119400000Y-88260000D02*
X120200000Y-88260000D01*
X132750000Y-80480000D02*
X132750000Y-81200000D01*
D50*
X117945000Y-79555000D02*
X118600000Y-78900000D01*
D51*
X124520000Y-87600000D02*
X124520000Y-88350000D01*
D49*
X127750000Y-74800000D02*
X127750000Y-75650000D01*
D51*
X139750000Y-82470000D02*
X139750000Y-81800000D01*
D49*
X120300000Y-78250000D02*
X121250000Y-78250000D01*
D51*
X139000000Y-82470000D02*
X140400000Y-82470000D01*
D50*
X103250000Y-72400000D02*
X102400000Y-72400000D01*
D51*
X140400000Y-85990000D02*
X140400000Y-85170000D01*
X131949999Y-80250000D02*
X132750000Y-80480000D01*
X115890000Y-86620000D02*
X115170000Y-86620000D01*
D50*
X115550000Y-75200000D02*
X115550000Y-76100000D01*
D51*
X124520000Y-72400000D02*
X124520000Y-71650000D01*
X111310000Y-74200000D02*
X111310000Y-75400000D01*
D50*
X117945000Y-80000000D02*
X117945000Y-79555000D01*
%TO.N,D9_HEAT*%
D52*
X140250000Y-78400000D02*
X139510000Y-78400000D01*
X120295000Y-82250000D02*
X121250000Y-82250000D01*
%TO.N,HEAT_GATE*%
X138490000Y-77440000D02*
X138490000Y-78400000D01*
X138490000Y-78400000D02*
X135400000Y-78400000D01*
X135400000Y-78400000D02*
X134900000Y-78900000D01*
%TO.N,VCC_USB*%
X119425000Y-77750000D02*
X117700000Y-77750000D01*
%TO.N,VBUS_SENSE*%
X121750000Y-73100000D02*
X122100000Y-72750000D01*
X121750000Y-73775000D02*
X121750000Y-73100000D01*
X121750000Y-73100000D02*
X121200000Y-72550000D01*
X122100000Y-72750000D02*
X122100000Y-72600000D01*
%TO.N,RESET*%
X117950000Y-80900000D02*
X117950000Y-86620000D01*
X118600000Y-80250000D02*
X117950000Y-80900000D01*
X117950000Y-86620000D02*
X116910000Y-86620000D01*
X119425000Y-80250000D02*
X118600000Y-80250000D01*
%TO.N,NMI*%
X119425000Y-81250000D02*
X118600000Y-81250000D01*
X118600000Y-86600000D02*
X119200000Y-87200000D01*
X118600000Y-81250000D02*
X118600000Y-86600000D01*
%TO.N,D2_SDI12*%
X126750000Y-86175000D02*
X126750000Y-87100000D01*
X111350000Y-87350000D02*
X110225000Y-87350000D01*
%TO.N,D4_EXC*%
X127750000Y-84600000D02*
X131900000Y-84600000D01*
X127750000Y-85305000D02*
X127750000Y-84600000D01*
X131900000Y-84600000D02*
X132699999Y-85400000D01*
%TO.N,A4_SDA*%
X128750000Y-86175000D02*
X128750000Y-87300000D01*
X138500000Y-87700000D02*
X138500000Y-87300000D01*
X129150000Y-87700000D02*
X138500000Y-87700000D01*
X128750000Y-87300000D02*
X129150000Y-87700000D01*
%TO.N,A5_SCL*%
X129250000Y-86500000D02*
X129699999Y-86950000D01*
X139000000Y-88250000D02*
X139000000Y-87200000D01*
X129250000Y-86175000D02*
X129250000Y-86500000D01*
X139000000Y-87010000D02*
X140400000Y-87010000D01*
%TO.N,A2_TH1*%
X134900000Y-74050000D02*
X135100000Y-74050000D01*
X142180000Y-72000000D02*
X172470000Y-72000000D01*
X134650000Y-74300000D02*
X134900000Y-74050000D01*
X142180000Y-72000000D02*
X140850000Y-72000000D01*
X134650000Y-76500000D02*
X134650000Y-74300000D01*
X135600000Y-74050000D02*
X136250000Y-74050000D01*
X135300000Y-74400000D02*
X135300000Y-75050000D01*
X134400000Y-76750000D02*
X134650000Y-76500000D01*
X131495000Y-76750000D02*
X134400000Y-76750000D01*
%TO.N,A1_TH2*%
X132600000Y-74050000D02*
X132900000Y-74050000D01*
X132350000Y-76000000D02*
X132350000Y-74300000D01*
X132350000Y-74300000D02*
X132600000Y-74050000D01*
X133100000Y-74400000D02*
X133100000Y-75050000D01*
X132100000Y-76250000D02*
X132350000Y-76000000D01*
X131495000Y-76250000D02*
X132100000Y-76250000D01*
X133400000Y-74050000D02*
X134050000Y-74050000D01*
X195900000Y-80000000D02*
X196750000Y-80000000D01*
%TO.N,H_10*%
D50*
X176130000Y-80000000D02*
X177230000Y-80000000D01*
%TO.N,H_11*%
X178730000Y-80000000D02*
X179830000Y-80000000D01*
%TO.N,H_4*%
X160530000Y-80000000D02*
X161630000Y-80000000D01*
%TO.N,H_1*%
X152730000Y-80000000D02*
X153830000Y-80000000D01*
%TO.N,H_2*%
X155330000Y-80000000D02*
X156430000Y-80000000D01*
%TO.N,H_12*%
X181330000Y-80000000D02*
X182430000Y-80000000D01*
%TO.N,H_13*%
X183930000Y-80000000D02*
X185030000Y-80000000D01*
%TO.N,H_3*%
X157930000Y-80000000D02*
X159030000Y-80000000D01*
%TO.N,H_15*%
X189130000Y-80000000D02*
X190230000Y-80000000D01*
%TO.N,VIN*%
X101800000Y-80000000D02*
X103895000Y-80000000D01*
X102600000Y-79400000D02*
X104400000Y-77300000D01*
%TO.N,H_14*%
X186530000Y-80000000D02*
X187630000Y-80000000D01*
%TO.N,H_9*%
X173530000Y-80000000D02*
X174630000Y-80000000D01*
%TD*%
%TA.AperFunction,Conductor*%
%TO.N,GND*%
G36*
X102347543Y-71728907D02*
G01*
X102383507Y-71778407D01*
X102383507Y-71839593D01*
X102347543Y-71889093D01*
X102314976Y-71904626D01*
X102258088Y-71919869D01*
X102206809Y-71933609D01*
X102092690Y-71999496D01*
X101999496Y-72092690D01*
X101933609Y-72206809D01*
X101918095Y-72264711D01*
X101899500Y-72334108D01*
X101899500Y-72465892D01*
X101917751Y-72534007D01*
X101933609Y-72593190D01*
X101999496Y-72707309D01*
X101999498Y-72707311D01*
X101999500Y-72707314D01*
X102092686Y-72800500D01*
X102092688Y-72800501D01*
X102092690Y-72800503D01*
X102206810Y-72866390D01*
X102206808Y-72866390D01*
X102206812Y-72866391D01*
X102206814Y-72866392D01*
X102334108Y-72900500D01*
X102334110Y-72900500D01*
X102461395Y-72900500D01*
X102519586Y-72919407D01*
X102554839Y-72966802D01*
X102597207Y-73087883D01*
X102677845Y-73197144D01*
X102677847Y-73197146D01*
X102677850Y-73197150D01*
X102677853Y-73197152D01*
X102677855Y-73197154D01*
X102787116Y-73277792D01*
X102787117Y-73277792D01*
X102787118Y-73277793D01*
X102915301Y-73322646D01*
X102945725Y-73325499D01*
X102945727Y-73325500D01*
X102945734Y-73325500D01*
X103554273Y-73325500D01*
X103554273Y-73325499D01*
X103584699Y-73322646D01*
X103712882Y-73277793D01*
X103822150Y-73197150D01*
X103902793Y-73087882D01*
X103947646Y-72959699D01*
X103950499Y-72929273D01*
X103950500Y-72929273D01*
X103950500Y-71870727D01*
X103950499Y-71870725D01*
X103950138Y-71866874D01*
X103947646Y-71840301D01*
X103947643Y-71840294D01*
X103946360Y-71834414D01*
X103947964Y-71834063D01*
X103946760Y-71780532D01*
X103981602Y-71730236D01*
X104039353Y-71710025D01*
X104041579Y-71710000D01*
X106734355Y-71710000D01*
X106792546Y-71728907D01*
X106828510Y-71778407D01*
X106828510Y-71839593D01*
X106816672Y-71863996D01*
X106748174Y-71966512D01*
X106708367Y-72026087D01*
X106632949Y-72208163D01*
X106632949Y-72208165D01*
X106594500Y-72401456D01*
X106594500Y-72598543D01*
X106618495Y-72719170D01*
X106632844Y-72791309D01*
X106632949Y-72791834D01*
X106632949Y-72791836D01*
X106708367Y-72973913D01*
X106726132Y-73000500D01*
X106817861Y-73137782D01*
X106957218Y-73277139D01*
X107121086Y-73386632D01*
X107303165Y-73462051D01*
X107496459Y-73500500D01*
X107634521Y-73500500D01*
X107692712Y-73519407D01*
X107704525Y-73529496D01*
X108009540Y-73834511D01*
X108009539Y-73834511D01*
X108065489Y-73890460D01*
X108134007Y-73930019D01*
X108134011Y-73930021D01*
X108210435Y-73950499D01*
X108210437Y-73950500D01*
X108210438Y-73950500D01*
X108289562Y-73950500D01*
X109720500Y-73950500D01*
X109778691Y-73969407D01*
X109814655Y-74018907D01*
X109819500Y-74049500D01*
X109819500Y-74424316D01*
X109821172Y-74437016D01*
X109825932Y-74473174D01*
X109825932Y-74473175D01*
X109875933Y-74580401D01*
X109875934Y-74580402D01*
X109875935Y-74580404D01*
X109959596Y-74664065D01*
X109959597Y-74664065D01*
X109960503Y-74664971D01*
X109988280Y-74719488D01*
X109989499Y-74734975D01*
X109989499Y-74951679D01*
X109970592Y-75009870D01*
X109960508Y-75021676D01*
X109922316Y-75059869D01*
X109889496Y-75092689D01*
X109889495Y-75092690D01*
X109823608Y-75206809D01*
X109823607Y-75206814D01*
X109789499Y-75334108D01*
X109789499Y-75465892D01*
X109797245Y-75494799D01*
X109823608Y-75593190D01*
X109889495Y-75707309D01*
X109889497Y-75707311D01*
X109889499Y-75707314D01*
X109982685Y-75800500D01*
X109982687Y-75800501D01*
X109982689Y-75800503D01*
X110096809Y-75866390D01*
X110096807Y-75866390D01*
X110096811Y-75866391D01*
X110096813Y-75866392D01*
X110224107Y-75900500D01*
X110224109Y-75900500D01*
X110355889Y-75900500D01*
X110355891Y-75900500D01*
X110483185Y-75866392D01*
X110483187Y-75866390D01*
X110483189Y-75866390D01*
X110597308Y-75800503D01*
X110597308Y-75800502D01*
X110597313Y-75800500D01*
X110690499Y-75707314D01*
X110714262Y-75666154D01*
X110759731Y-75625213D01*
X110820582Y-75618817D01*
X110873570Y-75649410D01*
X110885735Y-75666153D01*
X110899684Y-75690313D01*
X110909500Y-75707314D01*
X111002686Y-75800500D01*
X111002688Y-75800501D01*
X111002690Y-75800503D01*
X111116810Y-75866390D01*
X111116808Y-75866390D01*
X111116812Y-75866391D01*
X111116814Y-75866392D01*
X111244108Y-75900500D01*
X111244110Y-75900500D01*
X111375890Y-75900500D01*
X111375892Y-75900500D01*
X111503186Y-75866392D01*
X111503188Y-75866390D01*
X111503190Y-75866390D01*
X111617309Y-75800503D01*
X111617309Y-75800502D01*
X111617314Y-75800500D01*
X111710500Y-75707314D01*
X111720316Y-75690313D01*
X111776390Y-75593190D01*
X111776390Y-75593188D01*
X111776392Y-75593186D01*
X111810500Y-75465892D01*
X111810500Y-75334108D01*
X111776392Y-75206814D01*
X111776390Y-75206811D01*
X111776390Y-75206809D01*
X111710503Y-75092690D01*
X111710498Y-75092684D01*
X111689495Y-75071680D01*
X111661719Y-75017163D01*
X111660500Y-75001678D01*
X111660500Y-74684976D01*
X111679407Y-74626785D01*
X111689490Y-74614978D01*
X111724065Y-74580404D01*
X111774068Y-74473173D01*
X111780500Y-74424316D01*
X111780500Y-73975684D01*
X111774068Y-73926827D01*
X111768687Y-73915288D01*
X111724066Y-73819598D01*
X111724065Y-73819597D01*
X111724065Y-73819596D01*
X111640404Y-73735935D01*
X111640402Y-73735934D01*
X111640401Y-73735933D01*
X111533175Y-73685932D01*
X111491304Y-73680420D01*
X111484316Y-73679500D01*
X111135684Y-73679500D01*
X111128696Y-73680420D01*
X111086825Y-73685932D01*
X111086824Y-73685932D01*
X110979598Y-73735933D01*
X110895933Y-73819598D01*
X110889724Y-73832915D01*
X110847995Y-73877663D01*
X110787934Y-73889337D01*
X110732482Y-73863478D01*
X110710276Y-73832915D01*
X110704066Y-73819598D01*
X110704065Y-73819597D01*
X110704065Y-73819596D01*
X110620404Y-73735935D01*
X110620402Y-73735934D01*
X110620401Y-73735933D01*
X110506309Y-73682731D01*
X110507386Y-73680420D01*
X110477913Y-73662943D01*
X110474510Y-73659540D01*
X110474510Y-73659539D01*
X110224509Y-73409539D01*
X110208852Y-73400499D01*
X110208852Y-73400500D01*
X110155988Y-73369979D01*
X110155987Y-73369978D01*
X110155986Y-73369978D01*
X110079563Y-73349500D01*
X110079561Y-73349500D01*
X108415479Y-73349500D01*
X108357288Y-73330593D01*
X108345475Y-73320504D01*
X108337450Y-73312479D01*
X108309673Y-73257962D01*
X108319244Y-73197530D01*
X108337450Y-73172471D01*
X108372139Y-73137782D01*
X108481632Y-72973914D01*
X108557051Y-72791835D01*
X108595500Y-72598541D01*
X108595500Y-72401459D01*
X108557051Y-72208165D01*
X108481632Y-72026086D01*
X108373329Y-71863999D01*
X108356721Y-71805114D01*
X108377898Y-71747710D01*
X108428772Y-71713717D01*
X108455645Y-71710000D01*
X111814355Y-71710000D01*
X111872546Y-71728907D01*
X111908510Y-71778407D01*
X111908510Y-71839593D01*
X111896672Y-71863996D01*
X111828174Y-71966512D01*
X111788367Y-72026087D01*
X111712949Y-72208163D01*
X111712949Y-72208165D01*
X111674500Y-72401456D01*
X111674500Y-72598543D01*
X111698495Y-72719170D01*
X111712844Y-72791309D01*
X111712949Y-72791834D01*
X111712949Y-72791836D01*
X111788367Y-72973913D01*
X111806132Y-73000500D01*
X111897861Y-73137782D01*
X112037218Y-73277139D01*
X112150047Y-73352529D01*
X112201084Y-73386631D01*
X112201085Y-73386631D01*
X112201086Y-73386632D01*
X112263386Y-73412437D01*
X112309910Y-73452171D01*
X112324500Y-73503900D01*
X112324500Y-73826143D01*
X112341874Y-73890987D01*
X112348386Y-73915289D01*
X112348387Y-73915291D01*
X112383256Y-73975685D01*
X112394530Y-73995212D01*
X113315505Y-74916187D01*
X113343281Y-74970702D01*
X113344500Y-74986189D01*
X113344500Y-76503244D01*
X113368386Y-76592388D01*
X113414530Y-76672312D01*
X113711718Y-76969500D01*
X113972714Y-77230496D01*
X114000491Y-77285013D01*
X113990920Y-77345445D01*
X113947655Y-77388710D01*
X113902710Y-77399500D01*
X111986190Y-77399500D01*
X111927999Y-77380593D01*
X111916186Y-77370504D01*
X111466186Y-76920504D01*
X111015212Y-76469530D01*
X110935288Y-76423386D01*
X110846144Y-76399500D01*
X108796144Y-76399500D01*
X108703856Y-76399500D01*
X108614712Y-76423386D01*
X108614711Y-76423386D01*
X108614709Y-76423387D01*
X108534790Y-76469529D01*
X108469529Y-76534790D01*
X108423387Y-76614709D01*
X108423386Y-76614711D01*
X108423386Y-76614712D01*
X108404684Y-76684511D01*
X108399500Y-76703857D01*
X108399500Y-78570049D01*
X108380593Y-78628240D01*
X108377901Y-78631775D01*
X108314850Y-78710837D01*
X108294500Y-78800000D01*
X108294500Y-79375001D01*
X108299651Y-79420727D01*
X108339334Y-79503128D01*
X108407225Y-79557269D01*
X108440932Y-79608332D01*
X108444500Y-79634670D01*
X108444500Y-79875001D01*
X108449652Y-79920728D01*
X108464282Y-79951108D01*
X108472495Y-80011739D01*
X108465286Y-80033928D01*
X108444500Y-80125000D01*
X108444500Y-80375016D01*
X108445926Y-80387671D01*
X108433649Y-80447612D01*
X108424950Y-80460474D01*
X108364850Y-80535837D01*
X108344500Y-80625000D01*
X108344500Y-81200001D01*
X108349651Y-81245727D01*
X108378881Y-81306421D01*
X108389334Y-81328127D01*
X108460837Y-81385149D01*
X108550000Y-81405500D01*
X108899999Y-81405500D01*
X108900000Y-81405500D01*
X108945728Y-81400348D01*
X109028127Y-81360666D01*
X109046383Y-81337774D01*
X109097447Y-81304068D01*
X109123784Y-81300500D01*
X109452083Y-81300500D01*
X109510274Y-81319407D01*
X109541806Y-81357659D01*
X109546776Y-81368316D01*
X109631684Y-81453224D01*
X109740513Y-81503972D01*
X109790099Y-81510500D01*
X110209900Y-81510499D01*
X110259487Y-81503972D01*
X110259488Y-81503972D01*
X110340077Y-81466392D01*
X110368316Y-81453224D01*
X110453224Y-81368316D01*
X110455775Y-81362844D01*
X110497503Y-81318096D01*
X110557564Y-81306421D01*
X110613017Y-81332278D01*
X110642681Y-81385792D01*
X110644500Y-81404683D01*
X110644500Y-81654274D01*
X110647353Y-81684694D01*
X110647355Y-81684703D01*
X110692207Y-81812883D01*
X110772845Y-81922144D01*
X110772847Y-81922146D01*
X110772850Y-81922150D01*
X110772853Y-81922152D01*
X110772855Y-81922154D01*
X110882116Y-82002792D01*
X110882117Y-82002792D01*
X110882118Y-82002793D01*
X111010301Y-82047646D01*
X111040725Y-82050499D01*
X111040727Y-82050500D01*
X111040734Y-82050500D01*
X111749273Y-82050500D01*
X111749273Y-82050499D01*
X111779699Y-82047646D01*
X111907882Y-82002793D01*
X112017150Y-81922150D01*
X112097793Y-81812882D01*
X112142646Y-81684699D01*
X112145499Y-81654273D01*
X112145500Y-81654273D01*
X112145500Y-78345727D01*
X112145499Y-78345725D01*
X112144410Y-78334109D01*
X112142646Y-78315301D01*
X112113566Y-78232197D01*
X112112194Y-78171028D01*
X112147037Y-78120733D01*
X112204789Y-78100525D01*
X112207011Y-78100500D01*
X113582989Y-78100500D01*
X113641180Y-78119407D01*
X113677144Y-78168907D01*
X113677144Y-78230093D01*
X113676433Y-78232198D01*
X113647355Y-78315296D01*
X113647353Y-78315305D01*
X113644500Y-78345725D01*
X113644500Y-81654274D01*
X113647353Y-81684694D01*
X113647355Y-81684703D01*
X113692207Y-81812883D01*
X113772845Y-81922144D01*
X113772847Y-81922146D01*
X113772850Y-81922150D01*
X113772853Y-81922152D01*
X113772855Y-81922154D01*
X113882116Y-82002792D01*
X113882117Y-82002792D01*
X113882118Y-82002793D01*
X114010301Y-82047646D01*
X114040725Y-82050499D01*
X114040727Y-82050500D01*
X114040734Y-82050500D01*
X114749273Y-82050500D01*
X114749273Y-82050499D01*
X114779699Y-82047646D01*
X114907882Y-82002793D01*
X115017150Y-81922150D01*
X115097793Y-81812882D01*
X115142646Y-81684699D01*
X115145499Y-81654273D01*
X115145500Y-81654273D01*
X115145500Y-80549500D01*
X115164407Y-80491309D01*
X115213907Y-80455345D01*
X115244500Y-80450500D01*
X115413678Y-80450500D01*
X115471869Y-80469407D01*
X115505482Y-80512445D01*
X115725120Y-81056596D01*
X115729367Y-81117634D01*
X115696926Y-81169511D01*
X115666015Y-81187095D01*
X115637118Y-81197206D01*
X115637114Y-81197208D01*
X115527855Y-81277845D01*
X115527845Y-81277855D01*
X115447207Y-81387116D01*
X115402355Y-81515296D01*
X115402353Y-81515305D01*
X115399500Y-81545725D01*
X115399500Y-82304274D01*
X115402353Y-82334694D01*
X115402355Y-82334703D01*
X115447207Y-82462883D01*
X115527845Y-82572144D01*
X115527847Y-82572146D01*
X115527850Y-82572150D01*
X115527853Y-82572152D01*
X115527855Y-82572154D01*
X115637116Y-82652792D01*
X115637117Y-82652792D01*
X115637118Y-82652793D01*
X115765301Y-82697646D01*
X115795725Y-82700499D01*
X115795727Y-82700500D01*
X115795734Y-82700500D01*
X117204273Y-82700500D01*
X117204273Y-82700499D01*
X117234699Y-82697646D01*
X117362882Y-82652793D01*
X117472150Y-82572150D01*
X117472155Y-82572142D01*
X117477396Y-82566903D01*
X117478755Y-82568262D01*
X117520605Y-82538327D01*
X117581789Y-82538781D01*
X117631021Y-82575110D01*
X117649500Y-82632706D01*
X117649500Y-86102082D01*
X117630593Y-86160273D01*
X117592341Y-86191806D01*
X117581684Y-86196775D01*
X117492349Y-86286110D01*
X117437832Y-86313887D01*
X117377400Y-86304315D01*
X117334136Y-86261051D01*
X117332622Y-86257946D01*
X117324066Y-86239598D01*
X117324065Y-86239597D01*
X117324065Y-86239596D01*
X117240404Y-86155935D01*
X117240402Y-86155934D01*
X117240401Y-86155933D01*
X117133175Y-86105932D01*
X117100601Y-86101644D01*
X117084316Y-86099500D01*
X116735684Y-86099500D01*
X116719398Y-86101644D01*
X116686825Y-86105932D01*
X116686824Y-86105932D01*
X116579598Y-86155933D01*
X116495933Y-86239598D01*
X116489724Y-86252915D01*
X116447995Y-86297663D01*
X116387934Y-86309337D01*
X116332482Y-86283478D01*
X116310276Y-86252915D01*
X116304066Y-86239598D01*
X116304065Y-86239597D01*
X116304065Y-86239596D01*
X116220404Y-86155935D01*
X116220402Y-86155934D01*
X116220401Y-86155933D01*
X116113175Y-86105932D01*
X116080601Y-86101644D01*
X116064316Y-86099500D01*
X115715684Y-86099500D01*
X115699398Y-86101644D01*
X115666825Y-86105932D01*
X115666824Y-86105932D01*
X115559598Y-86155933D01*
X115559595Y-86155935D01*
X115542894Y-86172636D01*
X115488377Y-86200412D01*
X115427945Y-86190840D01*
X115423392Y-86188368D01*
X115363187Y-86153608D01*
X115320754Y-86142238D01*
X115235892Y-86119500D01*
X115104108Y-86119500D01*
X115026200Y-86140375D01*
X114976809Y-86153609D01*
X114862690Y-86219496D01*
X114769496Y-86312690D01*
X114703609Y-86426809D01*
X114687528Y-86486825D01*
X114669500Y-86554108D01*
X114669500Y-86685892D01*
X114693242Y-86774499D01*
X114703609Y-86813190D01*
X114769496Y-86927309D01*
X114769498Y-86927311D01*
X114769500Y-86927314D01*
X114862686Y-87020500D01*
X114862688Y-87020501D01*
X114862690Y-87020503D01*
X114976810Y-87086390D01*
X114976808Y-87086390D01*
X114976812Y-87086391D01*
X114976814Y-87086392D01*
X115104108Y-87120500D01*
X115104110Y-87120500D01*
X115235890Y-87120500D01*
X115235892Y-87120500D01*
X115363186Y-87086392D01*
X115423392Y-87051631D01*
X115483239Y-87038910D01*
X115539135Y-87063796D01*
X115542876Y-87067345D01*
X115559596Y-87084065D01*
X115559597Y-87084065D01*
X115559598Y-87084066D01*
X115666824Y-87134067D01*
X115666825Y-87134067D01*
X115666827Y-87134068D01*
X115715684Y-87140500D01*
X115715685Y-87140500D01*
X116064314Y-87140500D01*
X116064316Y-87140500D01*
X116113173Y-87134068D01*
X116220404Y-87084065D01*
X116304065Y-87000404D01*
X116310275Y-86987085D01*
X116352003Y-86942337D01*
X116412064Y-86930662D01*
X116467517Y-86956519D01*
X116489724Y-86987084D01*
X116495935Y-87000404D01*
X116579596Y-87084065D01*
X116579597Y-87084065D01*
X116579598Y-87084066D01*
X116686824Y-87134067D01*
X116686825Y-87134067D01*
X116686827Y-87134068D01*
X116735684Y-87140500D01*
X116735685Y-87140500D01*
X117084314Y-87140500D01*
X117084316Y-87140500D01*
X117133173Y-87134068D01*
X117240404Y-87084065D01*
X117324065Y-87000404D01*
X117332621Y-86982054D01*
X117374349Y-86937306D01*
X117434410Y-86925631D01*
X117489863Y-86951488D01*
X117492350Y-86953889D01*
X117496775Y-86958314D01*
X117496776Y-86958316D01*
X117581684Y-87043224D01*
X117690513Y-87093972D01*
X117740099Y-87100500D01*
X118159900Y-87100499D01*
X118209487Y-87093972D01*
X118209488Y-87093972D01*
X118304857Y-87049500D01*
X118318316Y-87043224D01*
X118398282Y-86963257D01*
X118452797Y-86935482D01*
X118513229Y-86945053D01*
X118538288Y-86963259D01*
X118850504Y-87275475D01*
X118878281Y-87329992D01*
X118879500Y-87345479D01*
X118879500Y-87414316D01*
X118881612Y-87430360D01*
X118885932Y-87463174D01*
X118885932Y-87463175D01*
X118935933Y-87570401D01*
X118935934Y-87570402D01*
X118935935Y-87570404D01*
X119019596Y-87654065D01*
X119019597Y-87654065D01*
X119019598Y-87654066D01*
X119032915Y-87660276D01*
X119077663Y-87702005D01*
X119089337Y-87762066D01*
X119063478Y-87817518D01*
X119032915Y-87839724D01*
X119019598Y-87845933D01*
X118935933Y-87929598D01*
X118885932Y-88036824D01*
X118885932Y-88036825D01*
X118883553Y-88054896D01*
X118880995Y-88074332D01*
X118879500Y-88085685D01*
X118879500Y-88191000D01*
X118860593Y-88249191D01*
X118811093Y-88285155D01*
X118780500Y-88290000D01*
X100399000Y-88290000D01*
X100340809Y-88271093D01*
X100304845Y-88221593D01*
X100300000Y-88191000D01*
X100300000Y-84540652D01*
X100318907Y-84482461D01*
X100368407Y-84446497D01*
X100429593Y-84446497D01*
X100479093Y-84482461D01*
X100493155Y-84510061D01*
X100502101Y-84537597D01*
X100502103Y-84537602D01*
X100502105Y-84537606D01*
X100536218Y-84604555D01*
X100601491Y-84732661D01*
X100602185Y-84734022D01*
X100731758Y-84912365D01*
X100887635Y-85068242D01*
X101065978Y-85197815D01*
X101262394Y-85297895D01*
X101472049Y-85366015D01*
X101559140Y-85379809D01*
X101689775Y-85400500D01*
X101689778Y-85400500D01*
X101910225Y-85400500D01*
X102019086Y-85383257D01*
X102127951Y-85366015D01*
X102337606Y-85297895D01*
X102472230Y-85229299D01*
X102532660Y-85219728D01*
X102587177Y-85247505D01*
X102587178Y-85247505D01*
X104320504Y-86980830D01*
X104348281Y-87035347D01*
X104349500Y-87050834D01*
X104349500Y-87349173D01*
X104349501Y-87349185D01*
X104355500Y-87394759D01*
X104355500Y-87394761D01*
X104402148Y-87494796D01*
X104402149Y-87494797D01*
X104402150Y-87494799D01*
X104480201Y-87572850D01*
X104580240Y-87619499D01*
X104625821Y-87625500D01*
X105074178Y-87625499D01*
X105119760Y-87619499D01*
X105119761Y-87619499D01*
X105174642Y-87593907D01*
X105219799Y-87572850D01*
X105238154Y-87554494D01*
X105292669Y-87526719D01*
X105308156Y-87525500D01*
X105592953Y-87525500D01*
X105651144Y-87544407D01*
X105662950Y-87554490D01*
X105731684Y-87623224D01*
X105840513Y-87673972D01*
X105890099Y-87680500D01*
X106309900Y-87680499D01*
X106359487Y-87673972D01*
X106359488Y-87673972D01*
X106423620Y-87644066D01*
X106468316Y-87623224D01*
X106537045Y-87554494D01*
X106591560Y-87526719D01*
X106607047Y-87525500D01*
X106760024Y-87525500D01*
X106818215Y-87544407D01*
X106830028Y-87554496D01*
X106835934Y-87560402D01*
X106835935Y-87560404D01*
X106919596Y-87644065D01*
X106919597Y-87644065D01*
X106919598Y-87644066D01*
X107026824Y-87694067D01*
X107026825Y-87694067D01*
X107026827Y-87694068D01*
X107075684Y-87700500D01*
X107075685Y-87700500D01*
X107524314Y-87700500D01*
X107524316Y-87700500D01*
X107573173Y-87694068D01*
X107680404Y-87644065D01*
X107764065Y-87560404D01*
X107764065Y-87560402D01*
X107769972Y-87554496D01*
X107824489Y-87526719D01*
X107839976Y-87525500D01*
X107893121Y-87525500D01*
X107951312Y-87544407D01*
X107987276Y-87593907D01*
X107987276Y-87593908D01*
X107989354Y-87600306D01*
X108030216Y-87680500D01*
X108046950Y-87713342D01*
X108136658Y-87803050D01*
X108249696Y-87860646D01*
X108343481Y-87875500D01*
X108806518Y-87875499D01*
X108806520Y-87875499D01*
X108806521Y-87875498D01*
X108853411Y-87868072D01*
X108900299Y-87860647D01*
X108900299Y-87860646D01*
X108900304Y-87860646D01*
X109013342Y-87803050D01*
X109103050Y-87713342D01*
X109160646Y-87600304D01*
X109175500Y-87506519D01*
X109175499Y-86893482D01*
X109175498Y-86893478D01*
X109175498Y-86893477D01*
X109624500Y-86893477D01*
X109624500Y-87506520D01*
X109624501Y-87506523D01*
X109639352Y-87600299D01*
X109639354Y-87600304D01*
X109696950Y-87713342D01*
X109786658Y-87803050D01*
X109899696Y-87860646D01*
X109993481Y-87875500D01*
X110456518Y-87875499D01*
X110456520Y-87875499D01*
X110456521Y-87875498D01*
X110503411Y-87868072D01*
X110550299Y-87860647D01*
X110550299Y-87860646D01*
X110550304Y-87860646D01*
X110663342Y-87803050D01*
X110753050Y-87713342D01*
X110757528Y-87704554D01*
X110800793Y-87661290D01*
X110845737Y-87650500D01*
X110901679Y-87650500D01*
X110959870Y-87669407D01*
X110971676Y-87679490D01*
X111042686Y-87750500D01*
X111042688Y-87750501D01*
X111042690Y-87750503D01*
X111156810Y-87816390D01*
X111156808Y-87816390D01*
X111156812Y-87816391D01*
X111156814Y-87816392D01*
X111284108Y-87850500D01*
X111284110Y-87850500D01*
X111415890Y-87850500D01*
X111415892Y-87850500D01*
X111543186Y-87816392D01*
X111543188Y-87816390D01*
X111543190Y-87816390D01*
X111657309Y-87750503D01*
X111657309Y-87750502D01*
X111657314Y-87750500D01*
X111750500Y-87657314D01*
X111768868Y-87625500D01*
X111816390Y-87543190D01*
X111816390Y-87543188D01*
X111816392Y-87543186D01*
X111850500Y-87415892D01*
X111850500Y-87284108D01*
X111816392Y-87156814D01*
X111816390Y-87156811D01*
X111816390Y-87156809D01*
X111750503Y-87042690D01*
X111750501Y-87042688D01*
X111750500Y-87042686D01*
X111657314Y-86949500D01*
X111657311Y-86949498D01*
X111657309Y-86949496D01*
X111543189Y-86883609D01*
X111543191Y-86883609D01*
X111490814Y-86869575D01*
X111415892Y-86849500D01*
X111284108Y-86849500D01*
X111209186Y-86869575D01*
X111156809Y-86883609D01*
X111042690Y-86949496D01*
X111042689Y-86949497D01*
X111042686Y-86949499D01*
X111042686Y-86949500D01*
X110994500Y-86997685D01*
X110939986Y-87025461D01*
X110879554Y-87015890D01*
X110836289Y-86972625D01*
X110825499Y-86927680D01*
X110825499Y-86893478D01*
X110825498Y-86893476D01*
X110810647Y-86799700D01*
X110810646Y-86799698D01*
X110810646Y-86799696D01*
X110753050Y-86686658D01*
X110663342Y-86596950D01*
X110550304Y-86539354D01*
X110550305Y-86539354D01*
X110456522Y-86524500D01*
X109993479Y-86524500D01*
X109993476Y-86524501D01*
X109899700Y-86539352D01*
X109899695Y-86539354D01*
X109786659Y-86596949D01*
X109696949Y-86686659D01*
X109639354Y-86799695D01*
X109624500Y-86893477D01*
X109175498Y-86893477D01*
X109175498Y-86893475D01*
X109160647Y-86799700D01*
X109160646Y-86799698D01*
X109160646Y-86799696D01*
X109103050Y-86686658D01*
X109013342Y-86596950D01*
X108900304Y-86539354D01*
X108900305Y-86539354D01*
X108806522Y-86524500D01*
X108343479Y-86524500D01*
X108343476Y-86524501D01*
X108249700Y-86539352D01*
X108249695Y-86539354D01*
X108136659Y-86596949D01*
X108046949Y-86686659D01*
X107989354Y-86799693D01*
X107987276Y-86806092D01*
X107951313Y-86855592D01*
X107893122Y-86874500D01*
X107779977Y-86874500D01*
X107721786Y-86855593D01*
X107709974Y-86845505D01*
X107700153Y-86835684D01*
X107680404Y-86815935D01*
X107680402Y-86815934D01*
X107680401Y-86815933D01*
X107573175Y-86765932D01*
X107540601Y-86761644D01*
X107524316Y-86759500D01*
X107075684Y-86759500D01*
X107059398Y-86761644D01*
X107026825Y-86765932D01*
X107026824Y-86765932D01*
X106919598Y-86815933D01*
X106890026Y-86845505D01*
X106835509Y-86873281D01*
X106820023Y-86874500D01*
X106607047Y-86874500D01*
X106548856Y-86855593D01*
X106537049Y-86845509D01*
X106468316Y-86776776D01*
X106468314Y-86776775D01*
X106468313Y-86776774D01*
X106359489Y-86726029D01*
X106359488Y-86726028D01*
X106342958Y-86723852D01*
X106309901Y-86719500D01*
X106309899Y-86719500D01*
X105890103Y-86719500D01*
X105890092Y-86719501D01*
X105840513Y-86726027D01*
X105840511Y-86726027D01*
X105731686Y-86776774D01*
X105731684Y-86776775D01*
X105731684Y-86776776D01*
X105662954Y-86845505D01*
X105608440Y-86873281D01*
X105592953Y-86874500D01*
X105308156Y-86874500D01*
X105249965Y-86855593D01*
X105238158Y-86845509D01*
X105219799Y-86827150D01*
X105119760Y-86780501D01*
X105107756Y-86778920D01*
X105074177Y-86774499D01*
X105070944Y-86774288D01*
X105071032Y-86772939D01*
X105017643Y-86755593D01*
X105005830Y-86745504D01*
X103047505Y-84787178D01*
X103019728Y-84732661D01*
X103029298Y-84672233D01*
X103097895Y-84537606D01*
X103166015Y-84327951D01*
X103189152Y-84181872D01*
X103200500Y-84110225D01*
X103200500Y-83889774D01*
X103166015Y-83672051D01*
X103166015Y-83672049D01*
X103097895Y-83462394D01*
X102997815Y-83265978D01*
X102868242Y-83087635D01*
X102712365Y-82931758D01*
X102534022Y-82802185D01*
X102534021Y-82802184D01*
X102534019Y-82802183D01*
X102444825Y-82756736D01*
X102337606Y-82702105D01*
X102337602Y-82702104D01*
X102337599Y-82702102D01*
X102127948Y-82633984D01*
X101910225Y-82599500D01*
X101910222Y-82599500D01*
X101689778Y-82599500D01*
X101689775Y-82599500D01*
X101472051Y-82633984D01*
X101262400Y-82702102D01*
X101065980Y-82802183D01*
X100997602Y-82851863D01*
X100887635Y-82931758D01*
X100731758Y-83087635D01*
X100687995Y-83147870D01*
X100602183Y-83265980D01*
X100502102Y-83462400D01*
X100493155Y-83489939D01*
X100457191Y-83539439D01*
X100399000Y-83558347D01*
X100340810Y-83539440D01*
X100304846Y-83489940D01*
X100300000Y-83459347D01*
X100300000Y-81945725D01*
X104774500Y-81945725D01*
X104774500Y-82554274D01*
X104777353Y-82584694D01*
X104777355Y-82584703D01*
X104822207Y-82712883D01*
X104902845Y-82822144D01*
X104902846Y-82822145D01*
X104902850Y-82822150D01*
X104902853Y-82822152D01*
X104902855Y-82822154D01*
X105012116Y-82902792D01*
X105012117Y-82902792D01*
X105012118Y-82902793D01*
X105140301Y-82947646D01*
X105170725Y-82950499D01*
X105170727Y-82950500D01*
X105170734Y-82950500D01*
X106229273Y-82950500D01*
X106229273Y-82950499D01*
X106259699Y-82947646D01*
X106387882Y-82902793D01*
X106497150Y-82822150D01*
X106577793Y-82712882D01*
X106599912Y-82649664D01*
X106636977Y-82600985D01*
X106666629Y-82587039D01*
X107104849Y-82464175D01*
X107131575Y-82460499D01*
X107449897Y-82460499D01*
X107449900Y-82460499D01*
X107499487Y-82453972D01*
X107499488Y-82453972D01*
X107558137Y-82426622D01*
X107608316Y-82403224D01*
X107693224Y-82318316D01*
X107743972Y-82209487D01*
X107750500Y-82159901D01*
X107750499Y-81740100D01*
X107750498Y-81740092D01*
X107743973Y-81690517D01*
X107743972Y-81690515D01*
X107743972Y-81690513D01*
X107723288Y-81646159D01*
X107714032Y-81606211D01*
X107709307Y-81358113D01*
X107727103Y-81299576D01*
X107730891Y-81294502D01*
X107735149Y-81289163D01*
X107755500Y-81200000D01*
X107755500Y-80625000D01*
X107750348Y-80579272D01*
X107710666Y-80496873D01*
X107710665Y-80496872D01*
X107710665Y-80496871D01*
X107689096Y-80479671D01*
X107655389Y-80428608D01*
X107654305Y-80380235D01*
X107655500Y-80375000D01*
X107655500Y-80125000D01*
X107650348Y-80079272D01*
X107635716Y-80048890D01*
X107627504Y-79988261D01*
X107634711Y-79966081D01*
X107645063Y-79920728D01*
X107655500Y-79875000D01*
X107655500Y-79625000D01*
X107650348Y-79579272D01*
X107610666Y-79496873D01*
X107609715Y-79496114D01*
X107539162Y-79439850D01*
X107450000Y-79419500D01*
X106850000Y-79419500D01*
X106849998Y-79419500D01*
X106804272Y-79424651D01*
X106721872Y-79464334D01*
X106671901Y-79526996D01*
X106620837Y-79560702D01*
X106559713Y-79557957D01*
X106511877Y-79519808D01*
X106495500Y-79465270D01*
X106495500Y-79047238D01*
X106508765Y-78997735D01*
X106511392Y-78993186D01*
X106545500Y-78865892D01*
X106545500Y-78734108D01*
X106511392Y-78606814D01*
X106508761Y-78602258D01*
X106495500Y-78552761D01*
X106495500Y-75978697D01*
X106514407Y-75920506D01*
X106535713Y-75899041D01*
X106553547Y-75885879D01*
X106572150Y-75872150D01*
X106572150Y-75872148D01*
X106572152Y-75872148D01*
X106652792Y-75762883D01*
X106652791Y-75762883D01*
X106652793Y-75762882D01*
X106697646Y-75634699D01*
X106700499Y-75604273D01*
X106700500Y-75604273D01*
X106700500Y-74195727D01*
X106700499Y-74195725D01*
X106697646Y-74165301D01*
X106652793Y-74037118D01*
X106650876Y-74034521D01*
X106572154Y-73927855D01*
X106572152Y-73927853D01*
X106572150Y-73927850D01*
X106572146Y-73927847D01*
X106572144Y-73927845D01*
X106462883Y-73847207D01*
X106334703Y-73802355D01*
X106334694Y-73802353D01*
X106304274Y-73799500D01*
X106304266Y-73799500D01*
X105545734Y-73799500D01*
X105545725Y-73799500D01*
X105515305Y-73802353D01*
X105515296Y-73802355D01*
X105387116Y-73847207D01*
X105277855Y-73927845D01*
X105277845Y-73927855D01*
X105197207Y-74037116D01*
X105152355Y-74165296D01*
X105152353Y-74165305D01*
X105149500Y-74195725D01*
X105149500Y-75604274D01*
X105152353Y-75634694D01*
X105152355Y-75634703D01*
X105197207Y-75762883D01*
X105277845Y-75872144D01*
X105277847Y-75872146D01*
X105277850Y-75872150D01*
X105277853Y-75872152D01*
X105277855Y-75872154D01*
X105387116Y-75952792D01*
X105387117Y-75952792D01*
X105387118Y-75952793D01*
X105515301Y-75997646D01*
X105515308Y-75997646D01*
X105516625Y-75997935D01*
X105517368Y-75998369D01*
X105520987Y-75999636D01*
X105520740Y-76000341D01*
X105569441Y-76028824D01*
X105594014Y-76084858D01*
X105594500Y-76094655D01*
X105594500Y-78552761D01*
X105581238Y-78602259D01*
X105578608Y-78606813D01*
X105577450Y-78611134D01*
X105544500Y-78734108D01*
X105544500Y-78865892D01*
X105578608Y-78993186D01*
X105581234Y-78997735D01*
X105594500Y-79047238D01*
X105594500Y-79565789D01*
X105593735Y-79578069D01*
X105586441Y-79636416D01*
X105560462Y-79691812D01*
X105558214Y-79694135D01*
X105547152Y-79705198D01*
X105547151Y-79705199D01*
X105547150Y-79705200D01*
X105547150Y-79705201D01*
X105538670Y-79723387D01*
X105500501Y-79805240D01*
X105500501Y-79805241D01*
X105494500Y-79850822D01*
X105494500Y-80149173D01*
X105494501Y-80149185D01*
X105500500Y-80194759D01*
X105500500Y-80194761D01*
X105547148Y-80294796D01*
X105547149Y-80294797D01*
X105547150Y-80294799D01*
X105625201Y-80372850D01*
X105725240Y-80419499D01*
X105753504Y-80423220D01*
X105808728Y-80449559D01*
X105810152Y-80450938D01*
X106182220Y-80819323D01*
X106182361Y-80819464D01*
X106223420Y-80860522D01*
X106224228Y-80861136D01*
X106224608Y-80861426D01*
X106225150Y-80861841D01*
X106225180Y-80861858D01*
X106225183Y-80861861D01*
X106263993Y-80884011D01*
X106275648Y-80890663D01*
X106276032Y-80890883D01*
X106301079Y-80905345D01*
X106326149Y-80919819D01*
X106327098Y-80920207D01*
X106327526Y-80920383D01*
X106328176Y-80920652D01*
X106357617Y-80928383D01*
X106384465Y-80935434D01*
X106440691Y-80950500D01*
X106440696Y-80950500D01*
X106440726Y-80950508D01*
X106441438Y-80950599D01*
X106441941Y-80950664D01*
X106442889Y-80950788D01*
X106442928Y-80950787D01*
X106442933Y-80950789D01*
X106500736Y-80950500D01*
X106501229Y-80950500D01*
X106620049Y-80950500D01*
X106678240Y-80969407D01*
X106681774Y-80972098D01*
X106689333Y-80978126D01*
X106689334Y-80978127D01*
X106760837Y-81035149D01*
X106760839Y-81035149D01*
X106766256Y-81039469D01*
X106799963Y-81090533D01*
X106803513Y-81114986D01*
X106811489Y-81533731D01*
X106793693Y-81592271D01*
X106744887Y-81629171D01*
X106739233Y-81630940D01*
X106564320Y-81679981D01*
X106503186Y-81677485D01*
X106478810Y-81664315D01*
X106387882Y-81597207D01*
X106387881Y-81597206D01*
X106259703Y-81552355D01*
X106259694Y-81552353D01*
X106229274Y-81549500D01*
X106229266Y-81549500D01*
X105170734Y-81549500D01*
X105170725Y-81549500D01*
X105140305Y-81552353D01*
X105140296Y-81552355D01*
X105012116Y-81597207D01*
X104902855Y-81677845D01*
X104902845Y-81677855D01*
X104822207Y-81787116D01*
X104777355Y-81915296D01*
X104777353Y-81915305D01*
X104774500Y-81945725D01*
X100300000Y-81945725D01*
X100300000Y-81425900D01*
X100318907Y-81367709D01*
X100368407Y-81331745D01*
X100429593Y-81331745D01*
X100454003Y-81343585D01*
X100455446Y-81344549D01*
X100455448Y-81344552D01*
X100521769Y-81388867D01*
X100566231Y-81397711D01*
X100580241Y-81400498D01*
X100580246Y-81400498D01*
X100580252Y-81400500D01*
X100580253Y-81400500D01*
X103019747Y-81400500D01*
X103019748Y-81400500D01*
X103078231Y-81388867D01*
X103144552Y-81344552D01*
X103188867Y-81278231D01*
X103200500Y-81219748D01*
X103200500Y-80549500D01*
X103219407Y-80491309D01*
X103268907Y-80455345D01*
X103299500Y-80450500D01*
X103954308Y-80450500D01*
X103954309Y-80450500D01*
X103996491Y-80439197D01*
X104035025Y-80428872D01*
X104060648Y-80425499D01*
X104119175Y-80425499D01*
X104119178Y-80425499D01*
X104164760Y-80419499D01*
X104164761Y-80419499D01*
X104239185Y-80384794D01*
X104264799Y-80372850D01*
X104342850Y-80294799D01*
X104389499Y-80194760D01*
X104395500Y-80149179D01*
X104395499Y-79850822D01*
X104389499Y-79805240D01*
X104389499Y-79805239D01*
X104389499Y-79805238D01*
X104342851Y-79705203D01*
X104342850Y-79705202D01*
X104342850Y-79705201D01*
X104264799Y-79627150D01*
X104164760Y-79580501D01*
X104119179Y-79574500D01*
X104119178Y-79574500D01*
X104060645Y-79574500D01*
X104035022Y-79571127D01*
X104021504Y-79567505D01*
X103954309Y-79549500D01*
X103954307Y-79549500D01*
X103299500Y-79549500D01*
X103241309Y-79530593D01*
X103205345Y-79481093D01*
X103200500Y-79450500D01*
X103200500Y-79428271D01*
X103219407Y-79370080D01*
X103224327Y-79363851D01*
X104196121Y-78230093D01*
X104320425Y-78085072D01*
X104372650Y-78053195D01*
X104395591Y-78050500D01*
X104754273Y-78050500D01*
X104754273Y-78050499D01*
X104784699Y-78047646D01*
X104912882Y-78002793D01*
X105022150Y-77922150D01*
X105102793Y-77812882D01*
X105147646Y-77684699D01*
X105150499Y-77654273D01*
X105150500Y-77654273D01*
X105150500Y-76945727D01*
X105150499Y-76945725D01*
X105150431Y-76944995D01*
X105147646Y-76915301D01*
X105102793Y-76787118D01*
X105082753Y-76759965D01*
X105022154Y-76677855D01*
X105022152Y-76677853D01*
X105022150Y-76677850D01*
X105022146Y-76677847D01*
X105022144Y-76677845D01*
X104912883Y-76597207D01*
X104784703Y-76552355D01*
X104784694Y-76552353D01*
X104754274Y-76549500D01*
X104754266Y-76549500D01*
X104045734Y-76549500D01*
X104045725Y-76549500D01*
X104015305Y-76552353D01*
X104015296Y-76552355D01*
X103887116Y-76597207D01*
X103777855Y-76677845D01*
X103777845Y-76677855D01*
X103697207Y-76787116D01*
X103652355Y-76915296D01*
X103652353Y-76915305D01*
X103649500Y-76945725D01*
X103649500Y-77446726D01*
X103630593Y-77504917D01*
X103625666Y-77511154D01*
X102722432Y-78564928D01*
X102670207Y-78596805D01*
X102647266Y-78599500D01*
X100580252Y-78599500D01*
X100580251Y-78599500D01*
X100580241Y-78599501D01*
X100521772Y-78611132D01*
X100521766Y-78611134D01*
X100454002Y-78656414D01*
X100395114Y-78673023D01*
X100337710Y-78651846D01*
X100303717Y-78600972D01*
X100300000Y-78574099D01*
X100300000Y-76662349D01*
X100318907Y-76604158D01*
X100368407Y-76568194D01*
X100429593Y-76568194D01*
X100479093Y-76604158D01*
X100487210Y-76617404D01*
X100559848Y-76759965D01*
X100559852Y-76759971D01*
X100613135Y-76833308D01*
X101235386Y-76211056D01*
X101240889Y-76231591D01*
X101319881Y-76368408D01*
X101431592Y-76480119D01*
X101568409Y-76559111D01*
X101588940Y-76564612D01*
X100966690Y-77186862D01*
X100966690Y-77186863D01*
X101040028Y-77240147D01*
X101040034Y-77240151D01*
X101243392Y-77343767D01*
X101460461Y-77414297D01*
X101685880Y-77450000D01*
X101914120Y-77450000D01*
X102139538Y-77414297D01*
X102356607Y-77343767D01*
X102559968Y-77240149D01*
X102633308Y-77186863D01*
X102011057Y-76564612D01*
X102031591Y-76559111D01*
X102168408Y-76480119D01*
X102280119Y-76368408D01*
X102359111Y-76231591D01*
X102364612Y-76211057D01*
X102986863Y-76833308D01*
X103040149Y-76759968D01*
X103143767Y-76556607D01*
X103214297Y-76339538D01*
X103250000Y-76114120D01*
X103250000Y-75885879D01*
X103214297Y-75660461D01*
X103143767Y-75443392D01*
X103040151Y-75240034D01*
X103040147Y-75240028D01*
X102986863Y-75166690D01*
X102986862Y-75166690D01*
X102364612Y-75788940D01*
X102359111Y-75768409D01*
X102280119Y-75631592D01*
X102168408Y-75519881D01*
X102031591Y-75440889D01*
X102011056Y-75435386D01*
X102633308Y-74813135D01*
X102559971Y-74759852D01*
X102559965Y-74759848D01*
X102356607Y-74656232D01*
X102139538Y-74585702D01*
X101914120Y-74550000D01*
X101685880Y-74550000D01*
X101460461Y-74585702D01*
X101243392Y-74656232D01*
X101040034Y-74759848D01*
X101040030Y-74759850D01*
X100966690Y-74813135D01*
X101588942Y-75435387D01*
X101568409Y-75440889D01*
X101431592Y-75519881D01*
X101319881Y-75631592D01*
X101240889Y-75768409D01*
X101235387Y-75788942D01*
X100613135Y-75166690D01*
X100559850Y-75240030D01*
X100559848Y-75240034D01*
X100487210Y-75382595D01*
X100443945Y-75425860D01*
X100383513Y-75435431D01*
X100328996Y-75407653D01*
X100301219Y-75353137D01*
X100300000Y-75337650D01*
X100300000Y-71809000D01*
X100318907Y-71750809D01*
X100368407Y-71714845D01*
X100399000Y-71710000D01*
X102289352Y-71710000D01*
X102347543Y-71728907D01*
G37*
%TD.AperFunction*%
%TA.AperFunction,Conductor*%
G36*
X116713691Y-71728907D02*
G01*
X116749655Y-71778407D01*
X116754500Y-71809000D01*
X116754500Y-73319746D01*
X116754501Y-73319758D01*
X116766132Y-73378227D01*
X116766134Y-73378233D01*
X116809253Y-73442764D01*
X116810448Y-73444552D01*
X116876769Y-73488867D01*
X116921231Y-73497711D01*
X116935241Y-73500498D01*
X116935246Y-73500498D01*
X116935252Y-73500500D01*
X117100500Y-73500500D01*
X117158691Y-73519407D01*
X117194655Y-73568907D01*
X117199500Y-73599500D01*
X117199500Y-74888934D01*
X117190225Y-74930773D01*
X117155501Y-75005239D01*
X117149500Y-75050822D01*
X117149500Y-75349173D01*
X117149501Y-75349185D01*
X117155500Y-75394759D01*
X117155500Y-75394761D01*
X117202148Y-75494796D01*
X117202149Y-75494797D01*
X117202150Y-75494799D01*
X117280201Y-75572850D01*
X117380240Y-75619499D01*
X117425821Y-75625500D01*
X117484355Y-75625499D01*
X117509980Y-75628873D01*
X117544034Y-75637997D01*
X117590688Y-75650499D01*
X117590690Y-75650500D01*
X117590691Y-75650500D01*
X117709308Y-75650500D01*
X117709309Y-75650500D01*
X117768297Y-75634694D01*
X117790025Y-75628872D01*
X117815648Y-75625499D01*
X117874175Y-75625499D01*
X117874178Y-75625499D01*
X117919760Y-75619499D01*
X117919761Y-75619499D01*
X117995656Y-75584108D01*
X118019799Y-75572850D01*
X118097850Y-75494799D01*
X118144499Y-75394760D01*
X118150500Y-75349179D01*
X118150499Y-75050822D01*
X118144499Y-75005240D01*
X118109775Y-74930773D01*
X118100500Y-74888934D01*
X118100500Y-73599500D01*
X118119407Y-73541309D01*
X118168907Y-73505345D01*
X118199500Y-73500500D01*
X118574747Y-73500500D01*
X118574748Y-73500500D01*
X118633231Y-73488867D01*
X118699552Y-73444552D01*
X118743867Y-73378231D01*
X118755500Y-73319748D01*
X118755500Y-72799500D01*
X118774407Y-72741309D01*
X118823907Y-72705345D01*
X118854500Y-72700500D01*
X119475605Y-72700500D01*
X119533796Y-72719407D01*
X119565329Y-72757660D01*
X119575933Y-72780401D01*
X119575934Y-72780402D01*
X119575935Y-72780404D01*
X119659596Y-72864065D01*
X119659597Y-72864065D01*
X119659598Y-72864066D01*
X119766824Y-72914067D01*
X119766825Y-72914067D01*
X119766827Y-72914068D01*
X119815684Y-72920500D01*
X119815685Y-72920500D01*
X120164314Y-72920500D01*
X120164316Y-72920500D01*
X120213173Y-72914068D01*
X120320404Y-72864065D01*
X120404065Y-72780404D01*
X120410275Y-72767085D01*
X120452003Y-72722337D01*
X120512064Y-72710662D01*
X120567517Y-72736519D01*
X120589724Y-72767084D01*
X120595935Y-72780404D01*
X120679596Y-72864065D01*
X120679597Y-72864065D01*
X120679598Y-72864066D01*
X120786824Y-72914067D01*
X120786825Y-72914067D01*
X120786827Y-72914068D01*
X120835684Y-72920500D01*
X121104521Y-72920500D01*
X121162712Y-72939407D01*
X121174525Y-72949496D01*
X121420504Y-73195475D01*
X121448281Y-73249992D01*
X121449500Y-73265479D01*
X121449500Y-73436567D01*
X121432815Y-73491569D01*
X121415486Y-73517501D01*
X121415486Y-73517503D01*
X121415485Y-73517505D01*
X121411820Y-73535932D01*
X121399500Y-73597866D01*
X121399500Y-75052129D01*
X121399501Y-75052136D01*
X121415484Y-75132494D01*
X121415485Y-75132496D01*
X121476373Y-75223620D01*
X121476376Y-75223624D01*
X121567505Y-75284515D01*
X121647867Y-75300500D01*
X121852132Y-75300499D01*
X121932495Y-75284515D01*
X121944996Y-75276161D01*
X122003883Y-75259551D01*
X122055000Y-75276159D01*
X122067505Y-75284515D01*
X122147867Y-75300500D01*
X122352132Y-75300499D01*
X122432495Y-75284515D01*
X122444996Y-75276161D01*
X122503883Y-75259551D01*
X122555000Y-75276159D01*
X122567505Y-75284515D01*
X122647867Y-75300500D01*
X122852132Y-75300499D01*
X122932495Y-75284515D01*
X122944996Y-75276161D01*
X123003883Y-75259551D01*
X123055000Y-75276159D01*
X123067505Y-75284515D01*
X123147867Y-75300500D01*
X123352132Y-75300499D01*
X123432495Y-75284515D01*
X123444996Y-75276161D01*
X123503883Y-75259551D01*
X123555000Y-75276159D01*
X123567505Y-75284515D01*
X123647867Y-75300500D01*
X123852132Y-75300499D01*
X123932495Y-75284515D01*
X123944996Y-75276161D01*
X124003883Y-75259551D01*
X124055000Y-75276159D01*
X124067505Y-75284515D01*
X124147867Y-75300500D01*
X124352132Y-75300499D01*
X124432495Y-75284515D01*
X124444996Y-75276161D01*
X124503883Y-75259551D01*
X124555000Y-75276159D01*
X124567505Y-75284515D01*
X124647867Y-75300500D01*
X124852132Y-75300499D01*
X124932495Y-75284515D01*
X124944996Y-75276161D01*
X125003883Y-75259551D01*
X125055000Y-75276159D01*
X125067505Y-75284515D01*
X125147867Y-75300500D01*
X125352132Y-75300499D01*
X125432495Y-75284515D01*
X125523624Y-75223624D01*
X125584515Y-75132495D01*
X125600500Y-75052133D01*
X125600499Y-73597868D01*
X125584515Y-73517505D01*
X125584512Y-73517501D01*
X125523626Y-73426379D01*
X125523624Y-73426376D01*
X125505704Y-73414402D01*
X125432497Y-73365486D01*
X125432496Y-73365485D01*
X125432495Y-73365485D01*
X125352133Y-73349500D01*
X125352132Y-73349500D01*
X125147870Y-73349500D01*
X125147862Y-73349501D01*
X125067505Y-73365484D01*
X125067501Y-73365486D01*
X125054999Y-73373840D01*
X124996111Y-73390447D01*
X124945001Y-73373840D01*
X124932496Y-73365485D01*
X124932495Y-73365484D01*
X124852135Y-73349500D01*
X124852133Y-73349500D01*
X124782039Y-73349500D01*
X124723848Y-73330593D01*
X124687884Y-73281093D01*
X124685660Y-73227872D01*
X124752224Y-72944357D01*
X124783931Y-72892030D01*
X124806761Y-72877264D01*
X124858316Y-72853224D01*
X124943224Y-72768316D01*
X124993972Y-72659487D01*
X125000500Y-72609901D01*
X125000499Y-72190100D01*
X124993972Y-72140513D01*
X124993972Y-72140511D01*
X124939564Y-72023834D01*
X124940759Y-72023276D01*
X124925522Y-71973439D01*
X124938771Y-71925667D01*
X124986392Y-71843186D01*
X125002418Y-71783375D01*
X125035741Y-71732063D01*
X125092862Y-71710136D01*
X125098044Y-71710000D01*
X126408659Y-71710000D01*
X126466850Y-71728907D01*
X126502814Y-71778407D01*
X126502814Y-71839593D01*
X126496868Y-71853946D01*
X126490282Y-71866870D01*
X126490281Y-71866874D01*
X126475269Y-71961659D01*
X126474500Y-71966512D01*
X126474500Y-72533488D01*
X126486603Y-72609907D01*
X126490281Y-72633125D01*
X126490283Y-72633132D01*
X126542962Y-72736519D01*
X126551472Y-72753220D01*
X126646780Y-72848528D01*
X126646782Y-72848529D01*
X126766870Y-72909718D01*
X126774287Y-72912128D01*
X126773394Y-72914873D01*
X126816169Y-72936653D01*
X126843961Y-72991162D01*
X126844729Y-72997200D01*
X126868174Y-73241024D01*
X126854924Y-73300758D01*
X126809093Y-73341294D01*
X126769630Y-73349500D01*
X126647870Y-73349500D01*
X126647862Y-73349501D01*
X126567505Y-73365484D01*
X126567501Y-73365486D01*
X126554999Y-73373840D01*
X126496111Y-73390447D01*
X126445001Y-73373840D01*
X126432496Y-73365485D01*
X126432495Y-73365484D01*
X126352134Y-73349500D01*
X126147870Y-73349500D01*
X126147862Y-73349501D01*
X126067505Y-73365484D01*
X126067503Y-73365485D01*
X125976379Y-73426373D01*
X125976373Y-73426379D01*
X125915486Y-73517501D01*
X125915486Y-73517503D01*
X125915485Y-73517505D01*
X125911820Y-73535932D01*
X125899500Y-73597866D01*
X125899500Y-75052129D01*
X125899501Y-75052136D01*
X125915484Y-75132494D01*
X125915485Y-75132496D01*
X125976373Y-75223620D01*
X125976376Y-75223624D01*
X126067505Y-75284515D01*
X126147867Y-75300500D01*
X126352132Y-75300499D01*
X126432495Y-75284515D01*
X126444996Y-75276161D01*
X126503883Y-75259551D01*
X126555000Y-75276159D01*
X126567505Y-75284515D01*
X126647867Y-75300500D01*
X126852132Y-75300499D01*
X126932495Y-75284515D01*
X126944996Y-75276161D01*
X127003883Y-75259551D01*
X127055000Y-75276159D01*
X127067505Y-75284515D01*
X127147867Y-75300500D01*
X127202382Y-75300499D01*
X127260571Y-75319405D01*
X127296536Y-75368905D01*
X127296537Y-75430090D01*
X127288122Y-75448994D01*
X127283609Y-75456811D01*
X127283608Y-75456813D01*
X127283608Y-75456814D01*
X127249500Y-75584108D01*
X127249500Y-75715892D01*
X127272171Y-75800503D01*
X127283609Y-75843190D01*
X127349496Y-75957309D01*
X127349498Y-75957311D01*
X127349500Y-75957314D01*
X127442686Y-76050500D01*
X127442688Y-76050501D01*
X127442690Y-76050503D01*
X127556810Y-76116390D01*
X127556808Y-76116390D01*
X127556812Y-76116391D01*
X127556814Y-76116392D01*
X127684108Y-76150500D01*
X127684110Y-76150500D01*
X127815890Y-76150500D01*
X127815892Y-76150500D01*
X127943186Y-76116392D01*
X127943188Y-76116390D01*
X127943190Y-76116390D01*
X128057309Y-76050503D01*
X128057309Y-76050502D01*
X128057314Y-76050500D01*
X128150500Y-75957314D01*
X128153111Y-75952792D01*
X128216390Y-75843190D01*
X128216390Y-75843188D01*
X128216392Y-75843186D01*
X128250500Y-75715892D01*
X128250500Y-75584108D01*
X128216392Y-75456814D01*
X128216390Y-75456810D01*
X128211880Y-75448998D01*
X128199159Y-75389150D01*
X128224046Y-75333255D01*
X128277034Y-75302662D01*
X128297614Y-75300499D01*
X128352132Y-75300499D01*
X128432495Y-75284515D01*
X128444996Y-75276161D01*
X128503883Y-75259551D01*
X128555000Y-75276159D01*
X128567505Y-75284515D01*
X128647867Y-75300500D01*
X128852132Y-75300499D01*
X128932495Y-75284515D01*
X128944996Y-75276161D01*
X129003883Y-75259551D01*
X129055000Y-75276159D01*
X129067505Y-75284515D01*
X129147867Y-75300500D01*
X129352132Y-75300499D01*
X129432495Y-75284515D01*
X129523624Y-75223624D01*
X129584515Y-75132495D01*
X129600500Y-75052133D01*
X129600499Y-73597868D01*
X129584515Y-73517505D01*
X129584512Y-73517501D01*
X129523626Y-73426379D01*
X129523624Y-73426376D01*
X129505704Y-73414402D01*
X129432497Y-73365486D01*
X129432496Y-73365485D01*
X129432495Y-73365485D01*
X129352133Y-73349500D01*
X129352132Y-73349500D01*
X129147870Y-73349500D01*
X129147862Y-73349501D01*
X129067505Y-73365484D01*
X129067501Y-73365486D01*
X129054999Y-73373840D01*
X128996111Y-73390447D01*
X128945001Y-73373840D01*
X128932496Y-73365485D01*
X128932495Y-73365484D01*
X128852134Y-73349500D01*
X128647870Y-73349500D01*
X128647862Y-73349501D01*
X128567505Y-73365484D01*
X128567501Y-73365486D01*
X128554999Y-73373840D01*
X128496111Y-73390447D01*
X128445001Y-73373840D01*
X128432496Y-73365485D01*
X128432495Y-73365484D01*
X128352134Y-73349500D01*
X128147870Y-73349500D01*
X128147862Y-73349501D01*
X128067505Y-73365484D01*
X128067501Y-73365486D01*
X128054999Y-73373840D01*
X127996111Y-73390447D01*
X127945001Y-73373840D01*
X127932496Y-73365485D01*
X127932495Y-73365484D01*
X127852135Y-73349500D01*
X127672773Y-73349500D01*
X127614582Y-73330593D01*
X127578618Y-73281093D01*
X127574229Y-73259980D01*
X127544318Y-72948912D01*
X127557568Y-72889181D01*
X127597922Y-72851228D01*
X127603216Y-72848530D01*
X127603215Y-72848530D01*
X127603220Y-72848528D01*
X127698528Y-72753220D01*
X127759719Y-72633126D01*
X127775500Y-72533488D01*
X127775500Y-71966512D01*
X127774731Y-71961659D01*
X127770289Y-71933609D01*
X127759719Y-71866874D01*
X127753132Y-71853946D01*
X127743560Y-71793514D01*
X127771337Y-71738997D01*
X127825853Y-71711219D01*
X127841341Y-71710000D01*
X132509601Y-71710000D01*
X132567792Y-71728907D01*
X132603756Y-71778407D01*
X132603756Y-71839593D01*
X132579606Y-71879001D01*
X132536706Y-71921902D01*
X132496949Y-71961659D01*
X132479734Y-71995446D01*
X132436469Y-72038710D01*
X132391525Y-72049500D01*
X131703856Y-72049500D01*
X131614712Y-72073386D01*
X131614711Y-72073386D01*
X131614709Y-72073387D01*
X131534790Y-72119529D01*
X131469529Y-72184790D01*
X131423385Y-72264711D01*
X131423385Y-72264713D01*
X131416733Y-72289538D01*
X131391111Y-72333916D01*
X131315489Y-72409539D01*
X131259539Y-72465489D01*
X131219980Y-72534007D01*
X131219978Y-72534011D01*
X131199500Y-72610435D01*
X131199500Y-74034521D01*
X131180593Y-74092712D01*
X131170504Y-74104525D01*
X129865489Y-75409540D01*
X129865488Y-75409539D01*
X129809539Y-75465489D01*
X129769980Y-75534007D01*
X129769978Y-75534011D01*
X129749500Y-75610435D01*
X129749500Y-84200500D01*
X129730593Y-84258691D01*
X129681093Y-84294655D01*
X129650500Y-84299500D01*
X127710435Y-84299500D01*
X127634011Y-84319978D01*
X127634007Y-84319980D01*
X127565491Y-84359538D01*
X127509538Y-84415491D01*
X127469980Y-84484007D01*
X127469978Y-84484011D01*
X127449500Y-84560435D01*
X127449500Y-84600500D01*
X127430593Y-84658691D01*
X127381093Y-84694655D01*
X127350500Y-84699500D01*
X127147870Y-84699500D01*
X127147862Y-84699501D01*
X127067505Y-84715484D01*
X127067501Y-84715486D01*
X127054999Y-84723840D01*
X126996111Y-84740447D01*
X126945001Y-84723840D01*
X126932496Y-84715485D01*
X126932495Y-84715484D01*
X126852134Y-84699500D01*
X126647870Y-84699500D01*
X126647862Y-84699501D01*
X126567505Y-84715484D01*
X126567501Y-84715486D01*
X126554999Y-84723840D01*
X126496111Y-84740447D01*
X126445001Y-84723840D01*
X126432496Y-84715485D01*
X126432495Y-84715484D01*
X126352134Y-84699500D01*
X126147870Y-84699500D01*
X126147862Y-84699501D01*
X126067505Y-84715484D01*
X126067501Y-84715486D01*
X126054999Y-84723840D01*
X125996111Y-84740447D01*
X125945001Y-84723840D01*
X125932496Y-84715485D01*
X125932495Y-84715484D01*
X125852134Y-84699500D01*
X125647870Y-84699500D01*
X125647862Y-84699501D01*
X125567505Y-84715484D01*
X125567503Y-84715485D01*
X125476379Y-84776373D01*
X125476373Y-84776379D01*
X125415486Y-84867501D01*
X125415486Y-84867503D01*
X125415485Y-84867505D01*
X125408922Y-84900500D01*
X125399500Y-84947866D01*
X125399500Y-86402129D01*
X125399501Y-86402136D01*
X125415484Y-86482494D01*
X125415485Y-86482496D01*
X125463336Y-86554109D01*
X125476376Y-86573624D01*
X125567505Y-86634515D01*
X125647867Y-86650500D01*
X125852132Y-86650499D01*
X125932495Y-86634515D01*
X125944996Y-86626161D01*
X126003883Y-86609551D01*
X126055000Y-86626159D01*
X126067505Y-86634515D01*
X126147867Y-86650500D01*
X126260118Y-86650499D01*
X126318308Y-86669406D01*
X126354272Y-86718906D01*
X126354273Y-86780091D01*
X126345855Y-86798999D01*
X126283608Y-86906812D01*
X126269808Y-86958316D01*
X126249500Y-87034108D01*
X126249500Y-87165892D01*
X126278181Y-87272933D01*
X126283609Y-87293190D01*
X126349496Y-87407309D01*
X126349498Y-87407311D01*
X126349500Y-87407314D01*
X126442686Y-87500500D01*
X126442688Y-87500501D01*
X126442690Y-87500503D01*
X126556810Y-87566390D01*
X126556808Y-87566390D01*
X126556812Y-87566391D01*
X126556814Y-87566392D01*
X126684108Y-87600500D01*
X126684110Y-87600500D01*
X126815890Y-87600500D01*
X126815892Y-87600500D01*
X126943186Y-87566392D01*
X126943188Y-87566390D01*
X126943190Y-87566390D01*
X127057309Y-87500503D01*
X127057309Y-87500502D01*
X127057314Y-87500500D01*
X127150500Y-87407314D01*
X127151543Y-87405507D01*
X127216390Y-87293190D01*
X127216390Y-87293188D01*
X127216392Y-87293186D01*
X127250500Y-87165892D01*
X127250500Y-87034108D01*
X127216392Y-86906814D01*
X127216390Y-86906811D01*
X127216390Y-86906809D01*
X127154145Y-86798999D01*
X127141423Y-86739151D01*
X127166309Y-86683255D01*
X127219297Y-86652663D01*
X127239875Y-86650499D01*
X127352132Y-86650499D01*
X127432495Y-86634515D01*
X127444996Y-86626161D01*
X127503883Y-86609551D01*
X127555000Y-86626159D01*
X127567505Y-86634515D01*
X127647867Y-86650500D01*
X127852132Y-86650499D01*
X127932495Y-86634515D01*
X127944996Y-86626161D01*
X128003883Y-86609551D01*
X128055000Y-86626159D01*
X128067505Y-86634515D01*
X128147867Y-86650500D01*
X128350500Y-86650499D01*
X128408690Y-86669406D01*
X128444654Y-86718906D01*
X128449500Y-86749499D01*
X128449500Y-87339564D01*
X128469978Y-87415988D01*
X128474642Y-87424066D01*
X128503511Y-87474068D01*
X128509540Y-87484511D01*
X128509543Y-87484514D01*
X128909539Y-87884511D01*
X128965489Y-87940460D01*
X129034007Y-87980019D01*
X129034011Y-87980021D01*
X129110435Y-88000499D01*
X129110437Y-88000500D01*
X129110438Y-88000500D01*
X129189562Y-88000500D01*
X134444931Y-88000500D01*
X134503122Y-88019407D01*
X134534654Y-88057658D01*
X134535933Y-88060401D01*
X134535934Y-88060402D01*
X134535935Y-88060404D01*
X134596529Y-88120998D01*
X134624305Y-88175513D01*
X134614734Y-88235945D01*
X134571469Y-88279210D01*
X134526524Y-88290000D01*
X125098044Y-88290000D01*
X125039853Y-88271093D01*
X125003889Y-88221593D01*
X125002423Y-88216644D01*
X124986392Y-88156814D01*
X124938770Y-88074331D01*
X124926049Y-88014484D01*
X124940256Y-87976488D01*
X124939564Y-87976166D01*
X124959175Y-87934109D01*
X124993972Y-87859487D01*
X125000500Y-87809901D01*
X125000499Y-87390100D01*
X124993972Y-87340513D01*
X124962457Y-87272930D01*
X124955001Y-87212204D01*
X124955045Y-87211978D01*
X125102743Y-86473491D01*
X125099553Y-86424039D01*
X125100682Y-86407037D01*
X125100023Y-86406973D01*
X125100499Y-86402136D01*
X125100500Y-86402133D01*
X125100499Y-84947868D01*
X125084515Y-84867505D01*
X125084512Y-84867501D01*
X125023626Y-84776379D01*
X125023624Y-84776376D01*
X125022276Y-84775475D01*
X124932497Y-84715486D01*
X124932496Y-84715485D01*
X124932495Y-84715485D01*
X124852133Y-84699500D01*
X124852132Y-84699500D01*
X124647870Y-84699500D01*
X124647862Y-84699501D01*
X124567505Y-84715484D01*
X124567501Y-84715486D01*
X124554999Y-84723840D01*
X124496111Y-84740447D01*
X124445001Y-84723840D01*
X124432496Y-84715485D01*
X124432495Y-84715484D01*
X124352134Y-84699500D01*
X124147870Y-84699500D01*
X124147862Y-84699501D01*
X124067505Y-84715484D01*
X124067501Y-84715486D01*
X124054999Y-84723840D01*
X123996111Y-84740447D01*
X123945001Y-84723840D01*
X123932496Y-84715485D01*
X123932495Y-84715484D01*
X123852134Y-84699500D01*
X123647870Y-84699500D01*
X123647862Y-84699501D01*
X123567505Y-84715484D01*
X123567501Y-84715486D01*
X123554999Y-84723840D01*
X123496111Y-84740447D01*
X123445001Y-84723840D01*
X123432496Y-84715485D01*
X123432495Y-84715484D01*
X123352134Y-84699500D01*
X123147870Y-84699500D01*
X123147862Y-84699501D01*
X123067505Y-84715484D01*
X123067501Y-84715486D01*
X123054999Y-84723840D01*
X122996111Y-84740447D01*
X122945001Y-84723840D01*
X122932496Y-84715485D01*
X122932495Y-84715484D01*
X122852134Y-84699500D01*
X122647870Y-84699500D01*
X122647862Y-84699501D01*
X122567505Y-84715484D01*
X122567501Y-84715486D01*
X122554999Y-84723840D01*
X122496111Y-84740447D01*
X122445001Y-84723840D01*
X122432496Y-84715485D01*
X122432495Y-84715484D01*
X122352134Y-84699500D01*
X122147870Y-84699500D01*
X122147862Y-84699501D01*
X122067505Y-84715484D01*
X122067501Y-84715486D01*
X122054999Y-84723840D01*
X121996111Y-84740447D01*
X121945001Y-84723840D01*
X121932496Y-84715485D01*
X121932495Y-84715484D01*
X121852134Y-84699500D01*
X121647870Y-84699500D01*
X121647862Y-84699501D01*
X121567505Y-84715484D01*
X121567503Y-84715485D01*
X121476379Y-84776373D01*
X121476373Y-84776379D01*
X121415486Y-84867501D01*
X121415486Y-84867503D01*
X121415485Y-84867505D01*
X121408922Y-84900500D01*
X121399500Y-84947866D01*
X121399500Y-86402129D01*
X121399501Y-86402136D01*
X121415484Y-86482494D01*
X121415485Y-86482496D01*
X121463336Y-86554109D01*
X121476376Y-86573624D01*
X121567505Y-86634515D01*
X121647867Y-86650500D01*
X121852132Y-86650499D01*
X121932495Y-86634515D01*
X121944996Y-86626161D01*
X122003883Y-86609551D01*
X122055000Y-86626159D01*
X122067505Y-86634515D01*
X122147867Y-86650500D01*
X122352132Y-86650499D01*
X122432495Y-86634515D01*
X122444996Y-86626161D01*
X122503883Y-86609551D01*
X122555000Y-86626159D01*
X122567505Y-86634515D01*
X122647867Y-86650500D01*
X122852132Y-86650499D01*
X122932495Y-86634515D01*
X122944996Y-86626161D01*
X123003883Y-86609551D01*
X123055000Y-86626159D01*
X123067505Y-86634515D01*
X123147867Y-86650500D01*
X123352132Y-86650499D01*
X123432495Y-86634515D01*
X123444996Y-86626161D01*
X123503883Y-86609551D01*
X123555000Y-86626159D01*
X123567505Y-86634515D01*
X123647867Y-86650500D01*
X123852132Y-86650499D01*
X123932495Y-86634515D01*
X123944996Y-86626161D01*
X124003883Y-86609551D01*
X124055000Y-86626159D01*
X124067505Y-86634515D01*
X124147867Y-86650500D01*
X124231698Y-86650499D01*
X124289888Y-86669406D01*
X124325852Y-86718905D01*
X124328775Y-86768915D01*
X124270385Y-87060862D01*
X124240433Y-87114214D01*
X124215149Y-87131170D01*
X124181686Y-87146774D01*
X124096774Y-87231686D01*
X124046029Y-87340510D01*
X124046028Y-87340511D01*
X124044888Y-87349173D01*
X124040752Y-87380593D01*
X124039500Y-87390100D01*
X124039500Y-87809896D01*
X124039501Y-87809907D01*
X124046027Y-87859486D01*
X124046027Y-87859488D01*
X124100436Y-87976166D01*
X124099241Y-87976723D01*
X124114477Y-88026563D01*
X124101229Y-88074332D01*
X124053608Y-88156812D01*
X124046295Y-88184108D01*
X124037581Y-88216624D01*
X124004259Y-88267937D01*
X123947138Y-88289864D01*
X123941956Y-88290000D01*
X120799500Y-88290000D01*
X120741309Y-88271093D01*
X120705345Y-88221593D01*
X120701997Y-88200456D01*
X120701347Y-88200542D01*
X120700500Y-88194110D01*
X120700500Y-88194108D01*
X120666392Y-88066814D01*
X120666390Y-88066811D01*
X120666390Y-88066809D01*
X120600503Y-87952690D01*
X120600501Y-87952688D01*
X120600500Y-87952686D01*
X120507314Y-87859500D01*
X120507311Y-87859498D01*
X120507309Y-87859496D01*
X120393189Y-87793609D01*
X120393191Y-87793609D01*
X120343799Y-87780375D01*
X120265892Y-87759500D01*
X120134108Y-87759500D01*
X120070461Y-87776554D01*
X120006812Y-87793608D01*
X119895890Y-87857650D01*
X119836042Y-87870371D01*
X119788644Y-87849267D01*
X119787499Y-87850903D01*
X119780404Y-87845935D01*
X119780400Y-87845933D01*
X119767085Y-87839724D01*
X119722337Y-87797997D01*
X119710662Y-87737936D01*
X119736519Y-87682483D01*
X119767084Y-87660275D01*
X119780404Y-87654065D01*
X119864065Y-87570404D01*
X119914068Y-87463173D01*
X119920500Y-87414316D01*
X119920500Y-87065684D01*
X119914068Y-87016827D01*
X119913027Y-87014595D01*
X119864066Y-86909598D01*
X119864065Y-86909597D01*
X119864065Y-86909596D01*
X119780404Y-86825935D01*
X119780402Y-86825934D01*
X119780401Y-86825933D01*
X119673175Y-86775932D01*
X119640601Y-86771644D01*
X119624316Y-86769500D01*
X119624315Y-86769500D01*
X119235479Y-86769500D01*
X119177288Y-86750593D01*
X119165475Y-86740504D01*
X118929496Y-86504525D01*
X118901719Y-86450008D01*
X118900500Y-86434521D01*
X118900500Y-84181872D01*
X118919407Y-84123681D01*
X118968907Y-84087717D01*
X119018812Y-84084775D01*
X119057932Y-84092556D01*
X119097858Y-84100499D01*
X119097862Y-84100499D01*
X119097867Y-84100500D01*
X120552132Y-84100499D01*
X120632495Y-84084515D01*
X120723624Y-84023624D01*
X120784515Y-83932495D01*
X120800500Y-83852133D01*
X120800499Y-83647868D01*
X120784515Y-83567505D01*
X120776159Y-83555000D01*
X120759551Y-83496114D01*
X120776159Y-83444999D01*
X120784515Y-83432495D01*
X120800500Y-83352133D01*
X120800499Y-83147868D01*
X120784515Y-83067505D01*
X120776159Y-83055000D01*
X120759551Y-82996114D01*
X120776159Y-82944999D01*
X120784515Y-82932495D01*
X120800500Y-82852133D01*
X120800499Y-82739880D01*
X120819406Y-82681691D01*
X120868906Y-82645727D01*
X120930091Y-82645726D01*
X120948999Y-82654145D01*
X121056810Y-82716390D01*
X121056808Y-82716390D01*
X121056812Y-82716391D01*
X121056814Y-82716392D01*
X121184108Y-82750500D01*
X121184110Y-82750500D01*
X121315890Y-82750500D01*
X121315892Y-82750500D01*
X121443186Y-82716392D01*
X121443188Y-82716390D01*
X121443190Y-82716390D01*
X121557309Y-82650503D01*
X121557309Y-82650502D01*
X121557314Y-82650500D01*
X121650500Y-82557314D01*
X121674872Y-82515101D01*
X121716390Y-82443190D01*
X121716390Y-82443188D01*
X121716392Y-82443186D01*
X121750500Y-82315892D01*
X121750500Y-82184108D01*
X121716392Y-82056814D01*
X121716390Y-82056811D01*
X121716390Y-82056809D01*
X121650503Y-81942690D01*
X121650501Y-81942688D01*
X121650500Y-81942686D01*
X121557314Y-81849500D01*
X121557311Y-81849498D01*
X121557309Y-81849496D01*
X121443189Y-81783609D01*
X121443191Y-81783609D01*
X121393799Y-81770375D01*
X121315892Y-81749500D01*
X121184108Y-81749500D01*
X121144481Y-81760118D01*
X121056812Y-81783608D01*
X120948999Y-81845855D01*
X120889151Y-81858576D01*
X120833255Y-81833689D01*
X120802662Y-81780701D01*
X120800499Y-81760123D01*
X120800499Y-81647868D01*
X120796381Y-81627166D01*
X120789021Y-81590158D01*
X120784515Y-81567505D01*
X120776159Y-81555000D01*
X120759551Y-81496114D01*
X120776159Y-81444999D01*
X120784515Y-81432495D01*
X120784515Y-81432492D01*
X120789933Y-81424385D01*
X120791570Y-81425479D01*
X120823249Y-81388387D01*
X120882743Y-81374103D01*
X120937395Y-81396739D01*
X120937540Y-81396551D01*
X120938243Y-81397091D01*
X120939272Y-81397517D01*
X120941585Y-81399655D01*
X120942690Y-81400503D01*
X121056810Y-81466390D01*
X121056808Y-81466390D01*
X121056812Y-81466391D01*
X121056814Y-81466392D01*
X121184108Y-81500500D01*
X121184110Y-81500500D01*
X121315890Y-81500500D01*
X121315892Y-81500500D01*
X121443186Y-81466392D01*
X121443188Y-81466390D01*
X121443190Y-81466390D01*
X121557309Y-81400503D01*
X121557309Y-81400502D01*
X121557314Y-81400500D01*
X121650500Y-81307314D01*
X121667291Y-81278231D01*
X121716390Y-81193190D01*
X121716390Y-81193188D01*
X121716392Y-81193186D01*
X121750500Y-81065892D01*
X121750500Y-80934108D01*
X121716392Y-80806814D01*
X121716390Y-80806811D01*
X121716390Y-80806809D01*
X121650503Y-80692690D01*
X121650501Y-80692688D01*
X121650500Y-80692686D01*
X121557314Y-80599500D01*
X121557311Y-80599498D01*
X121557309Y-80599496D01*
X121443189Y-80533609D01*
X121443191Y-80533609D01*
X121390187Y-80519407D01*
X121315892Y-80499500D01*
X121193648Y-80499500D01*
X121144149Y-80486237D01*
X121115989Y-80469979D01*
X121115985Y-80469977D01*
X121039564Y-80449500D01*
X121039562Y-80449500D01*
X120899500Y-80449500D01*
X120841309Y-80430593D01*
X120805345Y-80381093D01*
X120800500Y-80350500D01*
X120800499Y-80147870D01*
X120800498Y-80147862D01*
X120792618Y-80108248D01*
X120784515Y-80067505D01*
X120776159Y-80055000D01*
X120759551Y-79996114D01*
X120776159Y-79944999D01*
X120784515Y-79932495D01*
X120800500Y-79852133D01*
X120800499Y-79647868D01*
X120784515Y-79567505D01*
X120776159Y-79554999D01*
X120759551Y-79496114D01*
X120776159Y-79444999D01*
X120784515Y-79432495D01*
X120800500Y-79352133D01*
X120800499Y-79147868D01*
X120784515Y-79067505D01*
X120776159Y-79055000D01*
X120759551Y-78996114D01*
X120776159Y-78944999D01*
X120784515Y-78932495D01*
X120800500Y-78852133D01*
X120800499Y-78739880D01*
X120819406Y-78681691D01*
X120868906Y-78645727D01*
X120930091Y-78645726D01*
X120948999Y-78654145D01*
X121056810Y-78716390D01*
X121056808Y-78716390D01*
X121056812Y-78716391D01*
X121056814Y-78716392D01*
X121184108Y-78750500D01*
X121184110Y-78750500D01*
X121315890Y-78750500D01*
X121315892Y-78750500D01*
X121443186Y-78716392D01*
X121443188Y-78716390D01*
X121443190Y-78716390D01*
X121557309Y-78650503D01*
X121557309Y-78650502D01*
X121557314Y-78650500D01*
X121650500Y-78557314D01*
X121652864Y-78553220D01*
X121716390Y-78443190D01*
X121716390Y-78443188D01*
X121716392Y-78443186D01*
X121750500Y-78315892D01*
X121750500Y-78184108D01*
X121716392Y-78056814D01*
X121716390Y-78056811D01*
X121716390Y-78056809D01*
X121650503Y-77942690D01*
X121650501Y-77942688D01*
X121650500Y-77942686D01*
X121557314Y-77849500D01*
X121557311Y-77849498D01*
X121557309Y-77849496D01*
X121443189Y-77783609D01*
X121443191Y-77783609D01*
X121379382Y-77766512D01*
X121315892Y-77749500D01*
X121184108Y-77749500D01*
X121144481Y-77760118D01*
X121056812Y-77783608D01*
X120948999Y-77845855D01*
X120889151Y-77858576D01*
X120833255Y-77833689D01*
X120802662Y-77780701D01*
X120800499Y-77760123D01*
X120800499Y-77647868D01*
X120797897Y-77634788D01*
X120784515Y-77567506D01*
X120784515Y-77567505D01*
X120776159Y-77555000D01*
X120759551Y-77496114D01*
X120776159Y-77444999D01*
X120784515Y-77432495D01*
X120800500Y-77352133D01*
X120800499Y-77147868D01*
X120799194Y-77141309D01*
X120784515Y-77067506D01*
X120784515Y-77067505D01*
X120776159Y-77055000D01*
X120759551Y-76996114D01*
X120776159Y-76944999D01*
X120784515Y-76932495D01*
X120800500Y-76852133D01*
X120800499Y-76647868D01*
X120784515Y-76567505D01*
X120778906Y-76559111D01*
X120723626Y-76476379D01*
X120723624Y-76476376D01*
X120713380Y-76469531D01*
X120632497Y-76415486D01*
X120632496Y-76415485D01*
X120632495Y-76415485D01*
X120552133Y-76399500D01*
X116116924Y-76399500D01*
X116058733Y-76380593D01*
X116022769Y-76331093D01*
X116021297Y-76274879D01*
X116050500Y-76165892D01*
X116050500Y-76034108D01*
X116016392Y-75906814D01*
X116013761Y-75902258D01*
X116000500Y-75852761D01*
X116000500Y-75511062D01*
X116009775Y-75469225D01*
X116044499Y-75394760D01*
X116050500Y-75349179D01*
X116050499Y-75050822D01*
X116044499Y-75005240D01*
X116044499Y-75005239D01*
X116044499Y-75005238D01*
X115997851Y-74905203D01*
X115997850Y-74905202D01*
X115997850Y-74905201D01*
X115919799Y-74827150D01*
X115819760Y-74780501D01*
X115774179Y-74774500D01*
X115774178Y-74774500D01*
X115715645Y-74774500D01*
X115690022Y-74771127D01*
X115661912Y-74763595D01*
X115609309Y-74749500D01*
X115490691Y-74749500D01*
X115452071Y-74759848D01*
X115409975Y-74771127D01*
X115384355Y-74774500D01*
X115325825Y-74774500D01*
X115325814Y-74774501D01*
X115280240Y-74780500D01*
X115280238Y-74780500D01*
X115180203Y-74827148D01*
X115180201Y-74827150D01*
X115102150Y-74905201D01*
X115055501Y-75005240D01*
X115054892Y-75009870D01*
X115049500Y-75050822D01*
X115049500Y-75349173D01*
X115049501Y-75349185D01*
X115055500Y-75394758D01*
X115055501Y-75394760D01*
X115090224Y-75469225D01*
X115099500Y-75511062D01*
X115099500Y-75852761D01*
X115086238Y-75902258D01*
X115085578Y-75903401D01*
X115083608Y-75906813D01*
X115071288Y-75952792D01*
X115049500Y-76034108D01*
X115049500Y-76165892D01*
X115078702Y-76274879D01*
X115075500Y-76335978D01*
X115036995Y-76383528D01*
X114983076Y-76399500D01*
X114881190Y-76399500D01*
X114822999Y-76380593D01*
X114811186Y-76370504D01*
X114574496Y-76133814D01*
X114546719Y-76079297D01*
X114545500Y-76063810D01*
X114545500Y-74986189D01*
X114564407Y-74927998D01*
X114574490Y-74916191D01*
X115495470Y-73995212D01*
X115541614Y-73915288D01*
X115565500Y-73826144D01*
X115565500Y-73733856D01*
X115565500Y-73503900D01*
X115584407Y-73445709D01*
X115626612Y-73412437D01*
X115688914Y-73386632D01*
X115852782Y-73277139D01*
X115992139Y-73137782D01*
X116101632Y-72973914D01*
X116177051Y-72791835D01*
X116215500Y-72598541D01*
X116215500Y-72401459D01*
X116177051Y-72208165D01*
X116101632Y-72026086D01*
X115993329Y-71863999D01*
X115976721Y-71805114D01*
X115997898Y-71747710D01*
X116048772Y-71713717D01*
X116075645Y-71710000D01*
X116655500Y-71710000D01*
X116713691Y-71728907D01*
G37*
%TD.AperFunction*%
%TA.AperFunction,Conductor*%
G36*
X140338721Y-71728907D02*
G01*
X140374685Y-71778407D01*
X140376156Y-71834621D01*
X140349500Y-71934108D01*
X140349500Y-72065892D01*
X140369892Y-72141997D01*
X140383609Y-72193190D01*
X140449496Y-72307309D01*
X140449498Y-72307311D01*
X140449500Y-72307314D01*
X140542686Y-72400500D01*
X140542688Y-72400501D01*
X140542690Y-72400503D01*
X140656810Y-72466390D01*
X140656808Y-72466390D01*
X140656812Y-72466391D01*
X140656814Y-72466392D01*
X140784108Y-72500500D01*
X140784110Y-72500500D01*
X140915890Y-72500500D01*
X140915892Y-72500500D01*
X141043186Y-72466392D01*
X141043188Y-72466390D01*
X141043190Y-72466390D01*
X141157309Y-72400503D01*
X141157309Y-72400502D01*
X141157314Y-72400500D01*
X141228319Y-72329494D01*
X141282834Y-72301719D01*
X141298321Y-72300500D01*
X142781000Y-72300500D01*
X142839191Y-72319407D01*
X142875155Y-72368907D01*
X142880000Y-72399500D01*
X142880000Y-79450500D01*
X142861093Y-79508691D01*
X142811593Y-79544655D01*
X142781000Y-79549500D01*
X141020692Y-79549500D01*
X140962501Y-79530593D01*
X140926537Y-79481093D01*
X140924468Y-79471067D01*
X140923931Y-79471185D01*
X140922646Y-79465305D01*
X140922646Y-79465301D01*
X140877793Y-79337118D01*
X140876814Y-79335792D01*
X140797154Y-79227855D01*
X140797152Y-79227853D01*
X140797150Y-79227850D01*
X140797146Y-79227847D01*
X140797144Y-79227845D01*
X140687883Y-79147207D01*
X140559703Y-79102355D01*
X140559694Y-79102353D01*
X140529274Y-79099500D01*
X140529266Y-79099500D01*
X139895734Y-79099500D01*
X139895725Y-79099500D01*
X139865305Y-79102353D01*
X139865296Y-79102355D01*
X139737116Y-79147207D01*
X139627855Y-79227845D01*
X139627845Y-79227855D01*
X139547207Y-79337116D01*
X139502355Y-79465296D01*
X139502353Y-79465305D01*
X139499500Y-79495725D01*
X139499500Y-80504274D01*
X139502353Y-80534694D01*
X139502355Y-80534703D01*
X139546444Y-80660702D01*
X139552000Y-80693400D01*
X139552000Y-80850500D01*
X139533093Y-80908691D01*
X139483593Y-80944655D01*
X139453000Y-80949500D01*
X139032707Y-80949500D01*
X138974516Y-80930593D01*
X138938552Y-80881093D01*
X138938552Y-80819907D01*
X138968235Y-80778728D01*
X138966903Y-80777396D01*
X138972142Y-80772155D01*
X138972150Y-80772150D01*
X139052793Y-80662882D01*
X139097646Y-80534699D01*
X139100499Y-80504273D01*
X139100500Y-80504273D01*
X139100500Y-79495727D01*
X139100499Y-79495725D01*
X139099127Y-79481093D01*
X139097646Y-79465301D01*
X139052793Y-79337118D01*
X139051814Y-79335792D01*
X138972154Y-79227855D01*
X138972152Y-79227853D01*
X138972150Y-79227850D01*
X138972146Y-79227847D01*
X138972144Y-79227845D01*
X138862883Y-79147207D01*
X138734698Y-79102353D01*
X138731447Y-79101643D01*
X138729629Y-79100579D01*
X138729013Y-79100364D01*
X138729055Y-79100243D01*
X138678634Y-79070749D01*
X138654066Y-79014713D01*
X138667128Y-78954938D01*
X138710742Y-78915200D01*
X138713168Y-78914068D01*
X138713173Y-78914068D01*
X138820404Y-78864065D01*
X138904065Y-78780404D01*
X138910275Y-78767085D01*
X138952003Y-78722337D01*
X139012064Y-78710662D01*
X139067517Y-78736519D01*
X139089724Y-78767084D01*
X139095935Y-78780404D01*
X139179596Y-78864065D01*
X139179597Y-78864065D01*
X139179598Y-78864066D01*
X139286824Y-78914067D01*
X139286825Y-78914067D01*
X139286827Y-78914068D01*
X139335684Y-78920500D01*
X139335685Y-78920500D01*
X139684314Y-78920500D01*
X139684316Y-78920500D01*
X139733173Y-78914068D01*
X139840404Y-78864065D01*
X139864424Y-78840044D01*
X139918937Y-78812266D01*
X139979369Y-78821836D01*
X139983927Y-78824311D01*
X140056810Y-78866390D01*
X140056808Y-78866390D01*
X140056812Y-78866391D01*
X140056814Y-78866392D01*
X140184108Y-78900500D01*
X140184110Y-78900500D01*
X140315890Y-78900500D01*
X140315892Y-78900500D01*
X140443186Y-78866392D01*
X140443188Y-78866390D01*
X140443190Y-78866390D01*
X140557309Y-78800503D01*
X140557309Y-78800502D01*
X140557314Y-78800500D01*
X140650500Y-78707314D01*
X140658466Y-78693517D01*
X140716390Y-78593190D01*
X140716390Y-78593188D01*
X140716392Y-78593186D01*
X140750500Y-78465892D01*
X140750500Y-78334108D01*
X140716392Y-78206814D01*
X140716390Y-78206811D01*
X140716390Y-78206809D01*
X140650503Y-78092690D01*
X140650501Y-78092688D01*
X140650500Y-78092686D01*
X140557314Y-77999500D01*
X140557311Y-77999498D01*
X140557309Y-77999496D01*
X140443189Y-77933609D01*
X140443191Y-77933609D01*
X140393799Y-77920375D01*
X140315892Y-77899500D01*
X140184108Y-77899500D01*
X140106200Y-77920375D01*
X140056809Y-77933609D01*
X139983928Y-77975688D01*
X139924080Y-77988410D01*
X139868184Y-77963523D01*
X139864443Y-77959974D01*
X139840404Y-77935935D01*
X139840402Y-77935934D01*
X139840401Y-77935933D01*
X139733175Y-77885932D01*
X139700601Y-77881644D01*
X139684316Y-77879500D01*
X139335684Y-77879500D01*
X139319398Y-77881644D01*
X139286825Y-77885932D01*
X139286824Y-77885932D01*
X139179598Y-77935933D01*
X139095933Y-78019598D01*
X139089724Y-78032915D01*
X139047995Y-78077663D01*
X138987934Y-78089337D01*
X138932482Y-78063478D01*
X138910276Y-78032915D01*
X138904066Y-78019598D01*
X138904065Y-78019597D01*
X138904065Y-78019596D01*
X138874470Y-77990001D01*
X138846695Y-77935487D01*
X138856266Y-77875055D01*
X138874469Y-77849999D01*
X138954065Y-77770404D01*
X139004068Y-77663173D01*
X139010500Y-77614316D01*
X139010500Y-77265684D01*
X139004068Y-77216827D01*
X138995988Y-77199500D01*
X138954066Y-77109598D01*
X138954065Y-77109597D01*
X138954065Y-77109596D01*
X138870404Y-77025935D01*
X138870402Y-77025934D01*
X138870401Y-77025933D01*
X138763175Y-76975932D01*
X138730601Y-76971644D01*
X138714316Y-76969500D01*
X138265684Y-76969500D01*
X138249398Y-76971644D01*
X138216825Y-76975932D01*
X138216824Y-76975932D01*
X138109598Y-77025933D01*
X138025933Y-77109598D01*
X137975932Y-77216824D01*
X137975932Y-77216825D01*
X137969500Y-77265685D01*
X137969500Y-77614314D01*
X137975932Y-77663174D01*
X137975932Y-77663175D01*
X138025933Y-77770401D01*
X138025934Y-77770402D01*
X138025935Y-77770404D01*
X138105529Y-77849998D01*
X138133305Y-77904513D01*
X138123734Y-77964945D01*
X138105530Y-77990000D01*
X138076673Y-78018858D01*
X138075933Y-78019598D01*
X138065329Y-78042340D01*
X138023601Y-78087088D01*
X137975605Y-78099500D01*
X135439562Y-78099500D01*
X135360438Y-78099500D01*
X135313661Y-78112033D01*
X135284007Y-78119979D01*
X135215493Y-78159536D01*
X135215488Y-78159540D01*
X134854524Y-78520504D01*
X134800008Y-78548281D01*
X134784521Y-78549500D01*
X133676740Y-78549500D01*
X133642673Y-78554463D01*
X133608604Y-78559427D01*
X133503518Y-78610801D01*
X133420801Y-78693518D01*
X133369427Y-78798604D01*
X133365682Y-78824311D01*
X133359500Y-78866740D01*
X133359500Y-79233260D01*
X133361357Y-79246005D01*
X133369427Y-79301395D01*
X133414493Y-79393578D01*
X133420802Y-79406483D01*
X133503517Y-79489198D01*
X133552072Y-79512935D01*
X133608604Y-79540572D01*
X133608605Y-79540572D01*
X133608607Y-79540573D01*
X133676740Y-79550500D01*
X133676743Y-79550500D01*
X134918257Y-79550500D01*
X134918260Y-79550500D01*
X134986393Y-79540573D01*
X135091483Y-79489198D01*
X135174198Y-79406483D01*
X135225573Y-79301393D01*
X135235500Y-79233260D01*
X135235500Y-79030479D01*
X135254407Y-78972288D01*
X135264496Y-78960475D01*
X135495475Y-78729496D01*
X135549992Y-78701719D01*
X135565479Y-78700500D01*
X137975605Y-78700500D01*
X138033796Y-78719407D01*
X138065329Y-78757660D01*
X138075933Y-78780401D01*
X138075934Y-78780402D01*
X138075935Y-78780404D01*
X138159596Y-78864065D01*
X138159597Y-78864065D01*
X138159598Y-78864066D01*
X138259767Y-78910776D01*
X138304515Y-78952504D01*
X138316190Y-79012565D01*
X138290332Y-79068018D01*
X138236818Y-79097681D01*
X138217928Y-79099500D01*
X138070725Y-79099500D01*
X138040305Y-79102353D01*
X138040296Y-79102355D01*
X137912116Y-79147207D01*
X137802855Y-79227845D01*
X137802845Y-79227855D01*
X137722207Y-79337116D01*
X137682696Y-79450032D01*
X137645631Y-79498712D01*
X137587030Y-79516309D01*
X137563630Y-79512961D01*
X137529787Y-79503893D01*
X137513392Y-79499500D01*
X137381608Y-79499500D01*
X137305817Y-79519808D01*
X137254309Y-79533609D01*
X137140184Y-79599500D01*
X137135036Y-79603451D01*
X137133629Y-79601618D01*
X137088147Y-79624780D01*
X137027717Y-79615194D01*
X137002682Y-79597001D01*
X136966483Y-79560802D01*
X136965147Y-79560149D01*
X136861395Y-79509427D01*
X136834139Y-79505456D01*
X136793260Y-79499500D01*
X135551740Y-79499500D01*
X135526840Y-79503128D01*
X135483604Y-79509427D01*
X135378518Y-79560801D01*
X135295801Y-79643518D01*
X135244427Y-79748604D01*
X135244427Y-79748607D01*
X135234500Y-79816740D01*
X135234500Y-80183260D01*
X135236176Y-80194760D01*
X135244427Y-80251395D01*
X135292877Y-80350500D01*
X135295802Y-80356483D01*
X135378517Y-80439198D01*
X135422038Y-80460474D01*
X135483604Y-80490572D01*
X135483605Y-80490572D01*
X135483607Y-80490573D01*
X135551740Y-80500500D01*
X135653000Y-80500500D01*
X135711191Y-80519407D01*
X135747155Y-80568907D01*
X135752000Y-80599500D01*
X135752000Y-80952761D01*
X135738738Y-81002259D01*
X135736108Y-81006813D01*
X135731377Y-81024471D01*
X135702000Y-81134108D01*
X135702000Y-81265892D01*
X135714207Y-81311448D01*
X135736109Y-81393190D01*
X135801996Y-81507309D01*
X135801998Y-81507311D01*
X135802000Y-81507314D01*
X135895186Y-81600500D01*
X135895188Y-81600501D01*
X135895190Y-81600503D01*
X136009310Y-81666390D01*
X136009308Y-81666390D01*
X136009312Y-81666391D01*
X136009314Y-81666392D01*
X136136608Y-81700500D01*
X136136610Y-81700500D01*
X136268390Y-81700500D01*
X136268392Y-81700500D01*
X136395686Y-81666392D01*
X136395688Y-81666390D01*
X136395690Y-81666390D01*
X136505692Y-81602880D01*
X136565540Y-81590158D01*
X136621436Y-81615044D01*
X136652028Y-81668032D01*
X136645757Y-81728603D01*
X136638558Y-81744907D01*
X136627292Y-81770422D01*
X136627292Y-81770423D01*
X136624500Y-81794488D01*
X136624500Y-83205500D01*
X136624501Y-83205503D01*
X136627293Y-83229581D01*
X136643326Y-83265892D01*
X136670785Y-83328079D01*
X136746921Y-83404215D01*
X136845420Y-83447707D01*
X136869495Y-83450500D01*
X137130504Y-83450499D01*
X137154580Y-83447707D01*
X137210012Y-83423230D01*
X137270879Y-83417022D01*
X137289986Y-83423230D01*
X137345420Y-83447707D01*
X137369495Y-83450500D01*
X137630504Y-83450499D01*
X137654580Y-83447707D01*
X137710012Y-83423230D01*
X137770879Y-83417022D01*
X137789986Y-83423230D01*
X137845420Y-83447707D01*
X137869495Y-83450500D01*
X138130504Y-83450499D01*
X138154580Y-83447707D01*
X138253079Y-83404215D01*
X138329215Y-83328079D01*
X138372707Y-83229580D01*
X138375500Y-83205505D01*
X138375499Y-81794496D01*
X138372707Y-81770420D01*
X138348592Y-81715807D01*
X138342384Y-81654939D01*
X138369154Y-81605816D01*
X138395477Y-81579494D01*
X138449995Y-81551718D01*
X138465478Y-81550500D01*
X138572464Y-81550500D01*
X138630655Y-81569407D01*
X138666619Y-81618907D01*
X138666619Y-81680093D01*
X138663033Y-81689476D01*
X138631842Y-81760118D01*
X138627292Y-81770423D01*
X138624500Y-81794488D01*
X138624500Y-83205500D01*
X138624501Y-83205503D01*
X138627293Y-83229581D01*
X138643326Y-83265892D01*
X138670785Y-83328079D01*
X138746921Y-83404215D01*
X138845420Y-83447707D01*
X138869495Y-83450500D01*
X139130504Y-83450499D01*
X139154580Y-83447707D01*
X139253079Y-83404215D01*
X139329215Y-83328079D01*
X139372707Y-83229580D01*
X139375500Y-83205505D01*
X139375500Y-82919500D01*
X139394407Y-82861309D01*
X139443907Y-82825345D01*
X139474500Y-82820500D01*
X139703856Y-82820500D01*
X139796144Y-82820500D01*
X139917952Y-82820500D01*
X139976143Y-82839407D01*
X139987955Y-82849496D01*
X140015872Y-82877412D01*
X140031684Y-82893224D01*
X140140513Y-82943972D01*
X140190099Y-82950500D01*
X140609900Y-82950499D01*
X140659487Y-82943972D01*
X140659488Y-82943972D01*
X140747797Y-82902792D01*
X140768316Y-82893224D01*
X140853224Y-82808316D01*
X140903972Y-82699487D01*
X140910500Y-82649901D01*
X140910499Y-82290100D01*
X140903972Y-82240513D01*
X140903972Y-82240511D01*
X140853225Y-82131686D01*
X140853224Y-82131685D01*
X140853224Y-82131684D01*
X140768316Y-82046776D01*
X140768314Y-82046775D01*
X140768313Y-82046774D01*
X140659489Y-81996029D01*
X140659488Y-81996028D01*
X140634694Y-81992764D01*
X140609901Y-81989500D01*
X140609900Y-81989500D01*
X140346399Y-81989500D01*
X140288208Y-81970593D01*
X140252244Y-81921093D01*
X140250970Y-81872499D01*
X140249653Y-81872326D01*
X140250500Y-81865892D01*
X140250500Y-81734109D01*
X140249025Y-81728604D01*
X140216392Y-81606814D01*
X140216390Y-81606811D01*
X140216390Y-81606809D01*
X140150503Y-81492690D01*
X140150501Y-81492688D01*
X140150500Y-81492686D01*
X140146440Y-81488626D01*
X140118665Y-81434112D01*
X140128236Y-81373680D01*
X140130695Y-81369150D01*
X140132521Y-81365989D01*
X140153000Y-81289562D01*
X140153000Y-80999500D01*
X140171907Y-80941309D01*
X140221407Y-80905345D01*
X140252000Y-80900500D01*
X140529273Y-80900500D01*
X140529273Y-80900499D01*
X140559699Y-80897646D01*
X140687882Y-80852793D01*
X140797150Y-80772150D01*
X140877793Y-80662882D01*
X140922646Y-80534699D01*
X140922646Y-80534689D01*
X140923931Y-80528815D01*
X140926806Y-80529443D01*
X140946344Y-80484129D01*
X140998967Y-80452913D01*
X141020692Y-80450500D01*
X142781000Y-80450500D01*
X142839191Y-80469407D01*
X142875155Y-80518907D01*
X142880000Y-80549500D01*
X142880000Y-87600500D01*
X142861093Y-87658691D01*
X142811593Y-87694655D01*
X142781000Y-87699500D01*
X141298321Y-87699500D01*
X141240130Y-87680593D01*
X141228323Y-87670509D01*
X141157314Y-87599500D01*
X141157311Y-87599498D01*
X141157309Y-87599496D01*
X141043189Y-87533609D01*
X141043190Y-87533609D01*
X140915020Y-87499266D01*
X140863705Y-87465941D01*
X140841779Y-87408820D01*
X140857615Y-87349719D01*
X140859550Y-87346851D01*
X140864062Y-87340406D01*
X140864065Y-87340404D01*
X140864489Y-87339496D01*
X140914067Y-87233175D01*
X140914068Y-87233173D01*
X140920500Y-87184316D01*
X140920500Y-86835684D01*
X140914068Y-86786827D01*
X140909380Y-86776774D01*
X140864066Y-86679598D01*
X140864065Y-86679597D01*
X140864065Y-86679596D01*
X140780404Y-86595935D01*
X140767085Y-86589724D01*
X140722337Y-86547997D01*
X140710662Y-86487936D01*
X140736519Y-86432483D01*
X140767084Y-86410275D01*
X140780404Y-86404065D01*
X140864065Y-86320404D01*
X140914068Y-86213173D01*
X140920500Y-86164316D01*
X140920500Y-85815684D01*
X140914068Y-85766827D01*
X140907290Y-85752292D01*
X140864066Y-85659598D01*
X140864065Y-85659597D01*
X140864065Y-85659596D01*
X140810345Y-85605876D01*
X140782570Y-85551362D01*
X140792141Y-85490930D01*
X140797996Y-85481650D01*
X140800498Y-85477315D01*
X140800500Y-85477314D01*
X140864759Y-85366015D01*
X140866390Y-85363190D01*
X140866390Y-85363188D01*
X140866392Y-85363186D01*
X140900500Y-85235892D01*
X140900500Y-85104108D01*
X140866392Y-84976814D01*
X140866390Y-84976811D01*
X140866390Y-84976809D01*
X140800503Y-84862690D01*
X140800501Y-84862688D01*
X140800500Y-84862686D01*
X140707314Y-84769500D01*
X140707311Y-84769498D01*
X140707309Y-84769496D01*
X140593189Y-84703609D01*
X140593191Y-84703609D01*
X140543799Y-84690375D01*
X140465892Y-84669500D01*
X140334108Y-84669500D01*
X140256200Y-84690375D01*
X140206809Y-84703609D01*
X140092690Y-84769496D01*
X139999496Y-84862690D01*
X139933609Y-84976809D01*
X139917767Y-85035933D01*
X139899500Y-85104108D01*
X139899500Y-85235892D01*
X139916114Y-85297896D01*
X139933609Y-85363190D01*
X140002744Y-85482934D01*
X140001118Y-85483872D01*
X140018614Y-85533290D01*
X140001233Y-85591955D01*
X139989652Y-85605878D01*
X139935935Y-85659595D01*
X139935933Y-85659598D01*
X139885932Y-85766824D01*
X139885932Y-85766825D01*
X139885096Y-85773174D01*
X139879500Y-85815684D01*
X139879500Y-86164316D01*
X139882992Y-86190840D01*
X139885932Y-86213174D01*
X139885932Y-86213175D01*
X139935933Y-86320401D01*
X139935934Y-86320402D01*
X139935935Y-86320404D01*
X140019596Y-86404065D01*
X140019597Y-86404065D01*
X140019598Y-86404066D01*
X140032915Y-86410276D01*
X140077663Y-86452005D01*
X140089337Y-86512066D01*
X140063478Y-86567518D01*
X140032915Y-86589724D01*
X140019598Y-86595933D01*
X140019596Y-86595934D01*
X140019596Y-86595935D01*
X139935935Y-86679596D01*
X139935934Y-86679597D01*
X139935028Y-86680504D01*
X139880511Y-86708281D01*
X139865024Y-86709500D01*
X139474500Y-86709500D01*
X139416309Y-86690593D01*
X139380345Y-86641093D01*
X139375500Y-86610500D01*
X139375499Y-85994499D01*
X139375499Y-85994496D01*
X139372707Y-85970420D01*
X139329215Y-85871921D01*
X139253079Y-85795785D01*
X139154580Y-85752293D01*
X139154577Y-85752292D01*
X139154576Y-85752292D01*
X139130508Y-85749500D01*
X138869499Y-85749500D01*
X138869496Y-85749501D01*
X138845418Y-85752293D01*
X138789986Y-85776768D01*
X138729116Y-85782975D01*
X138710012Y-85776768D01*
X138654580Y-85752293D01*
X138654576Y-85752292D01*
X138630508Y-85749500D01*
X138369499Y-85749500D01*
X138369496Y-85749501D01*
X138345418Y-85752293D01*
X138289986Y-85776768D01*
X138229116Y-85782975D01*
X138210012Y-85776768D01*
X138154580Y-85752293D01*
X138154576Y-85752292D01*
X138130508Y-85749500D01*
X137869499Y-85749500D01*
X137869496Y-85749501D01*
X137845418Y-85752293D01*
X137746922Y-85795784D01*
X137670785Y-85871921D01*
X137627292Y-85970423D01*
X137624500Y-85994488D01*
X137624500Y-85994494D01*
X137624500Y-85994495D01*
X137624500Y-86695565D01*
X137624501Y-87300500D01*
X137605594Y-87358691D01*
X137556094Y-87394655D01*
X137525501Y-87399500D01*
X135504977Y-87399500D01*
X135446786Y-87380593D01*
X135434974Y-87370504D01*
X135380404Y-87315935D01*
X135380402Y-87315934D01*
X135367085Y-87309724D01*
X135322337Y-87267997D01*
X135310662Y-87207936D01*
X135336519Y-87152483D01*
X135367084Y-87130275D01*
X135380404Y-87124065D01*
X135464065Y-87040404D01*
X135514068Y-86933173D01*
X135520500Y-86884316D01*
X135520500Y-86535684D01*
X135514068Y-86486827D01*
X135512567Y-86483609D01*
X135464066Y-86379598D01*
X135464065Y-86379597D01*
X135464065Y-86379596D01*
X135421740Y-86337271D01*
X135393965Y-86282757D01*
X135403536Y-86222325D01*
X135405996Y-86217792D01*
X135466392Y-86113186D01*
X135500500Y-85985892D01*
X135500500Y-85854108D01*
X135466392Y-85726814D01*
X135466390Y-85726811D01*
X135466390Y-85726809D01*
X135400503Y-85612690D01*
X135400501Y-85612688D01*
X135400500Y-85612686D01*
X135307314Y-85519500D01*
X135307311Y-85519498D01*
X135307309Y-85519496D01*
X135193189Y-85453609D01*
X135193191Y-85453609D01*
X135125527Y-85435479D01*
X135065892Y-85419500D01*
X134934108Y-85419500D01*
X134874473Y-85435479D01*
X134806809Y-85453609D01*
X134692690Y-85519496D01*
X134599496Y-85612690D01*
X134533609Y-85726809D01*
X134533608Y-85726814D01*
X134499500Y-85854108D01*
X134499500Y-85985892D01*
X134507050Y-86014068D01*
X134533609Y-86113190D01*
X134593989Y-86217770D01*
X134606711Y-86277618D01*
X134581824Y-86333514D01*
X134578257Y-86337273D01*
X134535935Y-86379595D01*
X134535933Y-86379598D01*
X134485932Y-86486824D01*
X134485932Y-86486825D01*
X134479500Y-86535685D01*
X134479500Y-86884314D01*
X134485932Y-86933174D01*
X134485932Y-86933175D01*
X134535933Y-87040401D01*
X134535934Y-87040402D01*
X134535935Y-87040404D01*
X134619596Y-87124065D01*
X134619597Y-87124065D01*
X134619598Y-87124066D01*
X134632915Y-87130276D01*
X134677663Y-87172005D01*
X134689337Y-87232066D01*
X134663478Y-87287518D01*
X134632915Y-87309724D01*
X134619596Y-87315934D01*
X134565026Y-87370504D01*
X134510509Y-87398281D01*
X134495023Y-87399500D01*
X130189881Y-87399500D01*
X130131690Y-87380593D01*
X130095726Y-87331093D01*
X130095726Y-87269907D01*
X130104145Y-87251000D01*
X130166389Y-87143190D01*
X130166389Y-87143188D01*
X130166391Y-87143186D01*
X130200499Y-87015892D01*
X130200499Y-86884108D01*
X130166391Y-86756814D01*
X130166389Y-86756811D01*
X130166389Y-86756809D01*
X130100502Y-86642690D01*
X130100500Y-86642688D01*
X130100499Y-86642686D01*
X130007313Y-86549500D01*
X130007310Y-86549498D01*
X130007308Y-86549496D01*
X129893188Y-86483609D01*
X129893190Y-86483609D01*
X129843798Y-86470375D01*
X129765891Y-86449500D01*
X129699500Y-86449500D01*
X129641309Y-86430593D01*
X129605345Y-86381093D01*
X129600500Y-86350500D01*
X129600499Y-84999500D01*
X129619406Y-84941309D01*
X129668906Y-84905345D01*
X129699499Y-84900500D01*
X131734521Y-84900500D01*
X131792712Y-84919407D01*
X131804525Y-84929496D01*
X132240504Y-85365475D01*
X132268281Y-85419992D01*
X132269500Y-85435479D01*
X132269500Y-85724316D01*
X132272816Y-85749501D01*
X132275932Y-85773174D01*
X132275932Y-85773175D01*
X132325933Y-85880401D01*
X132325934Y-85880402D01*
X132325935Y-85880404D01*
X132409596Y-85964065D01*
X132409597Y-85964065D01*
X132409598Y-85964066D01*
X132516824Y-86014067D01*
X132516825Y-86014067D01*
X132516827Y-86014068D01*
X132565684Y-86020500D01*
X132565685Y-86020500D01*
X132914314Y-86020500D01*
X132914316Y-86020500D01*
X132963173Y-86014068D01*
X133070404Y-85964065D01*
X133154065Y-85880404D01*
X133160275Y-85867085D01*
X133202003Y-85822337D01*
X133262064Y-85810662D01*
X133317517Y-85836519D01*
X133339724Y-85867084D01*
X133345935Y-85880404D01*
X133429596Y-85964065D01*
X133429597Y-85964065D01*
X133429598Y-85964066D01*
X133536824Y-86014067D01*
X133536825Y-86014067D01*
X133536827Y-86014068D01*
X133585684Y-86020500D01*
X133585685Y-86020500D01*
X133934314Y-86020500D01*
X133934316Y-86020500D01*
X133983173Y-86014068D01*
X134090404Y-85964065D01*
X134174065Y-85880404D01*
X134224068Y-85773173D01*
X134230500Y-85724316D01*
X134230500Y-85275684D01*
X134224068Y-85226827D01*
X134210539Y-85197815D01*
X134174066Y-85119598D01*
X134174065Y-85119597D01*
X134174065Y-85119596D01*
X134090404Y-85035935D01*
X134090402Y-85035934D01*
X134090400Y-85035932D01*
X134087657Y-85034653D01*
X134084894Y-85032076D01*
X134083307Y-85030965D01*
X134083463Y-85030741D01*
X134042910Y-84992923D01*
X134030499Y-84944930D01*
X134030499Y-84640437D01*
X134030498Y-84640435D01*
X134010020Y-84564011D01*
X134010018Y-84564007D01*
X133970459Y-84495489D01*
X133914522Y-84439551D01*
X133914515Y-84439545D01*
X133914510Y-84439540D01*
X133904492Y-84429522D01*
X133876717Y-84375008D01*
X133875498Y-84359521D01*
X133875498Y-84356525D01*
X133875499Y-84356519D01*
X133875498Y-83893482D01*
X133860645Y-83799696D01*
X133803049Y-83686658D01*
X133713341Y-83596950D01*
X133600303Y-83539354D01*
X133600304Y-83539354D01*
X133506521Y-83524500D01*
X132893478Y-83524500D01*
X132893475Y-83524501D01*
X132799699Y-83539352D01*
X132799694Y-83539354D01*
X132686658Y-83596949D01*
X132596948Y-83686659D01*
X132539353Y-83799694D01*
X132528853Y-83865988D01*
X132501075Y-83920504D01*
X132446558Y-83948281D01*
X132431072Y-83949500D01*
X132249500Y-83949500D01*
X132191309Y-83930593D01*
X132155345Y-83881093D01*
X132150500Y-83850500D01*
X132150499Y-83647870D01*
X132150498Y-83647862D01*
X132141078Y-83600500D01*
X132134515Y-83567505D01*
X132126159Y-83555000D01*
X132109551Y-83496114D01*
X132126159Y-83444999D01*
X132134515Y-83432495D01*
X132150500Y-83352133D01*
X132150499Y-83147868D01*
X132134515Y-83067505D01*
X132126159Y-83055000D01*
X132109551Y-82996114D01*
X132126159Y-82944999D01*
X132134515Y-82932495D01*
X132150500Y-82852133D01*
X132150499Y-82647868D01*
X132134515Y-82567505D01*
X132126159Y-82555000D01*
X132109551Y-82496114D01*
X132126159Y-82444999D01*
X132134515Y-82432495D01*
X132135381Y-82428139D01*
X132165277Y-82374758D01*
X132220843Y-82349143D01*
X132280852Y-82361080D01*
X132302482Y-82377453D01*
X132495503Y-82570474D01*
X132523280Y-82624991D01*
X132524499Y-82640477D01*
X132524499Y-82706520D01*
X132524500Y-82706523D01*
X132539351Y-82800299D01*
X132539353Y-82800304D01*
X132596949Y-82913342D01*
X132686657Y-83003050D01*
X132799695Y-83060646D01*
X132893480Y-83075500D01*
X133506517Y-83075499D01*
X133506519Y-83075499D01*
X133506520Y-83075498D01*
X133556993Y-83067505D01*
X133600298Y-83060647D01*
X133600298Y-83060646D01*
X133600303Y-83060646D01*
X133713341Y-83003050D01*
X133803049Y-82913342D01*
X133860645Y-82800304D01*
X133860961Y-82798303D01*
X133861882Y-82796496D01*
X133863052Y-82792896D01*
X133863622Y-82793081D01*
X133888734Y-82743786D01*
X133943248Y-82716004D01*
X134003681Y-82725571D01*
X134040354Y-82762238D01*
X134041808Y-82761221D01*
X134051744Y-82775411D01*
X134048631Y-82777590D01*
X134068701Y-82816980D01*
X134059130Y-82877412D01*
X134049565Y-82892571D01*
X133983609Y-83006809D01*
X133970696Y-83055002D01*
X133949500Y-83134108D01*
X133949500Y-83265892D01*
X133966163Y-83328078D01*
X133983609Y-83393190D01*
X134049496Y-83507309D01*
X134049498Y-83507311D01*
X134049500Y-83507314D01*
X134142686Y-83600500D01*
X134142688Y-83600501D01*
X134142690Y-83600503D01*
X134256810Y-83666390D01*
X134256808Y-83666390D01*
X134256812Y-83666391D01*
X134256814Y-83666392D01*
X134384108Y-83700500D01*
X134384110Y-83700500D01*
X134515890Y-83700500D01*
X134515892Y-83700500D01*
X134643186Y-83666392D01*
X134643188Y-83666390D01*
X134643190Y-83666390D01*
X134757309Y-83600503D01*
X134757309Y-83600502D01*
X134757314Y-83600500D01*
X134850500Y-83507314D01*
X134860531Y-83489940D01*
X134916390Y-83393190D01*
X134916390Y-83393188D01*
X134916392Y-83393186D01*
X134950500Y-83265892D01*
X134950500Y-83134108D01*
X134916392Y-83006814D01*
X134858597Y-82906711D01*
X134845876Y-82846864D01*
X134870762Y-82790969D01*
X134874313Y-82787226D01*
X134893224Y-82768316D01*
X134943972Y-82659487D01*
X134950500Y-82609901D01*
X134950499Y-82190100D01*
X134943972Y-82140513D01*
X134943972Y-82140511D01*
X134893225Y-82031686D01*
X134893224Y-82031685D01*
X134893224Y-82031684D01*
X134808316Y-81946776D01*
X134808314Y-81946775D01*
X134808313Y-81946774D01*
X134699489Y-81896029D01*
X134699488Y-81896028D01*
X134682958Y-81893852D01*
X134649901Y-81889500D01*
X134649899Y-81889500D01*
X134290104Y-81889500D01*
X134290092Y-81889501D01*
X134240513Y-81896027D01*
X134240511Y-81896027D01*
X134131686Y-81946774D01*
X134046776Y-82031684D01*
X134041808Y-82042339D01*
X134000079Y-82087087D01*
X133952083Y-82099500D01*
X133895736Y-82099500D01*
X133837545Y-82080593D01*
X133807527Y-82045446D01*
X133803050Y-82036660D01*
X133803049Y-82036658D01*
X133713341Y-81946950D01*
X133600303Y-81889354D01*
X133600304Y-81889354D01*
X133506521Y-81874500D01*
X132918491Y-81874500D01*
X132860300Y-81855593D01*
X132824336Y-81806093D01*
X132824336Y-81744907D01*
X132860300Y-81695407D01*
X132892865Y-81679875D01*
X132943186Y-81666392D01*
X133046387Y-81606809D01*
X133057309Y-81600503D01*
X133057309Y-81600502D01*
X133057314Y-81600500D01*
X133150500Y-81507314D01*
X133168508Y-81476124D01*
X133216390Y-81393190D01*
X133216390Y-81393188D01*
X133216392Y-81393186D01*
X133250500Y-81265892D01*
X133250500Y-81134108D01*
X133216392Y-81006814D01*
X133216390Y-81006811D01*
X133216390Y-81006809D01*
X133180560Y-80944750D01*
X133167838Y-80884902D01*
X133192725Y-80829006D01*
X133196276Y-80825263D01*
X133203224Y-80818316D01*
X133253972Y-80709487D01*
X133260500Y-80659901D01*
X133260499Y-80300100D01*
X133253972Y-80250513D01*
X133253972Y-80250511D01*
X133203225Y-80141686D01*
X133203224Y-80141685D01*
X133203224Y-80141684D01*
X133118316Y-80056776D01*
X133118314Y-80056775D01*
X133118313Y-80056774D01*
X133009489Y-80006029D01*
X133009488Y-80006028D01*
X132987451Y-80003127D01*
X132959901Y-79999500D01*
X132959899Y-79999500D01*
X132540103Y-79999500D01*
X132540093Y-79999501D01*
X132490519Y-80006026D01*
X132490511Y-80006028D01*
X132478095Y-80011818D01*
X132417365Y-80019271D01*
X132408907Y-80017237D01*
X132002498Y-79900395D01*
X131983326Y-79900047D01*
X131910224Y-79898720D01*
X131910223Y-79898720D01*
X131910219Y-79898720D01*
X131908882Y-79898872D01*
X131897750Y-79899500D01*
X130449500Y-79899500D01*
X130391309Y-79880593D01*
X130355345Y-79831093D01*
X130350500Y-79800500D01*
X130350500Y-79199499D01*
X130369407Y-79141308D01*
X130418907Y-79105344D01*
X130449493Y-79100499D01*
X131902132Y-79100499D01*
X131982495Y-79084515D01*
X132073624Y-79023624D01*
X132134515Y-78932495D01*
X132150500Y-78852133D01*
X132150499Y-78647868D01*
X132149269Y-78641686D01*
X132142333Y-78606813D01*
X132134515Y-78567505D01*
X132126159Y-78555000D01*
X132109551Y-78496114D01*
X132126159Y-78444999D01*
X132134515Y-78432495D01*
X132150500Y-78352133D01*
X132150499Y-78147868D01*
X132134515Y-78067505D01*
X132126159Y-78055000D01*
X132109551Y-77996114D01*
X132126159Y-77944999D01*
X132134515Y-77932495D01*
X132150500Y-77852133D01*
X132150499Y-77649499D01*
X132169406Y-77591310D01*
X132218906Y-77555346D01*
X132249499Y-77550500D01*
X136639563Y-77550500D01*
X136639563Y-77550499D01*
X136715989Y-77530021D01*
X136784511Y-77490460D01*
X136824971Y-77450000D01*
X136840461Y-77434511D01*
X137009287Y-77265684D01*
X137090460Y-77184511D01*
X137104623Y-77159979D01*
X137130021Y-77115989D01*
X137150500Y-77039562D01*
X137150500Y-75814499D01*
X137169407Y-75756308D01*
X137218907Y-75720344D01*
X137249493Y-75715499D01*
X137659900Y-75715499D01*
X137709487Y-75708972D01*
X137709488Y-75708972D01*
X137799500Y-75666998D01*
X137818316Y-75658224D01*
X137903224Y-75573316D01*
X137953972Y-75464487D01*
X137960500Y-75414901D01*
X137960499Y-75055100D01*
X137960108Y-75052133D01*
X137953972Y-75005513D01*
X137953972Y-75005511D01*
X137903225Y-74896686D01*
X137903224Y-74896685D01*
X137903224Y-74896684D01*
X137818316Y-74811776D01*
X137818314Y-74811775D01*
X137812191Y-74805652D01*
X137813315Y-74804527D01*
X137782473Y-74763595D01*
X137781407Y-74702419D01*
X137816502Y-74652300D01*
X137845486Y-74637212D01*
X137850302Y-74635646D01*
X137850304Y-74635646D01*
X137963342Y-74578050D01*
X138053050Y-74488342D01*
X138095742Y-74404553D01*
X138139006Y-74361290D01*
X138183951Y-74350500D01*
X138225605Y-74350500D01*
X138283796Y-74369407D01*
X138315329Y-74407660D01*
X138325933Y-74430401D01*
X138325934Y-74430402D01*
X138325935Y-74430404D01*
X138409596Y-74514065D01*
X138409597Y-74514065D01*
X138409598Y-74514066D01*
X138516824Y-74564067D01*
X138516825Y-74564067D01*
X138516827Y-74564068D01*
X138565684Y-74570500D01*
X138565685Y-74570500D01*
X138914314Y-74570500D01*
X138914316Y-74570500D01*
X138963173Y-74564068D01*
X139070404Y-74514065D01*
X139154065Y-74430404D01*
X139204068Y-74323173D01*
X139210500Y-74274316D01*
X139210500Y-73825684D01*
X139204068Y-73776827D01*
X139193137Y-73753386D01*
X139154066Y-73669598D01*
X139154065Y-73669597D01*
X139154065Y-73669596D01*
X139070404Y-73585935D01*
X139070402Y-73585934D01*
X139070401Y-73585933D01*
X138963175Y-73535932D01*
X138930601Y-73531644D01*
X138914316Y-73529500D01*
X138565684Y-73529500D01*
X138549398Y-73531644D01*
X138516825Y-73535932D01*
X138516824Y-73535932D01*
X138409598Y-73585933D01*
X138325933Y-73669598D01*
X138315329Y-73692340D01*
X138273601Y-73737088D01*
X138225605Y-73749500D01*
X138183951Y-73749500D01*
X138125760Y-73730593D01*
X138095742Y-73695447D01*
X138053050Y-73611658D01*
X137963342Y-73521950D01*
X137850304Y-73464354D01*
X137850305Y-73464354D01*
X137756522Y-73449500D01*
X137143479Y-73449500D01*
X137143476Y-73449501D01*
X137049700Y-73464352D01*
X137049695Y-73464354D01*
X136936659Y-73521949D01*
X136846949Y-73611659D01*
X136798273Y-73707189D01*
X136755008Y-73750453D01*
X136694576Y-73760024D01*
X136640062Y-73732248D01*
X136557314Y-73649500D01*
X136557311Y-73649498D01*
X136557309Y-73649496D01*
X136443189Y-73583609D01*
X136443191Y-73583609D01*
X136393799Y-73570375D01*
X136315892Y-73549500D01*
X136184108Y-73549500D01*
X136120461Y-73566554D01*
X136056812Y-73583608D01*
X136007336Y-73612174D01*
X135947487Y-73624895D01*
X135891592Y-73600008D01*
X135887851Y-73596459D01*
X135813342Y-73521950D01*
X135700304Y-73464354D01*
X135700305Y-73464354D01*
X135606522Y-73449500D01*
X134993479Y-73449500D01*
X134993476Y-73449501D01*
X134899700Y-73464352D01*
X134899695Y-73464354D01*
X134786659Y-73521949D01*
X134696949Y-73611659D01*
X134639354Y-73724695D01*
X134636947Y-73732104D01*
X134634176Y-73731203D01*
X134612395Y-73773916D01*
X134557868Y-73801674D01*
X134497440Y-73792082D01*
X134456678Y-73753387D01*
X134450500Y-73742686D01*
X134357314Y-73649500D01*
X134357311Y-73649498D01*
X134357309Y-73649496D01*
X134243189Y-73583609D01*
X134243191Y-73583609D01*
X134193799Y-73570375D01*
X134115892Y-73549500D01*
X133984108Y-73549500D01*
X133920461Y-73566554D01*
X133856812Y-73583608D01*
X133807336Y-73612174D01*
X133747487Y-73624895D01*
X133691592Y-73600008D01*
X133687851Y-73596459D01*
X133613342Y-73521950D01*
X133500304Y-73464354D01*
X133500305Y-73464354D01*
X133406522Y-73449500D01*
X132793479Y-73449500D01*
X132793476Y-73449501D01*
X132699700Y-73464352D01*
X132699695Y-73464354D01*
X132586659Y-73521949D01*
X132496949Y-73611659D01*
X132439354Y-73724694D01*
X132432909Y-73765382D01*
X132405132Y-73819895D01*
X132165489Y-74059539D01*
X132109539Y-74115489D01*
X132069980Y-74184007D01*
X132069978Y-74184011D01*
X132049500Y-74260435D01*
X132049500Y-75808181D01*
X132030593Y-75866372D01*
X131981093Y-75902336D01*
X131931186Y-75905279D01*
X131902135Y-75899500D01*
X130464477Y-75899500D01*
X130406286Y-75880593D01*
X130370322Y-75831093D01*
X130370322Y-75769907D01*
X130394469Y-75730501D01*
X131740460Y-74384511D01*
X131745776Y-74375304D01*
X131780020Y-74315992D01*
X131780020Y-74315990D01*
X131780022Y-74315988D01*
X131800500Y-74239562D01*
X131800500Y-74160438D01*
X131800500Y-72849500D01*
X131819407Y-72791309D01*
X131868907Y-72755345D01*
X131899500Y-72750500D01*
X132391525Y-72750500D01*
X132449716Y-72769407D01*
X132479734Y-72804554D01*
X132496950Y-72838342D01*
X132586658Y-72928050D01*
X132699696Y-72985646D01*
X132793481Y-73000500D01*
X133406518Y-73000499D01*
X133406520Y-73000499D01*
X133406521Y-73000498D01*
X133453411Y-72993072D01*
X133500299Y-72985647D01*
X133500299Y-72985646D01*
X133500304Y-72985646D01*
X133613342Y-72928050D01*
X133703050Y-72838342D01*
X133720266Y-72804554D01*
X133763531Y-72761290D01*
X133808475Y-72750500D01*
X134591525Y-72750500D01*
X134649716Y-72769407D01*
X134679734Y-72804554D01*
X134696950Y-72838342D01*
X134786658Y-72928050D01*
X134899696Y-72985646D01*
X134993481Y-73000500D01*
X135606518Y-73000499D01*
X135606520Y-73000499D01*
X135606521Y-73000498D01*
X135653411Y-72993072D01*
X135700299Y-72985647D01*
X135700299Y-72985646D01*
X135700304Y-72985646D01*
X135813342Y-72928050D01*
X135903050Y-72838342D01*
X135920266Y-72804554D01*
X135963531Y-72761290D01*
X136008475Y-72750500D01*
X136741525Y-72750500D01*
X136799716Y-72769407D01*
X136829734Y-72804554D01*
X136846950Y-72838342D01*
X136936658Y-72928050D01*
X137049696Y-72985646D01*
X137143481Y-73000500D01*
X137756518Y-73000499D01*
X137756520Y-73000499D01*
X137756521Y-73000498D01*
X137803411Y-72993072D01*
X137850299Y-72985647D01*
X137850299Y-72985646D01*
X137850304Y-72985646D01*
X137963342Y-72928050D01*
X138053050Y-72838342D01*
X138070266Y-72804554D01*
X138113531Y-72761290D01*
X138158475Y-72750500D01*
X138317953Y-72750500D01*
X138376144Y-72769407D01*
X138387950Y-72779490D01*
X138461684Y-72853224D01*
X138570513Y-72903972D01*
X138620099Y-72910500D01*
X138979900Y-72910499D01*
X139029487Y-72903972D01*
X139029488Y-72903972D01*
X139110077Y-72866392D01*
X139138316Y-72853224D01*
X139223224Y-72768316D01*
X139273972Y-72659487D01*
X139280500Y-72609901D01*
X139280499Y-72190100D01*
X139273972Y-72140513D01*
X139273972Y-72140511D01*
X139223225Y-72031686D01*
X139223224Y-72031685D01*
X139223224Y-72031684D01*
X139138316Y-71946776D01*
X139035267Y-71898723D01*
X138990521Y-71856996D01*
X138978846Y-71796935D01*
X139004704Y-71741482D01*
X139058218Y-71711819D01*
X139077108Y-71710000D01*
X140280530Y-71710000D01*
X140338721Y-71728907D01*
G37*
%TD.AperFunction*%
%TA.AperFunction,Conductor*%
G36*
X116893071Y-77619407D02*
G01*
X116929035Y-77668907D01*
X116932660Y-77714986D01*
X116927843Y-77745401D01*
X116924500Y-77766510D01*
X116924500Y-78333489D01*
X116927453Y-78352132D01*
X116937458Y-78415305D01*
X116940281Y-78433125D01*
X116940283Y-78433132D01*
X117001238Y-78552761D01*
X117001472Y-78553220D01*
X117096780Y-78648528D01*
X117096782Y-78648529D01*
X117216867Y-78709716D01*
X117216869Y-78709716D01*
X117216874Y-78709719D01*
X117292541Y-78721703D01*
X117316510Y-78725500D01*
X117316512Y-78725500D01*
X117833489Y-78725500D01*
X117841898Y-78724167D01*
X117893649Y-78715971D01*
X117954079Y-78725542D01*
X117997344Y-78768805D01*
X118006916Y-78829237D01*
X117979140Y-78883754D01*
X117979139Y-78883755D01*
X117584511Y-79278385D01*
X117584507Y-79278390D01*
X117525202Y-79381109D01*
X117525200Y-79381113D01*
X117519807Y-79401237D01*
X117519808Y-79401238D01*
X117494500Y-79495691D01*
X117494500Y-79688934D01*
X117485225Y-79730773D01*
X117450501Y-79805239D01*
X117444500Y-79850822D01*
X117444500Y-80149173D01*
X117444501Y-80149185D01*
X117450500Y-80194759D01*
X117450500Y-80194761D01*
X117497148Y-80294796D01*
X117497149Y-80294797D01*
X117497150Y-80294799D01*
X117575201Y-80372850D01*
X117675240Y-80419499D01*
X117720821Y-80425500D01*
X117760520Y-80425499D01*
X117818710Y-80444405D01*
X117854675Y-80493904D01*
X117854676Y-80555089D01*
X117830525Y-80594502D01*
X117765489Y-80659539D01*
X117709539Y-80715489D01*
X117669980Y-80784007D01*
X117669978Y-80784011D01*
X117649500Y-80860435D01*
X117649500Y-81217293D01*
X117630593Y-81275484D01*
X117581093Y-81311448D01*
X117519907Y-81311448D01*
X117478728Y-81281764D01*
X117477396Y-81283097D01*
X117472152Y-81277853D01*
X117472150Y-81277850D01*
X117472146Y-81277847D01*
X117472144Y-81277845D01*
X117362883Y-81197207D01*
X117234703Y-81152355D01*
X117234694Y-81152353D01*
X117204274Y-81149500D01*
X117204266Y-81149500D01*
X116801050Y-81149500D01*
X116742859Y-81130593D01*
X116709246Y-81087555D01*
X116371740Y-80251393D01*
X116351554Y-80201385D01*
X116345336Y-80152417D01*
X116345288Y-80152414D01*
X116345304Y-80152165D01*
X116345207Y-80151401D01*
X116345500Y-80149179D01*
X116345499Y-79850822D01*
X116339499Y-79805240D01*
X116339499Y-79805239D01*
X116339499Y-79805238D01*
X116292851Y-79705203D01*
X116292850Y-79705202D01*
X116292850Y-79705201D01*
X116214799Y-79627150D01*
X116114760Y-79580501D01*
X116069179Y-79574500D01*
X116069178Y-79574500D01*
X115810645Y-79574500D01*
X115785023Y-79571127D01*
X115704309Y-79549500D01*
X115704307Y-79549500D01*
X115244500Y-79549500D01*
X115186309Y-79530593D01*
X115150345Y-79481093D01*
X115145500Y-79450500D01*
X115145500Y-78345727D01*
X115145499Y-78345725D01*
X115144410Y-78334109D01*
X115142646Y-78315301D01*
X115097793Y-78187118D01*
X115095572Y-78184109D01*
X115017154Y-78077855D01*
X115017152Y-78077853D01*
X115017150Y-78077850D01*
X115017146Y-78077847D01*
X115017144Y-78077845D01*
X114907883Y-77997207D01*
X114811802Y-77963586D01*
X114763121Y-77926520D01*
X114745500Y-77870142D01*
X114745500Y-77803857D01*
X114745500Y-77803856D01*
X114724403Y-77725121D01*
X114727606Y-77664022D01*
X114766111Y-77616472D01*
X114820030Y-77600500D01*
X116834880Y-77600500D01*
X116893071Y-77619407D01*
G37*
%TD.AperFunction*%
%TA.AperFunction,Conductor*%
G36*
X110672001Y-77119407D02*
G01*
X110683814Y-77129496D01*
X111334814Y-77780496D01*
X111362591Y-77835013D01*
X111353020Y-77895445D01*
X111309755Y-77938710D01*
X111264810Y-77949500D01*
X111040725Y-77949500D01*
X111010305Y-77952353D01*
X111010296Y-77952355D01*
X110882116Y-77997207D01*
X110772855Y-78077845D01*
X110772845Y-78077855D01*
X110692207Y-78187116D01*
X110647355Y-78315296D01*
X110647353Y-78315305D01*
X110644500Y-78345725D01*
X110644500Y-78605316D01*
X110625593Y-78663507D01*
X110576093Y-78699471D01*
X110514907Y-78699471D01*
X110465407Y-78663507D01*
X110455776Y-78647157D01*
X110455109Y-78645726D01*
X110453224Y-78641684D01*
X110368316Y-78556776D01*
X110368314Y-78556775D01*
X110368313Y-78556774D01*
X110259489Y-78506029D01*
X110259488Y-78506028D01*
X110242958Y-78503852D01*
X110209901Y-78499500D01*
X110209899Y-78499500D01*
X109790103Y-78499500D01*
X109790092Y-78499501D01*
X109740513Y-78506027D01*
X109740511Y-78506027D01*
X109631686Y-78556774D01*
X109546774Y-78641686D01*
X109496029Y-78750510D01*
X109496028Y-78750511D01*
X109493620Y-78768805D01*
X109489697Y-78798607D01*
X109489500Y-78800100D01*
X109489500Y-78879691D01*
X109470593Y-78937882D01*
X109421093Y-78973846D01*
X109359907Y-78973846D01*
X109347547Y-78968888D01*
X109339163Y-78964850D01*
X109250000Y-78944500D01*
X109204500Y-78944500D01*
X109146309Y-78925593D01*
X109110345Y-78876093D01*
X109105500Y-78845500D01*
X109105500Y-78800000D01*
X109101122Y-78761141D01*
X109100500Y-78750057D01*
X109100500Y-77199500D01*
X109119407Y-77141309D01*
X109168907Y-77105345D01*
X109199500Y-77100500D01*
X110613810Y-77100500D01*
X110672001Y-77119407D01*
G37*
%TD.AperFunction*%
%TA.AperFunction,Conductor*%
G36*
X136002781Y-74485352D02*
G01*
X136007326Y-74487820D01*
X136056814Y-74516392D01*
X136184108Y-74550500D01*
X136184110Y-74550500D01*
X136315890Y-74550500D01*
X136315892Y-74550500D01*
X136424879Y-74521297D01*
X136485978Y-74524500D01*
X136533528Y-74563005D01*
X136549500Y-74616924D01*
X136549500Y-76834521D01*
X136530593Y-76892712D01*
X136520504Y-76904525D01*
X136504525Y-76920504D01*
X136450008Y-76948281D01*
X136434521Y-76949500D01*
X134864478Y-76949500D01*
X134806287Y-76930593D01*
X134770323Y-76881093D01*
X134770323Y-76819907D01*
X134794472Y-76780498D01*
X134890460Y-76684511D01*
X134897503Y-76672312D01*
X134930021Y-76615989D01*
X134950500Y-76539562D01*
X134950500Y-75810009D01*
X134969407Y-75751818D01*
X135018907Y-75715854D01*
X135062420Y-75711856D01*
X135090099Y-75715500D01*
X135509900Y-75715499D01*
X135559487Y-75708972D01*
X135559488Y-75708972D01*
X135649500Y-75666998D01*
X135668316Y-75658224D01*
X135753224Y-75573316D01*
X135803972Y-75464487D01*
X135810500Y-75414901D01*
X135810499Y-75055100D01*
X135810108Y-75052133D01*
X135803972Y-75005513D01*
X135803972Y-75005511D01*
X135753225Y-74896686D01*
X135753224Y-74896685D01*
X135753224Y-74896684D01*
X135668316Y-74811776D01*
X135668314Y-74811775D01*
X135662191Y-74805652D01*
X135663315Y-74804527D01*
X135632473Y-74763595D01*
X135631407Y-74702419D01*
X135666502Y-74652300D01*
X135695486Y-74637212D01*
X135700302Y-74635646D01*
X135700304Y-74635646D01*
X135813342Y-74578050D01*
X135887834Y-74503557D01*
X135942348Y-74475781D01*
X136002781Y-74485352D01*
G37*
%TD.AperFunction*%
%TA.AperFunction,Conductor*%
G36*
X133802781Y-74485352D02*
G01*
X133807326Y-74487820D01*
X133856814Y-74516392D01*
X133984108Y-74550500D01*
X133984110Y-74550500D01*
X134115890Y-74550500D01*
X134115892Y-74550500D01*
X134224879Y-74521297D01*
X134285978Y-74524500D01*
X134333528Y-74563005D01*
X134349500Y-74616924D01*
X134349500Y-76334521D01*
X134330593Y-76392712D01*
X134320504Y-76404525D01*
X134304525Y-76420504D01*
X134250008Y-76448281D01*
X134234521Y-76449500D01*
X132564478Y-76449500D01*
X132506287Y-76430593D01*
X132470323Y-76381093D01*
X132470323Y-76319907D01*
X132494472Y-76280498D01*
X132590460Y-76184511D01*
X132595005Y-76176637D01*
X132595012Y-76176631D01*
X132595010Y-76176630D01*
X132630021Y-76115989D01*
X132650500Y-76039562D01*
X132650500Y-75775766D01*
X132669407Y-75717575D01*
X132718907Y-75681611D01*
X132780093Y-75681611D01*
X132791339Y-75686042D01*
X132840510Y-75708971D01*
X132840511Y-75708971D01*
X132840513Y-75708972D01*
X132890099Y-75715500D01*
X133309900Y-75715499D01*
X133359487Y-75708972D01*
X133359488Y-75708972D01*
X133449500Y-75666998D01*
X133468316Y-75658224D01*
X133553224Y-75573316D01*
X133603972Y-75464487D01*
X133610500Y-75414901D01*
X133610499Y-75055100D01*
X133610108Y-75052133D01*
X133603972Y-75005513D01*
X133603972Y-75005511D01*
X133553225Y-74896686D01*
X133553224Y-74896685D01*
X133553224Y-74896684D01*
X133468316Y-74811776D01*
X133468314Y-74811775D01*
X133462191Y-74805652D01*
X133463315Y-74804527D01*
X133432473Y-74763595D01*
X133431407Y-74702419D01*
X133466502Y-74652300D01*
X133495486Y-74637212D01*
X133500302Y-74635646D01*
X133500304Y-74635646D01*
X133613342Y-74578050D01*
X133687834Y-74503557D01*
X133742348Y-74475781D01*
X133802781Y-74485352D01*
G37*
%TD.AperFunction*%
%TA.AperFunction,Conductor*%
G36*
X124000147Y-71728907D02*
G01*
X124036111Y-71778407D01*
X124037576Y-71783355D01*
X124044448Y-71809000D01*
X124053609Y-71843190D01*
X124101228Y-71925667D01*
X124113950Y-71985515D01*
X124099745Y-72023512D01*
X124100436Y-72023834D01*
X124046029Y-72140510D01*
X124046028Y-72140511D01*
X124039500Y-72190100D01*
X124039500Y-72609896D01*
X124039501Y-72609907D01*
X124046027Y-72659484D01*
X124046027Y-72659485D01*
X124046028Y-72659487D01*
X124052411Y-72673175D01*
X124066798Y-72704029D01*
X124074254Y-72764759D01*
X124073452Y-72768496D01*
X123954937Y-73273281D01*
X123923230Y-73325610D01*
X123866820Y-73349308D01*
X123856996Y-73349238D01*
X123856996Y-73349500D01*
X123647870Y-73349500D01*
X123647862Y-73349501D01*
X123567505Y-73365484D01*
X123567501Y-73365486D01*
X123554999Y-73373840D01*
X123496111Y-73390447D01*
X123445001Y-73373840D01*
X123432496Y-73365485D01*
X123432495Y-73365484D01*
X123352134Y-73349500D01*
X123147870Y-73349500D01*
X123147862Y-73349501D01*
X123067505Y-73365484D01*
X123067501Y-73365486D01*
X123054999Y-73373840D01*
X122996111Y-73390447D01*
X122945001Y-73373840D01*
X122932496Y-73365485D01*
X122932495Y-73365484D01*
X122852134Y-73349500D01*
X122647870Y-73349500D01*
X122647862Y-73349501D01*
X122567505Y-73365484D01*
X122567501Y-73365486D01*
X122554999Y-73373840D01*
X122496111Y-73390447D01*
X122445001Y-73373840D01*
X122432496Y-73365485D01*
X122432495Y-73365484D01*
X122352135Y-73349500D01*
X122164477Y-73349500D01*
X122106286Y-73330593D01*
X122070322Y-73281093D01*
X122070322Y-73219907D01*
X122094472Y-73180498D01*
X122340460Y-72934511D01*
X122351057Y-72916157D01*
X122394953Y-72875932D01*
X122420404Y-72864065D01*
X122504065Y-72780404D01*
X122554068Y-72673173D01*
X122560500Y-72624316D01*
X122560500Y-72175684D01*
X122554068Y-72126827D01*
X122540275Y-72097249D01*
X122504066Y-72019598D01*
X122504065Y-72019597D01*
X122504065Y-72019596D01*
X122420404Y-71935935D01*
X122420402Y-71935934D01*
X122420401Y-71935933D01*
X122340606Y-71898724D01*
X122295858Y-71856996D01*
X122284183Y-71796935D01*
X122310041Y-71741482D01*
X122363555Y-71711819D01*
X122382445Y-71710000D01*
X123941956Y-71710000D01*
X124000147Y-71728907D01*
G37*
%TD.AperFunction*%
%TD*%
M02*
