M48
; DRILL file KiCad 10.0.6 date 2026-09-25T01:06:33
; FORMAT={-:-/ absolute / metric / decimal}
; #@! TF.CreationDate,2026-09-25T01:06:33-05:00
; #@! TF.GenerationSoftware,Kicad,Pcbnew,10.0.6
; #@! TF.FileFunction,Plated,1,4,PTH
FMAT,2
METRIC
; #@! TA.AperFunction,Plated,PTH,ViaDrill
T1C0.300
; #@! TA.AperFunction,Plated,PTH,ViaDrill
T2C0.350
; #@! TA.AperFunction,Plated,PTH,ComponentDrill
T3C1.000
; #@! TA.AperFunction,Plated,PTH,ComponentDrill
T4C1.200
%
G90
G05
T1
X195.13Y-80.0
X195.9Y-80.0
X198.62Y-80.0
T2
X102.25Y-73.125
X104.125Y-74.0
X105.0Y-81.75
X105.5Y-76.25
X106.25Y-76.0
X106.5Y-82.5
X107.125Y-74.75
X107.75Y-83.625
X109.5Y-84.375
X109.75Y-77.5
X111.0Y-76.0
X111.375Y-74.0
X111.5Y-74.75
X111.875Y-83.5
X112.5Y-76.75
X113.625Y-77.75
X113.75Y-84.875
X113.875Y-80.625
X114.625Y-75.875
X114.75Y-74.625
X114.75Y-80.875
X114.875Y-79.625
X114.875Y-83.125
X115.5Y-80.75
X115.5Y-85.125
X115.5Y-86.5
X117.375Y-72.0
X118.125Y-72.875
X118.125Y-74.125
X118.125Y-77.75
X118.125Y-79.75
X118.125Y-81.875
X118.5Y-88.0
X118.625Y-87.0
X118.875Y-77.625
X119.875Y-76.75
X119.875Y-84.375
X120.625Y-73.0
X120.75Y-84.375
X120.875Y-75.875
X121.125Y-80.5
X121.375Y-77.375
X121.375Y-87.0
X121.75Y-88.0
X121.875Y-73.0
X122.0Y-82.0
X122.25Y-87.375
X122.75Y-81.375
X122.875Y-72.875
X123.375Y-83.875
X123.5Y-72.375
X123.5Y-76.0
X123.875Y-79.25
X124.0Y-84.375
X124.25Y-72.0
X124.25Y-87.375
X124.625Y-78.0
X125.375Y-87.0
X125.5Y-79.25
X126.5Y-83.125
X126.75Y-85.5
X126.75Y-87.375
X126.875Y-77.875
X126.875Y-82.25
X127.0Y-75.0
X127.125Y-76.125
X127.5Y-87.25
X127.875Y-74.0
X128.25Y-84.25
X128.625Y-86.5
X128.75Y-84.875
X129.125Y-88.0
X129.5Y-72.375
X129.5Y-74.5
X129.5Y-82.25
X129.5Y-85.0
X129.5Y-85.875
X129.75Y-84.375
X129.875Y-80.0
X130.125Y-83.625
X130.375Y-75.5
X130.5Y-81.625
X130.75Y-87.375
X130.875Y-78.0
X131.75Y-75.125
X131.75Y-81.0
X132.0Y-87.375
X132.125Y-84.125
X132.25Y-83.375
X132.375Y-79.5
X132.75Y-81.0
X132.875Y-82.875
X133.0Y-84.375
X133.625Y-76.875
X133.625Y-79.25
X133.875Y-86.0
X134.25Y-87.375
X134.75Y-72.875
X134.75Y-73.625
X134.75Y-75.625
X134.75Y-77.625
X135.25Y-80.25
X135.25Y-87.375
X135.5Y-73.875
X135.5Y-77.75
X136.0Y-86.875
X136.0Y-88.0
X136.25Y-75.5
X136.25Y-76.375
X136.25Y-78.0
X136.5Y-83.0
X136.625Y-81.625
X138.5Y-85.375
X139.125Y-87.25
X139.25Y-72.5
X139.5Y-83.5
X139.625Y-81.375
X139.75Y-78.0
X140.0Y-74.375
X140.125Y-79.75
X140.625Y-78.5
X141.375Y-74.875
X141.5Y-80.25
X141.625Y-76.0
X141.625Y-78.625
X142.125Y-77.75
X142.25Y-72.625
X142.25Y-76.5
X142.25Y-85.375
X174.34Y-72.0
X174.34Y-88.0
T3
X103.75Y-72.5
X103.75Y-87.5
X106.29Y-72.5
X106.29Y-87.5
X108.83Y-72.5
X108.83Y-87.5
X111.37Y-72.5
X111.37Y-87.5
X113.91Y-72.5
X113.91Y-87.5
T4
X102.0Y-76.0
X102.0Y-80.0
X102.0Y-84.0
M30
