%TF.GenerationSoftware,KiCad,Pcbnew,10.0.6*%
%TF.CreationDate,2026-10-01T21:56:18-05:00*%
%TF.ProjectId,hp_sensor_routed,68705f73-656e-4736-9f72-5f726f757465,rev?*%
%TF.SameCoordinates,Original*%
%TF.FileFunction,Paste,Top*%
%TF.FilePolarity,Positive*%
%FSLAX46Y46*%
G04 Gerber Fmt 4.6, Leading zero omitted, Abs format (unit mm)*
G04 Created by KiCad (PCBNEW 10.0.6) date 2026-10-01 21:56:18*
%MOMM*%
%LPD*%
G01*
G04 APERTURE LIST*
G04 Aperture macros list*
%AMRoundRect*
0 Rectangle with rounded corners*
0 $1 Rounding radius*
0 $2 $3 $4 $5 $6 $7 $8 $9 X,Y pos of 4 corners*
0 Add a 4 corners polygon primitive as box body*
4,1,4,$2,$3,$4,$5,$6,$7,$8,$9,$2,$3,0*
0 Add four circle primitives for the rounded corners*
1,1,$1+$1,$2,$3*
1,1,$1+$1,$4,$5*
1,1,$1+$1,$6,$7*
1,1,$1+$1,$8,$9*
0 Add four rect primitives between the rounded corners*
20,1,$1+$1,$2,$3,$4,$5,0*
20,1,$1+$1,$4,$5,$6,$7,0*
20,1,$1+$1,$6,$7,$8,$9,0*
20,1,$1+$1,$8,$9,$2,$3,0*%
%AMFreePoly0*
4,1,7,0.375000,-0.112500,-0.375000,-0.112500,-0.375000,0.112500,-0.025000,0.112500,-0.025000,0.462500,0.375000,0.462500,0.375000,-0.112500,0.375000,-0.112500,$1*%
%AMFreePoly1*
4,1,5,0.300000,-0.125000,-0.300000,-0.125000,-0.300000,0.125000,0.300000,0.125000,0.300000,-0.125000,0.300000,-0.125000,$1*%
%AMFreePoly2*
4,1,7,0.350000,-0.462500,0.000000,-0.462500,0.000000,-0.112500,-0.350000,-0.112500,-0.350000,0.112500,0.350000,0.112500,0.350000,-0.462500,0.350000,-0.462500,$1*%
%AMFreePoly3*
4,1,7,0.350000,-0.112500,0.000000,-0.112500,0.000000,-0.462500,-0.350000,-0.462500,-0.350000,0.112500,0.350000,0.112500,0.350000,-0.112500,0.350000,-0.112500,$1*%
%AMFreePoly4*
4,1,7,0.025000,0.112500,0.375000,0.112500,0.375000,-0.112500,-0.375000,-0.112500,-0.375000,0.462500,0.025000,0.462500,0.025000,0.112500,0.025000,0.112500,$1*%
%AMFreePoly5*
4,1,5,0.175000,-0.650000,-0.175000,-0.650000,-0.175000,0.650000,0.175000,0.650000,0.175000,-0.650000,0.175000,-0.650000,$1*%
G04 Aperture macros list end*
%ADD10RoundRect,0.200000X-0.275000X0.200000X-0.275000X-0.200000X0.275000X-0.200000X0.275000X0.200000X0*%
%ADD11RoundRect,0.135000X-0.135000X-0.185000X0.135000X-0.185000X0.135000X0.185000X-0.135000X0.185000X0*%
%ADD12RoundRect,0.140000X-0.140000X-0.170000X0.140000X-0.170000X0.140000X0.170000X-0.140000X0.170000X0*%
%ADD13RoundRect,0.087500X0.087500X-0.662500X0.087500X0.662500X-0.087500X0.662500X-0.087500X-0.662500X0*%
%ADD14RoundRect,0.140000X0.170000X-0.140000X0.170000X0.140000X-0.170000X0.140000X-0.170000X-0.140000X0*%
%ADD15R,0.750000X1.000000*%
%ADD16RoundRect,0.250000X-0.250000X-0.475000X0.250000X-0.475000X0.250000X0.475000X-0.250000X0.475000X0*%
%ADD17RoundRect,0.200000X0.275000X-0.200000X0.275000X0.200000X-0.275000X0.200000X-0.275000X-0.200000X0*%
%ADD18RoundRect,0.135000X-0.185000X0.135000X-0.185000X-0.135000X0.185000X-0.135000X0.185000X0.135000X0*%
%ADD19RoundRect,0.140000X-0.170000X0.140000X-0.170000X-0.140000X0.170000X-0.140000X0.170000X0.140000X0*%
%ADD20RoundRect,0.112500X0.187500X0.112500X-0.187500X0.112500X-0.187500X-0.112500X0.187500X-0.112500X0*%
%ADD21RoundRect,0.135000X0.135000X0.185000X-0.135000X0.185000X-0.135000X-0.185000X0.135000X-0.185000X0*%
%ADD22RoundRect,0.225000X-0.225000X-0.250000X0.225000X-0.250000X0.225000X0.250000X-0.225000X0.250000X0*%
%ADD23RoundRect,0.135000X0.185000X-0.135000X0.185000X0.135000X-0.185000X0.135000X-0.185000X-0.135000X0*%
%ADD24RoundRect,0.250000X-0.475000X0.250000X-0.475000X-0.250000X0.475000X-0.250000X0.475000X0.250000X0*%
%ADD25RoundRect,0.225000X0.225000X0.250000X-0.225000X0.250000X-0.225000X-0.250000X0.225000X-0.250000X0*%
%ADD26RoundRect,0.250000X-0.300000X-0.300000X0.300000X-0.300000X0.300000X0.300000X-0.300000X0.300000X0*%
%ADD27RoundRect,0.250000X-0.650000X0.325000X-0.650000X-0.325000X0.650000X-0.325000X0.650000X0.325000X0*%
%ADD28RoundRect,0.112500X-0.187500X-0.112500X0.187500X-0.112500X0.187500X0.112500X-0.187500X0.112500X0*%
%ADD29RoundRect,0.250000X-0.300000X-1.600000X0.300000X-1.600000X0.300000X1.600000X-0.300000X1.600000X0*%
%ADD30FreePoly0,0.000000*%
%ADD31FreePoly1,0.000000*%
%ADD32FreePoly2,0.000000*%
%ADD33FreePoly3,0.000000*%
%ADD34FreePoly4,0.000000*%
%ADD35FreePoly5,0.000000*%
%ADD36RoundRect,0.250000X-0.325000X-0.650000X0.325000X-0.650000X0.325000X0.650000X-0.325000X0.650000X0*%
%ADD37RoundRect,0.200000X-0.200000X-0.275000X0.200000X-0.275000X0.200000X0.275000X-0.200000X0.275000X0*%
%ADD38RoundRect,0.250000X-0.262500X-0.450000X0.262500X-0.450000X0.262500X0.450000X-0.262500X0.450000X0*%
%ADD39RoundRect,0.075000X-0.075000X0.700000X-0.075000X-0.700000X0.075000X-0.700000X0.075000X0.700000X0*%
%ADD40RoundRect,0.075000X-0.700000X0.075000X-0.700000X-0.075000X0.700000X-0.075000X0.700000X0.075000X0*%
%ADD41RoundRect,0.150000X-0.587500X-0.150000X0.587500X-0.150000X0.587500X0.150000X-0.587500X0.150000X0*%
G04 APERTURE END LIST*
D10*
%TO.C,R21*%
X135300000Y-72400000D03*
X135300000Y-74050000D03*
%TD*%
D11*
%TO.C,R1*%
X115890000Y-86620000D03*
X116910000Y-86620000D03*
%TD*%
D12*
%TO.C,C7*%
X124520000Y-72400000D03*
X125480000Y-72400000D03*
%TD*%
D13*
%TO.C,U4*%
X137000000Y-86700000D03*
X137500000Y-86700000D03*
X138000000Y-86700000D03*
X138500000Y-86700000D03*
X139000000Y-86700000D03*
X139000000Y-82500000D03*
X138500000Y-82500000D03*
X138000000Y-82500000D03*
X137500000Y-82500000D03*
X137000000Y-82500000D03*
%TD*%
D14*
%TO.C,C9*%
X132750000Y-80480000D03*
X132750000Y-79520000D03*
%TD*%
D12*
%TO.C,C8*%
X124520000Y-87600000D03*
X125480000Y-87600000D03*
%TD*%
D15*
%TO.C,RH4*%
X159030000Y-80000000D03*
X160530000Y-80000000D03*
%TD*%
D16*
%TO.C,C17*%
X103250000Y-72400000D03*
X105150000Y-72400000D03*
%TD*%
D15*
%TO.C,RH8*%
X169430000Y-80000000D03*
X170930000Y-80000000D03*
%TD*%
%TO.C,RH2*%
X153830000Y-80000000D03*
X155330000Y-80000000D03*
%TD*%
D11*
%TO.C,R11*%
X132740000Y-85500000D03*
X133760000Y-85500000D03*
%TD*%
D17*
%TO.C,R23*%
X133199999Y-84125000D03*
X133199999Y-82475000D03*
%TD*%
D15*
%TO.C,RH16*%
X190230000Y-80000000D03*
X191730000Y-80000000D03*
%TD*%
D12*
%TO.C,C23*%
X134470000Y-82400000D03*
X135430000Y-82400000D03*
%TD*%
D10*
%TO.C,R22*%
X133100000Y-72400000D03*
X133100000Y-74050000D03*
%TD*%
D18*
%TO.C,R7*%
X140400000Y-85990000D03*
X140400000Y-87010000D03*
%TD*%
D19*
%TO.C,C11*%
X117950000Y-86620000D03*
X117950000Y-87580000D03*
%TD*%
D20*
%TO.C,D4*%
X104850000Y-87200000D03*
X102750000Y-87200000D03*
%TD*%
D21*
%TO.C,R9*%
X139510000Y-78400000D03*
X138490000Y-78400000D03*
%TD*%
D11*
%TO.C,R15*%
X119990000Y-72400000D03*
X121010000Y-72400000D03*
%TD*%
D15*
%TO.C,RH1*%
X151230000Y-80000000D03*
X152730000Y-80000000D03*
%TD*%
D22*
%TO.C,C10*%
X127125000Y-72250000D03*
X128675000Y-72250000D03*
%TD*%
D23*
%TO.C,R10*%
X138490000Y-77440000D03*
X138490000Y-76420000D03*
%TD*%
D19*
%TO.C,C24*%
X137450000Y-75235000D03*
X137450000Y-76195000D03*
%TD*%
D11*
%TO.C,R16*%
X122090000Y-72400000D03*
X123110000Y-72400000D03*
%TD*%
D15*
%TO.C,RH17*%
X192830000Y-80000000D03*
X194330000Y-80000000D03*
%TD*%
D11*
%TO.C,TH2*%
X196750000Y-80000000D03*
X197770000Y-80000000D03*
%TD*%
D24*
%TO.C,C1*%
X105700000Y-82250000D03*
X105700000Y-84150000D03*
%TD*%
D21*
%TO.C,R2*%
X111310000Y-74200000D03*
X110290000Y-74200000D03*
%TD*%
D15*
%TO.C,RH14*%
X185030000Y-80000000D03*
X186530000Y-80000000D03*
%TD*%
D20*
%TO.C,D7*%
X117945000Y-80000000D03*
X115845000Y-80000000D03*
%TD*%
D25*
%TO.C,C16*%
X117575000Y-78050000D03*
X116025000Y-78050000D03*
%TD*%
D26*
%TO.C,D2*%
X104400000Y-77300000D03*
X107200000Y-77300000D03*
%TD*%
D11*
%TO.C,TH3*%
X172470000Y-88000000D03*
X173490000Y-88000000D03*
%TD*%
D15*
%TO.C,RH12*%
X179830000Y-80000000D03*
X181330000Y-80000000D03*
%TD*%
%TO.C,RH15*%
X187630000Y-80000000D03*
X189130000Y-80000000D03*
%TD*%
%TO.C,RH5*%
X161630000Y-80000000D03*
X163130000Y-80000000D03*
%TD*%
D19*
%TO.C,C21*%
X135300000Y-75235000D03*
X135300000Y-76195000D03*
%TD*%
D15*
%TO.C,RH11*%
X177230000Y-80000000D03*
X178730000Y-80000000D03*
%TD*%
%TO.C,RH9*%
X172030000Y-80000000D03*
X173530000Y-80000000D03*
%TD*%
D27*
%TO.C,C2*%
X116500000Y-81925000D03*
X116500000Y-84875000D03*
%TD*%
D28*
%TO.C,D5*%
X115550000Y-75200000D03*
X117650000Y-75200000D03*
%TD*%
D19*
%TO.C,C12*%
X140400000Y-82470000D03*
X140400000Y-83430000D03*
%TD*%
D29*
%TO.C,L1*%
X111395000Y-80000000D03*
X114395000Y-80000000D03*
%TD*%
D30*
%TO.C,U3*%
X107225000Y-79262500D03*
D31*
X107150000Y-79750000D03*
X107150000Y-80250000D03*
D32*
X107200000Y-80737500D03*
D33*
X108900000Y-80737500D03*
D31*
X108950000Y-80250000D03*
X108950000Y-79750000D03*
D34*
X108875000Y-79262500D03*
D35*
X108050000Y-79450000D03*
%TD*%
D36*
%TO.C,C3*%
X105925000Y-74900000D03*
X108875000Y-74900000D03*
%TD*%
D18*
%TO.C,R6*%
X135000000Y-86710000D03*
X135000000Y-87730000D03*
%TD*%
D37*
%TO.C,R3*%
X108575000Y-87200000D03*
X110225000Y-87200000D03*
%TD*%
D12*
%TO.C,C13*%
X138800000Y-72400000D03*
X139760000Y-72400000D03*
%TD*%
D10*
%TO.C,R24*%
X137450000Y-72400000D03*
X137450000Y-74050000D03*
%TD*%
D23*
%TO.C,R14*%
X119400000Y-88260000D03*
X119400000Y-87240000D03*
%TD*%
D20*
%TO.C,D1*%
X105995000Y-80000000D03*
X103895000Y-80000000D03*
%TD*%
D11*
%TO.C,TH4*%
X138740000Y-74050000D03*
X139760000Y-74050000D03*
%TD*%
D15*
%TO.C,RH10*%
X174630000Y-80000000D03*
X176130000Y-80000000D03*
%TD*%
%TO.C,RH3*%
X156430000Y-80000000D03*
X157930000Y-80000000D03*
%TD*%
D38*
%TO.C,R5*%
X138387500Y-80000000D03*
X140212500Y-80000000D03*
%TD*%
D14*
%TO.C,C4*%
X106100000Y-87200000D03*
X106100000Y-86240000D03*
%TD*%
D11*
%TO.C,TH1*%
X172470000Y-72000000D03*
X173490000Y-72000000D03*
%TD*%
D12*
%TO.C,C18*%
X107270000Y-81950000D03*
X108230000Y-81950000D03*
%TD*%
D19*
%TO.C,C22*%
X133100000Y-75235000D03*
X133100000Y-76195000D03*
%TD*%
D23*
%TO.C,R4*%
X107300000Y-87230000D03*
X107300000Y-86210000D03*
%TD*%
D14*
%TO.C,C20*%
X110000000Y-78980000D03*
X110000000Y-78020000D03*
%TD*%
D39*
%TO.C,U1*%
X129250000Y-74325000D03*
X128750000Y-74325000D03*
X128250000Y-74325000D03*
X127750000Y-74325000D03*
X127250000Y-74325000D03*
X126750000Y-74325000D03*
X126250000Y-74325000D03*
X125750000Y-74325000D03*
X125250000Y-74325000D03*
X124750000Y-74325000D03*
X124250000Y-74325000D03*
X123750000Y-74325000D03*
X123250000Y-74325000D03*
X122750000Y-74325000D03*
X122250000Y-74325000D03*
X121750000Y-74325000D03*
D40*
X119825000Y-76250000D03*
X119825000Y-76750000D03*
X119825000Y-77250000D03*
X119825000Y-77750000D03*
X119825000Y-78250000D03*
X119825000Y-78750000D03*
X119825000Y-79250000D03*
X119825000Y-79750000D03*
X119825000Y-80250000D03*
X119825000Y-80750000D03*
X119825000Y-81250000D03*
X119825000Y-81750000D03*
X119825000Y-82250000D03*
X119825000Y-82750000D03*
X119825000Y-83250000D03*
X119825000Y-83750000D03*
D39*
X121750000Y-85675000D03*
X122250000Y-85675000D03*
X122750000Y-85675000D03*
X123250000Y-85675000D03*
X123750000Y-85675000D03*
X124250000Y-85675000D03*
X124750000Y-85675000D03*
X125250000Y-85675000D03*
X125750000Y-85675000D03*
X126250000Y-85675000D03*
X126750000Y-85675000D03*
X127250000Y-85675000D03*
X127750000Y-85675000D03*
X128250000Y-85675000D03*
X128750000Y-85675000D03*
X129250000Y-85675000D03*
D40*
X131175000Y-83750000D03*
X131175000Y-83250000D03*
X131175000Y-82750000D03*
X131175000Y-82250000D03*
X131175000Y-81750000D03*
X131175000Y-81250000D03*
X131175000Y-80750000D03*
X131175000Y-80250000D03*
X131175000Y-79750000D03*
X131175000Y-79250000D03*
X131175000Y-78750000D03*
X131175000Y-78250000D03*
X131175000Y-77750000D03*
X131175000Y-77250000D03*
X131175000Y-76750000D03*
X131175000Y-76250000D03*
%TD*%
D41*
%TO.C,Q1*%
X134297500Y-79050000D03*
X134297500Y-80950000D03*
X136172500Y-80000000D03*
%TD*%
D15*
%TO.C,RH13*%
X182430000Y-80000000D03*
X183930000Y-80000000D03*
%TD*%
D19*
%TO.C,C19*%
X110000000Y-80070000D03*
X110000000Y-81030000D03*
%TD*%
D15*
%TO.C,RH6*%
X164230000Y-80000000D03*
X165730000Y-80000000D03*
%TD*%
%TO.C,RH7*%
X166830000Y-80000000D03*
X168330000Y-80000000D03*
%TD*%
M02*
