%TF.GenerationSoftware,KiCad,Pcbnew,10.0.6*%
%TF.CreationDate,2026-09-25T01:06:32-05:00*%
%TF.ProjectId,hp_sensor_routed,68705f73-656e-4736-9f72-5f726f757465,rev?*%
%TF.SameCoordinates,Original*%
%TF.FileFunction,Soldermask,Top*%
%TF.FilePolarity,Negative*%
%FSLAX46Y46*%
G04 Gerber Fmt 4.6, Leading zero omitted, Abs format (unit mm)*
G04 Created by KiCad (PCBNEW 10.0.6) date 2026-09-25 01:06:32*
%MOMM*%
%LPD*%
G01*
G04 APERTURE LIST*
G04 APERTURE END LIST*
G36*
X119786104Y-87542127D02*
G01*
X119859099Y-87590901D01*
X119907873Y-87663896D01*
X119925000Y-87750000D01*
X119925000Y-88250000D01*
X119907873Y-88336104D01*
X119859099Y-88409099D01*
X119786104Y-88457873D01*
X119700000Y-88475000D01*
X119250000Y-88475000D01*
X119163896Y-88457873D01*
X119090901Y-88409099D01*
X119042127Y-88336104D01*
X119025000Y-88250000D01*
X119025000Y-87750000D01*
X119042127Y-87663896D01*
X119090901Y-87590901D01*
X119163896Y-87542127D01*
X119250000Y-87525000D01*
X119700000Y-87525000D01*
X119786104Y-87542127D01*
G37*
G36*
X121336104Y-87542127D02*
G01*
X121409099Y-87590901D01*
X121457873Y-87663896D01*
X121475000Y-87750000D01*
X121475000Y-88250000D01*
X121457873Y-88336104D01*
X121409099Y-88409099D01*
X121336104Y-88457873D01*
X121250000Y-88475000D01*
X120800000Y-88475000D01*
X120713896Y-88457873D01*
X120640901Y-88409099D01*
X120592127Y-88336104D01*
X120575000Y-88250000D01*
X120575000Y-87750000D01*
X120592127Y-87663896D01*
X120640901Y-87590901D01*
X120713896Y-87542127D01*
X120800000Y-87525000D01*
X121250000Y-87525000D01*
X121336104Y-87542127D01*
G37*
G36*
X115723576Y-87835657D02*
G01*
X115768995Y-87866005D01*
X115799343Y-87911424D01*
X115810000Y-87965000D01*
X115810000Y-88245000D01*
X115799343Y-88298576D01*
X115768995Y-88343995D01*
X115723576Y-88374343D01*
X115670000Y-88385000D01*
X115330000Y-88385000D01*
X115276424Y-88374343D01*
X115231005Y-88343995D01*
X115200657Y-88298576D01*
X115190000Y-88245000D01*
X115190000Y-87965000D01*
X115200657Y-87911424D01*
X115231005Y-87866005D01*
X115276424Y-87835657D01*
X115330000Y-87825000D01*
X115670000Y-87825000D01*
X115723576Y-87835657D01*
G37*
G36*
X122676662Y-87690276D02*
G01*
X122720459Y-87719541D01*
X122749724Y-87763338D01*
X122760000Y-87815000D01*
X122760000Y-88185000D01*
X122749724Y-88236662D01*
X122720459Y-88280459D01*
X122676662Y-88309724D01*
X122625000Y-88320000D01*
X122355000Y-88320000D01*
X122303338Y-88309724D01*
X122259541Y-88280459D01*
X122230276Y-88236662D01*
X122220000Y-88185000D01*
X122220000Y-87815000D01*
X122230276Y-87763338D01*
X122259541Y-87719541D01*
X122303338Y-87690276D01*
X122355000Y-87680000D01*
X122625000Y-87680000D01*
X122676662Y-87690276D01*
G37*
G36*
X123696662Y-87690276D02*
G01*
X123740459Y-87719541D01*
X123769724Y-87763338D01*
X123780000Y-87815000D01*
X123780000Y-88185000D01*
X123769724Y-88236662D01*
X123740459Y-88280459D01*
X123696662Y-88309724D01*
X123645000Y-88320000D01*
X123375000Y-88320000D01*
X123323338Y-88309724D01*
X123279541Y-88280459D01*
X123250276Y-88236662D01*
X123240000Y-88185000D01*
X123240000Y-87815000D01*
X123250276Y-87763338D01*
X123279541Y-87719541D01*
X123323338Y-87690276D01*
X123375000Y-87680000D01*
X123645000Y-87680000D01*
X123696662Y-87690276D01*
G37*
G36*
X124676662Y-87690276D02*
G01*
X124720459Y-87719541D01*
X124749724Y-87763338D01*
X124760000Y-87815000D01*
X124760000Y-88185000D01*
X124749724Y-88236662D01*
X124720459Y-88280459D01*
X124676662Y-88309724D01*
X124625000Y-88320000D01*
X124355000Y-88320000D01*
X124303338Y-88309724D01*
X124259541Y-88280459D01*
X124230276Y-88236662D01*
X124220000Y-88185000D01*
X124220000Y-87815000D01*
X124230276Y-87763338D01*
X124259541Y-87719541D01*
X124303338Y-87690276D01*
X124355000Y-87680000D01*
X124625000Y-87680000D01*
X124676662Y-87690276D01*
G37*
G36*
X125696662Y-87690276D02*
G01*
X125740459Y-87719541D01*
X125769724Y-87763338D01*
X125780000Y-87815000D01*
X125780000Y-88185000D01*
X125769724Y-88236662D01*
X125740459Y-88280459D01*
X125696662Y-88309724D01*
X125645000Y-88320000D01*
X125375000Y-88320000D01*
X125323338Y-88309724D01*
X125279541Y-88280459D01*
X125250276Y-88236662D01*
X125240000Y-88185000D01*
X125240000Y-87815000D01*
X125250276Y-87763338D01*
X125279541Y-87719541D01*
X125323338Y-87690276D01*
X125375000Y-87680000D01*
X125645000Y-87680000D01*
X125696662Y-87690276D01*
G37*
G36*
X126676662Y-87690276D02*
G01*
X126720459Y-87719541D01*
X126749724Y-87763338D01*
X126760000Y-87815000D01*
X126760000Y-88185000D01*
X126749724Y-88236662D01*
X126720459Y-88280459D01*
X126676662Y-88309724D01*
X126625000Y-88320000D01*
X126355000Y-88320000D01*
X126303338Y-88309724D01*
X126259541Y-88280459D01*
X126230276Y-88236662D01*
X126220000Y-88185000D01*
X126220000Y-87815000D01*
X126230276Y-87763338D01*
X126259541Y-87719541D01*
X126303338Y-87690276D01*
X126355000Y-87680000D01*
X126625000Y-87680000D01*
X126676662Y-87690276D01*
G37*
G36*
X127696662Y-87690276D02*
G01*
X127740459Y-87719541D01*
X127769724Y-87763338D01*
X127780000Y-87815000D01*
X127780000Y-88185000D01*
X127769724Y-88236662D01*
X127740459Y-88280459D01*
X127696662Y-88309724D01*
X127645000Y-88320000D01*
X127375000Y-88320000D01*
X127323338Y-88309724D01*
X127279541Y-88280459D01*
X127250276Y-88236662D01*
X127240000Y-88185000D01*
X127240000Y-87815000D01*
X127250276Y-87763338D01*
X127279541Y-87719541D01*
X127323338Y-87690276D01*
X127375000Y-87680000D01*
X127645000Y-87680000D01*
X127696662Y-87690276D01*
G37*
G36*
X129926662Y-87690276D02*
G01*
X129970459Y-87719541D01*
X129999724Y-87763338D01*
X130010000Y-87815000D01*
X130010000Y-88185000D01*
X129999724Y-88236662D01*
X129970459Y-88280459D01*
X129926662Y-88309724D01*
X129875000Y-88320000D01*
X129605000Y-88320000D01*
X129553338Y-88309724D01*
X129509541Y-88280459D01*
X129480276Y-88236662D01*
X129470000Y-88185000D01*
X129470000Y-87815000D01*
X129480276Y-87763338D01*
X129509541Y-87719541D01*
X129553338Y-87690276D01*
X129605000Y-87680000D01*
X129875000Y-87680000D01*
X129926662Y-87690276D01*
G37*
G36*
X130946662Y-87690276D02*
G01*
X130990459Y-87719541D01*
X131019724Y-87763338D01*
X131030000Y-87815000D01*
X131030000Y-88185000D01*
X131019724Y-88236662D01*
X130990459Y-88280459D01*
X130946662Y-88309724D01*
X130895000Y-88320000D01*
X130625000Y-88320000D01*
X130573338Y-88309724D01*
X130529541Y-88280459D01*
X130500276Y-88236662D01*
X130490000Y-88185000D01*
X130490000Y-87815000D01*
X130500276Y-87763338D01*
X130529541Y-87719541D01*
X130573338Y-87690276D01*
X130625000Y-87680000D01*
X130895000Y-87680000D01*
X130946662Y-87690276D01*
G37*
G36*
X132176662Y-87690276D02*
G01*
X132220459Y-87719541D01*
X132249724Y-87763338D01*
X132260000Y-87815000D01*
X132260000Y-88185000D01*
X132249724Y-88236662D01*
X132220459Y-88280459D01*
X132176662Y-88309724D01*
X132125000Y-88320000D01*
X131855000Y-88320000D01*
X131803338Y-88309724D01*
X131759541Y-88280459D01*
X131730276Y-88236662D01*
X131720000Y-88185000D01*
X131720000Y-87815000D01*
X131730276Y-87763338D01*
X131759541Y-87719541D01*
X131803338Y-87690276D01*
X131855000Y-87680000D01*
X132125000Y-87680000D01*
X132176662Y-87690276D01*
G37*
G36*
X133196662Y-87690276D02*
G01*
X133240459Y-87719541D01*
X133269724Y-87763338D01*
X133280000Y-87815000D01*
X133280000Y-88185000D01*
X133269724Y-88236662D01*
X133240459Y-88280459D01*
X133196662Y-88309724D01*
X133145000Y-88320000D01*
X132875000Y-88320000D01*
X132823338Y-88309724D01*
X132779541Y-88280459D01*
X132750276Y-88236662D01*
X132740000Y-88185000D01*
X132740000Y-87815000D01*
X132750276Y-87763338D01*
X132779541Y-87719541D01*
X132823338Y-87690276D01*
X132875000Y-87680000D01*
X133145000Y-87680000D01*
X133196662Y-87690276D01*
G37*
G36*
X172656662Y-87690276D02*
G01*
X172700459Y-87719541D01*
X172729724Y-87763338D01*
X172740000Y-87815000D01*
X172740000Y-88185000D01*
X172729724Y-88236662D01*
X172700459Y-88280459D01*
X172656662Y-88309724D01*
X172605000Y-88320000D01*
X172335000Y-88320000D01*
X172283338Y-88309724D01*
X172239541Y-88280459D01*
X172210276Y-88236662D01*
X172200000Y-88185000D01*
X172200000Y-87815000D01*
X172210276Y-87763338D01*
X172239541Y-87719541D01*
X172283338Y-87690276D01*
X172335000Y-87680000D01*
X172605000Y-87680000D01*
X172656662Y-87690276D01*
G37*
G36*
X173676662Y-87690276D02*
G01*
X173720459Y-87719541D01*
X173749724Y-87763338D01*
X173760000Y-87815000D01*
X173760000Y-88185000D01*
X173749724Y-88236662D01*
X173720459Y-88280459D01*
X173676662Y-88309724D01*
X173625000Y-88320000D01*
X173355000Y-88320000D01*
X173303338Y-88309724D01*
X173259541Y-88280459D01*
X173230276Y-88236662D01*
X173220000Y-88185000D01*
X173220000Y-87815000D01*
X173230276Y-87763338D01*
X173259541Y-87719541D01*
X173303338Y-87690276D01*
X173355000Y-87680000D01*
X173625000Y-87680000D01*
X173676662Y-87690276D01*
G37*
G36*
X134463576Y-87700657D02*
G01*
X134508995Y-87731005D01*
X134539343Y-87776424D01*
X134550000Y-87830000D01*
X134550000Y-88170000D01*
X134539343Y-88223576D01*
X134508995Y-88268995D01*
X134463576Y-88299343D01*
X134410000Y-88310000D01*
X134130000Y-88310000D01*
X134076424Y-88299343D01*
X134031005Y-88268995D01*
X134000657Y-88223576D01*
X133990000Y-88170000D01*
X133990000Y-87830000D01*
X134000657Y-87776424D01*
X134031005Y-87731005D01*
X134076424Y-87700657D01*
X134130000Y-87690000D01*
X134410000Y-87690000D01*
X134463576Y-87700657D01*
G37*
G36*
X135423576Y-87700657D02*
G01*
X135468995Y-87731005D01*
X135499343Y-87776424D01*
X135510000Y-87830000D01*
X135510000Y-88170000D01*
X135499343Y-88223576D01*
X135468995Y-88268995D01*
X135423576Y-88299343D01*
X135370000Y-88310000D01*
X135090000Y-88310000D01*
X135036424Y-88299343D01*
X134991005Y-88268995D01*
X134960657Y-88223576D01*
X134950000Y-88170000D01*
X134950000Y-87830000D01*
X134960657Y-87776424D01*
X134991005Y-87731005D01*
X135036424Y-87700657D01*
X135090000Y-87690000D01*
X135370000Y-87690000D01*
X135423576Y-87700657D01*
G37*
G36*
X104550000Y-88300000D02*
G01*
X102950000Y-88300000D01*
X102950000Y-86700000D01*
X104550000Y-86700000D01*
X104550000Y-88300000D01*
G37*
G36*
X106522228Y-86734448D02*
G01*
X106667117Y-86794463D01*
X106797515Y-86881592D01*
X106908408Y-86992485D01*
X106995537Y-87122883D01*
X107055552Y-87267772D01*
X107086148Y-87421586D01*
X107086148Y-87578414D01*
X107055552Y-87732228D01*
X106995537Y-87877117D01*
X106908408Y-88007515D01*
X106797515Y-88118408D01*
X106667117Y-88205537D01*
X106522228Y-88265552D01*
X106368414Y-88296148D01*
X106211586Y-88296148D01*
X106057772Y-88265552D01*
X105912883Y-88205537D01*
X105782485Y-88118408D01*
X105671592Y-88007515D01*
X105584463Y-87877117D01*
X105524448Y-87732228D01*
X105493852Y-87578414D01*
X105493852Y-87421586D01*
X105524448Y-87267772D01*
X105584463Y-87122883D01*
X105671592Y-86992485D01*
X105782485Y-86881592D01*
X105912883Y-86794463D01*
X106057772Y-86734448D01*
X106211586Y-86703852D01*
X106368414Y-86703852D01*
X106522228Y-86734448D01*
G37*
G36*
X109062228Y-86734448D02*
G01*
X109207117Y-86794463D01*
X109337515Y-86881592D01*
X109448408Y-86992485D01*
X109535537Y-87122883D01*
X109595552Y-87267772D01*
X109626148Y-87421586D01*
X109626148Y-87578414D01*
X109595552Y-87732228D01*
X109535537Y-87877117D01*
X109448408Y-88007515D01*
X109337515Y-88118408D01*
X109207117Y-88205537D01*
X109062228Y-88265552D01*
X108908414Y-88296148D01*
X108751586Y-88296148D01*
X108597772Y-88265552D01*
X108452883Y-88205537D01*
X108322485Y-88118408D01*
X108211592Y-88007515D01*
X108124463Y-87877117D01*
X108064448Y-87732228D01*
X108033852Y-87578414D01*
X108033852Y-87421586D01*
X108064448Y-87267772D01*
X108124463Y-87122883D01*
X108211592Y-86992485D01*
X108322485Y-86881592D01*
X108452883Y-86794463D01*
X108597772Y-86734448D01*
X108751586Y-86703852D01*
X108908414Y-86703852D01*
X109062228Y-86734448D01*
G37*
G36*
X111602228Y-86734448D02*
G01*
X111747117Y-86794463D01*
X111877515Y-86881592D01*
X111988408Y-86992485D01*
X112075537Y-87122883D01*
X112135552Y-87267772D01*
X112166148Y-87421586D01*
X112166148Y-87578414D01*
X112135552Y-87732228D01*
X112075537Y-87877117D01*
X111988408Y-88007515D01*
X111877515Y-88118408D01*
X111747117Y-88205537D01*
X111602228Y-88265552D01*
X111448414Y-88296148D01*
X111291586Y-88296148D01*
X111137772Y-88265552D01*
X110992883Y-88205537D01*
X110862485Y-88118408D01*
X110751592Y-88007515D01*
X110664463Y-87877117D01*
X110604448Y-87732228D01*
X110573852Y-87578414D01*
X110573852Y-87421586D01*
X110604448Y-87267772D01*
X110664463Y-87122883D01*
X110751592Y-86992485D01*
X110862485Y-86881592D01*
X110992883Y-86794463D01*
X111137772Y-86734448D01*
X111291586Y-86703852D01*
X111448414Y-86703852D01*
X111602228Y-86734448D01*
G37*
G36*
X114142228Y-86734448D02*
G01*
X114287117Y-86794463D01*
X114417515Y-86881592D01*
X114528408Y-86992485D01*
X114615537Y-87122883D01*
X114675552Y-87267772D01*
X114706148Y-87421586D01*
X114706148Y-87578414D01*
X114675552Y-87732228D01*
X114615537Y-87877117D01*
X114528408Y-88007515D01*
X114417515Y-88118408D01*
X114287117Y-88205537D01*
X114142228Y-88265552D01*
X113988414Y-88296148D01*
X113831586Y-88296148D01*
X113677772Y-88265552D01*
X113532883Y-88205537D01*
X113402485Y-88118408D01*
X113291592Y-88007515D01*
X113204463Y-87877117D01*
X113144448Y-87732228D01*
X113113852Y-87578414D01*
X113113852Y-87421586D01*
X113144448Y-87267772D01*
X113204463Y-87122883D01*
X113291592Y-86992485D01*
X113402485Y-86881592D01*
X113532883Y-86794463D01*
X113677772Y-86734448D01*
X113831586Y-86703852D01*
X113988414Y-86703852D01*
X114142228Y-86734448D01*
G37*
G36*
X115723576Y-86875657D02*
G01*
X115768995Y-86906005D01*
X115799343Y-86951424D01*
X115810000Y-87005000D01*
X115810000Y-87285000D01*
X115799343Y-87338576D01*
X115768995Y-87383995D01*
X115723576Y-87414343D01*
X115670000Y-87425000D01*
X115330000Y-87425000D01*
X115276424Y-87414343D01*
X115231005Y-87383995D01*
X115200657Y-87338576D01*
X115190000Y-87285000D01*
X115190000Y-87005000D01*
X115200657Y-86951424D01*
X115231005Y-86906005D01*
X115276424Y-86875657D01*
X115330000Y-86865000D01*
X115670000Y-86865000D01*
X115723576Y-86875657D01*
G37*
G36*
X131595985Y-86331661D02*
G01*
X131624372Y-86350628D01*
X131643339Y-86379015D01*
X131650000Y-86412500D01*
X131650000Y-86587500D01*
X131643339Y-86620985D01*
X131624372Y-86649372D01*
X131595985Y-86668339D01*
X131562500Y-86675000D01*
X130237500Y-86675000D01*
X130204015Y-86668339D01*
X130175628Y-86649372D01*
X130156661Y-86620985D01*
X130150000Y-86587500D01*
X130150000Y-86412500D01*
X130156661Y-86379015D01*
X130175628Y-86350628D01*
X130204015Y-86331661D01*
X130237500Y-86325000D01*
X131562500Y-86325000D01*
X131595985Y-86331661D01*
G37*
G36*
X135795985Y-86331661D02*
G01*
X135824372Y-86350628D01*
X135843339Y-86379015D01*
X135850000Y-86412500D01*
X135850000Y-86587500D01*
X135843339Y-86620985D01*
X135824372Y-86649372D01*
X135795985Y-86668339D01*
X135762500Y-86675000D01*
X134437500Y-86675000D01*
X134404015Y-86668339D01*
X134375628Y-86649372D01*
X134356661Y-86620985D01*
X134350000Y-86587500D01*
X134350000Y-86412500D01*
X134356661Y-86379015D01*
X134375628Y-86350628D01*
X134404015Y-86331661D01*
X134437500Y-86325000D01*
X135762500Y-86325000D01*
X135795985Y-86331661D01*
G37*
G36*
X118853701Y-84905709D02*
G01*
X118878033Y-84921967D01*
X118894291Y-84946299D01*
X118900000Y-84975000D01*
X118900000Y-86375000D01*
X118894291Y-86403701D01*
X118878033Y-86428033D01*
X118853701Y-86444291D01*
X118825000Y-86450000D01*
X118675000Y-86450000D01*
X118646299Y-86444291D01*
X118621967Y-86428033D01*
X118605709Y-86403701D01*
X118600000Y-86375000D01*
X118600000Y-84975000D01*
X118605709Y-84946299D01*
X118621967Y-84921967D01*
X118646299Y-84905709D01*
X118675000Y-84900000D01*
X118825000Y-84900000D01*
X118853701Y-84905709D01*
G37*
G36*
X119353701Y-84905709D02*
G01*
X119378033Y-84921967D01*
X119394291Y-84946299D01*
X119400000Y-84975000D01*
X119400000Y-86375000D01*
X119394291Y-86403701D01*
X119378033Y-86428033D01*
X119353701Y-86444291D01*
X119325000Y-86450000D01*
X119175000Y-86450000D01*
X119146299Y-86444291D01*
X119121967Y-86428033D01*
X119105709Y-86403701D01*
X119100000Y-86375000D01*
X119100000Y-84975000D01*
X119105709Y-84946299D01*
X119121967Y-84921967D01*
X119146299Y-84905709D01*
X119175000Y-84900000D01*
X119325000Y-84900000D01*
X119353701Y-84905709D01*
G37*
G36*
X119853701Y-84905709D02*
G01*
X119878033Y-84921967D01*
X119894291Y-84946299D01*
X119900000Y-84975000D01*
X119900000Y-86375000D01*
X119894291Y-86403701D01*
X119878033Y-86428033D01*
X119853701Y-86444291D01*
X119825000Y-86450000D01*
X119675000Y-86450000D01*
X119646299Y-86444291D01*
X119621967Y-86428033D01*
X119605709Y-86403701D01*
X119600000Y-86375000D01*
X119600000Y-84975000D01*
X119605709Y-84946299D01*
X119621967Y-84921967D01*
X119646299Y-84905709D01*
X119675000Y-84900000D01*
X119825000Y-84900000D01*
X119853701Y-84905709D01*
G37*
G36*
X120353701Y-84905709D02*
G01*
X120378033Y-84921967D01*
X120394291Y-84946299D01*
X120400000Y-84975000D01*
X120400000Y-86375000D01*
X120394291Y-86403701D01*
X120378033Y-86428033D01*
X120353701Y-86444291D01*
X120325000Y-86450000D01*
X120175000Y-86450000D01*
X120146299Y-86444291D01*
X120121967Y-86428033D01*
X120105709Y-86403701D01*
X120100000Y-86375000D01*
X120100000Y-84975000D01*
X120105709Y-84946299D01*
X120121967Y-84921967D01*
X120146299Y-84905709D01*
X120175000Y-84900000D01*
X120325000Y-84900000D01*
X120353701Y-84905709D01*
G37*
G36*
X120853701Y-84905709D02*
G01*
X120878033Y-84921967D01*
X120894291Y-84946299D01*
X120900000Y-84975000D01*
X120900000Y-86375000D01*
X120894291Y-86403701D01*
X120878033Y-86428033D01*
X120853701Y-86444291D01*
X120825000Y-86450000D01*
X120675000Y-86450000D01*
X120646299Y-86444291D01*
X120621967Y-86428033D01*
X120605709Y-86403701D01*
X120600000Y-86375000D01*
X120600000Y-84975000D01*
X120605709Y-84946299D01*
X120621967Y-84921967D01*
X120646299Y-84905709D01*
X120675000Y-84900000D01*
X120825000Y-84900000D01*
X120853701Y-84905709D01*
G37*
G36*
X121353701Y-84905709D02*
G01*
X121378033Y-84921967D01*
X121394291Y-84946299D01*
X121400000Y-84975000D01*
X121400000Y-86375000D01*
X121394291Y-86403701D01*
X121378033Y-86428033D01*
X121353701Y-86444291D01*
X121325000Y-86450000D01*
X121175000Y-86450000D01*
X121146299Y-86444291D01*
X121121967Y-86428033D01*
X121105709Y-86403701D01*
X121100000Y-86375000D01*
X121100000Y-84975000D01*
X121105709Y-84946299D01*
X121121967Y-84921967D01*
X121146299Y-84905709D01*
X121175000Y-84900000D01*
X121325000Y-84900000D01*
X121353701Y-84905709D01*
G37*
G36*
X121853701Y-84905709D02*
G01*
X121878033Y-84921967D01*
X121894291Y-84946299D01*
X121900000Y-84975000D01*
X121900000Y-86375000D01*
X121894291Y-86403701D01*
X121878033Y-86428033D01*
X121853701Y-86444291D01*
X121825000Y-86450000D01*
X121675000Y-86450000D01*
X121646299Y-86444291D01*
X121621967Y-86428033D01*
X121605709Y-86403701D01*
X121600000Y-86375000D01*
X121600000Y-84975000D01*
X121605709Y-84946299D01*
X121621967Y-84921967D01*
X121646299Y-84905709D01*
X121675000Y-84900000D01*
X121825000Y-84900000D01*
X121853701Y-84905709D01*
G37*
G36*
X122353701Y-84905709D02*
G01*
X122378033Y-84921967D01*
X122394291Y-84946299D01*
X122400000Y-84975000D01*
X122400000Y-86375000D01*
X122394291Y-86403701D01*
X122378033Y-86428033D01*
X122353701Y-86444291D01*
X122325000Y-86450000D01*
X122175000Y-86450000D01*
X122146299Y-86444291D01*
X122121967Y-86428033D01*
X122105709Y-86403701D01*
X122100000Y-86375000D01*
X122100000Y-84975000D01*
X122105709Y-84946299D01*
X122121967Y-84921967D01*
X122146299Y-84905709D01*
X122175000Y-84900000D01*
X122325000Y-84900000D01*
X122353701Y-84905709D01*
G37*
G36*
X122853701Y-84905709D02*
G01*
X122878033Y-84921967D01*
X122894291Y-84946299D01*
X122900000Y-84975000D01*
X122900000Y-86375000D01*
X122894291Y-86403701D01*
X122878033Y-86428033D01*
X122853701Y-86444291D01*
X122825000Y-86450000D01*
X122675000Y-86450000D01*
X122646299Y-86444291D01*
X122621967Y-86428033D01*
X122605709Y-86403701D01*
X122600000Y-86375000D01*
X122600000Y-84975000D01*
X122605709Y-84946299D01*
X122621967Y-84921967D01*
X122646299Y-84905709D01*
X122675000Y-84900000D01*
X122825000Y-84900000D01*
X122853701Y-84905709D01*
G37*
G36*
X123353701Y-84905709D02*
G01*
X123378033Y-84921967D01*
X123394291Y-84946299D01*
X123400000Y-84975000D01*
X123400000Y-86375000D01*
X123394291Y-86403701D01*
X123378033Y-86428033D01*
X123353701Y-86444291D01*
X123325000Y-86450000D01*
X123175000Y-86450000D01*
X123146299Y-86444291D01*
X123121967Y-86428033D01*
X123105709Y-86403701D01*
X123100000Y-86375000D01*
X123100000Y-84975000D01*
X123105709Y-84946299D01*
X123121967Y-84921967D01*
X123146299Y-84905709D01*
X123175000Y-84900000D01*
X123325000Y-84900000D01*
X123353701Y-84905709D01*
G37*
G36*
X123853701Y-84905709D02*
G01*
X123878033Y-84921967D01*
X123894291Y-84946299D01*
X123900000Y-84975000D01*
X123900000Y-86375000D01*
X123894291Y-86403701D01*
X123878033Y-86428033D01*
X123853701Y-86444291D01*
X123825000Y-86450000D01*
X123675000Y-86450000D01*
X123646299Y-86444291D01*
X123621967Y-86428033D01*
X123605709Y-86403701D01*
X123600000Y-86375000D01*
X123600000Y-84975000D01*
X123605709Y-84946299D01*
X123621967Y-84921967D01*
X123646299Y-84905709D01*
X123675000Y-84900000D01*
X123825000Y-84900000D01*
X123853701Y-84905709D01*
G37*
G36*
X124353701Y-84905709D02*
G01*
X124378033Y-84921967D01*
X124394291Y-84946299D01*
X124400000Y-84975000D01*
X124400000Y-86375000D01*
X124394291Y-86403701D01*
X124378033Y-86428033D01*
X124353701Y-86444291D01*
X124325000Y-86450000D01*
X124175000Y-86450000D01*
X124146299Y-86444291D01*
X124121967Y-86428033D01*
X124105709Y-86403701D01*
X124100000Y-86375000D01*
X124100000Y-84975000D01*
X124105709Y-84946299D01*
X124121967Y-84921967D01*
X124146299Y-84905709D01*
X124175000Y-84900000D01*
X124325000Y-84900000D01*
X124353701Y-84905709D01*
G37*
G36*
X124853701Y-84905709D02*
G01*
X124878033Y-84921967D01*
X124894291Y-84946299D01*
X124900000Y-84975000D01*
X124900000Y-86375000D01*
X124894291Y-86403701D01*
X124878033Y-86428033D01*
X124853701Y-86444291D01*
X124825000Y-86450000D01*
X124675000Y-86450000D01*
X124646299Y-86444291D01*
X124621967Y-86428033D01*
X124605709Y-86403701D01*
X124600000Y-86375000D01*
X124600000Y-84975000D01*
X124605709Y-84946299D01*
X124621967Y-84921967D01*
X124646299Y-84905709D01*
X124675000Y-84900000D01*
X124825000Y-84900000D01*
X124853701Y-84905709D01*
G37*
G36*
X125353701Y-84905709D02*
G01*
X125378033Y-84921967D01*
X125394291Y-84946299D01*
X125400000Y-84975000D01*
X125400000Y-86375000D01*
X125394291Y-86403701D01*
X125378033Y-86428033D01*
X125353701Y-86444291D01*
X125325000Y-86450000D01*
X125175000Y-86450000D01*
X125146299Y-86444291D01*
X125121967Y-86428033D01*
X125105709Y-86403701D01*
X125100000Y-86375000D01*
X125100000Y-84975000D01*
X125105709Y-84946299D01*
X125121967Y-84921967D01*
X125146299Y-84905709D01*
X125175000Y-84900000D01*
X125325000Y-84900000D01*
X125353701Y-84905709D01*
G37*
G36*
X125853701Y-84905709D02*
G01*
X125878033Y-84921967D01*
X125894291Y-84946299D01*
X125900000Y-84975000D01*
X125900000Y-86375000D01*
X125894291Y-86403701D01*
X125878033Y-86428033D01*
X125853701Y-86444291D01*
X125825000Y-86450000D01*
X125675000Y-86450000D01*
X125646299Y-86444291D01*
X125621967Y-86428033D01*
X125605709Y-86403701D01*
X125600000Y-86375000D01*
X125600000Y-84975000D01*
X125605709Y-84946299D01*
X125621967Y-84921967D01*
X125646299Y-84905709D01*
X125675000Y-84900000D01*
X125825000Y-84900000D01*
X125853701Y-84905709D01*
G37*
G36*
X126353701Y-84905709D02*
G01*
X126378033Y-84921967D01*
X126394291Y-84946299D01*
X126400000Y-84975000D01*
X126400000Y-86375000D01*
X126394291Y-86403701D01*
X126378033Y-86428033D01*
X126353701Y-86444291D01*
X126325000Y-86450000D01*
X126175000Y-86450000D01*
X126146299Y-86444291D01*
X126121967Y-86428033D01*
X126105709Y-86403701D01*
X126100000Y-86375000D01*
X126100000Y-84975000D01*
X126105709Y-84946299D01*
X126121967Y-84921967D01*
X126146299Y-84905709D01*
X126175000Y-84900000D01*
X126325000Y-84900000D01*
X126353701Y-84905709D01*
G37*
G36*
X137704047Y-85400805D02*
G01*
X137755408Y-85406764D01*
X137772954Y-85414511D01*
X137795671Y-85419030D01*
X137819991Y-85435280D01*
X137840793Y-85444465D01*
X137855000Y-85458672D01*
X137876777Y-85473223D01*
X137891327Y-85494999D01*
X137905534Y-85509206D01*
X137914718Y-85530006D01*
X137930970Y-85554329D01*
X137935489Y-85577048D01*
X137943235Y-85594591D01*
X137949192Y-85645940D01*
X137950000Y-85650000D01*
X137950000Y-86175000D01*
X137949192Y-86179059D01*
X137943235Y-86230408D01*
X137935489Y-86247950D01*
X137930970Y-86270671D01*
X137914716Y-86294995D01*
X137905534Y-86315793D01*
X137891329Y-86329997D01*
X137876777Y-86351777D01*
X137854997Y-86366329D01*
X137840793Y-86380534D01*
X137819995Y-86389716D01*
X137795671Y-86405970D01*
X137772950Y-86410489D01*
X137755408Y-86418235D01*
X137704061Y-86424192D01*
X137700000Y-86425000D01*
X136800000Y-86425000D01*
X136795941Y-86424192D01*
X136744591Y-86418235D01*
X136727048Y-86410489D01*
X136704329Y-86405970D01*
X136680006Y-86389718D01*
X136659206Y-86380534D01*
X136644999Y-86366327D01*
X136623223Y-86351777D01*
X136608672Y-86330000D01*
X136594465Y-86315793D01*
X136585280Y-86294991D01*
X136569030Y-86270671D01*
X136564511Y-86247954D01*
X136556764Y-86230408D01*
X136550805Y-86179049D01*
X136550000Y-86175000D01*
X136550000Y-85650000D01*
X136550804Y-85645953D01*
X136556764Y-85594591D01*
X136564511Y-85577043D01*
X136569030Y-85554329D01*
X136585278Y-85530010D01*
X136594465Y-85509206D01*
X136608674Y-85494996D01*
X136623223Y-85473223D01*
X136644996Y-85458674D01*
X136659206Y-85444465D01*
X136680010Y-85435278D01*
X136704329Y-85419030D01*
X136727043Y-85414511D01*
X136744591Y-85406764D01*
X136795952Y-85400805D01*
X136800000Y-85400000D01*
X137700000Y-85400000D01*
X137704047Y-85400805D01*
G37*
G36*
X139676662Y-85690276D02*
G01*
X139720459Y-85719541D01*
X139749724Y-85763338D01*
X139760000Y-85815000D01*
X139760000Y-86185000D01*
X139749724Y-86236662D01*
X139720459Y-86280459D01*
X139676662Y-86309724D01*
X139625000Y-86320000D01*
X139355000Y-86320000D01*
X139303338Y-86309724D01*
X139259541Y-86280459D01*
X139230276Y-86236662D01*
X139220000Y-86185000D01*
X139220000Y-85815000D01*
X139230276Y-85763338D01*
X139259541Y-85719541D01*
X139303338Y-85690276D01*
X139355000Y-85680000D01*
X139625000Y-85680000D01*
X139676662Y-85690276D01*
G37*
G36*
X140696662Y-85690276D02*
G01*
X140740459Y-85719541D01*
X140769724Y-85763338D01*
X140780000Y-85815000D01*
X140780000Y-86185000D01*
X140769724Y-86236662D01*
X140740459Y-86280459D01*
X140696662Y-86309724D01*
X140645000Y-86320000D01*
X140375000Y-86320000D01*
X140323338Y-86309724D01*
X140279541Y-86280459D01*
X140250276Y-86236662D01*
X140240000Y-86185000D01*
X140240000Y-85815000D01*
X140250276Y-85763338D01*
X140279541Y-85719541D01*
X140323338Y-85690276D01*
X140375000Y-85680000D01*
X140645000Y-85680000D01*
X140696662Y-85690276D01*
G37*
G36*
X141676662Y-85690276D02*
G01*
X141720459Y-85719541D01*
X141749724Y-85763338D01*
X141760000Y-85815000D01*
X141760000Y-86185000D01*
X141749724Y-86236662D01*
X141720459Y-86280459D01*
X141676662Y-86309724D01*
X141625000Y-86320000D01*
X141355000Y-86320000D01*
X141303338Y-86309724D01*
X141259541Y-86280459D01*
X141230276Y-86236662D01*
X141220000Y-86185000D01*
X141220000Y-85815000D01*
X141230276Y-85763338D01*
X141259541Y-85719541D01*
X141303338Y-85690276D01*
X141355000Y-85680000D01*
X141625000Y-85680000D01*
X141676662Y-85690276D01*
G37*
G36*
X142696662Y-85690276D02*
G01*
X142740459Y-85719541D01*
X142769724Y-85763338D01*
X142780000Y-85815000D01*
X142780000Y-86185000D01*
X142769724Y-86236662D01*
X142740459Y-86280459D01*
X142696662Y-86309724D01*
X142645000Y-86320000D01*
X142375000Y-86320000D01*
X142323338Y-86309724D01*
X142279541Y-86280459D01*
X142250276Y-86236662D01*
X142240000Y-86185000D01*
X142240000Y-85815000D01*
X142250276Y-85763338D01*
X142279541Y-85719541D01*
X142323338Y-85690276D01*
X142375000Y-85680000D01*
X142645000Y-85680000D01*
X142696662Y-85690276D01*
G37*
G36*
X131595985Y-85831661D02*
G01*
X131624372Y-85850628D01*
X131643339Y-85879015D01*
X131650000Y-85912500D01*
X131650000Y-86087500D01*
X131643339Y-86120985D01*
X131624372Y-86149372D01*
X131595985Y-86168339D01*
X131562500Y-86175000D01*
X130237500Y-86175000D01*
X130204015Y-86168339D01*
X130175628Y-86149372D01*
X130156661Y-86120985D01*
X130150000Y-86087500D01*
X130150000Y-85912500D01*
X130156661Y-85879015D01*
X130175628Y-85850628D01*
X130204015Y-85831661D01*
X130237500Y-85825000D01*
X131562500Y-85825000D01*
X131595985Y-85831661D01*
G37*
G36*
X135795985Y-85831661D02*
G01*
X135824372Y-85850628D01*
X135843339Y-85879015D01*
X135850000Y-85912500D01*
X135850000Y-86087500D01*
X135843339Y-86120985D01*
X135824372Y-86149372D01*
X135795985Y-86168339D01*
X135762500Y-86175000D01*
X134437500Y-86175000D01*
X134404015Y-86168339D01*
X134375628Y-86149372D01*
X134356661Y-86120985D01*
X134350000Y-86087500D01*
X134350000Y-85912500D01*
X134356661Y-85879015D01*
X134375628Y-85850628D01*
X134404015Y-85831661D01*
X134437500Y-85825000D01*
X135762500Y-85825000D01*
X135795985Y-85831661D01*
G37*
G36*
X112976662Y-85190276D02*
G01*
X113020459Y-85219541D01*
X113049724Y-85263338D01*
X113060000Y-85315000D01*
X113060000Y-85685000D01*
X113049724Y-85736662D01*
X113020459Y-85780459D01*
X112976662Y-85809724D01*
X112925000Y-85820000D01*
X112655000Y-85820000D01*
X112603338Y-85809724D01*
X112559541Y-85780459D01*
X112530276Y-85736662D01*
X112520000Y-85685000D01*
X112520000Y-85315000D01*
X112530276Y-85263338D01*
X112559541Y-85219541D01*
X112603338Y-85190276D01*
X112655000Y-85180000D01*
X112925000Y-85180000D01*
X112976662Y-85190276D01*
G37*
G36*
X113996662Y-85190276D02*
G01*
X114040459Y-85219541D01*
X114069724Y-85263338D01*
X114080000Y-85315000D01*
X114080000Y-85685000D01*
X114069724Y-85736662D01*
X114040459Y-85780459D01*
X113996662Y-85809724D01*
X113945000Y-85820000D01*
X113675000Y-85820000D01*
X113623338Y-85809724D01*
X113579541Y-85780459D01*
X113550276Y-85736662D01*
X113540000Y-85685000D01*
X113540000Y-85315000D01*
X113550276Y-85263338D01*
X113579541Y-85219541D01*
X113623338Y-85190276D01*
X113675000Y-85180000D01*
X113945000Y-85180000D01*
X113996662Y-85190276D01*
G37*
G36*
X105451537Y-84790224D02*
G01*
X105516421Y-84833579D01*
X105559776Y-84898463D01*
X105575000Y-84975000D01*
X105575000Y-85525000D01*
X105559776Y-85601537D01*
X105516421Y-85666421D01*
X105451537Y-85709776D01*
X105375000Y-85725000D01*
X104975000Y-85725000D01*
X104898463Y-85709776D01*
X104833579Y-85666421D01*
X104790224Y-85601537D01*
X104775000Y-85525000D01*
X104775000Y-84975000D01*
X104790224Y-84898463D01*
X104833579Y-84833579D01*
X104898463Y-84790224D01*
X104975000Y-84775000D01*
X105375000Y-84775000D01*
X105451537Y-84790224D01*
G37*
G36*
X107101537Y-84790224D02*
G01*
X107166421Y-84833579D01*
X107209776Y-84898463D01*
X107225000Y-84975000D01*
X107225000Y-85525000D01*
X107209776Y-85601537D01*
X107166421Y-85666421D01*
X107101537Y-85709776D01*
X107025000Y-85725000D01*
X106625000Y-85725000D01*
X106548463Y-85709776D01*
X106483579Y-85666421D01*
X106440224Y-85601537D01*
X106425000Y-85525000D01*
X106425000Y-84975000D01*
X106440224Y-84898463D01*
X106483579Y-84833579D01*
X106548463Y-84790224D01*
X106625000Y-84775000D01*
X107025000Y-84775000D01*
X107101537Y-84790224D01*
G37*
G36*
X131595985Y-85331661D02*
G01*
X131624372Y-85350628D01*
X131643339Y-85379015D01*
X131650000Y-85412500D01*
X131650000Y-85587500D01*
X131643339Y-85620985D01*
X131624372Y-85649372D01*
X131595985Y-85668339D01*
X131562500Y-85675000D01*
X130237500Y-85675000D01*
X130204015Y-85668339D01*
X130175628Y-85649372D01*
X130156661Y-85620985D01*
X130150000Y-85587500D01*
X130150000Y-85412500D01*
X130156661Y-85379015D01*
X130175628Y-85350628D01*
X130204015Y-85331661D01*
X130237500Y-85325000D01*
X131562500Y-85325000D01*
X131595985Y-85331661D01*
G37*
G36*
X135795985Y-85331661D02*
G01*
X135824372Y-85350628D01*
X135843339Y-85379015D01*
X135850000Y-85412500D01*
X135850000Y-85587500D01*
X135843339Y-85620985D01*
X135824372Y-85649372D01*
X135795985Y-85668339D01*
X135762500Y-85675000D01*
X134437500Y-85675000D01*
X134404015Y-85668339D01*
X134375628Y-85649372D01*
X134356661Y-85620985D01*
X134350000Y-85587500D01*
X134350000Y-85412500D01*
X134356661Y-85379015D01*
X134375628Y-85350628D01*
X134404015Y-85331661D01*
X134437500Y-85325000D01*
X135762500Y-85325000D01*
X135795985Y-85331661D01*
G37*
G36*
X108654047Y-84450805D02*
G01*
X108705408Y-84456764D01*
X108722954Y-84464511D01*
X108745671Y-84469030D01*
X108769991Y-84485280D01*
X108790793Y-84494465D01*
X108805000Y-84508672D01*
X108826777Y-84523223D01*
X108841327Y-84544999D01*
X108855534Y-84559206D01*
X108864718Y-84580006D01*
X108880970Y-84604329D01*
X108885489Y-84627048D01*
X108893235Y-84644591D01*
X108899192Y-84695940D01*
X108900000Y-84700000D01*
X108900000Y-85300000D01*
X108899192Y-85304059D01*
X108893235Y-85355408D01*
X108885489Y-85372950D01*
X108880970Y-85395671D01*
X108864716Y-85419995D01*
X108855534Y-85440793D01*
X108841329Y-85454997D01*
X108826777Y-85476777D01*
X108804997Y-85491329D01*
X108790793Y-85505534D01*
X108769995Y-85514716D01*
X108745671Y-85530970D01*
X108722950Y-85535489D01*
X108705408Y-85543235D01*
X108654061Y-85549192D01*
X108650000Y-85550000D01*
X108050000Y-85550000D01*
X108045941Y-85549192D01*
X107994591Y-85543235D01*
X107977048Y-85535489D01*
X107954329Y-85530970D01*
X107930006Y-85514718D01*
X107909206Y-85505534D01*
X107894999Y-85491327D01*
X107873223Y-85476777D01*
X107858672Y-85455000D01*
X107844465Y-85440793D01*
X107835280Y-85419991D01*
X107819030Y-85395671D01*
X107814511Y-85372954D01*
X107806764Y-85355408D01*
X107800805Y-85304049D01*
X107800000Y-85300000D01*
X107800000Y-84700000D01*
X107800804Y-84695953D01*
X107806764Y-84644591D01*
X107814511Y-84627043D01*
X107819030Y-84604329D01*
X107835278Y-84580010D01*
X107844465Y-84559206D01*
X107858674Y-84544996D01*
X107873223Y-84523223D01*
X107894996Y-84508674D01*
X107909206Y-84494465D01*
X107930010Y-84485278D01*
X107954329Y-84469030D01*
X107977043Y-84464511D01*
X107994591Y-84456764D01*
X108045952Y-84450805D01*
X108050000Y-84450000D01*
X108650000Y-84450000D01*
X108654047Y-84450805D01*
G37*
G36*
X111454047Y-84450805D02*
G01*
X111505408Y-84456764D01*
X111522954Y-84464511D01*
X111545671Y-84469030D01*
X111569991Y-84485280D01*
X111590793Y-84494465D01*
X111605000Y-84508672D01*
X111626777Y-84523223D01*
X111641327Y-84544999D01*
X111655534Y-84559206D01*
X111664718Y-84580006D01*
X111680970Y-84604329D01*
X111685489Y-84627048D01*
X111693235Y-84644591D01*
X111699192Y-84695940D01*
X111700000Y-84700000D01*
X111700000Y-85300000D01*
X111699192Y-85304059D01*
X111693235Y-85355408D01*
X111685489Y-85372950D01*
X111680970Y-85395671D01*
X111664716Y-85419995D01*
X111655534Y-85440793D01*
X111641329Y-85454997D01*
X111626777Y-85476777D01*
X111604997Y-85491329D01*
X111590793Y-85505534D01*
X111569995Y-85514716D01*
X111545671Y-85530970D01*
X111522950Y-85535489D01*
X111505408Y-85543235D01*
X111454061Y-85549192D01*
X111450000Y-85550000D01*
X110850000Y-85550000D01*
X110845941Y-85549192D01*
X110794591Y-85543235D01*
X110777048Y-85535489D01*
X110754329Y-85530970D01*
X110730006Y-85514718D01*
X110709206Y-85505534D01*
X110694999Y-85491327D01*
X110673223Y-85476777D01*
X110658672Y-85455000D01*
X110644465Y-85440793D01*
X110635280Y-85419991D01*
X110619030Y-85395671D01*
X110614511Y-85372954D01*
X110606764Y-85355408D01*
X110600805Y-85304049D01*
X110600000Y-85300000D01*
X110600000Y-84700000D01*
X110600804Y-84695953D01*
X110606764Y-84644591D01*
X110614511Y-84627043D01*
X110619030Y-84604329D01*
X110635278Y-84580010D01*
X110644465Y-84559206D01*
X110658674Y-84544996D01*
X110673223Y-84523223D01*
X110694996Y-84508674D01*
X110709206Y-84494465D01*
X110730010Y-84485278D01*
X110754329Y-84469030D01*
X110777043Y-84464511D01*
X110794591Y-84456764D01*
X110845952Y-84450805D01*
X110850000Y-84450000D01*
X111450000Y-84450000D01*
X111454047Y-84450805D01*
G37*
G36*
X115136662Y-84850276D02*
G01*
X115180459Y-84879541D01*
X115209724Y-84923338D01*
X115220000Y-84975000D01*
X115220000Y-85245000D01*
X115209724Y-85296662D01*
X115180459Y-85340459D01*
X115136662Y-85369724D01*
X115085000Y-85380000D01*
X114715000Y-85380000D01*
X114663338Y-85369724D01*
X114619541Y-85340459D01*
X114590276Y-85296662D01*
X114580000Y-85245000D01*
X114580000Y-84975000D01*
X114590276Y-84923338D01*
X114619541Y-84879541D01*
X114663338Y-84850276D01*
X114715000Y-84840000D01*
X115085000Y-84840000D01*
X115136662Y-84850276D01*
G37*
G36*
X102280134Y-82833156D02*
G01*
X102459220Y-82891345D01*
X102626998Y-82976832D01*
X102779338Y-83087513D01*
X102912487Y-83220662D01*
X103023168Y-83373002D01*
X103108655Y-83540780D01*
X103166844Y-83719866D01*
X103196301Y-83905849D01*
X103196301Y-84094151D01*
X103166844Y-84280134D01*
X103108655Y-84459220D01*
X103023168Y-84626998D01*
X102912487Y-84779338D01*
X102779338Y-84912487D01*
X102626998Y-85023168D01*
X102459220Y-85108655D01*
X102280134Y-85166844D01*
X102094151Y-85196301D01*
X101905849Y-85196301D01*
X101719866Y-85166844D01*
X101540780Y-85108655D01*
X101373002Y-85023168D01*
X101220662Y-84912487D01*
X101087513Y-84779338D01*
X100976832Y-84626998D01*
X100891345Y-84459220D01*
X100833156Y-84280134D01*
X100803699Y-84094151D01*
X100803699Y-83905849D01*
X100833156Y-83719866D01*
X100891345Y-83540780D01*
X100976832Y-83373002D01*
X101087513Y-83220662D01*
X101220662Y-83087513D01*
X101373002Y-82976832D01*
X101540780Y-82891345D01*
X101719866Y-82833156D01*
X101905849Y-82803699D01*
X102094151Y-82803699D01*
X102280134Y-82833156D01*
G37*
G36*
X131595985Y-84831661D02*
G01*
X131624372Y-84850628D01*
X131643339Y-84879015D01*
X131650000Y-84912500D01*
X131650000Y-85087500D01*
X131643339Y-85120985D01*
X131624372Y-85149372D01*
X131595985Y-85168339D01*
X131562500Y-85175000D01*
X130237500Y-85175000D01*
X130204015Y-85168339D01*
X130175628Y-85149372D01*
X130156661Y-85120985D01*
X130150000Y-85087500D01*
X130150000Y-84912500D01*
X130156661Y-84879015D01*
X130175628Y-84850628D01*
X130204015Y-84831661D01*
X130237500Y-84825000D01*
X131562500Y-84825000D01*
X131595985Y-84831661D01*
G37*
G36*
X135795985Y-84831661D02*
G01*
X135824372Y-84850628D01*
X135843339Y-84879015D01*
X135850000Y-84912500D01*
X135850000Y-85087500D01*
X135843339Y-85120985D01*
X135824372Y-85149372D01*
X135795985Y-85168339D01*
X135762500Y-85175000D01*
X134437500Y-85175000D01*
X134404015Y-85168339D01*
X134375628Y-85149372D01*
X134356661Y-85120985D01*
X134350000Y-85087500D01*
X134350000Y-84912500D01*
X134356661Y-84879015D01*
X134375628Y-84850628D01*
X134404015Y-84831661D01*
X134437500Y-84825000D01*
X135762500Y-84825000D01*
X135795985Y-84831661D01*
G37*
G36*
X112723576Y-84210657D02*
G01*
X112768995Y-84241005D01*
X112799343Y-84286424D01*
X112810000Y-84340000D01*
X112810000Y-84620000D01*
X112799343Y-84673576D01*
X112768995Y-84718995D01*
X112723576Y-84749343D01*
X112670000Y-84760000D01*
X112330000Y-84760000D01*
X112276424Y-84749343D01*
X112231005Y-84718995D01*
X112200657Y-84673576D01*
X112190000Y-84620000D01*
X112190000Y-84340000D01*
X112200657Y-84286424D01*
X112231005Y-84241005D01*
X112276424Y-84210657D01*
X112330000Y-84200000D01*
X112670000Y-84200000D01*
X112723576Y-84210657D01*
G37*
G36*
X131595985Y-84331661D02*
G01*
X131624372Y-84350628D01*
X131643339Y-84379015D01*
X131650000Y-84412500D01*
X131650000Y-84587500D01*
X131643339Y-84620985D01*
X131624372Y-84649372D01*
X131595985Y-84668339D01*
X131562500Y-84675000D01*
X130237500Y-84675000D01*
X130204015Y-84668339D01*
X130175628Y-84649372D01*
X130156661Y-84620985D01*
X130150000Y-84587500D01*
X130150000Y-84412500D01*
X130156661Y-84379015D01*
X130175628Y-84350628D01*
X130204015Y-84331661D01*
X130237500Y-84325000D01*
X131562500Y-84325000D01*
X131595985Y-84331661D01*
G37*
G36*
X135795985Y-84331661D02*
G01*
X135824372Y-84350628D01*
X135843339Y-84379015D01*
X135850000Y-84412500D01*
X135850000Y-84587500D01*
X135843339Y-84620985D01*
X135824372Y-84649372D01*
X135795985Y-84668339D01*
X135762500Y-84675000D01*
X134437500Y-84675000D01*
X134404015Y-84668339D01*
X134375628Y-84649372D01*
X134356661Y-84620985D01*
X134350000Y-84587500D01*
X134350000Y-84412500D01*
X134356661Y-84379015D01*
X134375628Y-84350628D01*
X134404015Y-84331661D01*
X134437500Y-84325000D01*
X135762500Y-84325000D01*
X135795985Y-84331661D01*
G37*
G36*
X137704047Y-83575805D02*
G01*
X137755408Y-83581764D01*
X137772954Y-83589511D01*
X137795671Y-83594030D01*
X137819991Y-83610280D01*
X137840793Y-83619465D01*
X137855000Y-83633672D01*
X137876777Y-83648223D01*
X137891327Y-83669999D01*
X137905534Y-83684206D01*
X137914718Y-83705006D01*
X137930970Y-83729329D01*
X137935489Y-83752048D01*
X137943235Y-83769591D01*
X137949192Y-83820940D01*
X137950000Y-83825000D01*
X137950000Y-84350000D01*
X137949192Y-84354059D01*
X137943235Y-84405408D01*
X137935489Y-84422950D01*
X137930970Y-84445671D01*
X137914716Y-84469995D01*
X137905534Y-84490793D01*
X137891329Y-84504997D01*
X137876777Y-84526777D01*
X137854997Y-84541329D01*
X137840793Y-84555534D01*
X137819995Y-84564716D01*
X137795671Y-84580970D01*
X137772950Y-84585489D01*
X137755408Y-84593235D01*
X137704061Y-84599192D01*
X137700000Y-84600000D01*
X136800000Y-84600000D01*
X136795941Y-84599192D01*
X136744591Y-84593235D01*
X136727048Y-84585489D01*
X136704329Y-84580970D01*
X136680006Y-84564718D01*
X136659206Y-84555534D01*
X136644999Y-84541327D01*
X136623223Y-84526777D01*
X136608672Y-84505000D01*
X136594465Y-84490793D01*
X136585280Y-84469991D01*
X136569030Y-84445671D01*
X136564511Y-84422954D01*
X136556764Y-84405408D01*
X136550805Y-84354049D01*
X136550000Y-84350000D01*
X136550000Y-83825000D01*
X136550804Y-83820953D01*
X136556764Y-83769591D01*
X136564511Y-83752043D01*
X136569030Y-83729329D01*
X136585278Y-83705010D01*
X136594465Y-83684206D01*
X136608674Y-83669996D01*
X136623223Y-83648223D01*
X136644996Y-83633674D01*
X136659206Y-83619465D01*
X136680010Y-83610278D01*
X136704329Y-83594030D01*
X136727043Y-83589511D01*
X136744591Y-83581764D01*
X136795952Y-83575805D01*
X136800000Y-83575000D01*
X137700000Y-83575000D01*
X137704047Y-83575805D01*
G37*
G36*
X140207403Y-83861418D02*
G01*
X140256066Y-83893934D01*
X140288582Y-83942597D01*
X140300000Y-84000000D01*
X140300000Y-84300000D01*
X140288582Y-84357403D01*
X140256066Y-84406066D01*
X140207403Y-84438582D01*
X140150000Y-84450000D01*
X138975000Y-84450000D01*
X138917597Y-84438582D01*
X138868934Y-84406066D01*
X138836418Y-84357403D01*
X138825000Y-84300000D01*
X138825000Y-84000000D01*
X138836418Y-83942597D01*
X138868934Y-83893934D01*
X138917597Y-83861418D01*
X138975000Y-83850000D01*
X140150000Y-83850000D01*
X140207403Y-83861418D01*
G37*
G36*
X115136662Y-83830276D02*
G01*
X115180459Y-83859541D01*
X115209724Y-83903338D01*
X115220000Y-83955000D01*
X115220000Y-84225000D01*
X115209724Y-84276662D01*
X115180459Y-84320459D01*
X115136662Y-84349724D01*
X115085000Y-84360000D01*
X114715000Y-84360000D01*
X114663338Y-84349724D01*
X114619541Y-84320459D01*
X114590276Y-84276662D01*
X114580000Y-84225000D01*
X114580000Y-83955000D01*
X114590276Y-83903338D01*
X114619541Y-83859541D01*
X114663338Y-83830276D01*
X114715000Y-83820000D01*
X115085000Y-83820000D01*
X115136662Y-83830276D01*
G37*
G36*
X105655552Y-83508564D02*
G01*
X105692050Y-83532950D01*
X105716436Y-83569448D01*
X105725000Y-83612500D01*
X105725000Y-83987500D01*
X105716436Y-84030552D01*
X105692050Y-84067050D01*
X105655552Y-84091436D01*
X105612500Y-84100000D01*
X105387500Y-84100000D01*
X105344448Y-84091436D01*
X105307950Y-84067050D01*
X105283564Y-84030552D01*
X105275000Y-83987500D01*
X105275000Y-83612500D01*
X105283564Y-83569448D01*
X105307950Y-83532950D01*
X105344448Y-83508564D01*
X105387500Y-83500000D01*
X105612500Y-83500000D01*
X105655552Y-83508564D01*
G37*
G36*
X117553701Y-83605709D02*
G01*
X117578033Y-83621967D01*
X117594291Y-83646299D01*
X117600000Y-83675000D01*
X117600000Y-83825000D01*
X117594291Y-83853701D01*
X117578033Y-83878033D01*
X117553701Y-83894291D01*
X117525000Y-83900000D01*
X116125000Y-83900000D01*
X116096299Y-83894291D01*
X116071967Y-83878033D01*
X116055709Y-83853701D01*
X116050000Y-83825000D01*
X116050000Y-83675000D01*
X116055709Y-83646299D01*
X116071967Y-83621967D01*
X116096299Y-83605709D01*
X116125000Y-83600000D01*
X117525000Y-83600000D01*
X117553701Y-83605709D01*
G37*
G36*
X128903701Y-83605709D02*
G01*
X128928033Y-83621967D01*
X128944291Y-83646299D01*
X128950000Y-83675000D01*
X128950000Y-83825000D01*
X128944291Y-83853701D01*
X128928033Y-83878033D01*
X128903701Y-83894291D01*
X128875000Y-83900000D01*
X127475000Y-83900000D01*
X127446299Y-83894291D01*
X127421967Y-83878033D01*
X127405709Y-83853701D01*
X127400000Y-83825000D01*
X127400000Y-83675000D01*
X127405709Y-83646299D01*
X127421967Y-83621967D01*
X127446299Y-83605709D01*
X127475000Y-83600000D01*
X128875000Y-83600000D01*
X128903701Y-83605709D01*
G37*
G36*
X112723576Y-83250657D02*
G01*
X112768995Y-83281005D01*
X112799343Y-83326424D01*
X112810000Y-83380000D01*
X112810000Y-83660000D01*
X112799343Y-83713576D01*
X112768995Y-83758995D01*
X112723576Y-83789343D01*
X112670000Y-83800000D01*
X112330000Y-83800000D01*
X112276424Y-83789343D01*
X112231005Y-83758995D01*
X112200657Y-83713576D01*
X112190000Y-83660000D01*
X112190000Y-83380000D01*
X112200657Y-83326424D01*
X112231005Y-83281005D01*
X112276424Y-83250657D01*
X112330000Y-83240000D01*
X112670000Y-83240000D01*
X112723576Y-83250657D01*
G37*
G36*
X142082403Y-82911418D02*
G01*
X142131066Y-82943934D01*
X142163582Y-82992597D01*
X142175000Y-83050000D01*
X142175000Y-83350000D01*
X142163582Y-83407403D01*
X142131066Y-83456066D01*
X142082403Y-83488582D01*
X142025000Y-83500000D01*
X140850000Y-83500000D01*
X140792597Y-83488582D01*
X140743934Y-83456066D01*
X140711418Y-83407403D01*
X140700000Y-83350000D01*
X140700000Y-83050000D01*
X140711418Y-82992597D01*
X140743934Y-82943934D01*
X140792597Y-82911418D01*
X140850000Y-82900000D01*
X142025000Y-82900000D01*
X142082403Y-82911418D01*
G37*
G36*
X117553701Y-83105709D02*
G01*
X117578033Y-83121967D01*
X117594291Y-83146299D01*
X117600000Y-83175000D01*
X117600000Y-83325000D01*
X117594291Y-83353701D01*
X117578033Y-83378033D01*
X117553701Y-83394291D01*
X117525000Y-83400000D01*
X116125000Y-83400000D01*
X116096299Y-83394291D01*
X116071967Y-83378033D01*
X116055709Y-83353701D01*
X116050000Y-83325000D01*
X116050000Y-83175000D01*
X116055709Y-83146299D01*
X116071967Y-83121967D01*
X116096299Y-83105709D01*
X116125000Y-83100000D01*
X117525000Y-83100000D01*
X117553701Y-83105709D01*
G37*
G36*
X128903701Y-83105709D02*
G01*
X128928033Y-83121967D01*
X128944291Y-83146299D01*
X128950000Y-83175000D01*
X128950000Y-83325000D01*
X128944291Y-83353701D01*
X128928033Y-83378033D01*
X128903701Y-83394291D01*
X128875000Y-83400000D01*
X127475000Y-83400000D01*
X127446299Y-83394291D01*
X127421967Y-83378033D01*
X127405709Y-83353701D01*
X127400000Y-83325000D01*
X127400000Y-83175000D01*
X127405709Y-83146299D01*
X127421967Y-83121967D01*
X127446299Y-83105709D01*
X127475000Y-83100000D01*
X128875000Y-83100000D01*
X128903701Y-83105709D01*
G37*
G36*
X107654047Y-81950805D02*
G01*
X107705408Y-81956764D01*
X107722954Y-81964511D01*
X107745671Y-81969030D01*
X107769991Y-81985280D01*
X107790793Y-81994465D01*
X107805000Y-82008672D01*
X107826777Y-82023223D01*
X107841327Y-82044999D01*
X107855534Y-82059206D01*
X107864718Y-82080006D01*
X107880970Y-82104329D01*
X107885489Y-82127048D01*
X107893235Y-82144591D01*
X107899192Y-82195940D01*
X107900000Y-82200000D01*
X107900000Y-82800000D01*
X107899192Y-82804059D01*
X107893235Y-82855408D01*
X107885489Y-82872950D01*
X107880970Y-82895671D01*
X107864716Y-82919995D01*
X107855534Y-82940793D01*
X107841329Y-82954997D01*
X107826777Y-82976777D01*
X107804997Y-82991329D01*
X107790793Y-83005534D01*
X107769995Y-83014716D01*
X107745671Y-83030970D01*
X107722950Y-83035489D01*
X107705408Y-83043235D01*
X107654061Y-83049192D01*
X107650000Y-83050000D01*
X107050000Y-83050000D01*
X107045941Y-83049192D01*
X106994591Y-83043235D01*
X106977048Y-83035489D01*
X106954329Y-83030970D01*
X106930006Y-83014718D01*
X106909206Y-83005534D01*
X106894999Y-82991327D01*
X106873223Y-82976777D01*
X106858672Y-82955000D01*
X106844465Y-82940793D01*
X106835280Y-82919991D01*
X106819030Y-82895671D01*
X106814511Y-82872954D01*
X106806764Y-82855408D01*
X106800805Y-82804049D01*
X106800000Y-82800000D01*
X106800000Y-82200000D01*
X106800804Y-82195953D01*
X106806764Y-82144591D01*
X106814511Y-82127043D01*
X106819030Y-82104329D01*
X106835278Y-82080010D01*
X106844465Y-82059206D01*
X106858674Y-82044996D01*
X106873223Y-82023223D01*
X106894996Y-82008674D01*
X106909206Y-81994465D01*
X106930010Y-81985278D01*
X106954329Y-81969030D01*
X106977043Y-81964511D01*
X106994591Y-81956764D01*
X107045952Y-81950805D01*
X107050000Y-81950000D01*
X107650000Y-81950000D01*
X107654047Y-81950805D01*
G37*
G36*
X110454047Y-81950805D02*
G01*
X110505408Y-81956764D01*
X110522954Y-81964511D01*
X110545671Y-81969030D01*
X110569991Y-81985280D01*
X110590793Y-81994465D01*
X110605000Y-82008672D01*
X110626777Y-82023223D01*
X110641327Y-82044999D01*
X110655534Y-82059206D01*
X110664718Y-82080006D01*
X110680970Y-82104329D01*
X110685489Y-82127048D01*
X110693235Y-82144591D01*
X110699192Y-82195940D01*
X110700000Y-82200000D01*
X110700000Y-82800000D01*
X110699192Y-82804059D01*
X110693235Y-82855408D01*
X110685489Y-82872950D01*
X110680970Y-82895671D01*
X110664716Y-82919995D01*
X110655534Y-82940793D01*
X110641329Y-82954997D01*
X110626777Y-82976777D01*
X110604997Y-82991329D01*
X110590793Y-83005534D01*
X110569995Y-83014716D01*
X110545671Y-83030970D01*
X110522950Y-83035489D01*
X110505408Y-83043235D01*
X110454061Y-83049192D01*
X110450000Y-83050000D01*
X109850000Y-83050000D01*
X109845941Y-83049192D01*
X109794591Y-83043235D01*
X109777048Y-83035489D01*
X109754329Y-83030970D01*
X109730006Y-83014718D01*
X109709206Y-83005534D01*
X109694999Y-82991327D01*
X109673223Y-82976777D01*
X109658672Y-82955000D01*
X109644465Y-82940793D01*
X109635280Y-82919991D01*
X109619030Y-82895671D01*
X109614511Y-82872954D01*
X109606764Y-82855408D01*
X109600805Y-82804049D01*
X109600000Y-82800000D01*
X109600000Y-82200000D01*
X109600804Y-82195953D01*
X109606764Y-82144591D01*
X109614511Y-82127043D01*
X109619030Y-82104329D01*
X109635278Y-82080010D01*
X109644465Y-82059206D01*
X109658674Y-82044996D01*
X109673223Y-82023223D01*
X109694996Y-82008674D01*
X109709206Y-81994465D01*
X109730010Y-81985278D01*
X109754329Y-81969030D01*
X109777043Y-81964511D01*
X109794591Y-81956764D01*
X109845952Y-81950805D01*
X109850000Y-81950000D01*
X110450000Y-81950000D01*
X110454047Y-81950805D01*
G37*
G36*
X117553701Y-82605709D02*
G01*
X117578033Y-82621967D01*
X117594291Y-82646299D01*
X117600000Y-82675000D01*
X117600000Y-82825000D01*
X117594291Y-82853701D01*
X117578033Y-82878033D01*
X117553701Y-82894291D01*
X117525000Y-82900000D01*
X116125000Y-82900000D01*
X116096299Y-82894291D01*
X116071967Y-82878033D01*
X116055709Y-82853701D01*
X116050000Y-82825000D01*
X116050000Y-82675000D01*
X116055709Y-82646299D01*
X116071967Y-82621967D01*
X116096299Y-82605709D01*
X116125000Y-82600000D01*
X117525000Y-82600000D01*
X117553701Y-82605709D01*
G37*
G36*
X128903701Y-82605709D02*
G01*
X128928033Y-82621967D01*
X128944291Y-82646299D01*
X128950000Y-82675000D01*
X128950000Y-82825000D01*
X128944291Y-82853701D01*
X128928033Y-82878033D01*
X128903701Y-82894291D01*
X128875000Y-82900000D01*
X127475000Y-82900000D01*
X127446299Y-82894291D01*
X127421967Y-82878033D01*
X127405709Y-82853701D01*
X127400000Y-82825000D01*
X127400000Y-82675000D01*
X127405709Y-82646299D01*
X127421967Y-82621967D01*
X127446299Y-82605709D01*
X127475000Y-82600000D01*
X128875000Y-82600000D01*
X128903701Y-82605709D01*
G37*
G36*
X115123576Y-82210657D02*
G01*
X115168995Y-82241005D01*
X115199343Y-82286424D01*
X115210000Y-82340000D01*
X115210000Y-82620000D01*
X115199343Y-82673576D01*
X115168995Y-82718995D01*
X115123576Y-82749343D01*
X115070000Y-82760000D01*
X114730000Y-82760000D01*
X114676424Y-82749343D01*
X114631005Y-82718995D01*
X114600657Y-82673576D01*
X114590000Y-82620000D01*
X114590000Y-82340000D01*
X114600657Y-82286424D01*
X114631005Y-82241005D01*
X114676424Y-82210657D01*
X114730000Y-82200000D01*
X115070000Y-82200000D01*
X115123576Y-82210657D01*
G37*
G36*
X114125000Y-82650000D02*
G01*
X112325000Y-82650000D01*
X112325000Y-81650000D01*
X114125000Y-81650000D01*
X114125000Y-82650000D01*
G37*
G36*
X140207403Y-81961418D02*
G01*
X140256066Y-81993934D01*
X140288582Y-82042597D01*
X140300000Y-82100000D01*
X140300000Y-82400000D01*
X140288582Y-82457403D01*
X140256066Y-82506066D01*
X140207403Y-82538582D01*
X140150000Y-82550000D01*
X138975000Y-82550000D01*
X138917597Y-82538582D01*
X138868934Y-82506066D01*
X138836418Y-82457403D01*
X138825000Y-82400000D01*
X138825000Y-82100000D01*
X138836418Y-82042597D01*
X138868934Y-81993934D01*
X138917597Y-81961418D01*
X138975000Y-81950000D01*
X140150000Y-81950000D01*
X140207403Y-81961418D01*
G37*
G36*
X117553701Y-82105709D02*
G01*
X117578033Y-82121967D01*
X117594291Y-82146299D01*
X117600000Y-82175000D01*
X117600000Y-82325000D01*
X117594291Y-82353701D01*
X117578033Y-82378033D01*
X117553701Y-82394291D01*
X117525000Y-82400000D01*
X116125000Y-82400000D01*
X116096299Y-82394291D01*
X116071967Y-82378033D01*
X116055709Y-82353701D01*
X116050000Y-82325000D01*
X116050000Y-82175000D01*
X116055709Y-82146299D01*
X116071967Y-82121967D01*
X116096299Y-82105709D01*
X116125000Y-82100000D01*
X117525000Y-82100000D01*
X117553701Y-82105709D01*
G37*
G36*
X128903701Y-82105709D02*
G01*
X128928033Y-82121967D01*
X128944291Y-82146299D01*
X128950000Y-82175000D01*
X128950000Y-82325000D01*
X128944291Y-82353701D01*
X128928033Y-82378033D01*
X128903701Y-82394291D01*
X128875000Y-82400000D01*
X127475000Y-82400000D01*
X127446299Y-82394291D01*
X127421967Y-82378033D01*
X127405709Y-82353701D01*
X127400000Y-82325000D01*
X127400000Y-82175000D01*
X127405709Y-82146299D01*
X127421967Y-82121967D01*
X127446299Y-82105709D01*
X127475000Y-82100000D01*
X128875000Y-82100000D01*
X128903701Y-82105709D01*
G37*
G36*
X105655552Y-81408564D02*
G01*
X105692050Y-81432950D01*
X105716436Y-81469448D01*
X105725000Y-81512500D01*
X105725000Y-81887500D01*
X105716436Y-81930552D01*
X105692050Y-81967050D01*
X105655552Y-81991436D01*
X105612500Y-82000000D01*
X105387500Y-82000000D01*
X105344448Y-81991436D01*
X105307950Y-81967050D01*
X105283564Y-81930552D01*
X105275000Y-81887500D01*
X105275000Y-81512500D01*
X105283564Y-81469448D01*
X105307950Y-81432950D01*
X105344448Y-81408564D01*
X105387500Y-81400000D01*
X105612500Y-81400000D01*
X105655552Y-81408564D01*
G37*
G36*
X117553701Y-81605709D02*
G01*
X117578033Y-81621967D01*
X117594291Y-81646299D01*
X117600000Y-81675000D01*
X117600000Y-81825000D01*
X117594291Y-81853701D01*
X117578033Y-81878033D01*
X117553701Y-81894291D01*
X117525000Y-81900000D01*
X116125000Y-81900000D01*
X116096299Y-81894291D01*
X116071967Y-81878033D01*
X116055709Y-81853701D01*
X116050000Y-81825000D01*
X116050000Y-81675000D01*
X116055709Y-81646299D01*
X116071967Y-81621967D01*
X116096299Y-81605709D01*
X116125000Y-81600000D01*
X117525000Y-81600000D01*
X117553701Y-81605709D01*
G37*
G36*
X128903701Y-81605709D02*
G01*
X128928033Y-81621967D01*
X128944291Y-81646299D01*
X128950000Y-81675000D01*
X128950000Y-81825000D01*
X128944291Y-81853701D01*
X128928033Y-81878033D01*
X128903701Y-81894291D01*
X128875000Y-81900000D01*
X127475000Y-81900000D01*
X127446299Y-81894291D01*
X127421967Y-81878033D01*
X127405709Y-81853701D01*
X127400000Y-81825000D01*
X127400000Y-81675000D01*
X127405709Y-81646299D01*
X127421967Y-81621967D01*
X127446299Y-81605709D01*
X127475000Y-81600000D01*
X128875000Y-81600000D01*
X128903701Y-81605709D01*
G37*
G36*
X115123576Y-81250657D02*
G01*
X115168995Y-81281005D01*
X115199343Y-81326424D01*
X115210000Y-81380000D01*
X115210000Y-81660000D01*
X115199343Y-81713576D01*
X115168995Y-81758995D01*
X115123576Y-81789343D01*
X115070000Y-81800000D01*
X114730000Y-81800000D01*
X114676424Y-81789343D01*
X114631005Y-81758995D01*
X114600657Y-81713576D01*
X114590000Y-81660000D01*
X114590000Y-81380000D01*
X114600657Y-81326424D01*
X114631005Y-81281005D01*
X114676424Y-81250657D01*
X114730000Y-81240000D01*
X115070000Y-81240000D01*
X115123576Y-81250657D01*
G37*
G36*
X117553701Y-81105709D02*
G01*
X117578033Y-81121967D01*
X117594291Y-81146299D01*
X117600000Y-81175000D01*
X117600000Y-81325000D01*
X117594291Y-81353701D01*
X117578033Y-81378033D01*
X117553701Y-81394291D01*
X117525000Y-81400000D01*
X116125000Y-81400000D01*
X116096299Y-81394291D01*
X116071967Y-81378033D01*
X116055709Y-81353701D01*
X116050000Y-81325000D01*
X116050000Y-81175000D01*
X116055709Y-81146299D01*
X116071967Y-81121967D01*
X116096299Y-81105709D01*
X116125000Y-81100000D01*
X117525000Y-81100000D01*
X117553701Y-81105709D01*
G37*
G36*
X128903701Y-81105709D02*
G01*
X128928033Y-81121967D01*
X128944291Y-81146299D01*
X128950000Y-81175000D01*
X128950000Y-81325000D01*
X128944291Y-81353701D01*
X128928033Y-81378033D01*
X128903701Y-81394291D01*
X128875000Y-81400000D01*
X127475000Y-81400000D01*
X127446299Y-81394291D01*
X127421967Y-81378033D01*
X127405709Y-81353701D01*
X127400000Y-81325000D01*
X127400000Y-81175000D01*
X127405709Y-81146299D01*
X127421967Y-81121967D01*
X127446299Y-81105709D01*
X127475000Y-81100000D01*
X128875000Y-81100000D01*
X128903701Y-81105709D01*
G37*
G36*
X130723576Y-80710657D02*
G01*
X130768995Y-80741005D01*
X130799343Y-80786424D01*
X130810000Y-80840000D01*
X130810000Y-81120000D01*
X130799343Y-81173576D01*
X130768995Y-81218995D01*
X130723576Y-81249343D01*
X130670000Y-81260000D01*
X130330000Y-81260000D01*
X130276424Y-81249343D01*
X130231005Y-81218995D01*
X130200657Y-81173576D01*
X130190000Y-81120000D01*
X130190000Y-80840000D01*
X130200657Y-80786424D01*
X130231005Y-80741005D01*
X130276424Y-80710657D01*
X130330000Y-80700000D01*
X130670000Y-80700000D01*
X130723576Y-80710657D01*
G37*
G36*
X102280134Y-78833156D02*
G01*
X102459220Y-78891345D01*
X102626998Y-78976832D01*
X102779338Y-79087513D01*
X102912487Y-79220662D01*
X103023168Y-79373002D01*
X103108655Y-79540780D01*
X103166844Y-79719866D01*
X103196301Y-79905849D01*
X103196301Y-80094151D01*
X103166844Y-80280134D01*
X103108655Y-80459220D01*
X103023168Y-80626998D01*
X102912487Y-80779338D01*
X102779338Y-80912487D01*
X102626998Y-81023168D01*
X102459220Y-81108655D01*
X102280134Y-81166844D01*
X102094151Y-81196301D01*
X101905849Y-81196301D01*
X101719866Y-81166844D01*
X101540780Y-81108655D01*
X101373002Y-81023168D01*
X101220662Y-80912487D01*
X101087513Y-80779338D01*
X100976832Y-80626998D01*
X100891345Y-80459220D01*
X100833156Y-80280134D01*
X100803699Y-80094151D01*
X100803699Y-79905849D01*
X100833156Y-79719866D01*
X100891345Y-79540780D01*
X100976832Y-79373002D01*
X101087513Y-79220662D01*
X101220662Y-79087513D01*
X101373002Y-78976832D01*
X101540780Y-78891345D01*
X101719866Y-78833156D01*
X101905849Y-78803699D01*
X102094151Y-78803699D01*
X102280134Y-78833156D01*
G37*
G36*
X117553701Y-80605709D02*
G01*
X117578033Y-80621967D01*
X117594291Y-80646299D01*
X117600000Y-80675000D01*
X117600000Y-80825000D01*
X117594291Y-80853701D01*
X117578033Y-80878033D01*
X117553701Y-80894291D01*
X117525000Y-80900000D01*
X116125000Y-80900000D01*
X116096299Y-80894291D01*
X116071967Y-80878033D01*
X116055709Y-80853701D01*
X116050000Y-80825000D01*
X116050000Y-80675000D01*
X116055709Y-80646299D01*
X116071967Y-80621967D01*
X116096299Y-80605709D01*
X116125000Y-80600000D01*
X117525000Y-80600000D01*
X117553701Y-80605709D01*
G37*
G36*
X128903701Y-80605709D02*
G01*
X128928033Y-80621967D01*
X128944291Y-80646299D01*
X128950000Y-80675000D01*
X128950000Y-80825000D01*
X128944291Y-80853701D01*
X128928033Y-80878033D01*
X128903701Y-80894291D01*
X128875000Y-80900000D01*
X127475000Y-80900000D01*
X127446299Y-80894291D01*
X127421967Y-80878033D01*
X127405709Y-80853701D01*
X127400000Y-80825000D01*
X127400000Y-80675000D01*
X127405709Y-80646299D01*
X127421967Y-80621967D01*
X127446299Y-80605709D01*
X127475000Y-80600000D01*
X128875000Y-80600000D01*
X128903701Y-80605709D01*
G37*
G36*
X136404047Y-79700805D02*
G01*
X136455408Y-79706764D01*
X136472954Y-79714511D01*
X136495671Y-79719030D01*
X136519991Y-79735280D01*
X136540793Y-79744465D01*
X136555000Y-79758672D01*
X136576777Y-79773223D01*
X136591327Y-79794999D01*
X136605534Y-79809206D01*
X136614718Y-79830006D01*
X136630970Y-79854329D01*
X136635489Y-79877048D01*
X136643235Y-79894591D01*
X136649192Y-79945940D01*
X136650000Y-79950000D01*
X136650000Y-80550000D01*
X136649192Y-80554059D01*
X136643235Y-80605408D01*
X136635489Y-80622950D01*
X136630970Y-80645671D01*
X136614716Y-80669995D01*
X136605534Y-80690793D01*
X136591329Y-80704997D01*
X136576777Y-80726777D01*
X136554997Y-80741329D01*
X136540793Y-80755534D01*
X136519995Y-80764716D01*
X136495671Y-80780970D01*
X136472950Y-80785489D01*
X136455408Y-80793235D01*
X136404061Y-80799192D01*
X136400000Y-80800000D01*
X135800000Y-80800000D01*
X135795941Y-80799192D01*
X135744591Y-80793235D01*
X135727048Y-80785489D01*
X135704329Y-80780970D01*
X135680006Y-80764718D01*
X135659206Y-80755534D01*
X135644999Y-80741327D01*
X135623223Y-80726777D01*
X135608672Y-80705000D01*
X135594465Y-80690793D01*
X135585280Y-80669991D01*
X135569030Y-80645671D01*
X135564511Y-80622954D01*
X135556764Y-80605408D01*
X135550805Y-80554049D01*
X135550000Y-80550000D01*
X135550000Y-79950000D01*
X135550804Y-79945953D01*
X135556764Y-79894591D01*
X135564511Y-79877043D01*
X135569030Y-79854329D01*
X135585278Y-79830010D01*
X135594465Y-79809206D01*
X135608674Y-79794996D01*
X135623223Y-79773223D01*
X135644996Y-79758674D01*
X135659206Y-79744465D01*
X135680010Y-79735278D01*
X135704329Y-79719030D01*
X135727043Y-79714511D01*
X135744591Y-79706764D01*
X135795952Y-79700805D01*
X135800000Y-79700000D01*
X136400000Y-79700000D01*
X136404047Y-79700805D01*
G37*
G36*
X139204047Y-79700805D02*
G01*
X139255408Y-79706764D01*
X139272954Y-79714511D01*
X139295671Y-79719030D01*
X139319991Y-79735280D01*
X139340793Y-79744465D01*
X139355000Y-79758672D01*
X139376777Y-79773223D01*
X139391327Y-79794999D01*
X139405534Y-79809206D01*
X139414718Y-79830006D01*
X139430970Y-79854329D01*
X139435489Y-79877048D01*
X139443235Y-79894591D01*
X139449192Y-79945940D01*
X139450000Y-79950000D01*
X139450000Y-80550000D01*
X139449192Y-80554059D01*
X139443235Y-80605408D01*
X139435489Y-80622950D01*
X139430970Y-80645671D01*
X139414716Y-80669995D01*
X139405534Y-80690793D01*
X139391329Y-80704997D01*
X139376777Y-80726777D01*
X139354997Y-80741329D01*
X139340793Y-80755534D01*
X139319995Y-80764716D01*
X139295671Y-80780970D01*
X139272950Y-80785489D01*
X139255408Y-80793235D01*
X139204061Y-80799192D01*
X139200000Y-80800000D01*
X138600000Y-80800000D01*
X138595941Y-80799192D01*
X138544591Y-80793235D01*
X138527048Y-80785489D01*
X138504329Y-80780970D01*
X138480006Y-80764718D01*
X138459206Y-80755534D01*
X138444999Y-80741327D01*
X138423223Y-80726777D01*
X138408672Y-80705000D01*
X138394465Y-80690793D01*
X138385280Y-80669991D01*
X138369030Y-80645671D01*
X138364511Y-80622954D01*
X138356764Y-80605408D01*
X138350805Y-80554049D01*
X138350000Y-80550000D01*
X138350000Y-79950000D01*
X138350804Y-79945953D01*
X138356764Y-79894591D01*
X138364511Y-79877043D01*
X138369030Y-79854329D01*
X138385278Y-79830010D01*
X138394465Y-79809206D01*
X138408674Y-79794996D01*
X138423223Y-79773223D01*
X138444996Y-79758674D01*
X138459206Y-79744465D01*
X138480010Y-79735278D01*
X138504329Y-79719030D01*
X138527043Y-79714511D01*
X138544591Y-79706764D01*
X138595952Y-79700805D01*
X138600000Y-79700000D01*
X139200000Y-79700000D01*
X139204047Y-79700805D01*
G37*
G36*
X151605000Y-80500000D02*
G01*
X150855000Y-80500000D01*
X150855000Y-79500000D01*
X151605000Y-79500000D01*
X151605000Y-80500000D01*
G37*
G36*
X153105000Y-80500000D02*
G01*
X152355000Y-80500000D01*
X152355000Y-79500000D01*
X153105000Y-79500000D01*
X153105000Y-80500000D01*
G37*
G36*
X154205000Y-80500000D02*
G01*
X153455000Y-80500000D01*
X153455000Y-79500000D01*
X154205000Y-79500000D01*
X154205000Y-80500000D01*
G37*
G36*
X155705000Y-80500000D02*
G01*
X154955000Y-80500000D01*
X154955000Y-79500000D01*
X155705000Y-79500000D01*
X155705000Y-80500000D01*
G37*
G36*
X156805000Y-80500000D02*
G01*
X156055000Y-80500000D01*
X156055000Y-79500000D01*
X156805000Y-79500000D01*
X156805000Y-80500000D01*
G37*
G36*
X158305000Y-80500000D02*
G01*
X157555000Y-80500000D01*
X157555000Y-79500000D01*
X158305000Y-79500000D01*
X158305000Y-80500000D01*
G37*
G36*
X159405000Y-80500000D02*
G01*
X158655000Y-80500000D01*
X158655000Y-79500000D01*
X159405000Y-79500000D01*
X159405000Y-80500000D01*
G37*
G36*
X160905000Y-80500000D02*
G01*
X160155000Y-80500000D01*
X160155000Y-79500000D01*
X160905000Y-79500000D01*
X160905000Y-80500000D01*
G37*
G36*
X162005000Y-80500000D02*
G01*
X161255000Y-80500000D01*
X161255000Y-79500000D01*
X162005000Y-79500000D01*
X162005000Y-80500000D01*
G37*
G36*
X163505000Y-80500000D02*
G01*
X162755000Y-80500000D01*
X162755000Y-79500000D01*
X163505000Y-79500000D01*
X163505000Y-80500000D01*
G37*
G36*
X164605000Y-80500000D02*
G01*
X163855000Y-80500000D01*
X163855000Y-79500000D01*
X164605000Y-79500000D01*
X164605000Y-80500000D01*
G37*
G36*
X166105000Y-80500000D02*
G01*
X165355000Y-80500000D01*
X165355000Y-79500000D01*
X166105000Y-79500000D01*
X166105000Y-80500000D01*
G37*
G36*
X167205000Y-80500000D02*
G01*
X166455000Y-80500000D01*
X166455000Y-79500000D01*
X167205000Y-79500000D01*
X167205000Y-80500000D01*
G37*
G36*
X168705000Y-80500000D02*
G01*
X167955000Y-80500000D01*
X167955000Y-79500000D01*
X168705000Y-79500000D01*
X168705000Y-80500000D01*
G37*
G36*
X169805000Y-80500000D02*
G01*
X169055000Y-80500000D01*
X169055000Y-79500000D01*
X169805000Y-79500000D01*
X169805000Y-80500000D01*
G37*
G36*
X171305000Y-80500000D02*
G01*
X170555000Y-80500000D01*
X170555000Y-79500000D01*
X171305000Y-79500000D01*
X171305000Y-80500000D01*
G37*
G36*
X172405000Y-80500000D02*
G01*
X171655000Y-80500000D01*
X171655000Y-79500000D01*
X172405000Y-79500000D01*
X172405000Y-80500000D01*
G37*
G36*
X173905000Y-80500000D02*
G01*
X173155000Y-80500000D01*
X173155000Y-79500000D01*
X173905000Y-79500000D01*
X173905000Y-80500000D01*
G37*
G36*
X175005000Y-80500000D02*
G01*
X174255000Y-80500000D01*
X174255000Y-79500000D01*
X175005000Y-79500000D01*
X175005000Y-80500000D01*
G37*
G36*
X176505000Y-80500000D02*
G01*
X175755000Y-80500000D01*
X175755000Y-79500000D01*
X176505000Y-79500000D01*
X176505000Y-80500000D01*
G37*
G36*
X177605000Y-80500000D02*
G01*
X176855000Y-80500000D01*
X176855000Y-79500000D01*
X177605000Y-79500000D01*
X177605000Y-80500000D01*
G37*
G36*
X179105000Y-80500000D02*
G01*
X178355000Y-80500000D01*
X178355000Y-79500000D01*
X179105000Y-79500000D01*
X179105000Y-80500000D01*
G37*
G36*
X180205000Y-80500000D02*
G01*
X179455000Y-80500000D01*
X179455000Y-79500000D01*
X180205000Y-79500000D01*
X180205000Y-80500000D01*
G37*
G36*
X181705000Y-80500000D02*
G01*
X180955000Y-80500000D01*
X180955000Y-79500000D01*
X181705000Y-79500000D01*
X181705000Y-80500000D01*
G37*
G36*
X182805000Y-80500000D02*
G01*
X182055000Y-80500000D01*
X182055000Y-79500000D01*
X182805000Y-79500000D01*
X182805000Y-80500000D01*
G37*
G36*
X184305000Y-80500000D02*
G01*
X183555000Y-80500000D01*
X183555000Y-79500000D01*
X184305000Y-79500000D01*
X184305000Y-80500000D01*
G37*
G36*
X185405000Y-80500000D02*
G01*
X184655000Y-80500000D01*
X184655000Y-79500000D01*
X185405000Y-79500000D01*
X185405000Y-80500000D01*
G37*
G36*
X186905000Y-80500000D02*
G01*
X186155000Y-80500000D01*
X186155000Y-79500000D01*
X186905000Y-79500000D01*
X186905000Y-80500000D01*
G37*
G36*
X188005000Y-80500000D02*
G01*
X187255000Y-80500000D01*
X187255000Y-79500000D01*
X188005000Y-79500000D01*
X188005000Y-80500000D01*
G37*
G36*
X189505000Y-80500000D02*
G01*
X188755000Y-80500000D01*
X188755000Y-79500000D01*
X189505000Y-79500000D01*
X189505000Y-80500000D01*
G37*
G36*
X190605000Y-80500000D02*
G01*
X189855000Y-80500000D01*
X189855000Y-79500000D01*
X190605000Y-79500000D01*
X190605000Y-80500000D01*
G37*
G36*
X192105000Y-80500000D02*
G01*
X191355000Y-80500000D01*
X191355000Y-79500000D01*
X192105000Y-79500000D01*
X192105000Y-80500000D01*
G37*
G36*
X193205000Y-80500000D02*
G01*
X192455000Y-80500000D01*
X192455000Y-79500000D01*
X193205000Y-79500000D01*
X193205000Y-80500000D01*
G37*
G36*
X194705000Y-80500000D02*
G01*
X193955000Y-80500000D01*
X193955000Y-79500000D01*
X194705000Y-79500000D01*
X194705000Y-80500000D01*
G37*
G36*
X106061104Y-79567127D02*
G01*
X106134099Y-79615901D01*
X106182873Y-79688896D01*
X106200000Y-79775000D01*
X106200000Y-80225000D01*
X106182873Y-80311104D01*
X106134099Y-80384099D01*
X106061104Y-80432873D01*
X105975000Y-80450000D01*
X105125000Y-80450000D01*
X105038896Y-80432873D01*
X104965901Y-80384099D01*
X104917127Y-80311104D01*
X104900000Y-80225000D01*
X104900000Y-79775000D01*
X104917127Y-79688896D01*
X104965901Y-79615901D01*
X105038896Y-79567127D01*
X105125000Y-79550000D01*
X105975000Y-79550000D01*
X106061104Y-79567127D01*
G37*
G36*
X117553701Y-80105709D02*
G01*
X117578033Y-80121967D01*
X117594291Y-80146299D01*
X117600000Y-80175000D01*
X117600000Y-80325000D01*
X117594291Y-80353701D01*
X117578033Y-80378033D01*
X117553701Y-80394291D01*
X117525000Y-80400000D01*
X116125000Y-80400000D01*
X116096299Y-80394291D01*
X116071967Y-80378033D01*
X116055709Y-80353701D01*
X116050000Y-80325000D01*
X116050000Y-80175000D01*
X116055709Y-80146299D01*
X116071967Y-80121967D01*
X116096299Y-80105709D01*
X116125000Y-80100000D01*
X117525000Y-80100000D01*
X117553701Y-80105709D01*
G37*
G36*
X128903701Y-80105709D02*
G01*
X128928033Y-80121967D01*
X128944291Y-80146299D01*
X128950000Y-80175000D01*
X128950000Y-80325000D01*
X128944291Y-80353701D01*
X128928033Y-80378033D01*
X128903701Y-80394291D01*
X128875000Y-80400000D01*
X127475000Y-80400000D01*
X127446299Y-80394291D01*
X127421967Y-80378033D01*
X127405709Y-80353701D01*
X127400000Y-80325000D01*
X127400000Y-80175000D01*
X127405709Y-80146299D01*
X127421967Y-80121967D01*
X127446299Y-80105709D01*
X127475000Y-80100000D01*
X128875000Y-80100000D01*
X128903701Y-80105709D01*
G37*
G36*
X196936662Y-79690276D02*
G01*
X196980459Y-79719541D01*
X197009724Y-79763338D01*
X197020000Y-79815000D01*
X197020000Y-80185000D01*
X197009724Y-80236662D01*
X196980459Y-80280459D01*
X196936662Y-80309724D01*
X196885000Y-80320000D01*
X196615000Y-80320000D01*
X196563338Y-80309724D01*
X196519541Y-80280459D01*
X196490276Y-80236662D01*
X196480000Y-80185000D01*
X196480000Y-79815000D01*
X196490276Y-79763338D01*
X196519541Y-79719541D01*
X196563338Y-79690276D01*
X196615000Y-79680000D01*
X196885000Y-79680000D01*
X196936662Y-79690276D01*
G37*
G36*
X197956662Y-79690276D02*
G01*
X198000459Y-79719541D01*
X198029724Y-79763338D01*
X198040000Y-79815000D01*
X198040000Y-80185000D01*
X198029724Y-80236662D01*
X198000459Y-80280459D01*
X197956662Y-80309724D01*
X197905000Y-80320000D01*
X197635000Y-80320000D01*
X197583338Y-80309724D01*
X197539541Y-80280459D01*
X197510276Y-80236662D01*
X197500000Y-80185000D01*
X197500000Y-79815000D01*
X197510276Y-79763338D01*
X197539541Y-79719541D01*
X197583338Y-79690276D01*
X197635000Y-79680000D01*
X197905000Y-79680000D01*
X197956662Y-79690276D01*
G37*
G36*
X130723576Y-79750657D02*
G01*
X130768995Y-79781005D01*
X130799343Y-79826424D01*
X130810000Y-79880000D01*
X130810000Y-80160000D01*
X130799343Y-80213576D01*
X130768995Y-80258995D01*
X130723576Y-80289343D01*
X130670000Y-80300000D01*
X130330000Y-80300000D01*
X130276424Y-80289343D01*
X130231005Y-80258995D01*
X130200657Y-80213576D01*
X130190000Y-80160000D01*
X130190000Y-79880000D01*
X130200657Y-79826424D01*
X130231005Y-79781005D01*
X130276424Y-79750657D01*
X130330000Y-79740000D01*
X130670000Y-79740000D01*
X130723576Y-79750657D01*
G37*
G36*
X114125000Y-80150000D02*
G01*
X112325000Y-80150000D01*
X112325000Y-79150000D01*
X114125000Y-79150000D01*
X114125000Y-80150000D01*
G37*
G36*
X117553701Y-79605709D02*
G01*
X117578033Y-79621967D01*
X117594291Y-79646299D01*
X117600000Y-79675000D01*
X117600000Y-79825000D01*
X117594291Y-79853701D01*
X117578033Y-79878033D01*
X117553701Y-79894291D01*
X117525000Y-79900000D01*
X116125000Y-79900000D01*
X116096299Y-79894291D01*
X116071967Y-79878033D01*
X116055709Y-79853701D01*
X116050000Y-79825000D01*
X116050000Y-79675000D01*
X116055709Y-79646299D01*
X116071967Y-79621967D01*
X116096299Y-79605709D01*
X116125000Y-79600000D01*
X117525000Y-79600000D01*
X117553701Y-79605709D01*
G37*
G36*
X128903701Y-79605709D02*
G01*
X128928033Y-79621967D01*
X128944291Y-79646299D01*
X128950000Y-79675000D01*
X128950000Y-79825000D01*
X128944291Y-79853701D01*
X128928033Y-79878033D01*
X128903701Y-79894291D01*
X128875000Y-79900000D01*
X127475000Y-79900000D01*
X127446299Y-79894291D01*
X127421967Y-79878033D01*
X127405709Y-79853701D01*
X127400000Y-79825000D01*
X127400000Y-79675000D01*
X127405709Y-79646299D01*
X127421967Y-79621967D01*
X127446299Y-79605709D01*
X127475000Y-79600000D01*
X128875000Y-79600000D01*
X128903701Y-79605709D01*
G37*
G36*
X117553701Y-79105709D02*
G01*
X117578033Y-79121967D01*
X117594291Y-79146299D01*
X117600000Y-79175000D01*
X117600000Y-79325000D01*
X117594291Y-79353701D01*
X117578033Y-79378033D01*
X117553701Y-79394291D01*
X117525000Y-79400000D01*
X116125000Y-79400000D01*
X116096299Y-79394291D01*
X116071967Y-79378033D01*
X116055709Y-79353701D01*
X116050000Y-79325000D01*
X116050000Y-79175000D01*
X116055709Y-79146299D01*
X116071967Y-79121967D01*
X116096299Y-79105709D01*
X116125000Y-79100000D01*
X117525000Y-79100000D01*
X117553701Y-79105709D01*
G37*
G36*
X128903701Y-79105709D02*
G01*
X128928033Y-79121967D01*
X128944291Y-79146299D01*
X128950000Y-79175000D01*
X128950000Y-79325000D01*
X128944291Y-79353701D01*
X128928033Y-79378033D01*
X128903701Y-79394291D01*
X128875000Y-79400000D01*
X127475000Y-79400000D01*
X127446299Y-79394291D01*
X127421967Y-79378033D01*
X127405709Y-79353701D01*
X127400000Y-79325000D01*
X127400000Y-79175000D01*
X127405709Y-79146299D01*
X127421967Y-79121967D01*
X127446299Y-79105709D01*
X127475000Y-79100000D01*
X128875000Y-79100000D01*
X128903701Y-79105709D01*
G37*
G36*
X109503536Y-77629964D02*
G01*
X109505000Y-77633500D01*
X109505000Y-79366500D01*
X109503536Y-79370036D01*
X109500000Y-79371500D01*
X109490054Y-79371500D01*
X106384946Y-79371500D01*
X106375000Y-79371500D01*
X106371464Y-79370036D01*
X106370000Y-79366500D01*
X106370000Y-78984289D01*
X106340711Y-78955000D01*
X104900000Y-78955000D01*
X104896464Y-78953536D01*
X104895000Y-78950000D01*
X104895000Y-78050000D01*
X104896464Y-78046464D01*
X104900000Y-78045000D01*
X106340711Y-78045000D01*
X106370000Y-78015711D01*
X106370000Y-77643445D01*
X106370000Y-77633500D01*
X106371464Y-77629964D01*
X106375000Y-77628500D01*
X109500000Y-77628500D01*
X109503536Y-77629964D01*
G37*
G36*
X111479047Y-78200805D02*
G01*
X111530408Y-78206764D01*
X111547954Y-78214511D01*
X111570671Y-78219030D01*
X111594991Y-78235280D01*
X111615793Y-78244465D01*
X111630000Y-78258672D01*
X111651777Y-78273223D01*
X111666327Y-78294999D01*
X111680534Y-78309206D01*
X111689718Y-78330006D01*
X111705970Y-78354329D01*
X111710489Y-78377048D01*
X111718235Y-78394591D01*
X111724192Y-78445940D01*
X111725000Y-78450000D01*
X111725000Y-78950000D01*
X111724192Y-78954059D01*
X111718235Y-79005408D01*
X111710489Y-79022950D01*
X111705970Y-79045671D01*
X111689716Y-79069995D01*
X111680534Y-79090793D01*
X111666329Y-79104997D01*
X111651777Y-79126777D01*
X111629997Y-79141329D01*
X111615793Y-79155534D01*
X111594995Y-79164716D01*
X111570671Y-79180970D01*
X111547950Y-79185489D01*
X111530408Y-79193235D01*
X111479061Y-79199192D01*
X111475000Y-79200000D01*
X110525000Y-79200000D01*
X110520941Y-79199192D01*
X110469591Y-79193235D01*
X110452048Y-79185489D01*
X110429329Y-79180970D01*
X110405006Y-79164718D01*
X110384206Y-79155534D01*
X110369999Y-79141327D01*
X110348223Y-79126777D01*
X110333672Y-79105000D01*
X110319465Y-79090793D01*
X110310280Y-79069991D01*
X110294030Y-79045671D01*
X110289511Y-79022954D01*
X110281764Y-79005408D01*
X110275805Y-78954049D01*
X110275000Y-78950000D01*
X110275000Y-78450000D01*
X110275804Y-78445953D01*
X110281764Y-78394591D01*
X110289511Y-78377043D01*
X110294030Y-78354329D01*
X110310278Y-78330010D01*
X110319465Y-78309206D01*
X110333674Y-78294996D01*
X110348223Y-78273223D01*
X110369996Y-78258674D01*
X110384206Y-78244465D01*
X110405010Y-78235278D01*
X110429329Y-78219030D01*
X110452043Y-78214511D01*
X110469591Y-78206764D01*
X110520952Y-78200805D01*
X110525000Y-78200000D01*
X111475000Y-78200000D01*
X111479047Y-78200805D01*
G37*
G36*
X117553701Y-78605709D02*
G01*
X117578033Y-78621967D01*
X117594291Y-78646299D01*
X117600000Y-78675000D01*
X117600000Y-78825000D01*
X117594291Y-78853701D01*
X117578033Y-78878033D01*
X117553701Y-78894291D01*
X117525000Y-78900000D01*
X116125000Y-78900000D01*
X116096299Y-78894291D01*
X116071967Y-78878033D01*
X116055709Y-78853701D01*
X116050000Y-78825000D01*
X116050000Y-78675000D01*
X116055709Y-78646299D01*
X116071967Y-78621967D01*
X116096299Y-78605709D01*
X116125000Y-78600000D01*
X117525000Y-78600000D01*
X117553701Y-78605709D01*
G37*
G36*
X128903701Y-78605709D02*
G01*
X128928033Y-78621967D01*
X128944291Y-78646299D01*
X128950000Y-78675000D01*
X128950000Y-78825000D01*
X128944291Y-78853701D01*
X128928033Y-78878033D01*
X128903701Y-78894291D01*
X128875000Y-78900000D01*
X127475000Y-78900000D01*
X127446299Y-78894291D01*
X127421967Y-78878033D01*
X127405709Y-78853701D01*
X127400000Y-78825000D01*
X127400000Y-78675000D01*
X127405709Y-78646299D01*
X127421967Y-78621967D01*
X127446299Y-78605709D01*
X127475000Y-78600000D01*
X128875000Y-78600000D01*
X128903701Y-78605709D01*
G37*
G36*
X130451537Y-77790224D02*
G01*
X130516421Y-77833579D01*
X130559776Y-77898463D01*
X130575000Y-77975000D01*
X130575000Y-78525000D01*
X130559776Y-78601537D01*
X130516421Y-78666421D01*
X130451537Y-78709776D01*
X130375000Y-78725000D01*
X129975000Y-78725000D01*
X129898463Y-78709776D01*
X129833579Y-78666421D01*
X129790224Y-78601537D01*
X129775000Y-78525000D01*
X129775000Y-77975000D01*
X129790224Y-77898463D01*
X129833579Y-77833579D01*
X129898463Y-77790224D01*
X129975000Y-77775000D01*
X130375000Y-77775000D01*
X130451537Y-77790224D01*
G37*
G36*
X132101537Y-77790224D02*
G01*
X132166421Y-77833579D01*
X132209776Y-77898463D01*
X132225000Y-77975000D01*
X132225000Y-78525000D01*
X132209776Y-78601537D01*
X132166421Y-78666421D01*
X132101537Y-78709776D01*
X132025000Y-78725000D01*
X131625000Y-78725000D01*
X131548463Y-78709776D01*
X131483579Y-78666421D01*
X131440224Y-78601537D01*
X131425000Y-78525000D01*
X131425000Y-77975000D01*
X131440224Y-77898463D01*
X131483579Y-77833579D01*
X131548463Y-77790224D01*
X131625000Y-77775000D01*
X132025000Y-77775000D01*
X132101537Y-77790224D01*
G37*
G36*
X137304047Y-77275805D02*
G01*
X137355408Y-77281764D01*
X137372954Y-77289511D01*
X137395671Y-77294030D01*
X137419991Y-77310280D01*
X137440793Y-77319465D01*
X137455000Y-77333672D01*
X137476777Y-77348223D01*
X137491327Y-77369999D01*
X137505534Y-77384206D01*
X137514718Y-77405006D01*
X137530970Y-77429329D01*
X137535489Y-77452048D01*
X137543235Y-77469591D01*
X137549192Y-77520940D01*
X137550000Y-77525000D01*
X137550000Y-78475000D01*
X137549192Y-78479059D01*
X137543235Y-78530408D01*
X137535489Y-78547950D01*
X137530970Y-78570671D01*
X137514716Y-78594995D01*
X137505534Y-78615793D01*
X137491329Y-78629997D01*
X137476777Y-78651777D01*
X137454997Y-78666329D01*
X137440793Y-78680534D01*
X137419995Y-78689716D01*
X137395671Y-78705970D01*
X137372950Y-78710489D01*
X137355408Y-78718235D01*
X137304061Y-78724192D01*
X137300000Y-78725000D01*
X136800000Y-78725000D01*
X136795941Y-78724192D01*
X136744591Y-78718235D01*
X136727048Y-78710489D01*
X136704329Y-78705970D01*
X136680006Y-78689718D01*
X136659206Y-78680534D01*
X136644999Y-78666327D01*
X136623223Y-78651777D01*
X136608672Y-78630000D01*
X136594465Y-78615793D01*
X136585280Y-78594991D01*
X136569030Y-78570671D01*
X136564511Y-78547954D01*
X136556764Y-78530408D01*
X136550805Y-78479049D01*
X136550000Y-78475000D01*
X136550000Y-77525000D01*
X136550804Y-77520953D01*
X136556764Y-77469591D01*
X136564511Y-77452043D01*
X136569030Y-77429329D01*
X136585278Y-77405010D01*
X136594465Y-77384206D01*
X136608674Y-77369996D01*
X136623223Y-77348223D01*
X136644996Y-77333674D01*
X136659206Y-77319465D01*
X136680010Y-77310278D01*
X136704329Y-77294030D01*
X136727043Y-77289511D01*
X136744591Y-77281764D01*
X136795952Y-77275805D01*
X136800000Y-77275000D01*
X137300000Y-77275000D01*
X137304047Y-77275805D01*
G37*
G36*
X139204047Y-77275805D02*
G01*
X139255408Y-77281764D01*
X139272954Y-77289511D01*
X139295671Y-77294030D01*
X139319991Y-77310280D01*
X139340793Y-77319465D01*
X139355000Y-77333672D01*
X139376777Y-77348223D01*
X139391327Y-77369999D01*
X139405534Y-77384206D01*
X139414718Y-77405006D01*
X139430970Y-77429329D01*
X139435489Y-77452048D01*
X139443235Y-77469591D01*
X139449192Y-77520940D01*
X139450000Y-77525000D01*
X139450000Y-78475000D01*
X139449192Y-78479059D01*
X139443235Y-78530408D01*
X139435489Y-78547950D01*
X139430970Y-78570671D01*
X139414716Y-78594995D01*
X139405534Y-78615793D01*
X139391329Y-78629997D01*
X139376777Y-78651777D01*
X139354997Y-78666329D01*
X139340793Y-78680534D01*
X139319995Y-78689716D01*
X139295671Y-78705970D01*
X139272950Y-78710489D01*
X139255408Y-78718235D01*
X139204061Y-78724192D01*
X139200000Y-78725000D01*
X138700000Y-78725000D01*
X138695941Y-78724192D01*
X138644591Y-78718235D01*
X138627048Y-78710489D01*
X138604329Y-78705970D01*
X138580006Y-78689718D01*
X138559206Y-78680534D01*
X138544999Y-78666327D01*
X138523223Y-78651777D01*
X138508672Y-78630000D01*
X138494465Y-78615793D01*
X138485280Y-78594991D01*
X138469030Y-78570671D01*
X138464511Y-78547954D01*
X138456764Y-78530408D01*
X138450805Y-78479049D01*
X138450000Y-78475000D01*
X138450000Y-77525000D01*
X138450804Y-77520953D01*
X138456764Y-77469591D01*
X138464511Y-77452043D01*
X138469030Y-77429329D01*
X138485278Y-77405010D01*
X138494465Y-77384206D01*
X138508674Y-77369996D01*
X138523223Y-77348223D01*
X138544996Y-77333674D01*
X138559206Y-77319465D01*
X138580010Y-77310278D01*
X138604329Y-77294030D01*
X138627043Y-77289511D01*
X138644591Y-77281764D01*
X138695952Y-77275805D01*
X138700000Y-77275000D01*
X139200000Y-77275000D01*
X139204047Y-77275805D01*
G37*
G36*
X114936104Y-77742127D02*
G01*
X115009099Y-77790901D01*
X115057873Y-77863896D01*
X115075000Y-77950000D01*
X115075000Y-78400000D01*
X115057873Y-78486104D01*
X115009099Y-78559099D01*
X114936104Y-78607873D01*
X114850000Y-78625000D01*
X114350000Y-78625000D01*
X114263896Y-78607873D01*
X114190901Y-78559099D01*
X114142127Y-78486104D01*
X114125000Y-78400000D01*
X114125000Y-77950000D01*
X114142127Y-77863896D01*
X114190901Y-77790901D01*
X114263896Y-77742127D01*
X114350000Y-77725000D01*
X114850000Y-77725000D01*
X114936104Y-77742127D01*
G37*
G36*
X112723576Y-78010657D02*
G01*
X112768995Y-78041005D01*
X112799343Y-78086424D01*
X112810000Y-78140000D01*
X112810000Y-78420000D01*
X112799343Y-78473576D01*
X112768995Y-78518995D01*
X112723576Y-78549343D01*
X112670000Y-78560000D01*
X112330000Y-78560000D01*
X112276424Y-78549343D01*
X112231005Y-78518995D01*
X112200657Y-78473576D01*
X112190000Y-78420000D01*
X112190000Y-78140000D01*
X112200657Y-78086424D01*
X112231005Y-78041005D01*
X112276424Y-78010657D01*
X112330000Y-78000000D01*
X112670000Y-78000000D01*
X112723576Y-78010657D01*
G37*
G36*
X133963576Y-77950657D02*
G01*
X134008995Y-77981005D01*
X134039343Y-78026424D01*
X134050000Y-78080000D01*
X134050000Y-78420000D01*
X134039343Y-78473576D01*
X134008995Y-78518995D01*
X133963576Y-78549343D01*
X133910000Y-78560000D01*
X133630000Y-78560000D01*
X133576424Y-78549343D01*
X133531005Y-78518995D01*
X133500657Y-78473576D01*
X133490000Y-78420000D01*
X133490000Y-78080000D01*
X133500657Y-78026424D01*
X133531005Y-77981005D01*
X133576424Y-77950657D01*
X133630000Y-77940000D01*
X133910000Y-77940000D01*
X133963576Y-77950657D01*
G37*
G36*
X134923576Y-77950657D02*
G01*
X134968995Y-77981005D01*
X134999343Y-78026424D01*
X135010000Y-78080000D01*
X135010000Y-78420000D01*
X134999343Y-78473576D01*
X134968995Y-78518995D01*
X134923576Y-78549343D01*
X134870000Y-78560000D01*
X134590000Y-78560000D01*
X134536424Y-78549343D01*
X134491005Y-78518995D01*
X134460657Y-78473576D01*
X134450000Y-78420000D01*
X134450000Y-78080000D01*
X134460657Y-78026424D01*
X134491005Y-77981005D01*
X134536424Y-77950657D01*
X134590000Y-77940000D01*
X134870000Y-77940000D01*
X134923576Y-77950657D01*
G37*
G36*
X117553701Y-78105709D02*
G01*
X117578033Y-78121967D01*
X117594291Y-78146299D01*
X117600000Y-78175000D01*
X117600000Y-78325000D01*
X117594291Y-78353701D01*
X117578033Y-78378033D01*
X117553701Y-78394291D01*
X117525000Y-78400000D01*
X116125000Y-78400000D01*
X116096299Y-78394291D01*
X116071967Y-78378033D01*
X116055709Y-78353701D01*
X116050000Y-78325000D01*
X116050000Y-78175000D01*
X116055709Y-78146299D01*
X116071967Y-78121967D01*
X116096299Y-78105709D01*
X116125000Y-78100000D01*
X117525000Y-78100000D01*
X117553701Y-78105709D01*
G37*
G36*
X128903701Y-78105709D02*
G01*
X128928033Y-78121967D01*
X128944291Y-78146299D01*
X128950000Y-78175000D01*
X128950000Y-78325000D01*
X128944291Y-78353701D01*
X128928033Y-78378033D01*
X128903701Y-78394291D01*
X128875000Y-78400000D01*
X127475000Y-78400000D01*
X127446299Y-78394291D01*
X127421967Y-78378033D01*
X127405709Y-78353701D01*
X127400000Y-78325000D01*
X127400000Y-78175000D01*
X127405709Y-78146299D01*
X127421967Y-78121967D01*
X127446299Y-78105709D01*
X127475000Y-78100000D01*
X128875000Y-78100000D01*
X128903701Y-78105709D01*
G37*
G36*
X140676662Y-77490276D02*
G01*
X140720459Y-77519541D01*
X140749724Y-77563338D01*
X140760000Y-77615000D01*
X140760000Y-77985000D01*
X140749724Y-78036662D01*
X140720459Y-78080459D01*
X140676662Y-78109724D01*
X140625000Y-78120000D01*
X140355000Y-78120000D01*
X140303338Y-78109724D01*
X140259541Y-78080459D01*
X140230276Y-78036662D01*
X140220000Y-77985000D01*
X140220000Y-77615000D01*
X140230276Y-77563338D01*
X140259541Y-77519541D01*
X140303338Y-77490276D01*
X140355000Y-77480000D01*
X140625000Y-77480000D01*
X140676662Y-77490276D01*
G37*
G36*
X141696662Y-77490276D02*
G01*
X141740459Y-77519541D01*
X141769724Y-77563338D01*
X141780000Y-77615000D01*
X141780000Y-77985000D01*
X141769724Y-78036662D01*
X141740459Y-78080459D01*
X141696662Y-78109724D01*
X141645000Y-78120000D01*
X141375000Y-78120000D01*
X141323338Y-78109724D01*
X141279541Y-78080459D01*
X141250276Y-78036662D01*
X141240000Y-77985000D01*
X141240000Y-77615000D01*
X141250276Y-77563338D01*
X141279541Y-77519541D01*
X141323338Y-77490276D01*
X141375000Y-77480000D01*
X141645000Y-77480000D01*
X141696662Y-77490276D01*
G37*
G36*
X117553701Y-77605709D02*
G01*
X117578033Y-77621967D01*
X117594291Y-77646299D01*
X117600000Y-77675000D01*
X117600000Y-77825000D01*
X117594291Y-77853701D01*
X117578033Y-77878033D01*
X117553701Y-77894291D01*
X117525000Y-77900000D01*
X116125000Y-77900000D01*
X116096299Y-77894291D01*
X116071967Y-77878033D01*
X116055709Y-77853701D01*
X116050000Y-77825000D01*
X116050000Y-77675000D01*
X116055709Y-77646299D01*
X116071967Y-77621967D01*
X116096299Y-77605709D01*
X116125000Y-77600000D01*
X117525000Y-77600000D01*
X117553701Y-77605709D01*
G37*
G36*
X128903701Y-77605709D02*
G01*
X128928033Y-77621967D01*
X128944291Y-77646299D01*
X128950000Y-77675000D01*
X128950000Y-77825000D01*
X128944291Y-77853701D01*
X128928033Y-77878033D01*
X128903701Y-77894291D01*
X128875000Y-77900000D01*
X127475000Y-77900000D01*
X127446299Y-77894291D01*
X127421967Y-77878033D01*
X127405709Y-77853701D01*
X127400000Y-77825000D01*
X127400000Y-77675000D01*
X127405709Y-77646299D01*
X127421967Y-77621967D01*
X127446299Y-77605709D01*
X127475000Y-77600000D01*
X128875000Y-77600000D01*
X128903701Y-77605709D01*
G37*
G36*
X112723576Y-77050657D02*
G01*
X112768995Y-77081005D01*
X112799343Y-77126424D01*
X112810000Y-77180000D01*
X112810000Y-77460000D01*
X112799343Y-77513576D01*
X112768995Y-77558995D01*
X112723576Y-77589343D01*
X112670000Y-77600000D01*
X112330000Y-77600000D01*
X112276424Y-77589343D01*
X112231005Y-77558995D01*
X112200657Y-77513576D01*
X112190000Y-77460000D01*
X112190000Y-77180000D01*
X112200657Y-77126424D01*
X112231005Y-77081005D01*
X112276424Y-77050657D01*
X112330000Y-77040000D01*
X112670000Y-77040000D01*
X112723576Y-77050657D01*
G37*
G36*
X106061104Y-76567127D02*
G01*
X106134099Y-76615901D01*
X106182873Y-76688896D01*
X106200000Y-76775000D01*
X106200000Y-77225000D01*
X106182873Y-77311104D01*
X106134099Y-77384099D01*
X106061104Y-77432873D01*
X105975000Y-77450000D01*
X105125000Y-77450000D01*
X105038896Y-77432873D01*
X104965901Y-77384099D01*
X104917127Y-77311104D01*
X104900000Y-77225000D01*
X104900000Y-76775000D01*
X104917127Y-76688896D01*
X104965901Y-76615901D01*
X105038896Y-76567127D01*
X105125000Y-76550000D01*
X105975000Y-76550000D01*
X106061104Y-76567127D01*
G37*
G36*
X117553701Y-77105709D02*
G01*
X117578033Y-77121967D01*
X117594291Y-77146299D01*
X117600000Y-77175000D01*
X117600000Y-77325000D01*
X117594291Y-77353701D01*
X117578033Y-77378033D01*
X117553701Y-77394291D01*
X117525000Y-77400000D01*
X116125000Y-77400000D01*
X116096299Y-77394291D01*
X116071967Y-77378033D01*
X116055709Y-77353701D01*
X116050000Y-77325000D01*
X116050000Y-77175000D01*
X116055709Y-77146299D01*
X116071967Y-77121967D01*
X116096299Y-77105709D01*
X116125000Y-77100000D01*
X117525000Y-77100000D01*
X117553701Y-77105709D01*
G37*
G36*
X128903701Y-77105709D02*
G01*
X128928033Y-77121967D01*
X128944291Y-77146299D01*
X128950000Y-77175000D01*
X128950000Y-77325000D01*
X128944291Y-77353701D01*
X128928033Y-77378033D01*
X128903701Y-77394291D01*
X128875000Y-77400000D01*
X127475000Y-77400000D01*
X127446299Y-77394291D01*
X127421967Y-77378033D01*
X127405709Y-77353701D01*
X127400000Y-77325000D01*
X127400000Y-77175000D01*
X127405709Y-77146299D01*
X127421967Y-77121967D01*
X127446299Y-77105709D01*
X127475000Y-77100000D01*
X128875000Y-77100000D01*
X128903701Y-77105709D01*
G37*
G36*
X111479047Y-76300805D02*
G01*
X111530408Y-76306764D01*
X111547954Y-76314511D01*
X111570671Y-76319030D01*
X111594991Y-76335280D01*
X111615793Y-76344465D01*
X111630000Y-76358672D01*
X111651777Y-76373223D01*
X111666327Y-76394999D01*
X111680534Y-76409206D01*
X111689718Y-76430006D01*
X111705970Y-76454329D01*
X111710489Y-76477048D01*
X111718235Y-76494591D01*
X111724192Y-76545940D01*
X111725000Y-76550000D01*
X111725000Y-77050000D01*
X111724192Y-77054059D01*
X111718235Y-77105408D01*
X111710489Y-77122950D01*
X111705970Y-77145671D01*
X111689716Y-77169995D01*
X111680534Y-77190793D01*
X111666329Y-77204997D01*
X111651777Y-77226777D01*
X111629997Y-77241329D01*
X111615793Y-77255534D01*
X111594995Y-77264716D01*
X111570671Y-77280970D01*
X111547950Y-77285489D01*
X111530408Y-77293235D01*
X111479061Y-77299192D01*
X111475000Y-77300000D01*
X110525000Y-77300000D01*
X110520941Y-77299192D01*
X110469591Y-77293235D01*
X110452048Y-77285489D01*
X110429329Y-77280970D01*
X110405006Y-77264718D01*
X110384206Y-77255534D01*
X110369999Y-77241327D01*
X110348223Y-77226777D01*
X110333672Y-77205000D01*
X110319465Y-77190793D01*
X110310280Y-77169991D01*
X110294030Y-77145671D01*
X110289511Y-77122954D01*
X110281764Y-77105408D01*
X110275805Y-77054049D01*
X110275000Y-77050000D01*
X110275000Y-76550000D01*
X110275804Y-76545953D01*
X110281764Y-76494591D01*
X110289511Y-76477043D01*
X110294030Y-76454329D01*
X110310278Y-76430010D01*
X110319465Y-76409206D01*
X110333674Y-76394996D01*
X110348223Y-76373223D01*
X110369996Y-76358674D01*
X110384206Y-76344465D01*
X110405010Y-76335278D01*
X110429329Y-76319030D01*
X110452043Y-76314511D01*
X110469591Y-76306764D01*
X110520952Y-76300805D01*
X110525000Y-76300000D01*
X111475000Y-76300000D01*
X111479047Y-76300805D01*
G37*
G36*
X103200000Y-77200000D02*
G01*
X100800000Y-77200000D01*
X100800000Y-74800000D01*
X103200000Y-74800000D01*
X103200000Y-77200000D01*
G37*
G36*
X114936104Y-76192127D02*
G01*
X115009099Y-76240901D01*
X115057873Y-76313896D01*
X115075000Y-76400000D01*
X115075000Y-76850000D01*
X115057873Y-76936104D01*
X115009099Y-77009099D01*
X114936104Y-77057873D01*
X114850000Y-77075000D01*
X114350000Y-77075000D01*
X114263896Y-77057873D01*
X114190901Y-77009099D01*
X114142127Y-76936104D01*
X114125000Y-76850000D01*
X114125000Y-76400000D01*
X114142127Y-76313896D01*
X114190901Y-76240901D01*
X114263896Y-76192127D01*
X114350000Y-76175000D01*
X114850000Y-76175000D01*
X114936104Y-76192127D01*
G37*
G36*
X140676662Y-76290276D02*
G01*
X140720459Y-76319541D01*
X140749724Y-76363338D01*
X140760000Y-76415000D01*
X140760000Y-76785000D01*
X140749724Y-76836662D01*
X140720459Y-76880459D01*
X140676662Y-76909724D01*
X140625000Y-76920000D01*
X140355000Y-76920000D01*
X140303338Y-76909724D01*
X140259541Y-76880459D01*
X140230276Y-76836662D01*
X140220000Y-76785000D01*
X140220000Y-76415000D01*
X140230276Y-76363338D01*
X140259541Y-76319541D01*
X140303338Y-76290276D01*
X140355000Y-76280000D01*
X140625000Y-76280000D01*
X140676662Y-76290276D01*
G37*
G36*
X141696662Y-76290276D02*
G01*
X141740459Y-76319541D01*
X141769724Y-76363338D01*
X141780000Y-76415000D01*
X141780000Y-76785000D01*
X141769724Y-76836662D01*
X141740459Y-76880459D01*
X141696662Y-76909724D01*
X141645000Y-76920000D01*
X141375000Y-76920000D01*
X141323338Y-76909724D01*
X141279541Y-76880459D01*
X141250276Y-76836662D01*
X141240000Y-76785000D01*
X141240000Y-76415000D01*
X141250276Y-76363338D01*
X141279541Y-76319541D01*
X141323338Y-76290276D01*
X141375000Y-76280000D01*
X141645000Y-76280000D01*
X141696662Y-76290276D01*
G37*
G36*
X117553701Y-76605709D02*
G01*
X117578033Y-76621967D01*
X117594291Y-76646299D01*
X117600000Y-76675000D01*
X117600000Y-76825000D01*
X117594291Y-76853701D01*
X117578033Y-76878033D01*
X117553701Y-76894291D01*
X117525000Y-76900000D01*
X116125000Y-76900000D01*
X116096299Y-76894291D01*
X116071967Y-76878033D01*
X116055709Y-76853701D01*
X116050000Y-76825000D01*
X116050000Y-76675000D01*
X116055709Y-76646299D01*
X116071967Y-76621967D01*
X116096299Y-76605709D01*
X116125000Y-76600000D01*
X117525000Y-76600000D01*
X117553701Y-76605709D01*
G37*
G36*
X128903701Y-76605709D02*
G01*
X128928033Y-76621967D01*
X128944291Y-76646299D01*
X128950000Y-76675000D01*
X128950000Y-76825000D01*
X128944291Y-76853701D01*
X128928033Y-76878033D01*
X128903701Y-76894291D01*
X128875000Y-76900000D01*
X127475000Y-76900000D01*
X127446299Y-76894291D01*
X127421967Y-76878033D01*
X127405709Y-76853701D01*
X127400000Y-76825000D01*
X127400000Y-76675000D01*
X127405709Y-76646299D01*
X127421967Y-76621967D01*
X127446299Y-76605709D01*
X127475000Y-76600000D01*
X128875000Y-76600000D01*
X128903701Y-76605709D01*
G37*
G36*
X130451537Y-75790224D02*
G01*
X130516421Y-75833579D01*
X130559776Y-75898463D01*
X130575000Y-75975000D01*
X130575000Y-76525000D01*
X130559776Y-76601537D01*
X130516421Y-76666421D01*
X130451537Y-76709776D01*
X130375000Y-76725000D01*
X129975000Y-76725000D01*
X129898463Y-76709776D01*
X129833579Y-76666421D01*
X129790224Y-76601537D01*
X129775000Y-76525000D01*
X129775000Y-75975000D01*
X129790224Y-75898463D01*
X129833579Y-75833579D01*
X129898463Y-75790224D01*
X129975000Y-75775000D01*
X130375000Y-75775000D01*
X130451537Y-75790224D01*
G37*
G36*
X132101537Y-75790224D02*
G01*
X132166421Y-75833579D01*
X132209776Y-75898463D01*
X132225000Y-75975000D01*
X132225000Y-76525000D01*
X132209776Y-76601537D01*
X132166421Y-76666421D01*
X132101537Y-76709776D01*
X132025000Y-76725000D01*
X131625000Y-76725000D01*
X131548463Y-76709776D01*
X131483579Y-76666421D01*
X131440224Y-76601537D01*
X131425000Y-76525000D01*
X131425000Y-75975000D01*
X131440224Y-75898463D01*
X131483579Y-75833579D01*
X131548463Y-75790224D01*
X131625000Y-75775000D01*
X132025000Y-75775000D01*
X132101537Y-75790224D01*
G37*
G36*
X137176662Y-75940276D02*
G01*
X137220459Y-75969541D01*
X137249724Y-76013338D01*
X137260000Y-76065000D01*
X137260000Y-76435000D01*
X137249724Y-76486662D01*
X137220459Y-76530459D01*
X137176662Y-76559724D01*
X137125000Y-76570000D01*
X136855000Y-76570000D01*
X136803338Y-76559724D01*
X136759541Y-76530459D01*
X136730276Y-76486662D01*
X136720000Y-76435000D01*
X136720000Y-76065000D01*
X136730276Y-76013338D01*
X136759541Y-75969541D01*
X136803338Y-75940276D01*
X136855000Y-75930000D01*
X137125000Y-75930000D01*
X137176662Y-75940276D01*
G37*
G36*
X138196662Y-75940276D02*
G01*
X138240459Y-75969541D01*
X138269724Y-76013338D01*
X138280000Y-76065000D01*
X138280000Y-76435000D01*
X138269724Y-76486662D01*
X138240459Y-76530459D01*
X138196662Y-76559724D01*
X138145000Y-76570000D01*
X137875000Y-76570000D01*
X137823338Y-76559724D01*
X137779541Y-76530459D01*
X137750276Y-76486662D01*
X137740000Y-76435000D01*
X137740000Y-76065000D01*
X137750276Y-76013338D01*
X137779541Y-75969541D01*
X137823338Y-75940276D01*
X137875000Y-75930000D01*
X138145000Y-75930000D01*
X138196662Y-75940276D01*
G37*
G36*
X133963576Y-75950657D02*
G01*
X134008995Y-75981005D01*
X134039343Y-76026424D01*
X134050000Y-76080000D01*
X134050000Y-76420000D01*
X134039343Y-76473576D01*
X134008995Y-76518995D01*
X133963576Y-76549343D01*
X133910000Y-76560000D01*
X133630000Y-76560000D01*
X133576424Y-76549343D01*
X133531005Y-76518995D01*
X133500657Y-76473576D01*
X133490000Y-76420000D01*
X133490000Y-76080000D01*
X133500657Y-76026424D01*
X133531005Y-75981005D01*
X133576424Y-75950657D01*
X133630000Y-75940000D01*
X133910000Y-75940000D01*
X133963576Y-75950657D01*
G37*
G36*
X134923576Y-75950657D02*
G01*
X134968995Y-75981005D01*
X134999343Y-76026424D01*
X135010000Y-76080000D01*
X135010000Y-76420000D01*
X134999343Y-76473576D01*
X134968995Y-76518995D01*
X134923576Y-76549343D01*
X134870000Y-76560000D01*
X134590000Y-76560000D01*
X134536424Y-76549343D01*
X134491005Y-76518995D01*
X134460657Y-76473576D01*
X134450000Y-76420000D01*
X134450000Y-76080000D01*
X134460657Y-76026424D01*
X134491005Y-75981005D01*
X134536424Y-75950657D01*
X134590000Y-75940000D01*
X134870000Y-75940000D01*
X134923576Y-75950657D01*
G37*
G36*
X117553701Y-76105709D02*
G01*
X117578033Y-76121967D01*
X117594291Y-76146299D01*
X117600000Y-76175000D01*
X117600000Y-76325000D01*
X117594291Y-76353701D01*
X117578033Y-76378033D01*
X117553701Y-76394291D01*
X117525000Y-76400000D01*
X116125000Y-76400000D01*
X116096299Y-76394291D01*
X116071967Y-76378033D01*
X116055709Y-76353701D01*
X116050000Y-76325000D01*
X116050000Y-76175000D01*
X116055709Y-76146299D01*
X116071967Y-76121967D01*
X116096299Y-76105709D01*
X116125000Y-76100000D01*
X117525000Y-76100000D01*
X117553701Y-76105709D01*
G37*
G36*
X128903701Y-76105709D02*
G01*
X128928033Y-76121967D01*
X128944291Y-76146299D01*
X128950000Y-76175000D01*
X128950000Y-76325000D01*
X128944291Y-76353701D01*
X128928033Y-76378033D01*
X128903701Y-76394291D01*
X128875000Y-76400000D01*
X127475000Y-76400000D01*
X127446299Y-76394291D01*
X127421967Y-76378033D01*
X127405709Y-76353701D01*
X127400000Y-76325000D01*
X127400000Y-76175000D01*
X127405709Y-76146299D01*
X127421967Y-76121967D01*
X127446299Y-76105709D01*
X127475000Y-76100000D01*
X128875000Y-76100000D01*
X128903701Y-76105709D01*
G37*
G36*
X113926662Y-74940276D02*
G01*
X113970459Y-74969541D01*
X113999724Y-75013338D01*
X114010000Y-75065000D01*
X114010000Y-75435000D01*
X113999724Y-75486662D01*
X113970459Y-75530459D01*
X113926662Y-75559724D01*
X113875000Y-75570000D01*
X113605000Y-75570000D01*
X113553338Y-75559724D01*
X113509541Y-75530459D01*
X113480276Y-75486662D01*
X113470000Y-75435000D01*
X113470000Y-75065000D01*
X113480276Y-75013338D01*
X113509541Y-74969541D01*
X113553338Y-74940276D01*
X113605000Y-74930000D01*
X113875000Y-74930000D01*
X113926662Y-74940276D01*
G37*
G36*
X114946662Y-74940276D02*
G01*
X114990459Y-74969541D01*
X115019724Y-75013338D01*
X115030000Y-75065000D01*
X115030000Y-75435000D01*
X115019724Y-75486662D01*
X114990459Y-75530459D01*
X114946662Y-75559724D01*
X114895000Y-75570000D01*
X114625000Y-75570000D01*
X114573338Y-75559724D01*
X114529541Y-75530459D01*
X114500276Y-75486662D01*
X114490000Y-75435000D01*
X114490000Y-75065000D01*
X114500276Y-75013338D01*
X114529541Y-74969541D01*
X114573338Y-74940276D01*
X114625000Y-74930000D01*
X114895000Y-74930000D01*
X114946662Y-74940276D01*
G37*
G36*
X106304047Y-74025805D02*
G01*
X106355408Y-74031764D01*
X106372954Y-74039511D01*
X106395671Y-74044030D01*
X106419991Y-74060280D01*
X106440793Y-74069465D01*
X106455000Y-74083672D01*
X106476777Y-74098223D01*
X106491327Y-74119999D01*
X106505534Y-74134206D01*
X106514718Y-74155006D01*
X106530970Y-74179329D01*
X106535489Y-74202048D01*
X106543235Y-74219591D01*
X106549192Y-74270940D01*
X106550000Y-74275000D01*
X106550000Y-75225000D01*
X106549192Y-75229059D01*
X106543235Y-75280408D01*
X106535489Y-75297950D01*
X106530970Y-75320671D01*
X106514716Y-75344995D01*
X106505534Y-75365793D01*
X106491329Y-75379997D01*
X106476777Y-75401777D01*
X106454997Y-75416329D01*
X106440793Y-75430534D01*
X106419995Y-75439716D01*
X106395671Y-75455970D01*
X106372950Y-75460489D01*
X106355408Y-75468235D01*
X106304061Y-75474192D01*
X106300000Y-75475000D01*
X105800000Y-75475000D01*
X105795941Y-75474192D01*
X105744591Y-75468235D01*
X105727048Y-75460489D01*
X105704329Y-75455970D01*
X105680006Y-75439718D01*
X105659206Y-75430534D01*
X105644999Y-75416327D01*
X105623223Y-75401777D01*
X105608672Y-75380000D01*
X105594465Y-75365793D01*
X105585280Y-75344991D01*
X105569030Y-75320671D01*
X105564511Y-75297954D01*
X105556764Y-75280408D01*
X105550805Y-75229049D01*
X105550000Y-75225000D01*
X105550000Y-74275000D01*
X105550804Y-74270953D01*
X105556764Y-74219591D01*
X105564511Y-74202043D01*
X105569030Y-74179329D01*
X105585278Y-74155010D01*
X105594465Y-74134206D01*
X105608674Y-74119996D01*
X105623223Y-74098223D01*
X105644996Y-74083674D01*
X105659206Y-74069465D01*
X105680010Y-74060278D01*
X105704329Y-74044030D01*
X105727043Y-74039511D01*
X105744591Y-74031764D01*
X105795952Y-74025805D01*
X105800000Y-74025000D01*
X106300000Y-74025000D01*
X106304047Y-74025805D01*
G37*
G36*
X108204047Y-74025805D02*
G01*
X108255408Y-74031764D01*
X108272954Y-74039511D01*
X108295671Y-74044030D01*
X108319991Y-74060280D01*
X108340793Y-74069465D01*
X108355000Y-74083672D01*
X108376777Y-74098223D01*
X108391327Y-74119999D01*
X108405534Y-74134206D01*
X108414718Y-74155006D01*
X108430970Y-74179329D01*
X108435489Y-74202048D01*
X108443235Y-74219591D01*
X108449192Y-74270940D01*
X108450000Y-74275000D01*
X108450000Y-75225000D01*
X108449192Y-75229059D01*
X108443235Y-75280408D01*
X108435489Y-75297950D01*
X108430970Y-75320671D01*
X108414716Y-75344995D01*
X108405534Y-75365793D01*
X108391329Y-75379997D01*
X108376777Y-75401777D01*
X108354997Y-75416329D01*
X108340793Y-75430534D01*
X108319995Y-75439716D01*
X108295671Y-75455970D01*
X108272950Y-75460489D01*
X108255408Y-75468235D01*
X108204061Y-75474192D01*
X108200000Y-75475000D01*
X107700000Y-75475000D01*
X107695941Y-75474192D01*
X107644591Y-75468235D01*
X107627048Y-75460489D01*
X107604329Y-75455970D01*
X107580006Y-75439718D01*
X107559206Y-75430534D01*
X107544999Y-75416327D01*
X107523223Y-75401777D01*
X107508672Y-75380000D01*
X107494465Y-75365793D01*
X107485280Y-75344991D01*
X107469030Y-75320671D01*
X107464511Y-75297954D01*
X107456764Y-75280408D01*
X107450805Y-75229049D01*
X107450000Y-75225000D01*
X107450000Y-74275000D01*
X107450804Y-74270953D01*
X107456764Y-74219591D01*
X107464511Y-74202043D01*
X107469030Y-74179329D01*
X107485278Y-74155010D01*
X107494465Y-74134206D01*
X107508674Y-74119996D01*
X107523223Y-74098223D01*
X107544996Y-74083674D01*
X107559206Y-74069465D01*
X107580010Y-74060278D01*
X107604329Y-74044030D01*
X107627043Y-74039511D01*
X107644591Y-74031764D01*
X107695952Y-74025805D01*
X107700000Y-74025000D01*
X108200000Y-74025000D01*
X108204047Y-74025805D01*
G37*
G36*
X109904047Y-74200805D02*
G01*
X109955408Y-74206764D01*
X109972954Y-74214511D01*
X109995671Y-74219030D01*
X110019991Y-74235280D01*
X110040793Y-74244465D01*
X110055000Y-74258672D01*
X110076777Y-74273223D01*
X110091327Y-74294999D01*
X110105534Y-74309206D01*
X110114718Y-74330006D01*
X110130970Y-74354329D01*
X110135489Y-74377048D01*
X110143235Y-74394591D01*
X110149192Y-74445940D01*
X110150000Y-74450000D01*
X110150000Y-75050000D01*
X110149192Y-75054059D01*
X110143235Y-75105408D01*
X110135489Y-75122950D01*
X110130970Y-75145671D01*
X110114716Y-75169995D01*
X110105534Y-75190793D01*
X110091329Y-75204997D01*
X110076777Y-75226777D01*
X110054997Y-75241329D01*
X110040793Y-75255534D01*
X110019995Y-75264716D01*
X109995671Y-75280970D01*
X109972950Y-75285489D01*
X109955408Y-75293235D01*
X109904061Y-75299192D01*
X109900000Y-75300000D01*
X109300000Y-75300000D01*
X109295941Y-75299192D01*
X109244591Y-75293235D01*
X109227048Y-75285489D01*
X109204329Y-75280970D01*
X109180006Y-75264718D01*
X109159206Y-75255534D01*
X109144999Y-75241327D01*
X109123223Y-75226777D01*
X109108672Y-75205000D01*
X109094465Y-75190793D01*
X109085280Y-75169991D01*
X109069030Y-75145671D01*
X109064511Y-75122954D01*
X109056764Y-75105408D01*
X109050805Y-75054049D01*
X109050000Y-75050000D01*
X109050000Y-74450000D01*
X109050804Y-74445953D01*
X109056764Y-74394591D01*
X109064511Y-74377043D01*
X109069030Y-74354329D01*
X109085278Y-74330010D01*
X109094465Y-74309206D01*
X109108674Y-74294996D01*
X109123223Y-74273223D01*
X109144996Y-74258674D01*
X109159206Y-74244465D01*
X109180010Y-74235278D01*
X109204329Y-74219030D01*
X109227043Y-74214511D01*
X109244591Y-74206764D01*
X109295952Y-74200805D01*
X109300000Y-74200000D01*
X109900000Y-74200000D01*
X109904047Y-74200805D01*
G37*
G36*
X112704047Y-74200805D02*
G01*
X112755408Y-74206764D01*
X112772954Y-74214511D01*
X112795671Y-74219030D01*
X112819991Y-74235280D01*
X112840793Y-74244465D01*
X112855000Y-74258672D01*
X112876777Y-74273223D01*
X112891327Y-74294999D01*
X112905534Y-74309206D01*
X112914718Y-74330006D01*
X112930970Y-74354329D01*
X112935489Y-74377048D01*
X112943235Y-74394591D01*
X112949192Y-74445940D01*
X112950000Y-74450000D01*
X112950000Y-75050000D01*
X112949192Y-75054059D01*
X112943235Y-75105408D01*
X112935489Y-75122950D01*
X112930970Y-75145671D01*
X112914716Y-75169995D01*
X112905534Y-75190793D01*
X112891329Y-75204997D01*
X112876777Y-75226777D01*
X112854997Y-75241329D01*
X112840793Y-75255534D01*
X112819995Y-75264716D01*
X112795671Y-75280970D01*
X112772950Y-75285489D01*
X112755408Y-75293235D01*
X112704061Y-75299192D01*
X112700000Y-75300000D01*
X112100000Y-75300000D01*
X112095941Y-75299192D01*
X112044591Y-75293235D01*
X112027048Y-75285489D01*
X112004329Y-75280970D01*
X111980006Y-75264718D01*
X111959206Y-75255534D01*
X111944999Y-75241327D01*
X111923223Y-75226777D01*
X111908672Y-75205000D01*
X111894465Y-75190793D01*
X111885280Y-75169991D01*
X111869030Y-75145671D01*
X111864511Y-75122954D01*
X111856764Y-75105408D01*
X111850805Y-75054049D01*
X111850000Y-75050000D01*
X111850000Y-74450000D01*
X111850804Y-74445953D01*
X111856764Y-74394591D01*
X111864511Y-74377043D01*
X111869030Y-74354329D01*
X111885278Y-74330010D01*
X111894465Y-74309206D01*
X111908674Y-74294996D01*
X111923223Y-74273223D01*
X111944996Y-74258674D01*
X111959206Y-74244465D01*
X111980010Y-74235278D01*
X112004329Y-74219030D01*
X112027043Y-74214511D01*
X112044591Y-74206764D01*
X112095952Y-74200805D01*
X112100000Y-74200000D01*
X112700000Y-74200000D01*
X112704047Y-74200805D01*
G37*
G36*
X140707403Y-74661418D02*
G01*
X140756066Y-74693934D01*
X140788582Y-74742597D01*
X140800000Y-74800000D01*
X140800000Y-75100000D01*
X140788582Y-75157403D01*
X140756066Y-75206066D01*
X140707403Y-75238582D01*
X140650000Y-75250000D01*
X139475000Y-75250000D01*
X139417597Y-75238582D01*
X139368934Y-75206066D01*
X139336418Y-75157403D01*
X139325000Y-75100000D01*
X139325000Y-74800000D01*
X139336418Y-74742597D01*
X139368934Y-74693934D01*
X139417597Y-74661418D01*
X139475000Y-74650000D01*
X140650000Y-74650000D01*
X140707403Y-74661418D01*
G37*
G36*
X118853701Y-73555709D02*
G01*
X118878033Y-73571967D01*
X118894291Y-73596299D01*
X118900000Y-73625000D01*
X118900000Y-75025000D01*
X118894291Y-75053701D01*
X118878033Y-75078033D01*
X118853701Y-75094291D01*
X118825000Y-75100000D01*
X118675000Y-75100000D01*
X118646299Y-75094291D01*
X118621967Y-75078033D01*
X118605709Y-75053701D01*
X118600000Y-75025000D01*
X118600000Y-73625000D01*
X118605709Y-73596299D01*
X118621967Y-73571967D01*
X118646299Y-73555709D01*
X118675000Y-73550000D01*
X118825000Y-73550000D01*
X118853701Y-73555709D01*
G37*
G36*
X119353701Y-73555709D02*
G01*
X119378033Y-73571967D01*
X119394291Y-73596299D01*
X119400000Y-73625000D01*
X119400000Y-75025000D01*
X119394291Y-75053701D01*
X119378033Y-75078033D01*
X119353701Y-75094291D01*
X119325000Y-75100000D01*
X119175000Y-75100000D01*
X119146299Y-75094291D01*
X119121967Y-75078033D01*
X119105709Y-75053701D01*
X119100000Y-75025000D01*
X119100000Y-73625000D01*
X119105709Y-73596299D01*
X119121967Y-73571967D01*
X119146299Y-73555709D01*
X119175000Y-73550000D01*
X119325000Y-73550000D01*
X119353701Y-73555709D01*
G37*
G36*
X119853701Y-73555709D02*
G01*
X119878033Y-73571967D01*
X119894291Y-73596299D01*
X119900000Y-73625000D01*
X119900000Y-75025000D01*
X119894291Y-75053701D01*
X119878033Y-75078033D01*
X119853701Y-75094291D01*
X119825000Y-75100000D01*
X119675000Y-75100000D01*
X119646299Y-75094291D01*
X119621967Y-75078033D01*
X119605709Y-75053701D01*
X119600000Y-75025000D01*
X119600000Y-73625000D01*
X119605709Y-73596299D01*
X119621967Y-73571967D01*
X119646299Y-73555709D01*
X119675000Y-73550000D01*
X119825000Y-73550000D01*
X119853701Y-73555709D01*
G37*
G36*
X120353701Y-73555709D02*
G01*
X120378033Y-73571967D01*
X120394291Y-73596299D01*
X120400000Y-73625000D01*
X120400000Y-75025000D01*
X120394291Y-75053701D01*
X120378033Y-75078033D01*
X120353701Y-75094291D01*
X120325000Y-75100000D01*
X120175000Y-75100000D01*
X120146299Y-75094291D01*
X120121967Y-75078033D01*
X120105709Y-75053701D01*
X120100000Y-75025000D01*
X120100000Y-73625000D01*
X120105709Y-73596299D01*
X120121967Y-73571967D01*
X120146299Y-73555709D01*
X120175000Y-73550000D01*
X120325000Y-73550000D01*
X120353701Y-73555709D01*
G37*
G36*
X120853701Y-73555709D02*
G01*
X120878033Y-73571967D01*
X120894291Y-73596299D01*
X120900000Y-73625000D01*
X120900000Y-75025000D01*
X120894291Y-75053701D01*
X120878033Y-75078033D01*
X120853701Y-75094291D01*
X120825000Y-75100000D01*
X120675000Y-75100000D01*
X120646299Y-75094291D01*
X120621967Y-75078033D01*
X120605709Y-75053701D01*
X120600000Y-75025000D01*
X120600000Y-73625000D01*
X120605709Y-73596299D01*
X120621967Y-73571967D01*
X120646299Y-73555709D01*
X120675000Y-73550000D01*
X120825000Y-73550000D01*
X120853701Y-73555709D01*
G37*
G36*
X121353701Y-73555709D02*
G01*
X121378033Y-73571967D01*
X121394291Y-73596299D01*
X121400000Y-73625000D01*
X121400000Y-75025000D01*
X121394291Y-75053701D01*
X121378033Y-75078033D01*
X121353701Y-75094291D01*
X121325000Y-75100000D01*
X121175000Y-75100000D01*
X121146299Y-75094291D01*
X121121967Y-75078033D01*
X121105709Y-75053701D01*
X121100000Y-75025000D01*
X121100000Y-73625000D01*
X121105709Y-73596299D01*
X121121967Y-73571967D01*
X121146299Y-73555709D01*
X121175000Y-73550000D01*
X121325000Y-73550000D01*
X121353701Y-73555709D01*
G37*
G36*
X121853701Y-73555709D02*
G01*
X121878033Y-73571967D01*
X121894291Y-73596299D01*
X121900000Y-73625000D01*
X121900000Y-75025000D01*
X121894291Y-75053701D01*
X121878033Y-75078033D01*
X121853701Y-75094291D01*
X121825000Y-75100000D01*
X121675000Y-75100000D01*
X121646299Y-75094291D01*
X121621967Y-75078033D01*
X121605709Y-75053701D01*
X121600000Y-75025000D01*
X121600000Y-73625000D01*
X121605709Y-73596299D01*
X121621967Y-73571967D01*
X121646299Y-73555709D01*
X121675000Y-73550000D01*
X121825000Y-73550000D01*
X121853701Y-73555709D01*
G37*
G36*
X122353701Y-73555709D02*
G01*
X122378033Y-73571967D01*
X122394291Y-73596299D01*
X122400000Y-73625000D01*
X122400000Y-75025000D01*
X122394291Y-75053701D01*
X122378033Y-75078033D01*
X122353701Y-75094291D01*
X122325000Y-75100000D01*
X122175000Y-75100000D01*
X122146299Y-75094291D01*
X122121967Y-75078033D01*
X122105709Y-75053701D01*
X122100000Y-75025000D01*
X122100000Y-73625000D01*
X122105709Y-73596299D01*
X122121967Y-73571967D01*
X122146299Y-73555709D01*
X122175000Y-73550000D01*
X122325000Y-73550000D01*
X122353701Y-73555709D01*
G37*
G36*
X122853701Y-73555709D02*
G01*
X122878033Y-73571967D01*
X122894291Y-73596299D01*
X122900000Y-73625000D01*
X122900000Y-75025000D01*
X122894291Y-75053701D01*
X122878033Y-75078033D01*
X122853701Y-75094291D01*
X122825000Y-75100000D01*
X122675000Y-75100000D01*
X122646299Y-75094291D01*
X122621967Y-75078033D01*
X122605709Y-75053701D01*
X122600000Y-75025000D01*
X122600000Y-73625000D01*
X122605709Y-73596299D01*
X122621967Y-73571967D01*
X122646299Y-73555709D01*
X122675000Y-73550000D01*
X122825000Y-73550000D01*
X122853701Y-73555709D01*
G37*
G36*
X123353701Y-73555709D02*
G01*
X123378033Y-73571967D01*
X123394291Y-73596299D01*
X123400000Y-73625000D01*
X123400000Y-75025000D01*
X123394291Y-75053701D01*
X123378033Y-75078033D01*
X123353701Y-75094291D01*
X123325000Y-75100000D01*
X123175000Y-75100000D01*
X123146299Y-75094291D01*
X123121967Y-75078033D01*
X123105709Y-75053701D01*
X123100000Y-75025000D01*
X123100000Y-73625000D01*
X123105709Y-73596299D01*
X123121967Y-73571967D01*
X123146299Y-73555709D01*
X123175000Y-73550000D01*
X123325000Y-73550000D01*
X123353701Y-73555709D01*
G37*
G36*
X123853701Y-73555709D02*
G01*
X123878033Y-73571967D01*
X123894291Y-73596299D01*
X123900000Y-73625000D01*
X123900000Y-75025000D01*
X123894291Y-75053701D01*
X123878033Y-75078033D01*
X123853701Y-75094291D01*
X123825000Y-75100000D01*
X123675000Y-75100000D01*
X123646299Y-75094291D01*
X123621967Y-75078033D01*
X123605709Y-75053701D01*
X123600000Y-75025000D01*
X123600000Y-73625000D01*
X123605709Y-73596299D01*
X123621967Y-73571967D01*
X123646299Y-73555709D01*
X123675000Y-73550000D01*
X123825000Y-73550000D01*
X123853701Y-73555709D01*
G37*
G36*
X124353701Y-73555709D02*
G01*
X124378033Y-73571967D01*
X124394291Y-73596299D01*
X124400000Y-73625000D01*
X124400000Y-75025000D01*
X124394291Y-75053701D01*
X124378033Y-75078033D01*
X124353701Y-75094291D01*
X124325000Y-75100000D01*
X124175000Y-75100000D01*
X124146299Y-75094291D01*
X124121967Y-75078033D01*
X124105709Y-75053701D01*
X124100000Y-75025000D01*
X124100000Y-73625000D01*
X124105709Y-73596299D01*
X124121967Y-73571967D01*
X124146299Y-73555709D01*
X124175000Y-73550000D01*
X124325000Y-73550000D01*
X124353701Y-73555709D01*
G37*
G36*
X124853701Y-73555709D02*
G01*
X124878033Y-73571967D01*
X124894291Y-73596299D01*
X124900000Y-73625000D01*
X124900000Y-75025000D01*
X124894291Y-75053701D01*
X124878033Y-75078033D01*
X124853701Y-75094291D01*
X124825000Y-75100000D01*
X124675000Y-75100000D01*
X124646299Y-75094291D01*
X124621967Y-75078033D01*
X124605709Y-75053701D01*
X124600000Y-75025000D01*
X124600000Y-73625000D01*
X124605709Y-73596299D01*
X124621967Y-73571967D01*
X124646299Y-73555709D01*
X124675000Y-73550000D01*
X124825000Y-73550000D01*
X124853701Y-73555709D01*
G37*
G36*
X125353701Y-73555709D02*
G01*
X125378033Y-73571967D01*
X125394291Y-73596299D01*
X125400000Y-73625000D01*
X125400000Y-75025000D01*
X125394291Y-75053701D01*
X125378033Y-75078033D01*
X125353701Y-75094291D01*
X125325000Y-75100000D01*
X125175000Y-75100000D01*
X125146299Y-75094291D01*
X125121967Y-75078033D01*
X125105709Y-75053701D01*
X125100000Y-75025000D01*
X125100000Y-73625000D01*
X125105709Y-73596299D01*
X125121967Y-73571967D01*
X125146299Y-73555709D01*
X125175000Y-73550000D01*
X125325000Y-73550000D01*
X125353701Y-73555709D01*
G37*
G36*
X125853701Y-73555709D02*
G01*
X125878033Y-73571967D01*
X125894291Y-73596299D01*
X125900000Y-73625000D01*
X125900000Y-75025000D01*
X125894291Y-75053701D01*
X125878033Y-75078033D01*
X125853701Y-75094291D01*
X125825000Y-75100000D01*
X125675000Y-75100000D01*
X125646299Y-75094291D01*
X125621967Y-75078033D01*
X125605709Y-75053701D01*
X125600000Y-75025000D01*
X125600000Y-73625000D01*
X125605709Y-73596299D01*
X125621967Y-73571967D01*
X125646299Y-73555709D01*
X125675000Y-73550000D01*
X125825000Y-73550000D01*
X125853701Y-73555709D01*
G37*
G36*
X126353701Y-73555709D02*
G01*
X126378033Y-73571967D01*
X126394291Y-73596299D01*
X126400000Y-73625000D01*
X126400000Y-75025000D01*
X126394291Y-75053701D01*
X126378033Y-75078033D01*
X126353701Y-75094291D01*
X126325000Y-75100000D01*
X126175000Y-75100000D01*
X126146299Y-75094291D01*
X126121967Y-75078033D01*
X126105709Y-75053701D01*
X126100000Y-75025000D01*
X126100000Y-73625000D01*
X126105709Y-73596299D01*
X126121967Y-73571967D01*
X126146299Y-73555709D01*
X126175000Y-73550000D01*
X126325000Y-73550000D01*
X126353701Y-73555709D01*
G37*
G36*
X130451537Y-73790224D02*
G01*
X130516421Y-73833579D01*
X130559776Y-73898463D01*
X130575000Y-73975000D01*
X130575000Y-74525000D01*
X130559776Y-74601537D01*
X130516421Y-74666421D01*
X130451537Y-74709776D01*
X130375000Y-74725000D01*
X129975000Y-74725000D01*
X129898463Y-74709776D01*
X129833579Y-74666421D01*
X129790224Y-74601537D01*
X129775000Y-74525000D01*
X129775000Y-73975000D01*
X129790224Y-73898463D01*
X129833579Y-73833579D01*
X129898463Y-73790224D01*
X129975000Y-73775000D01*
X130375000Y-73775000D01*
X130451537Y-73790224D01*
G37*
G36*
X132101537Y-73790224D02*
G01*
X132166421Y-73833579D01*
X132209776Y-73898463D01*
X132225000Y-73975000D01*
X132225000Y-74525000D01*
X132209776Y-74601537D01*
X132166421Y-74666421D01*
X132101537Y-74709776D01*
X132025000Y-74725000D01*
X131625000Y-74725000D01*
X131548463Y-74709776D01*
X131483579Y-74666421D01*
X131440224Y-74601537D01*
X131425000Y-74525000D01*
X131425000Y-73975000D01*
X131440224Y-73898463D01*
X131483579Y-73833579D01*
X131548463Y-73790224D01*
X131625000Y-73775000D01*
X132025000Y-73775000D01*
X132101537Y-73790224D01*
G37*
G36*
X133963576Y-73950657D02*
G01*
X134008995Y-73981005D01*
X134039343Y-74026424D01*
X134050000Y-74080000D01*
X134050000Y-74420000D01*
X134039343Y-74473576D01*
X134008995Y-74518995D01*
X133963576Y-74549343D01*
X133910000Y-74560000D01*
X133630000Y-74560000D01*
X133576424Y-74549343D01*
X133531005Y-74518995D01*
X133500657Y-74473576D01*
X133490000Y-74420000D01*
X133490000Y-74080000D01*
X133500657Y-74026424D01*
X133531005Y-73981005D01*
X133576424Y-73950657D01*
X133630000Y-73940000D01*
X133910000Y-73940000D01*
X133963576Y-73950657D01*
G37*
G36*
X134923576Y-73950657D02*
G01*
X134968995Y-73981005D01*
X134999343Y-74026424D01*
X135010000Y-74080000D01*
X135010000Y-74420000D01*
X134999343Y-74473576D01*
X134968995Y-74518995D01*
X134923576Y-74549343D01*
X134870000Y-74560000D01*
X134590000Y-74560000D01*
X134536424Y-74549343D01*
X134491005Y-74518995D01*
X134460657Y-74473576D01*
X134450000Y-74420000D01*
X134450000Y-74080000D01*
X134460657Y-74026424D01*
X134491005Y-73981005D01*
X134536424Y-73950657D01*
X134590000Y-73940000D01*
X134870000Y-73940000D01*
X134923576Y-73950657D01*
G37*
G36*
X142582403Y-73711418D02*
G01*
X142631066Y-73743934D01*
X142663582Y-73792597D01*
X142675000Y-73850000D01*
X142675000Y-74150000D01*
X142663582Y-74207403D01*
X142631066Y-74256066D01*
X142582403Y-74288582D01*
X142525000Y-74300000D01*
X141350000Y-74300000D01*
X141292597Y-74288582D01*
X141243934Y-74256066D01*
X141211418Y-74207403D01*
X141200000Y-74150000D01*
X141200000Y-73850000D01*
X141211418Y-73792597D01*
X141243934Y-73743934D01*
X141292597Y-73711418D01*
X141350000Y-73700000D01*
X142525000Y-73700000D01*
X142582403Y-73711418D01*
G37*
G36*
X101463576Y-73450657D02*
G01*
X101508995Y-73481005D01*
X101539343Y-73526424D01*
X101550000Y-73580000D01*
X101550000Y-73920000D01*
X101539343Y-73973576D01*
X101508995Y-74018995D01*
X101463576Y-74049343D01*
X101410000Y-74060000D01*
X101130000Y-74060000D01*
X101076424Y-74049343D01*
X101031005Y-74018995D01*
X101000657Y-73973576D01*
X100990000Y-73920000D01*
X100990000Y-73580000D01*
X101000657Y-73526424D01*
X101031005Y-73481005D01*
X101076424Y-73450657D01*
X101130000Y-73440000D01*
X101410000Y-73440000D01*
X101463576Y-73450657D01*
G37*
G36*
X102423576Y-73450657D02*
G01*
X102468995Y-73481005D01*
X102499343Y-73526424D01*
X102510000Y-73580000D01*
X102510000Y-73920000D01*
X102499343Y-73973576D01*
X102468995Y-74018995D01*
X102423576Y-74049343D01*
X102370000Y-74060000D01*
X102090000Y-74060000D01*
X102036424Y-74049343D01*
X101991005Y-74018995D01*
X101960657Y-73973576D01*
X101950000Y-73920000D01*
X101950000Y-73580000D01*
X101960657Y-73526424D01*
X101991005Y-73481005D01*
X102036424Y-73450657D01*
X102090000Y-73440000D01*
X102370000Y-73440000D01*
X102423576Y-73450657D01*
G37*
G36*
X140707403Y-72761418D02*
G01*
X140756066Y-72793934D01*
X140788582Y-72842597D01*
X140800000Y-72900000D01*
X140800000Y-73200000D01*
X140788582Y-73257403D01*
X140756066Y-73306066D01*
X140707403Y-73338582D01*
X140650000Y-73350000D01*
X139475000Y-73350000D01*
X139417597Y-73338582D01*
X139368934Y-73306066D01*
X139336418Y-73257403D01*
X139325000Y-73200000D01*
X139325000Y-72900000D01*
X139336418Y-72842597D01*
X139368934Y-72793934D01*
X139417597Y-72761418D01*
X139475000Y-72750000D01*
X140650000Y-72750000D01*
X140707403Y-72761418D01*
G37*
G36*
X104550000Y-73300000D02*
G01*
X102950000Y-73300000D01*
X102950000Y-71700000D01*
X104550000Y-71700000D01*
X104550000Y-73300000D01*
G37*
G36*
X106522228Y-71734448D02*
G01*
X106667117Y-71794463D01*
X106797515Y-71881592D01*
X106908408Y-71992485D01*
X106995537Y-72122883D01*
X107055552Y-72267772D01*
X107086148Y-72421586D01*
X107086148Y-72578414D01*
X107055552Y-72732228D01*
X106995537Y-72877117D01*
X106908408Y-73007515D01*
X106797515Y-73118408D01*
X106667117Y-73205537D01*
X106522228Y-73265552D01*
X106368414Y-73296148D01*
X106211586Y-73296148D01*
X106057772Y-73265552D01*
X105912883Y-73205537D01*
X105782485Y-73118408D01*
X105671592Y-73007515D01*
X105584463Y-72877117D01*
X105524448Y-72732228D01*
X105493852Y-72578414D01*
X105493852Y-72421586D01*
X105524448Y-72267772D01*
X105584463Y-72122883D01*
X105671592Y-71992485D01*
X105782485Y-71881592D01*
X105912883Y-71794463D01*
X106057772Y-71734448D01*
X106211586Y-71703852D01*
X106368414Y-71703852D01*
X106522228Y-71734448D01*
G37*
G36*
X109062228Y-71734448D02*
G01*
X109207117Y-71794463D01*
X109337515Y-71881592D01*
X109448408Y-71992485D01*
X109535537Y-72122883D01*
X109595552Y-72267772D01*
X109626148Y-72421586D01*
X109626148Y-72578414D01*
X109595552Y-72732228D01*
X109535537Y-72877117D01*
X109448408Y-73007515D01*
X109337515Y-73118408D01*
X109207117Y-73205537D01*
X109062228Y-73265552D01*
X108908414Y-73296148D01*
X108751586Y-73296148D01*
X108597772Y-73265552D01*
X108452883Y-73205537D01*
X108322485Y-73118408D01*
X108211592Y-73007515D01*
X108124463Y-72877117D01*
X108064448Y-72732228D01*
X108033852Y-72578414D01*
X108033852Y-72421586D01*
X108064448Y-72267772D01*
X108124463Y-72122883D01*
X108211592Y-71992485D01*
X108322485Y-71881592D01*
X108452883Y-71794463D01*
X108597772Y-71734448D01*
X108751586Y-71703852D01*
X108908414Y-71703852D01*
X109062228Y-71734448D01*
G37*
G36*
X111602228Y-71734448D02*
G01*
X111747117Y-71794463D01*
X111877515Y-71881592D01*
X111988408Y-71992485D01*
X112075537Y-72122883D01*
X112135552Y-72267772D01*
X112166148Y-72421586D01*
X112166148Y-72578414D01*
X112135552Y-72732228D01*
X112075537Y-72877117D01*
X111988408Y-73007515D01*
X111877515Y-73118408D01*
X111747117Y-73205537D01*
X111602228Y-73265552D01*
X111448414Y-73296148D01*
X111291586Y-73296148D01*
X111137772Y-73265552D01*
X110992883Y-73205537D01*
X110862485Y-73118408D01*
X110751592Y-73007515D01*
X110664463Y-72877117D01*
X110604448Y-72732228D01*
X110573852Y-72578414D01*
X110573852Y-72421586D01*
X110604448Y-72267772D01*
X110664463Y-72122883D01*
X110751592Y-71992485D01*
X110862485Y-71881592D01*
X110992883Y-71794463D01*
X111137772Y-71734448D01*
X111291586Y-71703852D01*
X111448414Y-71703852D01*
X111602228Y-71734448D01*
G37*
G36*
X114142228Y-71734448D02*
G01*
X114287117Y-71794463D01*
X114417515Y-71881592D01*
X114528408Y-71992485D01*
X114615537Y-72122883D01*
X114675552Y-72267772D01*
X114706148Y-72421586D01*
X114706148Y-72578414D01*
X114675552Y-72732228D01*
X114615537Y-72877117D01*
X114528408Y-73007515D01*
X114417515Y-73118408D01*
X114287117Y-73205537D01*
X114142228Y-73265552D01*
X113988414Y-73296148D01*
X113831586Y-73296148D01*
X113677772Y-73265552D01*
X113532883Y-73205537D01*
X113402485Y-73118408D01*
X113291592Y-73007515D01*
X113204463Y-72877117D01*
X113144448Y-72732228D01*
X113113852Y-72578414D01*
X113113852Y-72421586D01*
X113144448Y-72267772D01*
X113204463Y-72122883D01*
X113291592Y-71992485D01*
X113402485Y-71881592D01*
X113532883Y-71794463D01*
X113677772Y-71734448D01*
X113831586Y-71703852D01*
X113988414Y-71703852D01*
X114142228Y-71734448D01*
G37*
G36*
X130451537Y-71790224D02*
G01*
X130516421Y-71833579D01*
X130559776Y-71898463D01*
X130575000Y-71975000D01*
X130575000Y-72525000D01*
X130559776Y-72601537D01*
X130516421Y-72666421D01*
X130451537Y-72709776D01*
X130375000Y-72725000D01*
X129975000Y-72725000D01*
X129898463Y-72709776D01*
X129833579Y-72666421D01*
X129790224Y-72601537D01*
X129775000Y-72525000D01*
X129775000Y-71975000D01*
X129790224Y-71898463D01*
X129833579Y-71833579D01*
X129898463Y-71790224D01*
X129975000Y-71775000D01*
X130375000Y-71775000D01*
X130451537Y-71790224D01*
G37*
G36*
X132101537Y-71790224D02*
G01*
X132166421Y-71833579D01*
X132209776Y-71898463D01*
X132225000Y-71975000D01*
X132225000Y-72525000D01*
X132209776Y-72601537D01*
X132166421Y-72666421D01*
X132101537Y-72709776D01*
X132025000Y-72725000D01*
X131625000Y-72725000D01*
X131548463Y-72709776D01*
X131483579Y-72666421D01*
X131440224Y-72601537D01*
X131425000Y-72525000D01*
X131425000Y-71975000D01*
X131440224Y-71898463D01*
X131483579Y-71833579D01*
X131548463Y-71790224D01*
X131625000Y-71775000D01*
X132025000Y-71775000D01*
X132101537Y-71790224D01*
G37*
G36*
X133963576Y-71950657D02*
G01*
X134008995Y-71981005D01*
X134039343Y-72026424D01*
X134050000Y-72080000D01*
X134050000Y-72420000D01*
X134039343Y-72473576D01*
X134008995Y-72518995D01*
X133963576Y-72549343D01*
X133910000Y-72560000D01*
X133630000Y-72560000D01*
X133576424Y-72549343D01*
X133531005Y-72518995D01*
X133500657Y-72473576D01*
X133490000Y-72420000D01*
X133490000Y-72080000D01*
X133500657Y-72026424D01*
X133531005Y-71981005D01*
X133576424Y-71950657D01*
X133630000Y-71940000D01*
X133910000Y-71940000D01*
X133963576Y-71950657D01*
G37*
G36*
X134923576Y-71950657D02*
G01*
X134968995Y-71981005D01*
X134999343Y-72026424D01*
X135010000Y-72080000D01*
X135010000Y-72420000D01*
X134999343Y-72473576D01*
X134968995Y-72518995D01*
X134923576Y-72549343D01*
X134870000Y-72560000D01*
X134590000Y-72560000D01*
X134536424Y-72549343D01*
X134491005Y-72518995D01*
X134460657Y-72473576D01*
X134450000Y-72420000D01*
X134450000Y-72080000D01*
X134460657Y-72026424D01*
X134491005Y-71981005D01*
X134536424Y-71950657D01*
X134590000Y-71940000D01*
X134870000Y-71940000D01*
X134923576Y-71950657D01*
G37*
G36*
X118176662Y-71690276D02*
G01*
X118220459Y-71719541D01*
X118249724Y-71763338D01*
X118260000Y-71815000D01*
X118260000Y-72185000D01*
X118249724Y-72236662D01*
X118220459Y-72280459D01*
X118176662Y-72309724D01*
X118125000Y-72320000D01*
X117855000Y-72320000D01*
X117803338Y-72309724D01*
X117759541Y-72280459D01*
X117730276Y-72236662D01*
X117720000Y-72185000D01*
X117720000Y-71815000D01*
X117730276Y-71763338D01*
X117759541Y-71719541D01*
X117803338Y-71690276D01*
X117855000Y-71680000D01*
X118125000Y-71680000D01*
X118176662Y-71690276D01*
G37*
G36*
X119196662Y-71690276D02*
G01*
X119240459Y-71719541D01*
X119269724Y-71763338D01*
X119280000Y-71815000D01*
X119280000Y-72185000D01*
X119269724Y-72236662D01*
X119240459Y-72280459D01*
X119196662Y-72309724D01*
X119145000Y-72320000D01*
X118875000Y-72320000D01*
X118823338Y-72309724D01*
X118779541Y-72280459D01*
X118750276Y-72236662D01*
X118740000Y-72185000D01*
X118740000Y-71815000D01*
X118750276Y-71763338D01*
X118779541Y-71719541D01*
X118823338Y-71690276D01*
X118875000Y-71680000D01*
X119145000Y-71680000D01*
X119196662Y-71690276D01*
G37*
G36*
X172656662Y-71690276D02*
G01*
X172700459Y-71719541D01*
X172729724Y-71763338D01*
X172740000Y-71815000D01*
X172740000Y-72185000D01*
X172729724Y-72236662D01*
X172700459Y-72280459D01*
X172656662Y-72309724D01*
X172605000Y-72320000D01*
X172335000Y-72320000D01*
X172283338Y-72309724D01*
X172239541Y-72280459D01*
X172210276Y-72236662D01*
X172200000Y-72185000D01*
X172200000Y-71815000D01*
X172210276Y-71763338D01*
X172239541Y-71719541D01*
X172283338Y-71690276D01*
X172335000Y-71680000D01*
X172605000Y-71680000D01*
X172656662Y-71690276D01*
G37*
G36*
X173676662Y-71690276D02*
G01*
X173720459Y-71719541D01*
X173749724Y-71763338D01*
X173760000Y-71815000D01*
X173760000Y-72185000D01*
X173749724Y-72236662D01*
X173720459Y-72280459D01*
X173676662Y-72309724D01*
X173625000Y-72320000D01*
X173355000Y-72320000D01*
X173303338Y-72309724D01*
X173259541Y-72280459D01*
X173230276Y-72236662D01*
X173220000Y-72185000D01*
X173220000Y-71815000D01*
X173230276Y-71763338D01*
X173259541Y-71719541D01*
X173303338Y-71690276D01*
X173355000Y-71680000D01*
X173625000Y-71680000D01*
X173676662Y-71690276D01*
G37*
G36*
X120213576Y-71700657D02*
G01*
X120258995Y-71731005D01*
X120289343Y-71776424D01*
X120300000Y-71830000D01*
X120300000Y-72170000D01*
X120289343Y-72223576D01*
X120258995Y-72268995D01*
X120213576Y-72299343D01*
X120160000Y-72310000D01*
X119880000Y-72310000D01*
X119826424Y-72299343D01*
X119781005Y-72268995D01*
X119750657Y-72223576D01*
X119740000Y-72170000D01*
X119740000Y-71830000D01*
X119750657Y-71776424D01*
X119781005Y-71731005D01*
X119826424Y-71700657D01*
X119880000Y-71690000D01*
X120160000Y-71690000D01*
X120213576Y-71700657D01*
G37*
G36*
X121173576Y-71700657D02*
G01*
X121218995Y-71731005D01*
X121249343Y-71776424D01*
X121260000Y-71830000D01*
X121260000Y-72170000D01*
X121249343Y-72223576D01*
X121218995Y-72268995D01*
X121173576Y-72299343D01*
X121120000Y-72310000D01*
X120840000Y-72310000D01*
X120786424Y-72299343D01*
X120741005Y-72268995D01*
X120710657Y-72223576D01*
X120700000Y-72170000D01*
X120700000Y-71830000D01*
X120710657Y-71776424D01*
X120741005Y-71731005D01*
X120786424Y-71700657D01*
X120840000Y-71690000D01*
X121120000Y-71690000D01*
X121173576Y-71700657D01*
G37*
G36*
X122213576Y-71700657D02*
G01*
X122258995Y-71731005D01*
X122289343Y-71776424D01*
X122300000Y-71830000D01*
X122300000Y-72170000D01*
X122289343Y-72223576D01*
X122258995Y-72268995D01*
X122213576Y-72299343D01*
X122160000Y-72310000D01*
X121880000Y-72310000D01*
X121826424Y-72299343D01*
X121781005Y-72268995D01*
X121750657Y-72223576D01*
X121740000Y-72170000D01*
X121740000Y-71830000D01*
X121750657Y-71776424D01*
X121781005Y-71731005D01*
X121826424Y-71700657D01*
X121880000Y-71690000D01*
X122160000Y-71690000D01*
X122213576Y-71700657D01*
G37*
G36*
X123173576Y-71700657D02*
G01*
X123218995Y-71731005D01*
X123249343Y-71776424D01*
X123260000Y-71830000D01*
X123260000Y-72170000D01*
X123249343Y-72223576D01*
X123218995Y-72268995D01*
X123173576Y-72299343D01*
X123120000Y-72310000D01*
X122840000Y-72310000D01*
X122786424Y-72299343D01*
X122741005Y-72268995D01*
X122710657Y-72223576D01*
X122700000Y-72170000D01*
X122700000Y-71830000D01*
X122710657Y-71776424D01*
X122741005Y-71731005D01*
X122786424Y-71700657D01*
X122840000Y-71690000D01*
X123120000Y-71690000D01*
X123173576Y-71700657D01*
G37*
M02*
