%TF.GenerationSoftware,KiCad,Pcbnew,10.0.6*%
%TF.CreationDate,2026-09-25T01:06:32-05:00*%
%TF.ProjectId,hp_sensor_routed,68705f73-656e-4736-9f72-5f726f757465,rev?*%
%TF.SameCoordinates,Original*%
%TF.FileFunction,Copper,L3,Inr*%
%TF.FilePolarity,Positive*%
%FSLAX46Y46*%
G04 Gerber Fmt 4.6, Leading zero omitted, Abs format (unit mm)*
G04 Created by KiCad (PCBNEW 10.0.6) date 2026-09-25 01:06:32*
%MOMM*%
%LPD*%
G01*
G04 APERTURE LIST*
%TA.AperFunction,ComponentPad*%
%ADD10R,1.600000X1.600000*%
%TD*%
%TA.AperFunction,ComponentPad*%
%ADD11C,1.600000*%
%TD*%
%TA.AperFunction,ComponentPad*%
%ADD12R,2.400000X2.400000*%
%TD*%
%TA.AperFunction,ComponentPad*%
%ADD13C,2.400000*%
%TD*%
%TA.AperFunction,ViaPad*%
%ADD14C,0.600000*%
%TD*%
G04 APERTURE END LIST*
D10*
%TO.N,VUSB*%
%TO.C,J2*%
X103750000Y-87500000D03*
D11*
%TO.N,USB_DM*%
X106290000Y-87500000D03*
%TO.N,USB_DP*%
X108830000Y-87500000D03*
%TO.N,GND*%
X111370000Y-87500000D03*
%TO.N,MD*%
X113910000Y-87500000D03*
%TD*%
D12*
%TO.N,VIN*%
%TO.C,J1*%
X102000000Y-76000000D03*
D13*
%TO.N,SDI_LINE*%
X102000000Y-80000000D03*
%TO.N,GND*%
X102000000Y-84000000D03*
%TD*%
D10*
%TO.N,GND*%
%TO.C,J5*%
X103750000Y-72500000D03*
D11*
%TO.N,+5V*%
X106290000Y-72500000D03*
%TO.N,SWDIO*%
X108830000Y-72500000D03*
%TO.N,SWCLK*%
X111370000Y-72500000D03*
%TO.N,RESET*%
X113910000Y-72500000D03*
%TD*%
D14*
%TO.N,+5V*%
X122875000Y-72875000D03*
X134250000Y-87375000D03*
X114875000Y-83125000D03*
X126750000Y-87375000D03*
X122250000Y-87375000D03*
X120750000Y-84375000D03*
X129125000Y-88000000D03*
X118125000Y-77750000D03*
X132000000Y-87375000D03*
X136000000Y-86875000D03*
X135250000Y-80250000D03*
X130500000Y-81625000D03*
X136250000Y-78000000D03*
X124250000Y-87375000D03*
X117375000Y-72000000D03*
X106500000Y-82500000D03*
X115500000Y-80750000D03*
%TD*%
%TA.AperFunction,Conductor*%
%TO.N,+5V*%
G36*
X102775608Y-71428907D02*
G01*
X102811572Y-71478407D01*
X102811572Y-71539593D01*
X102799732Y-71564002D01*
X102761134Y-71621766D01*
X102761132Y-71621772D01*
X102749501Y-71680241D01*
X102749500Y-71680253D01*
X102749500Y-72869686D01*
X102730593Y-72927877D01*
X102681093Y-72963841D01*
X102619907Y-72963841D01*
X102570407Y-72927877D01*
X102564764Y-72919187D01*
X102550476Y-72894440D01*
X102550475Y-72894438D01*
X102480562Y-72824525D01*
X102480559Y-72824523D01*
X102394941Y-72775091D01*
X102394943Y-72775091D01*
X102357885Y-72765161D01*
X102299435Y-72749500D01*
X102200565Y-72749500D01*
X102142114Y-72765161D01*
X102105057Y-72775091D01*
X102019440Y-72824523D01*
X101949523Y-72894440D01*
X101900091Y-72980057D01*
X101889405Y-73019938D01*
X101874500Y-73075565D01*
X101874500Y-73174435D01*
X101889539Y-73230562D01*
X101900091Y-73269942D01*
X101947774Y-73352529D01*
X101949525Y-73355562D01*
X102019438Y-73425475D01*
X102019440Y-73425476D01*
X102105058Y-73474908D01*
X102105056Y-73474908D01*
X102105060Y-73474909D01*
X102105062Y-73474910D01*
X102200565Y-73500500D01*
X102200567Y-73500500D01*
X102299433Y-73500500D01*
X102299435Y-73500500D01*
X102394938Y-73474910D01*
X102394940Y-73474908D01*
X102394942Y-73474908D01*
X102447516Y-73444554D01*
X102480562Y-73425475D01*
X102550475Y-73355562D01*
X102572281Y-73317791D01*
X102617749Y-73276851D01*
X102678599Y-73270455D01*
X102731588Y-73301047D01*
X102755114Y-73347975D01*
X102761132Y-73378228D01*
X102761134Y-73378233D01*
X102804253Y-73442764D01*
X102805448Y-73444552D01*
X102871769Y-73488867D01*
X102916231Y-73497711D01*
X102930241Y-73500498D01*
X102930246Y-73500498D01*
X102930252Y-73500500D01*
X102930253Y-73500500D01*
X103869687Y-73500500D01*
X103927878Y-73519407D01*
X103963842Y-73568907D01*
X103963842Y-73630093D01*
X103927878Y-73679593D01*
X103919187Y-73685236D01*
X103894440Y-73699523D01*
X103824523Y-73769440D01*
X103775091Y-73855057D01*
X103774956Y-73855562D01*
X103749500Y-73950565D01*
X103749500Y-74049435D01*
X103764539Y-74105562D01*
X103775091Y-74144942D01*
X103824233Y-74230057D01*
X103824525Y-74230562D01*
X103894438Y-74300475D01*
X103922979Y-74316953D01*
X103980058Y-74349908D01*
X103980056Y-74349908D01*
X103980060Y-74349909D01*
X103980062Y-74349910D01*
X104075565Y-74375500D01*
X104075567Y-74375500D01*
X104174433Y-74375500D01*
X104174435Y-74375500D01*
X104269938Y-74349910D01*
X104269940Y-74349908D01*
X104269942Y-74349908D01*
X104312103Y-74325566D01*
X104355562Y-74300475D01*
X104425475Y-74230562D01*
X104471935Y-74150091D01*
X104474908Y-74144942D01*
X104474908Y-74144940D01*
X104474910Y-74144938D01*
X104500500Y-74049435D01*
X104500500Y-73950565D01*
X104474910Y-73855062D01*
X104474908Y-73855059D01*
X104474908Y-73855057D01*
X104425476Y-73769440D01*
X104425475Y-73769438D01*
X104355562Y-73699525D01*
X104330813Y-73685236D01*
X104289872Y-73639767D01*
X104283476Y-73578917D01*
X104314069Y-73525929D01*
X104369965Y-73501042D01*
X104380313Y-73500500D01*
X104569747Y-73500500D01*
X104569748Y-73500500D01*
X104628231Y-73488867D01*
X104694552Y-73444552D01*
X104738867Y-73378231D01*
X104750500Y-73319748D01*
X104750500Y-71680252D01*
X104738867Y-71621769D01*
X104700268Y-71564002D01*
X104683659Y-71505114D01*
X104704836Y-71447710D01*
X104755710Y-71413717D01*
X104782583Y-71410000D01*
X108349353Y-71410000D01*
X108407544Y-71428907D01*
X108443508Y-71478407D01*
X108443508Y-71539593D01*
X108407544Y-71589093D01*
X108387239Y-71600464D01*
X108356085Y-71613368D01*
X108192218Y-71722861D01*
X108192214Y-71722864D01*
X108052864Y-71862214D01*
X108052861Y-71862218D01*
X107943367Y-72026086D01*
X107867949Y-72208163D01*
X107867949Y-72208165D01*
X107829500Y-72401456D01*
X107829500Y-72598543D01*
X107838630Y-72644440D01*
X107864618Y-72775091D01*
X107867949Y-72791834D01*
X107867949Y-72791836D01*
X107943367Y-72973913D01*
X107947476Y-72980062D01*
X108052861Y-73137782D01*
X108192218Y-73277139D01*
X108356086Y-73386632D01*
X108538165Y-73462051D01*
X108731459Y-73500500D01*
X108731460Y-73500500D01*
X108928540Y-73500500D01*
X108928541Y-73500500D01*
X109121835Y-73462051D01*
X109303914Y-73386632D01*
X109467782Y-73277139D01*
X109607139Y-73137782D01*
X109716632Y-72973914D01*
X109792051Y-72791835D01*
X109830500Y-72598541D01*
X109830500Y-72401459D01*
X109792051Y-72208165D01*
X109716632Y-72026086D01*
X109607139Y-71862218D01*
X109467782Y-71722861D01*
X109303914Y-71613368D01*
X109272761Y-71600464D01*
X109226236Y-71560727D01*
X109211952Y-71501233D01*
X109235367Y-71444705D01*
X109287536Y-71412735D01*
X109310647Y-71410000D01*
X110889353Y-71410000D01*
X110947544Y-71428907D01*
X110983508Y-71478407D01*
X110983508Y-71539593D01*
X110947544Y-71589093D01*
X110927239Y-71600464D01*
X110896085Y-71613368D01*
X110732218Y-71722861D01*
X110732214Y-71722864D01*
X110592864Y-71862214D01*
X110592861Y-71862218D01*
X110483367Y-72026086D01*
X110407949Y-72208163D01*
X110407949Y-72208165D01*
X110369500Y-72401456D01*
X110369500Y-72598543D01*
X110378630Y-72644440D01*
X110404618Y-72775091D01*
X110407949Y-72791834D01*
X110407949Y-72791836D01*
X110483367Y-72973913D01*
X110487476Y-72980062D01*
X110592861Y-73137782D01*
X110732218Y-73277139D01*
X110896086Y-73386632D01*
X111078165Y-73462051D01*
X111175394Y-73481391D01*
X111228776Y-73511286D01*
X111254392Y-73566851D01*
X111242455Y-73626861D01*
X111205580Y-73664224D01*
X111144438Y-73699525D01*
X111074523Y-73769440D01*
X111025091Y-73855057D01*
X111024956Y-73855562D01*
X110999500Y-73950565D01*
X110999500Y-74049435D01*
X111014539Y-74105562D01*
X111025091Y-74144942D01*
X111074233Y-74230057D01*
X111074525Y-74230562D01*
X111144438Y-74300475D01*
X111186090Y-74324523D01*
X111206445Y-74336275D01*
X111247385Y-74381745D01*
X111253780Y-74442595D01*
X111226949Y-74492013D01*
X111199524Y-74519438D01*
X111150091Y-74605057D01*
X111139539Y-74644438D01*
X111124500Y-74700565D01*
X111124500Y-74799435D01*
X111139539Y-74855562D01*
X111150091Y-74894942D01*
X111199233Y-74980057D01*
X111199525Y-74980562D01*
X111269438Y-75050475D01*
X111269440Y-75050476D01*
X111355058Y-75099908D01*
X111355056Y-75099908D01*
X111355060Y-75099909D01*
X111355062Y-75099910D01*
X111450565Y-75125500D01*
X111450567Y-75125500D01*
X111549433Y-75125500D01*
X111549435Y-75125500D01*
X111644938Y-75099910D01*
X111644940Y-75099908D01*
X111644942Y-75099908D01*
X111687103Y-75075566D01*
X111730562Y-75050475D01*
X111800475Y-74980562D01*
X111849910Y-74894938D01*
X111875500Y-74799435D01*
X111875500Y-74700565D01*
X111849910Y-74605062D01*
X111846699Y-74599501D01*
X111832880Y-74575565D01*
X114374500Y-74575565D01*
X114374500Y-74674435D01*
X114389539Y-74730562D01*
X114400091Y-74769942D01*
X114449233Y-74855057D01*
X114449525Y-74855562D01*
X114519438Y-74925475D01*
X114519440Y-74925476D01*
X114605058Y-74974908D01*
X114605056Y-74974908D01*
X114605060Y-74974909D01*
X114605062Y-74974910D01*
X114700565Y-75000500D01*
X114700567Y-75000500D01*
X114799433Y-75000500D01*
X114799435Y-75000500D01*
X114894938Y-74974910D01*
X114894940Y-74974908D01*
X114894942Y-74974908D01*
X114937103Y-74950566D01*
X114937105Y-74950565D01*
X126624500Y-74950565D01*
X126624500Y-75049435D01*
X126639539Y-75105562D01*
X126650091Y-75144942D01*
X126699523Y-75230559D01*
X126699525Y-75230562D01*
X126769438Y-75300475D01*
X126769440Y-75300476D01*
X126855058Y-75349908D01*
X126855056Y-75349908D01*
X126855060Y-75349909D01*
X126855062Y-75349910D01*
X126950565Y-75375500D01*
X126950567Y-75375500D01*
X127049433Y-75375500D01*
X127049435Y-75375500D01*
X127144938Y-75349910D01*
X127144940Y-75349908D01*
X127144942Y-75349908D01*
X127188906Y-75324525D01*
X127230562Y-75300475D01*
X127300475Y-75230562D01*
X127346935Y-75150091D01*
X127349908Y-75144942D01*
X127349908Y-75144940D01*
X127349910Y-75144938D01*
X127368498Y-75075565D01*
X131374500Y-75075565D01*
X131374500Y-75174435D01*
X131389539Y-75230562D01*
X131400091Y-75269942D01*
X131449233Y-75355057D01*
X131449525Y-75355562D01*
X131519438Y-75425475D01*
X131519440Y-75425476D01*
X131605058Y-75474908D01*
X131605056Y-75474908D01*
X131605060Y-75474909D01*
X131605062Y-75474910D01*
X131700565Y-75500500D01*
X131700567Y-75500500D01*
X131799433Y-75500500D01*
X131799435Y-75500500D01*
X131894938Y-75474910D01*
X131894940Y-75474908D01*
X131894942Y-75474908D01*
X131937103Y-75450566D01*
X131980562Y-75425475D01*
X132050475Y-75355562D01*
X132096935Y-75275091D01*
X132099908Y-75269942D01*
X132099908Y-75269940D01*
X132099910Y-75269938D01*
X132125500Y-75174435D01*
X132125500Y-75075565D01*
X132099910Y-74980062D01*
X132099908Y-74980059D01*
X132099908Y-74980057D01*
X132050476Y-74894440D01*
X132050475Y-74894438D01*
X131981602Y-74825565D01*
X140999500Y-74825565D01*
X140999500Y-74924435D01*
X141014539Y-74980562D01*
X141025091Y-75019942D01*
X141074523Y-75105559D01*
X141074525Y-75105562D01*
X141144438Y-75175475D01*
X141144440Y-75175476D01*
X141230058Y-75224908D01*
X141230056Y-75224908D01*
X141230060Y-75224909D01*
X141230062Y-75224910D01*
X141325565Y-75250500D01*
X141325567Y-75250500D01*
X141424433Y-75250500D01*
X141424435Y-75250500D01*
X141519938Y-75224910D01*
X141519940Y-75224908D01*
X141519942Y-75224908D01*
X141563906Y-75199525D01*
X141605562Y-75175475D01*
X141675475Y-75105562D01*
X141724910Y-75019938D01*
X141750500Y-74924435D01*
X141750500Y-74825565D01*
X141724910Y-74730062D01*
X141724908Y-74730059D01*
X141724908Y-74730057D01*
X141675476Y-74644440D01*
X141675475Y-74644438D01*
X141605562Y-74574525D01*
X141605559Y-74574523D01*
X141519941Y-74525091D01*
X141519943Y-74525091D01*
X141482885Y-74515161D01*
X141424435Y-74499500D01*
X141325565Y-74499500D01*
X141267114Y-74515161D01*
X141230057Y-74525091D01*
X141144440Y-74574523D01*
X141074523Y-74644440D01*
X141025091Y-74730057D01*
X141014539Y-74769438D01*
X140999500Y-74825565D01*
X131981602Y-74825565D01*
X131980562Y-74824525D01*
X131980559Y-74824523D01*
X131894941Y-74775091D01*
X131894943Y-74775091D01*
X131857885Y-74765161D01*
X131799435Y-74749500D01*
X131700565Y-74749500D01*
X131642114Y-74765161D01*
X131605057Y-74775091D01*
X131519440Y-74824523D01*
X131449523Y-74894440D01*
X131400091Y-74980057D01*
X131389405Y-75019938D01*
X131374500Y-75075565D01*
X127368498Y-75075565D01*
X127375500Y-75049435D01*
X127375500Y-74950565D01*
X127349910Y-74855062D01*
X127349908Y-74855059D01*
X127349908Y-74855057D01*
X127300476Y-74769440D01*
X127300475Y-74769438D01*
X127230562Y-74699525D01*
X127230559Y-74699523D01*
X127144941Y-74650091D01*
X127144943Y-74650091D01*
X127107885Y-74640161D01*
X127049435Y-74624500D01*
X126950565Y-74624500D01*
X126892114Y-74640161D01*
X126855057Y-74650091D01*
X126769440Y-74699523D01*
X126699523Y-74769440D01*
X126650091Y-74855057D01*
X126639539Y-74894438D01*
X126624500Y-74950565D01*
X114937105Y-74950565D01*
X114980562Y-74925475D01*
X115050475Y-74855562D01*
X115096935Y-74775091D01*
X115099908Y-74769942D01*
X115099908Y-74769940D01*
X115099910Y-74769938D01*
X115125500Y-74674435D01*
X115125500Y-74575565D01*
X115099910Y-74480062D01*
X115099908Y-74480059D01*
X115099908Y-74480057D01*
X115050476Y-74394440D01*
X115050475Y-74394438D01*
X114980562Y-74324525D01*
X114950908Y-74307404D01*
X114894941Y-74275091D01*
X114894943Y-74275091D01*
X114857885Y-74265161D01*
X114799435Y-74249500D01*
X114700565Y-74249500D01*
X114642114Y-74265161D01*
X114605057Y-74275091D01*
X114519440Y-74324523D01*
X114449523Y-74394440D01*
X114400091Y-74480057D01*
X114389539Y-74519438D01*
X114374500Y-74575565D01*
X111832880Y-74575565D01*
X111800476Y-74519440D01*
X111800475Y-74519438D01*
X111730562Y-74449525D01*
X111718559Y-74442595D01*
X111668554Y-74413724D01*
X111627614Y-74368254D01*
X111621219Y-74307404D01*
X111648051Y-74257985D01*
X111675475Y-74230562D01*
X111721935Y-74150091D01*
X111724908Y-74144942D01*
X111724908Y-74144941D01*
X111724910Y-74144938D01*
X111743498Y-74075565D01*
X117749500Y-74075565D01*
X117749500Y-74174435D01*
X117764539Y-74230561D01*
X117775091Y-74269942D01*
X117824233Y-74355057D01*
X117824525Y-74355562D01*
X117894438Y-74425475D01*
X117894440Y-74425476D01*
X117980058Y-74474908D01*
X117980056Y-74474908D01*
X117980060Y-74474909D01*
X117980062Y-74474910D01*
X118075565Y-74500500D01*
X118075567Y-74500500D01*
X118174433Y-74500500D01*
X118174435Y-74500500D01*
X118269938Y-74474910D01*
X118269940Y-74474908D01*
X118269942Y-74474908D01*
X118312103Y-74450566D01*
X118312105Y-74450565D01*
X129124500Y-74450565D01*
X129124500Y-74549435D01*
X129139539Y-74605562D01*
X129150091Y-74644942D01*
X129199233Y-74730057D01*
X129199525Y-74730562D01*
X129269438Y-74800475D01*
X129269440Y-74800476D01*
X129355058Y-74849908D01*
X129355056Y-74849908D01*
X129355060Y-74849909D01*
X129355062Y-74849910D01*
X129450565Y-74875500D01*
X129450567Y-74875500D01*
X129549433Y-74875500D01*
X129549435Y-74875500D01*
X129644938Y-74849910D01*
X129644940Y-74849908D01*
X129644942Y-74849908D01*
X129687103Y-74825566D01*
X129730562Y-74800475D01*
X129800475Y-74730562D01*
X129835222Y-74670377D01*
X129849908Y-74644942D01*
X129849908Y-74644940D01*
X129849910Y-74644938D01*
X129875500Y-74549435D01*
X129875500Y-74450565D01*
X129849910Y-74355062D01*
X129849908Y-74355059D01*
X129849908Y-74355057D01*
X129832880Y-74325565D01*
X139624500Y-74325565D01*
X139624500Y-74424435D01*
X139631223Y-74449524D01*
X139650091Y-74519942D01*
X139699236Y-74605062D01*
X139699525Y-74605562D01*
X139769438Y-74675475D01*
X139769440Y-74675476D01*
X139855058Y-74724908D01*
X139855056Y-74724908D01*
X139855060Y-74724909D01*
X139855062Y-74724910D01*
X139950565Y-74750500D01*
X139950567Y-74750500D01*
X140049433Y-74750500D01*
X140049435Y-74750500D01*
X140144938Y-74724910D01*
X140144940Y-74724908D01*
X140144942Y-74724908D01*
X140187103Y-74700566D01*
X140230562Y-74675475D01*
X140300475Y-74605562D01*
X140346935Y-74525091D01*
X140349908Y-74519942D01*
X140349908Y-74519940D01*
X140349910Y-74519938D01*
X140375500Y-74424435D01*
X140375500Y-74325565D01*
X140349910Y-74230062D01*
X140349908Y-74230059D01*
X140349908Y-74230057D01*
X140300476Y-74144440D01*
X140300475Y-74144438D01*
X140230562Y-74074525D01*
X140230559Y-74074523D01*
X140144941Y-74025091D01*
X140144943Y-74025091D01*
X140107885Y-74015161D01*
X140049435Y-73999500D01*
X139950565Y-73999500D01*
X139892114Y-74015161D01*
X139855057Y-74025091D01*
X139769440Y-74074523D01*
X139699523Y-74144440D01*
X139650091Y-74230057D01*
X139639539Y-74269438D01*
X139624500Y-74325565D01*
X129832880Y-74325565D01*
X129800476Y-74269440D01*
X129800475Y-74269438D01*
X129730562Y-74199525D01*
X129730559Y-74199523D01*
X129644941Y-74150091D01*
X129644943Y-74150091D01*
X129607885Y-74140161D01*
X129549435Y-74124500D01*
X129450565Y-74124500D01*
X129392114Y-74140161D01*
X129355057Y-74150091D01*
X129269440Y-74199523D01*
X129199523Y-74269440D01*
X129150091Y-74355057D01*
X129142940Y-74381745D01*
X129124500Y-74450565D01*
X118312105Y-74450565D01*
X118355562Y-74425475D01*
X118425475Y-74355562D01*
X118471935Y-74275091D01*
X118474908Y-74269942D01*
X118474908Y-74269940D01*
X118474910Y-74269938D01*
X118500500Y-74174435D01*
X118500500Y-74075565D01*
X118474910Y-73980062D01*
X118473026Y-73976799D01*
X118457880Y-73950565D01*
X127499500Y-73950565D01*
X127499500Y-74049435D01*
X127514539Y-74105562D01*
X127525091Y-74144942D01*
X127574233Y-74230057D01*
X127574525Y-74230562D01*
X127644438Y-74300475D01*
X127672979Y-74316953D01*
X127730058Y-74349908D01*
X127730056Y-74349908D01*
X127730060Y-74349909D01*
X127730062Y-74349910D01*
X127825565Y-74375500D01*
X127825567Y-74375500D01*
X127924433Y-74375500D01*
X127924435Y-74375500D01*
X128019938Y-74349910D01*
X128019940Y-74349908D01*
X128019942Y-74349908D01*
X128062103Y-74325566D01*
X128105562Y-74300475D01*
X128175475Y-74230562D01*
X128221935Y-74150091D01*
X128224908Y-74144942D01*
X128224908Y-74144940D01*
X128224910Y-74144938D01*
X128250500Y-74049435D01*
X128250500Y-73950565D01*
X128224910Y-73855062D01*
X128224908Y-73855059D01*
X128224908Y-73855057D01*
X128175476Y-73769440D01*
X128175475Y-73769438D01*
X128105562Y-73699525D01*
X128080813Y-73685236D01*
X128019941Y-73650091D01*
X128019943Y-73650091D01*
X127981412Y-73639767D01*
X127924435Y-73624500D01*
X127825565Y-73624500D01*
X127768588Y-73639767D01*
X127730057Y-73650091D01*
X127644440Y-73699523D01*
X127574523Y-73769440D01*
X127525091Y-73855057D01*
X127524956Y-73855562D01*
X127499500Y-73950565D01*
X118457880Y-73950565D01*
X118425476Y-73894440D01*
X118425475Y-73894438D01*
X118355562Y-73824525D01*
X118355559Y-73824523D01*
X118269941Y-73775091D01*
X118269943Y-73775091D01*
X118232885Y-73765161D01*
X118174435Y-73749500D01*
X118075565Y-73749500D01*
X118017114Y-73765161D01*
X117980057Y-73775091D01*
X117894440Y-73824523D01*
X117824523Y-73894440D01*
X117775091Y-73980057D01*
X117764405Y-74019938D01*
X117749500Y-74075565D01*
X111743498Y-74075565D01*
X111750500Y-74049435D01*
X111750500Y-73950565D01*
X111724910Y-73855062D01*
X111724908Y-73855059D01*
X111724908Y-73855057D01*
X111675476Y-73769440D01*
X111675475Y-73769438D01*
X111605562Y-73699525D01*
X111562105Y-73674435D01*
X111541858Y-73662745D01*
X111500918Y-73617275D01*
X111494523Y-73556425D01*
X111525116Y-73503437D01*
X111572043Y-73479911D01*
X111661835Y-73462051D01*
X111843914Y-73386632D01*
X112007782Y-73277139D01*
X112147139Y-73137782D01*
X112256632Y-72973914D01*
X112332051Y-72791835D01*
X112370500Y-72598541D01*
X112370500Y-72401459D01*
X112332051Y-72208165D01*
X112256632Y-72026086D01*
X112147139Y-71862218D01*
X112007782Y-71722861D01*
X111843914Y-71613368D01*
X111812761Y-71600464D01*
X111766236Y-71560727D01*
X111751952Y-71501233D01*
X111775367Y-71444705D01*
X111827536Y-71412735D01*
X111850647Y-71410000D01*
X113429353Y-71410000D01*
X113487544Y-71428907D01*
X113523508Y-71478407D01*
X113523508Y-71539593D01*
X113487544Y-71589093D01*
X113467239Y-71600464D01*
X113436085Y-71613368D01*
X113272218Y-71722861D01*
X113272214Y-71722864D01*
X113132864Y-71862214D01*
X113132861Y-71862218D01*
X113023367Y-72026086D01*
X112947949Y-72208163D01*
X112947949Y-72208165D01*
X112909500Y-72401456D01*
X112909500Y-72598543D01*
X112918630Y-72644440D01*
X112944618Y-72775091D01*
X112947949Y-72791834D01*
X112947949Y-72791836D01*
X113023367Y-72973913D01*
X113027476Y-72980062D01*
X113132861Y-73137782D01*
X113272218Y-73277139D01*
X113436086Y-73386632D01*
X113618165Y-73462051D01*
X113811459Y-73500500D01*
X113811460Y-73500500D01*
X114008540Y-73500500D01*
X114008541Y-73500500D01*
X114201835Y-73462051D01*
X114383914Y-73386632D01*
X114547782Y-73277139D01*
X114687139Y-73137782D01*
X114796632Y-72973914D01*
X114858080Y-72825565D01*
X117749500Y-72825565D01*
X117749500Y-72924435D01*
X117756502Y-72950565D01*
X117775091Y-73019942D01*
X117824523Y-73105559D01*
X117824525Y-73105562D01*
X117894438Y-73175475D01*
X117894440Y-73175476D01*
X117980058Y-73224908D01*
X117980056Y-73224908D01*
X117980060Y-73224909D01*
X117980062Y-73224910D01*
X118075565Y-73250500D01*
X118075567Y-73250500D01*
X118174433Y-73250500D01*
X118174435Y-73250500D01*
X118269938Y-73224910D01*
X118269940Y-73224908D01*
X118269942Y-73224908D01*
X118304328Y-73205055D01*
X118355562Y-73175475D01*
X118425475Y-73105562D01*
X118474910Y-73019938D01*
X118493498Y-72950565D01*
X120249500Y-72950565D01*
X120249500Y-73049435D01*
X120264539Y-73105562D01*
X120275091Y-73144942D01*
X120324523Y-73230559D01*
X120324525Y-73230562D01*
X120394438Y-73300475D01*
X120394440Y-73300476D01*
X120480058Y-73349908D01*
X120480056Y-73349908D01*
X120480060Y-73349909D01*
X120480062Y-73349910D01*
X120575565Y-73375500D01*
X120575567Y-73375500D01*
X120674433Y-73375500D01*
X120674435Y-73375500D01*
X120769938Y-73349910D01*
X120769940Y-73349908D01*
X120769942Y-73349908D01*
X120813906Y-73324525D01*
X120855562Y-73300475D01*
X120925475Y-73230562D01*
X120974910Y-73144938D01*
X121000500Y-73049435D01*
X121000500Y-72950565D01*
X121499500Y-72950565D01*
X121499500Y-73049435D01*
X121514539Y-73105562D01*
X121525091Y-73144942D01*
X121574523Y-73230559D01*
X121574525Y-73230562D01*
X121644438Y-73300475D01*
X121644440Y-73300476D01*
X121730058Y-73349908D01*
X121730056Y-73349908D01*
X121730060Y-73349909D01*
X121730062Y-73349910D01*
X121825565Y-73375500D01*
X121825567Y-73375500D01*
X121924433Y-73375500D01*
X121924435Y-73375500D01*
X122019938Y-73349910D01*
X122019940Y-73349908D01*
X122019942Y-73349908D01*
X122063906Y-73324525D01*
X122105562Y-73300475D01*
X122175475Y-73230562D01*
X122224910Y-73144938D01*
X122250500Y-73049435D01*
X122250500Y-72950565D01*
X122224910Y-72855062D01*
X122224908Y-72855059D01*
X122224908Y-72855057D01*
X122207880Y-72825565D01*
X134374500Y-72825565D01*
X134374500Y-72924435D01*
X134381502Y-72950565D01*
X134400091Y-73019942D01*
X134449523Y-73105559D01*
X134449525Y-73105562D01*
X134519438Y-73175475D01*
X134519440Y-73175476D01*
X134523960Y-73179996D01*
X134551737Y-73234513D01*
X134542166Y-73294945D01*
X134523960Y-73320004D01*
X134519440Y-73324523D01*
X134519438Y-73324525D01*
X134468471Y-73375492D01*
X134449523Y-73394440D01*
X134400091Y-73480057D01*
X134389314Y-73520277D01*
X134374500Y-73575565D01*
X134374500Y-73674435D01*
X134381223Y-73699524D01*
X134400091Y-73769942D01*
X134449233Y-73855057D01*
X134449525Y-73855562D01*
X134519438Y-73925475D01*
X134547979Y-73941953D01*
X134605058Y-73974908D01*
X134605056Y-73974908D01*
X134605060Y-73974909D01*
X134605062Y-73974910D01*
X134700565Y-74000500D01*
X134700567Y-74000500D01*
X134799433Y-74000500D01*
X134799435Y-74000500D01*
X134894938Y-73974910D01*
X134894940Y-73974908D01*
X134894942Y-73974908D01*
X134937103Y-73950566D01*
X134980562Y-73925475D01*
X134980569Y-73925467D01*
X134982633Y-73923885D01*
X134984400Y-73923258D01*
X134986181Y-73922231D01*
X134986371Y-73922560D01*
X135040307Y-73903458D01*
X135098974Y-73920833D01*
X135136224Y-73969372D01*
X135138530Y-73976799D01*
X135150090Y-74019939D01*
X135150091Y-74019941D01*
X135199523Y-74105559D01*
X135199525Y-74105562D01*
X135269438Y-74175475D01*
X135269440Y-74175476D01*
X135355058Y-74224908D01*
X135355056Y-74224908D01*
X135355060Y-74224909D01*
X135355062Y-74224910D01*
X135450565Y-74250500D01*
X135450567Y-74250500D01*
X135549433Y-74250500D01*
X135549435Y-74250500D01*
X135644938Y-74224910D01*
X135644940Y-74224908D01*
X135644942Y-74224908D01*
X135688906Y-74199525D01*
X135730562Y-74175475D01*
X135800475Y-74105562D01*
X135846935Y-74025091D01*
X135849908Y-74019942D01*
X135849909Y-74019939D01*
X135849910Y-74019938D01*
X135875500Y-73924435D01*
X135875500Y-73825565D01*
X135849910Y-73730062D01*
X135849908Y-73730059D01*
X135849908Y-73730057D01*
X135800476Y-73644440D01*
X135800475Y-73644438D01*
X135730562Y-73574525D01*
X135730559Y-73574523D01*
X135644941Y-73525091D01*
X135644943Y-73525091D01*
X135607885Y-73515161D01*
X135549435Y-73499500D01*
X135450565Y-73499500D01*
X135392114Y-73515161D01*
X135355057Y-73525091D01*
X135269434Y-73574526D01*
X135267354Y-73576123D01*
X135265585Y-73576748D01*
X135263819Y-73577769D01*
X135263629Y-73577441D01*
X135209676Y-73596541D01*
X135151012Y-73579158D01*
X135113770Y-73530612D01*
X135111471Y-73523211D01*
X135099910Y-73480062D01*
X135096935Y-73474910D01*
X135050476Y-73394440D01*
X135050475Y-73394438D01*
X134980562Y-73324525D01*
X134980559Y-73324523D01*
X134976040Y-73320004D01*
X134948263Y-73265487D01*
X134957834Y-73205055D01*
X134976040Y-73179996D01*
X134980559Y-73175476D01*
X134980562Y-73175475D01*
X135050475Y-73105562D01*
X135099910Y-73019938D01*
X135125500Y-72924435D01*
X135125500Y-72825565D01*
X135099910Y-72730062D01*
X135099908Y-72730059D01*
X135099908Y-72730057D01*
X135050476Y-72644440D01*
X135050475Y-72644438D01*
X134980562Y-72574525D01*
X134972101Y-72569640D01*
X134903118Y-72529812D01*
X134903117Y-72529812D01*
X134894940Y-72525091D01*
X134894939Y-72525090D01*
X134894938Y-72525090D01*
X134799435Y-72499500D01*
X134700565Y-72499500D01*
X134642114Y-72515161D01*
X134605057Y-72525091D01*
X134519440Y-72574523D01*
X134449523Y-72644440D01*
X134400091Y-72730057D01*
X134389539Y-72769438D01*
X134374500Y-72825565D01*
X122207880Y-72825565D01*
X122175476Y-72769440D01*
X122175475Y-72769438D01*
X122105562Y-72699525D01*
X122105559Y-72699523D01*
X122019941Y-72650091D01*
X122019943Y-72650091D01*
X121981629Y-72639825D01*
X121924435Y-72624500D01*
X121825565Y-72624500D01*
X121768371Y-72639825D01*
X121730057Y-72650091D01*
X121644440Y-72699523D01*
X121574523Y-72769440D01*
X121525091Y-72855057D01*
X121514539Y-72894438D01*
X121499500Y-72950565D01*
X121000500Y-72950565D01*
X120974910Y-72855062D01*
X120974908Y-72855059D01*
X120974908Y-72855057D01*
X120925476Y-72769440D01*
X120925475Y-72769438D01*
X120855562Y-72699525D01*
X120855559Y-72699523D01*
X120769941Y-72650091D01*
X120769943Y-72650091D01*
X120731629Y-72639825D01*
X120674435Y-72624500D01*
X120575565Y-72624500D01*
X120518371Y-72639825D01*
X120480057Y-72650091D01*
X120394440Y-72699523D01*
X120324523Y-72769440D01*
X120275091Y-72855057D01*
X120264539Y-72894438D01*
X120249500Y-72950565D01*
X118493498Y-72950565D01*
X118500500Y-72924435D01*
X118500500Y-72825565D01*
X118474910Y-72730062D01*
X118474908Y-72730059D01*
X118474908Y-72730057D01*
X118425476Y-72644440D01*
X118425475Y-72644438D01*
X118355562Y-72574525D01*
X118347101Y-72569640D01*
X118269941Y-72525091D01*
X118269943Y-72525091D01*
X118232885Y-72515161D01*
X118174435Y-72499500D01*
X118075565Y-72499500D01*
X118017114Y-72515161D01*
X117980057Y-72525091D01*
X117894440Y-72574523D01*
X117824523Y-72644440D01*
X117775091Y-72730057D01*
X117764539Y-72769438D01*
X117749500Y-72825565D01*
X114858080Y-72825565D01*
X114872051Y-72791835D01*
X114910500Y-72598541D01*
X114910500Y-72401459D01*
X114895403Y-72325565D01*
X123124500Y-72325565D01*
X123124500Y-72424435D01*
X123131502Y-72450565D01*
X123150091Y-72519942D01*
X123199523Y-72605559D01*
X123199525Y-72605562D01*
X123269438Y-72675475D01*
X123269440Y-72675476D01*
X123355058Y-72724908D01*
X123355056Y-72724908D01*
X123355060Y-72724909D01*
X123355062Y-72724910D01*
X123450565Y-72750500D01*
X123450567Y-72750500D01*
X123549433Y-72750500D01*
X123549435Y-72750500D01*
X123644938Y-72724910D01*
X123644940Y-72724908D01*
X123644942Y-72724908D01*
X123688906Y-72699525D01*
X123730562Y-72675475D01*
X123800475Y-72605562D01*
X123846935Y-72525091D01*
X123849908Y-72519942D01*
X123849908Y-72519940D01*
X123849910Y-72519938D01*
X123875500Y-72424435D01*
X123875500Y-72388845D01*
X123894407Y-72330654D01*
X123943907Y-72294690D01*
X124005093Y-72294690D01*
X124023997Y-72303107D01*
X124105062Y-72349910D01*
X124200565Y-72375500D01*
X124200567Y-72375500D01*
X124299433Y-72375500D01*
X124299435Y-72375500D01*
X124394938Y-72349910D01*
X124394940Y-72349908D01*
X124394942Y-72349908D01*
X124437103Y-72325566D01*
X124437105Y-72325565D01*
X129124500Y-72325565D01*
X129124500Y-72424435D01*
X129131502Y-72450565D01*
X129150091Y-72519942D01*
X129199523Y-72605559D01*
X129199525Y-72605562D01*
X129269438Y-72675475D01*
X129269440Y-72675476D01*
X129355058Y-72724908D01*
X129355056Y-72724908D01*
X129355060Y-72724909D01*
X129355062Y-72724910D01*
X129450565Y-72750500D01*
X129450567Y-72750500D01*
X129549433Y-72750500D01*
X129549435Y-72750500D01*
X129644938Y-72724910D01*
X129644940Y-72724908D01*
X129644942Y-72724908D01*
X129688906Y-72699525D01*
X129730562Y-72675475D01*
X129800475Y-72605562D01*
X129846935Y-72525091D01*
X129849908Y-72519942D01*
X129849908Y-72519940D01*
X129849910Y-72519938D01*
X129868498Y-72450565D01*
X138874500Y-72450565D01*
X138874500Y-72549435D01*
X138889539Y-72605562D01*
X138900091Y-72644942D01*
X138949233Y-72730057D01*
X138949525Y-72730562D01*
X139019438Y-72800475D01*
X139019440Y-72800476D01*
X139105058Y-72849908D01*
X139105056Y-72849908D01*
X139105060Y-72849909D01*
X139105062Y-72849910D01*
X139200565Y-72875500D01*
X139200567Y-72875500D01*
X139299433Y-72875500D01*
X139299435Y-72875500D01*
X139394938Y-72849910D01*
X139394940Y-72849908D01*
X139394942Y-72849908D01*
X139437103Y-72825566D01*
X139480562Y-72800475D01*
X139550475Y-72730562D01*
X139596935Y-72650091D01*
X139599908Y-72644942D01*
X139599908Y-72644941D01*
X139599910Y-72644938D01*
X139618498Y-72575565D01*
X141874500Y-72575565D01*
X141874500Y-72674435D01*
X141889539Y-72730562D01*
X141900091Y-72769942D01*
X141949233Y-72855057D01*
X141949525Y-72855562D01*
X142019438Y-72925475D01*
X142047979Y-72941953D01*
X142105058Y-72974908D01*
X142105056Y-72974908D01*
X142105060Y-72974909D01*
X142105062Y-72974910D01*
X142200565Y-73000500D01*
X142200567Y-73000500D01*
X142299433Y-73000500D01*
X142299435Y-73000500D01*
X142394938Y-72974910D01*
X142394940Y-72974908D01*
X142394942Y-72974908D01*
X142437103Y-72950566D01*
X142480562Y-72925475D01*
X142550475Y-72855562D01*
X142596935Y-72775091D01*
X142599908Y-72769942D01*
X142599908Y-72769940D01*
X142599910Y-72769938D01*
X142625500Y-72674435D01*
X142625500Y-72575565D01*
X142599910Y-72480062D01*
X142599908Y-72480059D01*
X142599908Y-72480057D01*
X142550476Y-72394440D01*
X142550475Y-72394438D01*
X142480562Y-72324525D01*
X142480559Y-72324523D01*
X142394941Y-72275091D01*
X142394943Y-72275091D01*
X142357885Y-72265161D01*
X142299435Y-72249500D01*
X142200565Y-72249500D01*
X142142114Y-72265161D01*
X142105057Y-72275091D01*
X142019440Y-72324523D01*
X141949523Y-72394440D01*
X141900091Y-72480057D01*
X141885783Y-72533453D01*
X141874500Y-72575565D01*
X139618498Y-72575565D01*
X139625500Y-72549435D01*
X139625500Y-72450565D01*
X139599910Y-72355062D01*
X139599908Y-72355059D01*
X139599908Y-72355057D01*
X139550476Y-72269440D01*
X139550475Y-72269438D01*
X139480562Y-72199525D01*
X139480559Y-72199523D01*
X139394941Y-72150091D01*
X139394943Y-72150091D01*
X139357885Y-72140161D01*
X139299435Y-72124500D01*
X139200565Y-72124500D01*
X139142114Y-72140161D01*
X139105057Y-72150091D01*
X139019440Y-72199523D01*
X138949523Y-72269440D01*
X138900091Y-72355057D01*
X138891038Y-72388845D01*
X138874500Y-72450565D01*
X129868498Y-72450565D01*
X129875500Y-72424435D01*
X129875500Y-72325565D01*
X129849910Y-72230062D01*
X129849908Y-72230059D01*
X129849908Y-72230057D01*
X129800476Y-72144440D01*
X129800475Y-72144438D01*
X129730562Y-72074525D01*
X129726000Y-72071891D01*
X129644941Y-72025091D01*
X129644943Y-72025091D01*
X129607885Y-72015161D01*
X129549435Y-71999500D01*
X129450565Y-71999500D01*
X129392114Y-72015161D01*
X129355057Y-72025091D01*
X129269440Y-72074523D01*
X129199523Y-72144440D01*
X129150091Y-72230057D01*
X129139539Y-72269438D01*
X129124500Y-72325565D01*
X124437105Y-72325565D01*
X124480562Y-72300475D01*
X124550475Y-72230562D01*
X124596935Y-72150091D01*
X124599908Y-72144942D01*
X124599908Y-72144940D01*
X124599910Y-72144938D01*
X124625500Y-72049435D01*
X124625500Y-71950565D01*
X124599910Y-71855062D01*
X124599908Y-71855059D01*
X124599908Y-71855057D01*
X124550476Y-71769440D01*
X124550475Y-71769438D01*
X124480562Y-71699525D01*
X124480559Y-71699523D01*
X124394941Y-71650091D01*
X124394943Y-71650091D01*
X124357885Y-71640161D01*
X124299435Y-71624500D01*
X124200565Y-71624500D01*
X124142114Y-71640161D01*
X124105057Y-71650091D01*
X124019440Y-71699523D01*
X123949523Y-71769440D01*
X123900091Y-71855057D01*
X123874500Y-71950566D01*
X123874500Y-71986154D01*
X123855593Y-72044345D01*
X123806093Y-72080309D01*
X123744907Y-72080309D01*
X123726000Y-72071891D01*
X123644939Y-72025090D01*
X123613103Y-72016560D01*
X123549435Y-71999500D01*
X123450565Y-71999500D01*
X123392114Y-72015161D01*
X123355057Y-72025091D01*
X123269440Y-72074523D01*
X123199523Y-72144440D01*
X123150091Y-72230057D01*
X123139539Y-72269438D01*
X123124500Y-72325565D01*
X114895403Y-72325565D01*
X114895196Y-72324523D01*
X114888513Y-72290926D01*
X114872051Y-72208165D01*
X114796632Y-72026086D01*
X114687139Y-71862218D01*
X114547782Y-71722861D01*
X114383914Y-71613368D01*
X114352761Y-71600464D01*
X114306236Y-71560727D01*
X114291952Y-71501233D01*
X114315367Y-71444705D01*
X114367536Y-71412735D01*
X114390647Y-71410000D01*
X142781000Y-71410000D01*
X142839191Y-71428907D01*
X142875155Y-71478407D01*
X142880000Y-71509000D01*
X142880000Y-88491000D01*
X142861093Y-88549191D01*
X142811593Y-88585155D01*
X142781000Y-88590000D01*
X114390647Y-88590000D01*
X114332456Y-88571093D01*
X114296492Y-88521593D01*
X114296492Y-88460407D01*
X114332456Y-88410907D01*
X114352761Y-88399536D01*
X114355747Y-88398298D01*
X114383914Y-88386632D01*
X114547782Y-88277139D01*
X114687139Y-88137782D01*
X114796632Y-87973914D01*
X114806303Y-87950565D01*
X118124500Y-87950565D01*
X118124500Y-88049435D01*
X118147067Y-88133657D01*
X118150091Y-88144942D01*
X118199523Y-88230559D01*
X118199525Y-88230562D01*
X118269438Y-88300475D01*
X118269440Y-88300476D01*
X118355058Y-88349908D01*
X118355056Y-88349908D01*
X118355060Y-88349909D01*
X118355062Y-88349910D01*
X118450565Y-88375500D01*
X118450567Y-88375500D01*
X118549433Y-88375500D01*
X118549435Y-88375500D01*
X118644938Y-88349910D01*
X118644940Y-88349908D01*
X118644942Y-88349908D01*
X118670377Y-88335222D01*
X118730562Y-88300475D01*
X118800475Y-88230562D01*
X118849910Y-88144938D01*
X118875500Y-88049435D01*
X118875500Y-87950565D01*
X121374500Y-87950565D01*
X121374500Y-88049435D01*
X121397067Y-88133657D01*
X121400091Y-88144942D01*
X121449523Y-88230559D01*
X121449525Y-88230562D01*
X121519438Y-88300475D01*
X121519440Y-88300476D01*
X121605058Y-88349908D01*
X121605056Y-88349908D01*
X121605060Y-88349909D01*
X121605062Y-88349910D01*
X121700565Y-88375500D01*
X121700567Y-88375500D01*
X121799433Y-88375500D01*
X121799435Y-88375500D01*
X121894938Y-88349910D01*
X121894940Y-88349908D01*
X121894942Y-88349908D01*
X121920377Y-88335222D01*
X121980562Y-88300475D01*
X122050475Y-88230562D01*
X122099910Y-88144938D01*
X122125500Y-88049435D01*
X122125500Y-87950565D01*
X135624500Y-87950565D01*
X135624500Y-88049435D01*
X135647067Y-88133657D01*
X135650091Y-88144942D01*
X135699523Y-88230559D01*
X135699525Y-88230562D01*
X135769438Y-88300475D01*
X135769440Y-88300476D01*
X135855058Y-88349908D01*
X135855056Y-88349908D01*
X135855060Y-88349909D01*
X135855062Y-88349910D01*
X135950565Y-88375500D01*
X135950567Y-88375500D01*
X136049433Y-88375500D01*
X136049435Y-88375500D01*
X136144938Y-88349910D01*
X136144940Y-88349908D01*
X136144942Y-88349908D01*
X136170377Y-88335222D01*
X136230562Y-88300475D01*
X136300475Y-88230562D01*
X136349910Y-88144938D01*
X136375500Y-88049435D01*
X136375500Y-87950565D01*
X136349910Y-87855062D01*
X136349908Y-87855059D01*
X136349908Y-87855057D01*
X136300476Y-87769440D01*
X136300475Y-87769438D01*
X136230562Y-87699525D01*
X136230559Y-87699523D01*
X136144941Y-87650091D01*
X136144943Y-87650091D01*
X136107885Y-87640161D01*
X136049435Y-87624500D01*
X135950565Y-87624500D01*
X135892114Y-87640161D01*
X135855057Y-87650091D01*
X135769440Y-87699523D01*
X135699523Y-87769440D01*
X135650091Y-87855057D01*
X135650090Y-87855062D01*
X135624500Y-87950565D01*
X122125500Y-87950565D01*
X122099910Y-87855062D01*
X122099908Y-87855059D01*
X122099908Y-87855057D01*
X122050476Y-87769440D01*
X122050475Y-87769438D01*
X121980562Y-87699525D01*
X121980559Y-87699523D01*
X121894941Y-87650091D01*
X121894943Y-87650091D01*
X121857885Y-87640161D01*
X121799435Y-87624500D01*
X121700565Y-87624500D01*
X121642114Y-87640161D01*
X121605057Y-87650091D01*
X121519440Y-87699523D01*
X121449523Y-87769440D01*
X121400091Y-87855057D01*
X121400090Y-87855062D01*
X121374500Y-87950565D01*
X118875500Y-87950565D01*
X118849910Y-87855062D01*
X118849908Y-87855059D01*
X118849908Y-87855057D01*
X118800476Y-87769440D01*
X118800475Y-87769438D01*
X118730562Y-87699525D01*
X118730559Y-87699523D01*
X118644941Y-87650091D01*
X118644943Y-87650091D01*
X118607885Y-87640161D01*
X118549435Y-87624500D01*
X118450565Y-87624500D01*
X118392114Y-87640161D01*
X118355057Y-87650091D01*
X118269440Y-87699523D01*
X118199523Y-87769440D01*
X118150091Y-87855057D01*
X118150090Y-87855062D01*
X118124500Y-87950565D01*
X114806303Y-87950565D01*
X114872051Y-87791835D01*
X114910500Y-87598541D01*
X114910500Y-87401459D01*
X114872051Y-87208165D01*
X114796632Y-87026086D01*
X114746171Y-86950565D01*
X118249500Y-86950565D01*
X118249500Y-87049435D01*
X118256223Y-87074525D01*
X118275091Y-87144942D01*
X118324236Y-87230062D01*
X118324525Y-87230562D01*
X118394438Y-87300475D01*
X118394440Y-87300476D01*
X118480058Y-87349908D01*
X118480056Y-87349908D01*
X118480060Y-87349909D01*
X118480062Y-87349910D01*
X118575565Y-87375500D01*
X118575567Y-87375500D01*
X118674433Y-87375500D01*
X118674435Y-87375500D01*
X118769938Y-87349910D01*
X118769940Y-87349908D01*
X118769942Y-87349908D01*
X118812103Y-87325566D01*
X118855562Y-87300475D01*
X118925475Y-87230562D01*
X118974910Y-87144938D01*
X119000500Y-87049435D01*
X119000500Y-86950565D01*
X120999500Y-86950565D01*
X120999500Y-87049435D01*
X121006223Y-87074525D01*
X121025091Y-87144942D01*
X121074236Y-87230062D01*
X121074525Y-87230562D01*
X121144438Y-87300475D01*
X121144440Y-87300476D01*
X121230058Y-87349908D01*
X121230056Y-87349908D01*
X121230060Y-87349909D01*
X121230062Y-87349910D01*
X121325565Y-87375500D01*
X121325567Y-87375500D01*
X121424433Y-87375500D01*
X121424435Y-87375500D01*
X121519938Y-87349910D01*
X121519940Y-87349908D01*
X121519942Y-87349908D01*
X121562103Y-87325566D01*
X121605562Y-87300475D01*
X121675475Y-87230562D01*
X121724910Y-87144938D01*
X121750500Y-87049435D01*
X121750500Y-86950565D01*
X124999500Y-86950565D01*
X124999500Y-87049435D01*
X125006223Y-87074525D01*
X125025091Y-87144942D01*
X125074236Y-87230062D01*
X125074525Y-87230562D01*
X125144438Y-87300475D01*
X125144440Y-87300476D01*
X125230058Y-87349908D01*
X125230056Y-87349908D01*
X125230060Y-87349909D01*
X125230062Y-87349910D01*
X125325565Y-87375500D01*
X125325567Y-87375500D01*
X125424433Y-87375500D01*
X125424435Y-87375500D01*
X125519938Y-87349910D01*
X125519940Y-87349908D01*
X125519942Y-87349908D01*
X125562103Y-87325566D01*
X125605562Y-87300475D01*
X125675475Y-87230562D01*
X125692794Y-87200565D01*
X127124500Y-87200565D01*
X127124500Y-87299435D01*
X127124779Y-87300475D01*
X127150091Y-87394942D01*
X127199523Y-87480559D01*
X127199525Y-87480562D01*
X127269438Y-87550475D01*
X127269440Y-87550476D01*
X127355058Y-87599908D01*
X127355056Y-87599908D01*
X127355060Y-87599909D01*
X127355062Y-87599910D01*
X127450565Y-87625500D01*
X127450567Y-87625500D01*
X127549433Y-87625500D01*
X127549435Y-87625500D01*
X127644938Y-87599910D01*
X127644940Y-87599908D01*
X127644942Y-87599908D01*
X127670377Y-87585222D01*
X127730562Y-87550475D01*
X127800475Y-87480562D01*
X127849910Y-87394938D01*
X127868498Y-87325565D01*
X130374500Y-87325565D01*
X130374500Y-87424435D01*
X130389539Y-87480562D01*
X130400091Y-87519942D01*
X130449523Y-87605559D01*
X130449525Y-87605562D01*
X130519438Y-87675475D01*
X130519440Y-87675476D01*
X130605058Y-87724908D01*
X130605056Y-87724908D01*
X130605060Y-87724909D01*
X130605062Y-87724910D01*
X130700565Y-87750500D01*
X130700567Y-87750500D01*
X130799433Y-87750500D01*
X130799435Y-87750500D01*
X130894938Y-87724910D01*
X130894940Y-87724908D01*
X130894942Y-87724908D01*
X130938906Y-87699525D01*
X130980562Y-87675475D01*
X131050475Y-87605562D01*
X131099910Y-87519938D01*
X131125500Y-87424435D01*
X131125500Y-87325565D01*
X134874500Y-87325565D01*
X134874500Y-87424435D01*
X134889539Y-87480562D01*
X134900091Y-87519942D01*
X134949523Y-87605559D01*
X134949525Y-87605562D01*
X135019438Y-87675475D01*
X135019440Y-87675476D01*
X135105058Y-87724908D01*
X135105056Y-87724908D01*
X135105060Y-87724909D01*
X135105062Y-87724910D01*
X135200565Y-87750500D01*
X135200567Y-87750500D01*
X135299433Y-87750500D01*
X135299435Y-87750500D01*
X135394938Y-87724910D01*
X135394940Y-87724908D01*
X135394942Y-87724908D01*
X135438906Y-87699525D01*
X135480562Y-87675475D01*
X135550475Y-87605562D01*
X135599910Y-87519938D01*
X135625500Y-87424435D01*
X135625500Y-87325565D01*
X135599910Y-87230062D01*
X135582880Y-87200566D01*
X135582879Y-87200565D01*
X138749500Y-87200565D01*
X138749500Y-87299435D01*
X138749779Y-87300475D01*
X138775091Y-87394942D01*
X138824523Y-87480559D01*
X138824525Y-87480562D01*
X138894438Y-87550475D01*
X138894440Y-87550476D01*
X138980058Y-87599908D01*
X138980056Y-87599908D01*
X138980060Y-87599909D01*
X138980062Y-87599910D01*
X139075565Y-87625500D01*
X139075567Y-87625500D01*
X139174433Y-87625500D01*
X139174435Y-87625500D01*
X139269938Y-87599910D01*
X139269940Y-87599908D01*
X139269942Y-87599908D01*
X139295377Y-87585222D01*
X139355562Y-87550475D01*
X139425475Y-87480562D01*
X139474910Y-87394938D01*
X139500500Y-87299435D01*
X139500500Y-87200565D01*
X139474910Y-87105062D01*
X139474908Y-87105059D01*
X139474908Y-87105057D01*
X139425476Y-87019440D01*
X139425475Y-87019438D01*
X139355562Y-86949525D01*
X139355559Y-86949523D01*
X139269941Y-86900091D01*
X139269943Y-86900091D01*
X139232885Y-86890161D01*
X139174435Y-86874500D01*
X139075565Y-86874500D01*
X139017114Y-86890161D01*
X138980057Y-86900091D01*
X138894440Y-86949523D01*
X138824523Y-87019440D01*
X138775091Y-87105057D01*
X138775090Y-87105062D01*
X138749500Y-87200565D01*
X135582879Y-87200565D01*
X135550476Y-87144440D01*
X135550475Y-87144438D01*
X135480562Y-87074525D01*
X135480559Y-87074523D01*
X135394941Y-87025091D01*
X135394943Y-87025091D01*
X135357885Y-87015161D01*
X135299435Y-86999500D01*
X135200565Y-86999500D01*
X135142114Y-87015161D01*
X135105057Y-87025091D01*
X135019440Y-87074523D01*
X134949523Y-87144440D01*
X134900091Y-87230057D01*
X134899956Y-87230562D01*
X134874500Y-87325565D01*
X131125500Y-87325565D01*
X131099910Y-87230062D01*
X131099908Y-87230059D01*
X131099908Y-87230057D01*
X131050476Y-87144440D01*
X131050475Y-87144438D01*
X130980562Y-87074525D01*
X130980559Y-87074523D01*
X130894941Y-87025091D01*
X130894943Y-87025091D01*
X130857885Y-87015161D01*
X130799435Y-86999500D01*
X130700565Y-86999500D01*
X130642114Y-87015161D01*
X130605057Y-87025091D01*
X130519440Y-87074523D01*
X130449523Y-87144440D01*
X130400091Y-87230057D01*
X130399956Y-87230562D01*
X130374500Y-87325565D01*
X127868498Y-87325565D01*
X127875500Y-87299435D01*
X127875500Y-87200565D01*
X127849910Y-87105062D01*
X127849908Y-87105059D01*
X127849908Y-87105057D01*
X127800476Y-87019440D01*
X127800475Y-87019438D01*
X127730562Y-86949525D01*
X127730559Y-86949523D01*
X127644941Y-86900091D01*
X127644943Y-86900091D01*
X127607885Y-86890161D01*
X127549435Y-86874500D01*
X127450565Y-86874500D01*
X127392114Y-86890161D01*
X127355057Y-86900091D01*
X127269440Y-86949523D01*
X127199523Y-87019440D01*
X127150091Y-87105057D01*
X127150090Y-87105062D01*
X127124500Y-87200565D01*
X125692794Y-87200565D01*
X125724910Y-87144938D01*
X125750500Y-87049435D01*
X125750500Y-86950565D01*
X125724910Y-86855062D01*
X125724908Y-86855059D01*
X125724908Y-86855057D01*
X125675476Y-86769440D01*
X125675475Y-86769438D01*
X125605562Y-86699525D01*
X125605559Y-86699523D01*
X125519941Y-86650091D01*
X125519943Y-86650091D01*
X125482885Y-86640161D01*
X125424435Y-86624500D01*
X125325565Y-86624500D01*
X125267114Y-86640161D01*
X125230057Y-86650091D01*
X125144440Y-86699523D01*
X125074523Y-86769440D01*
X125025091Y-86855057D01*
X125013025Y-86900090D01*
X124999500Y-86950565D01*
X121750500Y-86950565D01*
X121724910Y-86855062D01*
X121724908Y-86855059D01*
X121724908Y-86855057D01*
X121675476Y-86769440D01*
X121675475Y-86769438D01*
X121605562Y-86699525D01*
X121605559Y-86699523D01*
X121519941Y-86650091D01*
X121519943Y-86650091D01*
X121482885Y-86640161D01*
X121424435Y-86624500D01*
X121325565Y-86624500D01*
X121267114Y-86640161D01*
X121230057Y-86650091D01*
X121144440Y-86699523D01*
X121074523Y-86769440D01*
X121025091Y-86855057D01*
X121013025Y-86900090D01*
X120999500Y-86950565D01*
X119000500Y-86950565D01*
X118974910Y-86855062D01*
X118974908Y-86855059D01*
X118974908Y-86855057D01*
X118925476Y-86769440D01*
X118925475Y-86769438D01*
X118855562Y-86699525D01*
X118855559Y-86699523D01*
X118769941Y-86650091D01*
X118769943Y-86650091D01*
X118732885Y-86640161D01*
X118674435Y-86624500D01*
X118575565Y-86624500D01*
X118517114Y-86640161D01*
X118480057Y-86650091D01*
X118394440Y-86699523D01*
X118324523Y-86769440D01*
X118275091Y-86855057D01*
X118263025Y-86900090D01*
X118249500Y-86950565D01*
X114746171Y-86950565D01*
X114687139Y-86862218D01*
X114547782Y-86722861D01*
X114400585Y-86624507D01*
X114383913Y-86613367D01*
X114201835Y-86537949D01*
X114008543Y-86499500D01*
X114008541Y-86499500D01*
X113811459Y-86499500D01*
X113811456Y-86499500D01*
X113618165Y-86537949D01*
X113618163Y-86537949D01*
X113436086Y-86613367D01*
X113272218Y-86722861D01*
X113272214Y-86722864D01*
X113132864Y-86862214D01*
X113132861Y-86862218D01*
X113023367Y-87026086D01*
X112947949Y-87208163D01*
X112947949Y-87208165D01*
X112909500Y-87401456D01*
X112909500Y-87598543D01*
X112947949Y-87791834D01*
X112947949Y-87791836D01*
X113023367Y-87973913D01*
X113023368Y-87973914D01*
X113132861Y-88137782D01*
X113272218Y-88277139D01*
X113436086Y-88386632D01*
X113462463Y-88397557D01*
X113467239Y-88399536D01*
X113513764Y-88439273D01*
X113528048Y-88498767D01*
X113504633Y-88555295D01*
X113452464Y-88587265D01*
X113429353Y-88590000D01*
X111850647Y-88590000D01*
X111792456Y-88571093D01*
X111756492Y-88521593D01*
X111756492Y-88460407D01*
X111792456Y-88410907D01*
X111812761Y-88399536D01*
X111815747Y-88398298D01*
X111843914Y-88386632D01*
X112007782Y-88277139D01*
X112147139Y-88137782D01*
X112256632Y-87973914D01*
X112332051Y-87791835D01*
X112370500Y-87598541D01*
X112370500Y-87401459D01*
X112332051Y-87208165D01*
X112256632Y-87026086D01*
X112147139Y-86862218D01*
X112007782Y-86722861D01*
X111860585Y-86624507D01*
X111843913Y-86613367D01*
X111661835Y-86537949D01*
X111468543Y-86499500D01*
X111468541Y-86499500D01*
X111271459Y-86499500D01*
X111271456Y-86499500D01*
X111078165Y-86537949D01*
X111078163Y-86537949D01*
X110896086Y-86613367D01*
X110732218Y-86722861D01*
X110732214Y-86722864D01*
X110592864Y-86862214D01*
X110592861Y-86862218D01*
X110483367Y-87026086D01*
X110407949Y-87208163D01*
X110407949Y-87208165D01*
X110369500Y-87401456D01*
X110369500Y-87598543D01*
X110407949Y-87791834D01*
X110407949Y-87791836D01*
X110483367Y-87973913D01*
X110483368Y-87973914D01*
X110592861Y-88137782D01*
X110732218Y-88277139D01*
X110896086Y-88386632D01*
X110922463Y-88397557D01*
X110927239Y-88399536D01*
X110973764Y-88439273D01*
X110988048Y-88498767D01*
X110964633Y-88555295D01*
X110912464Y-88587265D01*
X110889353Y-88590000D01*
X109310647Y-88590000D01*
X109252456Y-88571093D01*
X109216492Y-88521593D01*
X109216492Y-88460407D01*
X109252456Y-88410907D01*
X109272761Y-88399536D01*
X109275747Y-88398298D01*
X109303914Y-88386632D01*
X109467782Y-88277139D01*
X109607139Y-88137782D01*
X109716632Y-87973914D01*
X109792051Y-87791835D01*
X109830500Y-87598541D01*
X109830500Y-87401459D01*
X109792051Y-87208165D01*
X109716632Y-87026086D01*
X109607139Y-86862218D01*
X109467782Y-86722861D01*
X109320585Y-86624507D01*
X109303913Y-86613367D01*
X109121835Y-86537949D01*
X108928543Y-86499500D01*
X108928541Y-86499500D01*
X108731459Y-86499500D01*
X108731456Y-86499500D01*
X108538165Y-86537949D01*
X108538163Y-86537949D01*
X108356086Y-86613367D01*
X108192218Y-86722861D01*
X108192214Y-86722864D01*
X108052864Y-86862214D01*
X108052861Y-86862218D01*
X107943367Y-87026086D01*
X107867949Y-87208163D01*
X107867949Y-87208165D01*
X107829500Y-87401456D01*
X107829500Y-87598543D01*
X107867949Y-87791834D01*
X107867949Y-87791836D01*
X107943367Y-87973913D01*
X107943368Y-87973914D01*
X108052861Y-88137782D01*
X108192218Y-88277139D01*
X108356086Y-88386632D01*
X108382463Y-88397557D01*
X108387239Y-88399536D01*
X108433764Y-88439273D01*
X108448048Y-88498767D01*
X108424633Y-88555295D01*
X108372464Y-88587265D01*
X108349353Y-88590000D01*
X106770647Y-88590000D01*
X106712456Y-88571093D01*
X106676492Y-88521593D01*
X106676492Y-88460407D01*
X106712456Y-88410907D01*
X106732761Y-88399536D01*
X106735747Y-88398298D01*
X106763914Y-88386632D01*
X106927782Y-88277139D01*
X107067139Y-88137782D01*
X107176632Y-87973914D01*
X107252051Y-87791835D01*
X107290500Y-87598541D01*
X107290500Y-87401459D01*
X107252051Y-87208165D01*
X107176632Y-87026086D01*
X107067139Y-86862218D01*
X106927782Y-86722861D01*
X106780585Y-86624507D01*
X106763913Y-86613367D01*
X106581835Y-86537949D01*
X106388543Y-86499500D01*
X106388541Y-86499500D01*
X106191459Y-86499500D01*
X106191456Y-86499500D01*
X105998165Y-86537949D01*
X105998163Y-86537949D01*
X105816086Y-86613367D01*
X105652218Y-86722861D01*
X105652214Y-86722864D01*
X105512864Y-86862214D01*
X105512861Y-86862218D01*
X105403367Y-87026086D01*
X105327949Y-87208163D01*
X105327949Y-87208165D01*
X105289500Y-87401456D01*
X105289500Y-87598543D01*
X105327949Y-87791834D01*
X105327949Y-87791836D01*
X105403367Y-87973913D01*
X105403368Y-87973914D01*
X105512861Y-88137782D01*
X105652218Y-88277139D01*
X105816086Y-88386632D01*
X105842463Y-88397557D01*
X105847239Y-88399536D01*
X105893764Y-88439273D01*
X105908048Y-88498767D01*
X105884633Y-88555295D01*
X105832464Y-88587265D01*
X105809353Y-88590000D01*
X104782583Y-88590000D01*
X104724392Y-88571093D01*
X104688428Y-88521593D01*
X104688428Y-88460407D01*
X104700268Y-88435998D01*
X104724631Y-88399536D01*
X104738867Y-88378231D01*
X104750500Y-88319748D01*
X104750500Y-86680252D01*
X104738867Y-86621769D01*
X104694552Y-86555448D01*
X104694548Y-86555445D01*
X104628233Y-86511134D01*
X104628231Y-86511133D01*
X104628228Y-86511132D01*
X104628227Y-86511132D01*
X104569758Y-86499501D01*
X104569748Y-86499500D01*
X102930252Y-86499500D01*
X102930251Y-86499500D01*
X102930241Y-86499501D01*
X102871772Y-86511132D01*
X102871766Y-86511134D01*
X102805451Y-86555445D01*
X102805445Y-86555451D01*
X102761134Y-86621766D01*
X102761132Y-86621772D01*
X102749501Y-86680241D01*
X102749500Y-86680253D01*
X102749500Y-88319746D01*
X102749501Y-88319758D01*
X102761132Y-88378227D01*
X102761134Y-88378233D01*
X102799732Y-88435998D01*
X102816341Y-88494886D01*
X102795164Y-88552290D01*
X102744290Y-88586283D01*
X102717417Y-88590000D01*
X100399000Y-88590000D01*
X100340809Y-88571093D01*
X100304845Y-88521593D01*
X100300000Y-88491000D01*
X100300000Y-86450565D01*
X115124500Y-86450565D01*
X115124500Y-86549435D01*
X115126112Y-86555451D01*
X115150091Y-86644942D01*
X115199523Y-86730559D01*
X115199525Y-86730562D01*
X115269438Y-86800475D01*
X115269440Y-86800476D01*
X115355058Y-86849908D01*
X115355056Y-86849908D01*
X115355060Y-86849909D01*
X115355062Y-86849910D01*
X115450565Y-86875500D01*
X115450567Y-86875500D01*
X115549433Y-86875500D01*
X115549435Y-86875500D01*
X115644938Y-86849910D01*
X115644940Y-86849908D01*
X115644942Y-86849908D01*
X115670377Y-86835222D01*
X115730562Y-86800475D01*
X115800475Y-86730562D01*
X115841228Y-86659976D01*
X115849908Y-86644942D01*
X115849908Y-86644940D01*
X115849910Y-86644938D01*
X115875500Y-86549435D01*
X115875500Y-86450565D01*
X128249500Y-86450565D01*
X128249500Y-86549435D01*
X128251112Y-86555451D01*
X128275091Y-86644942D01*
X128324523Y-86730559D01*
X128324525Y-86730562D01*
X128394438Y-86800475D01*
X128394440Y-86800476D01*
X128480058Y-86849908D01*
X128480056Y-86849908D01*
X128480060Y-86849909D01*
X128480062Y-86849910D01*
X128575565Y-86875500D01*
X128575567Y-86875500D01*
X128674433Y-86875500D01*
X128674435Y-86875500D01*
X128769938Y-86849910D01*
X128769940Y-86849908D01*
X128769942Y-86849908D01*
X128795377Y-86835222D01*
X128855562Y-86800475D01*
X128925475Y-86730562D01*
X128966228Y-86659976D01*
X128974908Y-86644942D01*
X128974908Y-86644940D01*
X128974910Y-86644938D01*
X129000500Y-86549435D01*
X129000500Y-86450565D01*
X128974910Y-86355062D01*
X128974908Y-86355059D01*
X128974908Y-86355057D01*
X128925476Y-86269440D01*
X128925475Y-86269438D01*
X128855562Y-86199525D01*
X128855559Y-86199523D01*
X128769941Y-86150091D01*
X128769943Y-86150091D01*
X128732885Y-86140161D01*
X128674435Y-86124500D01*
X128575565Y-86124500D01*
X128517114Y-86140161D01*
X128480057Y-86150091D01*
X128394440Y-86199523D01*
X128324523Y-86269440D01*
X128275091Y-86355057D01*
X128260783Y-86408453D01*
X128249500Y-86450565D01*
X115875500Y-86450565D01*
X115849910Y-86355062D01*
X115849908Y-86355059D01*
X115849908Y-86355057D01*
X115800476Y-86269440D01*
X115800475Y-86269438D01*
X115730562Y-86199525D01*
X115730559Y-86199523D01*
X115644941Y-86150091D01*
X115644943Y-86150091D01*
X115607885Y-86140161D01*
X115549435Y-86124500D01*
X115450565Y-86124500D01*
X115392114Y-86140161D01*
X115355057Y-86150091D01*
X115269440Y-86199523D01*
X115199523Y-86269440D01*
X115150091Y-86355057D01*
X115135783Y-86408453D01*
X115124500Y-86450565D01*
X100300000Y-86450565D01*
X100300000Y-83889774D01*
X100599500Y-83889774D01*
X100599500Y-84110225D01*
X100633984Y-84327948D01*
X100702102Y-84537599D01*
X100702104Y-84537602D01*
X100702105Y-84537606D01*
X100726141Y-84584778D01*
X100800164Y-84730057D01*
X100802185Y-84734022D01*
X100931758Y-84912365D01*
X101087635Y-85068242D01*
X101265978Y-85197815D01*
X101462394Y-85297895D01*
X101462399Y-85297896D01*
X101462400Y-85297897D01*
X101477520Y-85302809D01*
X101672049Y-85366015D01*
X101731935Y-85375500D01*
X101889775Y-85400500D01*
X101889778Y-85400500D01*
X102110225Y-85400500D01*
X102219086Y-85383257D01*
X102327951Y-85366015D01*
X102537606Y-85297895D01*
X102734022Y-85197815D01*
X102912365Y-85068242D01*
X103068242Y-84912365D01*
X103131306Y-84825565D01*
X113374500Y-84825565D01*
X113374500Y-84924435D01*
X113381502Y-84950565D01*
X113400091Y-85019942D01*
X113449523Y-85105559D01*
X113449525Y-85105562D01*
X113519438Y-85175475D01*
X113519440Y-85175476D01*
X113605058Y-85224908D01*
X113605056Y-85224908D01*
X113605060Y-85224909D01*
X113605062Y-85224910D01*
X113700565Y-85250500D01*
X113700567Y-85250500D01*
X113799433Y-85250500D01*
X113799435Y-85250500D01*
X113894938Y-85224910D01*
X113894940Y-85224908D01*
X113894942Y-85224908D01*
X113938906Y-85199525D01*
X113980562Y-85175475D01*
X114050475Y-85105562D01*
X114067794Y-85075565D01*
X115124500Y-85075565D01*
X115124500Y-85174435D01*
X115139539Y-85230560D01*
X115150091Y-85269942D01*
X115197332Y-85351764D01*
X115199525Y-85355562D01*
X115269438Y-85425475D01*
X115269440Y-85425476D01*
X115355058Y-85474908D01*
X115355056Y-85474908D01*
X115355060Y-85474909D01*
X115355062Y-85474910D01*
X115450565Y-85500500D01*
X115450567Y-85500500D01*
X115549433Y-85500500D01*
X115549435Y-85500500D01*
X115644938Y-85474910D01*
X115644940Y-85474908D01*
X115644942Y-85474908D01*
X115670377Y-85460222D01*
X115687104Y-85450565D01*
X126374500Y-85450565D01*
X126374500Y-85549435D01*
X126389539Y-85605562D01*
X126400091Y-85644942D01*
X126449233Y-85730057D01*
X126449525Y-85730562D01*
X126519438Y-85800475D01*
X126519440Y-85800476D01*
X126605058Y-85849908D01*
X126605056Y-85849908D01*
X126605060Y-85849909D01*
X126605062Y-85849910D01*
X126700565Y-85875500D01*
X126700567Y-85875500D01*
X126799433Y-85875500D01*
X126799435Y-85875500D01*
X126894938Y-85849910D01*
X126894940Y-85849908D01*
X126894942Y-85849908D01*
X126937103Y-85825566D01*
X126980562Y-85800475D01*
X127050475Y-85730562D01*
X127096935Y-85650091D01*
X127099908Y-85644942D01*
X127099908Y-85644940D01*
X127099910Y-85644938D01*
X127125500Y-85549435D01*
X127125500Y-85450565D01*
X127099910Y-85355062D01*
X127099908Y-85355059D01*
X127099908Y-85355057D01*
X127050476Y-85269440D01*
X127050475Y-85269438D01*
X126980562Y-85199525D01*
X126977602Y-85197816D01*
X126894941Y-85150091D01*
X126894943Y-85150091D01*
X126857885Y-85140161D01*
X126799435Y-85124500D01*
X126700565Y-85124500D01*
X126642114Y-85140161D01*
X126605057Y-85150091D01*
X126519440Y-85199523D01*
X126449523Y-85269440D01*
X126400091Y-85355057D01*
X126389496Y-85394598D01*
X126374500Y-85450565D01*
X115687104Y-85450565D01*
X115730562Y-85425475D01*
X115800475Y-85355562D01*
X115849910Y-85269938D01*
X115875500Y-85174435D01*
X115875500Y-85075565D01*
X115849910Y-84980062D01*
X115849908Y-84980059D01*
X115849908Y-84980057D01*
X115800476Y-84894440D01*
X115800475Y-84894438D01*
X115730562Y-84824525D01*
X115730559Y-84824523D01*
X115644941Y-84775091D01*
X115644943Y-84775091D01*
X115607885Y-84765161D01*
X115549435Y-84749500D01*
X115450565Y-84749500D01*
X115392114Y-84765161D01*
X115355057Y-84775091D01*
X115269440Y-84824523D01*
X115199523Y-84894440D01*
X115150091Y-84980057D01*
X115139405Y-85019938D01*
X115124500Y-85075565D01*
X114067794Y-85075565D01*
X114099910Y-85019938D01*
X114125500Y-84924435D01*
X114125500Y-84825565D01*
X114099910Y-84730062D01*
X114099908Y-84730059D01*
X114099908Y-84730057D01*
X114050476Y-84644440D01*
X114050475Y-84644438D01*
X113980562Y-84574525D01*
X113980559Y-84574523D01*
X113894941Y-84525091D01*
X113894943Y-84525091D01*
X113857885Y-84515161D01*
X113799435Y-84499500D01*
X113700565Y-84499500D01*
X113642114Y-84515161D01*
X113605057Y-84525091D01*
X113519440Y-84574523D01*
X113449523Y-84644440D01*
X113400091Y-84730057D01*
X113389539Y-84769438D01*
X113374500Y-84825565D01*
X103131306Y-84825565D01*
X103197815Y-84734022D01*
X103297895Y-84537606D01*
X103366015Y-84327951D01*
X103366393Y-84325565D01*
X109124500Y-84325565D01*
X109124500Y-84424435D01*
X109139539Y-84480562D01*
X109150091Y-84519942D01*
X109199523Y-84605559D01*
X109199525Y-84605562D01*
X109269438Y-84675475D01*
X109269440Y-84675476D01*
X109355058Y-84724908D01*
X109355056Y-84724908D01*
X109355060Y-84724909D01*
X109355062Y-84724910D01*
X109450565Y-84750500D01*
X109450567Y-84750500D01*
X109549433Y-84750500D01*
X109549435Y-84750500D01*
X109644938Y-84724910D01*
X109644940Y-84724908D01*
X109644942Y-84724908D01*
X109688906Y-84699525D01*
X109730562Y-84675475D01*
X109800475Y-84605562D01*
X109839709Y-84537606D01*
X109849908Y-84519942D01*
X109849909Y-84519939D01*
X109849910Y-84519938D01*
X109875500Y-84424435D01*
X109875500Y-84325565D01*
X119499500Y-84325565D01*
X119499500Y-84424435D01*
X119514539Y-84480562D01*
X119525091Y-84519942D01*
X119574523Y-84605559D01*
X119574525Y-84605562D01*
X119644438Y-84675475D01*
X119644440Y-84675476D01*
X119730058Y-84724908D01*
X119730056Y-84724908D01*
X119730060Y-84724909D01*
X119730062Y-84724910D01*
X119825565Y-84750500D01*
X119825567Y-84750500D01*
X119924433Y-84750500D01*
X119924435Y-84750500D01*
X120019938Y-84724910D01*
X120019940Y-84724908D01*
X120019942Y-84724908D01*
X120063906Y-84699525D01*
X120105562Y-84675475D01*
X120175475Y-84605562D01*
X120214709Y-84537606D01*
X120224908Y-84519942D01*
X120224909Y-84519939D01*
X120224910Y-84519938D01*
X120250500Y-84424435D01*
X120250500Y-84325565D01*
X120224910Y-84230062D01*
X120224908Y-84230059D01*
X120224908Y-84230057D01*
X120175476Y-84144440D01*
X120175475Y-84144438D01*
X120105562Y-84074525D01*
X120105559Y-84074523D01*
X120019941Y-84025091D01*
X120019943Y-84025091D01*
X119982885Y-84015161D01*
X119924435Y-83999500D01*
X119825565Y-83999500D01*
X119767114Y-84015161D01*
X119730057Y-84025091D01*
X119644440Y-84074523D01*
X119574523Y-84144440D01*
X119525091Y-84230057D01*
X119514405Y-84269938D01*
X119499500Y-84325565D01*
X109875500Y-84325565D01*
X109849910Y-84230062D01*
X109849908Y-84230059D01*
X109849908Y-84230057D01*
X109800476Y-84144440D01*
X109800475Y-84144438D01*
X109730562Y-84074525D01*
X109730559Y-84074523D01*
X109644941Y-84025091D01*
X109644943Y-84025091D01*
X109607885Y-84015161D01*
X109549435Y-83999500D01*
X109450565Y-83999500D01*
X109392114Y-84015161D01*
X109355057Y-84025091D01*
X109269440Y-84074523D01*
X109199523Y-84144440D01*
X109150091Y-84230057D01*
X109139405Y-84269938D01*
X109124500Y-84325565D01*
X103366393Y-84325565D01*
X103370532Y-84299433D01*
X103400500Y-84110225D01*
X103400500Y-83889774D01*
X103368462Y-83687501D01*
X103366015Y-83672049D01*
X103353322Y-83632984D01*
X103342498Y-83599668D01*
X103334666Y-83575565D01*
X107374500Y-83575565D01*
X107374500Y-83674435D01*
X107389539Y-83730562D01*
X107400091Y-83769942D01*
X107449523Y-83855559D01*
X107449525Y-83855562D01*
X107519438Y-83925475D01*
X107519440Y-83925476D01*
X107605058Y-83974908D01*
X107605056Y-83974908D01*
X107605060Y-83974909D01*
X107605062Y-83974910D01*
X107700565Y-84000500D01*
X107700567Y-84000500D01*
X107799433Y-84000500D01*
X107799435Y-84000500D01*
X107894938Y-83974910D01*
X107894940Y-83974908D01*
X107894942Y-83974908D01*
X107938906Y-83949525D01*
X107980562Y-83925475D01*
X108050475Y-83855562D01*
X108089064Y-83788724D01*
X108099908Y-83769942D01*
X108099908Y-83769940D01*
X108099910Y-83769938D01*
X108125500Y-83674435D01*
X108125500Y-83575565D01*
X108099910Y-83480062D01*
X108096935Y-83474910D01*
X108082880Y-83450565D01*
X111499500Y-83450565D01*
X111499500Y-83549435D01*
X111514539Y-83605562D01*
X111525091Y-83644942D01*
X111574233Y-83730057D01*
X111574525Y-83730562D01*
X111644438Y-83800475D01*
X111672979Y-83816953D01*
X111730058Y-83849908D01*
X111730056Y-83849908D01*
X111730060Y-83849909D01*
X111730062Y-83849910D01*
X111825565Y-83875500D01*
X111825567Y-83875500D01*
X111924433Y-83875500D01*
X111924435Y-83875500D01*
X112019938Y-83849910D01*
X112019940Y-83849908D01*
X112019942Y-83849908D01*
X112062103Y-83825566D01*
X112062105Y-83825565D01*
X122999500Y-83825565D01*
X122999500Y-83924435D01*
X123013024Y-83974908D01*
X123025091Y-84019942D01*
X123074233Y-84105057D01*
X123074525Y-84105562D01*
X123144438Y-84175475D01*
X123144440Y-84175476D01*
X123230058Y-84224908D01*
X123230056Y-84224908D01*
X123230060Y-84224909D01*
X123230062Y-84224910D01*
X123325565Y-84250500D01*
X123325567Y-84250500D01*
X123424434Y-84250500D01*
X123424435Y-84250500D01*
X123499877Y-84230285D01*
X123560978Y-84233486D01*
X123608528Y-84271991D01*
X123624500Y-84325911D01*
X123624500Y-84424435D01*
X123639539Y-84480562D01*
X123650091Y-84519942D01*
X123699523Y-84605559D01*
X123699525Y-84605562D01*
X123769438Y-84675475D01*
X123769440Y-84675476D01*
X123855058Y-84724908D01*
X123855056Y-84724908D01*
X123855060Y-84724909D01*
X123855062Y-84724910D01*
X123950565Y-84750500D01*
X123950567Y-84750500D01*
X124049433Y-84750500D01*
X124049435Y-84750500D01*
X124144938Y-84724910D01*
X124144940Y-84724908D01*
X124144942Y-84724908D01*
X124188906Y-84699525D01*
X124230562Y-84675475D01*
X124300475Y-84605562D01*
X124339709Y-84537606D01*
X124349908Y-84519942D01*
X124349909Y-84519939D01*
X124349910Y-84519938D01*
X124375500Y-84424435D01*
X124375500Y-84325565D01*
X124349910Y-84230062D01*
X124346935Y-84224910D01*
X124332880Y-84200565D01*
X127874500Y-84200565D01*
X127874500Y-84299435D01*
X127894715Y-84374877D01*
X127900091Y-84394942D01*
X127949523Y-84480559D01*
X127949525Y-84480562D01*
X128019438Y-84550475D01*
X128019440Y-84550476D01*
X128105058Y-84599908D01*
X128105056Y-84599908D01*
X128105060Y-84599909D01*
X128105062Y-84599910D01*
X128200565Y-84625500D01*
X128200567Y-84625500D01*
X128299088Y-84625500D01*
X128357279Y-84644407D01*
X128393243Y-84693907D01*
X128394714Y-84750121D01*
X128374500Y-84825565D01*
X128374500Y-84924435D01*
X128381502Y-84950565D01*
X128400091Y-85019942D01*
X128449523Y-85105559D01*
X128449525Y-85105562D01*
X128519438Y-85175475D01*
X128519440Y-85175476D01*
X128605058Y-85224908D01*
X128605056Y-85224908D01*
X128605060Y-85224909D01*
X128605062Y-85224910D01*
X128700565Y-85250500D01*
X128700567Y-85250500D01*
X128799433Y-85250500D01*
X128799435Y-85250500D01*
X128894938Y-85224910D01*
X128894940Y-85224908D01*
X128894942Y-85224908D01*
X128938906Y-85199525D01*
X128980562Y-85175475D01*
X129007985Y-85148051D01*
X129062499Y-85120274D01*
X129122932Y-85129845D01*
X129163724Y-85168554D01*
X129181606Y-85199525D01*
X129199525Y-85230562D01*
X129269438Y-85300475D01*
X129309368Y-85323528D01*
X129358272Y-85351764D01*
X129399212Y-85397234D01*
X129405607Y-85458084D01*
X129375014Y-85511072D01*
X129358272Y-85523236D01*
X129269439Y-85574524D01*
X129199523Y-85644440D01*
X129150091Y-85730057D01*
X129139539Y-85769438D01*
X129124500Y-85825565D01*
X129124500Y-85924435D01*
X129131502Y-85950565D01*
X129150091Y-86019942D01*
X129199523Y-86105559D01*
X129199525Y-86105562D01*
X129269438Y-86175475D01*
X129269440Y-86175476D01*
X129355058Y-86224908D01*
X129355056Y-86224908D01*
X129355060Y-86224909D01*
X129355062Y-86224910D01*
X129450565Y-86250500D01*
X129450567Y-86250500D01*
X129549433Y-86250500D01*
X129549435Y-86250500D01*
X129644938Y-86224910D01*
X129644940Y-86224908D01*
X129644942Y-86224908D01*
X129688906Y-86199525D01*
X129730562Y-86175475D01*
X129800475Y-86105562D01*
X129849910Y-86019938D01*
X129868498Y-85950565D01*
X133499500Y-85950565D01*
X133499500Y-86049435D01*
X133514539Y-86105562D01*
X133525091Y-86144942D01*
X133574523Y-86230559D01*
X133574525Y-86230562D01*
X133644438Y-86300475D01*
X133644440Y-86300476D01*
X133730058Y-86349908D01*
X133730056Y-86349908D01*
X133730060Y-86349909D01*
X133730062Y-86349910D01*
X133825565Y-86375500D01*
X133825567Y-86375500D01*
X133924433Y-86375500D01*
X133924435Y-86375500D01*
X134019938Y-86349910D01*
X134019940Y-86349908D01*
X134019942Y-86349908D01*
X134045377Y-86335222D01*
X134105562Y-86300475D01*
X134175475Y-86230562D01*
X134221935Y-86150091D01*
X134224908Y-86144942D01*
X134224908Y-86144940D01*
X134224910Y-86144938D01*
X134250500Y-86049435D01*
X134250500Y-85950565D01*
X134224910Y-85855062D01*
X134224908Y-85855059D01*
X134224908Y-85855057D01*
X134175476Y-85769440D01*
X134175475Y-85769438D01*
X134105562Y-85699525D01*
X134105559Y-85699523D01*
X134019941Y-85650091D01*
X134019943Y-85650091D01*
X133982885Y-85640161D01*
X133924435Y-85624500D01*
X133825565Y-85624500D01*
X133767114Y-85640161D01*
X133730057Y-85650091D01*
X133644440Y-85699523D01*
X133574523Y-85769440D01*
X133525091Y-85855057D01*
X133510783Y-85908453D01*
X133499500Y-85950565D01*
X129868498Y-85950565D01*
X129875500Y-85924435D01*
X129875500Y-85825565D01*
X129849910Y-85730062D01*
X129849908Y-85730059D01*
X129849908Y-85730057D01*
X129800476Y-85644440D01*
X129800475Y-85644438D01*
X129730562Y-85574525D01*
X129730559Y-85574523D01*
X129641728Y-85523236D01*
X129638364Y-85519500D01*
X129633571Y-85517978D01*
X129618164Y-85497066D01*
X129600787Y-85477767D01*
X129600261Y-85472766D01*
X129597279Y-85468718D01*
X129597106Y-85442748D01*
X129594391Y-85416916D01*
X129596905Y-85412560D01*
X129596872Y-85407534D01*
X129607276Y-85394598D01*
X129624984Y-85363928D01*
X129632506Y-85357796D01*
X129642222Y-85350637D01*
X129644938Y-85349910D01*
X129687105Y-85325565D01*
X138124500Y-85325565D01*
X138124500Y-85424435D01*
X138144614Y-85499500D01*
X138150091Y-85519942D01*
X138199523Y-85605559D01*
X138199525Y-85605562D01*
X138269438Y-85675475D01*
X138269440Y-85675476D01*
X138355058Y-85724908D01*
X138355056Y-85724908D01*
X138355060Y-85724909D01*
X138355062Y-85724910D01*
X138450565Y-85750500D01*
X138450567Y-85750500D01*
X138549433Y-85750500D01*
X138549435Y-85750500D01*
X138644938Y-85724910D01*
X138644940Y-85724908D01*
X138644942Y-85724908D01*
X138688906Y-85699525D01*
X138730562Y-85675475D01*
X138800475Y-85605562D01*
X138835222Y-85545377D01*
X138849908Y-85519942D01*
X138849908Y-85519940D01*
X138849910Y-85519938D01*
X138875500Y-85424435D01*
X138875500Y-85325565D01*
X141874500Y-85325565D01*
X141874500Y-85424435D01*
X141894614Y-85499500D01*
X141900091Y-85519942D01*
X141949523Y-85605559D01*
X141949525Y-85605562D01*
X142019438Y-85675475D01*
X142019440Y-85675476D01*
X142105058Y-85724908D01*
X142105056Y-85724908D01*
X142105060Y-85724909D01*
X142105062Y-85724910D01*
X142200565Y-85750500D01*
X142200567Y-85750500D01*
X142299433Y-85750500D01*
X142299435Y-85750500D01*
X142394938Y-85724910D01*
X142394940Y-85724908D01*
X142394942Y-85724908D01*
X142438906Y-85699525D01*
X142480562Y-85675475D01*
X142550475Y-85605562D01*
X142585222Y-85545377D01*
X142599908Y-85519942D01*
X142599908Y-85519940D01*
X142599910Y-85519938D01*
X142625500Y-85424435D01*
X142625500Y-85325565D01*
X142599910Y-85230062D01*
X142599908Y-85230059D01*
X142599908Y-85230057D01*
X142550476Y-85144440D01*
X142550475Y-85144438D01*
X142480562Y-85074525D01*
X142469680Y-85068242D01*
X142394941Y-85025091D01*
X142394943Y-85025091D01*
X142357885Y-85015161D01*
X142299435Y-84999500D01*
X142200565Y-84999500D01*
X142142114Y-85015161D01*
X142105057Y-85025091D01*
X142019440Y-85074523D01*
X141949523Y-85144440D01*
X141900091Y-85230057D01*
X141889539Y-85269438D01*
X141874500Y-85325565D01*
X138875500Y-85325565D01*
X138849910Y-85230062D01*
X138849908Y-85230059D01*
X138849908Y-85230057D01*
X138800476Y-85144440D01*
X138800475Y-85144438D01*
X138730562Y-85074525D01*
X138719680Y-85068242D01*
X138644941Y-85025091D01*
X138644943Y-85025091D01*
X138607885Y-85015161D01*
X138549435Y-84999500D01*
X138450565Y-84999500D01*
X138392114Y-85015161D01*
X138355057Y-85025091D01*
X138269440Y-85074523D01*
X138199523Y-85144440D01*
X138150091Y-85230057D01*
X138139539Y-85269438D01*
X138124500Y-85325565D01*
X129687105Y-85325565D01*
X129730562Y-85300475D01*
X129800475Y-85230562D01*
X129846935Y-85150091D01*
X129849908Y-85144942D01*
X129849908Y-85144940D01*
X129849910Y-85144938D01*
X129875500Y-85049435D01*
X129875500Y-84950565D01*
X129849910Y-84855062D01*
X129849905Y-84855053D01*
X129848319Y-84851223D01*
X129843517Y-84790226D01*
X129875484Y-84738056D01*
X129890282Y-84727597D01*
X129894934Y-84724911D01*
X129894938Y-84724910D01*
X129980562Y-84675475D01*
X130050475Y-84605562D01*
X130089709Y-84537606D01*
X130099908Y-84519942D01*
X130099909Y-84519939D01*
X130099910Y-84519938D01*
X130125500Y-84424435D01*
X130125500Y-84325565D01*
X130099910Y-84230062D01*
X130053108Y-84148999D01*
X130040387Y-84089152D01*
X130046436Y-84075565D01*
X131749500Y-84075565D01*
X131749500Y-84174435D01*
X131764405Y-84230062D01*
X131775091Y-84269942D01*
X131810236Y-84330813D01*
X131824525Y-84355562D01*
X131894438Y-84425475D01*
X131894440Y-84425476D01*
X131980058Y-84474908D01*
X131980056Y-84474908D01*
X131980060Y-84474909D01*
X131980062Y-84474910D01*
X132075565Y-84500500D01*
X132075567Y-84500500D01*
X132174433Y-84500500D01*
X132174435Y-84500500D01*
X132269938Y-84474910D01*
X132269940Y-84474908D01*
X132269942Y-84474908D01*
X132295377Y-84460222D01*
X132355562Y-84425475D01*
X132425475Y-84355562D01*
X132439764Y-84330813D01*
X132485233Y-84289872D01*
X132546083Y-84283476D01*
X132599071Y-84314069D01*
X132623958Y-84369965D01*
X132624500Y-84380313D01*
X132624500Y-84424435D01*
X132639539Y-84480562D01*
X132650091Y-84519942D01*
X132699523Y-84605559D01*
X132699525Y-84605562D01*
X132769438Y-84675475D01*
X132769440Y-84675476D01*
X132855058Y-84724908D01*
X132855056Y-84724908D01*
X132855060Y-84724909D01*
X132855062Y-84724910D01*
X132950565Y-84750500D01*
X132950567Y-84750500D01*
X133049433Y-84750500D01*
X133049435Y-84750500D01*
X133144938Y-84724910D01*
X133144940Y-84724908D01*
X133144942Y-84724908D01*
X133188906Y-84699525D01*
X133230562Y-84675475D01*
X133300475Y-84605562D01*
X133339709Y-84537606D01*
X133349908Y-84519942D01*
X133349909Y-84519939D01*
X133349910Y-84519938D01*
X133375500Y-84424435D01*
X133375500Y-84325565D01*
X133349910Y-84230062D01*
X133349908Y-84230059D01*
X133349908Y-84230057D01*
X133300476Y-84144440D01*
X133300475Y-84144438D01*
X133230562Y-84074525D01*
X133230559Y-84074523D01*
X133144941Y-84025091D01*
X133144943Y-84025091D01*
X133107885Y-84015161D01*
X133049435Y-83999500D01*
X132950565Y-83999500D01*
X132892114Y-84015161D01*
X132855057Y-84025091D01*
X132769440Y-84074523D01*
X132699524Y-84144439D01*
X132685236Y-84169187D01*
X132639766Y-84210128D01*
X132578915Y-84216522D01*
X132525928Y-84185929D01*
X132501042Y-84130033D01*
X132500500Y-84119686D01*
X132500500Y-84075566D01*
X132500221Y-84074523D01*
X132474910Y-83980062D01*
X132474908Y-83980059D01*
X132474908Y-83980057D01*
X132425476Y-83894440D01*
X132425475Y-83894438D01*
X132398049Y-83867012D01*
X132370274Y-83812498D01*
X132379845Y-83752066D01*
X132418555Y-83711275D01*
X132459732Y-83687501D01*
X132480562Y-83675475D01*
X132550475Y-83605562D01*
X132596935Y-83525091D01*
X132599908Y-83519942D01*
X132599908Y-83519940D01*
X132599910Y-83519938D01*
X132618498Y-83450565D01*
X139124500Y-83450565D01*
X139124500Y-83549435D01*
X139139539Y-83605562D01*
X139150091Y-83644942D01*
X139199233Y-83730057D01*
X139199525Y-83730562D01*
X139269438Y-83800475D01*
X139297979Y-83816953D01*
X139355058Y-83849908D01*
X139355056Y-83849908D01*
X139355060Y-83849909D01*
X139355062Y-83849910D01*
X139450565Y-83875500D01*
X139450567Y-83875500D01*
X139549433Y-83875500D01*
X139549435Y-83875500D01*
X139644938Y-83849910D01*
X139644940Y-83849908D01*
X139644942Y-83849908D01*
X139687103Y-83825566D01*
X139730562Y-83800475D01*
X139800475Y-83730562D01*
X139849910Y-83644938D01*
X139875500Y-83549435D01*
X139875500Y-83450565D01*
X139849910Y-83355062D01*
X139849908Y-83355059D01*
X139849908Y-83355057D01*
X139800476Y-83269440D01*
X139800475Y-83269438D01*
X139730562Y-83199525D01*
X139730559Y-83199523D01*
X139644941Y-83150091D01*
X139644943Y-83150091D01*
X139607885Y-83140161D01*
X139549435Y-83124500D01*
X139450565Y-83124500D01*
X139392114Y-83140161D01*
X139355057Y-83150091D01*
X139269440Y-83199523D01*
X139199523Y-83269440D01*
X139150091Y-83355057D01*
X139139539Y-83394438D01*
X139124500Y-83450565D01*
X132618498Y-83450565D01*
X132625500Y-83424435D01*
X132625500Y-83325911D01*
X132644407Y-83267720D01*
X132693907Y-83231756D01*
X132750121Y-83230285D01*
X132825565Y-83250500D01*
X132825566Y-83250500D01*
X132924433Y-83250500D01*
X132924435Y-83250500D01*
X133019938Y-83224910D01*
X133019940Y-83224908D01*
X133019942Y-83224908D01*
X133063906Y-83199525D01*
X133105562Y-83175475D01*
X133175475Y-83105562D01*
X133221935Y-83025091D01*
X133224908Y-83019942D01*
X133224908Y-83019941D01*
X133224910Y-83019938D01*
X133243498Y-82950565D01*
X136124500Y-82950565D01*
X136124500Y-83049435D01*
X136139539Y-83105562D01*
X136150091Y-83144942D01*
X136199233Y-83230057D01*
X136199525Y-83230562D01*
X136269438Y-83300475D01*
X136269440Y-83300476D01*
X136355058Y-83349908D01*
X136355056Y-83349908D01*
X136355060Y-83349909D01*
X136355062Y-83349910D01*
X136450565Y-83375500D01*
X136450567Y-83375500D01*
X136549433Y-83375500D01*
X136549435Y-83375500D01*
X136644938Y-83349910D01*
X136644940Y-83349908D01*
X136644942Y-83349908D01*
X136670377Y-83335222D01*
X136730562Y-83300475D01*
X136800475Y-83230562D01*
X136846935Y-83150091D01*
X136849908Y-83144942D01*
X136849908Y-83144940D01*
X136849910Y-83144938D01*
X136875500Y-83049435D01*
X136875500Y-82950565D01*
X136849910Y-82855062D01*
X136849908Y-82855059D01*
X136849908Y-82855057D01*
X136803738Y-82775090D01*
X136800475Y-82769438D01*
X136730562Y-82699525D01*
X136730559Y-82699523D01*
X136644941Y-82650091D01*
X136644943Y-82650091D01*
X136584833Y-82633985D01*
X136549435Y-82624500D01*
X136450565Y-82624500D01*
X136415167Y-82633985D01*
X136355057Y-82650091D01*
X136269440Y-82699523D01*
X136199523Y-82769440D01*
X136150091Y-82855057D01*
X136150090Y-82855062D01*
X136124500Y-82950565D01*
X133243498Y-82950565D01*
X133250500Y-82924435D01*
X133250500Y-82825565D01*
X133224910Y-82730062D01*
X133224908Y-82730059D01*
X133224908Y-82730057D01*
X133175476Y-82644440D01*
X133175475Y-82644438D01*
X133105562Y-82574525D01*
X133105559Y-82574523D01*
X133019941Y-82525091D01*
X133019943Y-82525091D01*
X132982885Y-82515161D01*
X132924435Y-82499500D01*
X132825565Y-82499500D01*
X132767114Y-82515161D01*
X132730057Y-82525091D01*
X132644440Y-82574523D01*
X132574523Y-82644440D01*
X132525091Y-82730057D01*
X132499500Y-82825566D01*
X132499500Y-82924088D01*
X132480593Y-82982279D01*
X132431093Y-83018243D01*
X132374878Y-83019714D01*
X132299435Y-82999500D01*
X132200565Y-82999500D01*
X132142114Y-83015161D01*
X132105057Y-83025091D01*
X132019440Y-83074523D01*
X131949523Y-83144440D01*
X131900091Y-83230057D01*
X131889539Y-83269438D01*
X131874500Y-83325565D01*
X131874500Y-83424435D01*
X131889405Y-83480062D01*
X131900091Y-83519942D01*
X131946122Y-83599668D01*
X131949525Y-83605562D01*
X131976949Y-83632986D01*
X132004725Y-83687501D01*
X131995154Y-83747933D01*
X131956446Y-83788724D01*
X131894438Y-83824525D01*
X131824523Y-83894440D01*
X131775091Y-83980057D01*
X131769034Y-84002664D01*
X131749500Y-84075565D01*
X130046436Y-84075565D01*
X130065273Y-84033257D01*
X130118261Y-84002664D01*
X130120590Y-84002198D01*
X130129640Y-84000500D01*
X130174435Y-84000500D01*
X130269938Y-83974910D01*
X130355562Y-83925475D01*
X130425475Y-83855562D01*
X130464064Y-83788724D01*
X130474908Y-83769942D01*
X130474908Y-83769940D01*
X130474910Y-83769938D01*
X130500500Y-83674435D01*
X130500500Y-83575565D01*
X130474910Y-83480062D01*
X130474908Y-83480059D01*
X130474908Y-83480057D01*
X130425476Y-83394440D01*
X130425475Y-83394438D01*
X130355562Y-83324525D01*
X130355559Y-83324523D01*
X130269941Y-83275091D01*
X130269943Y-83275091D01*
X130232885Y-83265161D01*
X130174435Y-83249500D01*
X130075565Y-83249500D01*
X130017114Y-83265161D01*
X129980057Y-83275091D01*
X129894440Y-83324523D01*
X129824523Y-83394440D01*
X129775091Y-83480057D01*
X129764405Y-83519938D01*
X129749500Y-83575565D01*
X129749500Y-83674435D01*
X129775090Y-83769938D01*
X129775091Y-83769940D01*
X129821891Y-83850999D01*
X129834613Y-83910848D01*
X129809727Y-83966743D01*
X129756739Y-83997336D01*
X129736155Y-83999500D01*
X129700565Y-83999500D01*
X129642114Y-84015161D01*
X129605057Y-84025091D01*
X129519440Y-84074523D01*
X129449523Y-84144440D01*
X129400091Y-84230057D01*
X129389405Y-84269938D01*
X129374500Y-84325565D01*
X129374500Y-84424435D01*
X129374779Y-84425475D01*
X129400090Y-84519939D01*
X129401682Y-84523781D01*
X129406481Y-84584778D01*
X129374511Y-84636946D01*
X129359718Y-84647401D01*
X129269436Y-84699526D01*
X129242013Y-84726949D01*
X129187496Y-84754725D01*
X129127065Y-84745153D01*
X129086275Y-84706445D01*
X129068394Y-84675475D01*
X129050475Y-84644438D01*
X128980562Y-84574525D01*
X128980559Y-84574523D01*
X128894941Y-84525091D01*
X128894943Y-84525091D01*
X128857885Y-84515161D01*
X128799435Y-84499500D01*
X128700912Y-84499500D01*
X128642721Y-84480593D01*
X128606757Y-84431093D01*
X128605285Y-84374877D01*
X128625500Y-84299435D01*
X128625500Y-84200565D01*
X128599910Y-84105062D01*
X128599908Y-84105059D01*
X128599908Y-84105057D01*
X128550476Y-84019440D01*
X128550475Y-84019438D01*
X128480562Y-83949525D01*
X128480559Y-83949523D01*
X128394941Y-83900091D01*
X128394943Y-83900091D01*
X128356438Y-83889774D01*
X128299435Y-83874500D01*
X128200565Y-83874500D01*
X128143562Y-83889774D01*
X128105057Y-83900091D01*
X128019440Y-83949523D01*
X127949523Y-84019440D01*
X127900091Y-84105057D01*
X127885783Y-84158453D01*
X127874500Y-84200565D01*
X124332880Y-84200565D01*
X124300476Y-84144440D01*
X124300475Y-84144438D01*
X124230562Y-84074525D01*
X124230559Y-84074523D01*
X124144941Y-84025091D01*
X124144943Y-84025091D01*
X124107885Y-84015161D01*
X124049435Y-83999500D01*
X123950565Y-83999500D01*
X123875121Y-84019714D01*
X123814021Y-84016512D01*
X123766472Y-83978007D01*
X123750500Y-83924088D01*
X123750500Y-83825566D01*
X123750221Y-83824525D01*
X123724910Y-83730062D01*
X123724908Y-83730059D01*
X123724908Y-83730057D01*
X123675476Y-83644440D01*
X123675475Y-83644438D01*
X123605562Y-83574525D01*
X123605559Y-83574523D01*
X123519941Y-83525091D01*
X123519943Y-83525091D01*
X123482885Y-83515161D01*
X123424435Y-83499500D01*
X123325565Y-83499500D01*
X123267114Y-83515161D01*
X123230057Y-83525091D01*
X123144440Y-83574523D01*
X123074523Y-83644440D01*
X123025091Y-83730057D01*
X123019194Y-83752066D01*
X122999500Y-83825565D01*
X112062105Y-83825565D01*
X112105562Y-83800475D01*
X112175475Y-83730562D01*
X112224910Y-83644938D01*
X112250500Y-83549435D01*
X112250500Y-83450565D01*
X112224910Y-83355062D01*
X112224908Y-83355059D01*
X112224908Y-83355057D01*
X112175476Y-83269440D01*
X112175475Y-83269438D01*
X112105562Y-83199525D01*
X112105559Y-83199523D01*
X112028118Y-83154812D01*
X112028117Y-83154812D01*
X112019940Y-83150091D01*
X112019939Y-83150090D01*
X112019938Y-83150090D01*
X111924435Y-83124500D01*
X111825565Y-83124500D01*
X111767114Y-83140161D01*
X111730057Y-83150091D01*
X111644440Y-83199523D01*
X111574523Y-83269440D01*
X111525091Y-83355057D01*
X111514539Y-83394438D01*
X111499500Y-83450565D01*
X108082880Y-83450565D01*
X108050476Y-83394440D01*
X108050475Y-83394438D01*
X107980562Y-83324525D01*
X107980559Y-83324523D01*
X107894941Y-83275091D01*
X107894943Y-83275091D01*
X107857885Y-83265161D01*
X107799435Y-83249500D01*
X107700565Y-83249500D01*
X107642114Y-83265161D01*
X107605057Y-83275091D01*
X107519440Y-83324523D01*
X107449523Y-83394440D01*
X107400091Y-83480057D01*
X107389405Y-83519938D01*
X107374500Y-83575565D01*
X103334666Y-83575565D01*
X103309951Y-83499500D01*
X103297895Y-83462394D01*
X103197815Y-83265978D01*
X103068242Y-83087635D01*
X103056172Y-83075565D01*
X126124500Y-83075565D01*
X126124500Y-83174435D01*
X126139539Y-83230562D01*
X126150091Y-83269942D01*
X126199233Y-83355057D01*
X126199525Y-83355562D01*
X126269438Y-83425475D01*
X126269440Y-83425476D01*
X126355058Y-83474908D01*
X126355056Y-83474908D01*
X126355060Y-83474909D01*
X126355062Y-83474910D01*
X126450565Y-83500500D01*
X126450567Y-83500500D01*
X126549433Y-83500500D01*
X126549435Y-83500500D01*
X126644938Y-83474910D01*
X126644940Y-83474908D01*
X126644942Y-83474908D01*
X126687103Y-83450566D01*
X126730562Y-83425475D01*
X126800475Y-83355562D01*
X126846935Y-83275091D01*
X126849908Y-83269942D01*
X126849908Y-83269940D01*
X126849910Y-83269938D01*
X126875500Y-83174435D01*
X126875500Y-83075565D01*
X126849910Y-82980062D01*
X126849908Y-82980059D01*
X126849908Y-82980057D01*
X126800476Y-82894440D01*
X126800475Y-82894438D01*
X126730562Y-82824525D01*
X126691868Y-82802185D01*
X126660247Y-82783928D01*
X126660241Y-82783925D01*
X126644938Y-82775090D01*
X126549435Y-82749500D01*
X126450565Y-82749500D01*
X126392114Y-82765161D01*
X126355057Y-82775091D01*
X126269440Y-82824523D01*
X126199523Y-82894440D01*
X126150091Y-82980057D01*
X126139859Y-83018243D01*
X126124500Y-83075565D01*
X103056172Y-83075565D01*
X102912365Y-82931758D01*
X102734022Y-82802185D01*
X102734021Y-82802184D01*
X102734019Y-82802183D01*
X102592464Y-82730057D01*
X102537606Y-82702105D01*
X102537602Y-82702104D01*
X102537599Y-82702102D01*
X102327948Y-82633984D01*
X102110225Y-82599500D01*
X102110222Y-82599500D01*
X101889778Y-82599500D01*
X101889775Y-82599500D01*
X101672051Y-82633984D01*
X101462400Y-82702102D01*
X101265980Y-82802183D01*
X101176806Y-82866971D01*
X101087635Y-82931758D01*
X100931758Y-83087635D01*
X100890487Y-83144440D01*
X100802183Y-83265980D01*
X100702102Y-83462400D01*
X100633984Y-83672051D01*
X100599500Y-83889774D01*
X100300000Y-83889774D01*
X100300000Y-81700565D01*
X104624500Y-81700565D01*
X104624500Y-81799435D01*
X104639539Y-81855562D01*
X104650091Y-81894942D01*
X104699523Y-81980559D01*
X104699525Y-81980562D01*
X104769438Y-82050475D01*
X104769440Y-82050476D01*
X104855058Y-82099908D01*
X104855056Y-82099908D01*
X104855060Y-82099909D01*
X104855062Y-82099910D01*
X104950565Y-82125500D01*
X104950567Y-82125500D01*
X105049433Y-82125500D01*
X105049435Y-82125500D01*
X105144938Y-82099910D01*
X105144940Y-82099908D01*
X105144942Y-82099908D01*
X105170377Y-82085222D01*
X105230562Y-82050475D01*
X105300475Y-81980562D01*
X105346935Y-81900091D01*
X105349908Y-81894942D01*
X105349908Y-81894941D01*
X105349910Y-81894938D01*
X105368498Y-81825565D01*
X117749500Y-81825565D01*
X117749500Y-81924435D01*
X117764539Y-81980562D01*
X117775091Y-82019942D01*
X117824233Y-82105057D01*
X117824525Y-82105562D01*
X117894438Y-82175475D01*
X117894440Y-82175476D01*
X117980058Y-82224908D01*
X117980056Y-82224908D01*
X117980060Y-82224909D01*
X117980062Y-82224910D01*
X118075565Y-82250500D01*
X118075567Y-82250500D01*
X118174433Y-82250500D01*
X118174435Y-82250500D01*
X118269938Y-82224910D01*
X118269940Y-82224908D01*
X118269942Y-82224908D01*
X118312103Y-82200566D01*
X118355562Y-82175475D01*
X118425475Y-82105562D01*
X118474910Y-82019938D01*
X118493498Y-81950565D01*
X121624500Y-81950565D01*
X121624500Y-82049435D01*
X121639539Y-82105562D01*
X121650091Y-82144942D01*
X121699523Y-82230559D01*
X121699525Y-82230562D01*
X121769438Y-82300475D01*
X121769440Y-82300476D01*
X121855058Y-82349908D01*
X121855056Y-82349908D01*
X121855060Y-82349909D01*
X121855062Y-82349910D01*
X121950565Y-82375500D01*
X121950567Y-82375500D01*
X122049433Y-82375500D01*
X122049435Y-82375500D01*
X122144938Y-82349910D01*
X122144940Y-82349908D01*
X122144942Y-82349908D01*
X122170377Y-82335222D01*
X122230562Y-82300475D01*
X122300475Y-82230562D01*
X122317794Y-82200565D01*
X126499500Y-82200565D01*
X126499500Y-82299435D01*
X126499779Y-82300475D01*
X126525091Y-82394942D01*
X126574523Y-82480559D01*
X126574525Y-82480562D01*
X126644438Y-82550475D01*
X126730062Y-82599910D01*
X126825565Y-82625500D01*
X126825566Y-82625500D01*
X126924433Y-82625500D01*
X126924435Y-82625500D01*
X127019938Y-82599910D01*
X127019940Y-82599908D01*
X127019942Y-82599908D01*
X127063906Y-82574525D01*
X127105562Y-82550475D01*
X127175475Y-82480562D01*
X127224910Y-82394938D01*
X127250500Y-82299435D01*
X127250500Y-82200565D01*
X129124500Y-82200565D01*
X129124500Y-82299435D01*
X129124779Y-82300475D01*
X129150091Y-82394942D01*
X129199523Y-82480559D01*
X129199525Y-82480562D01*
X129269438Y-82550475D01*
X129269440Y-82550476D01*
X129355058Y-82599908D01*
X129355056Y-82599908D01*
X129355060Y-82599909D01*
X129355062Y-82599910D01*
X129450565Y-82625500D01*
X129450567Y-82625500D01*
X129549433Y-82625500D01*
X129549435Y-82625500D01*
X129644938Y-82599910D01*
X129644940Y-82599908D01*
X129644942Y-82599908D01*
X129688906Y-82574525D01*
X129730562Y-82550475D01*
X129800475Y-82480562D01*
X129849910Y-82394938D01*
X129875500Y-82299435D01*
X129875500Y-82200565D01*
X129849910Y-82105062D01*
X129849908Y-82105059D01*
X129849908Y-82105057D01*
X129800476Y-82019440D01*
X129800475Y-82019438D01*
X129730562Y-81949525D01*
X129730559Y-81949523D01*
X129644941Y-81900091D01*
X129644943Y-81900091D01*
X129607885Y-81890161D01*
X129549435Y-81874500D01*
X129450565Y-81874500D01*
X129392114Y-81890161D01*
X129355057Y-81900091D01*
X129269440Y-81949523D01*
X129199523Y-82019440D01*
X129150091Y-82105057D01*
X129139405Y-82144938D01*
X129124500Y-82200565D01*
X127250500Y-82200565D01*
X127224910Y-82105062D01*
X127224908Y-82105059D01*
X127224908Y-82105057D01*
X127175476Y-82019440D01*
X127175475Y-82019438D01*
X127105562Y-81949525D01*
X127105559Y-81949523D01*
X127019941Y-81900091D01*
X127019943Y-81900091D01*
X126982885Y-81890161D01*
X126924435Y-81874500D01*
X126825565Y-81874500D01*
X126767114Y-81890161D01*
X126730057Y-81900091D01*
X126644440Y-81949523D01*
X126574523Y-82019440D01*
X126525091Y-82105057D01*
X126514405Y-82144938D01*
X126499500Y-82200565D01*
X122317794Y-82200565D01*
X122349910Y-82144938D01*
X122375500Y-82049435D01*
X122375500Y-81950565D01*
X122349910Y-81855062D01*
X122349908Y-81855059D01*
X122349908Y-81855057D01*
X122300476Y-81769440D01*
X122300475Y-81769438D01*
X122230562Y-81699525D01*
X122230559Y-81699523D01*
X122144941Y-81650091D01*
X122144943Y-81650091D01*
X122107885Y-81640161D01*
X122049435Y-81624500D01*
X121950565Y-81624500D01*
X121892114Y-81640161D01*
X121855057Y-81650091D01*
X121769440Y-81699523D01*
X121699523Y-81769440D01*
X121650091Y-81855057D01*
X121639405Y-81894938D01*
X121624500Y-81950565D01*
X118493498Y-81950565D01*
X118500500Y-81924435D01*
X118500500Y-81825565D01*
X118474910Y-81730062D01*
X118474908Y-81730059D01*
X118474908Y-81730057D01*
X118425476Y-81644440D01*
X118425475Y-81644438D01*
X118355562Y-81574525D01*
X118355559Y-81574523D01*
X118269941Y-81525091D01*
X118269943Y-81525091D01*
X118232885Y-81515161D01*
X118174435Y-81499500D01*
X118075565Y-81499500D01*
X118017114Y-81515161D01*
X117980057Y-81525091D01*
X117894440Y-81574523D01*
X117824523Y-81644440D01*
X117775091Y-81730057D01*
X117764539Y-81769438D01*
X117749500Y-81825565D01*
X105368498Y-81825565D01*
X105375500Y-81799435D01*
X105375500Y-81700565D01*
X105349910Y-81605062D01*
X105349908Y-81605059D01*
X105349908Y-81605057D01*
X105300476Y-81519440D01*
X105300475Y-81519438D01*
X105230562Y-81449525D01*
X105230559Y-81449523D01*
X105144941Y-81400091D01*
X105144943Y-81400091D01*
X105107885Y-81390161D01*
X105049435Y-81374500D01*
X104950565Y-81374500D01*
X104892114Y-81390161D01*
X104855057Y-81400091D01*
X104769440Y-81449523D01*
X104699523Y-81519440D01*
X104650091Y-81605057D01*
X104639539Y-81644438D01*
X104624500Y-81700565D01*
X100300000Y-81700565D01*
X100300000Y-79889774D01*
X100599500Y-79889774D01*
X100599500Y-80110225D01*
X100633984Y-80327948D01*
X100702102Y-80537599D01*
X100702104Y-80537602D01*
X100702105Y-80537606D01*
X100733850Y-80599908D01*
X100800164Y-80730057D01*
X100802185Y-80734022D01*
X100931758Y-80912365D01*
X101087635Y-81068242D01*
X101265978Y-81197815D01*
X101462394Y-81297895D01*
X101462399Y-81297896D01*
X101462400Y-81297897D01*
X101470338Y-81300476D01*
X101672049Y-81366015D01*
X101731935Y-81375500D01*
X101889775Y-81400500D01*
X101889778Y-81400500D01*
X102110225Y-81400500D01*
X102219086Y-81383257D01*
X102327951Y-81366015D01*
X102452445Y-81325565D01*
X122374500Y-81325565D01*
X122374500Y-81424435D01*
X122381223Y-81449525D01*
X122400091Y-81519942D01*
X122449233Y-81605057D01*
X122449525Y-81605562D01*
X122519438Y-81675475D01*
X122519440Y-81675476D01*
X122605058Y-81724908D01*
X122605056Y-81724908D01*
X122605060Y-81724909D01*
X122605062Y-81724910D01*
X122700565Y-81750500D01*
X122700567Y-81750500D01*
X122799433Y-81750500D01*
X122799435Y-81750500D01*
X122894938Y-81724910D01*
X122894940Y-81724908D01*
X122894942Y-81724908D01*
X122937103Y-81700566D01*
X122980562Y-81675475D01*
X123050475Y-81605562D01*
X123067794Y-81575565D01*
X136249500Y-81575565D01*
X136249500Y-81674435D01*
X136256223Y-81699525D01*
X136275091Y-81769942D01*
X136324233Y-81855057D01*
X136324525Y-81855562D01*
X136394438Y-81925475D01*
X136394440Y-81925476D01*
X136480058Y-81974908D01*
X136480056Y-81974908D01*
X136480060Y-81974909D01*
X136480062Y-81974910D01*
X136575565Y-82000500D01*
X136575567Y-82000500D01*
X136674433Y-82000500D01*
X136674435Y-82000500D01*
X136769938Y-81974910D01*
X136769940Y-81974908D01*
X136769942Y-81974908D01*
X136812103Y-81950566D01*
X136855562Y-81925475D01*
X136925475Y-81855562D01*
X136974910Y-81769938D01*
X137000500Y-81674435D01*
X137000500Y-81575565D01*
X136974910Y-81480062D01*
X136974908Y-81480059D01*
X136974908Y-81480057D01*
X136925476Y-81394440D01*
X136925475Y-81394438D01*
X136856602Y-81325565D01*
X139249500Y-81325565D01*
X139249500Y-81424435D01*
X139256223Y-81449525D01*
X139275091Y-81519942D01*
X139324233Y-81605057D01*
X139324525Y-81605562D01*
X139394438Y-81675475D01*
X139394440Y-81675476D01*
X139480058Y-81724908D01*
X139480056Y-81724908D01*
X139480060Y-81724909D01*
X139480062Y-81724910D01*
X139575565Y-81750500D01*
X139575567Y-81750500D01*
X139674433Y-81750500D01*
X139674435Y-81750500D01*
X139769938Y-81724910D01*
X139769940Y-81724908D01*
X139769942Y-81724908D01*
X139812103Y-81700566D01*
X139855562Y-81675475D01*
X139925475Y-81605562D01*
X139971935Y-81525091D01*
X139974908Y-81519942D01*
X139974908Y-81519940D01*
X139974910Y-81519938D01*
X140000500Y-81424435D01*
X140000500Y-81325565D01*
X139974910Y-81230062D01*
X139974908Y-81230059D01*
X139974908Y-81230057D01*
X139932818Y-81157157D01*
X139925475Y-81144438D01*
X139855562Y-81074525D01*
X139844680Y-81068242D01*
X139769941Y-81025091D01*
X139769943Y-81025091D01*
X139732885Y-81015161D01*
X139674435Y-80999500D01*
X139575565Y-80999500D01*
X139517114Y-81015161D01*
X139480057Y-81025091D01*
X139394440Y-81074523D01*
X139324523Y-81144440D01*
X139275091Y-81230057D01*
X139263025Y-81275090D01*
X139249500Y-81325565D01*
X136856602Y-81325565D01*
X136855562Y-81324525D01*
X136855559Y-81324523D01*
X136769941Y-81275091D01*
X136769943Y-81275091D01*
X136732885Y-81265161D01*
X136674435Y-81249500D01*
X136575565Y-81249500D01*
X136517114Y-81265161D01*
X136480057Y-81275091D01*
X136394440Y-81324523D01*
X136324523Y-81394440D01*
X136275091Y-81480057D01*
X136264539Y-81519438D01*
X136249500Y-81575565D01*
X123067794Y-81575565D01*
X123099910Y-81519938D01*
X123125500Y-81424435D01*
X123125500Y-81325565D01*
X123099910Y-81230062D01*
X123099908Y-81230059D01*
X123099908Y-81230057D01*
X123057818Y-81157157D01*
X123050475Y-81144438D01*
X122980562Y-81074525D01*
X122969680Y-81068242D01*
X122903118Y-81029812D01*
X122903117Y-81029812D01*
X122894940Y-81025091D01*
X122894939Y-81025090D01*
X122894938Y-81025090D01*
X122799435Y-80999500D01*
X122700565Y-80999500D01*
X122642114Y-81015161D01*
X122605057Y-81025091D01*
X122519440Y-81074523D01*
X122449523Y-81144440D01*
X122400091Y-81230057D01*
X122388025Y-81275090D01*
X122374500Y-81325565D01*
X102452445Y-81325565D01*
X102537606Y-81297895D01*
X102734022Y-81197815D01*
X102912365Y-81068242D01*
X103068242Y-80912365D01*
X103197815Y-80734022D01*
X103278554Y-80575565D01*
X113499500Y-80575565D01*
X113499500Y-80674435D01*
X113514539Y-80730562D01*
X113525091Y-80769942D01*
X113574233Y-80855057D01*
X113574525Y-80855562D01*
X113644438Y-80925475D01*
X113644440Y-80925476D01*
X113730058Y-80974908D01*
X113730056Y-80974908D01*
X113730060Y-80974909D01*
X113730062Y-80974910D01*
X113825565Y-81000500D01*
X113825567Y-81000500D01*
X113924433Y-81000500D01*
X113924435Y-81000500D01*
X114019938Y-80974910D01*
X114019940Y-80974908D01*
X114019942Y-80974908D01*
X114062103Y-80950566D01*
X114105562Y-80925475D01*
X114175475Y-80855562D01*
X114189764Y-80830813D01*
X114235233Y-80789872D01*
X114296083Y-80783476D01*
X114349071Y-80814069D01*
X114373958Y-80869965D01*
X114374500Y-80880313D01*
X114374500Y-80924435D01*
X114374779Y-80925475D01*
X114400091Y-81019942D01*
X114449523Y-81105559D01*
X114449525Y-81105562D01*
X114519438Y-81175475D01*
X114519440Y-81175476D01*
X114605058Y-81224908D01*
X114605056Y-81224908D01*
X114605060Y-81224909D01*
X114605062Y-81224910D01*
X114700565Y-81250500D01*
X114700567Y-81250500D01*
X114799433Y-81250500D01*
X114799435Y-81250500D01*
X114894938Y-81224910D01*
X114894940Y-81224908D01*
X114894942Y-81224908D01*
X114941868Y-81197815D01*
X114980562Y-81175475D01*
X115050475Y-81105562D01*
X115094209Y-81029812D01*
X115099908Y-81019942D01*
X115099908Y-81019940D01*
X115099910Y-81019938D01*
X115118498Y-80950565D01*
X131374500Y-80950565D01*
X131374500Y-81049435D01*
X131389539Y-81105562D01*
X131400091Y-81144942D01*
X131449233Y-81230057D01*
X131449525Y-81230562D01*
X131519438Y-81300475D01*
X131519440Y-81300476D01*
X131605058Y-81349908D01*
X131605056Y-81349908D01*
X131605060Y-81349909D01*
X131605062Y-81349910D01*
X131700565Y-81375500D01*
X131700567Y-81375500D01*
X131799433Y-81375500D01*
X131799435Y-81375500D01*
X131894938Y-81349910D01*
X131894940Y-81349908D01*
X131894942Y-81349908D01*
X131937103Y-81325566D01*
X131980562Y-81300475D01*
X132050475Y-81230562D01*
X132099910Y-81144938D01*
X132125500Y-81049435D01*
X132125500Y-80950565D01*
X132374500Y-80950565D01*
X132374500Y-81049435D01*
X132389539Y-81105562D01*
X132400091Y-81144942D01*
X132449233Y-81230057D01*
X132449525Y-81230562D01*
X132519438Y-81300475D01*
X132519440Y-81300476D01*
X132605058Y-81349908D01*
X132605056Y-81349908D01*
X132605060Y-81349909D01*
X132605062Y-81349910D01*
X132700565Y-81375500D01*
X132700567Y-81375500D01*
X132799433Y-81375500D01*
X132799435Y-81375500D01*
X132894938Y-81349910D01*
X132894940Y-81349908D01*
X132894942Y-81349908D01*
X132937103Y-81325566D01*
X132980562Y-81300475D01*
X133050475Y-81230562D01*
X133099910Y-81144938D01*
X133125500Y-81049435D01*
X133125500Y-80950565D01*
X133099910Y-80855062D01*
X133099908Y-80855059D01*
X133099908Y-80855057D01*
X133050476Y-80769440D01*
X133050475Y-80769438D01*
X132980562Y-80699525D01*
X132980559Y-80699523D01*
X132894941Y-80650091D01*
X132894943Y-80650091D01*
X132857885Y-80640161D01*
X132799435Y-80624500D01*
X132700565Y-80624500D01*
X132642114Y-80640161D01*
X132605057Y-80650091D01*
X132519440Y-80699523D01*
X132449523Y-80769440D01*
X132400091Y-80855057D01*
X132394051Y-80877599D01*
X132374500Y-80950565D01*
X132125500Y-80950565D01*
X132099910Y-80855062D01*
X132099908Y-80855059D01*
X132099908Y-80855057D01*
X132050476Y-80769440D01*
X132050475Y-80769438D01*
X131980562Y-80699525D01*
X131980559Y-80699523D01*
X131894941Y-80650091D01*
X131894943Y-80650091D01*
X131857885Y-80640161D01*
X131799435Y-80624500D01*
X131700565Y-80624500D01*
X131642114Y-80640161D01*
X131605057Y-80650091D01*
X131519440Y-80699523D01*
X131449523Y-80769440D01*
X131400091Y-80855057D01*
X131394051Y-80877599D01*
X131374500Y-80950565D01*
X115118498Y-80950565D01*
X115125500Y-80924435D01*
X115125500Y-80825565D01*
X115099910Y-80730062D01*
X115099908Y-80730059D01*
X115099908Y-80730057D01*
X115050476Y-80644440D01*
X115050475Y-80644438D01*
X114980562Y-80574525D01*
X114980559Y-80574523D01*
X114903118Y-80529812D01*
X114903117Y-80529812D01*
X114894940Y-80525091D01*
X114894939Y-80525090D01*
X114894938Y-80525090D01*
X114799435Y-80499500D01*
X114700565Y-80499500D01*
X114642114Y-80515161D01*
X114605057Y-80525091D01*
X114519440Y-80574523D01*
X114449524Y-80644439D01*
X114435236Y-80669187D01*
X114389766Y-80710128D01*
X114328915Y-80716522D01*
X114275928Y-80685929D01*
X114251042Y-80630033D01*
X114250500Y-80619686D01*
X114250500Y-80575566D01*
X114240569Y-80538503D01*
X114224910Y-80480062D01*
X114224908Y-80480059D01*
X114224908Y-80480057D01*
X114207880Y-80450565D01*
X120749500Y-80450565D01*
X120749500Y-80549435D01*
X120756223Y-80574525D01*
X120775091Y-80644942D01*
X120812727Y-80710128D01*
X120824525Y-80730562D01*
X120894438Y-80800475D01*
X120894440Y-80800476D01*
X120980058Y-80849908D01*
X120980056Y-80849908D01*
X120980060Y-80849909D01*
X120980062Y-80849910D01*
X121075565Y-80875500D01*
X121075567Y-80875500D01*
X121174433Y-80875500D01*
X121174435Y-80875500D01*
X121269938Y-80849910D01*
X121269940Y-80849908D01*
X121269942Y-80849908D01*
X121312103Y-80825566D01*
X121355562Y-80800475D01*
X121425475Y-80730562D01*
X121471935Y-80650091D01*
X121474908Y-80644942D01*
X121474908Y-80644940D01*
X121474910Y-80644938D01*
X121500500Y-80549435D01*
X121500500Y-80450565D01*
X121474910Y-80355062D01*
X121474908Y-80355059D01*
X121474908Y-80355057D01*
X121425476Y-80269440D01*
X121425475Y-80269438D01*
X121355562Y-80199525D01*
X121355559Y-80199523D01*
X121269941Y-80150091D01*
X121269943Y-80150091D01*
X121232885Y-80140161D01*
X121174435Y-80124500D01*
X121075565Y-80124500D01*
X121017114Y-80140161D01*
X120980057Y-80150091D01*
X120894440Y-80199523D01*
X120824523Y-80269440D01*
X120775091Y-80355057D01*
X120764539Y-80394438D01*
X120749500Y-80450565D01*
X114207880Y-80450565D01*
X114175476Y-80394440D01*
X114175475Y-80394438D01*
X114105562Y-80324525D01*
X114105559Y-80324523D01*
X114019941Y-80275091D01*
X114019943Y-80275091D01*
X113982885Y-80265161D01*
X113924435Y-80249500D01*
X113825565Y-80249500D01*
X113767114Y-80265161D01*
X113730057Y-80275091D01*
X113644440Y-80324523D01*
X113574523Y-80394440D01*
X113525091Y-80480057D01*
X113510783Y-80533453D01*
X113499500Y-80575565D01*
X103278554Y-80575565D01*
X103297895Y-80537606D01*
X103366015Y-80327951D01*
X103386356Y-80199523D01*
X103400500Y-80110225D01*
X103400500Y-79889774D01*
X103375282Y-79730559D01*
X103366015Y-79672049D01*
X103344250Y-79605062D01*
X103342498Y-79599668D01*
X103334666Y-79575565D01*
X114499500Y-79575565D01*
X114499500Y-79674435D01*
X114514539Y-79730562D01*
X114525091Y-79769942D01*
X114574233Y-79855057D01*
X114574525Y-79855562D01*
X114644438Y-79925475D01*
X114644440Y-79925476D01*
X114730058Y-79974908D01*
X114730056Y-79974908D01*
X114730060Y-79974909D01*
X114730062Y-79974910D01*
X114825565Y-80000500D01*
X114825567Y-80000500D01*
X114924433Y-80000500D01*
X114924435Y-80000500D01*
X115019938Y-79974910D01*
X115019940Y-79974908D01*
X115019942Y-79974908D01*
X115062103Y-79950566D01*
X115105562Y-79925475D01*
X115175475Y-79855562D01*
X115224910Y-79769938D01*
X115243498Y-79700565D01*
X117749500Y-79700565D01*
X117749500Y-79799435D01*
X117764539Y-79855562D01*
X117775091Y-79894942D01*
X117824523Y-79980559D01*
X117824525Y-79980562D01*
X117894438Y-80050475D01*
X117894440Y-80050476D01*
X117980058Y-80099908D01*
X117980056Y-80099908D01*
X117980060Y-80099909D01*
X117980062Y-80099910D01*
X118075565Y-80125500D01*
X118075567Y-80125500D01*
X118174433Y-80125500D01*
X118174435Y-80125500D01*
X118269938Y-80099910D01*
X118269940Y-80099908D01*
X118269942Y-80099908D01*
X118295377Y-80085222D01*
X118355562Y-80050475D01*
X118425475Y-79980562D01*
X118442794Y-79950565D01*
X129499500Y-79950565D01*
X129499500Y-80049435D01*
X129499779Y-80050475D01*
X129525091Y-80144942D01*
X129574523Y-80230559D01*
X129574525Y-80230562D01*
X129644438Y-80300475D01*
X129644440Y-80300476D01*
X129730058Y-80349908D01*
X129730056Y-80349908D01*
X129730060Y-80349909D01*
X129730062Y-80349910D01*
X129825565Y-80375500D01*
X129825567Y-80375500D01*
X129924433Y-80375500D01*
X129924435Y-80375500D01*
X130019938Y-80349910D01*
X130019940Y-80349908D01*
X130019942Y-80349908D01*
X130063906Y-80324525D01*
X130105562Y-80300475D01*
X130175475Y-80230562D01*
X130192794Y-80200565D01*
X141124500Y-80200565D01*
X141124500Y-80299435D01*
X141131223Y-80324525D01*
X141150091Y-80394942D01*
X141199233Y-80480057D01*
X141199525Y-80480562D01*
X141269438Y-80550475D01*
X141269440Y-80550476D01*
X141355058Y-80599908D01*
X141355056Y-80599908D01*
X141355060Y-80599909D01*
X141355062Y-80599910D01*
X141450565Y-80625500D01*
X141450567Y-80625500D01*
X141549433Y-80625500D01*
X141549435Y-80625500D01*
X141644938Y-80599910D01*
X141644940Y-80599908D01*
X141644942Y-80599908D01*
X141687103Y-80575566D01*
X141730562Y-80550475D01*
X141800475Y-80480562D01*
X141849910Y-80394938D01*
X141875500Y-80299435D01*
X141875500Y-80200565D01*
X141849910Y-80105062D01*
X141849908Y-80105059D01*
X141849908Y-80105057D01*
X141800476Y-80019440D01*
X141800475Y-80019438D01*
X141730562Y-79949525D01*
X141730559Y-79949523D01*
X141644941Y-79900091D01*
X141644943Y-79900091D01*
X141606438Y-79889774D01*
X141549435Y-79874500D01*
X141450565Y-79874500D01*
X141393562Y-79889774D01*
X141355057Y-79900091D01*
X141269440Y-79949523D01*
X141199523Y-80019440D01*
X141150091Y-80105057D01*
X141139405Y-80144938D01*
X141124500Y-80200565D01*
X130192794Y-80200565D01*
X130221935Y-80150091D01*
X130224908Y-80144942D01*
X130224908Y-80144940D01*
X130224910Y-80144938D01*
X130250500Y-80049435D01*
X130250500Y-79950565D01*
X130224910Y-79855062D01*
X130224908Y-79855059D01*
X130224908Y-79855057D01*
X130175476Y-79769440D01*
X130175475Y-79769438D01*
X130105562Y-79699525D01*
X130105559Y-79699523D01*
X130019941Y-79650091D01*
X130019943Y-79650091D01*
X129982885Y-79640161D01*
X129924435Y-79624500D01*
X129825565Y-79624500D01*
X129767114Y-79640161D01*
X129730057Y-79650091D01*
X129644440Y-79699523D01*
X129574523Y-79769440D01*
X129525091Y-79855057D01*
X129515789Y-79889774D01*
X129499500Y-79950565D01*
X118442794Y-79950565D01*
X118474910Y-79894938D01*
X118500500Y-79799435D01*
X118500500Y-79700565D01*
X118474910Y-79605062D01*
X118474908Y-79605059D01*
X118474908Y-79605057D01*
X118425476Y-79519440D01*
X118425475Y-79519438D01*
X118355562Y-79449525D01*
X118355559Y-79449523D01*
X118269941Y-79400091D01*
X118269943Y-79400091D01*
X118232885Y-79390161D01*
X118174435Y-79374500D01*
X118075565Y-79374500D01*
X118017114Y-79390161D01*
X117980057Y-79400091D01*
X117894440Y-79449523D01*
X117824523Y-79519440D01*
X117775091Y-79605057D01*
X117764405Y-79644938D01*
X117749500Y-79700565D01*
X115243498Y-79700565D01*
X115250500Y-79674435D01*
X115250500Y-79575565D01*
X115224910Y-79480062D01*
X115224908Y-79480059D01*
X115224908Y-79480057D01*
X115182818Y-79407157D01*
X115175475Y-79394438D01*
X115105562Y-79324525D01*
X115105559Y-79324523D01*
X115028118Y-79279812D01*
X115028117Y-79279812D01*
X115019940Y-79275091D01*
X115019939Y-79275090D01*
X115019938Y-79275090D01*
X114924435Y-79249500D01*
X114825565Y-79249500D01*
X114767114Y-79265161D01*
X114730057Y-79275091D01*
X114644440Y-79324523D01*
X114574523Y-79394440D01*
X114525091Y-79480057D01*
X114524956Y-79480562D01*
X114499500Y-79575565D01*
X103334666Y-79575565D01*
X103303797Y-79480559D01*
X103297895Y-79462394D01*
X103197815Y-79265978D01*
X103150290Y-79200565D01*
X123499500Y-79200565D01*
X123499500Y-79299435D01*
X123514404Y-79355057D01*
X123525091Y-79394942D01*
X123564038Y-79462398D01*
X123574525Y-79480562D01*
X123644438Y-79550475D01*
X123644440Y-79550476D01*
X123730058Y-79599908D01*
X123730056Y-79599908D01*
X123730060Y-79599909D01*
X123730062Y-79599910D01*
X123825565Y-79625500D01*
X123825567Y-79625500D01*
X123924433Y-79625500D01*
X123924435Y-79625500D01*
X124019938Y-79599910D01*
X124019940Y-79599908D01*
X124019942Y-79599908D01*
X124062103Y-79575566D01*
X124105562Y-79550475D01*
X124175475Y-79480562D01*
X124221935Y-79400091D01*
X124224908Y-79394942D01*
X124224908Y-79394940D01*
X124224910Y-79394938D01*
X124250500Y-79299435D01*
X124250500Y-79200565D01*
X125124500Y-79200565D01*
X125124500Y-79299435D01*
X125139404Y-79355057D01*
X125150091Y-79394942D01*
X125189038Y-79462398D01*
X125199525Y-79480562D01*
X125269438Y-79550475D01*
X125269440Y-79550476D01*
X125355058Y-79599908D01*
X125355056Y-79599908D01*
X125355060Y-79599909D01*
X125355062Y-79599910D01*
X125450565Y-79625500D01*
X125450567Y-79625500D01*
X125549433Y-79625500D01*
X125549435Y-79625500D01*
X125644938Y-79599910D01*
X125644940Y-79599908D01*
X125644942Y-79599908D01*
X125687103Y-79575566D01*
X125730562Y-79550475D01*
X125800475Y-79480562D01*
X125817794Y-79450565D01*
X131999500Y-79450565D01*
X131999500Y-79549435D01*
X131999779Y-79550475D01*
X132025091Y-79644942D01*
X132074523Y-79730559D01*
X132074525Y-79730562D01*
X132144438Y-79800475D01*
X132144440Y-79800476D01*
X132230058Y-79849908D01*
X132230056Y-79849908D01*
X132230060Y-79849909D01*
X132230062Y-79849910D01*
X132325565Y-79875500D01*
X132325567Y-79875500D01*
X132424433Y-79875500D01*
X132424435Y-79875500D01*
X132519938Y-79849910D01*
X132519940Y-79849908D01*
X132519942Y-79849908D01*
X132545377Y-79835222D01*
X132605562Y-79800475D01*
X132675475Y-79730562D01*
X132692794Y-79700565D01*
X139749500Y-79700565D01*
X139749500Y-79799435D01*
X139764539Y-79855562D01*
X139775091Y-79894942D01*
X139824523Y-79980559D01*
X139824525Y-79980562D01*
X139894438Y-80050475D01*
X139894440Y-80050476D01*
X139980058Y-80099908D01*
X139980056Y-80099908D01*
X139980060Y-80099909D01*
X139980062Y-80099910D01*
X140075565Y-80125500D01*
X140075567Y-80125500D01*
X140174433Y-80125500D01*
X140174435Y-80125500D01*
X140269938Y-80099910D01*
X140269940Y-80099908D01*
X140269942Y-80099908D01*
X140295377Y-80085222D01*
X140355562Y-80050475D01*
X140425475Y-79980562D01*
X140471935Y-79900091D01*
X140474908Y-79894942D01*
X140474908Y-79894940D01*
X140474910Y-79894938D01*
X140500500Y-79799435D01*
X140500500Y-79700565D01*
X140474910Y-79605062D01*
X140474908Y-79605059D01*
X140474908Y-79605057D01*
X140425476Y-79519440D01*
X140425475Y-79519438D01*
X140355562Y-79449525D01*
X140355559Y-79449523D01*
X140269941Y-79400091D01*
X140269943Y-79400091D01*
X140232885Y-79390161D01*
X140174435Y-79374500D01*
X140075565Y-79374500D01*
X140017114Y-79390161D01*
X139980057Y-79400091D01*
X139894440Y-79449523D01*
X139824523Y-79519440D01*
X139775091Y-79605057D01*
X139764405Y-79644938D01*
X139749500Y-79700565D01*
X132692794Y-79700565D01*
X132721935Y-79650091D01*
X132724908Y-79644942D01*
X132724908Y-79644940D01*
X132724910Y-79644938D01*
X132750500Y-79549435D01*
X132750500Y-79450565D01*
X132724910Y-79355062D01*
X132724908Y-79355059D01*
X132724908Y-79355057D01*
X132675476Y-79269440D01*
X132675475Y-79269438D01*
X132606602Y-79200565D01*
X133249500Y-79200565D01*
X133249500Y-79299435D01*
X133264404Y-79355057D01*
X133275091Y-79394942D01*
X133314038Y-79462398D01*
X133324525Y-79480562D01*
X133394438Y-79550475D01*
X133394440Y-79550476D01*
X133480058Y-79599908D01*
X133480056Y-79599908D01*
X133480060Y-79599909D01*
X133480062Y-79599910D01*
X133575565Y-79625500D01*
X133575567Y-79625500D01*
X133674433Y-79625500D01*
X133674435Y-79625500D01*
X133769938Y-79599910D01*
X133769940Y-79599908D01*
X133769942Y-79599908D01*
X133812103Y-79575566D01*
X133855562Y-79550475D01*
X133925475Y-79480562D01*
X133971935Y-79400091D01*
X133974908Y-79394942D01*
X133974908Y-79394940D01*
X133974910Y-79394938D01*
X134000500Y-79299435D01*
X134000500Y-79200565D01*
X133974910Y-79105062D01*
X133974908Y-79105059D01*
X133974908Y-79105057D01*
X133925476Y-79019440D01*
X133925475Y-79019438D01*
X133855562Y-78949525D01*
X133850851Y-78946805D01*
X133769941Y-78900091D01*
X133769943Y-78900091D01*
X133732885Y-78890161D01*
X133674435Y-78874500D01*
X133575565Y-78874500D01*
X133517114Y-78890161D01*
X133480057Y-78900091D01*
X133394440Y-78949523D01*
X133324523Y-79019440D01*
X133275091Y-79105057D01*
X133263025Y-79150090D01*
X133249500Y-79200565D01*
X132606602Y-79200565D01*
X132605562Y-79199525D01*
X132605559Y-79199523D01*
X132519941Y-79150091D01*
X132519943Y-79150091D01*
X132482885Y-79140161D01*
X132424435Y-79124500D01*
X132325565Y-79124500D01*
X132267114Y-79140161D01*
X132230057Y-79150091D01*
X132144440Y-79199523D01*
X132074523Y-79269440D01*
X132025091Y-79355057D01*
X132014539Y-79394438D01*
X131999500Y-79450565D01*
X125817794Y-79450565D01*
X125849910Y-79394938D01*
X125875500Y-79299435D01*
X125875500Y-79200565D01*
X125849910Y-79105062D01*
X125849908Y-79105059D01*
X125849908Y-79105057D01*
X125800476Y-79019440D01*
X125800475Y-79019438D01*
X125730562Y-78949525D01*
X125725851Y-78946805D01*
X125644941Y-78900091D01*
X125644943Y-78900091D01*
X125607885Y-78890161D01*
X125549435Y-78874500D01*
X125450565Y-78874500D01*
X125392114Y-78890161D01*
X125355057Y-78900091D01*
X125269440Y-78949523D01*
X125199523Y-79019440D01*
X125150091Y-79105057D01*
X125138025Y-79150090D01*
X125124500Y-79200565D01*
X124250500Y-79200565D01*
X124224910Y-79105062D01*
X124224908Y-79105059D01*
X124224908Y-79105057D01*
X124175476Y-79019440D01*
X124175475Y-79019438D01*
X124105562Y-78949525D01*
X124100851Y-78946805D01*
X124019941Y-78900091D01*
X124019943Y-78900091D01*
X123982885Y-78890161D01*
X123924435Y-78874500D01*
X123825565Y-78874500D01*
X123767114Y-78890161D01*
X123730057Y-78900091D01*
X123644440Y-78949523D01*
X123574523Y-79019440D01*
X123525091Y-79105057D01*
X123513025Y-79150090D01*
X123499500Y-79200565D01*
X103150290Y-79200565D01*
X103068242Y-79087635D01*
X102912365Y-78931758D01*
X102734022Y-78802185D01*
X102734021Y-78802184D01*
X102734019Y-78802183D01*
X102593455Y-78730562D01*
X102537606Y-78702105D01*
X102537602Y-78702104D01*
X102537599Y-78702102D01*
X102327948Y-78633984D01*
X102110225Y-78599500D01*
X102110222Y-78599500D01*
X101889778Y-78599500D01*
X101889775Y-78599500D01*
X101672051Y-78633984D01*
X101462400Y-78702102D01*
X101265980Y-78802183D01*
X101192510Y-78855562D01*
X101087635Y-78931758D01*
X100931758Y-79087635D01*
X100904974Y-79124500D01*
X100802183Y-79265980D01*
X100702102Y-79462400D01*
X100633984Y-79672051D01*
X100599500Y-79889774D01*
X100300000Y-79889774D01*
X100300000Y-78450565D01*
X140249500Y-78450565D01*
X140249500Y-78549435D01*
X140256502Y-78575565D01*
X140275091Y-78644942D01*
X140308095Y-78702105D01*
X140324525Y-78730562D01*
X140394438Y-78800475D01*
X140397400Y-78802185D01*
X140480058Y-78849908D01*
X140480056Y-78849908D01*
X140480060Y-78849909D01*
X140480062Y-78849910D01*
X140575565Y-78875500D01*
X140575567Y-78875500D01*
X140674433Y-78875500D01*
X140674435Y-78875500D01*
X140769938Y-78849910D01*
X140769940Y-78849908D01*
X140769942Y-78849908D01*
X140795377Y-78835222D01*
X140855562Y-78800475D01*
X140925475Y-78730562D01*
X140974910Y-78644938D01*
X140993498Y-78575565D01*
X141249500Y-78575565D01*
X141249500Y-78674435D01*
X141264539Y-78730562D01*
X141275091Y-78769942D01*
X141323620Y-78853995D01*
X141324525Y-78855562D01*
X141394438Y-78925475D01*
X141405324Y-78931760D01*
X141480058Y-78974908D01*
X141480056Y-78974908D01*
X141480060Y-78974909D01*
X141480062Y-78974910D01*
X141575565Y-79000500D01*
X141575567Y-79000500D01*
X141674433Y-79000500D01*
X141674435Y-79000500D01*
X141769938Y-78974910D01*
X141769940Y-78974908D01*
X141769942Y-78974908D01*
X141813906Y-78949525D01*
X141855562Y-78925475D01*
X141925475Y-78855562D01*
X141960222Y-78795377D01*
X141974908Y-78769942D01*
X141974908Y-78769940D01*
X141974910Y-78769938D01*
X142000500Y-78674435D01*
X142000500Y-78575565D01*
X141974910Y-78480062D01*
X141974908Y-78480059D01*
X141974908Y-78480057D01*
X141925476Y-78394440D01*
X141925475Y-78394438D01*
X141855562Y-78324525D01*
X141855559Y-78324523D01*
X141769941Y-78275091D01*
X141769943Y-78275091D01*
X141732885Y-78265161D01*
X141674435Y-78249500D01*
X141575565Y-78249500D01*
X141517114Y-78265161D01*
X141480057Y-78275091D01*
X141394440Y-78324523D01*
X141324523Y-78394440D01*
X141275091Y-78480057D01*
X141275090Y-78480062D01*
X141249500Y-78575565D01*
X140993498Y-78575565D01*
X141000500Y-78549435D01*
X141000500Y-78450565D01*
X140974910Y-78355062D01*
X140974908Y-78355059D01*
X140974908Y-78355057D01*
X140925476Y-78269440D01*
X140925475Y-78269438D01*
X140855562Y-78199525D01*
X140855559Y-78199523D01*
X140769941Y-78150091D01*
X140769943Y-78150091D01*
X140732885Y-78140161D01*
X140674435Y-78124500D01*
X140575565Y-78124500D01*
X140517114Y-78140161D01*
X140480057Y-78150091D01*
X140394440Y-78199523D01*
X140324523Y-78269440D01*
X140275091Y-78355057D01*
X140264539Y-78394438D01*
X140249500Y-78450565D01*
X100300000Y-78450565D01*
X100300000Y-77450565D01*
X109374500Y-77450565D01*
X109374500Y-77549435D01*
X109389539Y-77605562D01*
X109400091Y-77644942D01*
X109449233Y-77730057D01*
X109449525Y-77730562D01*
X109519438Y-77800475D01*
X109519440Y-77800476D01*
X109605058Y-77849908D01*
X109605056Y-77849908D01*
X109605060Y-77849909D01*
X109605062Y-77849910D01*
X109700565Y-77875500D01*
X109700567Y-77875500D01*
X109799433Y-77875500D01*
X109799435Y-77875500D01*
X109894938Y-77849910D01*
X109894940Y-77849908D01*
X109894942Y-77849908D01*
X109937103Y-77825566D01*
X109980562Y-77800475D01*
X110050475Y-77730562D01*
X110067794Y-77700565D01*
X113249500Y-77700565D01*
X113249500Y-77799435D01*
X113264539Y-77855562D01*
X113275091Y-77894942D01*
X113324523Y-77980559D01*
X113324525Y-77980562D01*
X113394438Y-78050475D01*
X113394440Y-78050476D01*
X113480058Y-78099908D01*
X113480056Y-78099908D01*
X113480060Y-78099909D01*
X113480062Y-78099910D01*
X113575565Y-78125500D01*
X113575567Y-78125500D01*
X113674433Y-78125500D01*
X113674435Y-78125500D01*
X113769938Y-78099910D01*
X113769940Y-78099908D01*
X113769942Y-78099908D01*
X113795377Y-78085222D01*
X113855562Y-78050475D01*
X113925475Y-77980562D01*
X113974910Y-77894938D01*
X114000500Y-77799435D01*
X114000500Y-77700565D01*
X113974910Y-77605062D01*
X113957880Y-77575566D01*
X113957879Y-77575565D01*
X118499500Y-77575565D01*
X118499500Y-77674435D01*
X118514539Y-77730560D01*
X118525091Y-77769942D01*
X118574236Y-77855062D01*
X118574525Y-77855562D01*
X118644438Y-77925475D01*
X118644440Y-77925476D01*
X118730058Y-77974908D01*
X118730056Y-77974908D01*
X118730060Y-77974909D01*
X118730062Y-77974910D01*
X118825565Y-78000500D01*
X118825567Y-78000500D01*
X118924433Y-78000500D01*
X118924435Y-78000500D01*
X119019938Y-77974910D01*
X119019940Y-77974908D01*
X119019942Y-77974908D01*
X119062103Y-77950566D01*
X119062105Y-77950565D01*
X124249500Y-77950565D01*
X124249500Y-78049435D01*
X124264539Y-78105562D01*
X124275091Y-78144942D01*
X124324523Y-78230559D01*
X124324525Y-78230562D01*
X124394438Y-78300475D01*
X124394440Y-78300476D01*
X124480058Y-78349908D01*
X124480056Y-78349908D01*
X124480060Y-78349909D01*
X124480062Y-78349910D01*
X124575565Y-78375500D01*
X124575567Y-78375500D01*
X124674433Y-78375500D01*
X124674435Y-78375500D01*
X124769938Y-78349910D01*
X124769940Y-78349908D01*
X124769942Y-78349908D01*
X124813906Y-78324525D01*
X124855562Y-78300475D01*
X124925475Y-78230562D01*
X124971935Y-78150091D01*
X124974908Y-78144942D01*
X124974908Y-78144940D01*
X124974910Y-78144938D01*
X125000500Y-78049435D01*
X125000500Y-77950565D01*
X124974910Y-77855062D01*
X124971935Y-77849910D01*
X124957880Y-77825565D01*
X126499500Y-77825565D01*
X126499500Y-77924435D01*
X126514539Y-77980560D01*
X126525091Y-78019942D01*
X126574523Y-78105559D01*
X126574525Y-78105562D01*
X126644438Y-78175475D01*
X126644440Y-78175476D01*
X126730058Y-78224908D01*
X126730056Y-78224908D01*
X126730060Y-78224909D01*
X126730062Y-78224910D01*
X126825565Y-78250500D01*
X126825567Y-78250500D01*
X126924433Y-78250500D01*
X126924435Y-78250500D01*
X127019938Y-78224910D01*
X127019940Y-78224908D01*
X127019942Y-78224908D01*
X127063906Y-78199525D01*
X127105562Y-78175475D01*
X127175475Y-78105562D01*
X127224910Y-78019938D01*
X127243498Y-77950565D01*
X130499500Y-77950565D01*
X130499500Y-78049435D01*
X130514539Y-78105562D01*
X130525091Y-78144942D01*
X130574523Y-78230559D01*
X130574525Y-78230562D01*
X130644438Y-78300475D01*
X130644440Y-78300476D01*
X130730058Y-78349908D01*
X130730056Y-78349908D01*
X130730060Y-78349909D01*
X130730062Y-78349910D01*
X130825565Y-78375500D01*
X130825567Y-78375500D01*
X130924433Y-78375500D01*
X130924435Y-78375500D01*
X131019938Y-78349910D01*
X131019940Y-78349908D01*
X131019942Y-78349908D01*
X131063906Y-78324525D01*
X131105562Y-78300475D01*
X131175475Y-78230562D01*
X131221935Y-78150091D01*
X131224908Y-78144942D01*
X131224908Y-78144940D01*
X131224910Y-78144938D01*
X131250500Y-78049435D01*
X131250500Y-77950565D01*
X131224910Y-77855062D01*
X131224908Y-77855059D01*
X131224908Y-77855057D01*
X131175476Y-77769440D01*
X131175475Y-77769438D01*
X131105562Y-77699525D01*
X131105559Y-77699523D01*
X131028118Y-77654812D01*
X131028117Y-77654812D01*
X131019940Y-77650091D01*
X131019939Y-77650090D01*
X131019938Y-77650090D01*
X130924435Y-77624500D01*
X130825565Y-77624500D01*
X130767114Y-77640161D01*
X130730057Y-77650091D01*
X130644440Y-77699523D01*
X130574523Y-77769440D01*
X130525091Y-77855057D01*
X130518449Y-77879845D01*
X130499500Y-77950565D01*
X127243498Y-77950565D01*
X127250500Y-77924435D01*
X127250500Y-77825565D01*
X127224910Y-77730062D01*
X127224908Y-77730059D01*
X127224908Y-77730057D01*
X127175476Y-77644440D01*
X127175475Y-77644438D01*
X127106602Y-77575565D01*
X134374500Y-77575565D01*
X134374500Y-77674435D01*
X134389539Y-77730560D01*
X134400091Y-77769942D01*
X134449236Y-77855062D01*
X134449525Y-77855562D01*
X134519438Y-77925475D01*
X134519440Y-77925476D01*
X134605058Y-77974908D01*
X134605056Y-77974908D01*
X134605060Y-77974909D01*
X134605062Y-77974910D01*
X134700565Y-78000500D01*
X134700567Y-78000500D01*
X134799433Y-78000500D01*
X134799435Y-78000500D01*
X134894938Y-77974910D01*
X134894940Y-77974908D01*
X134894942Y-77974908D01*
X134937105Y-77950565D01*
X134980562Y-77925475D01*
X135007985Y-77898051D01*
X135062499Y-77870274D01*
X135122932Y-77879845D01*
X135163724Y-77918554D01*
X135167721Y-77925476D01*
X135199525Y-77980562D01*
X135269438Y-78050475D01*
X135269440Y-78050476D01*
X135355058Y-78099908D01*
X135355056Y-78099908D01*
X135355060Y-78099909D01*
X135355062Y-78099910D01*
X135450565Y-78125500D01*
X135450567Y-78125500D01*
X135549433Y-78125500D01*
X135549435Y-78125500D01*
X135644938Y-78099910D01*
X135644940Y-78099908D01*
X135644942Y-78099908D01*
X135670377Y-78085222D01*
X135730562Y-78050475D01*
X135800475Y-77980562D01*
X135817794Y-77950565D01*
X139374500Y-77950565D01*
X139374500Y-78049435D01*
X139389539Y-78105562D01*
X139400091Y-78144942D01*
X139449523Y-78230559D01*
X139449525Y-78230562D01*
X139519438Y-78300475D01*
X139519440Y-78300476D01*
X139605058Y-78349908D01*
X139605056Y-78349908D01*
X139605060Y-78349909D01*
X139605062Y-78349910D01*
X139700565Y-78375500D01*
X139700567Y-78375500D01*
X139799433Y-78375500D01*
X139799435Y-78375500D01*
X139894938Y-78349910D01*
X139894940Y-78349908D01*
X139894942Y-78349908D01*
X139938906Y-78324525D01*
X139980562Y-78300475D01*
X140050475Y-78230562D01*
X140096935Y-78150091D01*
X140099908Y-78144942D01*
X140099908Y-78144940D01*
X140099910Y-78144938D01*
X140125500Y-78049435D01*
X140125500Y-77950565D01*
X140099910Y-77855062D01*
X140099908Y-77855059D01*
X140099908Y-77855057D01*
X140050476Y-77769440D01*
X140050475Y-77769438D01*
X139981602Y-77700565D01*
X141749500Y-77700565D01*
X141749500Y-77799435D01*
X141764539Y-77855562D01*
X141775091Y-77894942D01*
X141824523Y-77980559D01*
X141824525Y-77980562D01*
X141894438Y-78050475D01*
X141894440Y-78050476D01*
X141980058Y-78099908D01*
X141980056Y-78099908D01*
X141980060Y-78099909D01*
X141980062Y-78099910D01*
X142075565Y-78125500D01*
X142075567Y-78125500D01*
X142174433Y-78125500D01*
X142174435Y-78125500D01*
X142269938Y-78099910D01*
X142269940Y-78099908D01*
X142269942Y-78099908D01*
X142295377Y-78085222D01*
X142355562Y-78050475D01*
X142425475Y-77980562D01*
X142474910Y-77894938D01*
X142500500Y-77799435D01*
X142500500Y-77700565D01*
X142474910Y-77605062D01*
X142474908Y-77605059D01*
X142474908Y-77605057D01*
X142425476Y-77519440D01*
X142425475Y-77519438D01*
X142355562Y-77449525D01*
X142355559Y-77449523D01*
X142269941Y-77400091D01*
X142269943Y-77400091D01*
X142228046Y-77388865D01*
X142174435Y-77374500D01*
X142075565Y-77374500D01*
X142021954Y-77388865D01*
X141980057Y-77400091D01*
X141894440Y-77449523D01*
X141824523Y-77519440D01*
X141775091Y-77605057D01*
X141760783Y-77658453D01*
X141749500Y-77700565D01*
X139981602Y-77700565D01*
X139980562Y-77699525D01*
X139980559Y-77699523D01*
X139894941Y-77650091D01*
X139894943Y-77650091D01*
X139857885Y-77640161D01*
X139799435Y-77624500D01*
X139700565Y-77624500D01*
X139642114Y-77640161D01*
X139605057Y-77650091D01*
X139519440Y-77699523D01*
X139449523Y-77769440D01*
X139400091Y-77855057D01*
X139393449Y-77879845D01*
X139374500Y-77950565D01*
X135817794Y-77950565D01*
X135849910Y-77894938D01*
X135875500Y-77799435D01*
X135875500Y-77700565D01*
X135849910Y-77605062D01*
X135849908Y-77605059D01*
X135849908Y-77605057D01*
X135800476Y-77519440D01*
X135800475Y-77519438D01*
X135730562Y-77449525D01*
X135730559Y-77449523D01*
X135644941Y-77400091D01*
X135644943Y-77400091D01*
X135603046Y-77388865D01*
X135549435Y-77374500D01*
X135450565Y-77374500D01*
X135396954Y-77388865D01*
X135355057Y-77400091D01*
X135269438Y-77449524D01*
X135242013Y-77476949D01*
X135187496Y-77504725D01*
X135127065Y-77495153D01*
X135086275Y-77456445D01*
X135067794Y-77424435D01*
X135050475Y-77394438D01*
X134980562Y-77324525D01*
X134980559Y-77324523D01*
X134894941Y-77275091D01*
X134894943Y-77275091D01*
X134857885Y-77265161D01*
X134799435Y-77249500D01*
X134700565Y-77249500D01*
X134642114Y-77265161D01*
X134605057Y-77275091D01*
X134519440Y-77324523D01*
X134449523Y-77394440D01*
X134400091Y-77480057D01*
X134389539Y-77519438D01*
X134374500Y-77575565D01*
X127106602Y-77575565D01*
X127105562Y-77574525D01*
X127105559Y-77574523D01*
X127019941Y-77525091D01*
X127019943Y-77525091D01*
X126982885Y-77515161D01*
X126924435Y-77499500D01*
X126825565Y-77499500D01*
X126767114Y-77515161D01*
X126730057Y-77525091D01*
X126644440Y-77574523D01*
X126574523Y-77644440D01*
X126525091Y-77730057D01*
X126514539Y-77769438D01*
X126499500Y-77825565D01*
X124957880Y-77825565D01*
X124925476Y-77769440D01*
X124925475Y-77769438D01*
X124855562Y-77699525D01*
X124855559Y-77699523D01*
X124769941Y-77650091D01*
X124769943Y-77650091D01*
X124732885Y-77640161D01*
X124674435Y-77624500D01*
X124575565Y-77624500D01*
X124517114Y-77640161D01*
X124480057Y-77650091D01*
X124394440Y-77699523D01*
X124324523Y-77769440D01*
X124275091Y-77855057D01*
X124268449Y-77879845D01*
X124249500Y-77950565D01*
X119062105Y-77950565D01*
X119105562Y-77925475D01*
X119175475Y-77855562D01*
X119224910Y-77769938D01*
X119250500Y-77674435D01*
X119250500Y-77575565D01*
X119224910Y-77480062D01*
X119224908Y-77480059D01*
X119224908Y-77480057D01*
X119175476Y-77394440D01*
X119175475Y-77394438D01*
X119106602Y-77325565D01*
X120999500Y-77325565D01*
X120999500Y-77424435D01*
X121006223Y-77449524D01*
X121025091Y-77519942D01*
X121074236Y-77605062D01*
X121074525Y-77605562D01*
X121144438Y-77675475D01*
X121144440Y-77675476D01*
X121230058Y-77724908D01*
X121230056Y-77724908D01*
X121230060Y-77724909D01*
X121230062Y-77724910D01*
X121325565Y-77750500D01*
X121325567Y-77750500D01*
X121424433Y-77750500D01*
X121424435Y-77750500D01*
X121519938Y-77724910D01*
X121519940Y-77724908D01*
X121519942Y-77724908D01*
X121562103Y-77700566D01*
X121605562Y-77675475D01*
X121675475Y-77605562D01*
X121721935Y-77525091D01*
X121724908Y-77519942D01*
X121724908Y-77519940D01*
X121724910Y-77519938D01*
X121750500Y-77424435D01*
X121750500Y-77325565D01*
X121724910Y-77230062D01*
X121724908Y-77230059D01*
X121724908Y-77230057D01*
X121675476Y-77144440D01*
X121675475Y-77144438D01*
X121605562Y-77074525D01*
X121605559Y-77074523D01*
X121519941Y-77025091D01*
X121519943Y-77025091D01*
X121482885Y-77015161D01*
X121424435Y-76999500D01*
X121325565Y-76999500D01*
X121267114Y-77015161D01*
X121230057Y-77025091D01*
X121144440Y-77074523D01*
X121074523Y-77144440D01*
X121025091Y-77230057D01*
X121014539Y-77269438D01*
X120999500Y-77325565D01*
X119106602Y-77325565D01*
X119105562Y-77324525D01*
X119105559Y-77324523D01*
X119019941Y-77275091D01*
X119019943Y-77275091D01*
X118982885Y-77265161D01*
X118924435Y-77249500D01*
X118825565Y-77249500D01*
X118767114Y-77265161D01*
X118730057Y-77275091D01*
X118644440Y-77324523D01*
X118574523Y-77394440D01*
X118525091Y-77480057D01*
X118514539Y-77519438D01*
X118499500Y-77575565D01*
X113957879Y-77575565D01*
X113925476Y-77519440D01*
X113925475Y-77519438D01*
X113855562Y-77449525D01*
X113855559Y-77449523D01*
X113769941Y-77400091D01*
X113769943Y-77400091D01*
X113728046Y-77388865D01*
X113674435Y-77374500D01*
X113575565Y-77374500D01*
X113521954Y-77388865D01*
X113480057Y-77400091D01*
X113394440Y-77449523D01*
X113324523Y-77519440D01*
X113275091Y-77605057D01*
X113260783Y-77658453D01*
X113249500Y-77700565D01*
X110067794Y-77700565D01*
X110099910Y-77644938D01*
X110125500Y-77549435D01*
X110125500Y-77450565D01*
X110099910Y-77355062D01*
X110099908Y-77355059D01*
X110099908Y-77355057D01*
X110050476Y-77269440D01*
X110050475Y-77269438D01*
X109980562Y-77199525D01*
X109980559Y-77199523D01*
X109894941Y-77150091D01*
X109894943Y-77150091D01*
X109857885Y-77140161D01*
X109799435Y-77124500D01*
X109700565Y-77124500D01*
X109642114Y-77140161D01*
X109605057Y-77150091D01*
X109519440Y-77199523D01*
X109449523Y-77269440D01*
X109400091Y-77355057D01*
X109391032Y-77388865D01*
X109374500Y-77450565D01*
X100300000Y-77450565D01*
X100300000Y-74780253D01*
X100599500Y-74780253D01*
X100599500Y-77219746D01*
X100599501Y-77219758D01*
X100611132Y-77278227D01*
X100611134Y-77278233D01*
X100655445Y-77344548D01*
X100655448Y-77344552D01*
X100721769Y-77388867D01*
X100766231Y-77397711D01*
X100780241Y-77400498D01*
X100780246Y-77400498D01*
X100780252Y-77400500D01*
X100780253Y-77400500D01*
X103219747Y-77400500D01*
X103219748Y-77400500D01*
X103278231Y-77388867D01*
X103344552Y-77344552D01*
X103388867Y-77278231D01*
X103400500Y-77219748D01*
X103400500Y-76700565D01*
X112124500Y-76700565D01*
X112124500Y-76799435D01*
X112124779Y-76800475D01*
X112150091Y-76894942D01*
X112199523Y-76980559D01*
X112199525Y-76980562D01*
X112269438Y-77050475D01*
X112269440Y-77050476D01*
X112355058Y-77099908D01*
X112355056Y-77099908D01*
X112355060Y-77099909D01*
X112355062Y-77099910D01*
X112450565Y-77125500D01*
X112450567Y-77125500D01*
X112549433Y-77125500D01*
X112549435Y-77125500D01*
X112644938Y-77099910D01*
X112644940Y-77099908D01*
X112644942Y-77099908D01*
X112688906Y-77074525D01*
X112730562Y-77050475D01*
X112800475Y-76980562D01*
X112849910Y-76894938D01*
X112875500Y-76799435D01*
X112875500Y-76700565D01*
X119499500Y-76700565D01*
X119499500Y-76799435D01*
X119499779Y-76800475D01*
X119525091Y-76894942D01*
X119574523Y-76980559D01*
X119574525Y-76980562D01*
X119644438Y-77050475D01*
X119644440Y-77050476D01*
X119730058Y-77099908D01*
X119730056Y-77099908D01*
X119730060Y-77099909D01*
X119730062Y-77099910D01*
X119825565Y-77125500D01*
X119825567Y-77125500D01*
X119924433Y-77125500D01*
X119924435Y-77125500D01*
X120019938Y-77099910D01*
X120019940Y-77099908D01*
X120019942Y-77099908D01*
X120063906Y-77074525D01*
X120105562Y-77050475D01*
X120175475Y-76980562D01*
X120224910Y-76894938D01*
X120243498Y-76825565D01*
X133249500Y-76825565D01*
X133249500Y-76924435D01*
X133264539Y-76980562D01*
X133275091Y-77019942D01*
X133324523Y-77105559D01*
X133324525Y-77105562D01*
X133394438Y-77175475D01*
X133394440Y-77175476D01*
X133480058Y-77224908D01*
X133480056Y-77224908D01*
X133480060Y-77224909D01*
X133480062Y-77224910D01*
X133575565Y-77250500D01*
X133575567Y-77250500D01*
X133674433Y-77250500D01*
X133674435Y-77250500D01*
X133769938Y-77224910D01*
X133769940Y-77224908D01*
X133769942Y-77224908D01*
X133813906Y-77199525D01*
X133855562Y-77175475D01*
X133925475Y-77105562D01*
X133971935Y-77025091D01*
X133974908Y-77019942D01*
X133974908Y-77019940D01*
X133974910Y-77019938D01*
X134000500Y-76924435D01*
X134000500Y-76825565D01*
X133974910Y-76730062D01*
X133974908Y-76730059D01*
X133974908Y-76730057D01*
X133925476Y-76644440D01*
X133925475Y-76644438D01*
X133855562Y-76574525D01*
X133855559Y-76574523D01*
X133769941Y-76525091D01*
X133769943Y-76525091D01*
X133732885Y-76515161D01*
X133674435Y-76499500D01*
X133575565Y-76499500D01*
X133517114Y-76515161D01*
X133480057Y-76525091D01*
X133394440Y-76574523D01*
X133324523Y-76644440D01*
X133275091Y-76730057D01*
X133260783Y-76783453D01*
X133249500Y-76825565D01*
X120243498Y-76825565D01*
X120250500Y-76799435D01*
X120250500Y-76700565D01*
X120224910Y-76605062D01*
X120224908Y-76605059D01*
X120224908Y-76605057D01*
X120175476Y-76519440D01*
X120175475Y-76519438D01*
X120105562Y-76449525D01*
X120105559Y-76449523D01*
X120019941Y-76400091D01*
X120019943Y-76400091D01*
X119982885Y-76390161D01*
X119924435Y-76374500D01*
X119825565Y-76374500D01*
X119767114Y-76390161D01*
X119730057Y-76400091D01*
X119644440Y-76449523D01*
X119574523Y-76519440D01*
X119525091Y-76605057D01*
X119514539Y-76644438D01*
X119499500Y-76700565D01*
X112875500Y-76700565D01*
X112849910Y-76605062D01*
X112849908Y-76605059D01*
X112849908Y-76605057D01*
X112800476Y-76519440D01*
X112800475Y-76519438D01*
X112730562Y-76449525D01*
X112730559Y-76449523D01*
X112644941Y-76400091D01*
X112644943Y-76400091D01*
X112607885Y-76390161D01*
X112549435Y-76374500D01*
X112450565Y-76374500D01*
X112392114Y-76390161D01*
X112355057Y-76400091D01*
X112269440Y-76449523D01*
X112199523Y-76519440D01*
X112150091Y-76605057D01*
X112139539Y-76644438D01*
X112124500Y-76700565D01*
X103400500Y-76700565D01*
X103400500Y-76200565D01*
X105124500Y-76200565D01*
X105124500Y-76299435D01*
X105139539Y-76355562D01*
X105150091Y-76394942D01*
X105199523Y-76480559D01*
X105199525Y-76480562D01*
X105269438Y-76550475D01*
X105269440Y-76550476D01*
X105355058Y-76599908D01*
X105355056Y-76599908D01*
X105355060Y-76599909D01*
X105355062Y-76599910D01*
X105450565Y-76625500D01*
X105450567Y-76625500D01*
X105549433Y-76625500D01*
X105549435Y-76625500D01*
X105644938Y-76599910D01*
X105644940Y-76599908D01*
X105644942Y-76599908D01*
X105688906Y-76574525D01*
X105730562Y-76550475D01*
X105800475Y-76480562D01*
X105846935Y-76400091D01*
X105849908Y-76394942D01*
X105849908Y-76394940D01*
X105849910Y-76394938D01*
X105861468Y-76351799D01*
X105894792Y-76300487D01*
X105951914Y-76278560D01*
X106011014Y-76294396D01*
X106017361Y-76298881D01*
X106019435Y-76300472D01*
X106019438Y-76300475D01*
X106019440Y-76300476D01*
X106105058Y-76349908D01*
X106105056Y-76349908D01*
X106105060Y-76349909D01*
X106105062Y-76349910D01*
X106200565Y-76375500D01*
X106200567Y-76375500D01*
X106299433Y-76375500D01*
X106299435Y-76375500D01*
X106394938Y-76349910D01*
X106394940Y-76349908D01*
X106394942Y-76349908D01*
X106437103Y-76325566D01*
X106480562Y-76300475D01*
X106550475Y-76230562D01*
X106596935Y-76150091D01*
X106599908Y-76144942D01*
X106599908Y-76144940D01*
X106599910Y-76144938D01*
X106625500Y-76049435D01*
X106625500Y-75950565D01*
X110624500Y-75950565D01*
X110624500Y-76049435D01*
X110639539Y-76105562D01*
X110650091Y-76144942D01*
X110699233Y-76230057D01*
X110699525Y-76230562D01*
X110769438Y-76300475D01*
X110769440Y-76300476D01*
X110855058Y-76349908D01*
X110855056Y-76349908D01*
X110855060Y-76349909D01*
X110855062Y-76349910D01*
X110950565Y-76375500D01*
X110950567Y-76375500D01*
X111049433Y-76375500D01*
X111049435Y-76375500D01*
X111144938Y-76349910D01*
X111144940Y-76349908D01*
X111144942Y-76349908D01*
X111187103Y-76325566D01*
X111230562Y-76300475D01*
X111300475Y-76230562D01*
X111346935Y-76150091D01*
X111349908Y-76144942D01*
X111349908Y-76144940D01*
X111349910Y-76144938D01*
X111375500Y-76049435D01*
X111375500Y-75950565D01*
X111349910Y-75855062D01*
X111346935Y-75849910D01*
X111332880Y-75825565D01*
X114249500Y-75825565D01*
X114249500Y-75924435D01*
X114262095Y-75971439D01*
X114275091Y-76019942D01*
X114323050Y-76103007D01*
X114324525Y-76105562D01*
X114394438Y-76175475D01*
X114394440Y-76175476D01*
X114480058Y-76224908D01*
X114480056Y-76224908D01*
X114480060Y-76224909D01*
X114480062Y-76224910D01*
X114575565Y-76250500D01*
X114575567Y-76250500D01*
X114674433Y-76250500D01*
X114674435Y-76250500D01*
X114769938Y-76224910D01*
X114769940Y-76224908D01*
X114769942Y-76224908D01*
X114812103Y-76200566D01*
X114855562Y-76175475D01*
X114925475Y-76105562D01*
X114969209Y-76029813D01*
X114974908Y-76019942D01*
X114974908Y-76019940D01*
X114974910Y-76019938D01*
X115000500Y-75924435D01*
X115000500Y-75825565D01*
X120499500Y-75825565D01*
X120499500Y-75924435D01*
X120512095Y-75971439D01*
X120525091Y-76019942D01*
X120573050Y-76103007D01*
X120574525Y-76105562D01*
X120644438Y-76175475D01*
X120644440Y-76175476D01*
X120730058Y-76224908D01*
X120730056Y-76224908D01*
X120730060Y-76224909D01*
X120730062Y-76224910D01*
X120825565Y-76250500D01*
X120825567Y-76250500D01*
X120924433Y-76250500D01*
X120924435Y-76250500D01*
X121019938Y-76224910D01*
X121019940Y-76224908D01*
X121019942Y-76224908D01*
X121062103Y-76200566D01*
X121105562Y-76175475D01*
X121175475Y-76105562D01*
X121219209Y-76029813D01*
X121224908Y-76019942D01*
X121224908Y-76019941D01*
X121224910Y-76019938D01*
X121243498Y-75950565D01*
X123124500Y-75950565D01*
X123124500Y-76049435D01*
X123139539Y-76105562D01*
X123150091Y-76144942D01*
X123199233Y-76230057D01*
X123199525Y-76230562D01*
X123269438Y-76300475D01*
X123269440Y-76300476D01*
X123355058Y-76349908D01*
X123355056Y-76349908D01*
X123355060Y-76349909D01*
X123355062Y-76349910D01*
X123450565Y-76375500D01*
X123450567Y-76375500D01*
X123549433Y-76375500D01*
X123549435Y-76375500D01*
X123644938Y-76349910D01*
X123644940Y-76349908D01*
X123644942Y-76349908D01*
X123687103Y-76325566D01*
X123730562Y-76300475D01*
X123800475Y-76230562D01*
X123846935Y-76150091D01*
X123849908Y-76144942D01*
X123849908Y-76144941D01*
X123849910Y-76144938D01*
X123868498Y-76075565D01*
X126749500Y-76075565D01*
X126749500Y-76174435D01*
X126764539Y-76230562D01*
X126775091Y-76269942D01*
X126824233Y-76355057D01*
X126824525Y-76355562D01*
X126894438Y-76425475D01*
X126894440Y-76425476D01*
X126980058Y-76474908D01*
X126980056Y-76474908D01*
X126980060Y-76474909D01*
X126980062Y-76474910D01*
X127075565Y-76500500D01*
X127075567Y-76500500D01*
X127174433Y-76500500D01*
X127174435Y-76500500D01*
X127269938Y-76474910D01*
X127269940Y-76474908D01*
X127269942Y-76474908D01*
X127295377Y-76460222D01*
X127355562Y-76425475D01*
X127425475Y-76355562D01*
X127474910Y-76269938D01*
X127500500Y-76174435D01*
X127500500Y-76075565D01*
X127474910Y-75980062D01*
X127474908Y-75980059D01*
X127474908Y-75980057D01*
X127425476Y-75894440D01*
X127425475Y-75894438D01*
X127355562Y-75824525D01*
X127355559Y-75824523D01*
X127269941Y-75775091D01*
X127269943Y-75775091D01*
X127232885Y-75765161D01*
X127174435Y-75749500D01*
X127075565Y-75749500D01*
X127017114Y-75765161D01*
X126980057Y-75775091D01*
X126894440Y-75824523D01*
X126824523Y-75894440D01*
X126775091Y-75980057D01*
X126763521Y-76023237D01*
X126749500Y-76075565D01*
X123868498Y-76075565D01*
X123875500Y-76049435D01*
X123875500Y-75950565D01*
X123849910Y-75855062D01*
X123849908Y-75855059D01*
X123849908Y-75855057D01*
X123800476Y-75769440D01*
X123800475Y-75769438D01*
X123730562Y-75699525D01*
X123730559Y-75699523D01*
X123644941Y-75650091D01*
X123644943Y-75650091D01*
X123607885Y-75640161D01*
X123549435Y-75624500D01*
X123450565Y-75624500D01*
X123392114Y-75640161D01*
X123355057Y-75650091D01*
X123269440Y-75699523D01*
X123199523Y-75769440D01*
X123150091Y-75855057D01*
X123139539Y-75894438D01*
X123124500Y-75950565D01*
X121243498Y-75950565D01*
X121250500Y-75924435D01*
X121250500Y-75825565D01*
X121224910Y-75730062D01*
X121224908Y-75730059D01*
X121224908Y-75730057D01*
X121175476Y-75644440D01*
X121175475Y-75644438D01*
X121105562Y-75574525D01*
X121105559Y-75574523D01*
X121019941Y-75525091D01*
X121019943Y-75525091D01*
X120982885Y-75515161D01*
X120924435Y-75499500D01*
X120825565Y-75499500D01*
X120767114Y-75515161D01*
X120730057Y-75525091D01*
X120644440Y-75574523D01*
X120574523Y-75644440D01*
X120525091Y-75730057D01*
X120514539Y-75769438D01*
X120499500Y-75825565D01*
X115000500Y-75825565D01*
X114974910Y-75730062D01*
X114974908Y-75730059D01*
X114974908Y-75730057D01*
X114925476Y-75644440D01*
X114925475Y-75644438D01*
X114855562Y-75574525D01*
X114855559Y-75574523D01*
X114769941Y-75525091D01*
X114769943Y-75525091D01*
X114732885Y-75515161D01*
X114674435Y-75499500D01*
X114575565Y-75499500D01*
X114517114Y-75515161D01*
X114480057Y-75525091D01*
X114394440Y-75574523D01*
X114324523Y-75644440D01*
X114275091Y-75730057D01*
X114264539Y-75769438D01*
X114249500Y-75825565D01*
X111332880Y-75825565D01*
X111300476Y-75769440D01*
X111300475Y-75769438D01*
X111230562Y-75699525D01*
X111230559Y-75699523D01*
X111144941Y-75650091D01*
X111144943Y-75650091D01*
X111107885Y-75640161D01*
X111049435Y-75624500D01*
X110950565Y-75624500D01*
X110892114Y-75640161D01*
X110855057Y-75650091D01*
X110769440Y-75699523D01*
X110699523Y-75769440D01*
X110650091Y-75855057D01*
X110639539Y-75894438D01*
X110624500Y-75950565D01*
X106625500Y-75950565D01*
X106599910Y-75855062D01*
X106599908Y-75855059D01*
X106599908Y-75855057D01*
X106550476Y-75769440D01*
X106550475Y-75769438D01*
X106480562Y-75699525D01*
X106480559Y-75699523D01*
X106394941Y-75650091D01*
X106394943Y-75650091D01*
X106357885Y-75640161D01*
X106299435Y-75624500D01*
X106200565Y-75624500D01*
X106142114Y-75640161D01*
X106105057Y-75650091D01*
X106019440Y-75699523D01*
X105949523Y-75769440D01*
X105900091Y-75855058D01*
X105900090Y-75855061D01*
X105888530Y-75898200D01*
X105855205Y-75949514D01*
X105798083Y-75971439D01*
X105738983Y-75955602D01*
X105732639Y-75951119D01*
X105730559Y-75949523D01*
X105644941Y-75900091D01*
X105644943Y-75900091D01*
X105607885Y-75890161D01*
X105549435Y-75874500D01*
X105450565Y-75874500D01*
X105392114Y-75890161D01*
X105355057Y-75900091D01*
X105269440Y-75949523D01*
X105199523Y-76019440D01*
X105150091Y-76105057D01*
X105140323Y-76141512D01*
X105124500Y-76200565D01*
X103400500Y-76200565D01*
X103400500Y-75450565D01*
X129999500Y-75450565D01*
X129999500Y-75549435D01*
X130006223Y-75574525D01*
X130025091Y-75644942D01*
X130074233Y-75730057D01*
X130074525Y-75730562D01*
X130144438Y-75800475D01*
X130144440Y-75800476D01*
X130230058Y-75849908D01*
X130230056Y-75849908D01*
X130230060Y-75849909D01*
X130230062Y-75849910D01*
X130325565Y-75875500D01*
X130325567Y-75875500D01*
X130424433Y-75875500D01*
X130424435Y-75875500D01*
X130519938Y-75849910D01*
X130519940Y-75849908D01*
X130519942Y-75849908D01*
X130562103Y-75825566D01*
X130605562Y-75800475D01*
X130675475Y-75730562D01*
X130721935Y-75650091D01*
X130724908Y-75644942D01*
X130724908Y-75644940D01*
X130724910Y-75644938D01*
X130743498Y-75575565D01*
X134374500Y-75575565D01*
X134374500Y-75674435D01*
X134389539Y-75730562D01*
X134400091Y-75769942D01*
X134449236Y-75855062D01*
X134449525Y-75855562D01*
X134519438Y-75925475D01*
X134519440Y-75925476D01*
X134605058Y-75974908D01*
X134605056Y-75974908D01*
X134605060Y-75974909D01*
X134605062Y-75974910D01*
X134700565Y-76000500D01*
X134700567Y-76000500D01*
X134799433Y-76000500D01*
X134799435Y-76000500D01*
X134894938Y-75974910D01*
X134894940Y-75974908D01*
X134894942Y-75974908D01*
X134920377Y-75960222D01*
X134980562Y-75925475D01*
X135050475Y-75855562D01*
X135096935Y-75775091D01*
X135099908Y-75769942D01*
X135099908Y-75769940D01*
X135099910Y-75769938D01*
X135125500Y-75674435D01*
X135125500Y-75575565D01*
X135099910Y-75480062D01*
X135096935Y-75474910D01*
X135082880Y-75450565D01*
X135874500Y-75450565D01*
X135874500Y-75549435D01*
X135881223Y-75574525D01*
X135900091Y-75644942D01*
X135949233Y-75730057D01*
X135949525Y-75730562D01*
X136019438Y-75800475D01*
X136059368Y-75823528D01*
X136108272Y-75851764D01*
X136149212Y-75897234D01*
X136155607Y-75958084D01*
X136125014Y-76011072D01*
X136108272Y-76023236D01*
X136019439Y-76074524D01*
X135949523Y-76144440D01*
X135900091Y-76230057D01*
X135889539Y-76269438D01*
X135874500Y-76325565D01*
X135874500Y-76424435D01*
X135889539Y-76480562D01*
X135900091Y-76519942D01*
X135949233Y-76605057D01*
X135949525Y-76605562D01*
X136019438Y-76675475D01*
X136019440Y-76675476D01*
X136105058Y-76724908D01*
X136105056Y-76724908D01*
X136105060Y-76724909D01*
X136105062Y-76724910D01*
X136200565Y-76750500D01*
X136200567Y-76750500D01*
X136299433Y-76750500D01*
X136299435Y-76750500D01*
X136394938Y-76724910D01*
X136394940Y-76724908D01*
X136394942Y-76724908D01*
X136437103Y-76700566D01*
X136480562Y-76675475D01*
X136550475Y-76605562D01*
X136596935Y-76525091D01*
X136599908Y-76519942D01*
X136599908Y-76519940D01*
X136599910Y-76519938D01*
X136625500Y-76424435D01*
X136625500Y-76325565D01*
X136599910Y-76230062D01*
X136599908Y-76230059D01*
X136599908Y-76230057D01*
X136550476Y-76144440D01*
X136550475Y-76144438D01*
X136480562Y-76074525D01*
X136480559Y-76074523D01*
X136403121Y-76029813D01*
X136403118Y-76029813D01*
X136394938Y-76025090D01*
X136394937Y-76025089D01*
X136391728Y-76023237D01*
X136350787Y-75977767D01*
X136347928Y-75950565D01*
X141249500Y-75950565D01*
X141249500Y-76049435D01*
X141264539Y-76105562D01*
X141275091Y-76144942D01*
X141324233Y-76230057D01*
X141324525Y-76230562D01*
X141394438Y-76300475D01*
X141394440Y-76300476D01*
X141480058Y-76349908D01*
X141480056Y-76349908D01*
X141480060Y-76349909D01*
X141480062Y-76349910D01*
X141575565Y-76375500D01*
X141575567Y-76375500D01*
X141674434Y-76375500D01*
X141674435Y-76375500D01*
X141749877Y-76355285D01*
X141810978Y-76358486D01*
X141858528Y-76396991D01*
X141874500Y-76450911D01*
X141874500Y-76549435D01*
X141889539Y-76605562D01*
X141900091Y-76644942D01*
X141949233Y-76730057D01*
X141949525Y-76730562D01*
X142019438Y-76800475D01*
X142019440Y-76800476D01*
X142105058Y-76849908D01*
X142105056Y-76849908D01*
X142105060Y-76849909D01*
X142105062Y-76849910D01*
X142200565Y-76875500D01*
X142200567Y-76875500D01*
X142299433Y-76875500D01*
X142299435Y-76875500D01*
X142394938Y-76849910D01*
X142394940Y-76849908D01*
X142394942Y-76849908D01*
X142437103Y-76825566D01*
X142480562Y-76800475D01*
X142550475Y-76730562D01*
X142599910Y-76644938D01*
X142625500Y-76549435D01*
X142625500Y-76450565D01*
X142599910Y-76355062D01*
X142599908Y-76355059D01*
X142599908Y-76355057D01*
X142550476Y-76269440D01*
X142550475Y-76269438D01*
X142480562Y-76199525D01*
X142480559Y-76199523D01*
X142394941Y-76150091D01*
X142394943Y-76150091D01*
X142357885Y-76140161D01*
X142299435Y-76124500D01*
X142200565Y-76124500D01*
X142125121Y-76144714D01*
X142064021Y-76141512D01*
X142016472Y-76103007D01*
X142000500Y-76049088D01*
X142000500Y-75950566D01*
X141991484Y-75916917D01*
X141974910Y-75855062D01*
X141974908Y-75855059D01*
X141974908Y-75855057D01*
X141925476Y-75769440D01*
X141925475Y-75769438D01*
X141855562Y-75699525D01*
X141855559Y-75699523D01*
X141769941Y-75650091D01*
X141769943Y-75650091D01*
X141732885Y-75640161D01*
X141674435Y-75624500D01*
X141575565Y-75624500D01*
X141517114Y-75640161D01*
X141480057Y-75650091D01*
X141394440Y-75699523D01*
X141324523Y-75769440D01*
X141275091Y-75855057D01*
X141264539Y-75894438D01*
X141249500Y-75950565D01*
X136347928Y-75950565D01*
X136344391Y-75916917D01*
X136374984Y-75863929D01*
X136391728Y-75851764D01*
X136438910Y-75824523D01*
X136480562Y-75800475D01*
X136550475Y-75730562D01*
X136596935Y-75650091D01*
X136599908Y-75644942D01*
X136599908Y-75644940D01*
X136599910Y-75644938D01*
X136625500Y-75549435D01*
X136625500Y-75450565D01*
X136599910Y-75355062D01*
X136599908Y-75355059D01*
X136599908Y-75355057D01*
X136550476Y-75269440D01*
X136550475Y-75269438D01*
X136480562Y-75199525D01*
X136480559Y-75199523D01*
X136394941Y-75150091D01*
X136394943Y-75150091D01*
X136357885Y-75140161D01*
X136299435Y-75124500D01*
X136200565Y-75124500D01*
X136142114Y-75140161D01*
X136105057Y-75150091D01*
X136019440Y-75199523D01*
X135949523Y-75269440D01*
X135900091Y-75355057D01*
X135889539Y-75394438D01*
X135874500Y-75450565D01*
X135082880Y-75450565D01*
X135050476Y-75394440D01*
X135050475Y-75394438D01*
X134980562Y-75324525D01*
X134980559Y-75324523D01*
X134894941Y-75275091D01*
X134894943Y-75275091D01*
X134857885Y-75265161D01*
X134799435Y-75249500D01*
X134700565Y-75249500D01*
X134642114Y-75265161D01*
X134605057Y-75275091D01*
X134519440Y-75324523D01*
X134449523Y-75394440D01*
X134400091Y-75480057D01*
X134388025Y-75525090D01*
X134374500Y-75575565D01*
X130743498Y-75575565D01*
X130750500Y-75549435D01*
X130750500Y-75450565D01*
X130724910Y-75355062D01*
X130724908Y-75355059D01*
X130724908Y-75355057D01*
X130675476Y-75269440D01*
X130675475Y-75269438D01*
X130605562Y-75199525D01*
X130605559Y-75199523D01*
X130528118Y-75154812D01*
X130528117Y-75154812D01*
X130519940Y-75150091D01*
X130519939Y-75150090D01*
X130519938Y-75150090D01*
X130424435Y-75124500D01*
X130325565Y-75124500D01*
X130267114Y-75140161D01*
X130230057Y-75150091D01*
X130144440Y-75199523D01*
X130074523Y-75269440D01*
X130025091Y-75355057D01*
X130014539Y-75394438D01*
X129999500Y-75450565D01*
X103400500Y-75450565D01*
X103400500Y-74780252D01*
X103388867Y-74721769D01*
X103374699Y-74700565D01*
X106749500Y-74700565D01*
X106749500Y-74799435D01*
X106764539Y-74855562D01*
X106775091Y-74894942D01*
X106824233Y-74980057D01*
X106824525Y-74980562D01*
X106894438Y-75050475D01*
X106894440Y-75050476D01*
X106980058Y-75099908D01*
X106980056Y-75099908D01*
X106980060Y-75099909D01*
X106980062Y-75099910D01*
X107075565Y-75125500D01*
X107075567Y-75125500D01*
X107174433Y-75125500D01*
X107174435Y-75125500D01*
X107269938Y-75099910D01*
X107269940Y-75099908D01*
X107269942Y-75099908D01*
X107312103Y-75075566D01*
X107355562Y-75050475D01*
X107425475Y-74980562D01*
X107474910Y-74894938D01*
X107500500Y-74799435D01*
X107500500Y-74700565D01*
X107474910Y-74605062D01*
X107474908Y-74605059D01*
X107474908Y-74605057D01*
X107425476Y-74519440D01*
X107425475Y-74519438D01*
X107355562Y-74449525D01*
X107343559Y-74442595D01*
X107269941Y-74400091D01*
X107269943Y-74400091D01*
X107232885Y-74390161D01*
X107174435Y-74374500D01*
X107075565Y-74374500D01*
X107017114Y-74390161D01*
X106980057Y-74400091D01*
X106894440Y-74449523D01*
X106824523Y-74519440D01*
X106775091Y-74605057D01*
X106764539Y-74644438D01*
X106749500Y-74700565D01*
X103374699Y-74700565D01*
X103344552Y-74655448D01*
X103336535Y-74650091D01*
X103278233Y-74611134D01*
X103278231Y-74611133D01*
X103278228Y-74611132D01*
X103278227Y-74611132D01*
X103219758Y-74599501D01*
X103219748Y-74599500D01*
X100780252Y-74599500D01*
X100780251Y-74599500D01*
X100780241Y-74599501D01*
X100721772Y-74611132D01*
X100721766Y-74611134D01*
X100655451Y-74655445D01*
X100655445Y-74655451D01*
X100611134Y-74721766D01*
X100611132Y-74721772D01*
X100599501Y-74780241D01*
X100599500Y-74780253D01*
X100300000Y-74780253D01*
X100300000Y-71509000D01*
X100318907Y-71450809D01*
X100368407Y-71414845D01*
X100399000Y-71410000D01*
X102717417Y-71410000D01*
X102775608Y-71428907D01*
G37*
%TD.AperFunction*%
%TD*%
M02*
