M48
; DRILL file KiCad 10.0.6 date 2026-09-29T01:57:32
; FORMAT={-:-/ absolute / metric / decimal}
; #@! TF.CreationDate,2026-09-29T01:57:32-05:00
; #@! TF.GenerationSoftware,Kicad,Pcbnew,10.0.6
; #@! TF.FileFunction,Plated,1,4,PTH
FMAT,2
METRIC
; #@! TA.AperFunction,Plated,PTH,ViaDrill
T1C0.300
; #@! TA.AperFunction,Plated,PTH,ViaDrill
T2C0.350
; #@! TA.AperFunction,Plated,PTH,ComponentDrill
T3C1.100
; #@! TA.AperFunction,Plated,PTH,ComponentDrill
T4C1.200
%
G90
G05
T1
X195.9Y-80.0
X198.62Y-80.0
T2
X109.4Y-82.9
X112.28Y-83.2
X113.5Y-80.0
X117.475Y-78.5
X118.55Y-83.4
X120.45Y-83.4
X122.4Y-77.7
X122.86Y-75.43
X125.975Y-78.9
X127.8Y-86.2
X130.3Y-80.0
X130.95Y-78.45
X132.062Y-78.1
X133.2Y-75.17
X133.3Y-82.4
X133.35Y-78.45
X133.9Y-75.65
X134.4Y-78.765
X134.4Y-81.235
X136.2Y-77.6
X136.2Y-82.4
X137.3Y-75.6
X137.3Y-84.4
X138.3Y-77.6
X138.3Y-82.4
X139.9Y-75.6
X139.9Y-84.4
X140.4Y-77.6
X140.4Y-82.4
X141.6Y-72.58
X141.6Y-87.42
X142.3Y-76.4
X142.3Y-83.6
X174.34Y-72.0
X174.34Y-88.0
X195.13Y-80.0
T3
X103.81Y-72.38
X103.81Y-87.62
X106.35Y-72.38
X106.35Y-87.62
X108.89Y-72.38
X108.89Y-87.62
X111.43Y-72.38
X111.43Y-87.62
X113.97Y-72.38
X113.97Y-87.62
X116.51Y-72.38
X116.51Y-87.62
X119.05Y-72.38
X119.05Y-87.62
X121.59Y-72.38
X121.59Y-87.62
X124.13Y-72.38
X124.13Y-87.62
X126.67Y-72.38
X126.67Y-87.62
X129.21Y-72.38
X129.21Y-87.62
X131.75Y-72.38
X131.75Y-87.62
X134.29Y-72.38
X134.29Y-87.62
X136.83Y-72.38
X136.83Y-87.62
X139.37Y-72.38
X139.37Y-87.62
T4
X107.5Y-76.0
X107.5Y-80.0
X107.5Y-84.0
M30
