%TF.GenerationSoftware,KiCad,Pcbnew,10.0.6*%
%TF.CreationDate,2026-09-25T01:07:08-05:00*%
%TF.ProjectId,hp_hat_routed,68705f68-6174-45f7-926f-757465642e6b,rev?*%
%TF.SameCoordinates,Original*%
%TF.FileFunction,Copper,L2,Inr*%
%TF.FilePolarity,Positive*%
%FSLAX46Y46*%
G04 Gerber Fmt 4.6, Leading zero omitted, Abs format (unit mm)*
G04 Created by KiCad (PCBNEW 10.0.6) date 2026-09-25 01:07:08*
%MOMM*%
%LPD*%
G01*
G04 APERTURE LIST*
%TA.AperFunction,ComponentPad*%
%ADD10R,2.400000X2.400000*%
%TD*%
%TA.AperFunction,ComponentPad*%
%ADD11C,2.400000*%
%TD*%
%TA.AperFunction,ComponentPad*%
%ADD12R,1.800000X1.800000*%
%TD*%
%TA.AperFunction,ComponentPad*%
%ADD13C,1.800000*%
%TD*%
%TA.AperFunction,ViaPad*%
%ADD14C,0.600000*%
%TD*%
G04 APERTURE END LIST*
D10*
%TO.N,VIN*%
%TO.C,J1*%
X107500000Y-76000000D03*
D11*
%TO.N,SDI_LINE*%
X107500000Y-80000000D03*
%TO.N,GND*%
X107500000Y-84000000D03*
%TD*%
D12*
%TO.N,N/C*%
%TO.C,J4*%
X103810000Y-72380000D03*
D13*
X106350000Y-72380000D03*
%TO.N,VREF*%
X108890000Y-72380000D03*
%TO.N,A0_TH1*%
X111430000Y-72380000D03*
%TO.N,A1_TH2*%
X113970000Y-72380000D03*
%TO.N,A2_TH3*%
X116510000Y-72380000D03*
%TO.N,A3_TH4*%
X119050000Y-72380000D03*
%TO.N,A4_SDA*%
X121590000Y-72380000D03*
%TO.N,A5_SCL*%
X124130000Y-72380000D03*
%TO.N,N/C*%
X126670000Y-72380000D03*
X129210000Y-72380000D03*
%TO.N,+5V*%
X131750000Y-72380000D03*
%TO.N,N/C*%
X134290000Y-72380000D03*
%TO.N,GND*%
X136830000Y-72380000D03*
%TO.N,NANO_VIN*%
X139370000Y-72380000D03*
%TD*%
D12*
%TO.N,N/C*%
%TO.C,J3*%
X103810000Y-87620000D03*
D13*
X106350000Y-87620000D03*
X108890000Y-87620000D03*
%TO.N,D9_HEAT*%
X111430000Y-87620000D03*
%TO.N,N/C*%
X113970000Y-87620000D03*
X116510000Y-87620000D03*
X119050000Y-87620000D03*
X121590000Y-87620000D03*
%TO.N,D4_EXC*%
X124130000Y-87620000D03*
%TO.N,N/C*%
X126670000Y-87620000D03*
%TO.N,D2_SDI12*%
X129210000Y-87620000D03*
%TO.N,GND*%
X131750000Y-87620000D03*
%TO.N,N/C*%
X134290000Y-87620000D03*
X136830000Y-87620000D03*
X139370000Y-87620000D03*
%TD*%
D14*
%TO.N,GND*%
X138500000Y-76625000D03*
X116500000Y-79000000D03*
X140500000Y-83500000D03*
X137630711Y-73250000D03*
X132500000Y-75875000D03*
X114500000Y-83875000D03*
X121750000Y-75750000D03*
X135500000Y-75875000D03*
X140849500Y-87644445D03*
X116500000Y-85125000D03*
X129250000Y-85000000D03*
X116625000Y-79750000D03*
X134000000Y-84625000D03*
X110250000Y-80000000D03*
X127949986Y-73102085D03*
X132500000Y-78375000D03*
X132500000Y-83375000D03*
X134000000Y-79875000D03*
X122000000Y-82625000D03*
X120875000Y-80500000D03*
X111750000Y-75750000D03*
X132500000Y-80875000D03*
%TD*%
%TA.AperFunction,Conductor*%
%TO.N,GND*%
G36*
X102668691Y-71428907D02*
G01*
X102704655Y-71478407D01*
X102709500Y-71509000D01*
X102709500Y-73299746D01*
X102709501Y-73299758D01*
X102721132Y-73358227D01*
X102721134Y-73358233D01*
X102753184Y-73406198D01*
X102765448Y-73424552D01*
X102831769Y-73468867D01*
X102876231Y-73477711D01*
X102890241Y-73480498D01*
X102890246Y-73480498D01*
X102890252Y-73480500D01*
X102890253Y-73480500D01*
X104729747Y-73480500D01*
X104729748Y-73480500D01*
X104788231Y-73468867D01*
X104854552Y-73424552D01*
X104898867Y-73358231D01*
X104910500Y-73299748D01*
X104910500Y-71509000D01*
X104929407Y-71450809D01*
X104978907Y-71414845D01*
X105009500Y-71410000D01*
X105524651Y-71410000D01*
X105582842Y-71428907D01*
X105618806Y-71478407D01*
X105618806Y-71539593D01*
X105594656Y-71579001D01*
X105510586Y-71663072D01*
X105510585Y-71663073D01*
X105408766Y-71803214D01*
X105330125Y-71957558D01*
X105330123Y-71957561D01*
X105276598Y-72122293D01*
X105276597Y-72122297D01*
X105249501Y-72293378D01*
X105249500Y-72293384D01*
X105249500Y-72466614D01*
X105276597Y-72637702D01*
X105276598Y-72637706D01*
X105330123Y-72802438D01*
X105330125Y-72802441D01*
X105330126Y-72802444D01*
X105330127Y-72802445D01*
X105408768Y-72956788D01*
X105510586Y-73096928D01*
X105633072Y-73219414D01*
X105773212Y-73321232D01*
X105927555Y-73399873D01*
X105927557Y-73399873D01*
X105927558Y-73399874D01*
X105927561Y-73399876D01*
X106092293Y-73453401D01*
X106092297Y-73453402D01*
X106263386Y-73480500D01*
X106263389Y-73480500D01*
X106436614Y-73480500D01*
X106607702Y-73453402D01*
X106607706Y-73453401D01*
X106772438Y-73399876D01*
X106772440Y-73399874D01*
X106772445Y-73399873D01*
X106926788Y-73321232D01*
X107066928Y-73219414D01*
X107189414Y-73096928D01*
X107291232Y-72956788D01*
X107369873Y-72802445D01*
X107369874Y-72802440D01*
X107369876Y-72802438D01*
X107423401Y-72637706D01*
X107423402Y-72637702D01*
X107450500Y-72466614D01*
X107450500Y-72293384D01*
X107450499Y-72293378D01*
X107423402Y-72122297D01*
X107423401Y-72122293D01*
X107369876Y-71957561D01*
X107369874Y-71957558D01*
X107369873Y-71957557D01*
X107369873Y-71957555D01*
X107291232Y-71803212D01*
X107189414Y-71663072D01*
X107105343Y-71579001D01*
X107077568Y-71524487D01*
X107087139Y-71464055D01*
X107130404Y-71420790D01*
X107175349Y-71410000D01*
X108064651Y-71410000D01*
X108122842Y-71428907D01*
X108158806Y-71478407D01*
X108158806Y-71539593D01*
X108134656Y-71579001D01*
X108050586Y-71663072D01*
X108050585Y-71663073D01*
X107948766Y-71803214D01*
X107870125Y-71957558D01*
X107870123Y-71957561D01*
X107816598Y-72122293D01*
X107816597Y-72122297D01*
X107789501Y-72293378D01*
X107789500Y-72293384D01*
X107789500Y-72466614D01*
X107816597Y-72637702D01*
X107816598Y-72637706D01*
X107870123Y-72802438D01*
X107870125Y-72802441D01*
X107870126Y-72802444D01*
X107870127Y-72802445D01*
X107948768Y-72956788D01*
X108050586Y-73096928D01*
X108173072Y-73219414D01*
X108313212Y-73321232D01*
X108467555Y-73399873D01*
X108467557Y-73399873D01*
X108467558Y-73399874D01*
X108467561Y-73399876D01*
X108632293Y-73453401D01*
X108632297Y-73453402D01*
X108803386Y-73480500D01*
X108803389Y-73480500D01*
X108976614Y-73480500D01*
X109147702Y-73453402D01*
X109147706Y-73453401D01*
X109312438Y-73399876D01*
X109312440Y-73399874D01*
X109312445Y-73399873D01*
X109466788Y-73321232D01*
X109606928Y-73219414D01*
X109729414Y-73096928D01*
X109831232Y-72956788D01*
X109909873Y-72802445D01*
X109909874Y-72802440D01*
X109909876Y-72802438D01*
X109963401Y-72637706D01*
X109963402Y-72637702D01*
X109990500Y-72466614D01*
X109990500Y-72293384D01*
X109990499Y-72293378D01*
X109963402Y-72122297D01*
X109963401Y-72122293D01*
X109909876Y-71957561D01*
X109909874Y-71957558D01*
X109909873Y-71957557D01*
X109909873Y-71957555D01*
X109831232Y-71803212D01*
X109729414Y-71663072D01*
X109645343Y-71579001D01*
X109617568Y-71524487D01*
X109627139Y-71464055D01*
X109670404Y-71420790D01*
X109715349Y-71410000D01*
X110604651Y-71410000D01*
X110662842Y-71428907D01*
X110698806Y-71478407D01*
X110698806Y-71539593D01*
X110674656Y-71579001D01*
X110590586Y-71663072D01*
X110590585Y-71663073D01*
X110488766Y-71803214D01*
X110410125Y-71957558D01*
X110410123Y-71957561D01*
X110356598Y-72122293D01*
X110356597Y-72122297D01*
X110329501Y-72293378D01*
X110329500Y-72293384D01*
X110329500Y-72466614D01*
X110356597Y-72637702D01*
X110356598Y-72637706D01*
X110410123Y-72802438D01*
X110410125Y-72802441D01*
X110410126Y-72802444D01*
X110410127Y-72802445D01*
X110488768Y-72956788D01*
X110590586Y-73096928D01*
X110713072Y-73219414D01*
X110853212Y-73321232D01*
X111007555Y-73399873D01*
X111007557Y-73399873D01*
X111007558Y-73399874D01*
X111007561Y-73399876D01*
X111172293Y-73453401D01*
X111172297Y-73453402D01*
X111343386Y-73480500D01*
X111343389Y-73480500D01*
X111516614Y-73480500D01*
X111687702Y-73453402D01*
X111687706Y-73453401D01*
X111852438Y-73399876D01*
X111852440Y-73399874D01*
X111852445Y-73399873D01*
X112006788Y-73321232D01*
X112146928Y-73219414D01*
X112269414Y-73096928D01*
X112371232Y-72956788D01*
X112449873Y-72802445D01*
X112449874Y-72802440D01*
X112449876Y-72802438D01*
X112503401Y-72637706D01*
X112503402Y-72637702D01*
X112530500Y-72466614D01*
X112530500Y-72293384D01*
X112530499Y-72293378D01*
X112503402Y-72122297D01*
X112503401Y-72122293D01*
X112449876Y-71957561D01*
X112449874Y-71957558D01*
X112449873Y-71957557D01*
X112449873Y-71957555D01*
X112371232Y-71803212D01*
X112269414Y-71663072D01*
X112185343Y-71579001D01*
X112157568Y-71524487D01*
X112167139Y-71464055D01*
X112210404Y-71420790D01*
X112255349Y-71410000D01*
X113144651Y-71410000D01*
X113202842Y-71428907D01*
X113238806Y-71478407D01*
X113238806Y-71539593D01*
X113214656Y-71579001D01*
X113130586Y-71663072D01*
X113130585Y-71663073D01*
X113028766Y-71803214D01*
X112950125Y-71957558D01*
X112950123Y-71957561D01*
X112896598Y-72122293D01*
X112896597Y-72122297D01*
X112869501Y-72293378D01*
X112869500Y-72293384D01*
X112869500Y-72466614D01*
X112896597Y-72637702D01*
X112896598Y-72637706D01*
X112950123Y-72802438D01*
X112950125Y-72802441D01*
X112950126Y-72802444D01*
X112950127Y-72802445D01*
X113028768Y-72956788D01*
X113130586Y-73096928D01*
X113253072Y-73219414D01*
X113393212Y-73321232D01*
X113547555Y-73399873D01*
X113547557Y-73399873D01*
X113547558Y-73399874D01*
X113547561Y-73399876D01*
X113712293Y-73453401D01*
X113712297Y-73453402D01*
X113883386Y-73480500D01*
X113883389Y-73480500D01*
X114056614Y-73480500D01*
X114227702Y-73453402D01*
X114227706Y-73453401D01*
X114392438Y-73399876D01*
X114392440Y-73399874D01*
X114392445Y-73399873D01*
X114546788Y-73321232D01*
X114686928Y-73219414D01*
X114809414Y-73096928D01*
X114911232Y-72956788D01*
X114989873Y-72802445D01*
X114989874Y-72802440D01*
X114989876Y-72802438D01*
X115043401Y-72637706D01*
X115043402Y-72637702D01*
X115070500Y-72466614D01*
X115070500Y-72293384D01*
X115070499Y-72293378D01*
X115043402Y-72122297D01*
X115043401Y-72122293D01*
X114989876Y-71957561D01*
X114989874Y-71957558D01*
X114989873Y-71957557D01*
X114989873Y-71957555D01*
X114911232Y-71803212D01*
X114809414Y-71663072D01*
X114725343Y-71579001D01*
X114697568Y-71524487D01*
X114707139Y-71464055D01*
X114750404Y-71420790D01*
X114795349Y-71410000D01*
X115684651Y-71410000D01*
X115742842Y-71428907D01*
X115778806Y-71478407D01*
X115778806Y-71539593D01*
X115754656Y-71579001D01*
X115670586Y-71663072D01*
X115670585Y-71663073D01*
X115568766Y-71803214D01*
X115490125Y-71957558D01*
X115490123Y-71957561D01*
X115436598Y-72122293D01*
X115436597Y-72122297D01*
X115409501Y-72293378D01*
X115409500Y-72293384D01*
X115409500Y-72466614D01*
X115436597Y-72637702D01*
X115436598Y-72637706D01*
X115490123Y-72802438D01*
X115490125Y-72802441D01*
X115490126Y-72802444D01*
X115490127Y-72802445D01*
X115568768Y-72956788D01*
X115670586Y-73096928D01*
X115793072Y-73219414D01*
X115933212Y-73321232D01*
X116087555Y-73399873D01*
X116087557Y-73399873D01*
X116087558Y-73399874D01*
X116087561Y-73399876D01*
X116252293Y-73453401D01*
X116252297Y-73453402D01*
X116423386Y-73480500D01*
X116423389Y-73480500D01*
X116596614Y-73480500D01*
X116767702Y-73453402D01*
X116767706Y-73453401D01*
X116932438Y-73399876D01*
X116932440Y-73399874D01*
X116932445Y-73399873D01*
X117086788Y-73321232D01*
X117226928Y-73219414D01*
X117349414Y-73096928D01*
X117451232Y-72956788D01*
X117529873Y-72802445D01*
X117529874Y-72802440D01*
X117529876Y-72802438D01*
X117583401Y-72637706D01*
X117583402Y-72637702D01*
X117610500Y-72466614D01*
X117610500Y-72293384D01*
X117610499Y-72293378D01*
X117583402Y-72122297D01*
X117583401Y-72122293D01*
X117529876Y-71957561D01*
X117529874Y-71957558D01*
X117529873Y-71957557D01*
X117529873Y-71957555D01*
X117451232Y-71803212D01*
X117349414Y-71663072D01*
X117265343Y-71579001D01*
X117237568Y-71524487D01*
X117247139Y-71464055D01*
X117290404Y-71420790D01*
X117335349Y-71410000D01*
X118224651Y-71410000D01*
X118282842Y-71428907D01*
X118318806Y-71478407D01*
X118318806Y-71539593D01*
X118294656Y-71579001D01*
X118210586Y-71663072D01*
X118210585Y-71663073D01*
X118108766Y-71803214D01*
X118030125Y-71957558D01*
X118030123Y-71957561D01*
X117976598Y-72122293D01*
X117976597Y-72122297D01*
X117949501Y-72293378D01*
X117949500Y-72293384D01*
X117949500Y-72466614D01*
X117976597Y-72637702D01*
X117976598Y-72637706D01*
X118030123Y-72802438D01*
X118030125Y-72802441D01*
X118030126Y-72802444D01*
X118030127Y-72802445D01*
X118108768Y-72956788D01*
X118210586Y-73096928D01*
X118333072Y-73219414D01*
X118473212Y-73321232D01*
X118627555Y-73399873D01*
X118627557Y-73399873D01*
X118627558Y-73399874D01*
X118627561Y-73399876D01*
X118792293Y-73453401D01*
X118792297Y-73453402D01*
X118829011Y-73459217D01*
X118883527Y-73486994D01*
X118911305Y-73541511D01*
X118902213Y-73598914D01*
X118902574Y-73599064D01*
X118901952Y-73600565D01*
X118901734Y-73601943D01*
X118900248Y-73604677D01*
X118900091Y-73605056D01*
X118882330Y-73671339D01*
X118874500Y-73700565D01*
X118874500Y-73799435D01*
X118881502Y-73825565D01*
X118900091Y-73894942D01*
X118949523Y-73980559D01*
X118949525Y-73980562D01*
X119019438Y-74050475D01*
X119061666Y-74074855D01*
X119081445Y-74086275D01*
X119122385Y-74131745D01*
X119128780Y-74192595D01*
X119101949Y-74242013D01*
X119074524Y-74269438D01*
X119025091Y-74355057D01*
X119014539Y-74394438D01*
X118999500Y-74450565D01*
X118999500Y-74549435D01*
X119014405Y-74605062D01*
X119025091Y-74644942D01*
X119069448Y-74721769D01*
X119074525Y-74730562D01*
X119144438Y-74800475D01*
X119144440Y-74800476D01*
X119230058Y-74849908D01*
X119230056Y-74849908D01*
X119230060Y-74849909D01*
X119230062Y-74849910D01*
X119325565Y-74875500D01*
X119325567Y-74875500D01*
X119424433Y-74875500D01*
X119424435Y-74875500D01*
X119519938Y-74849910D01*
X119519940Y-74849908D01*
X119519942Y-74849908D01*
X119545377Y-74835222D01*
X119605562Y-74800475D01*
X119675475Y-74730562D01*
X119710222Y-74670377D01*
X119724908Y-74644942D01*
X119724908Y-74644940D01*
X119724910Y-74644938D01*
X119750500Y-74549435D01*
X119750500Y-74450565D01*
X121999500Y-74450565D01*
X121999500Y-74549435D01*
X122014405Y-74605062D01*
X122025091Y-74644942D01*
X122069448Y-74721769D01*
X122074525Y-74730562D01*
X122144438Y-74800475D01*
X122144440Y-74800476D01*
X122230058Y-74849908D01*
X122230056Y-74849908D01*
X122230060Y-74849909D01*
X122230062Y-74849910D01*
X122325565Y-74875500D01*
X122325567Y-74875500D01*
X122424433Y-74875500D01*
X122424435Y-74875500D01*
X122519938Y-74849910D01*
X122519940Y-74849908D01*
X122519942Y-74849908D01*
X122545377Y-74835222D01*
X122605562Y-74800475D01*
X122675475Y-74730562D01*
X122710222Y-74670377D01*
X122724908Y-74644942D01*
X122724908Y-74644940D01*
X122724910Y-74644938D01*
X122750500Y-74549435D01*
X122750500Y-74450565D01*
X122724910Y-74355062D01*
X122724908Y-74355059D01*
X122724908Y-74355057D01*
X122675476Y-74269440D01*
X122675475Y-74269438D01*
X122605562Y-74199525D01*
X122593559Y-74192595D01*
X122519941Y-74150091D01*
X122519943Y-74150091D01*
X122482885Y-74140161D01*
X122424435Y-74124500D01*
X122325565Y-74124500D01*
X122267114Y-74140161D01*
X122230057Y-74150091D01*
X122144440Y-74199523D01*
X122074523Y-74269440D01*
X122025091Y-74355057D01*
X122014539Y-74394438D01*
X121999500Y-74450565D01*
X119750500Y-74450565D01*
X119724910Y-74355062D01*
X119724908Y-74355059D01*
X119724908Y-74355057D01*
X119675476Y-74269440D01*
X119675475Y-74269438D01*
X119605562Y-74199525D01*
X119593559Y-74192595D01*
X119543554Y-74163724D01*
X119502614Y-74118254D01*
X119496219Y-74057404D01*
X119523051Y-74007985D01*
X119550475Y-73980562D01*
X119599910Y-73894938D01*
X119625500Y-73799435D01*
X119625500Y-73700565D01*
X119599910Y-73605062D01*
X119599908Y-73605059D01*
X119599908Y-73605057D01*
X119550476Y-73519440D01*
X119550475Y-73519438D01*
X119541279Y-73510242D01*
X119513504Y-73455728D01*
X119523075Y-73395296D01*
X119566338Y-73352032D01*
X119566341Y-73352031D01*
X119626783Y-73321235D01*
X119626784Y-73321234D01*
X119626783Y-73321234D01*
X119626788Y-73321232D01*
X119766928Y-73219414D01*
X119889414Y-73096928D01*
X119991232Y-72956788D01*
X120069873Y-72802445D01*
X120069874Y-72802440D01*
X120069876Y-72802438D01*
X120123401Y-72637706D01*
X120123402Y-72637702D01*
X120150500Y-72466614D01*
X120150500Y-72293384D01*
X120150499Y-72293378D01*
X120123402Y-72122297D01*
X120123401Y-72122293D01*
X120069876Y-71957561D01*
X120069874Y-71957558D01*
X120069873Y-71957557D01*
X120069873Y-71957555D01*
X119991232Y-71803212D01*
X119889414Y-71663072D01*
X119805343Y-71579001D01*
X119777568Y-71524487D01*
X119787139Y-71464055D01*
X119830404Y-71420790D01*
X119875349Y-71410000D01*
X120764651Y-71410000D01*
X120822842Y-71428907D01*
X120858806Y-71478407D01*
X120858806Y-71539593D01*
X120834656Y-71579001D01*
X120750586Y-71663072D01*
X120750585Y-71663073D01*
X120648766Y-71803214D01*
X120570125Y-71957558D01*
X120570123Y-71957561D01*
X120516598Y-72122293D01*
X120516597Y-72122297D01*
X120489501Y-72293378D01*
X120489500Y-72293384D01*
X120489500Y-72466614D01*
X120516597Y-72637702D01*
X120516598Y-72637706D01*
X120570123Y-72802438D01*
X120570125Y-72802441D01*
X120570126Y-72802444D01*
X120570127Y-72802445D01*
X120648768Y-72956788D01*
X120750586Y-73096928D01*
X120873072Y-73219414D01*
X121013212Y-73321232D01*
X121167555Y-73399873D01*
X121167557Y-73399873D01*
X121167558Y-73399874D01*
X121167561Y-73399876D01*
X121332293Y-73453401D01*
X121332297Y-73453402D01*
X121503386Y-73480500D01*
X121503389Y-73480500D01*
X121676614Y-73480500D01*
X121847702Y-73453402D01*
X121847706Y-73453401D01*
X122012438Y-73399876D01*
X122012440Y-73399874D01*
X122012445Y-73399873D01*
X122166788Y-73321232D01*
X122306928Y-73219414D01*
X122429414Y-73096928D01*
X122531232Y-72956788D01*
X122609873Y-72802445D01*
X122609874Y-72802440D01*
X122609876Y-72802438D01*
X122663401Y-72637706D01*
X122663402Y-72637702D01*
X122690500Y-72466614D01*
X122690500Y-72293384D01*
X122690499Y-72293378D01*
X122663402Y-72122297D01*
X122663401Y-72122293D01*
X122609876Y-71957561D01*
X122609874Y-71957558D01*
X122609873Y-71957557D01*
X122609873Y-71957555D01*
X122531232Y-71803212D01*
X122429414Y-71663072D01*
X122345343Y-71579001D01*
X122317568Y-71524487D01*
X122327139Y-71464055D01*
X122370404Y-71420790D01*
X122415349Y-71410000D01*
X123304651Y-71410000D01*
X123362842Y-71428907D01*
X123398806Y-71478407D01*
X123398806Y-71539593D01*
X123374656Y-71579001D01*
X123290586Y-71663072D01*
X123290585Y-71663073D01*
X123188766Y-71803214D01*
X123110125Y-71957558D01*
X123110123Y-71957561D01*
X123056598Y-72122293D01*
X123056597Y-72122297D01*
X123029501Y-72293378D01*
X123029500Y-72293384D01*
X123029500Y-72466614D01*
X123056597Y-72637702D01*
X123056598Y-72637706D01*
X123110123Y-72802438D01*
X123110125Y-72802441D01*
X123110126Y-72802444D01*
X123110127Y-72802445D01*
X123188768Y-72956788D01*
X123290586Y-73096928D01*
X123413072Y-73219414D01*
X123553212Y-73321232D01*
X123707555Y-73399873D01*
X123707557Y-73399873D01*
X123707558Y-73399874D01*
X123707561Y-73399876D01*
X123872293Y-73453401D01*
X123872297Y-73453402D01*
X124043386Y-73480500D01*
X124043389Y-73480500D01*
X124216614Y-73480500D01*
X124387702Y-73453402D01*
X124387706Y-73453401D01*
X124552438Y-73399876D01*
X124552440Y-73399874D01*
X124552445Y-73399873D01*
X124706788Y-73321232D01*
X124846928Y-73219414D01*
X124969414Y-73096928D01*
X125071232Y-72956788D01*
X125149873Y-72802445D01*
X125149874Y-72802440D01*
X125149876Y-72802438D01*
X125203401Y-72637706D01*
X125203402Y-72637702D01*
X125230500Y-72466614D01*
X125230500Y-72293384D01*
X125230499Y-72293378D01*
X125203402Y-72122297D01*
X125203401Y-72122293D01*
X125149876Y-71957561D01*
X125149874Y-71957558D01*
X125149873Y-71957557D01*
X125149873Y-71957555D01*
X125071232Y-71803212D01*
X124969414Y-71663072D01*
X124885343Y-71579001D01*
X124857568Y-71524487D01*
X124867139Y-71464055D01*
X124910404Y-71420790D01*
X124955349Y-71410000D01*
X125844651Y-71410000D01*
X125902842Y-71428907D01*
X125938806Y-71478407D01*
X125938806Y-71539593D01*
X125914656Y-71579001D01*
X125830586Y-71663072D01*
X125830585Y-71663073D01*
X125728766Y-71803214D01*
X125650125Y-71957558D01*
X125650123Y-71957561D01*
X125596598Y-72122293D01*
X125596597Y-72122297D01*
X125569501Y-72293378D01*
X125569500Y-72293384D01*
X125569500Y-72466614D01*
X125596597Y-72637702D01*
X125596598Y-72637706D01*
X125650123Y-72802438D01*
X125650125Y-72802441D01*
X125650126Y-72802444D01*
X125650127Y-72802445D01*
X125728768Y-72956788D01*
X125830586Y-73096928D01*
X125953072Y-73219414D01*
X126093212Y-73321232D01*
X126247555Y-73399873D01*
X126247557Y-73399873D01*
X126247558Y-73399874D01*
X126247561Y-73399876D01*
X126412293Y-73453401D01*
X126412297Y-73453402D01*
X126583386Y-73480500D01*
X126583389Y-73480500D01*
X126756614Y-73480500D01*
X126927702Y-73453402D01*
X126927706Y-73453401D01*
X127092438Y-73399876D01*
X127092440Y-73399874D01*
X127092445Y-73399873D01*
X127246788Y-73321232D01*
X127386928Y-73219414D01*
X127509414Y-73096928D01*
X127611232Y-72956788D01*
X127689873Y-72802445D01*
X127689874Y-72802440D01*
X127689876Y-72802438D01*
X127743401Y-72637706D01*
X127743402Y-72637702D01*
X127770500Y-72466614D01*
X127770500Y-72293384D01*
X127770499Y-72293378D01*
X127743402Y-72122297D01*
X127743401Y-72122293D01*
X127689876Y-71957561D01*
X127689874Y-71957558D01*
X127689873Y-71957557D01*
X127689873Y-71957555D01*
X127611232Y-71803212D01*
X127509414Y-71663072D01*
X127425343Y-71579001D01*
X127397568Y-71524487D01*
X127407139Y-71464055D01*
X127450404Y-71420790D01*
X127495349Y-71410000D01*
X128384651Y-71410000D01*
X128442842Y-71428907D01*
X128478806Y-71478407D01*
X128478806Y-71539593D01*
X128454656Y-71579001D01*
X128370586Y-71663072D01*
X128370585Y-71663073D01*
X128268766Y-71803214D01*
X128190125Y-71957558D01*
X128190123Y-71957561D01*
X128136598Y-72122293D01*
X128136597Y-72122297D01*
X128109501Y-72293378D01*
X128109500Y-72293384D01*
X128109500Y-72466614D01*
X128136597Y-72637702D01*
X128136598Y-72637706D01*
X128190123Y-72802438D01*
X128190125Y-72802441D01*
X128190126Y-72802444D01*
X128190127Y-72802445D01*
X128268768Y-72956788D01*
X128370586Y-73096928D01*
X128493072Y-73219414D01*
X128633212Y-73321232D01*
X128787555Y-73399873D01*
X128787557Y-73399873D01*
X128787558Y-73399874D01*
X128787561Y-73399876D01*
X128952293Y-73453401D01*
X128952297Y-73453402D01*
X129123386Y-73480500D01*
X129123389Y-73480500D01*
X129296614Y-73480500D01*
X129467702Y-73453402D01*
X129467706Y-73453401D01*
X129632438Y-73399876D01*
X129632440Y-73399874D01*
X129632445Y-73399873D01*
X129786788Y-73321232D01*
X129926928Y-73219414D01*
X130049414Y-73096928D01*
X130151232Y-72956788D01*
X130229873Y-72802445D01*
X130229874Y-72802440D01*
X130229876Y-72802438D01*
X130283401Y-72637706D01*
X130283402Y-72637702D01*
X130310500Y-72466614D01*
X130310500Y-72293384D01*
X130310499Y-72293378D01*
X130283402Y-72122297D01*
X130283401Y-72122293D01*
X130229876Y-71957561D01*
X130229874Y-71957558D01*
X130229873Y-71957557D01*
X130229873Y-71957555D01*
X130151232Y-71803212D01*
X130049414Y-71663072D01*
X129965343Y-71579001D01*
X129937568Y-71524487D01*
X129947139Y-71464055D01*
X129990404Y-71420790D01*
X130035349Y-71410000D01*
X130924651Y-71410000D01*
X130982842Y-71428907D01*
X131018806Y-71478407D01*
X131018806Y-71539593D01*
X130994656Y-71579001D01*
X130910586Y-71663072D01*
X130910585Y-71663073D01*
X130808766Y-71803214D01*
X130730125Y-71957558D01*
X130730123Y-71957561D01*
X130676598Y-72122293D01*
X130676597Y-72122297D01*
X130649501Y-72293378D01*
X130649500Y-72293384D01*
X130649500Y-72466614D01*
X130676597Y-72637702D01*
X130676598Y-72637706D01*
X130730123Y-72802438D01*
X130730125Y-72802441D01*
X130730126Y-72802444D01*
X130730127Y-72802445D01*
X130808768Y-72956788D01*
X130910586Y-73096928D01*
X131033072Y-73219414D01*
X131173212Y-73321232D01*
X131327555Y-73399873D01*
X131327557Y-73399873D01*
X131327558Y-73399874D01*
X131327561Y-73399876D01*
X131492293Y-73453401D01*
X131492297Y-73453402D01*
X131663386Y-73480500D01*
X131663389Y-73480500D01*
X131836614Y-73480500D01*
X132007702Y-73453402D01*
X132007706Y-73453401D01*
X132172438Y-73399876D01*
X132172440Y-73399874D01*
X132172445Y-73399873D01*
X132326788Y-73321232D01*
X132466928Y-73219414D01*
X132589414Y-73096928D01*
X132691232Y-72956788D01*
X132769873Y-72802445D01*
X132769874Y-72802440D01*
X132769876Y-72802438D01*
X132823401Y-72637706D01*
X132823402Y-72637702D01*
X132850500Y-72466614D01*
X132850500Y-72293384D01*
X132850499Y-72293378D01*
X132823402Y-72122297D01*
X132823401Y-72122293D01*
X132769876Y-71957561D01*
X132769874Y-71957558D01*
X132769873Y-71957557D01*
X132769873Y-71957555D01*
X132691232Y-71803212D01*
X132589414Y-71663072D01*
X132505343Y-71579001D01*
X132477568Y-71524487D01*
X132487139Y-71464055D01*
X132530404Y-71420790D01*
X132575349Y-71410000D01*
X133464651Y-71410000D01*
X133522842Y-71428907D01*
X133558806Y-71478407D01*
X133558806Y-71539593D01*
X133534656Y-71579001D01*
X133450586Y-71663072D01*
X133450585Y-71663073D01*
X133348766Y-71803214D01*
X133270125Y-71957558D01*
X133270123Y-71957561D01*
X133216598Y-72122293D01*
X133216597Y-72122297D01*
X133189501Y-72293378D01*
X133189500Y-72293384D01*
X133189500Y-72466614D01*
X133216597Y-72637702D01*
X133216598Y-72637706D01*
X133270123Y-72802438D01*
X133270125Y-72802441D01*
X133270126Y-72802444D01*
X133270127Y-72802445D01*
X133348768Y-72956788D01*
X133450586Y-73096928D01*
X133573072Y-73219414D01*
X133713212Y-73321232D01*
X133867555Y-73399873D01*
X133867557Y-73399873D01*
X133867558Y-73399874D01*
X133867561Y-73399876D01*
X134032293Y-73453401D01*
X134032297Y-73453402D01*
X134203386Y-73480500D01*
X134203389Y-73480500D01*
X134376614Y-73480500D01*
X134547702Y-73453402D01*
X134547706Y-73453401D01*
X134712438Y-73399876D01*
X134712440Y-73399874D01*
X134712445Y-73399873D01*
X134866788Y-73321232D01*
X135006928Y-73219414D01*
X135129414Y-73096928D01*
X135231232Y-72956788D01*
X135309873Y-72802445D01*
X135309874Y-72802440D01*
X135309876Y-72802438D01*
X135363401Y-72637706D01*
X135363402Y-72637702D01*
X135390500Y-72466614D01*
X135390500Y-72293385D01*
X135363402Y-72122297D01*
X135363401Y-72122293D01*
X135309876Y-71957561D01*
X135309874Y-71957558D01*
X135309873Y-71957557D01*
X135309873Y-71957555D01*
X135231232Y-71803212D01*
X135129414Y-71663072D01*
X135045343Y-71579001D01*
X135017568Y-71524487D01*
X135027139Y-71464055D01*
X135070404Y-71420790D01*
X135115349Y-71410000D01*
X136031125Y-71410000D01*
X136089316Y-71428907D01*
X136101129Y-71438996D01*
X136561859Y-71899726D01*
X136492292Y-71939890D01*
X136389890Y-72042292D01*
X136349726Y-72111859D01*
X135917423Y-71679556D01*
X135846433Y-71777265D01*
X135846431Y-71777269D01*
X135764250Y-71938559D01*
X135708316Y-72110710D01*
X135680000Y-72289489D01*
X135680000Y-72470510D01*
X135708316Y-72649289D01*
X135764250Y-72821440D01*
X135846430Y-72982728D01*
X135917424Y-73080442D01*
X136349725Y-72648139D01*
X136389890Y-72717708D01*
X136492292Y-72820110D01*
X136561857Y-72860273D01*
X136129556Y-73292574D01*
X136129556Y-73292575D01*
X136227263Y-73363564D01*
X136227269Y-73363568D01*
X136388559Y-73445749D01*
X136560710Y-73501683D01*
X136739490Y-73530000D01*
X136920510Y-73530000D01*
X137099289Y-73501683D01*
X137271440Y-73445749D01*
X137432730Y-73363568D01*
X137432735Y-73363564D01*
X137530442Y-73292575D01*
X137530442Y-73292574D01*
X137098141Y-72860273D01*
X137167708Y-72820110D01*
X137270110Y-72717708D01*
X137310273Y-72648141D01*
X137742574Y-73080442D01*
X137742575Y-73080442D01*
X137813564Y-72982735D01*
X137813568Y-72982730D01*
X137895749Y-72821440D01*
X137951683Y-72649289D01*
X137980000Y-72470510D01*
X137980000Y-72289489D01*
X137951683Y-72110710D01*
X137895749Y-71938559D01*
X137813568Y-71777269D01*
X137813564Y-71777263D01*
X137742575Y-71679556D01*
X137742574Y-71679556D01*
X137310273Y-72111857D01*
X137270110Y-72042292D01*
X137167708Y-71939890D01*
X137098139Y-71899725D01*
X137558870Y-71438996D01*
X137613387Y-71411219D01*
X137628874Y-71410000D01*
X138544651Y-71410000D01*
X138602842Y-71428907D01*
X138638806Y-71478407D01*
X138638806Y-71539593D01*
X138614656Y-71579001D01*
X138530586Y-71663072D01*
X138530585Y-71663073D01*
X138428766Y-71803214D01*
X138350125Y-71957558D01*
X138350123Y-71957561D01*
X138296598Y-72122293D01*
X138296597Y-72122297D01*
X138269501Y-72293378D01*
X138269500Y-72293384D01*
X138269500Y-72466614D01*
X138296597Y-72637702D01*
X138296598Y-72637706D01*
X138350123Y-72802438D01*
X138350125Y-72802441D01*
X138350126Y-72802444D01*
X138350127Y-72802445D01*
X138428768Y-72956788D01*
X138530586Y-73096928D01*
X138653072Y-73219414D01*
X138793212Y-73321232D01*
X138947555Y-73399873D01*
X138947557Y-73399873D01*
X138947558Y-73399874D01*
X138947561Y-73399876D01*
X139112293Y-73453401D01*
X139112297Y-73453402D01*
X139283386Y-73480500D01*
X139283389Y-73480500D01*
X139456614Y-73480500D01*
X139627702Y-73453402D01*
X139627706Y-73453401D01*
X139792438Y-73399876D01*
X139792440Y-73399874D01*
X139792445Y-73399873D01*
X139946788Y-73321232D01*
X140086928Y-73219414D01*
X140209414Y-73096928D01*
X140311232Y-72956788D01*
X140389873Y-72802445D01*
X140389874Y-72802440D01*
X140389876Y-72802438D01*
X140422977Y-72700565D01*
X141874500Y-72700565D01*
X141874500Y-72799435D01*
X141890051Y-72857471D01*
X141900091Y-72894942D01*
X141935797Y-72956785D01*
X141949525Y-72980562D01*
X142019438Y-73050475D01*
X142019440Y-73050476D01*
X142105058Y-73099908D01*
X142105056Y-73099908D01*
X142105060Y-73099909D01*
X142105062Y-73099910D01*
X142200565Y-73125500D01*
X142200567Y-73125500D01*
X142299433Y-73125500D01*
X142299435Y-73125500D01*
X142394938Y-73099910D01*
X142394940Y-73099908D01*
X142394942Y-73099908D01*
X142420377Y-73085222D01*
X142480562Y-73050475D01*
X142550475Y-72980562D01*
X142599910Y-72894938D01*
X142625500Y-72799435D01*
X142625500Y-72700565D01*
X142599910Y-72605062D01*
X142599908Y-72605059D01*
X142599908Y-72605057D01*
X142550476Y-72519440D01*
X142550475Y-72519438D01*
X142480562Y-72449525D01*
X142480559Y-72449523D01*
X142394941Y-72400091D01*
X142394943Y-72400091D01*
X142357885Y-72390161D01*
X142299435Y-72374500D01*
X142200565Y-72374500D01*
X142142114Y-72390161D01*
X142105057Y-72400091D01*
X142019440Y-72449523D01*
X141949523Y-72519440D01*
X141900091Y-72605057D01*
X141900090Y-72605062D01*
X141874500Y-72700565D01*
X140422977Y-72700565D01*
X140435025Y-72663486D01*
X140435025Y-72663483D01*
X140436121Y-72660107D01*
X140443402Y-72637701D01*
X140464479Y-72504629D01*
X140470500Y-72466614D01*
X140470500Y-72293384D01*
X140470499Y-72293378D01*
X140443402Y-72122297D01*
X140443401Y-72122293D01*
X140389876Y-71957561D01*
X140389874Y-71957558D01*
X140389873Y-71957557D01*
X140389873Y-71957555D01*
X140311232Y-71803212D01*
X140209414Y-71663072D01*
X140125343Y-71579001D01*
X140097568Y-71524487D01*
X140107139Y-71464055D01*
X140150404Y-71420790D01*
X140195349Y-71410000D01*
X142781000Y-71410000D01*
X142839191Y-71428907D01*
X142875155Y-71478407D01*
X142880000Y-71509000D01*
X142880000Y-88491000D01*
X142861093Y-88549191D01*
X142811593Y-88585155D01*
X142781000Y-88590000D01*
X140195349Y-88590000D01*
X140137158Y-88571093D01*
X140101194Y-88521593D01*
X140101194Y-88460407D01*
X140125343Y-88420998D01*
X140209414Y-88336928D01*
X140311232Y-88196788D01*
X140389873Y-88042445D01*
X140389874Y-88042440D01*
X140389876Y-88042438D01*
X140443401Y-87877706D01*
X140443402Y-87877702D01*
X140470500Y-87706614D01*
X140470500Y-87533384D01*
X140470499Y-87533378D01*
X140443402Y-87362297D01*
X140443401Y-87362293D01*
X140389876Y-87197561D01*
X140389874Y-87197558D01*
X140389873Y-87197557D01*
X140389873Y-87197555D01*
X140311232Y-87043212D01*
X140209414Y-86903072D01*
X140086928Y-86780586D01*
X139946788Y-86678768D01*
X139946787Y-86678767D01*
X139946785Y-86678766D01*
X139792441Y-86600125D01*
X139792438Y-86600123D01*
X139627706Y-86546598D01*
X139627702Y-86546597D01*
X139456614Y-86519500D01*
X139456611Y-86519500D01*
X139283389Y-86519500D01*
X139283386Y-86519500D01*
X139112297Y-86546597D01*
X139112293Y-86546598D01*
X138947561Y-86600123D01*
X138947558Y-86600125D01*
X138793214Y-86678766D01*
X138653073Y-86780585D01*
X138530585Y-86903073D01*
X138428766Y-87043214D01*
X138350125Y-87197558D01*
X138350123Y-87197561D01*
X138296598Y-87362293D01*
X138296597Y-87362297D01*
X138269501Y-87533378D01*
X138269500Y-87533384D01*
X138269500Y-87706614D01*
X138296597Y-87877702D01*
X138296598Y-87877706D01*
X138350123Y-88042438D01*
X138350125Y-88042441D01*
X138350126Y-88042444D01*
X138350127Y-88042445D01*
X138428768Y-88196788D01*
X138530586Y-88336928D01*
X138614656Y-88420998D01*
X138642432Y-88475513D01*
X138632861Y-88535945D01*
X138589596Y-88579210D01*
X138544651Y-88590000D01*
X137655349Y-88590000D01*
X137597158Y-88571093D01*
X137561194Y-88521593D01*
X137561194Y-88460407D01*
X137585343Y-88420998D01*
X137669414Y-88336928D01*
X137771232Y-88196788D01*
X137849873Y-88042445D01*
X137849874Y-88042440D01*
X137849876Y-88042438D01*
X137903401Y-87877706D01*
X137903402Y-87877702D01*
X137930500Y-87706614D01*
X137930500Y-87533384D01*
X137930499Y-87533378D01*
X137903402Y-87362297D01*
X137903401Y-87362293D01*
X137849876Y-87197561D01*
X137849874Y-87197558D01*
X137849873Y-87197557D01*
X137849873Y-87197555D01*
X137771232Y-87043212D01*
X137669414Y-86903072D01*
X137546928Y-86780586D01*
X137406788Y-86678768D01*
X137406787Y-86678767D01*
X137406785Y-86678766D01*
X137252441Y-86600125D01*
X137252438Y-86600123D01*
X137087706Y-86546598D01*
X137087702Y-86546597D01*
X136916614Y-86519500D01*
X136916611Y-86519500D01*
X136743389Y-86519500D01*
X136743386Y-86519500D01*
X136572297Y-86546597D01*
X136572293Y-86546598D01*
X136407561Y-86600123D01*
X136407558Y-86600125D01*
X136253214Y-86678766D01*
X136113073Y-86780585D01*
X135990585Y-86903073D01*
X135888766Y-87043214D01*
X135810125Y-87197558D01*
X135810123Y-87197561D01*
X135756598Y-87362293D01*
X135756597Y-87362297D01*
X135729501Y-87533378D01*
X135729500Y-87533384D01*
X135729500Y-87706614D01*
X135756597Y-87877702D01*
X135756598Y-87877706D01*
X135810123Y-88042438D01*
X135810125Y-88042441D01*
X135810126Y-88042444D01*
X135810127Y-88042445D01*
X135888768Y-88196788D01*
X135990586Y-88336928D01*
X136074656Y-88420998D01*
X136102432Y-88475513D01*
X136092861Y-88535945D01*
X136049596Y-88579210D01*
X136004651Y-88590000D01*
X135115349Y-88590000D01*
X135057158Y-88571093D01*
X135021194Y-88521593D01*
X135021194Y-88460407D01*
X135045343Y-88420998D01*
X135129414Y-88336928D01*
X135231232Y-88196788D01*
X135309873Y-88042445D01*
X135309874Y-88042440D01*
X135309876Y-88042438D01*
X135363401Y-87877706D01*
X135363402Y-87877702D01*
X135390500Y-87706614D01*
X135390500Y-87533384D01*
X135390499Y-87533378D01*
X135363402Y-87362297D01*
X135363401Y-87362293D01*
X135309876Y-87197561D01*
X135309874Y-87197558D01*
X135309873Y-87197557D01*
X135309873Y-87197555D01*
X135231232Y-87043212D01*
X135129414Y-86903072D01*
X135006928Y-86780586D01*
X134866788Y-86678768D01*
X134866787Y-86678767D01*
X134866785Y-86678766D01*
X134712441Y-86600125D01*
X134712438Y-86600123D01*
X134547706Y-86546598D01*
X134547702Y-86546597D01*
X134376614Y-86519500D01*
X134376611Y-86519500D01*
X134203389Y-86519500D01*
X134203386Y-86519500D01*
X134032297Y-86546597D01*
X134032293Y-86546598D01*
X133867561Y-86600123D01*
X133867558Y-86600125D01*
X133713214Y-86678766D01*
X133573073Y-86780585D01*
X133450585Y-86903073D01*
X133348766Y-87043214D01*
X133270125Y-87197558D01*
X133270123Y-87197561D01*
X133216598Y-87362293D01*
X133216597Y-87362297D01*
X133189501Y-87533378D01*
X133189500Y-87533384D01*
X133189500Y-87706614D01*
X133216597Y-87877702D01*
X133216598Y-87877706D01*
X133270123Y-88042438D01*
X133270125Y-88042441D01*
X133270126Y-88042444D01*
X133270127Y-88042445D01*
X133348768Y-88196788D01*
X133450586Y-88336928D01*
X133534656Y-88420998D01*
X133562432Y-88475513D01*
X133552861Y-88535945D01*
X133509596Y-88579210D01*
X133464651Y-88590000D01*
X132548875Y-88590000D01*
X132490684Y-88571093D01*
X132478871Y-88561004D01*
X132018140Y-88100273D01*
X132087708Y-88060110D01*
X132190110Y-87957708D01*
X132230273Y-87888141D01*
X132662574Y-88320442D01*
X132662575Y-88320442D01*
X132733564Y-88222735D01*
X132733568Y-88222730D01*
X132815749Y-88061440D01*
X132871683Y-87889289D01*
X132900000Y-87710510D01*
X132900000Y-87529489D01*
X132871683Y-87350710D01*
X132815749Y-87178559D01*
X132733568Y-87017269D01*
X132733564Y-87017263D01*
X132662575Y-86919556D01*
X132662574Y-86919556D01*
X132230273Y-87351857D01*
X132190110Y-87282292D01*
X132087708Y-87179890D01*
X132018139Y-87139725D01*
X132450442Y-86707424D01*
X132352728Y-86636430D01*
X132191440Y-86554250D01*
X132019289Y-86498316D01*
X131840510Y-86470000D01*
X131659490Y-86470000D01*
X131480710Y-86498316D01*
X131308559Y-86554250D01*
X131147269Y-86636431D01*
X131147265Y-86636433D01*
X131049556Y-86707423D01*
X131481859Y-87139726D01*
X131412292Y-87179890D01*
X131309890Y-87282292D01*
X131269726Y-87351859D01*
X130837423Y-86919556D01*
X130766433Y-87017265D01*
X130766431Y-87017269D01*
X130684250Y-87178559D01*
X130628316Y-87350710D01*
X130600000Y-87529489D01*
X130600000Y-87710510D01*
X130628316Y-87889289D01*
X130684250Y-88061440D01*
X130766430Y-88222728D01*
X130837424Y-88320442D01*
X131269725Y-87888139D01*
X131309890Y-87957708D01*
X131412292Y-88060110D01*
X131481857Y-88100273D01*
X131021126Y-88561004D01*
X130966610Y-88588781D01*
X130951123Y-88590000D01*
X130035349Y-88590000D01*
X129977158Y-88571093D01*
X129941194Y-88521593D01*
X129941194Y-88460407D01*
X129965343Y-88420998D01*
X130049414Y-88336928D01*
X130151232Y-88196788D01*
X130229873Y-88042445D01*
X130229874Y-88042440D01*
X130229876Y-88042438D01*
X130283401Y-87877706D01*
X130283402Y-87877702D01*
X130310500Y-87706614D01*
X130310500Y-87533385D01*
X130283402Y-87362297D01*
X130283401Y-87362293D01*
X130229876Y-87197561D01*
X130229874Y-87197558D01*
X130229873Y-87197557D01*
X130229873Y-87197555D01*
X130151232Y-87043212D01*
X130049414Y-86903072D01*
X129926928Y-86780586D01*
X129786788Y-86678768D01*
X129786787Y-86678767D01*
X129786785Y-86678766D01*
X129632441Y-86600125D01*
X129632438Y-86600123D01*
X129467706Y-86546598D01*
X129467702Y-86546597D01*
X129296614Y-86519500D01*
X129296611Y-86519500D01*
X129123389Y-86519500D01*
X129123386Y-86519500D01*
X128952297Y-86546597D01*
X128952293Y-86546598D01*
X128787561Y-86600123D01*
X128787558Y-86600125D01*
X128633214Y-86678766D01*
X128493073Y-86780585D01*
X128370585Y-86903073D01*
X128268766Y-87043214D01*
X128190125Y-87197558D01*
X128190123Y-87197561D01*
X128136598Y-87362293D01*
X128136597Y-87362297D01*
X128109501Y-87533378D01*
X128109500Y-87533384D01*
X128109500Y-87706614D01*
X128136597Y-87877702D01*
X128136598Y-87877706D01*
X128190123Y-88042438D01*
X128190125Y-88042441D01*
X128190126Y-88042444D01*
X128190127Y-88042445D01*
X128268768Y-88196788D01*
X128370586Y-88336928D01*
X128454656Y-88420998D01*
X128482432Y-88475513D01*
X128472861Y-88535945D01*
X128429596Y-88579210D01*
X128384651Y-88590000D01*
X127495349Y-88590000D01*
X127437158Y-88571093D01*
X127401194Y-88521593D01*
X127401194Y-88460407D01*
X127425343Y-88420998D01*
X127509414Y-88336928D01*
X127611232Y-88196788D01*
X127689873Y-88042445D01*
X127689874Y-88042440D01*
X127689876Y-88042438D01*
X127743401Y-87877706D01*
X127743402Y-87877702D01*
X127770500Y-87706614D01*
X127770500Y-87533384D01*
X127770499Y-87533378D01*
X127743402Y-87362297D01*
X127743401Y-87362293D01*
X127689876Y-87197561D01*
X127689874Y-87197558D01*
X127689873Y-87197557D01*
X127689873Y-87197555D01*
X127611232Y-87043212D01*
X127509414Y-86903072D01*
X127386928Y-86780586D01*
X127246788Y-86678768D01*
X127246787Y-86678767D01*
X127246785Y-86678766D01*
X127092441Y-86600125D01*
X127092438Y-86600123D01*
X126927706Y-86546598D01*
X126927702Y-86546597D01*
X126756614Y-86519500D01*
X126756611Y-86519500D01*
X126583389Y-86519500D01*
X126583386Y-86519500D01*
X126412297Y-86546597D01*
X126412293Y-86546598D01*
X126247561Y-86600123D01*
X126247558Y-86600125D01*
X126093214Y-86678766D01*
X125953073Y-86780585D01*
X125830585Y-86903073D01*
X125728766Y-87043214D01*
X125650125Y-87197558D01*
X125650123Y-87197561D01*
X125596598Y-87362293D01*
X125596597Y-87362297D01*
X125569501Y-87533378D01*
X125569500Y-87533384D01*
X125569500Y-87706614D01*
X125596597Y-87877702D01*
X125596598Y-87877706D01*
X125650123Y-88042438D01*
X125650125Y-88042441D01*
X125650126Y-88042444D01*
X125650127Y-88042445D01*
X125728768Y-88196788D01*
X125830586Y-88336928D01*
X125914656Y-88420998D01*
X125942432Y-88475513D01*
X125932861Y-88535945D01*
X125889596Y-88579210D01*
X125844651Y-88590000D01*
X124955349Y-88590000D01*
X124897158Y-88571093D01*
X124861194Y-88521593D01*
X124861194Y-88460407D01*
X124885343Y-88420998D01*
X124969414Y-88336928D01*
X125071232Y-88196788D01*
X125149873Y-88042445D01*
X125149874Y-88042440D01*
X125149876Y-88042438D01*
X125203401Y-87877706D01*
X125203402Y-87877702D01*
X125230500Y-87706614D01*
X125230500Y-87533384D01*
X125230499Y-87533378D01*
X125203402Y-87362297D01*
X125203401Y-87362293D01*
X125149876Y-87197561D01*
X125149874Y-87197558D01*
X125149873Y-87197557D01*
X125149873Y-87197555D01*
X125071232Y-87043212D01*
X124969414Y-86903072D01*
X124846928Y-86780586D01*
X124706788Y-86678768D01*
X124706787Y-86678767D01*
X124706785Y-86678766D01*
X124552441Y-86600125D01*
X124552438Y-86600123D01*
X124387706Y-86546598D01*
X124387702Y-86546597D01*
X124216614Y-86519500D01*
X124216611Y-86519500D01*
X124043389Y-86519500D01*
X124043386Y-86519500D01*
X123872297Y-86546597D01*
X123872293Y-86546598D01*
X123707561Y-86600123D01*
X123707558Y-86600125D01*
X123553214Y-86678766D01*
X123413073Y-86780585D01*
X123290585Y-86903073D01*
X123188766Y-87043214D01*
X123110125Y-87197558D01*
X123110123Y-87197561D01*
X123056598Y-87362293D01*
X123056597Y-87362297D01*
X123029501Y-87533378D01*
X123029500Y-87533384D01*
X123029500Y-87706614D01*
X123056597Y-87877702D01*
X123056598Y-87877706D01*
X123110123Y-88042438D01*
X123110125Y-88042441D01*
X123110126Y-88042444D01*
X123110127Y-88042445D01*
X123188768Y-88196788D01*
X123290586Y-88336928D01*
X123374656Y-88420998D01*
X123402432Y-88475513D01*
X123392861Y-88535945D01*
X123349596Y-88579210D01*
X123304651Y-88590000D01*
X122415349Y-88590000D01*
X122357158Y-88571093D01*
X122321194Y-88521593D01*
X122321194Y-88460407D01*
X122345343Y-88420998D01*
X122429414Y-88336928D01*
X122531232Y-88196788D01*
X122609873Y-88042445D01*
X122609874Y-88042440D01*
X122609876Y-88042438D01*
X122663401Y-87877706D01*
X122663402Y-87877702D01*
X122690500Y-87706614D01*
X122690500Y-87533384D01*
X122690499Y-87533378D01*
X122663402Y-87362297D01*
X122663401Y-87362293D01*
X122609876Y-87197561D01*
X122609874Y-87197558D01*
X122609873Y-87197557D01*
X122609873Y-87197555D01*
X122531232Y-87043212D01*
X122429414Y-86903072D01*
X122306928Y-86780586D01*
X122166788Y-86678768D01*
X122166787Y-86678767D01*
X122166785Y-86678766D01*
X122012441Y-86600125D01*
X122012438Y-86600123D01*
X121847706Y-86546598D01*
X121847702Y-86546597D01*
X121676614Y-86519500D01*
X121676611Y-86519500D01*
X121503389Y-86519500D01*
X121503386Y-86519500D01*
X121332297Y-86546597D01*
X121332293Y-86546598D01*
X121167561Y-86600123D01*
X121167558Y-86600125D01*
X121013214Y-86678766D01*
X120873073Y-86780585D01*
X120750585Y-86903073D01*
X120648766Y-87043214D01*
X120570125Y-87197558D01*
X120570123Y-87197561D01*
X120516598Y-87362293D01*
X120516597Y-87362297D01*
X120489501Y-87533378D01*
X120489500Y-87533384D01*
X120489500Y-87706614D01*
X120516597Y-87877702D01*
X120516598Y-87877706D01*
X120570123Y-88042438D01*
X120570125Y-88042441D01*
X120570126Y-88042444D01*
X120570127Y-88042445D01*
X120648768Y-88196788D01*
X120750586Y-88336928D01*
X120834656Y-88420998D01*
X120862432Y-88475513D01*
X120852861Y-88535945D01*
X120809596Y-88579210D01*
X120764651Y-88590000D01*
X119875349Y-88590000D01*
X119817158Y-88571093D01*
X119781194Y-88521593D01*
X119781194Y-88460407D01*
X119805343Y-88420998D01*
X119889414Y-88336928D01*
X119991232Y-88196788D01*
X120069873Y-88042445D01*
X120069874Y-88042440D01*
X120069876Y-88042438D01*
X120123401Y-87877706D01*
X120123402Y-87877702D01*
X120150500Y-87706614D01*
X120150500Y-87533384D01*
X120150499Y-87533378D01*
X120123402Y-87362297D01*
X120123401Y-87362293D01*
X120069876Y-87197561D01*
X120069874Y-87197558D01*
X120069873Y-87197557D01*
X120069873Y-87197555D01*
X119991232Y-87043212D01*
X119889414Y-86903072D01*
X119766928Y-86780586D01*
X119626788Y-86678768D01*
X119626787Y-86678767D01*
X119626785Y-86678766D01*
X119472441Y-86600125D01*
X119472438Y-86600123D01*
X119307706Y-86546598D01*
X119307702Y-86546597D01*
X119136614Y-86519500D01*
X119136611Y-86519500D01*
X118963389Y-86519500D01*
X118963386Y-86519500D01*
X118792297Y-86546597D01*
X118792293Y-86546598D01*
X118627561Y-86600123D01*
X118627558Y-86600125D01*
X118473214Y-86678766D01*
X118333073Y-86780585D01*
X118210585Y-86903073D01*
X118108766Y-87043214D01*
X118030125Y-87197558D01*
X118030123Y-87197561D01*
X117976598Y-87362293D01*
X117976597Y-87362297D01*
X117949501Y-87533378D01*
X117949500Y-87533384D01*
X117949500Y-87706614D01*
X117976597Y-87877702D01*
X117976598Y-87877706D01*
X118030123Y-88042438D01*
X118030125Y-88042441D01*
X118030126Y-88042444D01*
X118030127Y-88042445D01*
X118108768Y-88196788D01*
X118210586Y-88336928D01*
X118294656Y-88420998D01*
X118322432Y-88475513D01*
X118312861Y-88535945D01*
X118269596Y-88579210D01*
X118224651Y-88590000D01*
X117335349Y-88590000D01*
X117277158Y-88571093D01*
X117241194Y-88521593D01*
X117241194Y-88460407D01*
X117265343Y-88420998D01*
X117349414Y-88336928D01*
X117451232Y-88196788D01*
X117529873Y-88042445D01*
X117529874Y-88042440D01*
X117529876Y-88042438D01*
X117583401Y-87877706D01*
X117583402Y-87877702D01*
X117610500Y-87706614D01*
X117610500Y-87533384D01*
X117610499Y-87533378D01*
X117583402Y-87362297D01*
X117583401Y-87362293D01*
X117529876Y-87197561D01*
X117529874Y-87197558D01*
X117529873Y-87197557D01*
X117529873Y-87197555D01*
X117451232Y-87043212D01*
X117349414Y-86903072D01*
X117226928Y-86780586D01*
X117086788Y-86678768D01*
X117086787Y-86678767D01*
X117086785Y-86678766D01*
X116932441Y-86600125D01*
X116932438Y-86600123D01*
X116767706Y-86546598D01*
X116767702Y-86546597D01*
X116596614Y-86519500D01*
X116596611Y-86519500D01*
X116423389Y-86519500D01*
X116423386Y-86519500D01*
X116252297Y-86546597D01*
X116252293Y-86546598D01*
X116087561Y-86600123D01*
X116087558Y-86600125D01*
X115933214Y-86678766D01*
X115793073Y-86780585D01*
X115670585Y-86903073D01*
X115568766Y-87043214D01*
X115490125Y-87197558D01*
X115490123Y-87197561D01*
X115436598Y-87362293D01*
X115436597Y-87362297D01*
X115409501Y-87533378D01*
X115409500Y-87533384D01*
X115409500Y-87706614D01*
X115436597Y-87877702D01*
X115436598Y-87877706D01*
X115490123Y-88042438D01*
X115490125Y-88042441D01*
X115490126Y-88042444D01*
X115490127Y-88042445D01*
X115568768Y-88196788D01*
X115670586Y-88336928D01*
X115754656Y-88420998D01*
X115782432Y-88475513D01*
X115772861Y-88535945D01*
X115729596Y-88579210D01*
X115684651Y-88590000D01*
X114795349Y-88590000D01*
X114737158Y-88571093D01*
X114701194Y-88521593D01*
X114701194Y-88460407D01*
X114725343Y-88420998D01*
X114809414Y-88336928D01*
X114911232Y-88196788D01*
X114989873Y-88042445D01*
X114989874Y-88042440D01*
X114989876Y-88042438D01*
X115043401Y-87877706D01*
X115043402Y-87877702D01*
X115070500Y-87706614D01*
X115070500Y-87533384D01*
X115070499Y-87533378D01*
X115043402Y-87362297D01*
X115043401Y-87362293D01*
X114989876Y-87197561D01*
X114989874Y-87197558D01*
X114989873Y-87197557D01*
X114989873Y-87197555D01*
X114911232Y-87043212D01*
X114809414Y-86903072D01*
X114686928Y-86780586D01*
X114546788Y-86678768D01*
X114546787Y-86678767D01*
X114546785Y-86678766D01*
X114392441Y-86600125D01*
X114392438Y-86600123D01*
X114227706Y-86546598D01*
X114227702Y-86546597D01*
X114056614Y-86519500D01*
X114056611Y-86519500D01*
X113883389Y-86519500D01*
X113883386Y-86519500D01*
X113833166Y-86527454D01*
X113772734Y-86517883D01*
X113729469Y-86474618D01*
X113719898Y-86414186D01*
X113723535Y-86401287D01*
X113723230Y-86401206D01*
X113724910Y-86394938D01*
X113750500Y-86299435D01*
X113750500Y-86200565D01*
X113724910Y-86105062D01*
X113724908Y-86105059D01*
X113724908Y-86105057D01*
X113675476Y-86019440D01*
X113675475Y-86019438D01*
X113605562Y-85949525D01*
X113605559Y-85949523D01*
X113519941Y-85900091D01*
X113519943Y-85900091D01*
X113482885Y-85890161D01*
X113424435Y-85874500D01*
X113325565Y-85874500D01*
X113267114Y-85890161D01*
X113230057Y-85900091D01*
X113144440Y-85949523D01*
X113074523Y-86019440D01*
X113025091Y-86105057D01*
X113024956Y-86105562D01*
X112999500Y-86200565D01*
X112999500Y-86299435D01*
X113018516Y-86370404D01*
X113025091Y-86394942D01*
X113068427Y-86470000D01*
X113074525Y-86480562D01*
X113144438Y-86550475D01*
X113156147Y-86557235D01*
X113230058Y-86599908D01*
X113230059Y-86599908D01*
X113230062Y-86599910D01*
X113230064Y-86599910D01*
X113236054Y-86602392D01*
X113235345Y-86604102D01*
X113279379Y-86632700D01*
X113301304Y-86689822D01*
X113285467Y-86748923D01*
X113260634Y-86775091D01*
X113253077Y-86780581D01*
X113130585Y-86903073D01*
X113028766Y-87043214D01*
X112950125Y-87197558D01*
X112950123Y-87197561D01*
X112896598Y-87362293D01*
X112896597Y-87362297D01*
X112869501Y-87533378D01*
X112869500Y-87533384D01*
X112869500Y-87706614D01*
X112896597Y-87877702D01*
X112896598Y-87877706D01*
X112950123Y-88042438D01*
X112950125Y-88042441D01*
X112950126Y-88042444D01*
X112950127Y-88042445D01*
X113028768Y-88196788D01*
X113130586Y-88336928D01*
X113214656Y-88420998D01*
X113242432Y-88475513D01*
X113232861Y-88535945D01*
X113189596Y-88579210D01*
X113144651Y-88590000D01*
X112255349Y-88590000D01*
X112197158Y-88571093D01*
X112161194Y-88521593D01*
X112161194Y-88460407D01*
X112185343Y-88420998D01*
X112269414Y-88336928D01*
X112371232Y-88196788D01*
X112449873Y-88042445D01*
X112449874Y-88042440D01*
X112449876Y-88042438D01*
X112503401Y-87877706D01*
X112503402Y-87877702D01*
X112530500Y-87706614D01*
X112530500Y-87533384D01*
X112530499Y-87533378D01*
X112503402Y-87362297D01*
X112503401Y-87362293D01*
X112449876Y-87197561D01*
X112449874Y-87197558D01*
X112449873Y-87197557D01*
X112449873Y-87197555D01*
X112371232Y-87043212D01*
X112269414Y-86903072D01*
X112146928Y-86780586D01*
X112006788Y-86678768D01*
X112006787Y-86678767D01*
X112006785Y-86678766D01*
X111852441Y-86600125D01*
X111852438Y-86600123D01*
X111687706Y-86546598D01*
X111687702Y-86546597D01*
X111516614Y-86519500D01*
X111516611Y-86519500D01*
X111343389Y-86519500D01*
X111343386Y-86519500D01*
X111172297Y-86546597D01*
X111172293Y-86546598D01*
X111007561Y-86600123D01*
X111007558Y-86600125D01*
X110853214Y-86678766D01*
X110713073Y-86780585D01*
X110590585Y-86903073D01*
X110488766Y-87043214D01*
X110410125Y-87197558D01*
X110410123Y-87197561D01*
X110356598Y-87362293D01*
X110356597Y-87362297D01*
X110329501Y-87533378D01*
X110329500Y-87533384D01*
X110329500Y-87706614D01*
X110356597Y-87877702D01*
X110356598Y-87877706D01*
X110410123Y-88042438D01*
X110410125Y-88042441D01*
X110410126Y-88042444D01*
X110410127Y-88042445D01*
X110488768Y-88196788D01*
X110590586Y-88336928D01*
X110674656Y-88420998D01*
X110702432Y-88475513D01*
X110692861Y-88535945D01*
X110649596Y-88579210D01*
X110604651Y-88590000D01*
X109715349Y-88590000D01*
X109657158Y-88571093D01*
X109621194Y-88521593D01*
X109621194Y-88460407D01*
X109645343Y-88420998D01*
X109729414Y-88336928D01*
X109831232Y-88196788D01*
X109909873Y-88042445D01*
X109909874Y-88042440D01*
X109909876Y-88042438D01*
X109963401Y-87877706D01*
X109963402Y-87877702D01*
X109990500Y-87706614D01*
X109990500Y-87533384D01*
X109990499Y-87533378D01*
X109963402Y-87362297D01*
X109963401Y-87362293D01*
X109909876Y-87197561D01*
X109909874Y-87197558D01*
X109909873Y-87197557D01*
X109909873Y-87197555D01*
X109831232Y-87043212D01*
X109729414Y-86903072D01*
X109606928Y-86780586D01*
X109466788Y-86678768D01*
X109466787Y-86678767D01*
X109466785Y-86678766D01*
X109312441Y-86600125D01*
X109312438Y-86600123D01*
X109147706Y-86546598D01*
X109147702Y-86546597D01*
X108976614Y-86519500D01*
X108976611Y-86519500D01*
X108803389Y-86519500D01*
X108803386Y-86519500D01*
X108632297Y-86546597D01*
X108632293Y-86546598D01*
X108467561Y-86600123D01*
X108467558Y-86600125D01*
X108313214Y-86678766D01*
X108173073Y-86780585D01*
X108050585Y-86903073D01*
X107948766Y-87043214D01*
X107870125Y-87197558D01*
X107870123Y-87197561D01*
X107816598Y-87362293D01*
X107816597Y-87362297D01*
X107789501Y-87533378D01*
X107789500Y-87533384D01*
X107789500Y-87706614D01*
X107816597Y-87877702D01*
X107816598Y-87877706D01*
X107870123Y-88042438D01*
X107870125Y-88042441D01*
X107870126Y-88042444D01*
X107870127Y-88042445D01*
X107948768Y-88196788D01*
X108050586Y-88336928D01*
X108134656Y-88420998D01*
X108162432Y-88475513D01*
X108152861Y-88535945D01*
X108109596Y-88579210D01*
X108064651Y-88590000D01*
X107175349Y-88590000D01*
X107117158Y-88571093D01*
X107081194Y-88521593D01*
X107081194Y-88460407D01*
X107105343Y-88420998D01*
X107189414Y-88336928D01*
X107291232Y-88196788D01*
X107369873Y-88042445D01*
X107369874Y-88042440D01*
X107369876Y-88042438D01*
X107423401Y-87877706D01*
X107423402Y-87877702D01*
X107450500Y-87706614D01*
X107450500Y-87533384D01*
X107450499Y-87533378D01*
X107423402Y-87362297D01*
X107423401Y-87362293D01*
X107369876Y-87197561D01*
X107369874Y-87197558D01*
X107369873Y-87197557D01*
X107369873Y-87197555D01*
X107291232Y-87043212D01*
X107189414Y-86903072D01*
X107066928Y-86780586D01*
X106926788Y-86678768D01*
X106926787Y-86678767D01*
X106926785Y-86678766D01*
X106772441Y-86600125D01*
X106772438Y-86600123D01*
X106607706Y-86546598D01*
X106607702Y-86546597D01*
X106436614Y-86519500D01*
X106436611Y-86519500D01*
X106263389Y-86519500D01*
X106263386Y-86519500D01*
X106092297Y-86546597D01*
X106092293Y-86546598D01*
X105927561Y-86600123D01*
X105927558Y-86600125D01*
X105773214Y-86678766D01*
X105633073Y-86780585D01*
X105510585Y-86903073D01*
X105408766Y-87043214D01*
X105330125Y-87197558D01*
X105330123Y-87197561D01*
X105276598Y-87362293D01*
X105276597Y-87362297D01*
X105249501Y-87533378D01*
X105249500Y-87533384D01*
X105249500Y-87706614D01*
X105276597Y-87877702D01*
X105276598Y-87877706D01*
X105330123Y-88042438D01*
X105330125Y-88042441D01*
X105330126Y-88042444D01*
X105330127Y-88042445D01*
X105408768Y-88196788D01*
X105510586Y-88336928D01*
X105594656Y-88420998D01*
X105622432Y-88475513D01*
X105612861Y-88535945D01*
X105569596Y-88579210D01*
X105524651Y-88590000D01*
X105009500Y-88590000D01*
X104951309Y-88571093D01*
X104915345Y-88521593D01*
X104910500Y-88491000D01*
X104910500Y-86700253D01*
X104910498Y-86700241D01*
X104907711Y-86686231D01*
X104898867Y-86641769D01*
X104854552Y-86575448D01*
X104827295Y-86557235D01*
X104788233Y-86531134D01*
X104788231Y-86531133D01*
X104788228Y-86531132D01*
X104788227Y-86531132D01*
X104729758Y-86519501D01*
X104729748Y-86519500D01*
X102890252Y-86519500D01*
X102890251Y-86519500D01*
X102890241Y-86519501D01*
X102831772Y-86531132D01*
X102831766Y-86531134D01*
X102765451Y-86575445D01*
X102765445Y-86575451D01*
X102721134Y-86641766D01*
X102721132Y-86641772D01*
X102709501Y-86700241D01*
X102709500Y-86700253D01*
X102709500Y-88491000D01*
X102690593Y-88549191D01*
X102641093Y-88585155D01*
X102610500Y-88590000D01*
X100399000Y-88590000D01*
X100340809Y-88571093D01*
X100304845Y-88521593D01*
X100300000Y-88491000D01*
X100300000Y-85825565D01*
X140624500Y-85825565D01*
X140624500Y-85924435D01*
X140631223Y-85949525D01*
X140650091Y-86019942D01*
X140699233Y-86105057D01*
X140699525Y-86105562D01*
X140769438Y-86175475D01*
X140769440Y-86175476D01*
X140855058Y-86224908D01*
X140855056Y-86224908D01*
X140855060Y-86224909D01*
X140855062Y-86224910D01*
X140950565Y-86250500D01*
X140950567Y-86250500D01*
X141049433Y-86250500D01*
X141049435Y-86250500D01*
X141144938Y-86224910D01*
X141144940Y-86224908D01*
X141144942Y-86224908D01*
X141187103Y-86200566D01*
X141230562Y-86175475D01*
X141300475Y-86105562D01*
X141349910Y-86019938D01*
X141375500Y-85924435D01*
X141375500Y-85825565D01*
X141349910Y-85730062D01*
X141349908Y-85730059D01*
X141349908Y-85730057D01*
X141300476Y-85644440D01*
X141300475Y-85644438D01*
X141230562Y-85574525D01*
X141230559Y-85574523D01*
X141144941Y-85525091D01*
X141144943Y-85525091D01*
X141107885Y-85515161D01*
X141049435Y-85499500D01*
X140950565Y-85499500D01*
X140892114Y-85515161D01*
X140855057Y-85525091D01*
X140769440Y-85574523D01*
X140699523Y-85644440D01*
X140650091Y-85730057D01*
X140635783Y-85783453D01*
X140624500Y-85825565D01*
X100300000Y-85825565D01*
X100300000Y-83885879D01*
X106050000Y-83885879D01*
X106050000Y-84114120D01*
X106085702Y-84339538D01*
X106156232Y-84556607D01*
X106259848Y-84759965D01*
X106259850Y-84759969D01*
X106372646Y-84915219D01*
X106983123Y-84304741D01*
X107019881Y-84368408D01*
X107131592Y-84480119D01*
X107195255Y-84516875D01*
X106584780Y-85127351D01*
X106740036Y-85240152D01*
X106943392Y-85343767D01*
X107160461Y-85414297D01*
X107385880Y-85450000D01*
X107614120Y-85450000D01*
X107839538Y-85414297D01*
X108056607Y-85343767D01*
X108259963Y-85240152D01*
X108415219Y-85127351D01*
X107804743Y-84516875D01*
X107868408Y-84480119D01*
X107980119Y-84368408D01*
X108016875Y-84304743D01*
X108627351Y-84915219D01*
X108740152Y-84759963D01*
X108843768Y-84556605D01*
X108878223Y-84450565D01*
X116874500Y-84450565D01*
X116874500Y-84549435D01*
X116876422Y-84556607D01*
X116900091Y-84644942D01*
X116949523Y-84730559D01*
X116949525Y-84730562D01*
X117019438Y-84800475D01*
X117059368Y-84823528D01*
X117108272Y-84851764D01*
X117149212Y-84897234D01*
X117155607Y-84958084D01*
X117125014Y-85011072D01*
X117108272Y-85023236D01*
X117019439Y-85074524D01*
X116949523Y-85144440D01*
X116900091Y-85230057D01*
X116899956Y-85230562D01*
X116874500Y-85325565D01*
X116874500Y-85424435D01*
X116894614Y-85499500D01*
X116900091Y-85519942D01*
X116949523Y-85605559D01*
X116949525Y-85605562D01*
X117019438Y-85675475D01*
X117019440Y-85675476D01*
X117105058Y-85724908D01*
X117105056Y-85724908D01*
X117105060Y-85724909D01*
X117105062Y-85724910D01*
X117200565Y-85750500D01*
X117200567Y-85750500D01*
X117299433Y-85750500D01*
X117299435Y-85750500D01*
X117394938Y-85724910D01*
X117394940Y-85724908D01*
X117394942Y-85724908D01*
X117420377Y-85710222D01*
X117480562Y-85675475D01*
X117550475Y-85605562D01*
X117596935Y-85525091D01*
X117599908Y-85519942D01*
X117599908Y-85519940D01*
X117599910Y-85519938D01*
X117625500Y-85424435D01*
X117625500Y-85325565D01*
X117599910Y-85230062D01*
X117599908Y-85230059D01*
X117599908Y-85230057D01*
X117550476Y-85144440D01*
X117550475Y-85144438D01*
X117480562Y-85074525D01*
X117480559Y-85074523D01*
X117403121Y-85029813D01*
X117403118Y-85029813D01*
X117394938Y-85025090D01*
X117394937Y-85025089D01*
X117391728Y-85023237D01*
X117350787Y-84977767D01*
X117347928Y-84950565D01*
X125374500Y-84950565D01*
X125374500Y-85049435D01*
X125381223Y-85074524D01*
X125400091Y-85144942D01*
X125449233Y-85230057D01*
X125449525Y-85230562D01*
X125519438Y-85300475D01*
X125519440Y-85300476D01*
X125605058Y-85349908D01*
X125605056Y-85349908D01*
X125605060Y-85349909D01*
X125605062Y-85349910D01*
X125700565Y-85375500D01*
X125700567Y-85375500D01*
X125799433Y-85375500D01*
X125799435Y-85375500D01*
X125894938Y-85349910D01*
X125894940Y-85349908D01*
X125894942Y-85349908D01*
X125937103Y-85325566D01*
X125937105Y-85325565D01*
X130374500Y-85325565D01*
X130374500Y-85424435D01*
X130394614Y-85499500D01*
X130400091Y-85519942D01*
X130449523Y-85605559D01*
X130449525Y-85605562D01*
X130519438Y-85675475D01*
X130519440Y-85675476D01*
X130605058Y-85724908D01*
X130605056Y-85724908D01*
X130605060Y-85724909D01*
X130605062Y-85724910D01*
X130700565Y-85750500D01*
X130700567Y-85750500D01*
X130799433Y-85750500D01*
X130799435Y-85750500D01*
X130894938Y-85724910D01*
X130894940Y-85724908D01*
X130894942Y-85724908D01*
X130920377Y-85710222D01*
X130980562Y-85675475D01*
X131050475Y-85605562D01*
X131096935Y-85525091D01*
X131099908Y-85519942D01*
X131099908Y-85519940D01*
X131099910Y-85519938D01*
X131125500Y-85424435D01*
X131125500Y-85325565D01*
X131099910Y-85230062D01*
X131099908Y-85230059D01*
X131099908Y-85230057D01*
X131050476Y-85144440D01*
X131050475Y-85144438D01*
X130980562Y-85074525D01*
X130980559Y-85074523D01*
X130903118Y-85029812D01*
X130903117Y-85029812D01*
X130894940Y-85025091D01*
X130894939Y-85025090D01*
X130894938Y-85025090D01*
X130799435Y-84999500D01*
X130700565Y-84999500D01*
X130657378Y-85011072D01*
X130605057Y-85025091D01*
X130519440Y-85074523D01*
X130449523Y-85144440D01*
X130400091Y-85230057D01*
X130399956Y-85230562D01*
X130374500Y-85325565D01*
X125937105Y-85325565D01*
X125980562Y-85300475D01*
X126050475Y-85230562D01*
X126099910Y-85144938D01*
X126125500Y-85049435D01*
X126125500Y-84950565D01*
X137374500Y-84950565D01*
X137374500Y-85049435D01*
X137381223Y-85074524D01*
X137400091Y-85144942D01*
X137449233Y-85230057D01*
X137449525Y-85230562D01*
X137519438Y-85300475D01*
X137519440Y-85300476D01*
X137605058Y-85349908D01*
X137605056Y-85349908D01*
X137605060Y-85349909D01*
X137605062Y-85349910D01*
X137700565Y-85375500D01*
X137700567Y-85375500D01*
X137799433Y-85375500D01*
X137799435Y-85375500D01*
X137894938Y-85349910D01*
X137894940Y-85349908D01*
X137894942Y-85349908D01*
X137937103Y-85325566D01*
X137980562Y-85300475D01*
X138050475Y-85230562D01*
X138099910Y-85144938D01*
X138125500Y-85049435D01*
X138125500Y-84950565D01*
X138099910Y-84855062D01*
X138099908Y-84855059D01*
X138099908Y-84855057D01*
X138050476Y-84769440D01*
X138050475Y-84769438D01*
X137980562Y-84699525D01*
X137980559Y-84699523D01*
X137894941Y-84650091D01*
X137894943Y-84650091D01*
X137857885Y-84640161D01*
X137799435Y-84624500D01*
X137700565Y-84624500D01*
X137642114Y-84640161D01*
X137605057Y-84650091D01*
X137519440Y-84699523D01*
X137449523Y-84769440D01*
X137400091Y-84855057D01*
X137388790Y-84897234D01*
X137374500Y-84950565D01*
X126125500Y-84950565D01*
X126099910Y-84855062D01*
X126099908Y-84855059D01*
X126099908Y-84855057D01*
X126050476Y-84769440D01*
X126050475Y-84769438D01*
X125980562Y-84699525D01*
X125980559Y-84699523D01*
X125894941Y-84650091D01*
X125894943Y-84650091D01*
X125857885Y-84640161D01*
X125799435Y-84624500D01*
X125700565Y-84624500D01*
X125642114Y-84640161D01*
X125605057Y-84650091D01*
X125519440Y-84699523D01*
X125449523Y-84769440D01*
X125400091Y-84855057D01*
X125388790Y-84897234D01*
X125374500Y-84950565D01*
X117347928Y-84950565D01*
X117344391Y-84916917D01*
X117374984Y-84863929D01*
X117391728Y-84851764D01*
X117435373Y-84826564D01*
X117480562Y-84800475D01*
X117550475Y-84730562D01*
X117596935Y-84650091D01*
X117599908Y-84644942D01*
X117599908Y-84644940D01*
X117599910Y-84644938D01*
X117625500Y-84549435D01*
X117625500Y-84450565D01*
X117599910Y-84355062D01*
X117599908Y-84355059D01*
X117599908Y-84355057D01*
X117550476Y-84269440D01*
X117550475Y-84269438D01*
X117480562Y-84199525D01*
X117480559Y-84199523D01*
X117403118Y-84154812D01*
X117403117Y-84154812D01*
X117394940Y-84150091D01*
X117394939Y-84150090D01*
X117394938Y-84150090D01*
X117299435Y-84124500D01*
X117200565Y-84124500D01*
X117142114Y-84140161D01*
X117105057Y-84150091D01*
X117019440Y-84199523D01*
X116949523Y-84269440D01*
X116900091Y-84355057D01*
X116899956Y-84355562D01*
X116874500Y-84450565D01*
X108878223Y-84450565D01*
X108890271Y-84413484D01*
X108890271Y-84413483D01*
X108914297Y-84339538D01*
X108950000Y-84114120D01*
X108950000Y-84075565D01*
X129124500Y-84075565D01*
X129124500Y-84174435D01*
X129131223Y-84199525D01*
X129150091Y-84269942D01*
X129199233Y-84355057D01*
X129199525Y-84355562D01*
X129269438Y-84425475D01*
X129269440Y-84425476D01*
X129355058Y-84474908D01*
X129355056Y-84474908D01*
X129355060Y-84474909D01*
X129355062Y-84474910D01*
X129450565Y-84500500D01*
X129450567Y-84500500D01*
X129549433Y-84500500D01*
X129549435Y-84500500D01*
X129644938Y-84474910D01*
X129644940Y-84474908D01*
X129644942Y-84474908D01*
X129687103Y-84450566D01*
X129730562Y-84425475D01*
X129800475Y-84355562D01*
X129849910Y-84269938D01*
X129875500Y-84174435D01*
X129875500Y-84075565D01*
X134249500Y-84075565D01*
X134249500Y-84174435D01*
X134256223Y-84199525D01*
X134275091Y-84269942D01*
X134324233Y-84355057D01*
X134324525Y-84355562D01*
X134394438Y-84425475D01*
X134394440Y-84425476D01*
X134480058Y-84474908D01*
X134480056Y-84474908D01*
X134480060Y-84474909D01*
X134480062Y-84474910D01*
X134575565Y-84500500D01*
X134575567Y-84500500D01*
X134674433Y-84500500D01*
X134674435Y-84500500D01*
X134769938Y-84474910D01*
X134769940Y-84474908D01*
X134769942Y-84474908D01*
X134812103Y-84450566D01*
X134855562Y-84425475D01*
X134925475Y-84355562D01*
X134974910Y-84269938D01*
X135000500Y-84174435D01*
X135000500Y-84075565D01*
X134974910Y-83980062D01*
X134974908Y-83980059D01*
X134974908Y-83980057D01*
X134925476Y-83894440D01*
X134925475Y-83894438D01*
X134855562Y-83824525D01*
X134855559Y-83824523D01*
X134769941Y-83775091D01*
X134769943Y-83775091D01*
X134732885Y-83765161D01*
X134674435Y-83749500D01*
X134575565Y-83749500D01*
X134517114Y-83765161D01*
X134480057Y-83775091D01*
X134394440Y-83824523D01*
X134324523Y-83894440D01*
X134275091Y-83980057D01*
X134260783Y-84033453D01*
X134249500Y-84075565D01*
X129875500Y-84075565D01*
X129849910Y-83980062D01*
X129849908Y-83980059D01*
X129849908Y-83980057D01*
X129800476Y-83894440D01*
X129800475Y-83894438D01*
X129730562Y-83824525D01*
X129730559Y-83824523D01*
X129644941Y-83775091D01*
X129644943Y-83775091D01*
X129607885Y-83765161D01*
X129549435Y-83749500D01*
X129450565Y-83749500D01*
X129392114Y-83765161D01*
X129355057Y-83775091D01*
X129269440Y-83824523D01*
X129199523Y-83894440D01*
X129150091Y-83980057D01*
X129135783Y-84033453D01*
X129124500Y-84075565D01*
X108950000Y-84075565D01*
X108950000Y-83885879D01*
X108914297Y-83660461D01*
X108843767Y-83443392D01*
X108740152Y-83240036D01*
X108627351Y-83084780D01*
X108016875Y-83695255D01*
X107980119Y-83631592D01*
X107868408Y-83519881D01*
X107804742Y-83483123D01*
X108337301Y-82950565D01*
X114749500Y-82950565D01*
X114749500Y-83049435D01*
X114764539Y-83105562D01*
X114775091Y-83144942D01*
X114824523Y-83230559D01*
X114824525Y-83230562D01*
X114894438Y-83300475D01*
X114922979Y-83316953D01*
X114980058Y-83349908D01*
X114980056Y-83349908D01*
X114980060Y-83349909D01*
X114980062Y-83349910D01*
X115075565Y-83375500D01*
X115075567Y-83375500D01*
X115174433Y-83375500D01*
X115174435Y-83375500D01*
X115269938Y-83349910D01*
X115269940Y-83349908D01*
X115269942Y-83349908D01*
X115295377Y-83335222D01*
X115355562Y-83300475D01*
X115425475Y-83230562D01*
X115442794Y-83200565D01*
X115999500Y-83200565D01*
X115999500Y-83299435D01*
X116011541Y-83344372D01*
X116025091Y-83394942D01*
X116074523Y-83480559D01*
X116074525Y-83480562D01*
X116144438Y-83550475D01*
X116144440Y-83550476D01*
X116230058Y-83599908D01*
X116230056Y-83599908D01*
X116230060Y-83599909D01*
X116230062Y-83599910D01*
X116325565Y-83625500D01*
X116325567Y-83625500D01*
X116424433Y-83625500D01*
X116424435Y-83625500D01*
X116519938Y-83599910D01*
X116519940Y-83599908D01*
X116519942Y-83599908D01*
X116545377Y-83585222D01*
X116605562Y-83550475D01*
X116675475Y-83480562D01*
X116692794Y-83450565D01*
X123124500Y-83450565D01*
X123124500Y-83549435D01*
X123124779Y-83550475D01*
X123150091Y-83644942D01*
X123199523Y-83730559D01*
X123199525Y-83730562D01*
X123269438Y-83800475D01*
X123269440Y-83800476D01*
X123355058Y-83849908D01*
X123355056Y-83849908D01*
X123355060Y-83849909D01*
X123355062Y-83849910D01*
X123450565Y-83875500D01*
X123450567Y-83875500D01*
X123549433Y-83875500D01*
X123549435Y-83875500D01*
X123644938Y-83849910D01*
X123644940Y-83849908D01*
X123644942Y-83849908D01*
X123688906Y-83824525D01*
X123730562Y-83800475D01*
X123800475Y-83730562D01*
X123849910Y-83644938D01*
X123875500Y-83549435D01*
X123875500Y-83450565D01*
X130999500Y-83450565D01*
X130999500Y-83549435D01*
X130999779Y-83550475D01*
X131025091Y-83644942D01*
X131074523Y-83730559D01*
X131074525Y-83730562D01*
X131144438Y-83800475D01*
X131144440Y-83800476D01*
X131230058Y-83849908D01*
X131230056Y-83849908D01*
X131230060Y-83849909D01*
X131230062Y-83849910D01*
X131325565Y-83875500D01*
X131325567Y-83875500D01*
X131424433Y-83875500D01*
X131424435Y-83875500D01*
X131519938Y-83849910D01*
X131519940Y-83849908D01*
X131519942Y-83849908D01*
X131563906Y-83824525D01*
X131605562Y-83800475D01*
X131675475Y-83730562D01*
X131724910Y-83644938D01*
X131750500Y-83549435D01*
X131750500Y-83450565D01*
X131724910Y-83355062D01*
X131724908Y-83355059D01*
X131724908Y-83355057D01*
X131675476Y-83269440D01*
X131675475Y-83269438D01*
X131605562Y-83199525D01*
X131605559Y-83199523D01*
X131519941Y-83150091D01*
X131519943Y-83150091D01*
X131482885Y-83140161D01*
X131424435Y-83124500D01*
X131325565Y-83124500D01*
X131267114Y-83140161D01*
X131230057Y-83150091D01*
X131144440Y-83199523D01*
X131074523Y-83269440D01*
X131025091Y-83355057D01*
X131014405Y-83394938D01*
X130999500Y-83450565D01*
X123875500Y-83450565D01*
X123849910Y-83355062D01*
X123849908Y-83355059D01*
X123849908Y-83355057D01*
X123800476Y-83269440D01*
X123800475Y-83269438D01*
X123730562Y-83199525D01*
X123730559Y-83199523D01*
X123644941Y-83150091D01*
X123644943Y-83150091D01*
X123607885Y-83140161D01*
X123549435Y-83124500D01*
X123450565Y-83124500D01*
X123392114Y-83140161D01*
X123355057Y-83150091D01*
X123269440Y-83199523D01*
X123199523Y-83269440D01*
X123150091Y-83355057D01*
X123139405Y-83394938D01*
X123124500Y-83450565D01*
X116692794Y-83450565D01*
X116724910Y-83394938D01*
X116750500Y-83299435D01*
X116750500Y-83200565D01*
X116724910Y-83105062D01*
X116724908Y-83105059D01*
X116724908Y-83105057D01*
X116675476Y-83019440D01*
X116675475Y-83019438D01*
X116605562Y-82949525D01*
X116605559Y-82949523D01*
X116519941Y-82900091D01*
X116519943Y-82900091D01*
X116482885Y-82890161D01*
X116424435Y-82874500D01*
X116325565Y-82874500D01*
X116267114Y-82890161D01*
X116230057Y-82900091D01*
X116144440Y-82949523D01*
X116074523Y-83019440D01*
X116025091Y-83105057D01*
X116014405Y-83144938D01*
X115999500Y-83200565D01*
X115442794Y-83200565D01*
X115474910Y-83144938D01*
X115500500Y-83049435D01*
X115500500Y-82950565D01*
X115474910Y-82855062D01*
X115474908Y-82855059D01*
X115474908Y-82855057D01*
X115425476Y-82769440D01*
X115425475Y-82769438D01*
X115355562Y-82699525D01*
X115355559Y-82699523D01*
X115278118Y-82654812D01*
X115278117Y-82654812D01*
X115269940Y-82650091D01*
X115269939Y-82650090D01*
X115269938Y-82650090D01*
X115174435Y-82624500D01*
X115075565Y-82624500D01*
X115017114Y-82640161D01*
X114980057Y-82650091D01*
X114894440Y-82699523D01*
X114824523Y-82769440D01*
X114775091Y-82855057D01*
X114763531Y-82898199D01*
X114749500Y-82950565D01*
X108337301Y-82950565D01*
X108413794Y-82874072D01*
X108415219Y-82872646D01*
X108259969Y-82759850D01*
X108259965Y-82759848D01*
X108056607Y-82656232D01*
X107839538Y-82585702D01*
X107775534Y-82575565D01*
X118624500Y-82575565D01*
X118624500Y-82674435D01*
X118631223Y-82699525D01*
X118650091Y-82769942D01*
X118699236Y-82855062D01*
X118699525Y-82855562D01*
X118769438Y-82925475D01*
X118769440Y-82925476D01*
X118855058Y-82974908D01*
X118855056Y-82974908D01*
X118855060Y-82974909D01*
X118855062Y-82974910D01*
X118950565Y-83000500D01*
X118950567Y-83000500D01*
X119049433Y-83000500D01*
X119049435Y-83000500D01*
X119144938Y-82974910D01*
X119144940Y-82974908D01*
X119144942Y-82974908D01*
X119170377Y-82960222D01*
X119230562Y-82925475D01*
X119300475Y-82855562D01*
X119349910Y-82769938D01*
X119375500Y-82674435D01*
X119375500Y-82575911D01*
X119375612Y-82575565D01*
X120624500Y-82575565D01*
X120624500Y-82674435D01*
X120631223Y-82699525D01*
X120650091Y-82769942D01*
X120699236Y-82855062D01*
X120699525Y-82855562D01*
X120769438Y-82925475D01*
X120769440Y-82925476D01*
X120855058Y-82974908D01*
X120855056Y-82974908D01*
X120855060Y-82974909D01*
X120855062Y-82974910D01*
X120950565Y-83000500D01*
X120950567Y-83000500D01*
X121049433Y-83000500D01*
X121049435Y-83000500D01*
X121144938Y-82974910D01*
X121144940Y-82974908D01*
X121144942Y-82974908D01*
X121170377Y-82960222D01*
X121187104Y-82950565D01*
X125749500Y-82950565D01*
X125749500Y-83049435D01*
X125764539Y-83105562D01*
X125775091Y-83144942D01*
X125824523Y-83230559D01*
X125824525Y-83230562D01*
X125894438Y-83300475D01*
X125922979Y-83316953D01*
X125980058Y-83349908D01*
X125980056Y-83349908D01*
X125980060Y-83349909D01*
X125980062Y-83349910D01*
X126075565Y-83375500D01*
X126075567Y-83375500D01*
X126174433Y-83375500D01*
X126174435Y-83375500D01*
X126269938Y-83349910D01*
X126269940Y-83349908D01*
X126269942Y-83349908D01*
X126295377Y-83335222D01*
X126355562Y-83300475D01*
X126425475Y-83230562D01*
X126471935Y-83150091D01*
X126474908Y-83144942D01*
X126474908Y-83144940D01*
X126474910Y-83144938D01*
X126500500Y-83049435D01*
X126500500Y-82950565D01*
X126474910Y-82855062D01*
X126457880Y-82825566D01*
X126457879Y-82825565D01*
X128749500Y-82825565D01*
X128749500Y-82924435D01*
X128762122Y-82971541D01*
X128775091Y-83019942D01*
X128824233Y-83105057D01*
X128824525Y-83105562D01*
X128894438Y-83175475D01*
X128894440Y-83175476D01*
X128980058Y-83224908D01*
X128980056Y-83224908D01*
X128980060Y-83224909D01*
X128980062Y-83224910D01*
X129075565Y-83250500D01*
X129075567Y-83250500D01*
X129174433Y-83250500D01*
X129174435Y-83250500D01*
X129269938Y-83224910D01*
X129269940Y-83224908D01*
X129269942Y-83224908D01*
X129312103Y-83200566D01*
X129355562Y-83175475D01*
X129425475Y-83105562D01*
X129474910Y-83019938D01*
X129493498Y-82950565D01*
X134874500Y-82950565D01*
X134874500Y-83049435D01*
X134889539Y-83105562D01*
X134900091Y-83144942D01*
X134949523Y-83230559D01*
X134949525Y-83230562D01*
X135019438Y-83300475D01*
X135047979Y-83316953D01*
X135105058Y-83349908D01*
X135105056Y-83349908D01*
X135105060Y-83349909D01*
X135105062Y-83349910D01*
X135200565Y-83375500D01*
X135200567Y-83375500D01*
X135299433Y-83375500D01*
X135299435Y-83375500D01*
X135394938Y-83349910D01*
X135394940Y-83349908D01*
X135394942Y-83349908D01*
X135417087Y-83337122D01*
X135480562Y-83300475D01*
X135480569Y-83300467D01*
X135482633Y-83298885D01*
X135484400Y-83298258D01*
X135486181Y-83297231D01*
X135486371Y-83297560D01*
X135540307Y-83278458D01*
X135598974Y-83295833D01*
X135636224Y-83344372D01*
X135638530Y-83351799D01*
X135650090Y-83394939D01*
X135650091Y-83394941D01*
X135699523Y-83480559D01*
X135699525Y-83480562D01*
X135769438Y-83550475D01*
X135769440Y-83550476D01*
X135855058Y-83599908D01*
X135855056Y-83599908D01*
X135855060Y-83599909D01*
X135855062Y-83599910D01*
X135950565Y-83625500D01*
X135950567Y-83625500D01*
X136049433Y-83625500D01*
X136049435Y-83625500D01*
X136144938Y-83599910D01*
X136144940Y-83599908D01*
X136144942Y-83599908D01*
X136170377Y-83585222D01*
X136230562Y-83550475D01*
X136300475Y-83480562D01*
X136317794Y-83450565D01*
X137874500Y-83450565D01*
X137874500Y-83549435D01*
X137874779Y-83550475D01*
X137900091Y-83644942D01*
X137949523Y-83730559D01*
X137949525Y-83730562D01*
X138019438Y-83800475D01*
X138019440Y-83800476D01*
X138105058Y-83849908D01*
X138105056Y-83849908D01*
X138105060Y-83849909D01*
X138105062Y-83849910D01*
X138200565Y-83875500D01*
X138200567Y-83875500D01*
X138299433Y-83875500D01*
X138299435Y-83875500D01*
X138394938Y-83849910D01*
X138394940Y-83849908D01*
X138394942Y-83849908D01*
X138438906Y-83824525D01*
X138480562Y-83800475D01*
X138550475Y-83730562D01*
X138599910Y-83644938D01*
X138625500Y-83549435D01*
X138625500Y-83450565D01*
X138599910Y-83355062D01*
X138599908Y-83355059D01*
X138599908Y-83355057D01*
X138550476Y-83269440D01*
X138550475Y-83269438D01*
X138480562Y-83199525D01*
X138480559Y-83199523D01*
X138394941Y-83150091D01*
X138394943Y-83150091D01*
X138357885Y-83140161D01*
X138299435Y-83124500D01*
X138200565Y-83124500D01*
X138142114Y-83140161D01*
X138105057Y-83150091D01*
X138019440Y-83199523D01*
X137949523Y-83269440D01*
X137900091Y-83355057D01*
X137889405Y-83394938D01*
X137874500Y-83450565D01*
X136317794Y-83450565D01*
X136349910Y-83394938D01*
X136375500Y-83299435D01*
X136375500Y-83200565D01*
X136349910Y-83105062D01*
X136349908Y-83105059D01*
X136349908Y-83105057D01*
X136300476Y-83019440D01*
X136300475Y-83019438D01*
X136230562Y-82949525D01*
X136230559Y-82949523D01*
X136144941Y-82900091D01*
X136144943Y-82900091D01*
X136107885Y-82890161D01*
X136049435Y-82874500D01*
X135950565Y-82874500D01*
X135892114Y-82890161D01*
X135855057Y-82900091D01*
X135769434Y-82949526D01*
X135767354Y-82951123D01*
X135765585Y-82951748D01*
X135763819Y-82952769D01*
X135763629Y-82952441D01*
X135709676Y-82971541D01*
X135651012Y-82954158D01*
X135613770Y-82905612D01*
X135611471Y-82898211D01*
X135599910Y-82855062D01*
X135582880Y-82825566D01*
X135550476Y-82769440D01*
X135550475Y-82769438D01*
X135480562Y-82699525D01*
X135480559Y-82699523D01*
X135394941Y-82650091D01*
X135394943Y-82650091D01*
X135357885Y-82640161D01*
X135299435Y-82624500D01*
X135200565Y-82624500D01*
X135142114Y-82640161D01*
X135105057Y-82650091D01*
X135019440Y-82699523D01*
X134949523Y-82769440D01*
X134900091Y-82855057D01*
X134888531Y-82898199D01*
X134874500Y-82950565D01*
X129493498Y-82950565D01*
X129500500Y-82924435D01*
X129500500Y-82825565D01*
X129474910Y-82730062D01*
X129474908Y-82730059D01*
X129474908Y-82730057D01*
X129425476Y-82644440D01*
X129425475Y-82644438D01*
X129355562Y-82574525D01*
X129355559Y-82574523D01*
X129269941Y-82525091D01*
X129269943Y-82525091D01*
X129232885Y-82515161D01*
X129174435Y-82499500D01*
X129075565Y-82499500D01*
X129017114Y-82515161D01*
X128980057Y-82525091D01*
X128894440Y-82574523D01*
X128824523Y-82644440D01*
X128775091Y-82730057D01*
X128775090Y-82730062D01*
X128749500Y-82825565D01*
X126457879Y-82825565D01*
X126425476Y-82769440D01*
X126425475Y-82769438D01*
X126355562Y-82699525D01*
X126355559Y-82699523D01*
X126269941Y-82650091D01*
X126269943Y-82650091D01*
X126232885Y-82640161D01*
X126174435Y-82624500D01*
X126075565Y-82624500D01*
X126017114Y-82640161D01*
X125980057Y-82650091D01*
X125894440Y-82699523D01*
X125824523Y-82769440D01*
X125775091Y-82855057D01*
X125763531Y-82898199D01*
X125749500Y-82950565D01*
X121187104Y-82950565D01*
X121230562Y-82925475D01*
X121300475Y-82855562D01*
X121349910Y-82769938D01*
X121375500Y-82674435D01*
X121375500Y-82575565D01*
X121349910Y-82480062D01*
X121349908Y-82480059D01*
X121349908Y-82480057D01*
X121300476Y-82394440D01*
X121300475Y-82394438D01*
X121230562Y-82324525D01*
X121230559Y-82324523D01*
X121144941Y-82275091D01*
X121144943Y-82275091D01*
X121107885Y-82265161D01*
X121049435Y-82249500D01*
X120950565Y-82249500D01*
X120892114Y-82265161D01*
X120855057Y-82275091D01*
X120769440Y-82324523D01*
X120699523Y-82394440D01*
X120650091Y-82480057D01*
X120638025Y-82525090D01*
X120624500Y-82575565D01*
X119375612Y-82575565D01*
X119394407Y-82517720D01*
X119443907Y-82481756D01*
X119500121Y-82480285D01*
X119575565Y-82500500D01*
X119575566Y-82500500D01*
X119674433Y-82500500D01*
X119674435Y-82500500D01*
X119769938Y-82474910D01*
X119769940Y-82474908D01*
X119769942Y-82474908D01*
X119795377Y-82460222D01*
X119855562Y-82425475D01*
X119925475Y-82355562D01*
X119971935Y-82275091D01*
X119974908Y-82269942D01*
X119974908Y-82269940D01*
X119974910Y-82269938D01*
X120000500Y-82174435D01*
X120000500Y-82075565D01*
X119974910Y-81980062D01*
X119974908Y-81980059D01*
X119974908Y-81980057D01*
X119925476Y-81894440D01*
X119925475Y-81894438D01*
X119855562Y-81824525D01*
X119855559Y-81824523D01*
X119778118Y-81779812D01*
X119778117Y-81779812D01*
X119769940Y-81775091D01*
X119769939Y-81775090D01*
X119769938Y-81775090D01*
X119674435Y-81749500D01*
X119575565Y-81749500D01*
X119517114Y-81765161D01*
X119480057Y-81775091D01*
X119394440Y-81824523D01*
X119324523Y-81894440D01*
X119275091Y-81980057D01*
X119249500Y-82075566D01*
X119249500Y-82174088D01*
X119230593Y-82232279D01*
X119181093Y-82268243D01*
X119124878Y-82269714D01*
X119049435Y-82249500D01*
X118950565Y-82249500D01*
X118892114Y-82265161D01*
X118855057Y-82275091D01*
X118769440Y-82324523D01*
X118699523Y-82394440D01*
X118650091Y-82480057D01*
X118638025Y-82525090D01*
X118624500Y-82575565D01*
X107775534Y-82575565D01*
X107614120Y-82550000D01*
X107385880Y-82550000D01*
X107160461Y-82585702D01*
X106943392Y-82656232D01*
X106740034Y-82759848D01*
X106740030Y-82759850D01*
X106584779Y-82872646D01*
X107195256Y-83483123D01*
X107131592Y-83519881D01*
X107019881Y-83631592D01*
X106983123Y-83695256D01*
X106372646Y-83084779D01*
X106259850Y-83240030D01*
X106259848Y-83240034D01*
X106156232Y-83443392D01*
X106085702Y-83660461D01*
X106050000Y-83885879D01*
X100300000Y-83885879D01*
X100300000Y-81700565D01*
X122374500Y-81700565D01*
X122374500Y-81799435D01*
X122381223Y-81824525D01*
X122400091Y-81894942D01*
X122449233Y-81980057D01*
X122449525Y-81980562D01*
X122519438Y-82050475D01*
X122519440Y-82050476D01*
X122605058Y-82099908D01*
X122605056Y-82099908D01*
X122605060Y-82099909D01*
X122605062Y-82099910D01*
X122700565Y-82125500D01*
X122700567Y-82125500D01*
X122799433Y-82125500D01*
X122799435Y-82125500D01*
X122894938Y-82099910D01*
X122894940Y-82099908D01*
X122894942Y-82099908D01*
X122937103Y-82075566D01*
X122980562Y-82050475D01*
X123050475Y-81980562D01*
X123099910Y-81894938D01*
X123125500Y-81799435D01*
X123125500Y-81700565D01*
X128374500Y-81700565D01*
X128374500Y-81799435D01*
X128381223Y-81824525D01*
X128400091Y-81894942D01*
X128449233Y-81980057D01*
X128449525Y-81980562D01*
X128519438Y-82050475D01*
X128519440Y-82050476D01*
X128605058Y-82099908D01*
X128605056Y-82099908D01*
X128605060Y-82099909D01*
X128605062Y-82099910D01*
X128700565Y-82125500D01*
X128700567Y-82125500D01*
X128799433Y-82125500D01*
X128799435Y-82125500D01*
X128894938Y-82099910D01*
X128894940Y-82099908D01*
X128894942Y-82099908D01*
X128937103Y-82075566D01*
X128980562Y-82050475D01*
X129050475Y-81980562D01*
X129067794Y-81950565D01*
X132874500Y-81950565D01*
X132874500Y-82049435D01*
X132874779Y-82050475D01*
X132900091Y-82144942D01*
X132949523Y-82230559D01*
X132949525Y-82230562D01*
X133019438Y-82300475D01*
X133019440Y-82300476D01*
X133105058Y-82349908D01*
X133105056Y-82349908D01*
X133105060Y-82349909D01*
X133105062Y-82349910D01*
X133200565Y-82375500D01*
X133200567Y-82375500D01*
X133299433Y-82375500D01*
X133299435Y-82375500D01*
X133394938Y-82349910D01*
X133394940Y-82349908D01*
X133394942Y-82349908D01*
X133438906Y-82324525D01*
X133480562Y-82300475D01*
X133550475Y-82230562D01*
X133599910Y-82144938D01*
X133618498Y-82075565D01*
X140499500Y-82075565D01*
X140499500Y-82174435D01*
X140514539Y-82230562D01*
X140525091Y-82269942D01*
X140574523Y-82355559D01*
X140574525Y-82355562D01*
X140644438Y-82425475D01*
X140644440Y-82425476D01*
X140730058Y-82474908D01*
X140730056Y-82474908D01*
X140730060Y-82474909D01*
X140730062Y-82474910D01*
X140825565Y-82500500D01*
X140825567Y-82500500D01*
X140924433Y-82500500D01*
X140924435Y-82500500D01*
X141019938Y-82474910D01*
X141019940Y-82474908D01*
X141019942Y-82474908D01*
X141045377Y-82460222D01*
X141105562Y-82425475D01*
X141175475Y-82355562D01*
X141221935Y-82275091D01*
X141224908Y-82269942D01*
X141224908Y-82269940D01*
X141224910Y-82269938D01*
X141250500Y-82174435D01*
X141250500Y-82075565D01*
X141224910Y-81980062D01*
X141224908Y-81980059D01*
X141224908Y-81980057D01*
X141175476Y-81894440D01*
X141175475Y-81894438D01*
X141105562Y-81824525D01*
X141105559Y-81824523D01*
X141019941Y-81775091D01*
X141019943Y-81775091D01*
X140982885Y-81765161D01*
X140924435Y-81749500D01*
X140825565Y-81749500D01*
X140767114Y-81765161D01*
X140730057Y-81775091D01*
X140644440Y-81824523D01*
X140574523Y-81894440D01*
X140525091Y-81980057D01*
X140524956Y-81980562D01*
X140499500Y-82075565D01*
X133618498Y-82075565D01*
X133625500Y-82049435D01*
X133625500Y-81950565D01*
X133599910Y-81855062D01*
X133599908Y-81855059D01*
X133599908Y-81855057D01*
X133550476Y-81769440D01*
X133550475Y-81769438D01*
X133480562Y-81699525D01*
X133480559Y-81699523D01*
X133394941Y-81650091D01*
X133394943Y-81650091D01*
X133357885Y-81640161D01*
X133299435Y-81624500D01*
X133200565Y-81624500D01*
X133142114Y-81640161D01*
X133105057Y-81650091D01*
X133019440Y-81699523D01*
X132949523Y-81769440D01*
X132900091Y-81855057D01*
X132900090Y-81855062D01*
X132874500Y-81950565D01*
X129067794Y-81950565D01*
X129099910Y-81894938D01*
X129125500Y-81799435D01*
X129125500Y-81700565D01*
X129099910Y-81605062D01*
X129099908Y-81605059D01*
X129099908Y-81605057D01*
X129050476Y-81519440D01*
X129050475Y-81519438D01*
X128980562Y-81449525D01*
X128980559Y-81449523D01*
X128894941Y-81400091D01*
X128894943Y-81400091D01*
X128857885Y-81390161D01*
X128799435Y-81374500D01*
X128700565Y-81374500D01*
X128642114Y-81390161D01*
X128605057Y-81400091D01*
X128519440Y-81449523D01*
X128449523Y-81519440D01*
X128400091Y-81605057D01*
X128388025Y-81650090D01*
X128374500Y-81700565D01*
X123125500Y-81700565D01*
X123099910Y-81605062D01*
X123097797Y-81601403D01*
X123095054Y-81590958D01*
X123096438Y-81566806D01*
X123094541Y-81542698D01*
X123098160Y-81536791D01*
X123098557Y-81529873D01*
X123113872Y-81511149D01*
X123126508Y-81490528D01*
X123132908Y-81487876D01*
X123137296Y-81482513D01*
X123160689Y-81476368D01*
X123183035Y-81467111D01*
X123191079Y-81468385D01*
X123196474Y-81466968D01*
X123206301Y-81470796D01*
X123223707Y-81473553D01*
X123223794Y-81473230D01*
X123226867Y-81474053D01*
X123228695Y-81474343D01*
X123230053Y-81474905D01*
X123230062Y-81474910D01*
X123325565Y-81500500D01*
X123325567Y-81500500D01*
X123424433Y-81500500D01*
X123424435Y-81500500D01*
X123519938Y-81474910D01*
X123519940Y-81474908D01*
X123519942Y-81474908D01*
X123563906Y-81449525D01*
X123605562Y-81425475D01*
X123675475Y-81355562D01*
X123710222Y-81295377D01*
X123724908Y-81269942D01*
X123724908Y-81269940D01*
X123724910Y-81269938D01*
X123750500Y-81174435D01*
X123750500Y-81075565D01*
X123724910Y-80980062D01*
X123724908Y-80980059D01*
X123724908Y-80980057D01*
X123675476Y-80894440D01*
X123675475Y-80894438D01*
X123606602Y-80825565D01*
X131249500Y-80825565D01*
X131249500Y-80924435D01*
X131249779Y-80925475D01*
X131275091Y-81019942D01*
X131324523Y-81105559D01*
X131324525Y-81105562D01*
X131394438Y-81175475D01*
X131394440Y-81175476D01*
X131480058Y-81224908D01*
X131480056Y-81224908D01*
X131480060Y-81224909D01*
X131480062Y-81224910D01*
X131575565Y-81250500D01*
X131575567Y-81250500D01*
X131674433Y-81250500D01*
X131674435Y-81250500D01*
X131769938Y-81224910D01*
X131769940Y-81224908D01*
X131769942Y-81224908D01*
X131816868Y-81197815D01*
X131855562Y-81175475D01*
X131925475Y-81105562D01*
X131969087Y-81030024D01*
X131974908Y-81019942D01*
X131974908Y-81019940D01*
X131974910Y-81019938D01*
X132000500Y-80924435D01*
X132000500Y-80825565D01*
X131974910Y-80730062D01*
X131974908Y-80730059D01*
X131974908Y-80730057D01*
X131925476Y-80644440D01*
X131925475Y-80644438D01*
X131856602Y-80575565D01*
X137124500Y-80575565D01*
X137124500Y-80674435D01*
X137139404Y-80730057D01*
X137150091Y-80769942D01*
X137199523Y-80855559D01*
X137199525Y-80855562D01*
X137269438Y-80925475D01*
X137269440Y-80925476D01*
X137355058Y-80974908D01*
X137355056Y-80974908D01*
X137355060Y-80974909D01*
X137355062Y-80974910D01*
X137450565Y-81000500D01*
X137450567Y-81000500D01*
X137549433Y-81000500D01*
X137549435Y-81000500D01*
X137644938Y-80974910D01*
X137644940Y-80974908D01*
X137644942Y-80974908D01*
X137670377Y-80960222D01*
X137730562Y-80925475D01*
X137800475Y-80855562D01*
X137846935Y-80775091D01*
X137849908Y-80769942D01*
X137849908Y-80769940D01*
X137849910Y-80769938D01*
X137875500Y-80674435D01*
X137875500Y-80575565D01*
X141874500Y-80575565D01*
X141874500Y-80674435D01*
X141889404Y-80730057D01*
X141900091Y-80769942D01*
X141949523Y-80855559D01*
X141949525Y-80855562D01*
X142019438Y-80925475D01*
X142019440Y-80925476D01*
X142105058Y-80974908D01*
X142105056Y-80974908D01*
X142105060Y-80974909D01*
X142105062Y-80974910D01*
X142200565Y-81000500D01*
X142200567Y-81000500D01*
X142299433Y-81000500D01*
X142299435Y-81000500D01*
X142394938Y-80974910D01*
X142394940Y-80974908D01*
X142394942Y-80974908D01*
X142420377Y-80960222D01*
X142480562Y-80925475D01*
X142550475Y-80855562D01*
X142596935Y-80775091D01*
X142599908Y-80769942D01*
X142599908Y-80769940D01*
X142599910Y-80769938D01*
X142625500Y-80674435D01*
X142625500Y-80575565D01*
X142599910Y-80480062D01*
X142599908Y-80480059D01*
X142599908Y-80480057D01*
X142550476Y-80394440D01*
X142550475Y-80394438D01*
X142480562Y-80324525D01*
X142480559Y-80324523D01*
X142394941Y-80275091D01*
X142394943Y-80275091D01*
X142357885Y-80265161D01*
X142299435Y-80249500D01*
X142200565Y-80249500D01*
X142142114Y-80265161D01*
X142105057Y-80275091D01*
X142019440Y-80324523D01*
X141949523Y-80394440D01*
X141900091Y-80480057D01*
X141893989Y-80502831D01*
X141874500Y-80575565D01*
X137875500Y-80575565D01*
X137849910Y-80480062D01*
X137849908Y-80480059D01*
X137849908Y-80480057D01*
X137800476Y-80394440D01*
X137800475Y-80394438D01*
X137730562Y-80324525D01*
X137730559Y-80324523D01*
X137644941Y-80275091D01*
X137644943Y-80275091D01*
X137607885Y-80265161D01*
X137549435Y-80249500D01*
X137450565Y-80249500D01*
X137392114Y-80265161D01*
X137355057Y-80275091D01*
X137269440Y-80324523D01*
X137199523Y-80394440D01*
X137150091Y-80480057D01*
X137143989Y-80502831D01*
X137124500Y-80575565D01*
X131856602Y-80575565D01*
X131855562Y-80574525D01*
X131855559Y-80574523D01*
X131769941Y-80525091D01*
X131769943Y-80525091D01*
X131732885Y-80515161D01*
X131674435Y-80499500D01*
X131575565Y-80499500D01*
X131517114Y-80515161D01*
X131480057Y-80525091D01*
X131394440Y-80574523D01*
X131324523Y-80644440D01*
X131275091Y-80730057D01*
X131268677Y-80753995D01*
X131249500Y-80825565D01*
X123606602Y-80825565D01*
X123605562Y-80824525D01*
X123605559Y-80824523D01*
X123519941Y-80775091D01*
X123519943Y-80775091D01*
X123482885Y-80765161D01*
X123424435Y-80749500D01*
X123325565Y-80749500D01*
X123267114Y-80765161D01*
X123230057Y-80775091D01*
X123144440Y-80824523D01*
X123074523Y-80894440D01*
X123025091Y-80980057D01*
X123014405Y-81019938D01*
X122999500Y-81075565D01*
X122999500Y-81174435D01*
X122999779Y-81175475D01*
X123025091Y-81269943D01*
X123025658Y-81271310D01*
X123025741Y-81272366D01*
X123026770Y-81276206D01*
X123026058Y-81276396D01*
X123030457Y-81332307D01*
X122998486Y-81384475D01*
X122941957Y-81407888D01*
X122901292Y-81401447D01*
X122901206Y-81401770D01*
X122898134Y-81400946D01*
X122896310Y-81400658D01*
X122894943Y-81400091D01*
X122857885Y-81390161D01*
X122799435Y-81374500D01*
X122700565Y-81374500D01*
X122642114Y-81390161D01*
X122605057Y-81400091D01*
X122519440Y-81449523D01*
X122449523Y-81519440D01*
X122400091Y-81605057D01*
X122388025Y-81650090D01*
X122374500Y-81700565D01*
X100300000Y-81700565D01*
X100300000Y-79889774D01*
X106099500Y-79889774D01*
X106099500Y-80110225D01*
X106133984Y-80327948D01*
X106202102Y-80537599D01*
X106202104Y-80537602D01*
X106202105Y-80537606D01*
X106233850Y-80599908D01*
X106300164Y-80730057D01*
X106302185Y-80734022D01*
X106431758Y-80912365D01*
X106587635Y-81068242D01*
X106765978Y-81197815D01*
X106962394Y-81297895D01*
X107172049Y-81366015D01*
X107259140Y-81379809D01*
X107389775Y-81400500D01*
X107389778Y-81400500D01*
X107610225Y-81400500D01*
X107719086Y-81383257D01*
X107827951Y-81366015D01*
X108037606Y-81297895D01*
X108234022Y-81197815D01*
X108412365Y-81068242D01*
X108568242Y-80912365D01*
X108697815Y-80734022D01*
X108797895Y-80537606D01*
X108866015Y-80327951D01*
X108886191Y-80200565D01*
X126874500Y-80200565D01*
X126874500Y-80299435D01*
X126881223Y-80324525D01*
X126900091Y-80394942D01*
X126949233Y-80480057D01*
X126949525Y-80480562D01*
X127019438Y-80550475D01*
X127019440Y-80550476D01*
X127105058Y-80599908D01*
X127105056Y-80599908D01*
X127105060Y-80599909D01*
X127105062Y-80599910D01*
X127200565Y-80625500D01*
X127200567Y-80625500D01*
X127299433Y-80625500D01*
X127299435Y-80625500D01*
X127394938Y-80599910D01*
X127394940Y-80599908D01*
X127394942Y-80599908D01*
X127437103Y-80575566D01*
X127480562Y-80550475D01*
X127550475Y-80480562D01*
X127599910Y-80394938D01*
X127625500Y-80299435D01*
X127625500Y-80200565D01*
X130124500Y-80200565D01*
X130124500Y-80299435D01*
X130131223Y-80324525D01*
X130150091Y-80394942D01*
X130199233Y-80480057D01*
X130199525Y-80480562D01*
X130269438Y-80550475D01*
X130269440Y-80550476D01*
X130355058Y-80599908D01*
X130355056Y-80599908D01*
X130355060Y-80599909D01*
X130355062Y-80599910D01*
X130450565Y-80625500D01*
X130450567Y-80625500D01*
X130549433Y-80625500D01*
X130549435Y-80625500D01*
X130644938Y-80599910D01*
X130644940Y-80599908D01*
X130644942Y-80599908D01*
X130687103Y-80575566D01*
X130730562Y-80550475D01*
X130800475Y-80480562D01*
X130849910Y-80394938D01*
X130875500Y-80299435D01*
X130875500Y-80200565D01*
X130849910Y-80105062D01*
X130849908Y-80105059D01*
X130849908Y-80105057D01*
X130800476Y-80019440D01*
X130800475Y-80019438D01*
X130730562Y-79949525D01*
X130730559Y-79949523D01*
X130644941Y-79900091D01*
X130644943Y-79900091D01*
X130606438Y-79889774D01*
X130549435Y-79874500D01*
X130450565Y-79874500D01*
X130393562Y-79889774D01*
X130355057Y-79900091D01*
X130269440Y-79949523D01*
X130199523Y-80019440D01*
X130150091Y-80105057D01*
X130135783Y-80158453D01*
X130124500Y-80200565D01*
X127625500Y-80200565D01*
X127599910Y-80105062D01*
X127599908Y-80105059D01*
X127599908Y-80105057D01*
X127550476Y-80019440D01*
X127550475Y-80019438D01*
X127480562Y-79949525D01*
X127480559Y-79949523D01*
X127394941Y-79900091D01*
X127394943Y-79900091D01*
X127356438Y-79889774D01*
X127299435Y-79874500D01*
X127200565Y-79874500D01*
X127143562Y-79889774D01*
X127105057Y-79900091D01*
X127019440Y-79949523D01*
X126949523Y-80019440D01*
X126900091Y-80105057D01*
X126885783Y-80158453D01*
X126874500Y-80200565D01*
X108886191Y-80200565D01*
X108900500Y-80110222D01*
X108900500Y-79889778D01*
X108900500Y-79889774D01*
X108874387Y-79724908D01*
X108866015Y-79672049D01*
X108797895Y-79462394D01*
X108697815Y-79265978D01*
X108650290Y-79200565D01*
X119249500Y-79200565D01*
X119249500Y-79299435D01*
X119264539Y-79355562D01*
X119275091Y-79394942D01*
X119324523Y-79480559D01*
X119324525Y-79480562D01*
X119394438Y-79550475D01*
X119394440Y-79550476D01*
X119480058Y-79599908D01*
X119480056Y-79599908D01*
X119480060Y-79599909D01*
X119480062Y-79599910D01*
X119575565Y-79625500D01*
X119575567Y-79625500D01*
X119674433Y-79625500D01*
X119674435Y-79625500D01*
X119769938Y-79599910D01*
X119769940Y-79599908D01*
X119769942Y-79599908D01*
X119795377Y-79585222D01*
X119855562Y-79550475D01*
X119925475Y-79480562D01*
X119974910Y-79394938D01*
X119993498Y-79325565D01*
X134249500Y-79325565D01*
X134249500Y-79424435D01*
X134264539Y-79480562D01*
X134275091Y-79519942D01*
X134324523Y-79605559D01*
X134324525Y-79605562D01*
X134394438Y-79675475D01*
X134394440Y-79675476D01*
X134480058Y-79724908D01*
X134480056Y-79724908D01*
X134480060Y-79724909D01*
X134480062Y-79724910D01*
X134575565Y-79750500D01*
X134575567Y-79750500D01*
X134674433Y-79750500D01*
X134674435Y-79750500D01*
X134769938Y-79724910D01*
X134769940Y-79724908D01*
X134769942Y-79724908D01*
X134795377Y-79710222D01*
X134855562Y-79675475D01*
X134925475Y-79605562D01*
X134974910Y-79519938D01*
X135000500Y-79424435D01*
X135000500Y-79325565D01*
X136624500Y-79325565D01*
X136624500Y-79424435D01*
X136639539Y-79480562D01*
X136650091Y-79519942D01*
X136699523Y-79605559D01*
X136699525Y-79605562D01*
X136769438Y-79675475D01*
X136769440Y-79675476D01*
X136855058Y-79724908D01*
X136855056Y-79724908D01*
X136855060Y-79724909D01*
X136855062Y-79724910D01*
X136950565Y-79750500D01*
X136950567Y-79750500D01*
X137049433Y-79750500D01*
X137049435Y-79750500D01*
X137144938Y-79724910D01*
X137144940Y-79724908D01*
X137144942Y-79724908D01*
X137170377Y-79710222D01*
X137230562Y-79675475D01*
X137300475Y-79605562D01*
X137349910Y-79519938D01*
X137375500Y-79424435D01*
X137375500Y-79325565D01*
X137349910Y-79230062D01*
X137349908Y-79230059D01*
X137349908Y-79230057D01*
X137300476Y-79144440D01*
X137300475Y-79144438D01*
X137231602Y-79075565D01*
X141374500Y-79075565D01*
X141374500Y-79174435D01*
X141374561Y-79174662D01*
X141400091Y-79269942D01*
X141449523Y-79355559D01*
X141449525Y-79355562D01*
X141519438Y-79425475D01*
X141519440Y-79425476D01*
X141605058Y-79474908D01*
X141605056Y-79474908D01*
X141605060Y-79474909D01*
X141605062Y-79474910D01*
X141700565Y-79500500D01*
X141700567Y-79500500D01*
X141799433Y-79500500D01*
X141799435Y-79500500D01*
X141894938Y-79474910D01*
X141894940Y-79474908D01*
X141894942Y-79474908D01*
X141920377Y-79460222D01*
X141980562Y-79425475D01*
X142050475Y-79355562D01*
X142099910Y-79269938D01*
X142125500Y-79174435D01*
X142125500Y-79075565D01*
X142099910Y-78980062D01*
X142099908Y-78980059D01*
X142099908Y-78980057D01*
X142050476Y-78894440D01*
X142050475Y-78894438D01*
X141980562Y-78824525D01*
X141980559Y-78824523D01*
X141894941Y-78775091D01*
X141894943Y-78775091D01*
X141857885Y-78765161D01*
X141799435Y-78749500D01*
X141700565Y-78749500D01*
X141642114Y-78765161D01*
X141605057Y-78775091D01*
X141519440Y-78824523D01*
X141449523Y-78894440D01*
X141400091Y-78980057D01*
X141389539Y-79019438D01*
X141374500Y-79075565D01*
X137231602Y-79075565D01*
X137230562Y-79074525D01*
X137230559Y-79074523D01*
X137144941Y-79025091D01*
X137144943Y-79025091D01*
X137107885Y-79015161D01*
X137049435Y-78999500D01*
X136950565Y-78999500D01*
X136892114Y-79015161D01*
X136855057Y-79025091D01*
X136769440Y-79074523D01*
X136699523Y-79144440D01*
X136650091Y-79230057D01*
X136650090Y-79230062D01*
X136624500Y-79325565D01*
X135000500Y-79325565D01*
X134974910Y-79230062D01*
X134974908Y-79230059D01*
X134974908Y-79230057D01*
X134925476Y-79144440D01*
X134925475Y-79144438D01*
X134855562Y-79074525D01*
X134855559Y-79074523D01*
X134769941Y-79025091D01*
X134769943Y-79025091D01*
X134732885Y-79015161D01*
X134674435Y-78999500D01*
X134575565Y-78999500D01*
X134517114Y-79015161D01*
X134480057Y-79025091D01*
X134394440Y-79074523D01*
X134324523Y-79144440D01*
X134275091Y-79230057D01*
X134275090Y-79230062D01*
X134249500Y-79325565D01*
X119993498Y-79325565D01*
X120000500Y-79299435D01*
X120000500Y-79200565D01*
X119974910Y-79105062D01*
X119974908Y-79105059D01*
X119974908Y-79105057D01*
X119925476Y-79019440D01*
X119925475Y-79019438D01*
X119855562Y-78949525D01*
X119850851Y-78946805D01*
X119769941Y-78900091D01*
X119769943Y-78900091D01*
X119732885Y-78890161D01*
X119674435Y-78874500D01*
X119575565Y-78874500D01*
X119517114Y-78890161D01*
X119480057Y-78900091D01*
X119394440Y-78949523D01*
X119324523Y-79019440D01*
X119275091Y-79105057D01*
X119275090Y-79105062D01*
X119249500Y-79200565D01*
X108650290Y-79200565D01*
X108568242Y-79087635D01*
X108412365Y-78931758D01*
X108234022Y-78802185D01*
X108234021Y-78802184D01*
X108234019Y-78802183D01*
X108144825Y-78756736D01*
X108037606Y-78702105D01*
X108037602Y-78702104D01*
X108037599Y-78702102D01*
X107827948Y-78633984D01*
X107610225Y-78599500D01*
X107610222Y-78599500D01*
X107389778Y-78599500D01*
X107389775Y-78599500D01*
X107172051Y-78633984D01*
X106962400Y-78702102D01*
X106765980Y-78802183D01*
X106692510Y-78855562D01*
X106587635Y-78931758D01*
X106431758Y-79087635D01*
X106390487Y-79144440D01*
X106302183Y-79265980D01*
X106202102Y-79462400D01*
X106133984Y-79672051D01*
X106099500Y-79889774D01*
X100300000Y-79889774D01*
X100300000Y-77950565D01*
X118999500Y-77950565D01*
X118999500Y-78049435D01*
X119006223Y-78074525D01*
X119025091Y-78144942D01*
X119074233Y-78230057D01*
X119074525Y-78230562D01*
X119144438Y-78300475D01*
X119144440Y-78300476D01*
X119230058Y-78349908D01*
X119230056Y-78349908D01*
X119230060Y-78349909D01*
X119230062Y-78349910D01*
X119325565Y-78375500D01*
X119325567Y-78375500D01*
X119424433Y-78375500D01*
X119424435Y-78375500D01*
X119519938Y-78349910D01*
X119519940Y-78349908D01*
X119519942Y-78349908D01*
X119562103Y-78325566D01*
X119605562Y-78300475D01*
X119675475Y-78230562D01*
X119724910Y-78144938D01*
X119750500Y-78049435D01*
X119750500Y-77950565D01*
X121124500Y-77950565D01*
X121124500Y-78049435D01*
X121131223Y-78074525D01*
X121150091Y-78144942D01*
X121199233Y-78230057D01*
X121199525Y-78230562D01*
X121269438Y-78300475D01*
X121269440Y-78300476D01*
X121355058Y-78349908D01*
X121355056Y-78349908D01*
X121355060Y-78349909D01*
X121355062Y-78349910D01*
X121450565Y-78375500D01*
X121450567Y-78375500D01*
X121549433Y-78375500D01*
X121549435Y-78375500D01*
X121644938Y-78349910D01*
X121644940Y-78349908D01*
X121644942Y-78349908D01*
X121687103Y-78325566D01*
X121687105Y-78325565D01*
X128874500Y-78325565D01*
X128874500Y-78424435D01*
X128889539Y-78480562D01*
X128900091Y-78519942D01*
X128949523Y-78605559D01*
X128949525Y-78605562D01*
X129019438Y-78675475D01*
X129019440Y-78675476D01*
X129105058Y-78724908D01*
X129105056Y-78724908D01*
X129105060Y-78724909D01*
X129105062Y-78724910D01*
X129200565Y-78750500D01*
X129200567Y-78750500D01*
X129299433Y-78750500D01*
X129299435Y-78750500D01*
X129394938Y-78724910D01*
X129394940Y-78724908D01*
X129394942Y-78724908D01*
X129434437Y-78702105D01*
X129480562Y-78675475D01*
X129550475Y-78605562D01*
X129599910Y-78519938D01*
X129625500Y-78424435D01*
X129625500Y-78325565D01*
X131124500Y-78325565D01*
X131124500Y-78424435D01*
X131139539Y-78480562D01*
X131150091Y-78519942D01*
X131199523Y-78605559D01*
X131199525Y-78605562D01*
X131269438Y-78675475D01*
X131269440Y-78675476D01*
X131355058Y-78724908D01*
X131355056Y-78724908D01*
X131355060Y-78724909D01*
X131355062Y-78724910D01*
X131450565Y-78750500D01*
X131450567Y-78750500D01*
X131549433Y-78750500D01*
X131549435Y-78750500D01*
X131644938Y-78724910D01*
X131644940Y-78724908D01*
X131644942Y-78724908D01*
X131684437Y-78702105D01*
X131730562Y-78675475D01*
X131800475Y-78605562D01*
X131817794Y-78575565D01*
X134999500Y-78575565D01*
X134999500Y-78674435D01*
X135013024Y-78724908D01*
X135025091Y-78769942D01*
X135065472Y-78839882D01*
X135074525Y-78855562D01*
X135144438Y-78925475D01*
X135155324Y-78931760D01*
X135230058Y-78974908D01*
X135230056Y-78974908D01*
X135230060Y-78974909D01*
X135230062Y-78974910D01*
X135325565Y-79000500D01*
X135325567Y-79000500D01*
X135424433Y-79000500D01*
X135424435Y-79000500D01*
X135519938Y-78974910D01*
X135519940Y-78974908D01*
X135519942Y-78974908D01*
X135563906Y-78949525D01*
X135605562Y-78925475D01*
X135675475Y-78855562D01*
X135721935Y-78775091D01*
X135724908Y-78769942D01*
X135724908Y-78769940D01*
X135724910Y-78769938D01*
X135750500Y-78674435D01*
X135750500Y-78575565D01*
X135724910Y-78480062D01*
X135724908Y-78480059D01*
X135724908Y-78480057D01*
X135675476Y-78394440D01*
X135675475Y-78394438D01*
X135605562Y-78324525D01*
X135605559Y-78324523D01*
X135528118Y-78279812D01*
X135528117Y-78279812D01*
X135519940Y-78275091D01*
X135519939Y-78275090D01*
X135519938Y-78275090D01*
X135424435Y-78249500D01*
X135325565Y-78249500D01*
X135267114Y-78265161D01*
X135230057Y-78275091D01*
X135144440Y-78324523D01*
X135074523Y-78394440D01*
X135025091Y-78480057D01*
X135024956Y-78480562D01*
X134999500Y-78575565D01*
X131817794Y-78575565D01*
X131849910Y-78519938D01*
X131875500Y-78424435D01*
X131875500Y-78325565D01*
X131849910Y-78230062D01*
X131849908Y-78230059D01*
X131849908Y-78230057D01*
X131832880Y-78200565D01*
X137999500Y-78200565D01*
X137999500Y-78299435D01*
X138006223Y-78324525D01*
X138025091Y-78394942D01*
X138074233Y-78480057D01*
X138074525Y-78480562D01*
X138144438Y-78550475D01*
X138144440Y-78550476D01*
X138230058Y-78599908D01*
X138230056Y-78599908D01*
X138230060Y-78599909D01*
X138230062Y-78599910D01*
X138325565Y-78625500D01*
X138325567Y-78625500D01*
X138424433Y-78625500D01*
X138424435Y-78625500D01*
X138519938Y-78599910D01*
X138519940Y-78599908D01*
X138519942Y-78599908D01*
X138562103Y-78575566D01*
X138605562Y-78550475D01*
X138675475Y-78480562D01*
X138724910Y-78394938D01*
X138750500Y-78299435D01*
X138750500Y-78200565D01*
X138724910Y-78105062D01*
X138724908Y-78105059D01*
X138724908Y-78105057D01*
X138675476Y-78019440D01*
X138675475Y-78019438D01*
X138605562Y-77949525D01*
X138605559Y-77949523D01*
X138519941Y-77900091D01*
X138519943Y-77900091D01*
X138482885Y-77890161D01*
X138424435Y-77874500D01*
X138325565Y-77874500D01*
X138267114Y-77890161D01*
X138230057Y-77900091D01*
X138144440Y-77949523D01*
X138074523Y-78019440D01*
X138025091Y-78105057D01*
X138025090Y-78105062D01*
X137999500Y-78200565D01*
X131832880Y-78200565D01*
X131800476Y-78144440D01*
X131800475Y-78144438D01*
X131730562Y-78074525D01*
X131730559Y-78074523D01*
X131644941Y-78025091D01*
X131644943Y-78025091D01*
X131607885Y-78015161D01*
X131549435Y-77999500D01*
X131450565Y-77999500D01*
X131392114Y-78015161D01*
X131355057Y-78025091D01*
X131269440Y-78074523D01*
X131199523Y-78144440D01*
X131150091Y-78230057D01*
X131135783Y-78283453D01*
X131124500Y-78325565D01*
X129625500Y-78325565D01*
X129599910Y-78230062D01*
X129599908Y-78230059D01*
X129599908Y-78230057D01*
X129550476Y-78144440D01*
X129550475Y-78144438D01*
X129480562Y-78074525D01*
X129480559Y-78074523D01*
X129394941Y-78025091D01*
X129394943Y-78025091D01*
X129357885Y-78015161D01*
X129299435Y-77999500D01*
X129200565Y-77999500D01*
X129142114Y-78015161D01*
X129105057Y-78025091D01*
X129019440Y-78074523D01*
X128949523Y-78144440D01*
X128900091Y-78230057D01*
X128885783Y-78283453D01*
X128874500Y-78325565D01*
X121687105Y-78325565D01*
X121730562Y-78300475D01*
X121800475Y-78230562D01*
X121849910Y-78144938D01*
X121875500Y-78049435D01*
X121875500Y-77950565D01*
X121849910Y-77855062D01*
X121849908Y-77855059D01*
X121849908Y-77855057D01*
X121800476Y-77769440D01*
X121800475Y-77769438D01*
X121730562Y-77699525D01*
X121730559Y-77699523D01*
X121644941Y-77650091D01*
X121644943Y-77650091D01*
X121607885Y-77640161D01*
X121549435Y-77624500D01*
X121450565Y-77624500D01*
X121392114Y-77640161D01*
X121355057Y-77650091D01*
X121269440Y-77699523D01*
X121199523Y-77769440D01*
X121150091Y-77855057D01*
X121138025Y-77900090D01*
X121124500Y-77950565D01*
X119750500Y-77950565D01*
X119724910Y-77855062D01*
X119724908Y-77855059D01*
X119724908Y-77855057D01*
X119675476Y-77769440D01*
X119675475Y-77769438D01*
X119605562Y-77699525D01*
X119605559Y-77699523D01*
X119519941Y-77650091D01*
X119519943Y-77650091D01*
X119482885Y-77640161D01*
X119424435Y-77624500D01*
X119325565Y-77624500D01*
X119267114Y-77640161D01*
X119230057Y-77650091D01*
X119144440Y-77699523D01*
X119074523Y-77769440D01*
X119025091Y-77855057D01*
X119013025Y-77900090D01*
X118999500Y-77950565D01*
X100300000Y-77950565D01*
X100300000Y-74780253D01*
X106099500Y-74780253D01*
X106099500Y-77219746D01*
X106099501Y-77219758D01*
X106111132Y-77278227D01*
X106111134Y-77278233D01*
X106155445Y-77344548D01*
X106155448Y-77344552D01*
X106221769Y-77388867D01*
X106266231Y-77397711D01*
X106280241Y-77400498D01*
X106280246Y-77400498D01*
X106280252Y-77400500D01*
X106280253Y-77400500D01*
X108719747Y-77400500D01*
X108719748Y-77400500D01*
X108778231Y-77388867D01*
X108844552Y-77344552D01*
X108857239Y-77325565D01*
X122874500Y-77325565D01*
X122874500Y-77424435D01*
X122897067Y-77508657D01*
X122900091Y-77519942D01*
X122949523Y-77605559D01*
X122949525Y-77605562D01*
X123019438Y-77675475D01*
X123019440Y-77675476D01*
X123105058Y-77724908D01*
X123105056Y-77724908D01*
X123105060Y-77724909D01*
X123105062Y-77724910D01*
X123200565Y-77750500D01*
X123200567Y-77750500D01*
X123299433Y-77750500D01*
X123299435Y-77750500D01*
X123394938Y-77724910D01*
X123394940Y-77724908D01*
X123394942Y-77724908D01*
X123438906Y-77699525D01*
X123480562Y-77675475D01*
X123550475Y-77605562D01*
X123599910Y-77519938D01*
X123625500Y-77424435D01*
X123625500Y-77325565D01*
X124499500Y-77325565D01*
X124499500Y-77424435D01*
X124522067Y-77508657D01*
X124525091Y-77519942D01*
X124574523Y-77605559D01*
X124574525Y-77605562D01*
X124644438Y-77675475D01*
X124644440Y-77675476D01*
X124730058Y-77724908D01*
X124730056Y-77724908D01*
X124730060Y-77724909D01*
X124730062Y-77724910D01*
X124825565Y-77750500D01*
X124825567Y-77750500D01*
X124924433Y-77750500D01*
X124924435Y-77750500D01*
X125019938Y-77724910D01*
X125019940Y-77724908D01*
X125019942Y-77724908D01*
X125063906Y-77699525D01*
X125105562Y-77675475D01*
X125175475Y-77605562D01*
X125224910Y-77519938D01*
X125250500Y-77424435D01*
X125250500Y-77325565D01*
X125224910Y-77230062D01*
X125224908Y-77230059D01*
X125224908Y-77230057D01*
X125175476Y-77144440D01*
X125175475Y-77144438D01*
X125105562Y-77074525D01*
X125105559Y-77074523D01*
X125019941Y-77025091D01*
X125019943Y-77025091D01*
X124982885Y-77015161D01*
X124924435Y-76999500D01*
X124825565Y-76999500D01*
X124767114Y-77015161D01*
X124730057Y-77025091D01*
X124644440Y-77074523D01*
X124574523Y-77144440D01*
X124525091Y-77230057D01*
X124512184Y-77278227D01*
X124499500Y-77325565D01*
X123625500Y-77325565D01*
X123599910Y-77230062D01*
X123599908Y-77230059D01*
X123599908Y-77230057D01*
X123550476Y-77144440D01*
X123550475Y-77144438D01*
X123480562Y-77074525D01*
X123480559Y-77074523D01*
X123394941Y-77025091D01*
X123394943Y-77025091D01*
X123357885Y-77015161D01*
X123299435Y-76999500D01*
X123200565Y-76999500D01*
X123142114Y-77015161D01*
X123105057Y-77025091D01*
X123019440Y-77074523D01*
X122949523Y-77144440D01*
X122900091Y-77230057D01*
X122887184Y-77278227D01*
X122874500Y-77325565D01*
X108857239Y-77325565D01*
X108888867Y-77278231D01*
X108900500Y-77219748D01*
X108900500Y-76825565D01*
X109999500Y-76825565D01*
X109999500Y-76924435D01*
X110019614Y-76999500D01*
X110025091Y-77019942D01*
X110074523Y-77105559D01*
X110074525Y-77105562D01*
X110144438Y-77175475D01*
X110144440Y-77175476D01*
X110230058Y-77224908D01*
X110230056Y-77224908D01*
X110230060Y-77224909D01*
X110230062Y-77224910D01*
X110325565Y-77250500D01*
X110325567Y-77250500D01*
X110424433Y-77250500D01*
X110424435Y-77250500D01*
X110519938Y-77224910D01*
X110519940Y-77224908D01*
X110519942Y-77224908D01*
X110545377Y-77210222D01*
X110605562Y-77175475D01*
X110675475Y-77105562D01*
X110721935Y-77025091D01*
X110724908Y-77019942D01*
X110724908Y-77019940D01*
X110724910Y-77019938D01*
X110750500Y-76924435D01*
X110750500Y-76825565D01*
X110724910Y-76730062D01*
X110724908Y-76730059D01*
X110724908Y-76730057D01*
X110675476Y-76644440D01*
X110675475Y-76644438D01*
X110605562Y-76574525D01*
X110605559Y-76574523D01*
X110519941Y-76525091D01*
X110519943Y-76525091D01*
X110482885Y-76515161D01*
X110424435Y-76499500D01*
X110325565Y-76499500D01*
X110267114Y-76515161D01*
X110230057Y-76525091D01*
X110144440Y-76574523D01*
X110074523Y-76644440D01*
X110025091Y-76730057D01*
X110025090Y-76730062D01*
X109999500Y-76825565D01*
X108900500Y-76825565D01*
X108900500Y-76075565D01*
X122874500Y-76075565D01*
X122874500Y-76174435D01*
X122897067Y-76258657D01*
X122900091Y-76269942D01*
X122949523Y-76355559D01*
X122949525Y-76355562D01*
X123019438Y-76425475D01*
X123019440Y-76425476D01*
X123105058Y-76474908D01*
X123105056Y-76474908D01*
X123105060Y-76474909D01*
X123105062Y-76474910D01*
X123200565Y-76500500D01*
X123200567Y-76500500D01*
X123299433Y-76500500D01*
X123299435Y-76500500D01*
X123394938Y-76474910D01*
X123394940Y-76474908D01*
X123394942Y-76474908D01*
X123420377Y-76460222D01*
X123480562Y-76425475D01*
X123550475Y-76355562D01*
X123599910Y-76269938D01*
X123625500Y-76174435D01*
X123625500Y-76075565D01*
X123599910Y-75980062D01*
X123599908Y-75980059D01*
X123599908Y-75980057D01*
X123550476Y-75894440D01*
X123550475Y-75894438D01*
X123480562Y-75824525D01*
X123480559Y-75824523D01*
X123394941Y-75775091D01*
X123394943Y-75775091D01*
X123357885Y-75765161D01*
X123299435Y-75749500D01*
X123200565Y-75749500D01*
X123142114Y-75765161D01*
X123105057Y-75775091D01*
X123019440Y-75824523D01*
X122949523Y-75894440D01*
X122900091Y-75980057D01*
X122885783Y-76033453D01*
X122874500Y-76075565D01*
X108900500Y-76075565D01*
X108900500Y-75575565D01*
X134124500Y-75575565D01*
X134124500Y-75674435D01*
X134144614Y-75749500D01*
X134150091Y-75769942D01*
X134199523Y-75855559D01*
X134199525Y-75855562D01*
X134269438Y-75925475D01*
X134269440Y-75925476D01*
X134355058Y-75974908D01*
X134355056Y-75974908D01*
X134355060Y-75974909D01*
X134355062Y-75974910D01*
X134450565Y-76000500D01*
X134450567Y-76000500D01*
X134549433Y-76000500D01*
X134549435Y-76000500D01*
X134644938Y-75974910D01*
X134644940Y-75974908D01*
X134644942Y-75974908D01*
X134670377Y-75960222D01*
X134730562Y-75925475D01*
X134800475Y-75855562D01*
X134846935Y-75775091D01*
X134849908Y-75769942D01*
X134849908Y-75769940D01*
X134849910Y-75769938D01*
X134875500Y-75674435D01*
X134875500Y-75575565D01*
X134849910Y-75480062D01*
X134849908Y-75480059D01*
X134849908Y-75480057D01*
X134800476Y-75394440D01*
X134800475Y-75394438D01*
X134730562Y-75324525D01*
X134730559Y-75324523D01*
X134644941Y-75275091D01*
X134644943Y-75275091D01*
X134607885Y-75265161D01*
X134549435Y-75249500D01*
X134450565Y-75249500D01*
X134392114Y-75265161D01*
X134355057Y-75275091D01*
X134269440Y-75324523D01*
X134199523Y-75394440D01*
X134150091Y-75480057D01*
X134150090Y-75480062D01*
X134124500Y-75575565D01*
X108900500Y-75575565D01*
X108900500Y-74780252D01*
X108888867Y-74721769D01*
X108874699Y-74700565D01*
X110999500Y-74700565D01*
X110999500Y-74799435D01*
X111014539Y-74855562D01*
X111025091Y-74894942D01*
X111074523Y-74980559D01*
X111074525Y-74980562D01*
X111144438Y-75050475D01*
X111144440Y-75050476D01*
X111230058Y-75099908D01*
X111230056Y-75099908D01*
X111230060Y-75099909D01*
X111230062Y-75099910D01*
X111325565Y-75125500D01*
X111325567Y-75125500D01*
X111424433Y-75125500D01*
X111424435Y-75125500D01*
X111519938Y-75099910D01*
X111519940Y-75099908D01*
X111519942Y-75099908D01*
X111545377Y-75085222D01*
X111605562Y-75050475D01*
X111675475Y-74980562D01*
X111724910Y-74894938D01*
X111750500Y-74799435D01*
X111750500Y-74700565D01*
X111724910Y-74605062D01*
X111721699Y-74599501D01*
X111707880Y-74575565D01*
X116749500Y-74575565D01*
X116749500Y-74674435D01*
X116764539Y-74730562D01*
X116775091Y-74769942D01*
X116824233Y-74855057D01*
X116824525Y-74855562D01*
X116894438Y-74925475D01*
X116894440Y-74925476D01*
X116980058Y-74974908D01*
X116980056Y-74974908D01*
X116980060Y-74974909D01*
X116980062Y-74974910D01*
X117075565Y-75000500D01*
X117075567Y-75000500D01*
X117174433Y-75000500D01*
X117174435Y-75000500D01*
X117269938Y-74974910D01*
X117269940Y-74974908D01*
X117269942Y-74974908D01*
X117312103Y-74950566D01*
X117312105Y-74950565D01*
X130499500Y-74950565D01*
X130499500Y-75049435D01*
X130499779Y-75050475D01*
X130525091Y-75144942D01*
X130574523Y-75230559D01*
X130574525Y-75230562D01*
X130644438Y-75300475D01*
X130644440Y-75300476D01*
X130730058Y-75349908D01*
X130730056Y-75349908D01*
X130730060Y-75349909D01*
X130730062Y-75349910D01*
X130825565Y-75375500D01*
X130825567Y-75375500D01*
X130924433Y-75375500D01*
X130924435Y-75375500D01*
X131019938Y-75349910D01*
X131019940Y-75349908D01*
X131019942Y-75349908D01*
X131063906Y-75324525D01*
X131105562Y-75300475D01*
X131175475Y-75230562D01*
X131224910Y-75144938D01*
X131250500Y-75049435D01*
X131250500Y-74950565D01*
X131224910Y-74855062D01*
X131224908Y-74855059D01*
X131224908Y-74855057D01*
X131175476Y-74769440D01*
X131175475Y-74769438D01*
X131106602Y-74700565D01*
X135874500Y-74700565D01*
X135874500Y-74799435D01*
X135889539Y-74855562D01*
X135900091Y-74894942D01*
X135949523Y-74980559D01*
X135949525Y-74980562D01*
X136019438Y-75050475D01*
X136019440Y-75050476D01*
X136105058Y-75099908D01*
X136105056Y-75099908D01*
X136105060Y-75099909D01*
X136105062Y-75099910D01*
X136200565Y-75125500D01*
X136200567Y-75125500D01*
X136299433Y-75125500D01*
X136299435Y-75125500D01*
X136394938Y-75099910D01*
X136394940Y-75099908D01*
X136394942Y-75099908D01*
X136420377Y-75085222D01*
X136480562Y-75050475D01*
X136550475Y-74980562D01*
X136599910Y-74894938D01*
X136625500Y-74799435D01*
X136625500Y-74700565D01*
X136599910Y-74605062D01*
X136599908Y-74605059D01*
X136599908Y-74605057D01*
X136550476Y-74519440D01*
X136550475Y-74519438D01*
X136480562Y-74449525D01*
X136480559Y-74449523D01*
X136394941Y-74400091D01*
X136394943Y-74400091D01*
X136357885Y-74390161D01*
X136299435Y-74374500D01*
X136200565Y-74374500D01*
X136142114Y-74390161D01*
X136105057Y-74400091D01*
X136019440Y-74449523D01*
X135949523Y-74519440D01*
X135900091Y-74605057D01*
X135889405Y-74644938D01*
X135874500Y-74700565D01*
X131106602Y-74700565D01*
X131105562Y-74699525D01*
X131105559Y-74699523D01*
X131019941Y-74650091D01*
X131019943Y-74650091D01*
X130982885Y-74640161D01*
X130924435Y-74624500D01*
X130825565Y-74624500D01*
X130767114Y-74640161D01*
X130730057Y-74650091D01*
X130644440Y-74699523D01*
X130574523Y-74769440D01*
X130525091Y-74855057D01*
X130514405Y-74894938D01*
X130499500Y-74950565D01*
X117312105Y-74950565D01*
X117355562Y-74925475D01*
X117425475Y-74855562D01*
X117474910Y-74769938D01*
X117500500Y-74674435D01*
X117500500Y-74575565D01*
X117474910Y-74480062D01*
X117474908Y-74480059D01*
X117474908Y-74480057D01*
X117425476Y-74394440D01*
X117425475Y-74394438D01*
X117355562Y-74324525D01*
X117355559Y-74324523D01*
X117269941Y-74275091D01*
X117269943Y-74275091D01*
X117232885Y-74265161D01*
X117174435Y-74249500D01*
X117075565Y-74249500D01*
X117017114Y-74265161D01*
X116980057Y-74275091D01*
X116894440Y-74324523D01*
X116824523Y-74394440D01*
X116775091Y-74480057D01*
X116775090Y-74480062D01*
X116749500Y-74575565D01*
X111707880Y-74575565D01*
X111675476Y-74519440D01*
X111675475Y-74519438D01*
X111605562Y-74449525D01*
X111605559Y-74449523D01*
X111519941Y-74400091D01*
X111519943Y-74400091D01*
X111482885Y-74390161D01*
X111424435Y-74374500D01*
X111325565Y-74374500D01*
X111267114Y-74390161D01*
X111230057Y-74400091D01*
X111144440Y-74449523D01*
X111074523Y-74519440D01*
X111025091Y-74605057D01*
X111014405Y-74644938D01*
X110999500Y-74700565D01*
X108874699Y-74700565D01*
X108844552Y-74655448D01*
X108836535Y-74650091D01*
X108778233Y-74611134D01*
X108778231Y-74611133D01*
X108778228Y-74611132D01*
X108778227Y-74611132D01*
X108719758Y-74599501D01*
X108719748Y-74599500D01*
X106280252Y-74599500D01*
X106280251Y-74599500D01*
X106280241Y-74599501D01*
X106221772Y-74611132D01*
X106221766Y-74611134D01*
X106155451Y-74655445D01*
X106155445Y-74655451D01*
X106111134Y-74721766D01*
X106111132Y-74721772D01*
X106099501Y-74780241D01*
X106099500Y-74780253D01*
X100300000Y-74780253D01*
X100300000Y-73825565D01*
X111874500Y-73825565D01*
X111874500Y-73924435D01*
X111889539Y-73980561D01*
X111900091Y-74019942D01*
X111949523Y-74105559D01*
X111949525Y-74105562D01*
X112019438Y-74175475D01*
X112019440Y-74175476D01*
X112105058Y-74224908D01*
X112105056Y-74224908D01*
X112105060Y-74224909D01*
X112105062Y-74224910D01*
X112200565Y-74250500D01*
X112200567Y-74250500D01*
X112299433Y-74250500D01*
X112299435Y-74250500D01*
X112394938Y-74224910D01*
X112394940Y-74224908D01*
X112394942Y-74224908D01*
X112438906Y-74199525D01*
X112480562Y-74175475D01*
X112550475Y-74105562D01*
X112599910Y-74019938D01*
X112625500Y-73924435D01*
X112625500Y-73825565D01*
X112599910Y-73730062D01*
X112599908Y-73730059D01*
X112599908Y-73730057D01*
X112550476Y-73644440D01*
X112550475Y-73644438D01*
X112480562Y-73574525D01*
X112480559Y-73574523D01*
X112394941Y-73525091D01*
X112394943Y-73525091D01*
X112357885Y-73515161D01*
X112299435Y-73499500D01*
X112200565Y-73499500D01*
X112142114Y-73515161D01*
X112105057Y-73525091D01*
X112019440Y-73574523D01*
X111949523Y-73644440D01*
X111900091Y-73730057D01*
X111900090Y-73730062D01*
X111874500Y-73825565D01*
X100300000Y-73825565D01*
X100300000Y-71509000D01*
X100318907Y-71450809D01*
X100368407Y-71414845D01*
X100399000Y-71410000D01*
X102610500Y-71410000D01*
X102668691Y-71428907D01*
G37*
%TD.AperFunction*%
%TD*%
M02*
