%TF.GenerationSoftware,KiCad,Pcbnew,10.0.6*%
%TF.CreationDate,2026-10-01T21:56:56-05:00*%
%TF.ProjectId,hp_hat_routed,68705f68-6174-45f7-926f-757465642e6b,rev?*%
%TF.SameCoordinates,Original*%
%TF.FileFunction,Paste,Bot*%
%TF.FilePolarity,Positive*%
%FSLAX46Y46*%
G04 Gerber Fmt 4.6, Leading zero omitted, Abs format (unit mm)*
G04 Created by KiCad (PCBNEW 10.0.6) date 2026-10-01 21:56:56*
%MOMM*%
%LPD*%
G01*
G04 APERTURE LIST*
G04 Aperture macros list*
%AMRoundRect*
0 Rectangle with rounded corners*
0 $1 Rounding radius*
0 $2 $3 $4 $5 $6 $7 $8 $9 X,Y pos of 4 corners*
0 Add a 4 corners polygon primitive as box body*
4,1,4,$2,$3,$4,$5,$6,$7,$8,$9,$2,$3,0*
0 Add four circle primitives for the rounded corners*
1,1,$1+$1,$2,$3*
1,1,$1+$1,$4,$5*
1,1,$1+$1,$6,$7*
1,1,$1+$1,$8,$9*
0 Add four rect primitives between the rounded corners*
20,1,$1+$1,$2,$3,$4,$5,0*
20,1,$1+$1,$4,$5,$6,$7,0*
20,1,$1+$1,$6,$7,$8,$9,0*
20,1,$1+$1,$8,$9,$2,$3,0*%
G04 Aperture macros list end*
%ADD10RoundRect,0.087500X-0.662500X-0.087500X0.662500X-0.087500X0.662500X0.087500X-0.662500X0.087500X0*%
%ADD11RoundRect,0.200000X0.200000X0.275000X-0.200000X0.275000X-0.200000X-0.275000X0.200000X-0.275000X0*%
%ADD12RoundRect,0.200000X0.275000X-0.200000X0.275000X0.200000X-0.275000X0.200000X-0.275000X-0.200000X0*%
%ADD13RoundRect,0.140000X0.140000X0.170000X-0.140000X0.170000X-0.140000X-0.170000X0.140000X-0.170000X0*%
%ADD14RoundRect,0.140000X-0.170000X0.140000X-0.170000X-0.140000X0.170000X-0.140000X0.170000X0.140000X0*%
%ADD15RoundRect,0.135000X-0.135000X-0.185000X0.135000X-0.185000X0.135000X0.185000X-0.135000X0.185000X0*%
%ADD16RoundRect,0.150000X-0.587500X-0.150000X0.587500X-0.150000X0.587500X0.150000X-0.587500X0.150000X0*%
%ADD17RoundRect,0.135000X0.185000X-0.135000X0.185000X0.135000X-0.185000X0.135000X-0.185000X-0.135000X0*%
%ADD18RoundRect,0.250000X-0.250000X-0.475000X0.250000X-0.475000X0.250000X0.475000X-0.250000X0.475000X0*%
%ADD19RoundRect,0.112500X0.187500X0.112500X-0.187500X0.112500X-0.187500X-0.112500X0.187500X-0.112500X0*%
%ADD20RoundRect,0.250000X-0.300000X0.300000X-0.300000X-0.300000X0.300000X-0.300000X0.300000X0.300000X0*%
%ADD21RoundRect,0.140000X-0.140000X-0.170000X0.140000X-0.170000X0.140000X0.170000X-0.140000X0.170000X0*%
%ADD22RoundRect,0.135000X-0.185000X0.135000X-0.185000X-0.135000X0.185000X-0.135000X0.185000X0.135000X0*%
G04 APERTURE END LIST*
D10*
%TO.C,U4*%
X126300000Y-77400000D03*
X126300000Y-76900000D03*
X126300000Y-76400000D03*
X126300000Y-75900000D03*
X126300000Y-75400000D03*
X130500000Y-75400000D03*
X130500000Y-75900000D03*
X130500000Y-76400000D03*
X130500000Y-76900000D03*
X130500000Y-77400000D03*
%TD*%
D11*
%TO.C,R18*%
X128725000Y-80000000D03*
X127075000Y-80000000D03*
%TD*%
D12*
%TO.C,R24*%
X119050000Y-77325000D03*
X119050000Y-75675000D03*
%TD*%
D13*
%TO.C,C23*%
X111430000Y-74460000D03*
X110470000Y-74460000D03*
%TD*%
D14*
%TO.C,C12*%
X132300000Y-75170000D03*
X132300000Y-76130000D03*
%TD*%
D15*
%TO.C,R9*%
X129490000Y-82400000D03*
X130510000Y-82400000D03*
%TD*%
D16*
%TO.C,Q1*%
X132062500Y-80950000D03*
X132062500Y-79050000D03*
X133937500Y-80000000D03*
%TD*%
D17*
%TO.C,R11*%
X121400000Y-78910000D03*
X121400000Y-77890000D03*
%TD*%
D12*
%TO.C,R22*%
X113970000Y-77325000D03*
X113970000Y-75675000D03*
%TD*%
D18*
%TO.C,C1*%
X114450000Y-80000000D03*
X116350000Y-80000000D03*
%TD*%
D19*
%TO.C,D1*%
X112450000Y-80000000D03*
X110350000Y-80000000D03*
%TD*%
D12*
%TO.C,R21*%
X116510000Y-77325000D03*
X116510000Y-75675000D03*
%TD*%
D13*
%TO.C,C21*%
X116510000Y-74460000D03*
X115550000Y-74460000D03*
%TD*%
D20*
%TO.C,D2*%
X110600000Y-81900000D03*
X110600000Y-84700000D03*
%TD*%
D12*
%TO.C,R23*%
X111430000Y-77325000D03*
X111430000Y-75675000D03*
%TD*%
D13*
%TO.C,C24*%
X119050000Y-74460000D03*
X118090000Y-74460000D03*
%TD*%
D21*
%TO.C,C13*%
X119420000Y-78800000D03*
X120380000Y-78800000D03*
%TD*%
D18*
%TO.C,C17*%
X118550000Y-82400000D03*
X120450000Y-82400000D03*
%TD*%
D13*
%TO.C,C22*%
X113970000Y-74460000D03*
X113010000Y-74460000D03*
%TD*%
D22*
%TO.C,TH4*%
X120350000Y-76190000D03*
X120350000Y-77210000D03*
%TD*%
D15*
%TO.C,R10*%
X131490000Y-82400000D03*
X132510000Y-82400000D03*
%TD*%
M02*
