M48
; DRILL file KiCad 10.0.6 date 2026-09-25T01:07:09
; FORMAT={-:-/ absolute / metric / decimal}
; #@! TF.CreationDate,2026-09-25T01:07:09-05:00
; #@! TF.GenerationSoftware,Kicad,Pcbnew,10.0.6
; #@! TF.FileFunction,Plated,1,4,PTH
FMAT,2
METRIC
; #@! TA.AperFunction,Plated,PTH,ViaDrill
T1C0.300
; #@! TA.AperFunction,Plated,PTH,ViaDrill
T2C0.350
; #@! TA.AperFunction,Plated,PTH,ComponentDrill
T3C1.100
; #@! TA.AperFunction,Plated,PTH,ComponentDrill
T4C1.200
%
G90
G05
T1
X195.13Y-80.0
X195.9Y-80.0
X198.62Y-80.0
T2
X110.25Y-80.0
X110.375Y-76.875
X111.375Y-74.75
X111.75Y-75.75
X112.25Y-73.875
X113.375Y-86.25
X114.5Y-83.875
X115.125Y-83.0
X116.375Y-83.25
X116.5Y-79.0
X116.5Y-85.125
X116.625Y-79.75
X117.125Y-74.625
X117.25Y-84.5
X117.25Y-85.375
X119.0Y-82.625
X119.25Y-73.75
X119.375Y-74.5
X119.375Y-78.0
X119.625Y-79.25
X119.625Y-82.125
X120.875Y-80.5
X121.0Y-82.625
X121.5Y-78.0
X121.75Y-75.75
X122.0Y-82.625
X122.375Y-74.5
X122.75Y-81.75
X123.25Y-76.125
X123.25Y-77.375
X123.375Y-81.125
X123.5Y-83.5
X124.875Y-77.375
X125.75Y-85.0
X126.125Y-83.0
X127.25Y-80.25
X127.95Y-73.102
X128.75Y-81.75
X129.125Y-82.875
X129.25Y-78.375
X129.25Y-85.0
X129.5Y-84.125
X130.5Y-80.25
X130.75Y-85.375
X130.875Y-75.0
X131.375Y-83.5
X131.5Y-78.375
X131.625Y-80.875
X132.5Y-75.875
X132.5Y-78.375
X132.5Y-80.875
X132.5Y-83.375
X133.25Y-82.0
X134.0Y-79.875
X134.0Y-84.625
X134.5Y-75.625
X134.625Y-79.375
X134.625Y-84.125
X135.25Y-83.0
X135.375Y-78.625
X135.5Y-75.875
X136.0Y-83.25
X136.25Y-74.75
X137.0Y-79.375
X137.5Y-80.625
X137.631Y-73.25
X137.75Y-85.0
X138.25Y-83.5
X138.375Y-78.25
X138.5Y-76.625
X140.5Y-83.5
X140.85Y-87.644
X140.875Y-82.125
X141.0Y-85.875
X141.75Y-79.125
X142.25Y-72.75
X142.25Y-80.625
X174.34Y-72.0
X174.34Y-88.0
T3
X103.81Y-72.38
X103.81Y-87.62
X106.35Y-72.38
X106.35Y-87.62
X108.89Y-72.38
X108.89Y-87.62
X111.43Y-72.38
X111.43Y-87.62
X113.97Y-72.38
X113.97Y-87.62
X116.51Y-72.38
X116.51Y-87.62
X119.05Y-72.38
X119.05Y-87.62
X121.59Y-72.38
X121.59Y-87.62
X124.13Y-72.38
X124.13Y-87.62
X126.67Y-72.38
X126.67Y-87.62
X129.21Y-72.38
X129.21Y-87.62
X131.75Y-72.38
X131.75Y-87.62
X134.29Y-72.38
X134.29Y-87.62
X136.83Y-72.38
X136.83Y-87.62
X139.37Y-72.38
X139.37Y-87.62
T4
X107.5Y-76.0
X107.5Y-80.0
X107.5Y-84.0
M30
