%TF.GenerationSoftware,KiCad,Pcbnew,10.0.6*%
%TF.CreationDate,2026-09-29T01:57:31-05:00*%
%TF.ProjectId,hp_hat_routed,68705f68-6174-45f7-926f-757465642e6b,rev?*%
%TF.SameCoordinates,Original*%
%TF.FileFunction,Copper,L1,Top*%
%TF.FilePolarity,Positive*%
%FSLAX46Y46*%
G04 Gerber Fmt 4.6, Leading zero omitted, Abs format (unit mm)*
G04 Created by KiCad (PCBNEW 10.0.6) date 2026-09-29 01:57:31*
%MOMM*%
%LPD*%
G01*
G04 APERTURE LIST*
G04 Aperture macros list*
%AMRoundRect*
0 Rectangle with rounded corners*
0 $1 Rounding radius*
0 $2 $3 $4 $5 $6 $7 $8 $9 X,Y pos of 4 corners*
0 Add a 4 corners polygon primitive as box body*
4,1,4,$2,$3,$4,$5,$6,$7,$8,$9,$2,$3,0*
0 Add four circle primitives for the rounded corners*
1,1,$1+$1,$2,$3*
1,1,$1+$1,$4,$5*
1,1,$1+$1,$6,$7*
1,1,$1+$1,$8,$9*
0 Add four rect primitives between the rounded corners*
20,1,$1+$1,$2,$3,$4,$5,0*
20,1,$1+$1,$4,$5,$6,$7,0*
20,1,$1+$1,$6,$7,$8,$9,0*
20,1,$1+$1,$8,$9,$2,$3,0*%
G04 Aperture macros list end*
%TA.AperFunction,SMDPad,CuDef*%
%ADD10R,0.750000X1.000000*%
%TD*%
%TA.AperFunction,SMDPad,CuDef*%
%ADD11RoundRect,0.135000X-0.135000X-0.185000X0.135000X-0.185000X0.135000X0.185000X-0.135000X0.185000X0*%
%TD*%
%TA.AperFunction,ComponentPad*%
%ADD12R,1.800000X1.800000*%
%TD*%
%TA.AperFunction,ComponentPad*%
%ADD13C,1.800000*%
%TD*%
%TA.AperFunction,SMDPad,CuDef*%
%ADD14RoundRect,0.250000X-0.262500X-0.450000X0.262500X-0.450000X0.262500X0.450000X-0.262500X0.450000X0*%
%TD*%
%TA.AperFunction,ComponentPad*%
%ADD15R,2.400000X2.400000*%
%TD*%
%TA.AperFunction,ComponentPad*%
%ADD16C,2.400000*%
%TD*%
%TA.AperFunction,SMDPad,CuDef*%
%ADD17RoundRect,0.135000X0.185000X-0.135000X0.185000X0.135000X-0.185000X0.135000X-0.185000X-0.135000X0*%
%TD*%
%TA.AperFunction,SMDPad,CuDef*%
%ADD18RoundRect,0.250000X-0.325000X-0.650000X0.325000X-0.650000X0.325000X0.650000X-0.325000X0.650000X0*%
%TD*%
%TA.AperFunction,SMDPad,CuDef*%
%ADD19RoundRect,0.112500X0.112500X-0.187500X0.112500X0.187500X-0.112500X0.187500X-0.112500X-0.187500X0*%
%TD*%
%TA.AperFunction,SMDPad,CuDef*%
%ADD20RoundRect,0.200000X-0.200000X-0.275000X0.200000X-0.275000X0.200000X0.275000X-0.200000X0.275000X0*%
%TD*%
%TA.AperFunction,SMDPad,CuDef*%
%ADD21RoundRect,0.140000X0.170000X-0.140000X0.170000X0.140000X-0.170000X0.140000X-0.170000X-0.140000X0*%
%TD*%
%TA.AperFunction,ViaPad*%
%ADD22C,0.500000*%
%TD*%
%TA.AperFunction,ViaPad*%
%ADD23C,0.600000*%
%TD*%
%TA.AperFunction,ViaPad*%
%ADD24C,0.550000*%
%TD*%
%TA.AperFunction,Conductor*%
%ADD25C,0.500000*%
%TD*%
%TA.AperFunction,Conductor*%
%ADD26C,0.200000*%
%TD*%
%TA.AperFunction,Conductor*%
%ADD27C,0.300000*%
%TD*%
%TA.AperFunction,Conductor*%
%ADD28C,0.250000*%
%TD*%
G04 APERTURE END LIST*
D10*
%TO.P,RH6,1*%
%TO.N,H_5*%
X164230000Y-80000000D03*
%TO.P,RH6,2*%
%TO.N,H_6*%
X165730000Y-80000000D03*
%TD*%
%TO.P,RH7,1*%
%TO.N,H_6*%
X166830000Y-80000000D03*
%TO.P,RH7,2*%
%TO.N,H_7*%
X168330000Y-80000000D03*
%TD*%
D11*
%TO.P,TH2,1*%
%TO.N,A1_TH2*%
X196750000Y-80000000D03*
%TO.P,TH2,2*%
%TO.N,GND*%
X197770000Y-80000000D03*
%TD*%
D10*
%TO.P,RH16,1*%
%TO.N,H_15*%
X190230000Y-80000000D03*
%TO.P,RH16,2*%
%TO.N,H_16*%
X191730000Y-80000000D03*
%TD*%
%TO.P,RH9,1*%
%TO.N,H_8*%
X172030000Y-80000000D03*
%TO.P,RH9,2*%
%TO.N,H_9*%
X173530000Y-80000000D03*
%TD*%
D11*
%TO.P,TH1,1*%
%TO.N,A2_TH1*%
X172470000Y-72000000D03*
%TO.P,TH1,2*%
%TO.N,GND*%
X173490000Y-72000000D03*
%TD*%
D12*
%TO.P,J3,1*%
%TO.N,N/C*%
X103810000Y-87620000D03*
D13*
%TO.P,J3,2*%
X106350000Y-87620000D03*
%TO.P,J3,3*%
X108890000Y-87620000D03*
%TO.P,J3,4*%
%TO.N,D9_HEAT*%
X111430000Y-87620000D03*
%TO.P,J3,5*%
%TO.N,N/C*%
X113970000Y-87620000D03*
%TO.P,J3,6*%
X116510000Y-87620000D03*
%TO.P,J3,7*%
X119050000Y-87620000D03*
%TO.P,J3,8*%
X121590000Y-87620000D03*
%TO.P,J3,9*%
%TO.N,D4_EXC*%
X124130000Y-87620000D03*
%TO.P,J3,10*%
%TO.N,N/C*%
X126670000Y-87620000D03*
%TO.P,J3,11*%
%TO.N,D2_SDI12*%
X129210000Y-87620000D03*
%TO.P,J3,12*%
%TO.N,GND*%
X131750000Y-87620000D03*
%TO.P,J3,13*%
%TO.N,N/C*%
X134290000Y-87620000D03*
%TO.P,J3,14*%
X136830000Y-87620000D03*
%TO.P,J3,15*%
X139370000Y-87620000D03*
%TD*%
D10*
%TO.P,RH3,1*%
%TO.N,H_2*%
X156430000Y-80000000D03*
%TO.P,RH3,2*%
%TO.N,H_3*%
X157930000Y-80000000D03*
%TD*%
D12*
%TO.P,J4,1*%
%TO.N,N/C*%
X103810000Y-72380000D03*
D13*
%TO.P,J4,2*%
X106350000Y-72380000D03*
%TO.P,J4,3*%
%TO.N,VREF*%
X108890000Y-72380000D03*
%TO.P,J4,4*%
%TO.N,A0_TH3*%
X111430000Y-72380000D03*
%TO.P,J4,5*%
%TO.N,A1_TH2*%
X113970000Y-72380000D03*
%TO.P,J4,6*%
%TO.N,A2_TH1*%
X116510000Y-72380000D03*
%TO.P,J4,7*%
%TO.N,A3_TH4*%
X119050000Y-72380000D03*
%TO.P,J4,8*%
%TO.N,A4_SDA*%
X121590000Y-72380000D03*
%TO.P,J4,9*%
%TO.N,A5_SCL*%
X124130000Y-72380000D03*
%TO.P,J4,10*%
%TO.N,N/C*%
X126670000Y-72380000D03*
%TO.P,J4,11*%
X129210000Y-72380000D03*
%TO.P,J4,12*%
%TO.N,+5V*%
X131750000Y-72380000D03*
%TO.P,J4,13*%
%TO.N,N/C*%
X134290000Y-72380000D03*
%TO.P,J4,14*%
%TO.N,GND*%
X136830000Y-72380000D03*
%TO.P,J4,15*%
%TO.N,NANO_VIN*%
X139370000Y-72380000D03*
%TD*%
D10*
%TO.P,RH2,1*%
%TO.N,H_1*%
X153830000Y-80000000D03*
%TO.P,RH2,2*%
%TO.N,H_2*%
X155330000Y-80000000D03*
%TD*%
%TO.P,RH14,1*%
%TO.N,H_13*%
X185030000Y-80000000D03*
%TO.P,RH14,2*%
%TO.N,H_14*%
X186530000Y-80000000D03*
%TD*%
D14*
%TO.P,R5,1*%
%TO.N,VIN_P*%
X131387500Y-80000000D03*
%TO.P,R5,2*%
%TO.N,HEAT_P*%
X133212500Y-80000000D03*
%TD*%
D10*
%TO.P,RH1,1*%
%TO.N,HEAT_P*%
X151230000Y-80000000D03*
%TO.P,RH1,2*%
%TO.N,H_1*%
X152730000Y-80000000D03*
%TD*%
D15*
%TO.P,J1,1*%
%TO.N,VIN*%
X107500000Y-80000000D03*
D16*
%TO.P,J1,2*%
%TO.N,SDI_LINE*%
X107500000Y-84000000D03*
%TO.P,J1,3*%
%TO.N,GND*%
X107500000Y-76000000D03*
%TD*%
D17*
%TO.P,R6,1*%
%TO.N,+5V*%
X121590000Y-75430000D03*
%TO.P,R6,2*%
%TO.N,A4_SDA*%
X121590000Y-74410000D03*
%TD*%
D11*
%TO.P,TH3,1*%
%TO.N,A0_TH3*%
X172470000Y-88000000D03*
%TO.P,TH3,2*%
%TO.N,GND*%
X173490000Y-88000000D03*
%TD*%
D17*
%TO.P,R4,1*%
%TO.N,SDI_LINE*%
X112840000Y-85000000D03*
%TO.P,R4,2*%
%TO.N,GND*%
X112840000Y-83980000D03*
%TD*%
D18*
%TO.P,C3,1*%
%TO.N,VIN_P*%
X114525000Y-80000000D03*
%TO.P,C3,2*%
%TO.N,GND*%
X117475000Y-80000000D03*
%TD*%
D10*
%TO.P,RH8,1*%
%TO.N,H_7*%
X169430000Y-80000000D03*
%TO.P,RH8,2*%
%TO.N,H_8*%
X170930000Y-80000000D03*
%TD*%
D19*
%TO.P,D4,1*%
%TO.N,SDI_LINE*%
X110200000Y-85000000D03*
%TO.P,D4,2*%
%TO.N,GND*%
X110200000Y-82900000D03*
%TD*%
D20*
%TO.P,R3,1*%
%TO.N,SDI_LINE*%
X114075000Y-85000000D03*
%TO.P,R3,2*%
%TO.N,D2_SDI12*%
X115725000Y-85000000D03*
%TD*%
D10*
%TO.P,RH5,1*%
%TO.N,H_4*%
X161630000Y-80000000D03*
%TO.P,RH5,2*%
%TO.N,H_5*%
X163130000Y-80000000D03*
%TD*%
%TO.P,RH12,1*%
%TO.N,H_11*%
X179830000Y-80000000D03*
%TO.P,RH12,2*%
%TO.N,H_12*%
X181330000Y-80000000D03*
%TD*%
%TO.P,RH17,1*%
%TO.N,H_16*%
X192830000Y-80000000D03*
%TO.P,RH17,2*%
%TO.N,HEAT_RTN*%
X194330000Y-80000000D03*
%TD*%
%TO.P,RH11,1*%
%TO.N,H_10*%
X177230000Y-80000000D03*
%TO.P,RH11,2*%
%TO.N,H_11*%
X178730000Y-80000000D03*
%TD*%
%TO.P,RH15,1*%
%TO.N,H_14*%
X187630000Y-80000000D03*
%TO.P,RH15,2*%
%TO.N,H_15*%
X189130000Y-80000000D03*
%TD*%
D17*
%TO.P,R7,1*%
%TO.N,+5V*%
X124130000Y-75430000D03*
%TO.P,R7,2*%
%TO.N,A5_SCL*%
X124130000Y-74410000D03*
%TD*%
D10*
%TO.P,RH13,1*%
%TO.N,H_12*%
X182430000Y-80000000D03*
%TO.P,RH13,2*%
%TO.N,H_13*%
X183930000Y-80000000D03*
%TD*%
%TO.P,RH4,1*%
%TO.N,H_3*%
X159030000Y-80000000D03*
%TO.P,RH4,2*%
%TO.N,H_4*%
X160530000Y-80000000D03*
%TD*%
D21*
%TO.P,C4,1*%
%TO.N,SDI_LINE*%
X111720000Y-85000000D03*
%TO.P,C4,2*%
%TO.N,GND*%
X111720000Y-84040000D03*
%TD*%
D10*
%TO.P,RH10,1*%
%TO.N,H_9*%
X174630000Y-80000000D03*
%TO.P,RH10,2*%
%TO.N,H_10*%
X176130000Y-80000000D03*
%TD*%
D22*
%TO.N,A1_TH2*%
X195900000Y-80000000D03*
D23*
X134400000Y-78765000D03*
D22*
%TO.N,GND*%
X198620000Y-80000000D03*
D23*
X137300000Y-75600000D03*
X136200000Y-77600000D03*
X117475000Y-78500000D03*
X138300000Y-82400000D03*
X139900000Y-84400000D03*
X142300000Y-83600000D03*
X132062500Y-78100000D03*
X120450000Y-83400000D03*
X142300000Y-76400000D03*
X139900000Y-75600000D03*
X112280000Y-83200000D03*
X138300000Y-77600000D03*
X133900000Y-75650000D03*
X137300000Y-84400000D03*
X136200000Y-82400000D03*
X140400000Y-77600000D03*
X140400000Y-82400000D03*
X134400000Y-81235000D03*
X174340000Y-88000000D03*
X133300000Y-82400000D03*
X141600000Y-72580000D03*
X174340000Y-72000000D03*
X122400000Y-77700000D03*
X109400000Y-82900000D03*
X141600000Y-87420000D03*
%TO.N,D9_HEAT*%
X127800000Y-86200000D03*
%TO.N,+5V*%
X122860000Y-75430000D03*
X133199999Y-75170000D03*
X118550000Y-83400000D03*
%TO.N,NANO_VIN*%
X125975000Y-78900000D03*
%TO.N,VIN_P*%
X130949999Y-78450000D03*
X113500000Y-80000000D03*
X130300000Y-80000000D03*
%TO.N,HEAT_P*%
X133350000Y-78450000D03*
D24*
%TO.N,HEAT_RTN*%
X195130000Y-80000000D03*
%TD*%
%TO.N,H_5*%
D25*
X163130000Y-80000000D02*
X164230000Y-80000000D01*
%TO.N,H_6*%
X165730000Y-80000000D02*
X166830000Y-80000000D01*
%TO.N,H_7*%
X168330000Y-80000000D02*
X169430000Y-80000000D01*
%TO.N,A1_TH2*%
D26*
X113970000Y-76600000D02*
X113970000Y-72380000D01*
X134400000Y-77100000D02*
X133900000Y-76600000D01*
X134400000Y-78765000D02*
X134400000Y-77100000D01*
X195900000Y-80000000D02*
X196750000Y-80000000D01*
X133900000Y-76600000D02*
X113970000Y-76600000D01*
%TO.N,GND*%
X198620000Y-80000000D02*
X197770000Y-80000000D01*
X173490000Y-88000000D02*
X174340000Y-88000000D01*
D27*
X110200000Y-82900000D02*
X109400000Y-82900000D01*
D25*
X117475000Y-80000000D02*
X117475000Y-78500000D01*
D27*
X111720000Y-84040000D02*
X111720000Y-83200000D01*
X112840000Y-83200000D02*
X112840000Y-83980000D01*
X111720000Y-83200000D02*
X112840000Y-83200000D01*
D26*
X173490000Y-72000000D02*
X174340000Y-72000000D01*
%TO.N,H_15*%
D25*
X189130000Y-80000000D02*
X190230000Y-80000000D01*
%TO.N,H_16*%
X191730000Y-80000000D02*
X192830000Y-80000000D01*
%TO.N,H_8*%
X170930000Y-80000000D02*
X172030000Y-80000000D01*
%TO.N,H_9*%
X173530000Y-80000000D02*
X174630000Y-80000000D01*
%TO.N,A2_TH1*%
D26*
X139600000Y-73800000D02*
X127500000Y-73800000D01*
X127500000Y-73800000D02*
X125200000Y-76100000D01*
X125200000Y-76100000D02*
X116510000Y-76100000D01*
X142180000Y-72000000D02*
X141400000Y-72000000D01*
X116510000Y-76100000D02*
X116509999Y-72380000D01*
X142180000Y-72000000D02*
X172470000Y-72000000D01*
X141400000Y-72000000D02*
X139600000Y-73800000D01*
%TO.N,D9_HEAT*%
X111430000Y-87620000D02*
X111430000Y-86720000D01*
X111430000Y-86720000D02*
X111950000Y-86200000D01*
X111950000Y-86200000D02*
X127800000Y-86200000D01*
%TO.N,D2_SDI12*%
X129210000Y-85810000D02*
X129210000Y-87620000D01*
X128400000Y-85000000D02*
X129210000Y-85810000D01*
X115725000Y-85000000D02*
X128400000Y-85000000D01*
%TO.N,H_2*%
D25*
X155330000Y-80000000D02*
X156430000Y-80000000D01*
%TO.N,H_3*%
X157930000Y-80000000D02*
X159030000Y-80000000D01*
%TO.N,A0_TH3*%
D26*
X111430000Y-81400000D02*
X111430000Y-72380000D01*
X112030000Y-82000000D02*
X111430000Y-81400000D01*
X130900000Y-86200000D02*
X129639999Y-84940000D01*
X129639999Y-82600000D02*
X129039999Y-82000000D01*
X142180000Y-88000000D02*
X141400000Y-88000000D01*
X129039999Y-82000000D02*
X112030000Y-82000000D01*
X141400000Y-88000000D02*
X139600000Y-86200000D01*
X139600000Y-86200000D02*
X130900000Y-86200000D01*
X129639999Y-84940000D02*
X129639999Y-82600000D01*
X142180000Y-88000000D02*
X172470000Y-88000000D01*
%TO.N,A4_SDA*%
X121590000Y-72380000D02*
X121590000Y-74410000D01*
%TO.N,A5_SCL*%
X124130000Y-72380000D02*
X124130000Y-74410000D01*
%TO.N,+5V*%
D27*
X121590000Y-75430000D02*
X124130000Y-75430000D01*
%TO.N,H_1*%
D25*
X152730000Y-80000000D02*
X153830000Y-80000000D01*
%TO.N,H_13*%
X183930000Y-80000000D02*
X185030000Y-80000000D01*
%TO.N,H_14*%
X186530000Y-80000000D02*
X187630000Y-80000000D01*
%TO.N,VIN_P*%
X130300000Y-80000000D02*
X131387499Y-80000000D01*
D26*
X130949999Y-79500000D02*
X130949999Y-78450000D01*
D25*
X113500000Y-80000000D02*
X114525000Y-80000000D01*
%TO.N,HEAT_P*%
X133212500Y-80000000D02*
X142180000Y-80000000D01*
D26*
X133350000Y-79500000D02*
X133350000Y-78450000D01*
D25*
X142180000Y-80000000D02*
X151230000Y-80000000D01*
%TO.N,SDI_LINE*%
D28*
X108500000Y-85000000D02*
X114075000Y-85000000D01*
X107500000Y-84000000D02*
X108500000Y-85000000D01*
%TO.N,H_4*%
D25*
X160530000Y-80000000D02*
X161630000Y-80000000D01*
%TO.N,H_11*%
X178730000Y-80000000D02*
X179830000Y-80000000D01*
%TO.N,H_12*%
X181330000Y-80000000D02*
X182430000Y-80000000D01*
%TO.N,HEAT_RTN*%
X194330000Y-80000000D02*
X195130000Y-80000000D01*
%TO.N,H_10*%
X176130000Y-80000000D02*
X177230000Y-80000000D01*
%TD*%
%TA.AperFunction,Conductor*%
%TO.N,GND*%
G36*
X111088691Y-73668907D02*
G01*
X111124655Y-73718407D01*
X111129500Y-73749000D01*
X111129500Y-81439564D01*
X111149978Y-81515988D01*
X111149980Y-81515992D01*
X111189538Y-81584508D01*
X111189540Y-81584511D01*
X111789540Y-82184511D01*
X111789539Y-82184511D01*
X111845489Y-82240460D01*
X111914007Y-82280019D01*
X111914011Y-82280021D01*
X111990435Y-82300499D01*
X111990437Y-82300500D01*
X111990438Y-82300500D01*
X128874520Y-82300500D01*
X128932711Y-82319407D01*
X128944524Y-82329496D01*
X129310503Y-82695475D01*
X129338280Y-82749992D01*
X129339499Y-82765479D01*
X129339499Y-84979564D01*
X129359976Y-85055985D01*
X129359978Y-85055989D01*
X129394617Y-85115987D01*
X129399536Y-85124507D01*
X129399537Y-85124508D01*
X129399539Y-85124511D01*
X130045464Y-85770435D01*
X130456025Y-86180996D01*
X130483802Y-86235513D01*
X130474231Y-86295945D01*
X130430966Y-86339210D01*
X130386021Y-86350000D01*
X129609500Y-86350000D01*
X129551309Y-86331093D01*
X129515345Y-86281593D01*
X129510500Y-86251000D01*
X129510500Y-85770437D01*
X129510499Y-85770435D01*
X129490021Y-85694011D01*
X129490019Y-85694007D01*
X129450460Y-85625489D01*
X129394511Y-85569539D01*
X129394511Y-85569540D01*
X128584511Y-84759540D01*
X128572667Y-84752702D01*
X128540311Y-84734021D01*
X128540310Y-84734021D01*
X128515988Y-84719978D01*
X128439564Y-84699500D01*
X128439562Y-84699500D01*
X116411008Y-84699500D01*
X116352817Y-84680593D01*
X116316853Y-84631093D01*
X116313227Y-84615987D01*
X116310647Y-84599699D01*
X116310646Y-84599697D01*
X116310646Y-84599696D01*
X116253050Y-84486658D01*
X116163342Y-84396950D01*
X116050304Y-84339354D01*
X116050305Y-84339354D01*
X115956522Y-84324500D01*
X115493479Y-84324500D01*
X115493476Y-84324501D01*
X115399700Y-84339352D01*
X115399695Y-84339354D01*
X115286659Y-84396949D01*
X115196949Y-84486659D01*
X115139354Y-84599695D01*
X115124500Y-84693477D01*
X115124500Y-85306520D01*
X115124501Y-85306523D01*
X115139352Y-85400299D01*
X115139354Y-85400304D01*
X115196950Y-85513342D01*
X115286658Y-85603050D01*
X115399696Y-85660646D01*
X115493481Y-85675500D01*
X115956518Y-85675499D01*
X115956520Y-85675499D01*
X115956521Y-85675498D01*
X116003411Y-85668072D01*
X116050299Y-85660647D01*
X116050299Y-85660646D01*
X116050304Y-85660646D01*
X116163342Y-85603050D01*
X116253050Y-85513342D01*
X116310646Y-85400304D01*
X116313226Y-85384013D01*
X116341003Y-85329497D01*
X116395519Y-85301719D01*
X116411007Y-85300500D01*
X128234521Y-85300500D01*
X128292712Y-85319407D01*
X128304525Y-85329496D01*
X128880504Y-85905475D01*
X128908281Y-85959992D01*
X128909500Y-85975479D01*
X128909500Y-86251000D01*
X128890593Y-86309191D01*
X128841093Y-86345155D01*
X128810500Y-86350000D01*
X128399500Y-86350000D01*
X128341309Y-86331093D01*
X128305345Y-86281593D01*
X128300500Y-86251000D01*
X128300500Y-86134109D01*
X128300500Y-86134108D01*
X128266392Y-86006814D01*
X128266390Y-86006811D01*
X128266390Y-86006809D01*
X128200503Y-85892690D01*
X128200501Y-85892688D01*
X128200500Y-85892686D01*
X128107314Y-85799500D01*
X128107311Y-85799498D01*
X128107309Y-85799496D01*
X127993189Y-85733609D01*
X127993191Y-85733609D01*
X127943799Y-85720375D01*
X127865892Y-85699500D01*
X127734108Y-85699500D01*
X127656200Y-85720375D01*
X127606809Y-85733609D01*
X127492690Y-85799496D01*
X127492689Y-85799497D01*
X127492686Y-85799499D01*
X127492686Y-85799500D01*
X127421680Y-85870505D01*
X127367166Y-85898281D01*
X127351679Y-85899500D01*
X111910435Y-85899500D01*
X111834011Y-85919978D01*
X111834007Y-85919980D01*
X111765489Y-85959539D01*
X111404024Y-86321004D01*
X111349508Y-86348781D01*
X111334021Y-86350000D01*
X100399000Y-86350000D01*
X100340809Y-86331093D01*
X100304845Y-86281593D01*
X100300000Y-86251000D01*
X100300000Y-83889774D01*
X106099500Y-83889774D01*
X106099500Y-84110225D01*
X106133984Y-84327948D01*
X106202102Y-84537599D01*
X106202104Y-84537602D01*
X106202105Y-84537606D01*
X106233744Y-84599700D01*
X106295029Y-84719979D01*
X106302185Y-84734022D01*
X106431758Y-84912365D01*
X106587635Y-85068242D01*
X106765978Y-85197815D01*
X106962394Y-85297895D01*
X107172049Y-85366015D01*
X107259140Y-85379809D01*
X107389775Y-85400500D01*
X107389778Y-85400500D01*
X107610225Y-85400500D01*
X107719086Y-85383257D01*
X107827951Y-85366015D01*
X108037606Y-85297895D01*
X108172230Y-85229300D01*
X108232662Y-85219728D01*
X108287178Y-85247505D01*
X108300138Y-85260465D01*
X108337569Y-85282075D01*
X108364970Y-85297896D01*
X108364969Y-85297896D01*
X108374358Y-85303316D01*
X108374360Y-85303316D01*
X108374362Y-85303318D01*
X108374363Y-85303318D01*
X108374365Y-85303319D01*
X108415755Y-85314409D01*
X108457145Y-85325500D01*
X108457147Y-85325501D01*
X108457148Y-85325501D01*
X108548916Y-85325501D01*
X108548932Y-85325500D01*
X109744595Y-85325500D01*
X109802786Y-85344407D01*
X109825689Y-85367713D01*
X109827146Y-85369794D01*
X109827149Y-85369797D01*
X109827150Y-85369799D01*
X109905201Y-85447850D01*
X110005240Y-85494499D01*
X110050821Y-85500500D01*
X110349178Y-85500499D01*
X110394760Y-85494499D01*
X110394761Y-85494499D01*
X110460019Y-85464068D01*
X110494799Y-85447850D01*
X110572850Y-85369799D01*
X110572851Y-85369795D01*
X110572853Y-85369794D01*
X110574311Y-85367713D01*
X110576842Y-85365805D01*
X110578974Y-85363674D01*
X110579273Y-85363973D01*
X110623177Y-85330892D01*
X110655405Y-85325500D01*
X111212953Y-85325500D01*
X111271144Y-85344407D01*
X111282950Y-85354490D01*
X111351684Y-85423224D01*
X111460513Y-85473972D01*
X111510099Y-85480500D01*
X111929900Y-85480499D01*
X111979487Y-85473972D01*
X111979488Y-85473972D01*
X112038137Y-85446622D01*
X112088316Y-85423224D01*
X112157045Y-85354494D01*
X112211560Y-85326719D01*
X112227047Y-85325500D01*
X112330024Y-85325500D01*
X112388215Y-85344407D01*
X112400021Y-85354490D01*
X112459596Y-85414065D01*
X112459597Y-85414065D01*
X112459598Y-85414066D01*
X112566824Y-85464067D01*
X112566825Y-85464067D01*
X112566827Y-85464068D01*
X112615684Y-85470500D01*
X112615685Y-85470500D01*
X113064314Y-85470500D01*
X113064316Y-85470500D01*
X113113173Y-85464068D01*
X113220404Y-85414065D01*
X113279974Y-85354494D01*
X113334489Y-85326719D01*
X113349976Y-85325500D01*
X113393121Y-85325500D01*
X113451312Y-85344407D01*
X113487276Y-85393907D01*
X113487276Y-85393908D01*
X113489354Y-85400306D01*
X113530216Y-85480500D01*
X113546950Y-85513342D01*
X113636658Y-85603050D01*
X113749696Y-85660646D01*
X113843481Y-85675500D01*
X114306518Y-85675499D01*
X114306520Y-85675499D01*
X114306521Y-85675498D01*
X114353411Y-85668072D01*
X114400299Y-85660647D01*
X114400299Y-85660646D01*
X114400304Y-85660646D01*
X114513342Y-85603050D01*
X114603050Y-85513342D01*
X114660646Y-85400304D01*
X114675500Y-85306519D01*
X114675499Y-84693482D01*
X114670463Y-84661684D01*
X114660647Y-84599700D01*
X114660646Y-84599698D01*
X114660646Y-84599696D01*
X114603050Y-84486658D01*
X114513342Y-84396950D01*
X114400304Y-84339354D01*
X114400305Y-84339354D01*
X114306522Y-84324500D01*
X113843479Y-84324500D01*
X113843476Y-84324501D01*
X113749700Y-84339352D01*
X113749695Y-84339354D01*
X113636659Y-84396949D01*
X113546949Y-84486659D01*
X113489354Y-84599693D01*
X113487276Y-84606092D01*
X113451313Y-84655592D01*
X113393122Y-84674500D01*
X113349976Y-84674500D01*
X113291785Y-84655593D01*
X113279978Y-84645509D01*
X113220404Y-84585935D01*
X113220402Y-84585934D01*
X113220401Y-84585933D01*
X113113175Y-84535932D01*
X113080601Y-84531644D01*
X113064316Y-84529500D01*
X112615684Y-84529500D01*
X112599398Y-84531644D01*
X112566825Y-84535932D01*
X112566824Y-84535932D01*
X112459598Y-84585933D01*
X112459596Y-84585934D01*
X112459596Y-84585935D01*
X112400025Y-84645505D01*
X112345511Y-84673281D01*
X112330024Y-84674500D01*
X112227047Y-84674500D01*
X112168856Y-84655593D01*
X112157049Y-84645509D01*
X112088316Y-84576776D01*
X112088314Y-84576775D01*
X112088313Y-84576774D01*
X111979489Y-84526029D01*
X111979488Y-84526028D01*
X111962958Y-84523852D01*
X111929901Y-84519500D01*
X111929899Y-84519500D01*
X111510103Y-84519500D01*
X111510092Y-84519501D01*
X111460513Y-84526027D01*
X111460511Y-84526027D01*
X111351686Y-84576774D01*
X111351684Y-84576775D01*
X111351684Y-84576776D01*
X111282954Y-84645505D01*
X111228440Y-84673281D01*
X111212953Y-84674500D01*
X110655405Y-84674500D01*
X110597214Y-84655593D01*
X110574311Y-84632287D01*
X110572853Y-84630205D01*
X110572850Y-84630202D01*
X110572850Y-84630201D01*
X110494799Y-84552150D01*
X110394760Y-84505501D01*
X110349179Y-84499500D01*
X110349177Y-84499500D01*
X110050826Y-84499500D01*
X110050814Y-84499501D01*
X110005240Y-84505500D01*
X110005238Y-84505500D01*
X109905203Y-84552148D01*
X109827146Y-84630205D01*
X109825689Y-84632287D01*
X109823157Y-84634194D01*
X109821026Y-84636326D01*
X109820726Y-84636026D01*
X109776823Y-84669108D01*
X109744595Y-84674500D01*
X108889356Y-84674500D01*
X108831165Y-84655593D01*
X108795201Y-84606093D01*
X108795201Y-84544907D01*
X108797892Y-84537614D01*
X108797894Y-84537607D01*
X108797895Y-84537606D01*
X108866015Y-84327951D01*
X108900500Y-84110222D01*
X108900500Y-83889778D01*
X108900500Y-83889774D01*
X108871600Y-83707314D01*
X108866015Y-83672049D01*
X108797895Y-83462394D01*
X108732529Y-83334108D01*
X118049500Y-83334108D01*
X118049500Y-83465892D01*
X118079579Y-83578151D01*
X118083609Y-83593190D01*
X118149496Y-83707309D01*
X118149498Y-83707311D01*
X118149500Y-83707314D01*
X118242686Y-83800500D01*
X118242688Y-83800501D01*
X118242690Y-83800503D01*
X118356810Y-83866390D01*
X118356808Y-83866390D01*
X118356812Y-83866391D01*
X118356814Y-83866392D01*
X118484108Y-83900500D01*
X118484110Y-83900500D01*
X118615890Y-83900500D01*
X118615892Y-83900500D01*
X118743186Y-83866392D01*
X118743188Y-83866390D01*
X118743190Y-83866390D01*
X118857309Y-83800503D01*
X118857309Y-83800502D01*
X118857314Y-83800500D01*
X118950500Y-83707314D01*
X119016392Y-83593186D01*
X119050500Y-83465892D01*
X119050500Y-83334108D01*
X119016392Y-83206814D01*
X119016390Y-83206811D01*
X119016390Y-83206809D01*
X118950503Y-83092690D01*
X118950501Y-83092688D01*
X118950500Y-83092686D01*
X118857314Y-82999500D01*
X118857311Y-82999498D01*
X118857309Y-82999496D01*
X118743189Y-82933609D01*
X118743191Y-82933609D01*
X118693799Y-82920375D01*
X118615892Y-82899500D01*
X118484108Y-82899500D01*
X118406200Y-82920375D01*
X118356809Y-82933609D01*
X118242690Y-82999496D01*
X118149496Y-83092690D01*
X118083609Y-83206809D01*
X118083608Y-83206814D01*
X118049500Y-83334108D01*
X108732529Y-83334108D01*
X108697815Y-83265978D01*
X108568242Y-83087635D01*
X108412365Y-82931758D01*
X108234022Y-82802185D01*
X108234021Y-82802184D01*
X108234019Y-82802183D01*
X108144825Y-82756736D01*
X108037606Y-82702105D01*
X108037602Y-82702104D01*
X108037599Y-82702102D01*
X107827948Y-82633984D01*
X107610225Y-82599500D01*
X107610222Y-82599500D01*
X107389778Y-82599500D01*
X107389775Y-82599500D01*
X107172051Y-82633984D01*
X106962400Y-82702102D01*
X106765980Y-82802183D01*
X106676806Y-82866971D01*
X106587635Y-82931758D01*
X106431758Y-83087635D01*
X106366971Y-83176806D01*
X106302183Y-83265980D01*
X106202102Y-83462400D01*
X106133984Y-83672051D01*
X106099500Y-83889774D01*
X100300000Y-83889774D01*
X100300000Y-78780253D01*
X106099500Y-78780253D01*
X106099500Y-81219746D01*
X106099501Y-81219758D01*
X106111132Y-81278227D01*
X106111133Y-81278231D01*
X106155448Y-81344552D01*
X106221769Y-81388867D01*
X106266231Y-81397711D01*
X106280241Y-81400498D01*
X106280246Y-81400498D01*
X106280252Y-81400500D01*
X106280253Y-81400500D01*
X108719747Y-81400500D01*
X108719748Y-81400500D01*
X108778231Y-81388867D01*
X108844552Y-81344552D01*
X108888867Y-81278231D01*
X108900500Y-81219748D01*
X108900500Y-78780252D01*
X108888867Y-78721769D01*
X108844552Y-78655448D01*
X108826201Y-78643186D01*
X108778233Y-78611134D01*
X108778231Y-78611133D01*
X108778228Y-78611132D01*
X108778227Y-78611132D01*
X108719758Y-78599501D01*
X108719748Y-78599500D01*
X106280252Y-78599500D01*
X106280251Y-78599500D01*
X106280241Y-78599501D01*
X106221772Y-78611132D01*
X106221766Y-78611134D01*
X106155451Y-78655445D01*
X106155445Y-78655451D01*
X106111134Y-78721766D01*
X106111132Y-78721772D01*
X106099501Y-78780241D01*
X106099500Y-78780253D01*
X100300000Y-78780253D01*
X100300000Y-75885879D01*
X106050000Y-75885879D01*
X106050000Y-76114120D01*
X106085702Y-76339538D01*
X106156232Y-76556607D01*
X106259848Y-76759965D01*
X106259852Y-76759971D01*
X106313135Y-76833308D01*
X106935386Y-76211056D01*
X106940889Y-76231591D01*
X107019881Y-76368408D01*
X107131592Y-76480119D01*
X107268409Y-76559111D01*
X107288940Y-76564612D01*
X106666690Y-77186862D01*
X106666690Y-77186863D01*
X106740028Y-77240147D01*
X106740034Y-77240151D01*
X106943392Y-77343767D01*
X107160461Y-77414297D01*
X107385880Y-77450000D01*
X107614120Y-77450000D01*
X107839538Y-77414297D01*
X108056607Y-77343767D01*
X108259968Y-77240149D01*
X108333308Y-77186863D01*
X107711057Y-76564612D01*
X107731591Y-76559111D01*
X107868408Y-76480119D01*
X107980119Y-76368408D01*
X108059111Y-76231591D01*
X108064612Y-76211057D01*
X108686863Y-76833308D01*
X108740149Y-76759968D01*
X108843767Y-76556607D01*
X108914297Y-76339538D01*
X108950000Y-76114120D01*
X108950000Y-75885879D01*
X108914297Y-75660461D01*
X108843767Y-75443392D01*
X108740151Y-75240034D01*
X108740147Y-75240028D01*
X108686863Y-75166690D01*
X108686862Y-75166690D01*
X108064612Y-75788940D01*
X108059111Y-75768409D01*
X107980119Y-75631592D01*
X107868408Y-75519881D01*
X107731591Y-75440889D01*
X107711056Y-75435386D01*
X108333308Y-74813135D01*
X108259971Y-74759852D01*
X108259965Y-74759848D01*
X108056607Y-74656232D01*
X107839538Y-74585702D01*
X107614120Y-74550000D01*
X107385880Y-74550000D01*
X107160461Y-74585702D01*
X106943392Y-74656232D01*
X106740034Y-74759848D01*
X106740030Y-74759850D01*
X106666690Y-74813135D01*
X107288942Y-75435387D01*
X107268409Y-75440889D01*
X107131592Y-75519881D01*
X107019881Y-75631592D01*
X106940889Y-75768409D01*
X106935387Y-75788942D01*
X106313135Y-75166690D01*
X106259850Y-75240030D01*
X106259848Y-75240034D01*
X106156232Y-75443392D01*
X106085702Y-75660461D01*
X106050000Y-75885879D01*
X100300000Y-75885879D01*
X100300000Y-73749000D01*
X100318907Y-73690809D01*
X100368407Y-73654845D01*
X100399000Y-73650000D01*
X111030500Y-73650000D01*
X111088691Y-73668907D01*
G37*
%TD.AperFunction*%
%TA.AperFunction,Conductor*%
G36*
X113628691Y-73668907D02*
G01*
X113664655Y-73718407D01*
X113669500Y-73749000D01*
X113669500Y-76639564D01*
X113689978Y-76715988D01*
X113689980Y-76715992D01*
X113729538Y-76784508D01*
X113729540Y-76784511D01*
X113785489Y-76840460D01*
X113785491Y-76840461D01*
X113854007Y-76880019D01*
X113854011Y-76880021D01*
X113930435Y-76900499D01*
X113930437Y-76900500D01*
X113930438Y-76900500D01*
X133734521Y-76900500D01*
X133792712Y-76919407D01*
X133804525Y-76929496D01*
X134070504Y-77195475D01*
X134098281Y-77249992D01*
X134099500Y-77265479D01*
X134099500Y-78316679D01*
X134080593Y-78374870D01*
X134070503Y-78386683D01*
X134018346Y-78438839D01*
X133963829Y-78466616D01*
X133903397Y-78457044D01*
X133860133Y-78413779D01*
X133852814Y-78390205D01*
X133852179Y-78390376D01*
X133850500Y-78384108D01*
X133816392Y-78256814D01*
X133816390Y-78256811D01*
X133816390Y-78256809D01*
X133750503Y-78142690D01*
X133750501Y-78142688D01*
X133750500Y-78142686D01*
X133657314Y-78049500D01*
X133657311Y-78049498D01*
X133657309Y-78049496D01*
X133543189Y-77983609D01*
X133543191Y-77983609D01*
X133493799Y-77970375D01*
X133415892Y-77949500D01*
X133284108Y-77949500D01*
X133206200Y-77970375D01*
X133156809Y-77983609D01*
X133042690Y-78049496D01*
X132949496Y-78142690D01*
X132883609Y-78256809D01*
X132883608Y-78256814D01*
X132849500Y-78384108D01*
X132849500Y-78515892D01*
X132871903Y-78599501D01*
X132883609Y-78643190D01*
X132949496Y-78757309D01*
X132949498Y-78757311D01*
X132949500Y-78757314D01*
X133020505Y-78828319D01*
X133048281Y-78882834D01*
X133049500Y-78898321D01*
X133049500Y-79000500D01*
X133030593Y-79058691D01*
X132981093Y-79094655D01*
X132950500Y-79099500D01*
X132895725Y-79099500D01*
X132865305Y-79102353D01*
X132865296Y-79102355D01*
X132737116Y-79147207D01*
X132627855Y-79227845D01*
X132627845Y-79227855D01*
X132547207Y-79337116D01*
X132502355Y-79465296D01*
X132502353Y-79465305D01*
X132499500Y-79495725D01*
X132499500Y-80504274D01*
X132502353Y-80534694D01*
X132502355Y-80534703D01*
X132547207Y-80662883D01*
X132627845Y-80772144D01*
X132627847Y-80772146D01*
X132627850Y-80772150D01*
X132627853Y-80772152D01*
X132627855Y-80772154D01*
X132737116Y-80852792D01*
X132737117Y-80852792D01*
X132737118Y-80852793D01*
X132865301Y-80897646D01*
X132895725Y-80900499D01*
X132895727Y-80900500D01*
X132895734Y-80900500D01*
X133529273Y-80900500D01*
X133529273Y-80900499D01*
X133559699Y-80897646D01*
X133687882Y-80852793D01*
X133797150Y-80772150D01*
X133877793Y-80662882D01*
X133922646Y-80534699D01*
X133922646Y-80534689D01*
X133923931Y-80528815D01*
X133926806Y-80529443D01*
X133946344Y-80484129D01*
X133998967Y-80452913D01*
X134020692Y-80450500D01*
X142781000Y-80450500D01*
X142839191Y-80469407D01*
X142875155Y-80518907D01*
X142880000Y-80549500D01*
X142880000Y-86251000D01*
X142861093Y-86309191D01*
X142811593Y-86345155D01*
X142781000Y-86350000D01*
X140215979Y-86350000D01*
X140157788Y-86331093D01*
X140145976Y-86321004D01*
X139784510Y-85959539D01*
X139715992Y-85919980D01*
X139715988Y-85919978D01*
X139639564Y-85899500D01*
X139639562Y-85899500D01*
X131065479Y-85899500D01*
X131007288Y-85880593D01*
X130995475Y-85870504D01*
X129969495Y-84844524D01*
X129941718Y-84790007D01*
X129940499Y-84774520D01*
X129940499Y-82560437D01*
X129940498Y-82560435D01*
X129920020Y-82484011D01*
X129920018Y-82484007D01*
X129880459Y-82415489D01*
X129824510Y-82359539D01*
X129824510Y-82359540D01*
X129224510Y-81759540D01*
X129224507Y-81759538D01*
X129155991Y-81719980D01*
X129155987Y-81719978D01*
X129079563Y-81699500D01*
X129079561Y-81699500D01*
X112195479Y-81699500D01*
X112137288Y-81680593D01*
X112125475Y-81670504D01*
X111759496Y-81304525D01*
X111731719Y-81250008D01*
X111730500Y-81234521D01*
X111730500Y-79934108D01*
X112999500Y-79934108D01*
X112999500Y-80065892D01*
X113028437Y-80173886D01*
X113033609Y-80193190D01*
X113099496Y-80307309D01*
X113099498Y-80307311D01*
X113099500Y-80307314D01*
X113192686Y-80400500D01*
X113192688Y-80400501D01*
X113192690Y-80400503D01*
X113306810Y-80466390D01*
X113306808Y-80466390D01*
X113306812Y-80466391D01*
X113306814Y-80466392D01*
X113434108Y-80500500D01*
X113434110Y-80500500D01*
X113565891Y-80500500D01*
X113565892Y-80500500D01*
X113624877Y-80484695D01*
X113685978Y-80487896D01*
X113733528Y-80526401D01*
X113749500Y-80580321D01*
X113749500Y-80704274D01*
X113752353Y-80734694D01*
X113752355Y-80734703D01*
X113797207Y-80862883D01*
X113877845Y-80972144D01*
X113877847Y-80972146D01*
X113877850Y-80972150D01*
X113877853Y-80972152D01*
X113877855Y-80972154D01*
X113987116Y-81052792D01*
X113987117Y-81052792D01*
X113987118Y-81052793D01*
X114115301Y-81097646D01*
X114145725Y-81100499D01*
X114145727Y-81100500D01*
X114145734Y-81100500D01*
X114904273Y-81100500D01*
X114904273Y-81100499D01*
X114934699Y-81097646D01*
X115062882Y-81052793D01*
X115172150Y-80972150D01*
X115252793Y-80862882D01*
X115297646Y-80734699D01*
X115300499Y-80704273D01*
X115300500Y-80704273D01*
X115300500Y-79934108D01*
X129799500Y-79934108D01*
X129799500Y-80065892D01*
X129828437Y-80173886D01*
X129833609Y-80193190D01*
X129899496Y-80307309D01*
X129899498Y-80307311D01*
X129899500Y-80307314D01*
X129992686Y-80400500D01*
X129992688Y-80400501D01*
X129992690Y-80400503D01*
X130106810Y-80466390D01*
X130106808Y-80466390D01*
X130106812Y-80466391D01*
X130106814Y-80466392D01*
X130234108Y-80500500D01*
X130234110Y-80500500D01*
X130365890Y-80500500D01*
X130365892Y-80500500D01*
X130493186Y-80466392D01*
X130497741Y-80463761D01*
X130547239Y-80450500D01*
X130579308Y-80450500D01*
X130637499Y-80469407D01*
X130673463Y-80518907D01*
X130675531Y-80528932D01*
X130676069Y-80528815D01*
X130677355Y-80534703D01*
X130722207Y-80662883D01*
X130802845Y-80772144D01*
X130802847Y-80772146D01*
X130802850Y-80772150D01*
X130802853Y-80772152D01*
X130802855Y-80772154D01*
X130912116Y-80852792D01*
X130912117Y-80852792D01*
X130912118Y-80852793D01*
X131040301Y-80897646D01*
X131070725Y-80900499D01*
X131070727Y-80900500D01*
X131070734Y-80900500D01*
X131704273Y-80900500D01*
X131704273Y-80900499D01*
X131734699Y-80897646D01*
X131862882Y-80852793D01*
X131972150Y-80772150D01*
X132052793Y-80662882D01*
X132097646Y-80534699D01*
X132100499Y-80504273D01*
X132100500Y-80504273D01*
X132100500Y-79495727D01*
X132100499Y-79495725D01*
X132099127Y-79481093D01*
X132097646Y-79465301D01*
X132052793Y-79337118D01*
X132022250Y-79295734D01*
X131972154Y-79227855D01*
X131972152Y-79227853D01*
X131972150Y-79227850D01*
X131972146Y-79227847D01*
X131972144Y-79227845D01*
X131862883Y-79147207D01*
X131734703Y-79102355D01*
X131734694Y-79102353D01*
X131704274Y-79099500D01*
X131704266Y-79099500D01*
X131349499Y-79099500D01*
X131291308Y-79080593D01*
X131255344Y-79031093D01*
X131250499Y-79000500D01*
X131250499Y-78898321D01*
X131269406Y-78840130D01*
X131279489Y-78828323D01*
X131350499Y-78757314D01*
X131384104Y-78699109D01*
X131416389Y-78643190D01*
X131416389Y-78643188D01*
X131416391Y-78643186D01*
X131450499Y-78515892D01*
X131450499Y-78384108D01*
X131416391Y-78256814D01*
X131416389Y-78256811D01*
X131416389Y-78256809D01*
X131350502Y-78142690D01*
X131350500Y-78142688D01*
X131350499Y-78142686D01*
X131257313Y-78049500D01*
X131257310Y-78049498D01*
X131257308Y-78049496D01*
X131143188Y-77983609D01*
X131143190Y-77983609D01*
X131093798Y-77970375D01*
X131015891Y-77949500D01*
X130884107Y-77949500D01*
X130806199Y-77970375D01*
X130756808Y-77983609D01*
X130642689Y-78049496D01*
X130549495Y-78142690D01*
X130483608Y-78256809D01*
X130483607Y-78256814D01*
X130449499Y-78384108D01*
X130449499Y-78515892D01*
X130471902Y-78599501D01*
X130483608Y-78643190D01*
X130549495Y-78757309D01*
X130549497Y-78757311D01*
X130549499Y-78757314D01*
X130620504Y-78828319D01*
X130648280Y-78882834D01*
X130649499Y-78898321D01*
X130649499Y-79450500D01*
X130630592Y-79508691D01*
X130581092Y-79544655D01*
X130550499Y-79549500D01*
X130547239Y-79549500D01*
X130497741Y-79536238D01*
X130493186Y-79533608D01*
X130481934Y-79530593D01*
X130365892Y-79499500D01*
X130234108Y-79499500D01*
X130156200Y-79520375D01*
X130106809Y-79533609D01*
X129992690Y-79599496D01*
X129899496Y-79692690D01*
X129833609Y-79806809D01*
X129814539Y-79877978D01*
X129799500Y-79934108D01*
X115300500Y-79934108D01*
X115300500Y-79295727D01*
X115300499Y-79295725D01*
X115297646Y-79265301D01*
X115252793Y-79137118D01*
X115241931Y-79122401D01*
X115172154Y-79027855D01*
X115172152Y-79027853D01*
X115172150Y-79027850D01*
X115172146Y-79027847D01*
X115172144Y-79027845D01*
X115062883Y-78947207D01*
X114988167Y-78921063D01*
X114934703Y-78902355D01*
X114934694Y-78902353D01*
X114904274Y-78899500D01*
X114904266Y-78899500D01*
X114145734Y-78899500D01*
X114145725Y-78899500D01*
X114115305Y-78902353D01*
X114115296Y-78902355D01*
X113987116Y-78947207D01*
X113877855Y-79027845D01*
X113877845Y-79027855D01*
X113797207Y-79137116D01*
X113752355Y-79265296D01*
X113752353Y-79265305D01*
X113749500Y-79295725D01*
X113749500Y-79419678D01*
X113730593Y-79477869D01*
X113681093Y-79513833D01*
X113624878Y-79515305D01*
X113565892Y-79499500D01*
X113434108Y-79499500D01*
X113356200Y-79520375D01*
X113306809Y-79533609D01*
X113192690Y-79599496D01*
X113099496Y-79692690D01*
X113033609Y-79806809D01*
X113014539Y-79877978D01*
X112999500Y-79934108D01*
X111730500Y-79934108D01*
X111730500Y-78834108D01*
X125474500Y-78834108D01*
X125474500Y-78965892D01*
X125499365Y-79058691D01*
X125508609Y-79093190D01*
X125574496Y-79207309D01*
X125574498Y-79207311D01*
X125574500Y-79207314D01*
X125667686Y-79300500D01*
X125667688Y-79300501D01*
X125667690Y-79300503D01*
X125781810Y-79366390D01*
X125781808Y-79366390D01*
X125781812Y-79366391D01*
X125781814Y-79366392D01*
X125909108Y-79400500D01*
X125909110Y-79400500D01*
X126040890Y-79400500D01*
X126040892Y-79400500D01*
X126168186Y-79366392D01*
X126168188Y-79366390D01*
X126168190Y-79366390D01*
X126282309Y-79300503D01*
X126282309Y-79300502D01*
X126282314Y-79300500D01*
X126375500Y-79207314D01*
X126399640Y-79165503D01*
X126441390Y-79093190D01*
X126441390Y-79093188D01*
X126441392Y-79093186D01*
X126475500Y-78965892D01*
X126475500Y-78834108D01*
X126441392Y-78706814D01*
X126441390Y-78706811D01*
X126441390Y-78706809D01*
X126375503Y-78592690D01*
X126375501Y-78592688D01*
X126375500Y-78592686D01*
X126282314Y-78499500D01*
X126282311Y-78499498D01*
X126282309Y-78499496D01*
X126168189Y-78433609D01*
X126168191Y-78433609D01*
X126094182Y-78413779D01*
X126040892Y-78399500D01*
X125909108Y-78399500D01*
X125855818Y-78413779D01*
X125781809Y-78433609D01*
X125667690Y-78499496D01*
X125574496Y-78592690D01*
X125508609Y-78706809D01*
X125504601Y-78721769D01*
X125474500Y-78834108D01*
X111730500Y-78834108D01*
X111730500Y-73749000D01*
X111749407Y-73690809D01*
X111798907Y-73654845D01*
X111829500Y-73650000D01*
X113570500Y-73650000D01*
X113628691Y-73668907D01*
G37*
%TD.AperFunction*%
%TA.AperFunction,Conductor*%
G36*
X142839191Y-73668907D02*
G01*
X142875155Y-73718407D01*
X142880000Y-73749000D01*
X142880000Y-79450500D01*
X142861093Y-79508691D01*
X142811593Y-79544655D01*
X142781000Y-79549500D01*
X134020692Y-79549500D01*
X133962501Y-79530593D01*
X133926537Y-79481093D01*
X133924468Y-79471067D01*
X133923931Y-79471185D01*
X133922646Y-79465305D01*
X133922646Y-79465301D01*
X133877793Y-79337118D01*
X133847250Y-79295734D01*
X133797154Y-79227855D01*
X133797152Y-79227853D01*
X133797150Y-79227850D01*
X133769318Y-79207309D01*
X133690711Y-79149294D01*
X133655119Y-79099526D01*
X133650500Y-79069639D01*
X133650500Y-78898321D01*
X133669407Y-78840130D01*
X133679496Y-78828318D01*
X133700693Y-78807121D01*
X133731654Y-78776159D01*
X133786168Y-78748383D01*
X133846600Y-78757954D01*
X133889865Y-78801218D01*
X133897187Y-78824793D01*
X133897821Y-78824624D01*
X133899500Y-78830890D01*
X133899500Y-78830892D01*
X133929032Y-78941109D01*
X133933609Y-78958190D01*
X133999496Y-79072309D01*
X133999498Y-79072311D01*
X133999500Y-79072314D01*
X134092686Y-79165500D01*
X134092688Y-79165501D01*
X134092690Y-79165503D01*
X134206810Y-79231390D01*
X134206808Y-79231390D01*
X134206812Y-79231391D01*
X134206814Y-79231392D01*
X134334108Y-79265500D01*
X134334110Y-79265500D01*
X134465890Y-79265500D01*
X134465892Y-79265500D01*
X134593186Y-79231392D01*
X134593188Y-79231390D01*
X134593190Y-79231390D01*
X134707309Y-79165503D01*
X134707309Y-79165502D01*
X134707314Y-79165500D01*
X134800500Y-79072314D01*
X134800503Y-79072309D01*
X134866390Y-78958190D01*
X134866390Y-78958188D01*
X134866392Y-78958186D01*
X134900500Y-78830892D01*
X134900500Y-78699108D01*
X134866392Y-78571814D01*
X134866390Y-78571811D01*
X134866390Y-78571809D01*
X134800503Y-78457690D01*
X134800501Y-78457688D01*
X134800500Y-78457686D01*
X134729494Y-78386680D01*
X134701719Y-78332166D01*
X134700500Y-78316679D01*
X134700500Y-77060439D01*
X134700500Y-77060438D01*
X134680022Y-76984012D01*
X134680020Y-76984009D01*
X134680020Y-76984007D01*
X134640463Y-76915493D01*
X134640461Y-76915491D01*
X134640460Y-76915489D01*
X134084511Y-76359540D01*
X134074143Y-76353554D01*
X134051464Y-76340460D01*
X134051462Y-76340459D01*
X134015989Y-76319979D01*
X134015986Y-76319978D01*
X133939564Y-76299500D01*
X133939562Y-76299500D01*
X125664479Y-76299500D01*
X125606288Y-76280593D01*
X125570324Y-76231093D01*
X125570324Y-76169907D01*
X125594475Y-76130496D01*
X126620863Y-75104108D01*
X132699499Y-75104108D01*
X132699499Y-75235892D01*
X132729578Y-75348151D01*
X132733608Y-75363190D01*
X132799495Y-75477309D01*
X132799497Y-75477311D01*
X132799499Y-75477314D01*
X132892685Y-75570500D01*
X132892687Y-75570501D01*
X132892689Y-75570503D01*
X133006809Y-75636390D01*
X133006807Y-75636390D01*
X133006811Y-75636391D01*
X133006813Y-75636392D01*
X133134107Y-75670500D01*
X133134109Y-75670500D01*
X133265889Y-75670500D01*
X133265891Y-75670500D01*
X133393185Y-75636392D01*
X133393187Y-75636390D01*
X133393189Y-75636390D01*
X133507308Y-75570503D01*
X133507308Y-75570502D01*
X133507313Y-75570500D01*
X133600499Y-75477314D01*
X133621529Y-75440889D01*
X133666389Y-75363190D01*
X133666389Y-75363188D01*
X133666391Y-75363186D01*
X133700499Y-75235892D01*
X133700499Y-75104108D01*
X133666391Y-74976814D01*
X133666389Y-74976811D01*
X133666389Y-74976809D01*
X133600502Y-74862690D01*
X133600500Y-74862688D01*
X133600499Y-74862686D01*
X133507313Y-74769500D01*
X133507310Y-74769498D01*
X133507308Y-74769496D01*
X133393188Y-74703609D01*
X133393190Y-74703609D01*
X133343798Y-74690375D01*
X133265891Y-74669500D01*
X133134107Y-74669500D01*
X133056199Y-74690375D01*
X133006808Y-74703609D01*
X132892689Y-74769496D01*
X132799495Y-74862690D01*
X132733608Y-74976809D01*
X132723125Y-75015933D01*
X132699499Y-75104108D01*
X126620863Y-75104108D01*
X127595475Y-74129496D01*
X127649992Y-74101719D01*
X127665479Y-74100500D01*
X139639563Y-74100500D01*
X139639563Y-74100499D01*
X139715989Y-74080021D01*
X139784511Y-74040460D01*
X139840460Y-73984511D01*
X140145975Y-73678996D01*
X140200492Y-73651219D01*
X140215979Y-73650000D01*
X142781000Y-73650000D01*
X142839191Y-73668907D01*
G37*
%TD.AperFunction*%
%TD*%
M02*
