%TF.GenerationSoftware,KiCad,Pcbnew,10.0.6*%
%TF.CreationDate,2026-09-29T01:57:31-05:00*%
%TF.ProjectId,hp_hat_routed,68705f68-6174-45f7-926f-757465642e6b,rev?*%
%TF.SameCoordinates,Original*%
%TF.FileFunction,Paste,Top*%
%TF.FilePolarity,Positive*%
%FSLAX46Y46*%
G04 Gerber Fmt 4.6, Leading zero omitted, Abs format (unit mm)*
G04 Created by KiCad (PCBNEW 10.0.6) date 2026-09-29 01:57:31*
%MOMM*%
%LPD*%
G01*
G04 APERTURE LIST*
G04 Aperture macros list*
%AMRoundRect*
0 Rectangle with rounded corners*
0 $1 Rounding radius*
0 $2 $3 $4 $5 $6 $7 $8 $9 X,Y pos of 4 corners*
0 Add a 4 corners polygon primitive as box body*
4,1,4,$2,$3,$4,$5,$6,$7,$8,$9,$2,$3,0*
0 Add four circle primitives for the rounded corners*
1,1,$1+$1,$2,$3*
1,1,$1+$1,$4,$5*
1,1,$1+$1,$6,$7*
1,1,$1+$1,$8,$9*
0 Add four rect primitives between the rounded corners*
20,1,$1+$1,$2,$3,$4,$5,0*
20,1,$1+$1,$4,$5,$6,$7,0*
20,1,$1+$1,$6,$7,$8,$9,0*
20,1,$1+$1,$8,$9,$2,$3,0*%
G04 Aperture macros list end*
%ADD10R,0.750000X1.000000*%
%ADD11RoundRect,0.135000X-0.135000X-0.185000X0.135000X-0.185000X0.135000X0.185000X-0.135000X0.185000X0*%
%ADD12RoundRect,0.250000X-0.262500X-0.450000X0.262500X-0.450000X0.262500X0.450000X-0.262500X0.450000X0*%
%ADD13RoundRect,0.135000X0.185000X-0.135000X0.185000X0.135000X-0.185000X0.135000X-0.185000X-0.135000X0*%
%ADD14RoundRect,0.250000X-0.325000X-0.650000X0.325000X-0.650000X0.325000X0.650000X-0.325000X0.650000X0*%
%ADD15RoundRect,0.112500X0.112500X-0.187500X0.112500X0.187500X-0.112500X0.187500X-0.112500X-0.187500X0*%
%ADD16RoundRect,0.200000X-0.200000X-0.275000X0.200000X-0.275000X0.200000X0.275000X-0.200000X0.275000X0*%
%ADD17RoundRect,0.140000X0.170000X-0.140000X0.170000X0.140000X-0.170000X0.140000X-0.170000X-0.140000X0*%
G04 APERTURE END LIST*
D10*
%TO.C,RH6*%
X164230000Y-80000000D03*
X165730000Y-80000000D03*
%TD*%
%TO.C,RH7*%
X166830000Y-80000000D03*
X168330000Y-80000000D03*
%TD*%
D11*
%TO.C,TH2*%
X196750000Y-80000000D03*
X197770000Y-80000000D03*
%TD*%
D10*
%TO.C,RH16*%
X190230000Y-80000000D03*
X191730000Y-80000000D03*
%TD*%
%TO.C,RH9*%
X172030000Y-80000000D03*
X173530000Y-80000000D03*
%TD*%
D11*
%TO.C,TH1*%
X172470000Y-72000000D03*
X173490000Y-72000000D03*
%TD*%
D10*
%TO.C,RH3*%
X156430000Y-80000000D03*
X157930000Y-80000000D03*
%TD*%
%TO.C,RH2*%
X153830000Y-80000000D03*
X155330000Y-80000000D03*
%TD*%
%TO.C,RH14*%
X185030000Y-80000000D03*
X186530000Y-80000000D03*
%TD*%
D12*
%TO.C,R5*%
X131387500Y-80000000D03*
X133212500Y-80000000D03*
%TD*%
D10*
%TO.C,RH1*%
X151230000Y-80000000D03*
X152730000Y-80000000D03*
%TD*%
D13*
%TO.C,R6*%
X121590000Y-75430000D03*
X121590000Y-74410000D03*
%TD*%
D11*
%TO.C,TH3*%
X172470000Y-88000000D03*
X173490000Y-88000000D03*
%TD*%
D13*
%TO.C,R4*%
X112840000Y-85000000D03*
X112840000Y-83980000D03*
%TD*%
D14*
%TO.C,C3*%
X114525000Y-80000000D03*
X117475000Y-80000000D03*
%TD*%
D10*
%TO.C,RH8*%
X169430000Y-80000000D03*
X170930000Y-80000000D03*
%TD*%
D15*
%TO.C,D4*%
X110200000Y-85000000D03*
X110200000Y-82900000D03*
%TD*%
D16*
%TO.C,R3*%
X114075000Y-85000000D03*
X115725000Y-85000000D03*
%TD*%
D10*
%TO.C,RH5*%
X161630000Y-80000000D03*
X163130000Y-80000000D03*
%TD*%
%TO.C,RH12*%
X179830000Y-80000000D03*
X181330000Y-80000000D03*
%TD*%
%TO.C,RH17*%
X192830000Y-80000000D03*
X194330000Y-80000000D03*
%TD*%
%TO.C,RH11*%
X177230000Y-80000000D03*
X178730000Y-80000000D03*
%TD*%
%TO.C,RH15*%
X187630000Y-80000000D03*
X189130000Y-80000000D03*
%TD*%
D13*
%TO.C,R7*%
X124130000Y-75430000D03*
X124130000Y-74410000D03*
%TD*%
D10*
%TO.C,RH13*%
X182430000Y-80000000D03*
X183930000Y-80000000D03*
%TD*%
%TO.C,RH4*%
X159030000Y-80000000D03*
X160530000Y-80000000D03*
%TD*%
D17*
%TO.C,C4*%
X111720000Y-85000000D03*
X111720000Y-84040000D03*
%TD*%
D10*
%TO.C,RH10*%
X174630000Y-80000000D03*
X176130000Y-80000000D03*
%TD*%
M02*
