%TF.GenerationSoftware,KiCad,Pcbnew,10.0.6*%
%TF.CreationDate,2026-09-25T01:07:08-05:00*%
%TF.ProjectId,hp_hat_routed,68705f68-6174-45f7-926f-757465642e6b,rev?*%
%TF.SameCoordinates,Original*%
%TF.FileFunction,Soldermask,Bot*%
%TF.FilePolarity,Negative*%
%FSLAX46Y46*%
G04 Gerber Fmt 4.6, Leading zero omitted, Abs format (unit mm)*
G04 Created by KiCad (PCBNEW 10.0.6) date 2026-09-25 01:07:08*
%MOMM*%
%LPD*%
G01*
G04 APERTURE LIST*
G04 APERTURE END LIST*
G36*
X104710000Y-88520000D02*
G01*
X102910000Y-88520000D01*
X102910000Y-86720000D01*
X104710000Y-86720000D01*
X104710000Y-88520000D01*
G37*
G36*
X106611256Y-86758754D02*
G01*
X106774257Y-86826271D01*
X106920954Y-86924291D01*
X107045709Y-87049046D01*
X107143729Y-87195743D01*
X107211246Y-87358744D01*
X107245666Y-87531785D01*
X107245666Y-87708215D01*
X107211246Y-87881256D01*
X107143729Y-88044257D01*
X107045709Y-88190954D01*
X106920954Y-88315709D01*
X106774257Y-88413729D01*
X106611256Y-88481246D01*
X106438215Y-88515666D01*
X106261785Y-88515666D01*
X106088744Y-88481246D01*
X105925743Y-88413729D01*
X105779046Y-88315709D01*
X105654291Y-88190954D01*
X105556271Y-88044257D01*
X105488754Y-87881256D01*
X105454334Y-87708215D01*
X105454334Y-87531785D01*
X105488754Y-87358744D01*
X105556271Y-87195743D01*
X105654291Y-87049046D01*
X105779046Y-86924291D01*
X105925743Y-86826271D01*
X106088744Y-86758754D01*
X106261785Y-86724334D01*
X106438215Y-86724334D01*
X106611256Y-86758754D01*
G37*
G36*
X109151256Y-86758754D02*
G01*
X109314257Y-86826271D01*
X109460954Y-86924291D01*
X109585709Y-87049046D01*
X109683729Y-87195743D01*
X109751246Y-87358744D01*
X109785666Y-87531785D01*
X109785666Y-87708215D01*
X109751246Y-87881256D01*
X109683729Y-88044257D01*
X109585709Y-88190954D01*
X109460954Y-88315709D01*
X109314257Y-88413729D01*
X109151256Y-88481246D01*
X108978215Y-88515666D01*
X108801785Y-88515666D01*
X108628744Y-88481246D01*
X108465743Y-88413729D01*
X108319046Y-88315709D01*
X108194291Y-88190954D01*
X108096271Y-88044257D01*
X108028754Y-87881256D01*
X107994334Y-87708215D01*
X107994334Y-87531785D01*
X108028754Y-87358744D01*
X108096271Y-87195743D01*
X108194291Y-87049046D01*
X108319046Y-86924291D01*
X108465743Y-86826271D01*
X108628744Y-86758754D01*
X108801785Y-86724334D01*
X108978215Y-86724334D01*
X109151256Y-86758754D01*
G37*
G36*
X111691256Y-86758754D02*
G01*
X111854257Y-86826271D01*
X112000954Y-86924291D01*
X112125709Y-87049046D01*
X112223729Y-87195743D01*
X112291246Y-87358744D01*
X112325666Y-87531785D01*
X112325666Y-87708215D01*
X112291246Y-87881256D01*
X112223729Y-88044257D01*
X112125709Y-88190954D01*
X112000954Y-88315709D01*
X111854257Y-88413729D01*
X111691256Y-88481246D01*
X111518215Y-88515666D01*
X111341785Y-88515666D01*
X111168744Y-88481246D01*
X111005743Y-88413729D01*
X110859046Y-88315709D01*
X110734291Y-88190954D01*
X110636271Y-88044257D01*
X110568754Y-87881256D01*
X110534334Y-87708215D01*
X110534334Y-87531785D01*
X110568754Y-87358744D01*
X110636271Y-87195743D01*
X110734291Y-87049046D01*
X110859046Y-86924291D01*
X111005743Y-86826271D01*
X111168744Y-86758754D01*
X111341785Y-86724334D01*
X111518215Y-86724334D01*
X111691256Y-86758754D01*
G37*
G36*
X114231256Y-86758754D02*
G01*
X114394257Y-86826271D01*
X114540954Y-86924291D01*
X114665709Y-87049046D01*
X114763729Y-87195743D01*
X114831246Y-87358744D01*
X114865666Y-87531785D01*
X114865666Y-87708215D01*
X114831246Y-87881256D01*
X114763729Y-88044257D01*
X114665709Y-88190954D01*
X114540954Y-88315709D01*
X114394257Y-88413729D01*
X114231256Y-88481246D01*
X114058215Y-88515666D01*
X113881785Y-88515666D01*
X113708744Y-88481246D01*
X113545743Y-88413729D01*
X113399046Y-88315709D01*
X113274291Y-88190954D01*
X113176271Y-88044257D01*
X113108754Y-87881256D01*
X113074334Y-87708215D01*
X113074334Y-87531785D01*
X113108754Y-87358744D01*
X113176271Y-87195743D01*
X113274291Y-87049046D01*
X113399046Y-86924291D01*
X113545743Y-86826271D01*
X113708744Y-86758754D01*
X113881785Y-86724334D01*
X114058215Y-86724334D01*
X114231256Y-86758754D01*
G37*
G36*
X116771256Y-86758754D02*
G01*
X116934257Y-86826271D01*
X117080954Y-86924291D01*
X117205709Y-87049046D01*
X117303729Y-87195743D01*
X117371246Y-87358744D01*
X117405666Y-87531785D01*
X117405666Y-87708215D01*
X117371246Y-87881256D01*
X117303729Y-88044257D01*
X117205709Y-88190954D01*
X117080954Y-88315709D01*
X116934257Y-88413729D01*
X116771256Y-88481246D01*
X116598215Y-88515666D01*
X116421785Y-88515666D01*
X116248744Y-88481246D01*
X116085743Y-88413729D01*
X115939046Y-88315709D01*
X115814291Y-88190954D01*
X115716271Y-88044257D01*
X115648754Y-87881256D01*
X115614334Y-87708215D01*
X115614334Y-87531785D01*
X115648754Y-87358744D01*
X115716271Y-87195743D01*
X115814291Y-87049046D01*
X115939046Y-86924291D01*
X116085743Y-86826271D01*
X116248744Y-86758754D01*
X116421785Y-86724334D01*
X116598215Y-86724334D01*
X116771256Y-86758754D01*
G37*
G36*
X119311256Y-86758754D02*
G01*
X119474257Y-86826271D01*
X119620954Y-86924291D01*
X119745709Y-87049046D01*
X119843729Y-87195743D01*
X119911246Y-87358744D01*
X119945666Y-87531785D01*
X119945666Y-87708215D01*
X119911246Y-87881256D01*
X119843729Y-88044257D01*
X119745709Y-88190954D01*
X119620954Y-88315709D01*
X119474257Y-88413729D01*
X119311256Y-88481246D01*
X119138215Y-88515666D01*
X118961785Y-88515666D01*
X118788744Y-88481246D01*
X118625743Y-88413729D01*
X118479046Y-88315709D01*
X118354291Y-88190954D01*
X118256271Y-88044257D01*
X118188754Y-87881256D01*
X118154334Y-87708215D01*
X118154334Y-87531785D01*
X118188754Y-87358744D01*
X118256271Y-87195743D01*
X118354291Y-87049046D01*
X118479046Y-86924291D01*
X118625743Y-86826271D01*
X118788744Y-86758754D01*
X118961785Y-86724334D01*
X119138215Y-86724334D01*
X119311256Y-86758754D01*
G37*
G36*
X121851256Y-86758754D02*
G01*
X122014257Y-86826271D01*
X122160954Y-86924291D01*
X122285709Y-87049046D01*
X122383729Y-87195743D01*
X122451246Y-87358744D01*
X122485666Y-87531785D01*
X122485666Y-87708215D01*
X122451246Y-87881256D01*
X122383729Y-88044257D01*
X122285709Y-88190954D01*
X122160954Y-88315709D01*
X122014257Y-88413729D01*
X121851256Y-88481246D01*
X121678215Y-88515666D01*
X121501785Y-88515666D01*
X121328744Y-88481246D01*
X121165743Y-88413729D01*
X121019046Y-88315709D01*
X120894291Y-88190954D01*
X120796271Y-88044257D01*
X120728754Y-87881256D01*
X120694334Y-87708215D01*
X120694334Y-87531785D01*
X120728754Y-87358744D01*
X120796271Y-87195743D01*
X120894291Y-87049046D01*
X121019046Y-86924291D01*
X121165743Y-86826271D01*
X121328744Y-86758754D01*
X121501785Y-86724334D01*
X121678215Y-86724334D01*
X121851256Y-86758754D01*
G37*
G36*
X124391256Y-86758754D02*
G01*
X124554257Y-86826271D01*
X124700954Y-86924291D01*
X124825709Y-87049046D01*
X124923729Y-87195743D01*
X124991246Y-87358744D01*
X125025666Y-87531785D01*
X125025666Y-87708215D01*
X124991246Y-87881256D01*
X124923729Y-88044257D01*
X124825709Y-88190954D01*
X124700954Y-88315709D01*
X124554257Y-88413729D01*
X124391256Y-88481246D01*
X124218215Y-88515666D01*
X124041785Y-88515666D01*
X123868744Y-88481246D01*
X123705743Y-88413729D01*
X123559046Y-88315709D01*
X123434291Y-88190954D01*
X123336271Y-88044257D01*
X123268754Y-87881256D01*
X123234334Y-87708215D01*
X123234334Y-87531785D01*
X123268754Y-87358744D01*
X123336271Y-87195743D01*
X123434291Y-87049046D01*
X123559046Y-86924291D01*
X123705743Y-86826271D01*
X123868744Y-86758754D01*
X124041785Y-86724334D01*
X124218215Y-86724334D01*
X124391256Y-86758754D01*
G37*
G36*
X126931256Y-86758754D02*
G01*
X127094257Y-86826271D01*
X127240954Y-86924291D01*
X127365709Y-87049046D01*
X127463729Y-87195743D01*
X127531246Y-87358744D01*
X127565666Y-87531785D01*
X127565666Y-87708215D01*
X127531246Y-87881256D01*
X127463729Y-88044257D01*
X127365709Y-88190954D01*
X127240954Y-88315709D01*
X127094257Y-88413729D01*
X126931256Y-88481246D01*
X126758215Y-88515666D01*
X126581785Y-88515666D01*
X126408744Y-88481246D01*
X126245743Y-88413729D01*
X126099046Y-88315709D01*
X125974291Y-88190954D01*
X125876271Y-88044257D01*
X125808754Y-87881256D01*
X125774334Y-87708215D01*
X125774334Y-87531785D01*
X125808754Y-87358744D01*
X125876271Y-87195743D01*
X125974291Y-87049046D01*
X126099046Y-86924291D01*
X126245743Y-86826271D01*
X126408744Y-86758754D01*
X126581785Y-86724334D01*
X126758215Y-86724334D01*
X126931256Y-86758754D01*
G37*
G36*
X129471256Y-86758754D02*
G01*
X129634257Y-86826271D01*
X129780954Y-86924291D01*
X129905709Y-87049046D01*
X130003729Y-87195743D01*
X130071246Y-87358744D01*
X130105666Y-87531785D01*
X130105666Y-87708215D01*
X130071246Y-87881256D01*
X130003729Y-88044257D01*
X129905709Y-88190954D01*
X129780954Y-88315709D01*
X129634257Y-88413729D01*
X129471256Y-88481246D01*
X129298215Y-88515666D01*
X129121785Y-88515666D01*
X128948744Y-88481246D01*
X128785743Y-88413729D01*
X128639046Y-88315709D01*
X128514291Y-88190954D01*
X128416271Y-88044257D01*
X128348754Y-87881256D01*
X128314334Y-87708215D01*
X128314334Y-87531785D01*
X128348754Y-87358744D01*
X128416271Y-87195743D01*
X128514291Y-87049046D01*
X128639046Y-86924291D01*
X128785743Y-86826271D01*
X128948744Y-86758754D01*
X129121785Y-86724334D01*
X129298215Y-86724334D01*
X129471256Y-86758754D01*
G37*
G36*
X132011256Y-86758754D02*
G01*
X132174257Y-86826271D01*
X132320954Y-86924291D01*
X132445709Y-87049046D01*
X132543729Y-87195743D01*
X132611246Y-87358744D01*
X132645666Y-87531785D01*
X132645666Y-87708215D01*
X132611246Y-87881256D01*
X132543729Y-88044257D01*
X132445709Y-88190954D01*
X132320954Y-88315709D01*
X132174257Y-88413729D01*
X132011256Y-88481246D01*
X131838215Y-88515666D01*
X131661785Y-88515666D01*
X131488744Y-88481246D01*
X131325743Y-88413729D01*
X131179046Y-88315709D01*
X131054291Y-88190954D01*
X130956271Y-88044257D01*
X130888754Y-87881256D01*
X130854334Y-87708215D01*
X130854334Y-87531785D01*
X130888754Y-87358744D01*
X130956271Y-87195743D01*
X131054291Y-87049046D01*
X131179046Y-86924291D01*
X131325743Y-86826271D01*
X131488744Y-86758754D01*
X131661785Y-86724334D01*
X131838215Y-86724334D01*
X132011256Y-86758754D01*
G37*
G36*
X134551256Y-86758754D02*
G01*
X134714257Y-86826271D01*
X134860954Y-86924291D01*
X134985709Y-87049046D01*
X135083729Y-87195743D01*
X135151246Y-87358744D01*
X135185666Y-87531785D01*
X135185666Y-87708215D01*
X135151246Y-87881256D01*
X135083729Y-88044257D01*
X134985709Y-88190954D01*
X134860954Y-88315709D01*
X134714257Y-88413729D01*
X134551256Y-88481246D01*
X134378215Y-88515666D01*
X134201785Y-88515666D01*
X134028744Y-88481246D01*
X133865743Y-88413729D01*
X133719046Y-88315709D01*
X133594291Y-88190954D01*
X133496271Y-88044257D01*
X133428754Y-87881256D01*
X133394334Y-87708215D01*
X133394334Y-87531785D01*
X133428754Y-87358744D01*
X133496271Y-87195743D01*
X133594291Y-87049046D01*
X133719046Y-86924291D01*
X133865743Y-86826271D01*
X134028744Y-86758754D01*
X134201785Y-86724334D01*
X134378215Y-86724334D01*
X134551256Y-86758754D01*
G37*
G36*
X137091256Y-86758754D02*
G01*
X137254257Y-86826271D01*
X137400954Y-86924291D01*
X137525709Y-87049046D01*
X137623729Y-87195743D01*
X137691246Y-87358744D01*
X137725666Y-87531785D01*
X137725666Y-87708215D01*
X137691246Y-87881256D01*
X137623729Y-88044257D01*
X137525709Y-88190954D01*
X137400954Y-88315709D01*
X137254257Y-88413729D01*
X137091256Y-88481246D01*
X136918215Y-88515666D01*
X136741785Y-88515666D01*
X136568744Y-88481246D01*
X136405743Y-88413729D01*
X136259046Y-88315709D01*
X136134291Y-88190954D01*
X136036271Y-88044257D01*
X135968754Y-87881256D01*
X135934334Y-87708215D01*
X135934334Y-87531785D01*
X135968754Y-87358744D01*
X136036271Y-87195743D01*
X136134291Y-87049046D01*
X136259046Y-86924291D01*
X136405743Y-86826271D01*
X136568744Y-86758754D01*
X136741785Y-86724334D01*
X136918215Y-86724334D01*
X137091256Y-86758754D01*
G37*
G36*
X139631256Y-86758754D02*
G01*
X139794257Y-86826271D01*
X139940954Y-86924291D01*
X140065709Y-87049046D01*
X140163729Y-87195743D01*
X140231246Y-87358744D01*
X140265666Y-87531785D01*
X140265666Y-87708215D01*
X140231246Y-87881256D01*
X140163729Y-88044257D01*
X140065709Y-88190954D01*
X139940954Y-88315709D01*
X139794257Y-88413729D01*
X139631256Y-88481246D01*
X139458215Y-88515666D01*
X139281785Y-88515666D01*
X139108744Y-88481246D01*
X138945743Y-88413729D01*
X138799046Y-88315709D01*
X138674291Y-88190954D01*
X138576271Y-88044257D01*
X138508754Y-87881256D01*
X138474334Y-87708215D01*
X138474334Y-87531785D01*
X138508754Y-87358744D01*
X138576271Y-87195743D01*
X138674291Y-87049046D01*
X138799046Y-86924291D01*
X138945743Y-86826271D01*
X139108744Y-86758754D01*
X139281785Y-86724334D01*
X139458215Y-86724334D01*
X139631256Y-86758754D01*
G37*
G36*
X107780134Y-82833156D02*
G01*
X107959220Y-82891345D01*
X108126998Y-82976832D01*
X108279338Y-83087513D01*
X108412487Y-83220662D01*
X108523168Y-83373002D01*
X108608655Y-83540780D01*
X108666844Y-83719866D01*
X108696301Y-83905849D01*
X108696301Y-84094151D01*
X108666844Y-84280134D01*
X108608655Y-84459220D01*
X108523168Y-84626998D01*
X108412487Y-84779338D01*
X108279338Y-84912487D01*
X108126998Y-85023168D01*
X107959220Y-85108655D01*
X107780134Y-85166844D01*
X107594151Y-85196301D01*
X107405849Y-85196301D01*
X107219866Y-85166844D01*
X107040780Y-85108655D01*
X106873002Y-85023168D01*
X106720662Y-84912487D01*
X106587513Y-84779338D01*
X106476832Y-84626998D01*
X106391345Y-84459220D01*
X106333156Y-84280134D01*
X106303699Y-84094151D01*
X106303699Y-83905849D01*
X106333156Y-83719866D01*
X106391345Y-83540780D01*
X106476832Y-83373002D01*
X106587513Y-83220662D01*
X106720662Y-83087513D01*
X106873002Y-82976832D01*
X107040780Y-82891345D01*
X107219866Y-82833156D01*
X107405849Y-82803699D01*
X107594151Y-82803699D01*
X107780134Y-82833156D01*
G37*
G36*
X107780134Y-78833156D02*
G01*
X107959220Y-78891345D01*
X108126998Y-78976832D01*
X108279338Y-79087513D01*
X108412487Y-79220662D01*
X108523168Y-79373002D01*
X108608655Y-79540780D01*
X108666844Y-79719866D01*
X108696301Y-79905849D01*
X108696301Y-80094151D01*
X108666844Y-80280134D01*
X108608655Y-80459220D01*
X108523168Y-80626998D01*
X108412487Y-80779338D01*
X108279338Y-80912487D01*
X108126998Y-81023168D01*
X107959220Y-81108655D01*
X107780134Y-81166844D01*
X107594151Y-81196301D01*
X107405849Y-81196301D01*
X107219866Y-81166844D01*
X107040780Y-81108655D01*
X106873002Y-81023168D01*
X106720662Y-80912487D01*
X106587513Y-80779338D01*
X106476832Y-80626998D01*
X106391345Y-80459220D01*
X106333156Y-80280134D01*
X106303699Y-80094151D01*
X106303699Y-79905849D01*
X106333156Y-79719866D01*
X106391345Y-79540780D01*
X106476832Y-79373002D01*
X106587513Y-79220662D01*
X106720662Y-79087513D01*
X106873002Y-78976832D01*
X107040780Y-78891345D01*
X107219866Y-78833156D01*
X107405849Y-78803699D01*
X107594151Y-78803699D01*
X107780134Y-78833156D01*
G37*
G36*
X108700000Y-77200000D02*
G01*
X106300000Y-77200000D01*
X106300000Y-74800000D01*
X108700000Y-74800000D01*
X108700000Y-77200000D01*
G37*
G36*
X104710000Y-73280000D02*
G01*
X102910000Y-73280000D01*
X102910000Y-71480000D01*
X104710000Y-71480000D01*
X104710000Y-73280000D01*
G37*
G36*
X106611256Y-71518754D02*
G01*
X106774257Y-71586271D01*
X106920954Y-71684291D01*
X107045709Y-71809046D01*
X107143729Y-71955743D01*
X107211246Y-72118744D01*
X107245666Y-72291785D01*
X107245666Y-72468215D01*
X107211246Y-72641256D01*
X107143729Y-72804257D01*
X107045709Y-72950954D01*
X106920954Y-73075709D01*
X106774257Y-73173729D01*
X106611256Y-73241246D01*
X106438215Y-73275666D01*
X106261785Y-73275666D01*
X106088744Y-73241246D01*
X105925743Y-73173729D01*
X105779046Y-73075709D01*
X105654291Y-72950954D01*
X105556271Y-72804257D01*
X105488754Y-72641256D01*
X105454334Y-72468215D01*
X105454334Y-72291785D01*
X105488754Y-72118744D01*
X105556271Y-71955743D01*
X105654291Y-71809046D01*
X105779046Y-71684291D01*
X105925743Y-71586271D01*
X106088744Y-71518754D01*
X106261785Y-71484334D01*
X106438215Y-71484334D01*
X106611256Y-71518754D01*
G37*
G36*
X109151256Y-71518754D02*
G01*
X109314257Y-71586271D01*
X109460954Y-71684291D01*
X109585709Y-71809046D01*
X109683729Y-71955743D01*
X109751246Y-72118744D01*
X109785666Y-72291785D01*
X109785666Y-72468215D01*
X109751246Y-72641256D01*
X109683729Y-72804257D01*
X109585709Y-72950954D01*
X109460954Y-73075709D01*
X109314257Y-73173729D01*
X109151256Y-73241246D01*
X108978215Y-73275666D01*
X108801785Y-73275666D01*
X108628744Y-73241246D01*
X108465743Y-73173729D01*
X108319046Y-73075709D01*
X108194291Y-72950954D01*
X108096271Y-72804257D01*
X108028754Y-72641256D01*
X107994334Y-72468215D01*
X107994334Y-72291785D01*
X108028754Y-72118744D01*
X108096271Y-71955743D01*
X108194291Y-71809046D01*
X108319046Y-71684291D01*
X108465743Y-71586271D01*
X108628744Y-71518754D01*
X108801785Y-71484334D01*
X108978215Y-71484334D01*
X109151256Y-71518754D01*
G37*
G36*
X111691256Y-71518754D02*
G01*
X111854257Y-71586271D01*
X112000954Y-71684291D01*
X112125709Y-71809046D01*
X112223729Y-71955743D01*
X112291246Y-72118744D01*
X112325666Y-72291785D01*
X112325666Y-72468215D01*
X112291246Y-72641256D01*
X112223729Y-72804257D01*
X112125709Y-72950954D01*
X112000954Y-73075709D01*
X111854257Y-73173729D01*
X111691256Y-73241246D01*
X111518215Y-73275666D01*
X111341785Y-73275666D01*
X111168744Y-73241246D01*
X111005743Y-73173729D01*
X110859046Y-73075709D01*
X110734291Y-72950954D01*
X110636271Y-72804257D01*
X110568754Y-72641256D01*
X110534334Y-72468215D01*
X110534334Y-72291785D01*
X110568754Y-72118744D01*
X110636271Y-71955743D01*
X110734291Y-71809046D01*
X110859046Y-71684291D01*
X111005743Y-71586271D01*
X111168744Y-71518754D01*
X111341785Y-71484334D01*
X111518215Y-71484334D01*
X111691256Y-71518754D01*
G37*
G36*
X114231256Y-71518754D02*
G01*
X114394257Y-71586271D01*
X114540954Y-71684291D01*
X114665709Y-71809046D01*
X114763729Y-71955743D01*
X114831246Y-72118744D01*
X114865666Y-72291785D01*
X114865666Y-72468215D01*
X114831246Y-72641256D01*
X114763729Y-72804257D01*
X114665709Y-72950954D01*
X114540954Y-73075709D01*
X114394257Y-73173729D01*
X114231256Y-73241246D01*
X114058215Y-73275666D01*
X113881785Y-73275666D01*
X113708744Y-73241246D01*
X113545743Y-73173729D01*
X113399046Y-73075709D01*
X113274291Y-72950954D01*
X113176271Y-72804257D01*
X113108754Y-72641256D01*
X113074334Y-72468215D01*
X113074334Y-72291785D01*
X113108754Y-72118744D01*
X113176271Y-71955743D01*
X113274291Y-71809046D01*
X113399046Y-71684291D01*
X113545743Y-71586271D01*
X113708744Y-71518754D01*
X113881785Y-71484334D01*
X114058215Y-71484334D01*
X114231256Y-71518754D01*
G37*
G36*
X116771256Y-71518754D02*
G01*
X116934257Y-71586271D01*
X117080954Y-71684291D01*
X117205709Y-71809046D01*
X117303729Y-71955743D01*
X117371246Y-72118744D01*
X117405666Y-72291785D01*
X117405666Y-72468215D01*
X117371246Y-72641256D01*
X117303729Y-72804257D01*
X117205709Y-72950954D01*
X117080954Y-73075709D01*
X116934257Y-73173729D01*
X116771256Y-73241246D01*
X116598215Y-73275666D01*
X116421785Y-73275666D01*
X116248744Y-73241246D01*
X116085743Y-73173729D01*
X115939046Y-73075709D01*
X115814291Y-72950954D01*
X115716271Y-72804257D01*
X115648754Y-72641256D01*
X115614334Y-72468215D01*
X115614334Y-72291785D01*
X115648754Y-72118744D01*
X115716271Y-71955743D01*
X115814291Y-71809046D01*
X115939046Y-71684291D01*
X116085743Y-71586271D01*
X116248744Y-71518754D01*
X116421785Y-71484334D01*
X116598215Y-71484334D01*
X116771256Y-71518754D01*
G37*
G36*
X119311256Y-71518754D02*
G01*
X119474257Y-71586271D01*
X119620954Y-71684291D01*
X119745709Y-71809046D01*
X119843729Y-71955743D01*
X119911246Y-72118744D01*
X119945666Y-72291785D01*
X119945666Y-72468215D01*
X119911246Y-72641256D01*
X119843729Y-72804257D01*
X119745709Y-72950954D01*
X119620954Y-73075709D01*
X119474257Y-73173729D01*
X119311256Y-73241246D01*
X119138215Y-73275666D01*
X118961785Y-73275666D01*
X118788744Y-73241246D01*
X118625743Y-73173729D01*
X118479046Y-73075709D01*
X118354291Y-72950954D01*
X118256271Y-72804257D01*
X118188754Y-72641256D01*
X118154334Y-72468215D01*
X118154334Y-72291785D01*
X118188754Y-72118744D01*
X118256271Y-71955743D01*
X118354291Y-71809046D01*
X118479046Y-71684291D01*
X118625743Y-71586271D01*
X118788744Y-71518754D01*
X118961785Y-71484334D01*
X119138215Y-71484334D01*
X119311256Y-71518754D01*
G37*
G36*
X121851256Y-71518754D02*
G01*
X122014257Y-71586271D01*
X122160954Y-71684291D01*
X122285709Y-71809046D01*
X122383729Y-71955743D01*
X122451246Y-72118744D01*
X122485666Y-72291785D01*
X122485666Y-72468215D01*
X122451246Y-72641256D01*
X122383729Y-72804257D01*
X122285709Y-72950954D01*
X122160954Y-73075709D01*
X122014257Y-73173729D01*
X121851256Y-73241246D01*
X121678215Y-73275666D01*
X121501785Y-73275666D01*
X121328744Y-73241246D01*
X121165743Y-73173729D01*
X121019046Y-73075709D01*
X120894291Y-72950954D01*
X120796271Y-72804257D01*
X120728754Y-72641256D01*
X120694334Y-72468215D01*
X120694334Y-72291785D01*
X120728754Y-72118744D01*
X120796271Y-71955743D01*
X120894291Y-71809046D01*
X121019046Y-71684291D01*
X121165743Y-71586271D01*
X121328744Y-71518754D01*
X121501785Y-71484334D01*
X121678215Y-71484334D01*
X121851256Y-71518754D01*
G37*
G36*
X124391256Y-71518754D02*
G01*
X124554257Y-71586271D01*
X124700954Y-71684291D01*
X124825709Y-71809046D01*
X124923729Y-71955743D01*
X124991246Y-72118744D01*
X125025666Y-72291785D01*
X125025666Y-72468215D01*
X124991246Y-72641256D01*
X124923729Y-72804257D01*
X124825709Y-72950954D01*
X124700954Y-73075709D01*
X124554257Y-73173729D01*
X124391256Y-73241246D01*
X124218215Y-73275666D01*
X124041785Y-73275666D01*
X123868744Y-73241246D01*
X123705743Y-73173729D01*
X123559046Y-73075709D01*
X123434291Y-72950954D01*
X123336271Y-72804257D01*
X123268754Y-72641256D01*
X123234334Y-72468215D01*
X123234334Y-72291785D01*
X123268754Y-72118744D01*
X123336271Y-71955743D01*
X123434291Y-71809046D01*
X123559046Y-71684291D01*
X123705743Y-71586271D01*
X123868744Y-71518754D01*
X124041785Y-71484334D01*
X124218215Y-71484334D01*
X124391256Y-71518754D01*
G37*
G36*
X126931256Y-71518754D02*
G01*
X127094257Y-71586271D01*
X127240954Y-71684291D01*
X127365709Y-71809046D01*
X127463729Y-71955743D01*
X127531246Y-72118744D01*
X127565666Y-72291785D01*
X127565666Y-72468215D01*
X127531246Y-72641256D01*
X127463729Y-72804257D01*
X127365709Y-72950954D01*
X127240954Y-73075709D01*
X127094257Y-73173729D01*
X126931256Y-73241246D01*
X126758215Y-73275666D01*
X126581785Y-73275666D01*
X126408744Y-73241246D01*
X126245743Y-73173729D01*
X126099046Y-73075709D01*
X125974291Y-72950954D01*
X125876271Y-72804257D01*
X125808754Y-72641256D01*
X125774334Y-72468215D01*
X125774334Y-72291785D01*
X125808754Y-72118744D01*
X125876271Y-71955743D01*
X125974291Y-71809046D01*
X126099046Y-71684291D01*
X126245743Y-71586271D01*
X126408744Y-71518754D01*
X126581785Y-71484334D01*
X126758215Y-71484334D01*
X126931256Y-71518754D01*
G37*
G36*
X129471256Y-71518754D02*
G01*
X129634257Y-71586271D01*
X129780954Y-71684291D01*
X129905709Y-71809046D01*
X130003729Y-71955743D01*
X130071246Y-72118744D01*
X130105666Y-72291785D01*
X130105666Y-72468215D01*
X130071246Y-72641256D01*
X130003729Y-72804257D01*
X129905709Y-72950954D01*
X129780954Y-73075709D01*
X129634257Y-73173729D01*
X129471256Y-73241246D01*
X129298215Y-73275666D01*
X129121785Y-73275666D01*
X128948744Y-73241246D01*
X128785743Y-73173729D01*
X128639046Y-73075709D01*
X128514291Y-72950954D01*
X128416271Y-72804257D01*
X128348754Y-72641256D01*
X128314334Y-72468215D01*
X128314334Y-72291785D01*
X128348754Y-72118744D01*
X128416271Y-71955743D01*
X128514291Y-71809046D01*
X128639046Y-71684291D01*
X128785743Y-71586271D01*
X128948744Y-71518754D01*
X129121785Y-71484334D01*
X129298215Y-71484334D01*
X129471256Y-71518754D01*
G37*
G36*
X132011256Y-71518754D02*
G01*
X132174257Y-71586271D01*
X132320954Y-71684291D01*
X132445709Y-71809046D01*
X132543729Y-71955743D01*
X132611246Y-72118744D01*
X132645666Y-72291785D01*
X132645666Y-72468215D01*
X132611246Y-72641256D01*
X132543729Y-72804257D01*
X132445709Y-72950954D01*
X132320954Y-73075709D01*
X132174257Y-73173729D01*
X132011256Y-73241246D01*
X131838215Y-73275666D01*
X131661785Y-73275666D01*
X131488744Y-73241246D01*
X131325743Y-73173729D01*
X131179046Y-73075709D01*
X131054291Y-72950954D01*
X130956271Y-72804257D01*
X130888754Y-72641256D01*
X130854334Y-72468215D01*
X130854334Y-72291785D01*
X130888754Y-72118744D01*
X130956271Y-71955743D01*
X131054291Y-71809046D01*
X131179046Y-71684291D01*
X131325743Y-71586271D01*
X131488744Y-71518754D01*
X131661785Y-71484334D01*
X131838215Y-71484334D01*
X132011256Y-71518754D01*
G37*
G36*
X134551256Y-71518754D02*
G01*
X134714257Y-71586271D01*
X134860954Y-71684291D01*
X134985709Y-71809046D01*
X135083729Y-71955743D01*
X135151246Y-72118744D01*
X135185666Y-72291785D01*
X135185666Y-72468215D01*
X135151246Y-72641256D01*
X135083729Y-72804257D01*
X134985709Y-72950954D01*
X134860954Y-73075709D01*
X134714257Y-73173729D01*
X134551256Y-73241246D01*
X134378215Y-73275666D01*
X134201785Y-73275666D01*
X134028744Y-73241246D01*
X133865743Y-73173729D01*
X133719046Y-73075709D01*
X133594291Y-72950954D01*
X133496271Y-72804257D01*
X133428754Y-72641256D01*
X133394334Y-72468215D01*
X133394334Y-72291785D01*
X133428754Y-72118744D01*
X133496271Y-71955743D01*
X133594291Y-71809046D01*
X133719046Y-71684291D01*
X133865743Y-71586271D01*
X134028744Y-71518754D01*
X134201785Y-71484334D01*
X134378215Y-71484334D01*
X134551256Y-71518754D01*
G37*
G36*
X137091256Y-71518754D02*
G01*
X137254257Y-71586271D01*
X137400954Y-71684291D01*
X137525709Y-71809046D01*
X137623729Y-71955743D01*
X137691246Y-72118744D01*
X137725666Y-72291785D01*
X137725666Y-72468215D01*
X137691246Y-72641256D01*
X137623729Y-72804257D01*
X137525709Y-72950954D01*
X137400954Y-73075709D01*
X137254257Y-73173729D01*
X137091256Y-73241246D01*
X136918215Y-73275666D01*
X136741785Y-73275666D01*
X136568744Y-73241246D01*
X136405743Y-73173729D01*
X136259046Y-73075709D01*
X136134291Y-72950954D01*
X136036271Y-72804257D01*
X135968754Y-72641256D01*
X135934334Y-72468215D01*
X135934334Y-72291785D01*
X135968754Y-72118744D01*
X136036271Y-71955743D01*
X136134291Y-71809046D01*
X136259046Y-71684291D01*
X136405743Y-71586271D01*
X136568744Y-71518754D01*
X136741785Y-71484334D01*
X136918215Y-71484334D01*
X137091256Y-71518754D01*
G37*
G36*
X139631256Y-71518754D02*
G01*
X139794257Y-71586271D01*
X139940954Y-71684291D01*
X140065709Y-71809046D01*
X140163729Y-71955743D01*
X140231246Y-72118744D01*
X140265666Y-72291785D01*
X140265666Y-72468215D01*
X140231246Y-72641256D01*
X140163729Y-72804257D01*
X140065709Y-72950954D01*
X139940954Y-73075709D01*
X139794257Y-73173729D01*
X139631256Y-73241246D01*
X139458215Y-73275666D01*
X139281785Y-73275666D01*
X139108744Y-73241246D01*
X138945743Y-73173729D01*
X138799046Y-73075709D01*
X138674291Y-72950954D01*
X138576271Y-72804257D01*
X138508754Y-72641256D01*
X138474334Y-72468215D01*
X138474334Y-72291785D01*
X138508754Y-72118744D01*
X138576271Y-71955743D01*
X138674291Y-71809046D01*
X138799046Y-71684291D01*
X138945743Y-71586271D01*
X139108744Y-71518754D01*
X139281785Y-71484334D01*
X139458215Y-71484334D01*
X139631256Y-71518754D01*
G37*
M02*
