%TF.GenerationSoftware,KiCad,Pcbnew,10.0.6*%
%TF.CreationDate,2026-10-01T21:56:56-05:00*%
%TF.ProjectId,hp_hat_routed,68705f68-6174-45f7-926f-757465642e6b,rev?*%
%TF.SameCoordinates,Original*%
%TF.FileFunction,Soldermask,Top*%
%TF.FilePolarity,Negative*%
%FSLAX46Y46*%
G04 Gerber Fmt 4.6, Leading zero omitted, Abs format (unit mm)*
G04 Created by KiCad (PCBNEW 10.0.6) date 2026-10-01 21:56:56*
%MOMM*%
%LPD*%
G01*
G04 APERTURE LIST*
G04 APERTURE END LIST*
G36*
X104710000Y-88520000D02*
G01*
X102910000Y-88520000D01*
X102910000Y-86720000D01*
X104710000Y-86720000D01*
X104710000Y-88520000D01*
G37*
G36*
X106611256Y-86758754D02*
G01*
X106774257Y-86826271D01*
X106920954Y-86924291D01*
X107045709Y-87049046D01*
X107143729Y-87195743D01*
X107211246Y-87358744D01*
X107245666Y-87531785D01*
X107245666Y-87708215D01*
X107211246Y-87881256D01*
X107143729Y-88044257D01*
X107045709Y-88190954D01*
X106920954Y-88315709D01*
X106774257Y-88413729D01*
X106611256Y-88481246D01*
X106438215Y-88515666D01*
X106261785Y-88515666D01*
X106088744Y-88481246D01*
X105925743Y-88413729D01*
X105779046Y-88315709D01*
X105654291Y-88190954D01*
X105556271Y-88044257D01*
X105488754Y-87881256D01*
X105454334Y-87708215D01*
X105454334Y-87531785D01*
X105488754Y-87358744D01*
X105556271Y-87195743D01*
X105654291Y-87049046D01*
X105779046Y-86924291D01*
X105925743Y-86826271D01*
X106088744Y-86758754D01*
X106261785Y-86724334D01*
X106438215Y-86724334D01*
X106611256Y-86758754D01*
G37*
G36*
X109151256Y-86758754D02*
G01*
X109314257Y-86826271D01*
X109460954Y-86924291D01*
X109585709Y-87049046D01*
X109683729Y-87195743D01*
X109751246Y-87358744D01*
X109785666Y-87531785D01*
X109785666Y-87708215D01*
X109751246Y-87881256D01*
X109683729Y-88044257D01*
X109585709Y-88190954D01*
X109460954Y-88315709D01*
X109314257Y-88413729D01*
X109151256Y-88481246D01*
X108978215Y-88515666D01*
X108801785Y-88515666D01*
X108628744Y-88481246D01*
X108465743Y-88413729D01*
X108319046Y-88315709D01*
X108194291Y-88190954D01*
X108096271Y-88044257D01*
X108028754Y-87881256D01*
X107994334Y-87708215D01*
X107994334Y-87531785D01*
X108028754Y-87358744D01*
X108096271Y-87195743D01*
X108194291Y-87049046D01*
X108319046Y-86924291D01*
X108465743Y-86826271D01*
X108628744Y-86758754D01*
X108801785Y-86724334D01*
X108978215Y-86724334D01*
X109151256Y-86758754D01*
G37*
G36*
X111691256Y-86758754D02*
G01*
X111854257Y-86826271D01*
X112000954Y-86924291D01*
X112125709Y-87049046D01*
X112223729Y-87195743D01*
X112291246Y-87358744D01*
X112325666Y-87531785D01*
X112325666Y-87708215D01*
X112291246Y-87881256D01*
X112223729Y-88044257D01*
X112125709Y-88190954D01*
X112000954Y-88315709D01*
X111854257Y-88413729D01*
X111691256Y-88481246D01*
X111518215Y-88515666D01*
X111341785Y-88515666D01*
X111168744Y-88481246D01*
X111005743Y-88413729D01*
X110859046Y-88315709D01*
X110734291Y-88190954D01*
X110636271Y-88044257D01*
X110568754Y-87881256D01*
X110534334Y-87708215D01*
X110534334Y-87531785D01*
X110568754Y-87358744D01*
X110636271Y-87195743D01*
X110734291Y-87049046D01*
X110859046Y-86924291D01*
X111005743Y-86826271D01*
X111168744Y-86758754D01*
X111341785Y-86724334D01*
X111518215Y-86724334D01*
X111691256Y-86758754D01*
G37*
G36*
X114231256Y-86758754D02*
G01*
X114394257Y-86826271D01*
X114540954Y-86924291D01*
X114665709Y-87049046D01*
X114763729Y-87195743D01*
X114831246Y-87358744D01*
X114865666Y-87531785D01*
X114865666Y-87708215D01*
X114831246Y-87881256D01*
X114763729Y-88044257D01*
X114665709Y-88190954D01*
X114540954Y-88315709D01*
X114394257Y-88413729D01*
X114231256Y-88481246D01*
X114058215Y-88515666D01*
X113881785Y-88515666D01*
X113708744Y-88481246D01*
X113545743Y-88413729D01*
X113399046Y-88315709D01*
X113274291Y-88190954D01*
X113176271Y-88044257D01*
X113108754Y-87881256D01*
X113074334Y-87708215D01*
X113074334Y-87531785D01*
X113108754Y-87358744D01*
X113176271Y-87195743D01*
X113274291Y-87049046D01*
X113399046Y-86924291D01*
X113545743Y-86826271D01*
X113708744Y-86758754D01*
X113881785Y-86724334D01*
X114058215Y-86724334D01*
X114231256Y-86758754D01*
G37*
G36*
X116771256Y-86758754D02*
G01*
X116934257Y-86826271D01*
X117080954Y-86924291D01*
X117205709Y-87049046D01*
X117303729Y-87195743D01*
X117371246Y-87358744D01*
X117405666Y-87531785D01*
X117405666Y-87708215D01*
X117371246Y-87881256D01*
X117303729Y-88044257D01*
X117205709Y-88190954D01*
X117080954Y-88315709D01*
X116934257Y-88413729D01*
X116771256Y-88481246D01*
X116598215Y-88515666D01*
X116421785Y-88515666D01*
X116248744Y-88481246D01*
X116085743Y-88413729D01*
X115939046Y-88315709D01*
X115814291Y-88190954D01*
X115716271Y-88044257D01*
X115648754Y-87881256D01*
X115614334Y-87708215D01*
X115614334Y-87531785D01*
X115648754Y-87358744D01*
X115716271Y-87195743D01*
X115814291Y-87049046D01*
X115939046Y-86924291D01*
X116085743Y-86826271D01*
X116248744Y-86758754D01*
X116421785Y-86724334D01*
X116598215Y-86724334D01*
X116771256Y-86758754D01*
G37*
G36*
X119311256Y-86758754D02*
G01*
X119474257Y-86826271D01*
X119620954Y-86924291D01*
X119745709Y-87049046D01*
X119843729Y-87195743D01*
X119911246Y-87358744D01*
X119945666Y-87531785D01*
X119945666Y-87708215D01*
X119911246Y-87881256D01*
X119843729Y-88044257D01*
X119745709Y-88190954D01*
X119620954Y-88315709D01*
X119474257Y-88413729D01*
X119311256Y-88481246D01*
X119138215Y-88515666D01*
X118961785Y-88515666D01*
X118788744Y-88481246D01*
X118625743Y-88413729D01*
X118479046Y-88315709D01*
X118354291Y-88190954D01*
X118256271Y-88044257D01*
X118188754Y-87881256D01*
X118154334Y-87708215D01*
X118154334Y-87531785D01*
X118188754Y-87358744D01*
X118256271Y-87195743D01*
X118354291Y-87049046D01*
X118479046Y-86924291D01*
X118625743Y-86826271D01*
X118788744Y-86758754D01*
X118961785Y-86724334D01*
X119138215Y-86724334D01*
X119311256Y-86758754D01*
G37*
G36*
X121851256Y-86758754D02*
G01*
X122014257Y-86826271D01*
X122160954Y-86924291D01*
X122285709Y-87049046D01*
X122383729Y-87195743D01*
X122451246Y-87358744D01*
X122485666Y-87531785D01*
X122485666Y-87708215D01*
X122451246Y-87881256D01*
X122383729Y-88044257D01*
X122285709Y-88190954D01*
X122160954Y-88315709D01*
X122014257Y-88413729D01*
X121851256Y-88481246D01*
X121678215Y-88515666D01*
X121501785Y-88515666D01*
X121328744Y-88481246D01*
X121165743Y-88413729D01*
X121019046Y-88315709D01*
X120894291Y-88190954D01*
X120796271Y-88044257D01*
X120728754Y-87881256D01*
X120694334Y-87708215D01*
X120694334Y-87531785D01*
X120728754Y-87358744D01*
X120796271Y-87195743D01*
X120894291Y-87049046D01*
X121019046Y-86924291D01*
X121165743Y-86826271D01*
X121328744Y-86758754D01*
X121501785Y-86724334D01*
X121678215Y-86724334D01*
X121851256Y-86758754D01*
G37*
G36*
X124391256Y-86758754D02*
G01*
X124554257Y-86826271D01*
X124700954Y-86924291D01*
X124825709Y-87049046D01*
X124923729Y-87195743D01*
X124991246Y-87358744D01*
X125025666Y-87531785D01*
X125025666Y-87708215D01*
X124991246Y-87881256D01*
X124923729Y-88044257D01*
X124825709Y-88190954D01*
X124700954Y-88315709D01*
X124554257Y-88413729D01*
X124391256Y-88481246D01*
X124218215Y-88515666D01*
X124041785Y-88515666D01*
X123868744Y-88481246D01*
X123705743Y-88413729D01*
X123559046Y-88315709D01*
X123434291Y-88190954D01*
X123336271Y-88044257D01*
X123268754Y-87881256D01*
X123234334Y-87708215D01*
X123234334Y-87531785D01*
X123268754Y-87358744D01*
X123336271Y-87195743D01*
X123434291Y-87049046D01*
X123559046Y-86924291D01*
X123705743Y-86826271D01*
X123868744Y-86758754D01*
X124041785Y-86724334D01*
X124218215Y-86724334D01*
X124391256Y-86758754D01*
G37*
G36*
X126931256Y-86758754D02*
G01*
X127094257Y-86826271D01*
X127240954Y-86924291D01*
X127365709Y-87049046D01*
X127463729Y-87195743D01*
X127531246Y-87358744D01*
X127565666Y-87531785D01*
X127565666Y-87708215D01*
X127531246Y-87881256D01*
X127463729Y-88044257D01*
X127365709Y-88190954D01*
X127240954Y-88315709D01*
X127094257Y-88413729D01*
X126931256Y-88481246D01*
X126758215Y-88515666D01*
X126581785Y-88515666D01*
X126408744Y-88481246D01*
X126245743Y-88413729D01*
X126099046Y-88315709D01*
X125974291Y-88190954D01*
X125876271Y-88044257D01*
X125808754Y-87881256D01*
X125774334Y-87708215D01*
X125774334Y-87531785D01*
X125808754Y-87358744D01*
X125876271Y-87195743D01*
X125974291Y-87049046D01*
X126099046Y-86924291D01*
X126245743Y-86826271D01*
X126408744Y-86758754D01*
X126581785Y-86724334D01*
X126758215Y-86724334D01*
X126931256Y-86758754D01*
G37*
G36*
X129471256Y-86758754D02*
G01*
X129634257Y-86826271D01*
X129780954Y-86924291D01*
X129905709Y-87049046D01*
X130003729Y-87195743D01*
X130071246Y-87358744D01*
X130105666Y-87531785D01*
X130105666Y-87708215D01*
X130071246Y-87881256D01*
X130003729Y-88044257D01*
X129905709Y-88190954D01*
X129780954Y-88315709D01*
X129634257Y-88413729D01*
X129471256Y-88481246D01*
X129298215Y-88515666D01*
X129121785Y-88515666D01*
X128948744Y-88481246D01*
X128785743Y-88413729D01*
X128639046Y-88315709D01*
X128514291Y-88190954D01*
X128416271Y-88044257D01*
X128348754Y-87881256D01*
X128314334Y-87708215D01*
X128314334Y-87531785D01*
X128348754Y-87358744D01*
X128416271Y-87195743D01*
X128514291Y-87049046D01*
X128639046Y-86924291D01*
X128785743Y-86826271D01*
X128948744Y-86758754D01*
X129121785Y-86724334D01*
X129298215Y-86724334D01*
X129471256Y-86758754D01*
G37*
G36*
X132011256Y-86758754D02*
G01*
X132174257Y-86826271D01*
X132320954Y-86924291D01*
X132445709Y-87049046D01*
X132543729Y-87195743D01*
X132611246Y-87358744D01*
X132645666Y-87531785D01*
X132645666Y-87708215D01*
X132611246Y-87881256D01*
X132543729Y-88044257D01*
X132445709Y-88190954D01*
X132320954Y-88315709D01*
X132174257Y-88413729D01*
X132011256Y-88481246D01*
X131838215Y-88515666D01*
X131661785Y-88515666D01*
X131488744Y-88481246D01*
X131325743Y-88413729D01*
X131179046Y-88315709D01*
X131054291Y-88190954D01*
X130956271Y-88044257D01*
X130888754Y-87881256D01*
X130854334Y-87708215D01*
X130854334Y-87531785D01*
X130888754Y-87358744D01*
X130956271Y-87195743D01*
X131054291Y-87049046D01*
X131179046Y-86924291D01*
X131325743Y-86826271D01*
X131488744Y-86758754D01*
X131661785Y-86724334D01*
X131838215Y-86724334D01*
X132011256Y-86758754D01*
G37*
G36*
X134551256Y-86758754D02*
G01*
X134714257Y-86826271D01*
X134860954Y-86924291D01*
X134985709Y-87049046D01*
X135083729Y-87195743D01*
X135151246Y-87358744D01*
X135185666Y-87531785D01*
X135185666Y-87708215D01*
X135151246Y-87881256D01*
X135083729Y-88044257D01*
X134985709Y-88190954D01*
X134860954Y-88315709D01*
X134714257Y-88413729D01*
X134551256Y-88481246D01*
X134378215Y-88515666D01*
X134201785Y-88515666D01*
X134028744Y-88481246D01*
X133865743Y-88413729D01*
X133719046Y-88315709D01*
X133594291Y-88190954D01*
X133496271Y-88044257D01*
X133428754Y-87881256D01*
X133394334Y-87708215D01*
X133394334Y-87531785D01*
X133428754Y-87358744D01*
X133496271Y-87195743D01*
X133594291Y-87049046D01*
X133719046Y-86924291D01*
X133865743Y-86826271D01*
X134028744Y-86758754D01*
X134201785Y-86724334D01*
X134378215Y-86724334D01*
X134551256Y-86758754D01*
G37*
G36*
X137091256Y-86758754D02*
G01*
X137254257Y-86826271D01*
X137400954Y-86924291D01*
X137525709Y-87049046D01*
X137623729Y-87195743D01*
X137691246Y-87358744D01*
X137725666Y-87531785D01*
X137725666Y-87708215D01*
X137691246Y-87881256D01*
X137623729Y-88044257D01*
X137525709Y-88190954D01*
X137400954Y-88315709D01*
X137254257Y-88413729D01*
X137091256Y-88481246D01*
X136918215Y-88515666D01*
X136741785Y-88515666D01*
X136568744Y-88481246D01*
X136405743Y-88413729D01*
X136259046Y-88315709D01*
X136134291Y-88190954D01*
X136036271Y-88044257D01*
X135968754Y-87881256D01*
X135934334Y-87708215D01*
X135934334Y-87531785D01*
X135968754Y-87358744D01*
X136036271Y-87195743D01*
X136134291Y-87049046D01*
X136259046Y-86924291D01*
X136405743Y-86826271D01*
X136568744Y-86758754D01*
X136741785Y-86724334D01*
X136918215Y-86724334D01*
X137091256Y-86758754D01*
G37*
G36*
X139631256Y-86758754D02*
G01*
X139794257Y-86826271D01*
X139940954Y-86924291D01*
X140065709Y-87049046D01*
X140163729Y-87195743D01*
X140231246Y-87358744D01*
X140265666Y-87531785D01*
X140265666Y-87708215D01*
X140231246Y-87881256D01*
X140163729Y-88044257D01*
X140065709Y-88190954D01*
X139940954Y-88315709D01*
X139794257Y-88413729D01*
X139631256Y-88481246D01*
X139458215Y-88515666D01*
X139281785Y-88515666D01*
X139108744Y-88481246D01*
X138945743Y-88413729D01*
X138799046Y-88315709D01*
X138674291Y-88190954D01*
X138576271Y-88044257D01*
X138508754Y-87881256D01*
X138474334Y-87708215D01*
X138474334Y-87531785D01*
X138508754Y-87358744D01*
X138576271Y-87195743D01*
X138674291Y-87049046D01*
X138799046Y-86924291D01*
X138945743Y-86826271D01*
X139108744Y-86758754D01*
X139281785Y-86724334D01*
X139458215Y-86724334D01*
X139631256Y-86758754D01*
G37*
G36*
X172656662Y-87690276D02*
G01*
X172700459Y-87719541D01*
X172729724Y-87763338D01*
X172740000Y-87815000D01*
X172740000Y-88185000D01*
X172729724Y-88236662D01*
X172700459Y-88280459D01*
X172656662Y-88309724D01*
X172605000Y-88320000D01*
X172335000Y-88320000D01*
X172283338Y-88309724D01*
X172239541Y-88280459D01*
X172210276Y-88236662D01*
X172200000Y-88185000D01*
X172200000Y-87815000D01*
X172210276Y-87763338D01*
X172239541Y-87719541D01*
X172283338Y-87690276D01*
X172335000Y-87680000D01*
X172605000Y-87680000D01*
X172656662Y-87690276D01*
G37*
G36*
X173676662Y-87690276D02*
G01*
X173720459Y-87719541D01*
X173749724Y-87763338D01*
X173760000Y-87815000D01*
X173760000Y-88185000D01*
X173749724Y-88236662D01*
X173720459Y-88280459D01*
X173676662Y-88309724D01*
X173625000Y-88320000D01*
X173355000Y-88320000D01*
X173303338Y-88309724D01*
X173259541Y-88280459D01*
X173230276Y-88236662D01*
X173220000Y-88185000D01*
X173220000Y-87815000D01*
X173230276Y-87763338D01*
X173259541Y-87719541D01*
X173303338Y-87690276D01*
X173355000Y-87680000D01*
X173625000Y-87680000D01*
X173676662Y-87690276D01*
G37*
G36*
X114351537Y-84540224D02*
G01*
X114416421Y-84583579D01*
X114459776Y-84648463D01*
X114475000Y-84725000D01*
X114475000Y-85275000D01*
X114459776Y-85351537D01*
X114416421Y-85416421D01*
X114351537Y-85459776D01*
X114275000Y-85475000D01*
X113875000Y-85475000D01*
X113798463Y-85459776D01*
X113733579Y-85416421D01*
X113690224Y-85351537D01*
X113675000Y-85275000D01*
X113675000Y-84725000D01*
X113690224Y-84648463D01*
X113733579Y-84583579D01*
X113798463Y-84540224D01*
X113875000Y-84525000D01*
X114275000Y-84525000D01*
X114351537Y-84540224D01*
G37*
G36*
X116001537Y-84540224D02*
G01*
X116066421Y-84583579D01*
X116109776Y-84648463D01*
X116125000Y-84725000D01*
X116125000Y-85275000D01*
X116109776Y-85351537D01*
X116066421Y-85416421D01*
X116001537Y-85459776D01*
X115925000Y-85475000D01*
X115525000Y-85475000D01*
X115448463Y-85459776D01*
X115383579Y-85416421D01*
X115340224Y-85351537D01*
X115325000Y-85275000D01*
X115325000Y-84725000D01*
X115340224Y-84648463D01*
X115383579Y-84583579D01*
X115448463Y-84540224D01*
X115525000Y-84525000D01*
X115925000Y-84525000D01*
X116001537Y-84540224D01*
G37*
G36*
X110355552Y-84708564D02*
G01*
X110392050Y-84732950D01*
X110416436Y-84769448D01*
X110425000Y-84812500D01*
X110425000Y-85187500D01*
X110416436Y-85230552D01*
X110392050Y-85267050D01*
X110355552Y-85291436D01*
X110312500Y-85300000D01*
X110087500Y-85300000D01*
X110044448Y-85291436D01*
X110007950Y-85267050D01*
X109983564Y-85230552D01*
X109975000Y-85187500D01*
X109975000Y-84812500D01*
X109983564Y-84769448D01*
X110007950Y-84732950D01*
X110044448Y-84708564D01*
X110087500Y-84700000D01*
X110312500Y-84700000D01*
X110355552Y-84708564D01*
G37*
G36*
X111943576Y-84730657D02*
G01*
X111988995Y-84761005D01*
X112019343Y-84806424D01*
X112030000Y-84860000D01*
X112030000Y-85140000D01*
X112019343Y-85193576D01*
X111988995Y-85238995D01*
X111943576Y-85269343D01*
X111890000Y-85280000D01*
X111550000Y-85280000D01*
X111496424Y-85269343D01*
X111451005Y-85238995D01*
X111420657Y-85193576D01*
X111410000Y-85140000D01*
X111410000Y-84860000D01*
X111420657Y-84806424D01*
X111451005Y-84761005D01*
X111496424Y-84730657D01*
X111550000Y-84720000D01*
X111890000Y-84720000D01*
X111943576Y-84730657D01*
G37*
G36*
X113076662Y-84740276D02*
G01*
X113120459Y-84769541D01*
X113149724Y-84813338D01*
X113160000Y-84865000D01*
X113160000Y-85135000D01*
X113149724Y-85186662D01*
X113120459Y-85230459D01*
X113076662Y-85259724D01*
X113025000Y-85270000D01*
X112655000Y-85270000D01*
X112603338Y-85259724D01*
X112559541Y-85230459D01*
X112530276Y-85186662D01*
X112520000Y-85135000D01*
X112520000Y-84865000D01*
X112530276Y-84813338D01*
X112559541Y-84769541D01*
X112603338Y-84740276D01*
X112655000Y-84730000D01*
X113025000Y-84730000D01*
X113076662Y-84740276D01*
G37*
G36*
X107780134Y-82833156D02*
G01*
X107959220Y-82891345D01*
X108126998Y-82976832D01*
X108279338Y-83087513D01*
X108412487Y-83220662D01*
X108523168Y-83373002D01*
X108608655Y-83540780D01*
X108666844Y-83719866D01*
X108696301Y-83905849D01*
X108696301Y-84094151D01*
X108666844Y-84280134D01*
X108608655Y-84459220D01*
X108523168Y-84626998D01*
X108412487Y-84779338D01*
X108279338Y-84912487D01*
X108126998Y-85023168D01*
X107959220Y-85108655D01*
X107780134Y-85166844D01*
X107594151Y-85196301D01*
X107405849Y-85196301D01*
X107219866Y-85166844D01*
X107040780Y-85108655D01*
X106873002Y-85023168D01*
X106720662Y-84912487D01*
X106587513Y-84779338D01*
X106476832Y-84626998D01*
X106391345Y-84459220D01*
X106333156Y-84280134D01*
X106303699Y-84094151D01*
X106303699Y-83905849D01*
X106333156Y-83719866D01*
X106391345Y-83540780D01*
X106476832Y-83373002D01*
X106587513Y-83220662D01*
X106720662Y-83087513D01*
X106873002Y-82976832D01*
X107040780Y-82891345D01*
X107219866Y-82833156D01*
X107405849Y-82803699D01*
X107594151Y-82803699D01*
X107780134Y-82833156D01*
G37*
G36*
X111943576Y-83770657D02*
G01*
X111988995Y-83801005D01*
X112019343Y-83846424D01*
X112030000Y-83900000D01*
X112030000Y-84180000D01*
X112019343Y-84233576D01*
X111988995Y-84278995D01*
X111943576Y-84309343D01*
X111890000Y-84320000D01*
X111550000Y-84320000D01*
X111496424Y-84309343D01*
X111451005Y-84278995D01*
X111420657Y-84233576D01*
X111410000Y-84180000D01*
X111410000Y-83900000D01*
X111420657Y-83846424D01*
X111451005Y-83801005D01*
X111496424Y-83770657D01*
X111550000Y-83760000D01*
X111890000Y-83760000D01*
X111943576Y-83770657D01*
G37*
G36*
X113076662Y-83720276D02*
G01*
X113120459Y-83749541D01*
X113149724Y-83793338D01*
X113160000Y-83845000D01*
X113160000Y-84115000D01*
X113149724Y-84166662D01*
X113120459Y-84210459D01*
X113076662Y-84239724D01*
X113025000Y-84250000D01*
X112655000Y-84250000D01*
X112603338Y-84239724D01*
X112559541Y-84210459D01*
X112530276Y-84166662D01*
X112520000Y-84115000D01*
X112520000Y-83845000D01*
X112530276Y-83793338D01*
X112559541Y-83749541D01*
X112603338Y-83720276D01*
X112655000Y-83710000D01*
X113025000Y-83710000D01*
X113076662Y-83720276D01*
G37*
G36*
X110355552Y-82608564D02*
G01*
X110392050Y-82632950D01*
X110416436Y-82669448D01*
X110425000Y-82712500D01*
X110425000Y-83087500D01*
X110416436Y-83130552D01*
X110392050Y-83167050D01*
X110355552Y-83191436D01*
X110312500Y-83200000D01*
X110087500Y-83200000D01*
X110044448Y-83191436D01*
X110007950Y-83167050D01*
X109983564Y-83130552D01*
X109975000Y-83087500D01*
X109975000Y-82712500D01*
X109983564Y-82669448D01*
X110007950Y-82632950D01*
X110044448Y-82608564D01*
X110087500Y-82600000D01*
X110312500Y-82600000D01*
X110355552Y-82608564D01*
G37*
G36*
X108700000Y-81200000D02*
G01*
X106300000Y-81200000D01*
X106300000Y-78800000D01*
X108700000Y-78800000D01*
X108700000Y-81200000D01*
G37*
G36*
X114854047Y-79100805D02*
G01*
X114905408Y-79106764D01*
X114922954Y-79114511D01*
X114945671Y-79119030D01*
X114969991Y-79135280D01*
X114990793Y-79144465D01*
X115005000Y-79158672D01*
X115026777Y-79173223D01*
X115041327Y-79194999D01*
X115055534Y-79209206D01*
X115064718Y-79230006D01*
X115080970Y-79254329D01*
X115085489Y-79277048D01*
X115093235Y-79294591D01*
X115099192Y-79345940D01*
X115100000Y-79350000D01*
X115100000Y-80650000D01*
X115099192Y-80654059D01*
X115093235Y-80705408D01*
X115085489Y-80722950D01*
X115080970Y-80745671D01*
X115064716Y-80769995D01*
X115055534Y-80790793D01*
X115041329Y-80804997D01*
X115026777Y-80826777D01*
X115004997Y-80841329D01*
X114990793Y-80855534D01*
X114969995Y-80864716D01*
X114945671Y-80880970D01*
X114922950Y-80885489D01*
X114905408Y-80893235D01*
X114854061Y-80899192D01*
X114850000Y-80900000D01*
X114200000Y-80900000D01*
X114195941Y-80899192D01*
X114144591Y-80893235D01*
X114127048Y-80885489D01*
X114104329Y-80880970D01*
X114080006Y-80864718D01*
X114059206Y-80855534D01*
X114044999Y-80841327D01*
X114023223Y-80826777D01*
X114008672Y-80805000D01*
X113994465Y-80790793D01*
X113985280Y-80769991D01*
X113969030Y-80745671D01*
X113964511Y-80722954D01*
X113956764Y-80705408D01*
X113950805Y-80654049D01*
X113950000Y-80650000D01*
X113950000Y-79350000D01*
X113950804Y-79345953D01*
X113956764Y-79294591D01*
X113964511Y-79277043D01*
X113969030Y-79254329D01*
X113985278Y-79230010D01*
X113994465Y-79209206D01*
X114008674Y-79194996D01*
X114023223Y-79173223D01*
X114044996Y-79158674D01*
X114059206Y-79144465D01*
X114080010Y-79135278D01*
X114104329Y-79119030D01*
X114127043Y-79114511D01*
X114144591Y-79106764D01*
X114195952Y-79100805D01*
X114200000Y-79100000D01*
X114850000Y-79100000D01*
X114854047Y-79100805D01*
G37*
G36*
X117804047Y-79100805D02*
G01*
X117855408Y-79106764D01*
X117872954Y-79114511D01*
X117895671Y-79119030D01*
X117919991Y-79135280D01*
X117940793Y-79144465D01*
X117955000Y-79158672D01*
X117976777Y-79173223D01*
X117991327Y-79194999D01*
X118005534Y-79209206D01*
X118014718Y-79230006D01*
X118030970Y-79254329D01*
X118035489Y-79277048D01*
X118043235Y-79294591D01*
X118049192Y-79345940D01*
X118050000Y-79350000D01*
X118050000Y-80650000D01*
X118049192Y-80654059D01*
X118043235Y-80705408D01*
X118035489Y-80722950D01*
X118030970Y-80745671D01*
X118014716Y-80769995D01*
X118005534Y-80790793D01*
X117991329Y-80804997D01*
X117976777Y-80826777D01*
X117954997Y-80841329D01*
X117940793Y-80855534D01*
X117919995Y-80864716D01*
X117895671Y-80880970D01*
X117872950Y-80885489D01*
X117855408Y-80893235D01*
X117804061Y-80899192D01*
X117800000Y-80900000D01*
X117150000Y-80900000D01*
X117145941Y-80899192D01*
X117094591Y-80893235D01*
X117077048Y-80885489D01*
X117054329Y-80880970D01*
X117030006Y-80864718D01*
X117009206Y-80855534D01*
X116994999Y-80841327D01*
X116973223Y-80826777D01*
X116958672Y-80805000D01*
X116944465Y-80790793D01*
X116935280Y-80769991D01*
X116919030Y-80745671D01*
X116914511Y-80722954D01*
X116906764Y-80705408D01*
X116900805Y-80654049D01*
X116900000Y-80650000D01*
X116900000Y-79350000D01*
X116900804Y-79345953D01*
X116906764Y-79294591D01*
X116914511Y-79277043D01*
X116919030Y-79254329D01*
X116935278Y-79230010D01*
X116944465Y-79209206D01*
X116958674Y-79194996D01*
X116973223Y-79173223D01*
X116994996Y-79158674D01*
X117009206Y-79144465D01*
X117030010Y-79135278D01*
X117054329Y-79119030D01*
X117077043Y-79114511D01*
X117094591Y-79106764D01*
X117145952Y-79100805D01*
X117150000Y-79100000D01*
X117800000Y-79100000D01*
X117804047Y-79100805D01*
G37*
G36*
X131654047Y-79300805D02*
G01*
X131705408Y-79306764D01*
X131722954Y-79314511D01*
X131745671Y-79319030D01*
X131769991Y-79335280D01*
X131790793Y-79344465D01*
X131805000Y-79358672D01*
X131826777Y-79373223D01*
X131841327Y-79394999D01*
X131855534Y-79409206D01*
X131864718Y-79430006D01*
X131880970Y-79454329D01*
X131885489Y-79477048D01*
X131893235Y-79494591D01*
X131899192Y-79545940D01*
X131900000Y-79550000D01*
X131900000Y-80450000D01*
X131899192Y-80454059D01*
X131893235Y-80505408D01*
X131885489Y-80522950D01*
X131880970Y-80545671D01*
X131864716Y-80569995D01*
X131855534Y-80590793D01*
X131841329Y-80604997D01*
X131826777Y-80626777D01*
X131804997Y-80641329D01*
X131790793Y-80655534D01*
X131769995Y-80664716D01*
X131745671Y-80680970D01*
X131722950Y-80685489D01*
X131705408Y-80693235D01*
X131654061Y-80699192D01*
X131650000Y-80700000D01*
X131125000Y-80700000D01*
X131120941Y-80699192D01*
X131069591Y-80693235D01*
X131052048Y-80685489D01*
X131029329Y-80680970D01*
X131005006Y-80664718D01*
X130984206Y-80655534D01*
X130969999Y-80641327D01*
X130948223Y-80626777D01*
X130933672Y-80605000D01*
X130919465Y-80590793D01*
X130910280Y-80569991D01*
X130894030Y-80545671D01*
X130889511Y-80522954D01*
X130881764Y-80505408D01*
X130875805Y-80454049D01*
X130875000Y-80450000D01*
X130875000Y-79550000D01*
X130875804Y-79545953D01*
X130881764Y-79494591D01*
X130889511Y-79477043D01*
X130894030Y-79454329D01*
X130910278Y-79430010D01*
X130919465Y-79409206D01*
X130933674Y-79394996D01*
X130948223Y-79373223D01*
X130969996Y-79358674D01*
X130984206Y-79344465D01*
X131005010Y-79335278D01*
X131029329Y-79319030D01*
X131052043Y-79314511D01*
X131069591Y-79306764D01*
X131120952Y-79300805D01*
X131125000Y-79300000D01*
X131650000Y-79300000D01*
X131654047Y-79300805D01*
G37*
G36*
X133479047Y-79300805D02*
G01*
X133530408Y-79306764D01*
X133547954Y-79314511D01*
X133570671Y-79319030D01*
X133594991Y-79335280D01*
X133615793Y-79344465D01*
X133630000Y-79358672D01*
X133651777Y-79373223D01*
X133666327Y-79394999D01*
X133680534Y-79409206D01*
X133689718Y-79430006D01*
X133705970Y-79454329D01*
X133710489Y-79477048D01*
X133718235Y-79494591D01*
X133724192Y-79545940D01*
X133725000Y-79550000D01*
X133725000Y-80450000D01*
X133724192Y-80454059D01*
X133718235Y-80505408D01*
X133710489Y-80522950D01*
X133705970Y-80545671D01*
X133689716Y-80569995D01*
X133680534Y-80590793D01*
X133666329Y-80604997D01*
X133651777Y-80626777D01*
X133629997Y-80641329D01*
X133615793Y-80655534D01*
X133594995Y-80664716D01*
X133570671Y-80680970D01*
X133547950Y-80685489D01*
X133530408Y-80693235D01*
X133479061Y-80699192D01*
X133475000Y-80700000D01*
X132950000Y-80700000D01*
X132945941Y-80699192D01*
X132894591Y-80693235D01*
X132877048Y-80685489D01*
X132854329Y-80680970D01*
X132830006Y-80664718D01*
X132809206Y-80655534D01*
X132794999Y-80641327D01*
X132773223Y-80626777D01*
X132758672Y-80605000D01*
X132744465Y-80590793D01*
X132735280Y-80569991D01*
X132719030Y-80545671D01*
X132714511Y-80522954D01*
X132706764Y-80505408D01*
X132700805Y-80454049D01*
X132700000Y-80450000D01*
X132700000Y-79550000D01*
X132700804Y-79545953D01*
X132706764Y-79494591D01*
X132714511Y-79477043D01*
X132719030Y-79454329D01*
X132735278Y-79430010D01*
X132744465Y-79409206D01*
X132758674Y-79394996D01*
X132773223Y-79373223D01*
X132794996Y-79358674D01*
X132809206Y-79344465D01*
X132830010Y-79335278D01*
X132854329Y-79319030D01*
X132877043Y-79314511D01*
X132894591Y-79306764D01*
X132945952Y-79300805D01*
X132950000Y-79300000D01*
X133475000Y-79300000D01*
X133479047Y-79300805D01*
G37*
G36*
X151605000Y-80500000D02*
G01*
X150855000Y-80500000D01*
X150855000Y-79500000D01*
X151605000Y-79500000D01*
X151605000Y-80500000D01*
G37*
G36*
X153105000Y-80500000D02*
G01*
X152355000Y-80500000D01*
X152355000Y-79500000D01*
X153105000Y-79500000D01*
X153105000Y-80500000D01*
G37*
G36*
X154205000Y-80500000D02*
G01*
X153455000Y-80500000D01*
X153455000Y-79500000D01*
X154205000Y-79500000D01*
X154205000Y-80500000D01*
G37*
G36*
X155705000Y-80500000D02*
G01*
X154955000Y-80500000D01*
X154955000Y-79500000D01*
X155705000Y-79500000D01*
X155705000Y-80500000D01*
G37*
G36*
X156805000Y-80500000D02*
G01*
X156055000Y-80500000D01*
X156055000Y-79500000D01*
X156805000Y-79500000D01*
X156805000Y-80500000D01*
G37*
G36*
X158305000Y-80500000D02*
G01*
X157555000Y-80500000D01*
X157555000Y-79500000D01*
X158305000Y-79500000D01*
X158305000Y-80500000D01*
G37*
G36*
X159405000Y-80500000D02*
G01*
X158655000Y-80500000D01*
X158655000Y-79500000D01*
X159405000Y-79500000D01*
X159405000Y-80500000D01*
G37*
G36*
X160905000Y-80500000D02*
G01*
X160155000Y-80500000D01*
X160155000Y-79500000D01*
X160905000Y-79500000D01*
X160905000Y-80500000D01*
G37*
G36*
X162005000Y-80500000D02*
G01*
X161255000Y-80500000D01*
X161255000Y-79500000D01*
X162005000Y-79500000D01*
X162005000Y-80500000D01*
G37*
G36*
X163505000Y-80500000D02*
G01*
X162755000Y-80500000D01*
X162755000Y-79500000D01*
X163505000Y-79500000D01*
X163505000Y-80500000D01*
G37*
G36*
X164605000Y-80500000D02*
G01*
X163855000Y-80500000D01*
X163855000Y-79500000D01*
X164605000Y-79500000D01*
X164605000Y-80500000D01*
G37*
G36*
X166105000Y-80500000D02*
G01*
X165355000Y-80500000D01*
X165355000Y-79500000D01*
X166105000Y-79500000D01*
X166105000Y-80500000D01*
G37*
G36*
X167205000Y-80500000D02*
G01*
X166455000Y-80500000D01*
X166455000Y-79500000D01*
X167205000Y-79500000D01*
X167205000Y-80500000D01*
G37*
G36*
X168705000Y-80500000D02*
G01*
X167955000Y-80500000D01*
X167955000Y-79500000D01*
X168705000Y-79500000D01*
X168705000Y-80500000D01*
G37*
G36*
X169805000Y-80500000D02*
G01*
X169055000Y-80500000D01*
X169055000Y-79500000D01*
X169805000Y-79500000D01*
X169805000Y-80500000D01*
G37*
G36*
X171305000Y-80500000D02*
G01*
X170555000Y-80500000D01*
X170555000Y-79500000D01*
X171305000Y-79500000D01*
X171305000Y-80500000D01*
G37*
G36*
X172405000Y-80500000D02*
G01*
X171655000Y-80500000D01*
X171655000Y-79500000D01*
X172405000Y-79500000D01*
X172405000Y-80500000D01*
G37*
G36*
X173905000Y-80500000D02*
G01*
X173155000Y-80500000D01*
X173155000Y-79500000D01*
X173905000Y-79500000D01*
X173905000Y-80500000D01*
G37*
G36*
X175005000Y-80500000D02*
G01*
X174255000Y-80500000D01*
X174255000Y-79500000D01*
X175005000Y-79500000D01*
X175005000Y-80500000D01*
G37*
G36*
X176505000Y-80500000D02*
G01*
X175755000Y-80500000D01*
X175755000Y-79500000D01*
X176505000Y-79500000D01*
X176505000Y-80500000D01*
G37*
G36*
X177605000Y-80500000D02*
G01*
X176855000Y-80500000D01*
X176855000Y-79500000D01*
X177605000Y-79500000D01*
X177605000Y-80500000D01*
G37*
G36*
X179105000Y-80500000D02*
G01*
X178355000Y-80500000D01*
X178355000Y-79500000D01*
X179105000Y-79500000D01*
X179105000Y-80500000D01*
G37*
G36*
X180205000Y-80500000D02*
G01*
X179455000Y-80500000D01*
X179455000Y-79500000D01*
X180205000Y-79500000D01*
X180205000Y-80500000D01*
G37*
G36*
X181705000Y-80500000D02*
G01*
X180955000Y-80500000D01*
X180955000Y-79500000D01*
X181705000Y-79500000D01*
X181705000Y-80500000D01*
G37*
G36*
X182805000Y-80500000D02*
G01*
X182055000Y-80500000D01*
X182055000Y-79500000D01*
X182805000Y-79500000D01*
X182805000Y-80500000D01*
G37*
G36*
X184305000Y-80500000D02*
G01*
X183555000Y-80500000D01*
X183555000Y-79500000D01*
X184305000Y-79500000D01*
X184305000Y-80500000D01*
G37*
G36*
X185405000Y-80500000D02*
G01*
X184655000Y-80500000D01*
X184655000Y-79500000D01*
X185405000Y-79500000D01*
X185405000Y-80500000D01*
G37*
G36*
X186905000Y-80500000D02*
G01*
X186155000Y-80500000D01*
X186155000Y-79500000D01*
X186905000Y-79500000D01*
X186905000Y-80500000D01*
G37*
G36*
X188005000Y-80500000D02*
G01*
X187255000Y-80500000D01*
X187255000Y-79500000D01*
X188005000Y-79500000D01*
X188005000Y-80500000D01*
G37*
G36*
X189505000Y-80500000D02*
G01*
X188755000Y-80500000D01*
X188755000Y-79500000D01*
X189505000Y-79500000D01*
X189505000Y-80500000D01*
G37*
G36*
X190605000Y-80500000D02*
G01*
X189855000Y-80500000D01*
X189855000Y-79500000D01*
X190605000Y-79500000D01*
X190605000Y-80500000D01*
G37*
G36*
X192105000Y-80500000D02*
G01*
X191355000Y-80500000D01*
X191355000Y-79500000D01*
X192105000Y-79500000D01*
X192105000Y-80500000D01*
G37*
G36*
X193205000Y-80500000D02*
G01*
X192455000Y-80500000D01*
X192455000Y-79500000D01*
X193205000Y-79500000D01*
X193205000Y-80500000D01*
G37*
G36*
X194705000Y-80500000D02*
G01*
X193955000Y-80500000D01*
X193955000Y-79500000D01*
X194705000Y-79500000D01*
X194705000Y-80500000D01*
G37*
G36*
X196936662Y-79690276D02*
G01*
X196980459Y-79719541D01*
X197009724Y-79763338D01*
X197020000Y-79815000D01*
X197020000Y-80185000D01*
X197009724Y-80236662D01*
X196980459Y-80280459D01*
X196936662Y-80309724D01*
X196885000Y-80320000D01*
X196615000Y-80320000D01*
X196563338Y-80309724D01*
X196519541Y-80280459D01*
X196490276Y-80236662D01*
X196480000Y-80185000D01*
X196480000Y-79815000D01*
X196490276Y-79763338D01*
X196519541Y-79719541D01*
X196563338Y-79690276D01*
X196615000Y-79680000D01*
X196885000Y-79680000D01*
X196936662Y-79690276D01*
G37*
G36*
X197956662Y-79690276D02*
G01*
X198000459Y-79719541D01*
X198029724Y-79763338D01*
X198040000Y-79815000D01*
X198040000Y-80185000D01*
X198029724Y-80236662D01*
X198000459Y-80280459D01*
X197956662Y-80309724D01*
X197905000Y-80320000D01*
X197635000Y-80320000D01*
X197583338Y-80309724D01*
X197539541Y-80280459D01*
X197510276Y-80236662D01*
X197500000Y-80185000D01*
X197500000Y-79815000D01*
X197510276Y-79763338D01*
X197539541Y-79719541D01*
X197583338Y-79690276D01*
X197635000Y-79680000D01*
X197905000Y-79680000D01*
X197956662Y-79690276D01*
G37*
G36*
X107780134Y-74833156D02*
G01*
X107959220Y-74891345D01*
X108126998Y-74976832D01*
X108279338Y-75087513D01*
X108412487Y-75220662D01*
X108523168Y-75373002D01*
X108608655Y-75540780D01*
X108666844Y-75719866D01*
X108696301Y-75905849D01*
X108696301Y-76094151D01*
X108666844Y-76280134D01*
X108608655Y-76459220D01*
X108523168Y-76626998D01*
X108412487Y-76779338D01*
X108279338Y-76912487D01*
X108126998Y-77023168D01*
X107959220Y-77108655D01*
X107780134Y-77166844D01*
X107594151Y-77196301D01*
X107405849Y-77196301D01*
X107219866Y-77166844D01*
X107040780Y-77108655D01*
X106873002Y-77023168D01*
X106720662Y-76912487D01*
X106587513Y-76779338D01*
X106476832Y-76626998D01*
X106391345Y-76459220D01*
X106333156Y-76280134D01*
X106303699Y-76094151D01*
X106303699Y-75905849D01*
X106333156Y-75719866D01*
X106391345Y-75540780D01*
X106476832Y-75373002D01*
X106587513Y-75220662D01*
X106720662Y-75087513D01*
X106873002Y-74976832D01*
X107040780Y-74891345D01*
X107219866Y-74833156D01*
X107405849Y-74803699D01*
X107594151Y-74803699D01*
X107780134Y-74833156D01*
G37*
G36*
X121826662Y-75170276D02*
G01*
X121870459Y-75199541D01*
X121899724Y-75243338D01*
X121910000Y-75295000D01*
X121910000Y-75565000D01*
X121899724Y-75616662D01*
X121870459Y-75660459D01*
X121826662Y-75689724D01*
X121775000Y-75700000D01*
X121405000Y-75700000D01*
X121353338Y-75689724D01*
X121309541Y-75660459D01*
X121280276Y-75616662D01*
X121270000Y-75565000D01*
X121270000Y-75295000D01*
X121280276Y-75243338D01*
X121309541Y-75199541D01*
X121353338Y-75170276D01*
X121405000Y-75160000D01*
X121775000Y-75160000D01*
X121826662Y-75170276D01*
G37*
G36*
X124366662Y-75170276D02*
G01*
X124410459Y-75199541D01*
X124439724Y-75243338D01*
X124450000Y-75295000D01*
X124450000Y-75565000D01*
X124439724Y-75616662D01*
X124410459Y-75660459D01*
X124366662Y-75689724D01*
X124315000Y-75700000D01*
X123945000Y-75700000D01*
X123893338Y-75689724D01*
X123849541Y-75660459D01*
X123820276Y-75616662D01*
X123810000Y-75565000D01*
X123810000Y-75295000D01*
X123820276Y-75243338D01*
X123849541Y-75199541D01*
X123893338Y-75170276D01*
X123945000Y-75160000D01*
X124315000Y-75160000D01*
X124366662Y-75170276D01*
G37*
G36*
X121826662Y-74150276D02*
G01*
X121870459Y-74179541D01*
X121899724Y-74223338D01*
X121910000Y-74275000D01*
X121910000Y-74545000D01*
X121899724Y-74596662D01*
X121870459Y-74640459D01*
X121826662Y-74669724D01*
X121775000Y-74680000D01*
X121405000Y-74680000D01*
X121353338Y-74669724D01*
X121309541Y-74640459D01*
X121280276Y-74596662D01*
X121270000Y-74545000D01*
X121270000Y-74275000D01*
X121280276Y-74223338D01*
X121309541Y-74179541D01*
X121353338Y-74150276D01*
X121405000Y-74140000D01*
X121775000Y-74140000D01*
X121826662Y-74150276D01*
G37*
G36*
X124366662Y-74150276D02*
G01*
X124410459Y-74179541D01*
X124439724Y-74223338D01*
X124450000Y-74275000D01*
X124450000Y-74545000D01*
X124439724Y-74596662D01*
X124410459Y-74640459D01*
X124366662Y-74669724D01*
X124315000Y-74680000D01*
X123945000Y-74680000D01*
X123893338Y-74669724D01*
X123849541Y-74640459D01*
X123820276Y-74596662D01*
X123810000Y-74545000D01*
X123810000Y-74275000D01*
X123820276Y-74223338D01*
X123849541Y-74179541D01*
X123893338Y-74150276D01*
X123945000Y-74140000D01*
X124315000Y-74140000D01*
X124366662Y-74150276D01*
G37*
G36*
X104710000Y-73280000D02*
G01*
X102910000Y-73280000D01*
X102910000Y-71480000D01*
X104710000Y-71480000D01*
X104710000Y-73280000D01*
G37*
G36*
X106611256Y-71518754D02*
G01*
X106774257Y-71586271D01*
X106920954Y-71684291D01*
X107045709Y-71809046D01*
X107143729Y-71955743D01*
X107211246Y-72118744D01*
X107245666Y-72291785D01*
X107245666Y-72468215D01*
X107211246Y-72641256D01*
X107143729Y-72804257D01*
X107045709Y-72950954D01*
X106920954Y-73075709D01*
X106774257Y-73173729D01*
X106611256Y-73241246D01*
X106438215Y-73275666D01*
X106261785Y-73275666D01*
X106088744Y-73241246D01*
X105925743Y-73173729D01*
X105779046Y-73075709D01*
X105654291Y-72950954D01*
X105556271Y-72804257D01*
X105488754Y-72641256D01*
X105454334Y-72468215D01*
X105454334Y-72291785D01*
X105488754Y-72118744D01*
X105556271Y-71955743D01*
X105654291Y-71809046D01*
X105779046Y-71684291D01*
X105925743Y-71586271D01*
X106088744Y-71518754D01*
X106261785Y-71484334D01*
X106438215Y-71484334D01*
X106611256Y-71518754D01*
G37*
G36*
X109151256Y-71518754D02*
G01*
X109314257Y-71586271D01*
X109460954Y-71684291D01*
X109585709Y-71809046D01*
X109683729Y-71955743D01*
X109751246Y-72118744D01*
X109785666Y-72291785D01*
X109785666Y-72468215D01*
X109751246Y-72641256D01*
X109683729Y-72804257D01*
X109585709Y-72950954D01*
X109460954Y-73075709D01*
X109314257Y-73173729D01*
X109151256Y-73241246D01*
X108978215Y-73275666D01*
X108801785Y-73275666D01*
X108628744Y-73241246D01*
X108465743Y-73173729D01*
X108319046Y-73075709D01*
X108194291Y-72950954D01*
X108096271Y-72804257D01*
X108028754Y-72641256D01*
X107994334Y-72468215D01*
X107994334Y-72291785D01*
X108028754Y-72118744D01*
X108096271Y-71955743D01*
X108194291Y-71809046D01*
X108319046Y-71684291D01*
X108465743Y-71586271D01*
X108628744Y-71518754D01*
X108801785Y-71484334D01*
X108978215Y-71484334D01*
X109151256Y-71518754D01*
G37*
G36*
X111691256Y-71518754D02*
G01*
X111854257Y-71586271D01*
X112000954Y-71684291D01*
X112125709Y-71809046D01*
X112223729Y-71955743D01*
X112291246Y-72118744D01*
X112325666Y-72291785D01*
X112325666Y-72468215D01*
X112291246Y-72641256D01*
X112223729Y-72804257D01*
X112125709Y-72950954D01*
X112000954Y-73075709D01*
X111854257Y-73173729D01*
X111691256Y-73241246D01*
X111518215Y-73275666D01*
X111341785Y-73275666D01*
X111168744Y-73241246D01*
X111005743Y-73173729D01*
X110859046Y-73075709D01*
X110734291Y-72950954D01*
X110636271Y-72804257D01*
X110568754Y-72641256D01*
X110534334Y-72468215D01*
X110534334Y-72291785D01*
X110568754Y-72118744D01*
X110636271Y-71955743D01*
X110734291Y-71809046D01*
X110859046Y-71684291D01*
X111005743Y-71586271D01*
X111168744Y-71518754D01*
X111341785Y-71484334D01*
X111518215Y-71484334D01*
X111691256Y-71518754D01*
G37*
G36*
X114231256Y-71518754D02*
G01*
X114394257Y-71586271D01*
X114540954Y-71684291D01*
X114665709Y-71809046D01*
X114763729Y-71955743D01*
X114831246Y-72118744D01*
X114865666Y-72291785D01*
X114865666Y-72468215D01*
X114831246Y-72641256D01*
X114763729Y-72804257D01*
X114665709Y-72950954D01*
X114540954Y-73075709D01*
X114394257Y-73173729D01*
X114231256Y-73241246D01*
X114058215Y-73275666D01*
X113881785Y-73275666D01*
X113708744Y-73241246D01*
X113545743Y-73173729D01*
X113399046Y-73075709D01*
X113274291Y-72950954D01*
X113176271Y-72804257D01*
X113108754Y-72641256D01*
X113074334Y-72468215D01*
X113074334Y-72291785D01*
X113108754Y-72118744D01*
X113176271Y-71955743D01*
X113274291Y-71809046D01*
X113399046Y-71684291D01*
X113545743Y-71586271D01*
X113708744Y-71518754D01*
X113881785Y-71484334D01*
X114058215Y-71484334D01*
X114231256Y-71518754D01*
G37*
G36*
X116771256Y-71518754D02*
G01*
X116934257Y-71586271D01*
X117080954Y-71684291D01*
X117205709Y-71809046D01*
X117303729Y-71955743D01*
X117371246Y-72118744D01*
X117405666Y-72291785D01*
X117405666Y-72468215D01*
X117371246Y-72641256D01*
X117303729Y-72804257D01*
X117205709Y-72950954D01*
X117080954Y-73075709D01*
X116934257Y-73173729D01*
X116771256Y-73241246D01*
X116598215Y-73275666D01*
X116421785Y-73275666D01*
X116248744Y-73241246D01*
X116085743Y-73173729D01*
X115939046Y-73075709D01*
X115814291Y-72950954D01*
X115716271Y-72804257D01*
X115648754Y-72641256D01*
X115614334Y-72468215D01*
X115614334Y-72291785D01*
X115648754Y-72118744D01*
X115716271Y-71955743D01*
X115814291Y-71809046D01*
X115939046Y-71684291D01*
X116085743Y-71586271D01*
X116248744Y-71518754D01*
X116421785Y-71484334D01*
X116598215Y-71484334D01*
X116771256Y-71518754D01*
G37*
G36*
X119311256Y-71518754D02*
G01*
X119474257Y-71586271D01*
X119620954Y-71684291D01*
X119745709Y-71809046D01*
X119843729Y-71955743D01*
X119911246Y-72118744D01*
X119945666Y-72291785D01*
X119945666Y-72468215D01*
X119911246Y-72641256D01*
X119843729Y-72804257D01*
X119745709Y-72950954D01*
X119620954Y-73075709D01*
X119474257Y-73173729D01*
X119311256Y-73241246D01*
X119138215Y-73275666D01*
X118961785Y-73275666D01*
X118788744Y-73241246D01*
X118625743Y-73173729D01*
X118479046Y-73075709D01*
X118354291Y-72950954D01*
X118256271Y-72804257D01*
X118188754Y-72641256D01*
X118154334Y-72468215D01*
X118154334Y-72291785D01*
X118188754Y-72118744D01*
X118256271Y-71955743D01*
X118354291Y-71809046D01*
X118479046Y-71684291D01*
X118625743Y-71586271D01*
X118788744Y-71518754D01*
X118961785Y-71484334D01*
X119138215Y-71484334D01*
X119311256Y-71518754D01*
G37*
G36*
X121851256Y-71518754D02*
G01*
X122014257Y-71586271D01*
X122160954Y-71684291D01*
X122285709Y-71809046D01*
X122383729Y-71955743D01*
X122451246Y-72118744D01*
X122485666Y-72291785D01*
X122485666Y-72468215D01*
X122451246Y-72641256D01*
X122383729Y-72804257D01*
X122285709Y-72950954D01*
X122160954Y-73075709D01*
X122014257Y-73173729D01*
X121851256Y-73241246D01*
X121678215Y-73275666D01*
X121501785Y-73275666D01*
X121328744Y-73241246D01*
X121165743Y-73173729D01*
X121019046Y-73075709D01*
X120894291Y-72950954D01*
X120796271Y-72804257D01*
X120728754Y-72641256D01*
X120694334Y-72468215D01*
X120694334Y-72291785D01*
X120728754Y-72118744D01*
X120796271Y-71955743D01*
X120894291Y-71809046D01*
X121019046Y-71684291D01*
X121165743Y-71586271D01*
X121328744Y-71518754D01*
X121501785Y-71484334D01*
X121678215Y-71484334D01*
X121851256Y-71518754D01*
G37*
G36*
X124391256Y-71518754D02*
G01*
X124554257Y-71586271D01*
X124700954Y-71684291D01*
X124825709Y-71809046D01*
X124923729Y-71955743D01*
X124991246Y-72118744D01*
X125025666Y-72291785D01*
X125025666Y-72468215D01*
X124991246Y-72641256D01*
X124923729Y-72804257D01*
X124825709Y-72950954D01*
X124700954Y-73075709D01*
X124554257Y-73173729D01*
X124391256Y-73241246D01*
X124218215Y-73275666D01*
X124041785Y-73275666D01*
X123868744Y-73241246D01*
X123705743Y-73173729D01*
X123559046Y-73075709D01*
X123434291Y-72950954D01*
X123336271Y-72804257D01*
X123268754Y-72641256D01*
X123234334Y-72468215D01*
X123234334Y-72291785D01*
X123268754Y-72118744D01*
X123336271Y-71955743D01*
X123434291Y-71809046D01*
X123559046Y-71684291D01*
X123705743Y-71586271D01*
X123868744Y-71518754D01*
X124041785Y-71484334D01*
X124218215Y-71484334D01*
X124391256Y-71518754D01*
G37*
G36*
X126931256Y-71518754D02*
G01*
X127094257Y-71586271D01*
X127240954Y-71684291D01*
X127365709Y-71809046D01*
X127463729Y-71955743D01*
X127531246Y-72118744D01*
X127565666Y-72291785D01*
X127565666Y-72468215D01*
X127531246Y-72641256D01*
X127463729Y-72804257D01*
X127365709Y-72950954D01*
X127240954Y-73075709D01*
X127094257Y-73173729D01*
X126931256Y-73241246D01*
X126758215Y-73275666D01*
X126581785Y-73275666D01*
X126408744Y-73241246D01*
X126245743Y-73173729D01*
X126099046Y-73075709D01*
X125974291Y-72950954D01*
X125876271Y-72804257D01*
X125808754Y-72641256D01*
X125774334Y-72468215D01*
X125774334Y-72291785D01*
X125808754Y-72118744D01*
X125876271Y-71955743D01*
X125974291Y-71809046D01*
X126099046Y-71684291D01*
X126245743Y-71586271D01*
X126408744Y-71518754D01*
X126581785Y-71484334D01*
X126758215Y-71484334D01*
X126931256Y-71518754D01*
G37*
G36*
X129471256Y-71518754D02*
G01*
X129634257Y-71586271D01*
X129780954Y-71684291D01*
X129905709Y-71809046D01*
X130003729Y-71955743D01*
X130071246Y-72118744D01*
X130105666Y-72291785D01*
X130105666Y-72468215D01*
X130071246Y-72641256D01*
X130003729Y-72804257D01*
X129905709Y-72950954D01*
X129780954Y-73075709D01*
X129634257Y-73173729D01*
X129471256Y-73241246D01*
X129298215Y-73275666D01*
X129121785Y-73275666D01*
X128948744Y-73241246D01*
X128785743Y-73173729D01*
X128639046Y-73075709D01*
X128514291Y-72950954D01*
X128416271Y-72804257D01*
X128348754Y-72641256D01*
X128314334Y-72468215D01*
X128314334Y-72291785D01*
X128348754Y-72118744D01*
X128416271Y-71955743D01*
X128514291Y-71809046D01*
X128639046Y-71684291D01*
X128785743Y-71586271D01*
X128948744Y-71518754D01*
X129121785Y-71484334D01*
X129298215Y-71484334D01*
X129471256Y-71518754D01*
G37*
G36*
X132011256Y-71518754D02*
G01*
X132174257Y-71586271D01*
X132320954Y-71684291D01*
X132445709Y-71809046D01*
X132543729Y-71955743D01*
X132611246Y-72118744D01*
X132645666Y-72291785D01*
X132645666Y-72468215D01*
X132611246Y-72641256D01*
X132543729Y-72804257D01*
X132445709Y-72950954D01*
X132320954Y-73075709D01*
X132174257Y-73173729D01*
X132011256Y-73241246D01*
X131838215Y-73275666D01*
X131661785Y-73275666D01*
X131488744Y-73241246D01*
X131325743Y-73173729D01*
X131179046Y-73075709D01*
X131054291Y-72950954D01*
X130956271Y-72804257D01*
X130888754Y-72641256D01*
X130854334Y-72468215D01*
X130854334Y-72291785D01*
X130888754Y-72118744D01*
X130956271Y-71955743D01*
X131054291Y-71809046D01*
X131179046Y-71684291D01*
X131325743Y-71586271D01*
X131488744Y-71518754D01*
X131661785Y-71484334D01*
X131838215Y-71484334D01*
X132011256Y-71518754D01*
G37*
G36*
X134551256Y-71518754D02*
G01*
X134714257Y-71586271D01*
X134860954Y-71684291D01*
X134985709Y-71809046D01*
X135083729Y-71955743D01*
X135151246Y-72118744D01*
X135185666Y-72291785D01*
X135185666Y-72468215D01*
X135151246Y-72641256D01*
X135083729Y-72804257D01*
X134985709Y-72950954D01*
X134860954Y-73075709D01*
X134714257Y-73173729D01*
X134551256Y-73241246D01*
X134378215Y-73275666D01*
X134201785Y-73275666D01*
X134028744Y-73241246D01*
X133865743Y-73173729D01*
X133719046Y-73075709D01*
X133594291Y-72950954D01*
X133496271Y-72804257D01*
X133428754Y-72641256D01*
X133394334Y-72468215D01*
X133394334Y-72291785D01*
X133428754Y-72118744D01*
X133496271Y-71955743D01*
X133594291Y-71809046D01*
X133719046Y-71684291D01*
X133865743Y-71586271D01*
X134028744Y-71518754D01*
X134201785Y-71484334D01*
X134378215Y-71484334D01*
X134551256Y-71518754D01*
G37*
G36*
X137091256Y-71518754D02*
G01*
X137254257Y-71586271D01*
X137400954Y-71684291D01*
X137525709Y-71809046D01*
X137623729Y-71955743D01*
X137691246Y-72118744D01*
X137725666Y-72291785D01*
X137725666Y-72468215D01*
X137691246Y-72641256D01*
X137623729Y-72804257D01*
X137525709Y-72950954D01*
X137400954Y-73075709D01*
X137254257Y-73173729D01*
X137091256Y-73241246D01*
X136918215Y-73275666D01*
X136741785Y-73275666D01*
X136568744Y-73241246D01*
X136405743Y-73173729D01*
X136259046Y-73075709D01*
X136134291Y-72950954D01*
X136036271Y-72804257D01*
X135968754Y-72641256D01*
X135934334Y-72468215D01*
X135934334Y-72291785D01*
X135968754Y-72118744D01*
X136036271Y-71955743D01*
X136134291Y-71809046D01*
X136259046Y-71684291D01*
X136405743Y-71586271D01*
X136568744Y-71518754D01*
X136741785Y-71484334D01*
X136918215Y-71484334D01*
X137091256Y-71518754D01*
G37*
G36*
X139631256Y-71518754D02*
G01*
X139794257Y-71586271D01*
X139940954Y-71684291D01*
X140065709Y-71809046D01*
X140163729Y-71955743D01*
X140231246Y-72118744D01*
X140265666Y-72291785D01*
X140265666Y-72468215D01*
X140231246Y-72641256D01*
X140163729Y-72804257D01*
X140065709Y-72950954D01*
X139940954Y-73075709D01*
X139794257Y-73173729D01*
X139631256Y-73241246D01*
X139458215Y-73275666D01*
X139281785Y-73275666D01*
X139108744Y-73241246D01*
X138945743Y-73173729D01*
X138799046Y-73075709D01*
X138674291Y-72950954D01*
X138576271Y-72804257D01*
X138508754Y-72641256D01*
X138474334Y-72468215D01*
X138474334Y-72291785D01*
X138508754Y-72118744D01*
X138576271Y-71955743D01*
X138674291Y-71809046D01*
X138799046Y-71684291D01*
X138945743Y-71586271D01*
X139108744Y-71518754D01*
X139281785Y-71484334D01*
X139458215Y-71484334D01*
X139631256Y-71518754D01*
G37*
G36*
X172656662Y-71690276D02*
G01*
X172700459Y-71719541D01*
X172729724Y-71763338D01*
X172740000Y-71815000D01*
X172740000Y-72185000D01*
X172729724Y-72236662D01*
X172700459Y-72280459D01*
X172656662Y-72309724D01*
X172605000Y-72320000D01*
X172335000Y-72320000D01*
X172283338Y-72309724D01*
X172239541Y-72280459D01*
X172210276Y-72236662D01*
X172200000Y-72185000D01*
X172200000Y-71815000D01*
X172210276Y-71763338D01*
X172239541Y-71719541D01*
X172283338Y-71690276D01*
X172335000Y-71680000D01*
X172605000Y-71680000D01*
X172656662Y-71690276D01*
G37*
G36*
X173676662Y-71690276D02*
G01*
X173720459Y-71719541D01*
X173749724Y-71763338D01*
X173760000Y-71815000D01*
X173760000Y-72185000D01*
X173749724Y-72236662D01*
X173720459Y-72280459D01*
X173676662Y-72309724D01*
X173625000Y-72320000D01*
X173355000Y-72320000D01*
X173303338Y-72309724D01*
X173259541Y-72280459D01*
X173230276Y-72236662D01*
X173220000Y-72185000D01*
X173220000Y-71815000D01*
X173230276Y-71763338D01*
X173259541Y-71719541D01*
X173303338Y-71690276D01*
X173355000Y-71680000D01*
X173625000Y-71680000D01*
X173676662Y-71690276D01*
G37*
M02*
